<?xml version="1.0" encoding="utf-8"?>
<svg xmlns="http://www.w3.org/2000/svg" xmlns:xlink="http://www.w3.org/1999/xlink" width="672" height="480" viewBox="0 0 2688 1920">
<defs>
  <clipPath id="clip630">
    <rect x="0" y="0" width="2688" height="1920"/>
  </clipPath>
</defs>
<path clip-path="url(#clip630)" d="
M0 1920 L2688 1920 L2688 0 L0 0  Z
  " fill="#ffffff" fill-rule="evenodd" fill-opacity="1"/>
<defs>
  <clipPath id="clip631">
    <rect x="537" y="0" width="1883" height="1883"/>
  </clipPath>
</defs>
<path clip-path="url(#clip630)" d="
M189.154 1800.78 L2640.76 1800.78 L2640.76 47.2441 L189.154 47.2441  Z
  " fill="#ffffff" fill-rule="evenodd" fill-opacity="1"/>
<defs>
  <clipPath id="clip632">
    <rect x="189" y="47" width="2453" height="1755"/>
  </clipPath>
</defs>
<polyline clip-path="url(#clip632)" style="stroke:#000000; stroke-linecap:butt; stroke-linejoin:round; stroke-width:2; stroke-opacity:0.1; fill:none" points="
  238.922,1800.78 238.922,47.2441 
  "/>
<polyline clip-path="url(#clip632)" style="stroke:#000000; stroke-linecap:butt; stroke-linejoin:round; stroke-width:2; stroke-opacity:0.1; fill:none" points="
  832.27,1800.78 832.27,47.2441 
  "/>
<polyline clip-path="url(#clip632)" style="stroke:#000000; stroke-linecap:butt; stroke-linejoin:round; stroke-width:2; stroke-opacity:0.1; fill:none" points="
  1425.62,1800.78 1425.62,47.2441 
  "/>
<polyline clip-path="url(#clip632)" style="stroke:#000000; stroke-linecap:butt; stroke-linejoin:round; stroke-width:2; stroke-opacity:0.1; fill:none" points="
  2018.97,1800.78 2018.97,47.2441 
  "/>
<polyline clip-path="url(#clip632)" style="stroke:#000000; stroke-linecap:butt; stroke-linejoin:round; stroke-width:2; stroke-opacity:0.1; fill:none" points="
  2612.31,1800.78 2612.31,47.2441 
  "/>
<polyline clip-path="url(#clip630)" style="stroke:#000000; stroke-linecap:butt; stroke-linejoin:round; stroke-width:4; stroke-opacity:1; fill:none" points="
  189.154,1800.78 2640.76,1800.78 
  "/>
<polyline clip-path="url(#clip630)" style="stroke:#000000; stroke-linecap:butt; stroke-linejoin:round; stroke-width:4; stroke-opacity:1; fill:none" points="
  238.922,1800.78 238.922,1781.88 
  "/>
<polyline clip-path="url(#clip630)" style="stroke:#000000; stroke-linecap:butt; stroke-linejoin:round; stroke-width:4; stroke-opacity:1; fill:none" points="
  832.27,1800.78 832.27,1781.88 
  "/>
<polyline clip-path="url(#clip630)" style="stroke:#000000; stroke-linecap:butt; stroke-linejoin:round; stroke-width:4; stroke-opacity:1; fill:none" points="
  1425.62,1800.78 1425.62,1781.88 
  "/>
<polyline clip-path="url(#clip630)" style="stroke:#000000; stroke-linecap:butt; stroke-linejoin:round; stroke-width:4; stroke-opacity:1; fill:none" points="
  2018.97,1800.78 2018.97,1781.88 
  "/>
<polyline clip-path="url(#clip630)" style="stroke:#000000; stroke-linecap:butt; stroke-linejoin:round; stroke-width:4; stroke-opacity:1; fill:none" points="
  2612.31,1800.78 2612.31,1781.88 
  "/>
<path clip-path="url(#clip630)" d="M201.225 1834 Q197.614 1834 195.786 1837.57 Q193.98 1841.11 193.98 1848.24 Q193.98 1855.34 195.786 1858.91 Q197.614 1862.45 201.225 1862.45 Q204.86 1862.45 206.665 1858.91 Q208.494 1855.34 208.494 1848.24 Q208.494 1841.11 206.665 1837.57 Q204.86 1834 201.225 1834 M201.225 1830.3 Q207.036 1830.3 210.091 1834.9 Q213.17 1839.49 213.17 1848.24 Q213.17 1856.96 210.091 1861.57 Q207.036 1866.15 201.225 1866.15 Q195.415 1866.15 192.337 1861.57 Q189.281 1856.96 189.281 1848.24 Q189.281 1839.49 192.337 1834.9 Q195.415 1830.3 201.225 1830.3 Z" fill="#000000" fill-rule="evenodd" fill-opacity="1" /><path clip-path="url(#clip630)" d="M221.387 1859.6 L226.272 1859.6 L226.272 1865.48 L221.387 1865.48 L221.387 1859.6 Z" fill="#000000" fill-rule="evenodd" fill-opacity="1" /><path clip-path="url(#clip630)" d="M246.457 1834 Q242.846 1834 241.017 1837.57 Q239.211 1841.11 239.211 1848.24 Q239.211 1855.34 241.017 1858.91 Q242.846 1862.45 246.457 1862.45 Q250.091 1862.45 251.896 1858.91 Q253.725 1855.34 253.725 1848.24 Q253.725 1841.11 251.896 1837.57 Q250.091 1834 246.457 1834 M246.457 1830.3 Q252.267 1830.3 255.322 1834.9 Q258.401 1839.49 258.401 1848.24 Q258.401 1856.96 255.322 1861.57 Q252.267 1866.15 246.457 1866.15 Q240.647 1866.15 237.568 1861.57 Q234.512 1856.96 234.512 1848.24 Q234.512 1839.49 237.568 1834.9 Q240.647 1830.3 246.457 1830.3 Z" fill="#000000" fill-rule="evenodd" fill-opacity="1" /><path clip-path="url(#clip630)" d="M276.619 1834 Q273.007 1834 271.179 1837.57 Q269.373 1841.11 269.373 1848.24 Q269.373 1855.34 271.179 1858.91 Q273.007 1862.45 276.619 1862.45 Q280.253 1862.45 282.058 1858.91 Q283.887 1855.34 283.887 1848.24 Q283.887 1841.11 282.058 1837.57 Q280.253 1834 276.619 1834 M276.619 1830.3 Q282.429 1830.3 285.484 1834.9 Q288.563 1839.49 288.563 1848.24 Q288.563 1856.96 285.484 1861.57 Q282.429 1866.15 276.619 1866.15 Q270.808 1866.15 267.73 1861.57 Q264.674 1856.96 264.674 1848.24 Q264.674 1839.49 267.73 1834.9 Q270.808 1830.3 276.619 1830.3 Z" fill="#000000" fill-rule="evenodd" fill-opacity="1" /><path clip-path="url(#clip630)" d="M795.071 1834 Q791.46 1834 789.631 1837.57 Q787.826 1841.11 787.826 1848.24 Q787.826 1855.34 789.631 1858.91 Q791.46 1862.45 795.071 1862.45 Q798.705 1862.45 800.511 1858.91 Q802.339 1855.34 802.339 1848.24 Q802.339 1841.11 800.511 1837.57 Q798.705 1834 795.071 1834 M795.071 1830.3 Q800.881 1830.3 803.937 1834.9 Q807.015 1839.49 807.015 1848.24 Q807.015 1856.96 803.937 1861.57 Q800.881 1866.15 795.071 1866.15 Q789.261 1866.15 786.182 1861.57 Q783.127 1856.96 783.127 1848.24 Q783.127 1839.49 786.182 1834.9 Q789.261 1830.3 795.071 1830.3 Z" fill="#000000" fill-rule="evenodd" fill-opacity="1" /><path clip-path="url(#clip630)" d="M815.233 1859.6 L820.117 1859.6 L820.117 1865.48 L815.233 1865.48 L815.233 1859.6 Z" fill="#000000" fill-rule="evenodd" fill-opacity="1" /><path clip-path="url(#clip630)" d="M834.33 1861.55 L850.649 1861.55 L850.649 1865.48 L828.705 1865.48 L828.705 1861.55 Q831.367 1858.79 835.95 1854.16 Q840.557 1849.51 841.737 1848.17 Q843.983 1845.65 844.862 1843.91 Q845.765 1842.15 845.765 1840.46 Q845.765 1837.71 843.821 1835.97 Q841.899 1834.23 838.798 1834.23 Q836.599 1834.23 834.145 1835 Q831.714 1835.76 828.937 1837.31 L828.937 1832.59 Q831.761 1831.46 834.214 1830.88 Q836.668 1830.3 838.705 1830.3 Q844.075 1830.3 847.27 1832.98 Q850.464 1835.67 850.464 1840.16 Q850.464 1842.29 849.654 1844.21 Q848.867 1846.11 846.761 1848.7 Q846.182 1849.37 843.08 1852.59 Q839.978 1855.78 834.33 1861.55 Z" fill="#000000" fill-rule="evenodd" fill-opacity="1" /><path clip-path="url(#clip630)" d="M860.51 1830.92 L878.867 1830.92 L878.867 1834.86 L864.793 1834.86 L864.793 1843.33 Q865.811 1842.98 866.83 1842.82 Q867.848 1842.64 868.867 1842.64 Q874.654 1842.64 878.034 1845.81 Q881.413 1848.98 881.413 1854.4 Q881.413 1859.97 877.941 1863.08 Q874.469 1866.15 868.149 1866.15 Q865.973 1866.15 863.705 1865.78 Q861.46 1865.41 859.052 1864.67 L859.052 1859.97 Q861.135 1861.11 863.358 1861.66 Q865.58 1862.22 868.057 1862.22 Q872.061 1862.22 874.399 1860.11 Q876.737 1858.01 876.737 1854.4 Q876.737 1850.78 874.399 1848.68 Q872.061 1846.57 868.057 1846.57 Q866.182 1846.57 864.307 1846.99 Q862.455 1847.4 860.51 1848.28 L860.51 1830.92 Z" fill="#000000" fill-rule="evenodd" fill-opacity="1" /><path clip-path="url(#clip630)" d="M1387.92 1834 Q1384.31 1834 1382.48 1837.57 Q1380.68 1841.11 1380.68 1848.24 Q1380.68 1855.34 1382.48 1858.91 Q1384.31 1862.45 1387.92 1862.45 Q1391.56 1862.45 1393.36 1858.91 Q1395.19 1855.34 1395.19 1848.24 Q1395.19 1841.11 1393.36 1837.57 Q1391.56 1834 1387.92 1834 M1387.92 1830.3 Q1393.73 1830.3 1396.79 1834.9 Q1399.87 1839.49 1399.87 1848.24 Q1399.87 1856.96 1396.79 1861.57 Q1393.73 1866.15 1387.92 1866.15 Q1382.11 1866.15 1379.03 1861.57 Q1375.98 1856.96 1375.98 1848.24 Q1375.98 1839.49 1379.03 1834.9 Q1382.11 1830.3 1387.92 1830.3 Z" fill="#000000" fill-rule="evenodd" fill-opacity="1" /><path clip-path="url(#clip630)" d="M1408.08 1859.6 L1412.97 1859.6 L1412.97 1865.48 L1408.08 1865.48 L1408.08 1859.6 Z" fill="#000000" fill-rule="evenodd" fill-opacity="1" /><path clip-path="url(#clip630)" d="M1423.2 1830.92 L1441.56 1830.92 L1441.56 1834.86 L1427.48 1834.86 L1427.48 1843.33 Q1428.5 1842.98 1429.52 1842.82 Q1430.54 1842.64 1431.56 1842.64 Q1437.34 1842.64 1440.72 1845.81 Q1444.1 1848.98 1444.1 1854.4 Q1444.1 1859.97 1440.63 1863.08 Q1437.16 1866.15 1430.84 1866.15 Q1428.66 1866.15 1426.39 1865.78 Q1424.15 1865.41 1421.74 1864.67 L1421.74 1859.97 Q1423.82 1861.11 1426.05 1861.66 Q1428.27 1862.22 1430.75 1862.22 Q1434.75 1862.22 1437.09 1860.11 Q1439.43 1858.01 1439.43 1854.4 Q1439.43 1850.78 1437.09 1848.68 Q1434.75 1846.57 1430.75 1846.57 Q1428.87 1846.57 1427 1846.99 Q1425.14 1847.4 1423.2 1848.28 L1423.2 1830.92 Z" fill="#000000" fill-rule="evenodd" fill-opacity="1" /><path clip-path="url(#clip630)" d="M1463.31 1834 Q1459.7 1834 1457.87 1837.57 Q1456.07 1841.11 1456.07 1848.24 Q1456.07 1855.34 1457.87 1858.91 Q1459.7 1862.45 1463.31 1862.45 Q1466.95 1862.45 1468.75 1858.91 Q1470.58 1855.34 1470.58 1848.24 Q1470.58 1841.11 1468.75 1837.57 Q1466.95 1834 1463.31 1834 M1463.31 1830.3 Q1469.12 1830.3 1472.18 1834.9 Q1475.26 1839.49 1475.26 1848.24 Q1475.26 1856.96 1472.18 1861.57 Q1469.12 1866.15 1463.31 1866.15 Q1457.5 1866.15 1454.43 1861.57 Q1451.37 1856.96 1451.37 1848.24 Q1451.37 1839.49 1454.43 1834.9 Q1457.5 1830.3 1463.31 1830.3 Z" fill="#000000" fill-rule="evenodd" fill-opacity="1" /><path clip-path="url(#clip630)" d="M1981.77 1834 Q1978.16 1834 1976.33 1837.57 Q1974.52 1841.11 1974.52 1848.24 Q1974.52 1855.34 1976.33 1858.91 Q1978.16 1862.45 1981.77 1862.45 Q1985.4 1862.45 1987.21 1858.91 Q1989.04 1855.34 1989.04 1848.24 Q1989.04 1841.11 1987.21 1837.57 Q1985.4 1834 1981.77 1834 M1981.77 1830.3 Q1987.58 1830.3 1990.63 1834.9 Q1993.71 1839.49 1993.71 1848.24 Q1993.71 1856.96 1990.63 1861.57 Q1987.58 1866.15 1981.77 1866.15 Q1975.96 1866.15 1972.88 1861.57 Q1969.82 1856.96 1969.82 1848.24 Q1969.82 1839.49 1972.88 1834.9 Q1975.96 1830.3 1981.77 1830.3 Z" fill="#000000" fill-rule="evenodd" fill-opacity="1" /><path clip-path="url(#clip630)" d="M2001.93 1859.6 L2006.81 1859.6 L2006.81 1865.48 L2001.93 1865.48 L2001.93 1859.6 Z" fill="#000000" fill-rule="evenodd" fill-opacity="1" /><path clip-path="url(#clip630)" d="M2015.82 1830.92 L2038.04 1830.92 L2038.04 1832.91 L2025.49 1865.48 L2020.61 1865.48 L2032.41 1834.86 L2015.82 1834.86 L2015.82 1830.92 Z" fill="#000000" fill-rule="evenodd" fill-opacity="1" /><path clip-path="url(#clip630)" d="M2047.21 1830.92 L2065.56 1830.92 L2065.56 1834.86 L2051.49 1834.86 L2051.49 1843.33 Q2052.51 1842.98 2053.53 1842.82 Q2054.54 1842.64 2055.56 1842.64 Q2061.35 1842.64 2064.73 1845.81 Q2068.11 1848.98 2068.11 1854.4 Q2068.11 1859.97 2064.64 1863.08 Q2061.16 1866.15 2054.85 1866.15 Q2052.67 1866.15 2050.4 1865.78 Q2048.16 1865.41 2045.75 1864.67 L2045.75 1859.97 Q2047.83 1861.11 2050.05 1861.66 Q2052.28 1862.22 2054.75 1862.22 Q2058.76 1862.22 2061.1 1860.11 Q2063.43 1858.01 2063.43 1854.4 Q2063.43 1850.78 2061.1 1848.68 Q2058.76 1846.57 2054.75 1846.57 Q2052.88 1846.57 2051 1846.99 Q2049.15 1847.4 2047.21 1848.28 L2047.21 1830.92 Z" fill="#000000" fill-rule="evenodd" fill-opacity="1" /><path clip-path="url(#clip630)" d="M2564.39 1861.55 L2572.02 1861.55 L2572.02 1835.18 L2563.71 1836.85 L2563.71 1832.59 L2571.98 1830.92 L2576.65 1830.92 L2576.65 1861.55 L2584.29 1861.55 L2584.29 1865.48 L2564.39 1865.48 L2564.39 1861.55 Z" fill="#000000" fill-rule="evenodd" fill-opacity="1" /><path clip-path="url(#clip630)" d="M2593.74 1859.6 L2598.62 1859.6 L2598.62 1865.48 L2593.74 1865.48 L2593.74 1859.6 Z" fill="#000000" fill-rule="evenodd" fill-opacity="1" /><path clip-path="url(#clip630)" d="M2618.81 1834 Q2615.2 1834 2613.37 1837.57 Q2611.56 1841.11 2611.56 1848.24 Q2611.56 1855.34 2613.37 1858.91 Q2615.2 1862.45 2618.81 1862.45 Q2622.44 1862.45 2624.25 1858.91 Q2626.08 1855.34 2626.08 1848.24 Q2626.08 1841.11 2624.25 1837.57 Q2622.44 1834 2618.81 1834 M2618.81 1830.3 Q2624.62 1830.3 2627.67 1834.9 Q2630.75 1839.49 2630.75 1848.24 Q2630.75 1856.96 2627.67 1861.57 Q2624.62 1866.15 2618.81 1866.15 Q2613 1866.15 2609.92 1861.57 Q2606.86 1856.96 2606.86 1848.24 Q2606.86 1839.49 2609.92 1834.9 Q2613 1830.3 2618.81 1830.3 Z" fill="#000000" fill-rule="evenodd" fill-opacity="1" /><path clip-path="url(#clip630)" d="M2648.97 1834 Q2645.36 1834 2643.53 1837.57 Q2641.72 1841.11 2641.72 1848.24 Q2641.72 1855.34 2643.53 1858.91 Q2645.36 1862.45 2648.97 1862.45 Q2652.6 1862.45 2654.41 1858.91 Q2656.24 1855.34 2656.24 1848.24 Q2656.24 1841.11 2654.41 1837.57 Q2652.6 1834 2648.97 1834 M2648.97 1830.3 Q2654.78 1830.3 2657.83 1834.9 Q2660.91 1839.49 2660.91 1848.24 Q2660.91 1856.96 2657.83 1861.57 Q2654.78 1866.15 2648.97 1866.15 Q2643.16 1866.15 2640.08 1861.57 Q2637.02 1856.96 2637.02 1848.24 Q2637.02 1839.49 2640.08 1834.9 Q2643.16 1830.3 2648.97 1830.3 Z" fill="#000000" fill-rule="evenodd" fill-opacity="1" /><polyline clip-path="url(#clip632)" style="stroke:#000000; stroke-linecap:butt; stroke-linejoin:round; stroke-width:2; stroke-opacity:0.1; fill:none" points="
  189.154,1768.82 2640.76,1768.82 
  "/>
<polyline clip-path="url(#clip632)" style="stroke:#000000; stroke-linecap:butt; stroke-linejoin:round; stroke-width:2; stroke-opacity:0.1; fill:none" points="
  189.154,1342.27 2640.76,1342.27 
  "/>
<polyline clip-path="url(#clip632)" style="stroke:#000000; stroke-linecap:butt; stroke-linejoin:round; stroke-width:2; stroke-opacity:0.1; fill:none" points="
  189.154,915.721 2640.76,915.721 
  "/>
<polyline clip-path="url(#clip632)" style="stroke:#000000; stroke-linecap:butt; stroke-linejoin:round; stroke-width:2; stroke-opacity:0.1; fill:none" points="
  189.154,489.171 2640.76,489.171 
  "/>
<polyline clip-path="url(#clip632)" style="stroke:#000000; stroke-linecap:butt; stroke-linejoin:round; stroke-width:2; stroke-opacity:0.1; fill:none" points="
  189.154,62.6217 2640.76,62.6217 
  "/>
<polyline clip-path="url(#clip630)" style="stroke:#000000; stroke-linecap:butt; stroke-linejoin:round; stroke-width:4; stroke-opacity:1; fill:none" points="
  189.154,1800.78 189.154,47.2441 
  "/>
<polyline clip-path="url(#clip630)" style="stroke:#000000; stroke-linecap:butt; stroke-linejoin:round; stroke-width:4; stroke-opacity:1; fill:none" points="
  189.154,1768.82 208.052,1768.82 
  "/>
<polyline clip-path="url(#clip630)" style="stroke:#000000; stroke-linecap:butt; stroke-linejoin:round; stroke-width:4; stroke-opacity:1; fill:none" points="
  189.154,1342.27 208.052,1342.27 
  "/>
<polyline clip-path="url(#clip630)" style="stroke:#000000; stroke-linecap:butt; stroke-linejoin:round; stroke-width:4; stroke-opacity:1; fill:none" points="
  189.154,915.721 208.052,915.721 
  "/>
<polyline clip-path="url(#clip630)" style="stroke:#000000; stroke-linecap:butt; stroke-linejoin:round; stroke-width:4; stroke-opacity:1; fill:none" points="
  189.154,489.171 208.052,489.171 
  "/>
<polyline clip-path="url(#clip630)" style="stroke:#000000; stroke-linecap:butt; stroke-linejoin:round; stroke-width:4; stroke-opacity:1; fill:none" points="
  189.154,62.6217 208.052,62.6217 
  "/>
<path clip-path="url(#clip630)" d="M61.4965 1754.62 Q57.8854 1754.62 56.0567 1758.18 Q54.2512 1761.73 54.2512 1768.86 Q54.2512 1775.96 56.0567 1779.53 Q57.8854 1783.07 61.4965 1783.07 Q65.1307 1783.07 66.9363 1779.53 Q68.765 1775.96 68.765 1768.86 Q68.765 1761.73 66.9363 1758.18 Q65.1307 1754.62 61.4965 1754.62 M61.4965 1750.92 Q67.3067 1750.92 70.3622 1755.52 Q73.4409 1760.11 73.4409 1768.86 Q73.4409 1777.58 70.3622 1782.19 Q67.3067 1786.77 61.4965 1786.77 Q55.6864 1786.77 52.6077 1782.19 Q49.5521 1777.58 49.5521 1768.86 Q49.5521 1760.11 52.6077 1755.52 Q55.6864 1750.92 61.4965 1750.92 Z" fill="#000000" fill-rule="evenodd" fill-opacity="1" /><path clip-path="url(#clip630)" d="M81.6584 1780.22 L86.5427 1780.22 L86.5427 1786.1 L81.6584 1786.1 L81.6584 1780.22 Z" fill="#000000" fill-rule="evenodd" fill-opacity="1" /><path clip-path="url(#clip630)" d="M106.728 1754.62 Q103.117 1754.62 101.288 1758.18 Q99.4824 1761.73 99.4824 1768.86 Q99.4824 1775.96 101.288 1779.53 Q103.117 1783.07 106.728 1783.07 Q110.362 1783.07 112.168 1779.53 Q113.996 1775.96 113.996 1768.86 Q113.996 1761.73 112.168 1758.18 Q110.362 1754.62 106.728 1754.62 M106.728 1750.92 Q112.538 1750.92 115.593 1755.52 Q118.672 1760.11 118.672 1768.86 Q118.672 1777.58 115.593 1782.19 Q112.538 1786.77 106.728 1786.77 Q100.918 1786.77 97.8389 1782.19 Q94.7834 1777.58 94.7834 1768.86 Q94.7834 1760.11 97.8389 1755.52 Q100.918 1750.92 106.728 1750.92 Z" fill="#000000" fill-rule="evenodd" fill-opacity="1" /><path clip-path="url(#clip630)" d="M136.89 1754.62 Q133.279 1754.62 131.45 1758.18 Q129.644 1761.73 129.644 1768.86 Q129.644 1775.96 131.45 1779.53 Q133.279 1783.07 136.89 1783.07 Q140.524 1783.07 142.329 1779.53 Q144.158 1775.96 144.158 1768.86 Q144.158 1761.73 142.329 1758.18 Q140.524 1754.62 136.89 1754.62 M136.89 1750.92 Q142.7 1750.92 145.755 1755.52 Q148.834 1760.11 148.834 1768.86 Q148.834 1777.58 145.755 1782.19 Q142.7 1786.77 136.89 1786.77 Q131.079 1786.77 128.001 1782.19 Q124.945 1777.58 124.945 1768.86 Q124.945 1760.11 128.001 1755.52 Q131.079 1750.92 136.89 1750.92 Z" fill="#000000" fill-rule="evenodd" fill-opacity="1" /><path clip-path="url(#clip630)" d="M62.4919 1328.07 Q58.8808 1328.07 57.0521 1331.63 Q55.2465 1335.18 55.2465 1342.31 Q55.2465 1349.41 57.0521 1352.98 Q58.8808 1356.52 62.4919 1356.52 Q66.1261 1356.52 67.9317 1352.98 Q69.7604 1349.41 69.7604 1342.31 Q69.7604 1335.18 67.9317 1331.63 Q66.1261 1328.07 62.4919 1328.07 M62.4919 1324.37 Q68.302 1324.37 71.3576 1328.97 Q74.4363 1333.56 74.4363 1342.31 Q74.4363 1351.03 71.3576 1355.64 Q68.302 1360.22 62.4919 1360.22 Q56.6817 1360.22 53.603 1355.64 Q50.5475 1351.03 50.5475 1342.31 Q50.5475 1333.56 53.603 1328.97 Q56.6817 1324.37 62.4919 1324.37 Z" fill="#000000" fill-rule="evenodd" fill-opacity="1" /><path clip-path="url(#clip630)" d="M82.6538 1353.67 L87.538 1353.67 L87.538 1359.55 L82.6538 1359.55 L82.6538 1353.67 Z" fill="#000000" fill-rule="evenodd" fill-opacity="1" /><path clip-path="url(#clip630)" d="M101.751 1355.62 L118.07 1355.62 L118.07 1359.55 L96.126 1359.55 L96.126 1355.62 Q98.788 1352.86 103.371 1348.23 Q107.978 1343.58 109.158 1342.24 Q111.404 1339.71 112.283 1337.98 Q113.186 1336.22 113.186 1334.53 Q113.186 1331.77 111.242 1330.04 Q109.32 1328.3 106.218 1328.3 Q104.019 1328.3 101.566 1329.07 Q99.1352 1329.83 96.3574 1331.38 L96.3574 1326.66 Q99.1815 1325.52 101.635 1324.94 Q104.089 1324.37 106.126 1324.37 Q111.496 1324.37 114.691 1327.05 Q117.885 1329.74 117.885 1334.23 Q117.885 1336.36 117.075 1338.28 Q116.288 1340.18 114.181 1342.77 Q113.603 1343.44 110.501 1346.66 Q107.399 1349.85 101.751 1355.62 Z" fill="#000000" fill-rule="evenodd" fill-opacity="1" /><path clip-path="url(#clip630)" d="M127.931 1324.99 L146.288 1324.99 L146.288 1328.93 L132.214 1328.93 L132.214 1337.4 Q133.232 1337.05 134.251 1336.89 Q135.269 1336.7 136.288 1336.7 Q142.075 1336.7 145.454 1339.88 Q148.834 1343.05 148.834 1348.46 Q148.834 1354.04 145.362 1357.14 Q141.89 1360.22 135.57 1360.22 Q133.394 1360.22 131.126 1359.85 Q128.88 1359.48 126.473 1358.74 L126.473 1354.04 Q128.556 1355.18 130.779 1355.73 Q133.001 1356.29 135.478 1356.29 Q139.482 1356.29 141.82 1354.18 Q144.158 1352.07 144.158 1348.46 Q144.158 1344.85 141.82 1342.75 Q139.482 1340.64 135.478 1340.64 Q133.603 1340.64 131.728 1341.06 Q129.876 1341.47 127.931 1342.35 L127.931 1324.99 Z" fill="#000000" fill-rule="evenodd" fill-opacity="1" /><path clip-path="url(#clip630)" d="M61.4965 901.52 Q57.8854 901.52 56.0567 905.085 Q54.2512 908.626 54.2512 915.756 Q54.2512 922.862 56.0567 926.427 Q57.8854 929.969 61.4965 929.969 Q65.1307 929.969 66.9363 926.427 Q68.765 922.862 68.765 915.756 Q68.765 908.626 66.9363 905.085 Q65.1307 901.52 61.4965 901.52 M61.4965 897.816 Q67.3067 897.816 70.3622 902.423 Q73.4409 907.006 73.4409 915.756 Q73.4409 924.483 70.3622 929.089 Q67.3067 933.673 61.4965 933.673 Q55.6864 933.673 52.6077 929.089 Q49.5521 924.483 49.5521 915.756 Q49.5521 907.006 52.6077 902.423 Q55.6864 897.816 61.4965 897.816 Z" fill="#000000" fill-rule="evenodd" fill-opacity="1" /><path clip-path="url(#clip630)" d="M81.6584 927.122 L86.5427 927.122 L86.5427 933.001 L81.6584 933.001 L81.6584 927.122 Z" fill="#000000" fill-rule="evenodd" fill-opacity="1" /><path clip-path="url(#clip630)" d="M96.7741 898.441 L115.13 898.441 L115.13 902.376 L101.056 902.376 L101.056 910.849 Q102.075 910.501 103.094 910.339 Q104.112 910.154 105.131 910.154 Q110.918 910.154 114.297 913.325 Q117.677 916.497 117.677 921.913 Q117.677 927.492 114.205 930.594 Q110.732 933.673 104.413 933.673 Q102.237 933.673 99.9685 933.302 Q97.7232 932.932 95.3158 932.191 L95.3158 927.492 Q97.3991 928.626 99.6213 929.182 Q101.844 929.737 104.32 929.737 Q108.325 929.737 110.663 927.631 Q113.001 925.524 113.001 921.913 Q113.001 918.302 110.663 916.196 Q108.325 914.089 104.32 914.089 Q102.445 914.089 100.57 914.506 Q98.7185 914.923 96.7741 915.802 L96.7741 898.441 Z" fill="#000000" fill-rule="evenodd" fill-opacity="1" /><path clip-path="url(#clip630)" d="M136.89 901.52 Q133.279 901.52 131.45 905.085 Q129.644 908.626 129.644 915.756 Q129.644 922.862 131.45 926.427 Q133.279 929.969 136.89 929.969 Q140.524 929.969 142.329 926.427 Q144.158 922.862 144.158 915.756 Q144.158 908.626 142.329 905.085 Q140.524 901.52 136.89 901.52 M136.89 897.816 Q142.7 897.816 145.755 902.423 Q148.834 907.006 148.834 915.756 Q148.834 924.483 145.755 929.089 Q142.7 933.673 136.89 933.673 Q131.079 933.673 128.001 929.089 Q124.945 924.483 124.945 915.756 Q124.945 907.006 128.001 902.423 Q131.079 897.816 136.89 897.816 Z" fill="#000000" fill-rule="evenodd" fill-opacity="1" /><path clip-path="url(#clip630)" d="M62.4919 474.97 Q58.8808 474.97 57.0521 478.535 Q55.2465 482.077 55.2465 489.206 Q55.2465 496.313 57.0521 499.877 Q58.8808 503.419 62.4919 503.419 Q66.1261 503.419 67.9317 499.877 Q69.7604 496.313 69.7604 489.206 Q69.7604 482.077 67.9317 478.535 Q66.1261 474.97 62.4919 474.97 M62.4919 471.266 Q68.302 471.266 71.3576 475.873 Q74.4363 480.456 74.4363 489.206 Q74.4363 497.933 71.3576 502.539 Q68.302 507.123 62.4919 507.123 Q56.6817 507.123 53.603 502.539 Q50.5475 497.933 50.5475 489.206 Q50.5475 480.456 53.603 475.873 Q56.6817 471.266 62.4919 471.266 Z" fill="#000000" fill-rule="evenodd" fill-opacity="1" /><path clip-path="url(#clip630)" d="M82.6538 500.572 L87.538 500.572 L87.538 506.451 L82.6538 506.451 L82.6538 500.572 Z" fill="#000000" fill-rule="evenodd" fill-opacity="1" /><path clip-path="url(#clip630)" d="M96.5426 471.891 L118.765 471.891 L118.765 473.882 L106.218 506.451 L101.334 506.451 L113.14 475.827 L96.5426 475.827 L96.5426 471.891 Z" fill="#000000" fill-rule="evenodd" fill-opacity="1" /><path clip-path="url(#clip630)" d="M127.931 471.891 L146.288 471.891 L146.288 475.827 L132.214 475.827 L132.214 484.299 Q133.232 483.952 134.251 483.79 Q135.269 483.604 136.288 483.604 Q142.075 483.604 145.454 486.776 Q148.834 489.947 148.834 495.364 Q148.834 500.942 145.362 504.044 Q141.89 507.123 135.57 507.123 Q133.394 507.123 131.126 506.752 Q128.88 506.382 126.473 505.641 L126.473 500.942 Q128.556 502.076 130.779 502.632 Q133.001 503.188 135.478 503.188 Q139.482 503.188 141.82 501.081 Q144.158 498.975 144.158 495.364 Q144.158 491.752 141.82 489.646 Q139.482 487.54 135.478 487.54 Q133.603 487.54 131.728 487.956 Q129.876 488.373 127.931 489.252 L127.931 471.891 Z" fill="#000000" fill-rule="evenodd" fill-opacity="1" /><path clip-path="url(#clip630)" d="M52.3067 75.9665 L59.9456 75.9665 L59.9456 49.6009 L51.6354 51.2675 L51.6354 47.0083 L59.8993 45.3417 L64.5752 45.3417 L64.5752 75.9665 L72.214 75.9665 L72.214 79.9017 L52.3067 79.9017 L52.3067 75.9665 Z" fill="#000000" fill-rule="evenodd" fill-opacity="1" /><path clip-path="url(#clip630)" d="M81.6584 74.0221 L86.5427 74.0221 L86.5427 79.9017 L81.6584 79.9017 L81.6584 74.0221 Z" fill="#000000" fill-rule="evenodd" fill-opacity="1" /><path clip-path="url(#clip630)" d="M106.728 48.4203 Q103.117 48.4203 101.288 51.9851 Q99.4824 55.5268 99.4824 62.6564 Q99.4824 69.7628 101.288 73.3276 Q103.117 76.8693 106.728 76.8693 Q110.362 76.8693 112.168 73.3276 Q113.996 69.7628 113.996 62.6564 Q113.996 55.5268 112.168 51.9851 Q110.362 48.4203 106.728 48.4203 M106.728 44.7167 Q112.538 44.7167 115.593 49.3231 Q118.672 53.9064 118.672 62.6564 Q118.672 71.3832 115.593 75.9896 Q112.538 80.5729 106.728 80.5729 Q100.918 80.5729 97.8389 75.9896 Q94.7834 71.3832 94.7834 62.6564 Q94.7834 53.9064 97.8389 49.3231 Q100.918 44.7167 106.728 44.7167 Z" fill="#000000" fill-rule="evenodd" fill-opacity="1" /><path clip-path="url(#clip630)" d="M136.89 48.4203 Q133.279 48.4203 131.45 51.9851 Q129.644 55.5268 129.644 62.6564 Q129.644 69.7628 131.45 73.3276 Q133.279 76.8693 136.89 76.8693 Q140.524 76.8693 142.329 73.3276 Q144.158 69.7628 144.158 62.6564 Q144.158 55.5268 142.329 51.9851 Q140.524 48.4203 136.89 48.4203 M136.89 44.7167 Q142.7 44.7167 145.755 49.3231 Q148.834 53.9064 148.834 62.6564 Q148.834 71.3832 145.755 75.9896 Q142.7 80.5729 136.89 80.5729 Q131.079 80.5729 128.001 75.9896 Q124.945 71.3832 124.945 62.6564 Q124.945 53.9064 128.001 49.3231 Q131.079 44.7167 136.89 44.7167 Z" fill="#000000" fill-rule="evenodd" fill-opacity="1" /><polyline clip-path="url(#clip632)" style="stroke:#009af9; stroke-linecap:butt; stroke-linejoin:round; stroke-width:4; stroke-opacity:1; fill:none" points="
  2421.78,1444.36 1707.73,687.042 2259.34,1427.49 1688.56,693.767 882.98,1637.68 926.797,1522.33 1751.95,1203.64 1137.68,1111.76 1661.51,737.577 1094.12,443.918 
  2064.87,307.209 576.155,712.976 628.419,1182.53 1009.66,496.431 1491.53,968.102 2218.99,1620.99 1717.49,1676.4 1472.3,1679.46 2571.37,855.982 1369.12,1429.89 
  1546.87,1674.64 1845.43,472.897 1439.45,1365.85 1129.4,865.154 905.961,1226.19 2292.83,1493.06 1263.96,1712.52 1692.85,1057.21 1222.58,138.933 1816.6,244.02 
  1454.72,1373.37 1967.08,1080.85 923.141,909.3 1703.24,1299.95 1067.29,592.256 740.421,687.801 586.494,1176.91 1049.69,1579.29 2133.72,549.001 1768.55,183.212 
  2153.72,1621.94 753.251,1505.82 1983.03,952.376 437.858,1150.44 1616.89,1711.02 2361.03,766.938 1972.35,804.073 1044.05,1612.19 1519.94,798.643 1890.78,1048.52 
  1775.67,386.137 2340.94,819.223 2272.11,1174.36 1649.94,713.92 726.777,1447.08 1387.82,1751.15 1125.6,1099.19 680.136,1743.77 1575.71,1388.05 656.25,1520.41 
  2023.26,96.8724 2330.86,359.571 677.914,1208.1 1445.41,1066.88 1200.78,1508.41 2063.22,1183.39 979.734,1276.22 280.709,1050.98 258.539,570.8 376.398,112.784 
  1453.51,1670.78 365.254,252.567 2469.94,578.492 2127.53,434.889 2100.71,361.767 836.254,545.633 1999.04,1512.59 1515.55,1666.07 847.255,1050.87 1016.15,1091.29 
  2039.27,173.259 1457.24,873.019 851.307,575.234 333.058,1562.41 1629.16,1036.27 2334.17,566.392 1252.34,1574.47 2026.5,1604.55 912.817,1370.24 868.69,327.597 
  2523.55,1038.41 1514.29,216.127 1622.47,806.279 1488.21,1359.18 2051.54,975.208 2092.87,1510.47 505.82,250.456 1438.88,486.341 2370.3,790.61 939.611,838.984 
  
  "/>
<path clip-path="url(#clip630)" d="
M2261.45 209.375 L2559.04 209.375 L2559.04 105.695 L2261.45 105.695  Z
  " fill="#ffffff" fill-rule="evenodd" fill-opacity="1"/>
<polyline clip-path="url(#clip630)" style="stroke:#000000; stroke-linecap:butt; stroke-linejoin:round; stroke-width:4; stroke-opacity:1; fill:none" points="
  2261.45,209.375 2559.04,209.375 2559.04,105.695 2261.45,105.695 2261.45,209.375 
  "/>
<polyline clip-path="url(#clip630)" style="stroke:#009af9; stroke-linecap:butt; stroke-linejoin:round; stroke-width:4; stroke-opacity:1; fill:none" points="
  2288.69,157.535 2452.13,157.535 
  "/>
<path clip-path="url(#clip630)" d="M2493.21 177.223 Q2491.4 181.852 2489.69 183.264 Q2487.98 184.676 2485.11 184.676 L2481.7 184.676 L2481.7 181.112 L2484.2 181.112 Q2485.96 181.112 2486.93 180.278 Q2487.91 179.445 2489.09 176.343 L2489.85 174.399 L2479.37 148.889 L2483.88 148.889 L2491.98 169.167 L2500.08 148.889 L2504.6 148.889 L2493.21 177.223 Z" fill="#000000" fill-rule="evenodd" fill-opacity="1" /><path clip-path="url(#clip630)" d="M2511.89 170.88 L2519.53 170.88 L2519.53 144.515 L2511.22 146.181 L2511.22 141.922 L2519.48 140.255 L2524.16 140.255 L2524.16 170.88 L2531.8 170.88 L2531.8 174.815 L2511.89 174.815 L2511.89 170.88 Z" fill="#000000" fill-rule="evenodd" fill-opacity="1" /></svg>
