<?xml version="1.0" encoding="utf-8"?>
<svg xmlns="http://www.w3.org/2000/svg" xmlns:xlink="http://www.w3.org/1999/xlink" width="672" height="480" viewBox="0 0 2688 1920">
<defs>
  <clipPath id="clip840">
    <rect x="0" y="0" width="2688" height="1920"/>
  </clipPath>
</defs>
<path clip-path="url(#clip840)" d="
M0 1920 L2688 1920 L2688 0 L0 0  Z
  " fill="#ffffff" fill-rule="evenodd" fill-opacity="1"/>
<defs>
  <clipPath id="clip841">
    <rect x="537" y="0" width="1883" height="1883"/>
  </clipPath>
</defs>
<path clip-path="url(#clip840)" d="
M189.154 1800.78 L2640.76 1800.78 L2640.76 47.2441 L189.154 47.2441  Z
  " fill="#ffffff" fill-rule="evenodd" fill-opacity="1"/>
<defs>
  <clipPath id="clip842">
    <rect x="189" y="47" width="2453" height="1755"/>
  </clipPath>
</defs>
<polyline clip-path="url(#clip842)" style="stroke:#000000; stroke-linecap:butt; stroke-linejoin:round; stroke-width:2; stroke-opacity:0.1; fill:none" points="
  251.965,1800.78 251.965,47.2441 
  "/>
<polyline clip-path="url(#clip842)" style="stroke:#000000; stroke-linecap:butt; stroke-linejoin:round; stroke-width:2; stroke-opacity:0.1; fill:none" points="
  836.221,1800.78 836.221,47.2441 
  "/>
<polyline clip-path="url(#clip842)" style="stroke:#000000; stroke-linecap:butt; stroke-linejoin:round; stroke-width:2; stroke-opacity:0.1; fill:none" points="
  1420.48,1800.78 1420.48,47.2441 
  "/>
<polyline clip-path="url(#clip842)" style="stroke:#000000; stroke-linecap:butt; stroke-linejoin:round; stroke-width:2; stroke-opacity:0.1; fill:none" points="
  2004.73,1800.78 2004.73,47.2441 
  "/>
<polyline clip-path="url(#clip842)" style="stroke:#000000; stroke-linecap:butt; stroke-linejoin:round; stroke-width:2; stroke-opacity:0.1; fill:none" points="
  2588.99,1800.78 2588.99,47.2441 
  "/>
<polyline clip-path="url(#clip840)" style="stroke:#000000; stroke-linecap:butt; stroke-linejoin:round; stroke-width:4; stroke-opacity:1; fill:none" points="
  189.154,1800.78 2640.76,1800.78 
  "/>
<polyline clip-path="url(#clip840)" style="stroke:#000000; stroke-linecap:butt; stroke-linejoin:round; stroke-width:4; stroke-opacity:1; fill:none" points="
  251.965,1800.78 251.965,1781.88 
  "/>
<polyline clip-path="url(#clip840)" style="stroke:#000000; stroke-linecap:butt; stroke-linejoin:round; stroke-width:4; stroke-opacity:1; fill:none" points="
  836.221,1800.78 836.221,1781.88 
  "/>
<polyline clip-path="url(#clip840)" style="stroke:#000000; stroke-linecap:butt; stroke-linejoin:round; stroke-width:4; stroke-opacity:1; fill:none" points="
  1420.48,1800.78 1420.48,1781.88 
  "/>
<polyline clip-path="url(#clip840)" style="stroke:#000000; stroke-linecap:butt; stroke-linejoin:round; stroke-width:4; stroke-opacity:1; fill:none" points="
  2004.73,1800.78 2004.73,1781.88 
  "/>
<polyline clip-path="url(#clip840)" style="stroke:#000000; stroke-linecap:butt; stroke-linejoin:round; stroke-width:4; stroke-opacity:1; fill:none" points="
  2588.99,1800.78 2588.99,1781.88 
  "/>
<path clip-path="url(#clip840)" d="M214.269 1834 Q210.658 1834 208.829 1837.57 Q207.023 1841.11 207.023 1848.24 Q207.023 1855.34 208.829 1858.91 Q210.658 1862.45 214.269 1862.45 Q217.903 1862.45 219.708 1858.91 Q221.537 1855.34 221.537 1848.24 Q221.537 1841.11 219.708 1837.57 Q217.903 1834 214.269 1834 M214.269 1830.3 Q220.079 1830.3 223.134 1834.9 Q226.213 1839.49 226.213 1848.24 Q226.213 1856.96 223.134 1861.57 Q220.079 1866.15 214.269 1866.15 Q208.459 1866.15 205.38 1861.57 Q202.324 1856.96 202.324 1848.24 Q202.324 1839.49 205.38 1834.9 Q208.459 1830.3 214.269 1830.3 Z" fill="#000000" fill-rule="evenodd" fill-opacity="1" /><path clip-path="url(#clip840)" d="M234.431 1859.6 L239.315 1859.6 L239.315 1865.48 L234.431 1865.48 L234.431 1859.6 Z" fill="#000000" fill-rule="evenodd" fill-opacity="1" /><path clip-path="url(#clip840)" d="M259.5 1834 Q255.889 1834 254.06 1837.57 Q252.255 1841.11 252.255 1848.24 Q252.255 1855.34 254.06 1858.91 Q255.889 1862.45 259.5 1862.45 Q263.134 1862.45 264.94 1858.91 Q266.768 1855.34 266.768 1848.24 Q266.768 1841.11 264.94 1837.57 Q263.134 1834 259.5 1834 M259.5 1830.3 Q265.31 1830.3 268.366 1834.9 Q271.444 1839.49 271.444 1848.24 Q271.444 1856.96 268.366 1861.57 Q265.31 1866.15 259.5 1866.15 Q253.69 1866.15 250.611 1861.57 Q247.556 1856.96 247.556 1848.24 Q247.556 1839.49 250.611 1834.9 Q253.69 1830.3 259.5 1830.3 Z" fill="#000000" fill-rule="evenodd" fill-opacity="1" /><path clip-path="url(#clip840)" d="M289.662 1834 Q286.051 1834 284.222 1837.57 Q282.416 1841.11 282.416 1848.24 Q282.416 1855.34 284.222 1858.91 Q286.051 1862.45 289.662 1862.45 Q293.296 1862.45 295.102 1858.91 Q296.93 1855.34 296.93 1848.24 Q296.93 1841.11 295.102 1837.57 Q293.296 1834 289.662 1834 M289.662 1830.3 Q295.472 1830.3 298.527 1834.9 Q301.606 1839.49 301.606 1848.24 Q301.606 1856.96 298.527 1861.57 Q295.472 1866.15 289.662 1866.15 Q283.852 1866.15 280.773 1861.57 Q277.717 1856.96 277.717 1848.24 Q277.717 1839.49 280.773 1834.9 Q283.852 1830.3 289.662 1830.3 Z" fill="#000000" fill-rule="evenodd" fill-opacity="1" /><path clip-path="url(#clip840)" d="M799.022 1834 Q795.411 1834 793.583 1837.57 Q791.777 1841.11 791.777 1848.24 Q791.777 1855.34 793.583 1858.91 Q795.411 1862.45 799.022 1862.45 Q802.657 1862.45 804.462 1858.91 Q806.291 1855.34 806.291 1848.24 Q806.291 1841.11 804.462 1837.57 Q802.657 1834 799.022 1834 M799.022 1830.3 Q804.832 1830.3 807.888 1834.9 Q810.967 1839.49 810.967 1848.24 Q810.967 1856.96 807.888 1861.57 Q804.832 1866.15 799.022 1866.15 Q793.212 1866.15 790.133 1861.57 Q787.078 1856.96 787.078 1848.24 Q787.078 1839.49 790.133 1834.9 Q793.212 1830.3 799.022 1830.3 Z" fill="#000000" fill-rule="evenodd" fill-opacity="1" /><path clip-path="url(#clip840)" d="M819.184 1859.6 L824.068 1859.6 L824.068 1865.48 L819.184 1865.48 L819.184 1859.6 Z" fill="#000000" fill-rule="evenodd" fill-opacity="1" /><path clip-path="url(#clip840)" d="M838.281 1861.55 L854.601 1861.55 L854.601 1865.48 L832.656 1865.48 L832.656 1861.55 Q835.318 1858.79 839.902 1854.16 Q844.508 1849.51 845.689 1848.17 Q847.934 1845.65 848.814 1843.91 Q849.716 1842.15 849.716 1840.46 Q849.716 1837.71 847.772 1835.97 Q845.851 1834.23 842.749 1834.23 Q840.55 1834.23 838.096 1835 Q835.666 1835.76 832.888 1837.31 L832.888 1832.59 Q835.712 1831.46 838.166 1830.88 Q840.619 1830.3 842.656 1830.3 Q848.027 1830.3 851.221 1832.98 Q854.416 1835.67 854.416 1840.16 Q854.416 1842.29 853.605 1844.21 Q852.818 1846.11 850.712 1848.7 Q850.133 1849.37 847.031 1852.59 Q843.929 1855.78 838.281 1861.55 Z" fill="#000000" fill-rule="evenodd" fill-opacity="1" /><path clip-path="url(#clip840)" d="M864.462 1830.92 L882.818 1830.92 L882.818 1834.86 L868.744 1834.86 L868.744 1843.33 Q869.763 1842.98 870.781 1842.82 Q871.8 1842.64 872.818 1842.64 Q878.605 1842.64 881.985 1845.81 Q885.364 1848.98 885.364 1854.4 Q885.364 1859.97 881.892 1863.08 Q878.42 1866.15 872.101 1866.15 Q869.925 1866.15 867.656 1865.78 Q865.411 1865.41 863.003 1864.67 L863.003 1859.97 Q865.087 1861.11 867.309 1861.66 Q869.531 1862.22 872.008 1862.22 Q876.013 1862.22 878.351 1860.11 Q880.689 1858.01 880.689 1854.4 Q880.689 1850.78 878.351 1848.68 Q876.013 1846.57 872.008 1846.57 Q870.133 1846.57 868.258 1846.99 Q866.406 1847.4 864.462 1848.28 L864.462 1830.92 Z" fill="#000000" fill-rule="evenodd" fill-opacity="1" /><path clip-path="url(#clip840)" d="M1382.78 1834 Q1379.17 1834 1377.34 1837.57 Q1375.54 1841.11 1375.54 1848.24 Q1375.54 1855.34 1377.34 1858.91 Q1379.17 1862.45 1382.78 1862.45 Q1386.41 1862.45 1388.22 1858.91 Q1390.05 1855.34 1390.05 1848.24 Q1390.05 1841.11 1388.22 1837.57 Q1386.41 1834 1382.78 1834 M1382.78 1830.3 Q1388.59 1830.3 1391.65 1834.9 Q1394.73 1839.49 1394.73 1848.24 Q1394.73 1856.96 1391.65 1861.57 Q1388.59 1866.15 1382.78 1866.15 Q1376.97 1866.15 1373.89 1861.57 Q1370.84 1856.96 1370.84 1848.24 Q1370.84 1839.49 1373.89 1834.9 Q1376.97 1830.3 1382.78 1830.3 Z" fill="#000000" fill-rule="evenodd" fill-opacity="1" /><path clip-path="url(#clip840)" d="M1402.94 1859.6 L1407.83 1859.6 L1407.83 1865.48 L1402.94 1865.48 L1402.94 1859.6 Z" fill="#000000" fill-rule="evenodd" fill-opacity="1" /><path clip-path="url(#clip840)" d="M1418.06 1830.92 L1436.41 1830.92 L1436.41 1834.86 L1422.34 1834.86 L1422.34 1843.33 Q1423.36 1842.98 1424.38 1842.82 Q1425.4 1842.64 1426.41 1842.64 Q1432.2 1842.64 1435.58 1845.81 Q1438.96 1848.98 1438.96 1854.4 Q1438.96 1859.97 1435.49 1863.08 Q1432.02 1866.15 1425.7 1866.15 Q1423.52 1866.15 1421.25 1865.78 Q1419.01 1865.41 1416.6 1864.67 L1416.6 1859.97 Q1418.68 1861.11 1420.91 1861.66 Q1423.13 1862.22 1425.6 1862.22 Q1429.61 1862.22 1431.95 1860.11 Q1434.28 1858.01 1434.28 1854.4 Q1434.28 1850.78 1431.95 1848.68 Q1429.61 1846.57 1425.6 1846.57 Q1423.73 1846.57 1421.85 1846.99 Q1420 1847.4 1418.06 1848.28 L1418.06 1830.92 Z" fill="#000000" fill-rule="evenodd" fill-opacity="1" /><path clip-path="url(#clip840)" d="M1458.17 1834 Q1454.56 1834 1452.73 1837.57 Q1450.93 1841.11 1450.93 1848.24 Q1450.93 1855.34 1452.73 1858.91 Q1454.56 1862.45 1458.17 1862.45 Q1461.81 1862.45 1463.61 1858.91 Q1465.44 1855.34 1465.44 1848.24 Q1465.44 1841.11 1463.61 1837.57 Q1461.81 1834 1458.17 1834 M1458.17 1830.3 Q1463.98 1830.3 1467.04 1834.9 Q1470.12 1839.49 1470.12 1848.24 Q1470.12 1856.96 1467.04 1861.57 Q1463.98 1866.15 1458.17 1866.15 Q1452.36 1866.15 1449.28 1861.57 Q1446.23 1856.96 1446.23 1848.24 Q1446.23 1839.49 1449.28 1834.9 Q1452.36 1830.3 1458.17 1830.3 Z" fill="#000000" fill-rule="evenodd" fill-opacity="1" /><path clip-path="url(#clip840)" d="M1967.53 1834 Q1963.92 1834 1962.09 1837.57 Q1960.29 1841.11 1960.29 1848.24 Q1960.29 1855.34 1962.09 1858.91 Q1963.92 1862.45 1967.53 1862.45 Q1971.17 1862.45 1972.97 1858.91 Q1974.8 1855.34 1974.8 1848.24 Q1974.8 1841.11 1972.97 1837.57 Q1971.17 1834 1967.53 1834 M1967.53 1830.3 Q1973.34 1830.3 1976.4 1834.9 Q1979.48 1839.49 1979.48 1848.24 Q1979.48 1856.96 1976.4 1861.57 Q1973.34 1866.15 1967.53 1866.15 Q1961.72 1866.15 1958.65 1861.57 Q1955.59 1856.96 1955.59 1848.24 Q1955.59 1839.49 1958.65 1834.9 Q1961.72 1830.3 1967.53 1830.3 Z" fill="#000000" fill-rule="evenodd" fill-opacity="1" /><path clip-path="url(#clip840)" d="M1987.7 1859.6 L1992.58 1859.6 L1992.58 1865.48 L1987.7 1865.48 L1987.7 1859.6 Z" fill="#000000" fill-rule="evenodd" fill-opacity="1" /><path clip-path="url(#clip840)" d="M2001.59 1830.92 L2023.81 1830.92 L2023.81 1832.91 L2011.26 1865.48 L2006.38 1865.48 L2018.18 1834.86 L2001.59 1834.86 L2001.59 1830.92 Z" fill="#000000" fill-rule="evenodd" fill-opacity="1" /><path clip-path="url(#clip840)" d="M2032.97 1830.92 L2051.33 1830.92 L2051.33 1834.86 L2037.26 1834.86 L2037.26 1843.33 Q2038.27 1842.98 2039.29 1842.82 Q2040.31 1842.64 2041.33 1842.64 Q2047.12 1842.64 2050.5 1845.81 Q2053.88 1848.98 2053.88 1854.4 Q2053.88 1859.97 2050.4 1863.08 Q2046.93 1866.15 2040.61 1866.15 Q2038.44 1866.15 2036.17 1865.78 Q2033.92 1865.41 2031.52 1864.67 L2031.52 1859.97 Q2033.6 1861.11 2035.82 1861.66 Q2038.04 1862.22 2040.52 1862.22 Q2044.52 1862.22 2046.86 1860.11 Q2049.2 1858.01 2049.2 1854.4 Q2049.2 1850.78 2046.86 1848.68 Q2044.52 1846.57 2040.52 1846.57 Q2038.65 1846.57 2036.77 1846.99 Q2034.92 1847.4 2032.97 1848.28 L2032.97 1830.92 Z" fill="#000000" fill-rule="evenodd" fill-opacity="1" /><path clip-path="url(#clip840)" d="M2541.06 1861.55 L2548.7 1861.55 L2548.7 1835.18 L2540.39 1836.85 L2540.39 1832.59 L2548.65 1830.92 L2553.33 1830.92 L2553.33 1861.55 L2560.97 1861.55 L2560.97 1865.48 L2541.06 1865.48 L2541.06 1861.55 Z" fill="#000000" fill-rule="evenodd" fill-opacity="1" /><path clip-path="url(#clip840)" d="M2570.41 1859.6 L2575.3 1859.6 L2575.3 1865.48 L2570.41 1865.48 L2570.41 1859.6 Z" fill="#000000" fill-rule="evenodd" fill-opacity="1" /><path clip-path="url(#clip840)" d="M2595.48 1834 Q2591.87 1834 2590.04 1837.57 Q2588.24 1841.11 2588.24 1848.24 Q2588.24 1855.34 2590.04 1858.91 Q2591.87 1862.45 2595.48 1862.45 Q2599.12 1862.45 2600.92 1858.91 Q2602.75 1855.34 2602.75 1848.24 Q2602.75 1841.11 2600.92 1837.57 Q2599.12 1834 2595.48 1834 M2595.48 1830.3 Q2601.29 1830.3 2604.35 1834.9 Q2607.43 1839.49 2607.43 1848.24 Q2607.43 1856.96 2604.35 1861.57 Q2601.29 1866.15 2595.48 1866.15 Q2589.67 1866.15 2586.59 1861.57 Q2583.54 1856.96 2583.54 1848.24 Q2583.54 1839.49 2586.59 1834.9 Q2589.67 1830.3 2595.48 1830.3 Z" fill="#000000" fill-rule="evenodd" fill-opacity="1" /><path clip-path="url(#clip840)" d="M2625.64 1834 Q2622.03 1834 2620.2 1837.57 Q2618.4 1841.11 2618.4 1848.24 Q2618.4 1855.34 2620.2 1858.91 Q2622.03 1862.45 2625.64 1862.45 Q2629.28 1862.45 2631.08 1858.91 Q2632.91 1855.34 2632.91 1848.24 Q2632.91 1841.11 2631.08 1837.57 Q2629.28 1834 2625.64 1834 M2625.64 1830.3 Q2631.45 1830.3 2634.51 1834.9 Q2637.59 1839.49 2637.59 1848.24 Q2637.59 1856.96 2634.51 1861.57 Q2631.45 1866.15 2625.64 1866.15 Q2619.83 1866.15 2616.76 1861.57 Q2613.7 1856.96 2613.7 1848.24 Q2613.7 1839.49 2616.76 1834.9 Q2619.83 1830.3 2625.64 1830.3 Z" fill="#000000" fill-rule="evenodd" fill-opacity="1" /><polyline clip-path="url(#clip842)" style="stroke:#000000; stroke-linecap:butt; stroke-linejoin:round; stroke-width:2; stroke-opacity:0.1; fill:none" points="
  189.154,1772.95 2640.76,1772.95 
  "/>
<polyline clip-path="url(#clip842)" style="stroke:#000000; stroke-linecap:butt; stroke-linejoin:round; stroke-width:2; stroke-opacity:0.1; fill:none" points="
  189.154,1351.6 2640.76,1351.6 
  "/>
<polyline clip-path="url(#clip842)" style="stroke:#000000; stroke-linecap:butt; stroke-linejoin:round; stroke-width:2; stroke-opacity:0.1; fill:none" points="
  189.154,930.251 2640.76,930.251 
  "/>
<polyline clip-path="url(#clip842)" style="stroke:#000000; stroke-linecap:butt; stroke-linejoin:round; stroke-width:2; stroke-opacity:0.1; fill:none" points="
  189.154,508.9 2640.76,508.9 
  "/>
<polyline clip-path="url(#clip842)" style="stroke:#000000; stroke-linecap:butt; stroke-linejoin:round; stroke-width:2; stroke-opacity:0.1; fill:none" points="
  189.154,87.5498 2640.76,87.5498 
  "/>
<polyline clip-path="url(#clip840)" style="stroke:#000000; stroke-linecap:butt; stroke-linejoin:round; stroke-width:4; stroke-opacity:1; fill:none" points="
  189.154,1800.78 189.154,47.2441 
  "/>
<polyline clip-path="url(#clip840)" style="stroke:#000000; stroke-linecap:butt; stroke-linejoin:round; stroke-width:4; stroke-opacity:1; fill:none" points="
  189.154,1772.95 208.052,1772.95 
  "/>
<polyline clip-path="url(#clip840)" style="stroke:#000000; stroke-linecap:butt; stroke-linejoin:round; stroke-width:4; stroke-opacity:1; fill:none" points="
  189.154,1351.6 208.052,1351.6 
  "/>
<polyline clip-path="url(#clip840)" style="stroke:#000000; stroke-linecap:butt; stroke-linejoin:round; stroke-width:4; stroke-opacity:1; fill:none" points="
  189.154,930.251 208.052,930.251 
  "/>
<polyline clip-path="url(#clip840)" style="stroke:#000000; stroke-linecap:butt; stroke-linejoin:round; stroke-width:4; stroke-opacity:1; fill:none" points="
  189.154,508.9 208.052,508.9 
  "/>
<polyline clip-path="url(#clip840)" style="stroke:#000000; stroke-linecap:butt; stroke-linejoin:round; stroke-width:4; stroke-opacity:1; fill:none" points="
  189.154,87.5498 208.052,87.5498 
  "/>
<path clip-path="url(#clip840)" d="M61.4965 1758.75 Q57.8854 1758.75 56.0567 1762.32 Q54.2512 1765.86 54.2512 1772.99 Q54.2512 1780.09 56.0567 1783.66 Q57.8854 1787.2 61.4965 1787.2 Q65.1307 1787.2 66.9363 1783.66 Q68.765 1780.09 68.765 1772.99 Q68.765 1765.86 66.9363 1762.32 Q65.1307 1758.75 61.4965 1758.75 M61.4965 1755.05 Q67.3067 1755.05 70.3622 1759.65 Q73.4409 1764.24 73.4409 1772.99 Q73.4409 1781.71 70.3622 1786.32 Q67.3067 1790.9 61.4965 1790.9 Q55.6864 1790.9 52.6077 1786.32 Q49.5521 1781.71 49.5521 1772.99 Q49.5521 1764.24 52.6077 1759.65 Q55.6864 1755.05 61.4965 1755.05 Z" fill="#000000" fill-rule="evenodd" fill-opacity="1" /><path clip-path="url(#clip840)" d="M81.6584 1784.35 L86.5427 1784.35 L86.5427 1790.23 L81.6584 1790.23 L81.6584 1784.35 Z" fill="#000000" fill-rule="evenodd" fill-opacity="1" /><path clip-path="url(#clip840)" d="M106.728 1758.75 Q103.117 1758.75 101.288 1762.32 Q99.4824 1765.86 99.4824 1772.99 Q99.4824 1780.09 101.288 1783.66 Q103.117 1787.2 106.728 1787.2 Q110.362 1787.2 112.168 1783.66 Q113.996 1780.09 113.996 1772.99 Q113.996 1765.86 112.168 1762.32 Q110.362 1758.75 106.728 1758.75 M106.728 1755.05 Q112.538 1755.05 115.593 1759.65 Q118.672 1764.24 118.672 1772.99 Q118.672 1781.71 115.593 1786.32 Q112.538 1790.9 106.728 1790.9 Q100.918 1790.9 97.8389 1786.32 Q94.7834 1781.71 94.7834 1772.99 Q94.7834 1764.24 97.8389 1759.65 Q100.918 1755.05 106.728 1755.05 Z" fill="#000000" fill-rule="evenodd" fill-opacity="1" /><path clip-path="url(#clip840)" d="M136.89 1758.75 Q133.279 1758.75 131.45 1762.32 Q129.644 1765.86 129.644 1772.99 Q129.644 1780.09 131.45 1783.66 Q133.279 1787.2 136.89 1787.2 Q140.524 1787.2 142.329 1783.66 Q144.158 1780.09 144.158 1772.99 Q144.158 1765.86 142.329 1762.32 Q140.524 1758.75 136.89 1758.75 M136.89 1755.05 Q142.7 1755.05 145.755 1759.65 Q148.834 1764.24 148.834 1772.99 Q148.834 1781.71 145.755 1786.32 Q142.7 1790.9 136.89 1790.9 Q131.079 1790.9 128.001 1786.32 Q124.945 1781.71 124.945 1772.99 Q124.945 1764.24 128.001 1759.65 Q131.079 1755.05 136.89 1755.05 Z" fill="#000000" fill-rule="evenodd" fill-opacity="1" /><path clip-path="url(#clip840)" d="M62.4919 1337.4 Q58.8808 1337.4 57.0521 1340.97 Q55.2465 1344.51 55.2465 1351.64 Q55.2465 1358.74 57.0521 1362.31 Q58.8808 1365.85 62.4919 1365.85 Q66.1261 1365.85 67.9317 1362.31 Q69.7604 1358.74 69.7604 1351.64 Q69.7604 1344.51 67.9317 1340.97 Q66.1261 1337.4 62.4919 1337.4 M62.4919 1333.7 Q68.302 1333.7 71.3576 1338.3 Q74.4363 1342.89 74.4363 1351.64 Q74.4363 1360.36 71.3576 1364.97 Q68.302 1369.55 62.4919 1369.55 Q56.6817 1369.55 53.603 1364.97 Q50.5475 1360.36 50.5475 1351.64 Q50.5475 1342.89 53.603 1338.3 Q56.6817 1333.7 62.4919 1333.7 Z" fill="#000000" fill-rule="evenodd" fill-opacity="1" /><path clip-path="url(#clip840)" d="M82.6538 1363 L87.538 1363 L87.538 1368.88 L82.6538 1368.88 L82.6538 1363 Z" fill="#000000" fill-rule="evenodd" fill-opacity="1" /><path clip-path="url(#clip840)" d="M101.751 1364.95 L118.07 1364.95 L118.07 1368.88 L96.126 1368.88 L96.126 1364.95 Q98.788 1362.19 103.371 1357.56 Q107.978 1352.91 109.158 1351.57 Q111.404 1349.04 112.283 1347.31 Q113.186 1345.55 113.186 1343.86 Q113.186 1341.1 111.242 1339.37 Q109.32 1337.63 106.218 1337.63 Q104.019 1337.63 101.566 1338.4 Q99.1352 1339.16 96.3574 1340.71 L96.3574 1335.99 Q99.1815 1334.85 101.635 1334.28 Q104.089 1333.7 106.126 1333.7 Q111.496 1333.7 114.691 1336.38 Q117.885 1339.07 117.885 1343.56 Q117.885 1345.69 117.075 1347.61 Q116.288 1349.51 114.181 1352.1 Q113.603 1352.77 110.501 1355.99 Q107.399 1359.18 101.751 1364.95 Z" fill="#000000" fill-rule="evenodd" fill-opacity="1" /><path clip-path="url(#clip840)" d="M127.931 1334.32 L146.288 1334.32 L146.288 1338.26 L132.214 1338.26 L132.214 1346.73 Q133.232 1346.38 134.251 1346.22 Q135.269 1346.03 136.288 1346.03 Q142.075 1346.03 145.454 1349.21 Q148.834 1352.38 148.834 1357.79 Q148.834 1363.37 145.362 1366.47 Q141.89 1369.55 135.57 1369.55 Q133.394 1369.55 131.126 1369.18 Q128.88 1368.81 126.473 1368.07 L126.473 1363.37 Q128.556 1364.51 130.779 1365.06 Q133.001 1365.62 135.478 1365.62 Q139.482 1365.62 141.82 1363.51 Q144.158 1361.41 144.158 1357.79 Q144.158 1354.18 141.82 1352.08 Q139.482 1349.97 135.478 1349.97 Q133.603 1349.97 131.728 1350.39 Q129.876 1350.8 127.931 1351.68 L127.931 1334.32 Z" fill="#000000" fill-rule="evenodd" fill-opacity="1" /><path clip-path="url(#clip840)" d="M61.4965 916.05 Q57.8854 916.05 56.0567 919.615 Q54.2512 923.156 54.2512 930.286 Q54.2512 937.392 56.0567 940.957 Q57.8854 944.499 61.4965 944.499 Q65.1307 944.499 66.9363 940.957 Q68.765 937.392 68.765 930.286 Q68.765 923.156 66.9363 919.615 Q65.1307 916.05 61.4965 916.05 M61.4965 912.346 Q67.3067 912.346 70.3622 916.953 Q73.4409 921.536 73.4409 930.286 Q73.4409 939.013 70.3622 943.619 Q67.3067 948.202 61.4965 948.202 Q55.6864 948.202 52.6077 943.619 Q49.5521 939.013 49.5521 930.286 Q49.5521 921.536 52.6077 916.953 Q55.6864 912.346 61.4965 912.346 Z" fill="#000000" fill-rule="evenodd" fill-opacity="1" /><path clip-path="url(#clip840)" d="M81.6584 941.652 L86.5427 941.652 L86.5427 947.531 L81.6584 947.531 L81.6584 941.652 Z" fill="#000000" fill-rule="evenodd" fill-opacity="1" /><path clip-path="url(#clip840)" d="M96.7741 912.971 L115.13 912.971 L115.13 916.906 L101.056 916.906 L101.056 925.378 Q102.075 925.031 103.094 924.869 Q104.112 924.684 105.131 924.684 Q110.918 924.684 114.297 927.855 Q117.677 931.027 117.677 936.443 Q117.677 942.022 114.205 945.124 Q110.732 948.202 104.413 948.202 Q102.237 948.202 99.9685 947.832 Q97.7232 947.462 95.3158 946.721 L95.3158 942.022 Q97.3991 943.156 99.6213 943.712 Q101.844 944.267 104.32 944.267 Q108.325 944.267 110.663 942.161 Q113.001 940.054 113.001 936.443 Q113.001 932.832 110.663 930.726 Q108.325 928.619 104.32 928.619 Q102.445 928.619 100.57 929.036 Q98.7185 929.453 96.7741 930.332 L96.7741 912.971 Z" fill="#000000" fill-rule="evenodd" fill-opacity="1" /><path clip-path="url(#clip840)" d="M136.89 916.05 Q133.279 916.05 131.45 919.615 Q129.644 923.156 129.644 930.286 Q129.644 937.392 131.45 940.957 Q133.279 944.499 136.89 944.499 Q140.524 944.499 142.329 940.957 Q144.158 937.392 144.158 930.286 Q144.158 923.156 142.329 919.615 Q140.524 916.05 136.89 916.05 M136.89 912.346 Q142.7 912.346 145.755 916.953 Q148.834 921.536 148.834 930.286 Q148.834 939.013 145.755 943.619 Q142.7 948.202 136.89 948.202 Q131.079 948.202 128.001 943.619 Q124.945 939.013 124.945 930.286 Q124.945 921.536 128.001 916.953 Q131.079 912.346 136.89 912.346 Z" fill="#000000" fill-rule="evenodd" fill-opacity="1" /><path clip-path="url(#clip840)" d="M62.4919 494.699 Q58.8808 494.699 57.0521 498.264 Q55.2465 501.806 55.2465 508.935 Q55.2465 516.042 57.0521 519.606 Q58.8808 523.148 62.4919 523.148 Q66.1261 523.148 67.9317 519.606 Q69.7604 516.042 69.7604 508.935 Q69.7604 501.806 67.9317 498.264 Q66.1261 494.699 62.4919 494.699 M62.4919 490.995 Q68.302 490.995 71.3576 495.602 Q74.4363 500.185 74.4363 508.935 Q74.4363 517.662 71.3576 522.268 Q68.302 526.852 62.4919 526.852 Q56.6817 526.852 53.603 522.268 Q50.5475 517.662 50.5475 508.935 Q50.5475 500.185 53.603 495.602 Q56.6817 490.995 62.4919 490.995 Z" fill="#000000" fill-rule="evenodd" fill-opacity="1" /><path clip-path="url(#clip840)" d="M82.6538 520.301 L87.538 520.301 L87.538 526.18 L82.6538 526.18 L82.6538 520.301 Z" fill="#000000" fill-rule="evenodd" fill-opacity="1" /><path clip-path="url(#clip840)" d="M96.5426 491.62 L118.765 491.62 L118.765 493.611 L106.218 526.18 L101.334 526.18 L113.14 495.556 L96.5426 495.556 L96.5426 491.62 Z" fill="#000000" fill-rule="evenodd" fill-opacity="1" /><path clip-path="url(#clip840)" d="M127.931 491.62 L146.288 491.62 L146.288 495.556 L132.214 495.556 L132.214 504.028 Q133.232 503.681 134.251 503.519 Q135.269 503.333 136.288 503.333 Q142.075 503.333 145.454 506.505 Q148.834 509.676 148.834 515.093 Q148.834 520.671 145.362 523.773 Q141.89 526.852 135.57 526.852 Q133.394 526.852 131.126 526.481 Q128.88 526.111 126.473 525.37 L126.473 520.671 Q128.556 521.806 130.779 522.361 Q133.001 522.917 135.478 522.917 Q139.482 522.917 141.82 520.81 Q144.158 518.704 144.158 515.093 Q144.158 511.481 141.82 509.375 Q139.482 507.269 135.478 507.269 Q133.603 507.269 131.728 507.685 Q129.876 508.102 127.931 508.982 L127.931 491.62 Z" fill="#000000" fill-rule="evenodd" fill-opacity="1" /><path clip-path="url(#clip840)" d="M52.3067 100.895 L59.9456 100.895 L59.9456 74.5291 L51.6354 76.1957 L51.6354 71.9365 L59.8993 70.2698 L64.5752 70.2698 L64.5752 100.895 L72.214 100.895 L72.214 104.83 L52.3067 104.83 L52.3067 100.895 Z" fill="#000000" fill-rule="evenodd" fill-opacity="1" /><path clip-path="url(#clip840)" d="M81.6584 98.9502 L86.5427 98.9502 L86.5427 104.83 L81.6584 104.83 L81.6584 98.9502 Z" fill="#000000" fill-rule="evenodd" fill-opacity="1" /><path clip-path="url(#clip840)" d="M106.728 73.3485 Q103.117 73.3485 101.288 76.9133 Q99.4824 80.455 99.4824 87.5845 Q99.4824 94.691 101.288 98.2558 Q103.117 101.797 106.728 101.797 Q110.362 101.797 112.168 98.2558 Q113.996 94.691 113.996 87.5845 Q113.996 80.455 112.168 76.9133 Q110.362 73.3485 106.728 73.3485 M106.728 69.6448 Q112.538 69.6448 115.593 74.2513 Q118.672 78.8346 118.672 87.5845 Q118.672 96.3114 115.593 100.918 Q112.538 105.501 106.728 105.501 Q100.918 105.501 97.8389 100.918 Q94.7834 96.3114 94.7834 87.5845 Q94.7834 78.8346 97.8389 74.2513 Q100.918 69.6448 106.728 69.6448 Z" fill="#000000" fill-rule="evenodd" fill-opacity="1" /><path clip-path="url(#clip840)" d="M136.89 73.3485 Q133.279 73.3485 131.45 76.9133 Q129.644 80.455 129.644 87.5845 Q129.644 94.691 131.45 98.2558 Q133.279 101.797 136.89 101.797 Q140.524 101.797 142.329 98.2558 Q144.158 94.691 144.158 87.5845 Q144.158 80.455 142.329 76.9133 Q140.524 73.3485 136.89 73.3485 M136.89 69.6448 Q142.7 69.6448 145.755 74.2513 Q148.834 78.8346 148.834 87.5845 Q148.834 96.3114 145.755 100.918 Q142.7 105.501 136.89 105.501 Q131.079 105.501 128.001 100.918 Q124.945 96.3114 124.945 87.5845 Q124.945 78.8346 128.001 74.2513 Q131.079 69.6448 136.89 69.6448 Z" fill="#000000" fill-rule="evenodd" fill-opacity="1" /><polyline clip-path="url(#clip842)" style="stroke:#009af9; stroke-linecap:butt; stroke-linejoin:round; stroke-width:4; stroke-opacity:1; fill:none" points="
  1675.31,1314.88 896.99,1750.6 2451.56,642.455 1060.56,1638.85 1416.84,1081.15 1044.3,1258.36 527.801,1198.43 2162.22,1192.47 2308.55,423.908 470.325,1401.43 
  1560.52,448.83 1684.27,535.674 485.598,1348.56 2237.64,540.855 2390.63,1732.64 1065.46,789.401 1616.75,96.8724 456.365,1077.12 622.792,972.17 1110.71,326.835 
  1885.03,1062.19 1310.73,340.866 1579.25,152.978 1353.58,1304.25 1605.02,151.605 375.512,595.096 535.101,776.51 2141.13,1193.33 1229.93,922.603 2286.34,1339.93 
  1093.29,579.006 464.765,254.702 948.888,740.976 1617.2,1599.92 1250.96,1345.45 1931.35,215.604 2353.35,260.25 1364.46,1751.15 1085.12,1090.02 673.82,113.729 
  1479.82,1310.07 258.539,1132.02 1367.21,720.434 2014.05,579.341 1515.26,1038.66 1983.85,242.92 1795.72,212.213 1119.42,1357.6 1795.19,963.957 2282.89,570.414 
  2436.64,1194.63 1795.95,1182.37 340.218,1427.04 1741.62,958.24 1038.26,1251.41 378.041,1026.17 1922.57,1750.65 1880.88,608.914 1849.48,1006.88 2187.29,1313.96 
  1109.57,767.111 1700.85,1212.39 706.605,582.198 1615.34,768.785 1629.69,1202.2 317.922,1684.09 1816.27,1230.64 1244.88,299.311 478.149,427.002 576.167,1388.07 
  2444.77,1541.05 1602.58,1049.86 1733.35,642.719 322.497,1620.76 1181.84,922.086 1890.3,771.318 880.856,1518.68 2527.86,985.95 1987.28,1478.27 2375.22,1272.07 
  793.883,819.472 385.338,190.726 1811.15,1565.57 2571.37,303.537 651.098,1684.34 1722.42,1448.05 2096.51,343.07 1429.93,1392.54 1727.23,1495.21 532.87,1689.54 
  573.856,766.961 1243.02,1624.86 1739.99,1625.04 1135.98,1269.24 1133.1,1434.86 944.646,510.192 2208.15,773.456 2378.25,374.362 982.065,950.437 1844.76,1180.59 
  
  "/>
<path clip-path="url(#clip840)" d="
M2261.45 1742.33 L2559.04 1742.33 L2559.04 1638.65 L2261.45 1638.65  Z
  " fill="#ffffff" fill-rule="evenodd" fill-opacity="1"/>
<polyline clip-path="url(#clip840)" style="stroke:#000000; stroke-linecap:butt; stroke-linejoin:round; stroke-width:4; stroke-opacity:1; fill:none" points="
  2261.45,1742.33 2559.04,1742.33 2559.04,1638.65 2261.45,1638.65 2261.45,1742.33 
  "/>
<polyline clip-path="url(#clip840)" style="stroke:#009af9; stroke-linecap:butt; stroke-linejoin:round; stroke-width:4; stroke-opacity:1; fill:none" points="
  2288.69,1690.49 2452.13,1690.49 
  "/>
<path clip-path="url(#clip840)" d="M2493.21 1710.18 Q2491.4 1714.81 2489.69 1716.22 Q2487.98 1717.63 2485.11 1717.63 L2481.7 1717.63 L2481.7 1714.06 L2484.2 1714.06 Q2485.96 1714.06 2486.93 1713.23 Q2487.91 1712.4 2489.09 1709.3 L2489.85 1707.35 L2479.37 1681.84 L2483.88 1681.84 L2491.98 1702.12 L2500.08 1681.84 L2504.6 1681.84 L2493.21 1710.18 Z" fill="#000000" fill-rule="evenodd" fill-opacity="1" /><path clip-path="url(#clip840)" d="M2511.89 1703.83 L2519.53 1703.83 L2519.53 1677.47 L2511.22 1679.13 L2511.22 1674.87 L2519.48 1673.21 L2524.16 1673.21 L2524.16 1703.83 L2531.8 1703.83 L2531.8 1707.77 L2511.89 1707.77 L2511.89 1703.83 Z" fill="#000000" fill-rule="evenodd" fill-opacity="1" /></svg>
