<?xml version="1.0" encoding="utf-8"?>
<svg xmlns="http://www.w3.org/2000/svg" xmlns:xlink="http://www.w3.org/1999/xlink" width="672" height="480" viewBox="0 0 2688 1920">
<defs>
  <clipPath id="clip010">
    <rect x="0" y="0" width="2688" height="1920"/>
  </clipPath>
</defs>
<path clip-path="url(#clip010)" d="
M0 1920 L2688 1920 L2688 0 L0 0  Z
  " fill="#ffffff" fill-rule="evenodd" fill-opacity="1"/>
<defs>
  <clipPath id="clip011">
    <rect x="537" y="0" width="1883" height="1883"/>
  </clipPath>
</defs>
<path clip-path="url(#clip010)" d="
M189.154 1800.78 L2640.76 1800.78 L2640.76 47.2441 L189.154 47.2441  Z
  " fill="#ffffff" fill-rule="evenodd" fill-opacity="1"/>
<defs>
  <clipPath id="clip012">
    <rect x="189" y="47" width="2453" height="1755"/>
  </clipPath>
</defs>
<polyline clip-path="url(#clip012)" style="stroke:#000000; stroke-linecap:butt; stroke-linejoin:round; stroke-width:2; stroke-opacity:0.1; fill:none" points="
  256.108,1800.78 256.108,47.2441 
  "/>
<polyline clip-path="url(#clip012)" style="stroke:#000000; stroke-linecap:butt; stroke-linejoin:round; stroke-width:2; stroke-opacity:0.1; fill:none" points="
  734.715,1800.78 734.715,47.2441 
  "/>
<polyline clip-path="url(#clip012)" style="stroke:#000000; stroke-linecap:butt; stroke-linejoin:round; stroke-width:2; stroke-opacity:0.1; fill:none" points="
  1213.32,1800.78 1213.32,47.2441 
  "/>
<polyline clip-path="url(#clip012)" style="stroke:#000000; stroke-linecap:butt; stroke-linejoin:round; stroke-width:2; stroke-opacity:0.1; fill:none" points="
  1691.93,1800.78 1691.93,47.2441 
  "/>
<polyline clip-path="url(#clip012)" style="stroke:#000000; stroke-linecap:butt; stroke-linejoin:round; stroke-width:2; stroke-opacity:0.1; fill:none" points="
  2170.54,1800.78 2170.54,47.2441 
  "/>
<polyline clip-path="url(#clip010)" style="stroke:#000000; stroke-linecap:butt; stroke-linejoin:round; stroke-width:4; stroke-opacity:1; fill:none" points="
  189.154,1800.78 2640.76,1800.78 
  "/>
<polyline clip-path="url(#clip010)" style="stroke:#000000; stroke-linecap:butt; stroke-linejoin:round; stroke-width:4; stroke-opacity:1; fill:none" points="
  256.108,1800.78 256.108,1781.88 
  "/>
<polyline clip-path="url(#clip010)" style="stroke:#000000; stroke-linecap:butt; stroke-linejoin:round; stroke-width:4; stroke-opacity:1; fill:none" points="
  734.715,1800.78 734.715,1781.88 
  "/>
<polyline clip-path="url(#clip010)" style="stroke:#000000; stroke-linecap:butt; stroke-linejoin:round; stroke-width:4; stroke-opacity:1; fill:none" points="
  1213.32,1800.78 1213.32,1781.88 
  "/>
<polyline clip-path="url(#clip010)" style="stroke:#000000; stroke-linecap:butt; stroke-linejoin:round; stroke-width:4; stroke-opacity:1; fill:none" points="
  1691.93,1800.78 1691.93,1781.88 
  "/>
<polyline clip-path="url(#clip010)" style="stroke:#000000; stroke-linecap:butt; stroke-linejoin:round; stroke-width:4; stroke-opacity:1; fill:none" points="
  2170.54,1800.78 2170.54,1781.88 
  "/>
<path clip-path="url(#clip010)" d="M233.492 1834 Q229.881 1834 228.052 1837.57 Q226.247 1841.11 226.247 1848.24 Q226.247 1855.34 228.052 1858.91 Q229.881 1862.45 233.492 1862.45 Q237.126 1862.45 238.932 1858.91 Q240.761 1855.34 240.761 1848.24 Q240.761 1841.11 238.932 1837.57 Q237.126 1834 233.492 1834 M233.492 1830.3 Q239.302 1830.3 242.358 1834.9 Q245.437 1839.49 245.437 1848.24 Q245.437 1856.96 242.358 1861.57 Q239.302 1866.15 233.492 1866.15 Q227.682 1866.15 224.603 1861.57 Q221.548 1856.96 221.548 1848.24 Q221.548 1839.49 224.603 1834.9 Q227.682 1830.3 233.492 1830.3 Z" fill="#000000" fill-rule="evenodd" fill-opacity="1" /><path clip-path="url(#clip010)" d="M253.654 1859.6 L258.538 1859.6 L258.538 1865.48 L253.654 1865.48 L253.654 1859.6 Z" fill="#000000" fill-rule="evenodd" fill-opacity="1" /><path clip-path="url(#clip010)" d="M278.723 1834 Q275.112 1834 273.284 1837.57 Q271.478 1841.11 271.478 1848.24 Q271.478 1855.34 273.284 1858.91 Q275.112 1862.45 278.723 1862.45 Q282.358 1862.45 284.163 1858.91 Q285.992 1855.34 285.992 1848.24 Q285.992 1841.11 284.163 1837.57 Q282.358 1834 278.723 1834 M278.723 1830.3 Q284.534 1830.3 287.589 1834.9 Q290.668 1839.49 290.668 1848.24 Q290.668 1856.96 287.589 1861.57 Q284.534 1866.15 278.723 1866.15 Q272.913 1866.15 269.835 1861.57 Q266.779 1856.96 266.779 1848.24 Q266.779 1839.49 269.835 1834.9 Q272.913 1830.3 278.723 1830.3 Z" fill="#000000" fill-rule="evenodd" fill-opacity="1" /><path clip-path="url(#clip010)" d="M712.898 1834 Q709.287 1834 707.458 1837.57 Q705.653 1841.11 705.653 1848.24 Q705.653 1855.34 707.458 1858.91 Q709.287 1862.45 712.898 1862.45 Q716.532 1862.45 718.338 1858.91 Q720.167 1855.34 720.167 1848.24 Q720.167 1841.11 718.338 1837.57 Q716.532 1834 712.898 1834 M712.898 1830.3 Q718.708 1830.3 721.764 1834.9 Q724.843 1839.49 724.843 1848.24 Q724.843 1856.96 721.764 1861.57 Q718.708 1866.15 712.898 1866.15 Q707.088 1866.15 704.009 1861.57 Q700.954 1856.96 700.954 1848.24 Q700.954 1839.49 704.009 1834.9 Q707.088 1830.3 712.898 1830.3 Z" fill="#000000" fill-rule="evenodd" fill-opacity="1" /><path clip-path="url(#clip010)" d="M733.06 1859.6 L737.944 1859.6 L737.944 1865.48 L733.06 1865.48 L733.06 1859.6 Z" fill="#000000" fill-rule="evenodd" fill-opacity="1" /><path clip-path="url(#clip010)" d="M752.157 1861.55 L768.477 1861.55 L768.477 1865.48 L746.532 1865.48 L746.532 1861.55 Q749.194 1858.79 753.778 1854.16 Q758.384 1849.51 759.565 1848.17 Q761.81 1845.65 762.69 1843.91 Q763.592 1842.15 763.592 1840.46 Q763.592 1837.71 761.648 1835.97 Q759.727 1834.23 756.625 1834.23 Q754.426 1834.23 751.972 1835 Q749.541 1835.76 746.764 1837.31 L746.764 1832.59 Q749.588 1831.46 752.041 1830.88 Q754.495 1830.3 756.532 1830.3 Q761.903 1830.3 765.097 1832.98 Q768.291 1835.67 768.291 1840.16 Q768.291 1842.29 767.481 1844.21 Q766.694 1846.11 764.588 1848.7 Q764.009 1849.37 760.907 1852.59 Q757.805 1855.78 752.157 1861.55 Z" fill="#000000" fill-rule="evenodd" fill-opacity="1" /><path clip-path="url(#clip010)" d="M1190.46 1834 Q1186.85 1834 1185.02 1837.57 Q1183.22 1841.11 1183.22 1848.24 Q1183.22 1855.34 1185.02 1858.91 Q1186.85 1862.45 1190.46 1862.45 Q1194.1 1862.45 1195.9 1858.91 Q1197.73 1855.34 1197.73 1848.24 Q1197.73 1841.11 1195.9 1837.57 Q1194.1 1834 1190.46 1834 M1190.46 1830.3 Q1196.27 1830.3 1199.33 1834.9 Q1202.41 1839.49 1202.41 1848.24 Q1202.41 1856.96 1199.33 1861.57 Q1196.27 1866.15 1190.46 1866.15 Q1184.65 1866.15 1181.57 1861.57 Q1178.52 1856.96 1178.52 1848.24 Q1178.52 1839.49 1181.57 1834.9 Q1184.65 1830.3 1190.46 1830.3 Z" fill="#000000" fill-rule="evenodd" fill-opacity="1" /><path clip-path="url(#clip010)" d="M1210.63 1859.6 L1215.51 1859.6 L1215.51 1865.48 L1210.63 1865.48 L1210.63 1859.6 Z" fill="#000000" fill-rule="evenodd" fill-opacity="1" /><path clip-path="url(#clip010)" d="M1238.54 1835 L1226.74 1853.45 L1238.54 1853.45 L1238.54 1835 M1237.32 1830.92 L1243.2 1830.92 L1243.2 1853.45 L1248.13 1853.45 L1248.13 1857.34 L1243.2 1857.34 L1243.2 1865.48 L1238.54 1865.48 L1238.54 1857.34 L1222.94 1857.34 L1222.94 1852.82 L1237.32 1830.92 Z" fill="#000000" fill-rule="evenodd" fill-opacity="1" /><path clip-path="url(#clip010)" d="M1669.23 1834 Q1665.62 1834 1663.79 1837.57 Q1661.99 1841.11 1661.99 1848.24 Q1661.99 1855.34 1663.79 1858.91 Q1665.62 1862.45 1669.23 1862.45 Q1672.87 1862.45 1674.67 1858.91 Q1676.5 1855.34 1676.5 1848.24 Q1676.5 1841.11 1674.67 1837.57 Q1672.87 1834 1669.23 1834 M1669.23 1830.3 Q1675.04 1830.3 1678.1 1834.9 Q1681.18 1839.49 1681.18 1848.24 Q1681.18 1856.96 1678.1 1861.57 Q1675.04 1866.15 1669.23 1866.15 Q1663.42 1866.15 1660.34 1861.57 Q1657.29 1856.96 1657.29 1848.24 Q1657.29 1839.49 1660.34 1834.9 Q1663.42 1830.3 1669.23 1830.3 Z" fill="#000000" fill-rule="evenodd" fill-opacity="1" /><path clip-path="url(#clip010)" d="M1689.4 1859.6 L1694.28 1859.6 L1694.28 1865.48 L1689.4 1865.48 L1689.4 1859.6 Z" fill="#000000" fill-rule="evenodd" fill-opacity="1" /><path clip-path="url(#clip010)" d="M1715.04 1846.34 Q1711.89 1846.34 1710.04 1848.49 Q1708.21 1850.65 1708.21 1854.4 Q1708.21 1858.12 1710.04 1860.3 Q1711.89 1862.45 1715.04 1862.45 Q1718.19 1862.45 1720.02 1860.3 Q1721.87 1858.12 1721.87 1854.4 Q1721.87 1850.65 1720.02 1848.49 Q1718.19 1846.34 1715.04 1846.34 M1724.33 1831.69 L1724.33 1835.95 Q1722.57 1835.11 1720.76 1834.67 Q1718.98 1834.23 1717.22 1834.23 Q1712.59 1834.23 1710.14 1837.36 Q1707.71 1840.48 1707.36 1846.8 Q1708.72 1844.79 1710.78 1843.72 Q1712.84 1842.64 1715.32 1842.64 Q1720.53 1842.64 1723.54 1845.81 Q1726.57 1848.96 1726.57 1854.4 Q1726.57 1859.72 1723.42 1862.94 Q1720.27 1866.15 1715.04 1866.15 Q1709.05 1866.15 1705.88 1861.57 Q1702.71 1856.96 1702.71 1848.24 Q1702.71 1840.04 1706.59 1835.18 Q1710.48 1830.3 1717.03 1830.3 Q1718.79 1830.3 1720.58 1830.65 Q1722.38 1830.99 1724.33 1831.69 Z" fill="#000000" fill-rule="evenodd" fill-opacity="1" /><path clip-path="url(#clip010)" d="M2147.97 1834 Q2144.36 1834 2142.53 1837.57 Q2140.72 1841.11 2140.72 1848.24 Q2140.72 1855.34 2142.53 1858.91 Q2144.36 1862.45 2147.97 1862.45 Q2151.6 1862.45 2153.41 1858.91 Q2155.24 1855.34 2155.24 1848.24 Q2155.24 1841.11 2153.41 1837.57 Q2151.6 1834 2147.97 1834 M2147.97 1830.3 Q2153.78 1830.3 2156.83 1834.9 Q2159.91 1839.49 2159.91 1848.24 Q2159.91 1856.96 2156.83 1861.57 Q2153.78 1866.15 2147.97 1866.15 Q2142.16 1866.15 2139.08 1861.57 Q2136.02 1856.96 2136.02 1848.24 Q2136.02 1839.49 2139.08 1834.9 Q2142.16 1830.3 2147.97 1830.3 Z" fill="#000000" fill-rule="evenodd" fill-opacity="1" /><path clip-path="url(#clip010)" d="M2168.13 1859.6 L2173.01 1859.6 L2173.01 1865.48 L2168.13 1865.48 L2168.13 1859.6 Z" fill="#000000" fill-rule="evenodd" fill-opacity="1" /><path clip-path="url(#clip010)" d="M2193.2 1849.07 Q2189.87 1849.07 2187.94 1850.85 Q2186.05 1852.64 2186.05 1855.76 Q2186.05 1858.89 2187.94 1860.67 Q2189.87 1862.45 2193.2 1862.45 Q2196.53 1862.45 2198.45 1860.67 Q2200.37 1858.86 2200.37 1855.76 Q2200.37 1852.64 2198.45 1850.85 Q2196.56 1849.07 2193.2 1849.07 M2188.52 1847.08 Q2185.51 1846.34 2183.82 1844.28 Q2182.16 1842.22 2182.16 1839.26 Q2182.16 1835.11 2185.1 1832.71 Q2188.06 1830.3 2193.2 1830.3 Q2198.36 1830.3 2201.3 1832.71 Q2204.24 1835.11 2204.24 1839.26 Q2204.24 1842.22 2202.55 1844.28 Q2200.88 1846.34 2197.9 1847.08 Q2201.28 1847.87 2203.15 1850.16 Q2205.05 1852.45 2205.05 1855.76 Q2205.05 1860.78 2201.97 1863.47 Q2198.92 1866.15 2193.2 1866.15 Q2187.48 1866.15 2184.4 1863.47 Q2181.35 1860.78 2181.35 1855.76 Q2181.35 1852.45 2183.25 1850.16 Q2185.14 1847.87 2188.52 1847.08 M2186.81 1839.7 Q2186.81 1842.38 2188.48 1843.89 Q2190.17 1845.39 2193.2 1845.39 Q2196.21 1845.39 2197.9 1843.89 Q2199.61 1842.38 2199.61 1839.7 Q2199.61 1837.01 2197.9 1835.51 Q2196.21 1834 2193.2 1834 Q2190.17 1834 2188.48 1835.51 Q2186.81 1837.01 2186.81 1839.7 Z" fill="#000000" fill-rule="evenodd" fill-opacity="1" /><polyline clip-path="url(#clip012)" style="stroke:#000000; stroke-linecap:butt; stroke-linejoin:round; stroke-width:2; stroke-opacity:0.1; fill:none" points="
  189.154,1764.3 2640.76,1764.3 
  "/>
<polyline clip-path="url(#clip012)" style="stroke:#000000; stroke-linecap:butt; stroke-linejoin:round; stroke-width:2; stroke-opacity:0.1; fill:none" points="
  189.154,1344.69 2640.76,1344.69 
  "/>
<polyline clip-path="url(#clip012)" style="stroke:#000000; stroke-linecap:butt; stroke-linejoin:round; stroke-width:2; stroke-opacity:0.1; fill:none" points="
  189.154,925.074 2640.76,925.074 
  "/>
<polyline clip-path="url(#clip012)" style="stroke:#000000; stroke-linecap:butt; stroke-linejoin:round; stroke-width:2; stroke-opacity:0.1; fill:none" points="
  189.154,505.461 2640.76,505.461 
  "/>
<polyline clip-path="url(#clip012)" style="stroke:#000000; stroke-linecap:butt; stroke-linejoin:round; stroke-width:2; stroke-opacity:0.1; fill:none" points="
  189.154,85.8478 2640.76,85.8478 
  "/>
<polyline clip-path="url(#clip010)" style="stroke:#000000; stroke-linecap:butt; stroke-linejoin:round; stroke-width:4; stroke-opacity:1; fill:none" points="
  189.154,1800.78 189.154,47.2441 
  "/>
<polyline clip-path="url(#clip010)" style="stroke:#000000; stroke-linecap:butt; stroke-linejoin:round; stroke-width:4; stroke-opacity:1; fill:none" points="
  189.154,1764.3 208.052,1764.3 
  "/>
<polyline clip-path="url(#clip010)" style="stroke:#000000; stroke-linecap:butt; stroke-linejoin:round; stroke-width:4; stroke-opacity:1; fill:none" points="
  189.154,1344.69 208.052,1344.69 
  "/>
<polyline clip-path="url(#clip010)" style="stroke:#000000; stroke-linecap:butt; stroke-linejoin:round; stroke-width:4; stroke-opacity:1; fill:none" points="
  189.154,925.074 208.052,925.074 
  "/>
<polyline clip-path="url(#clip010)" style="stroke:#000000; stroke-linecap:butt; stroke-linejoin:round; stroke-width:4; stroke-opacity:1; fill:none" points="
  189.154,505.461 208.052,505.461 
  "/>
<polyline clip-path="url(#clip010)" style="stroke:#000000; stroke-linecap:butt; stroke-linejoin:round; stroke-width:4; stroke-opacity:1; fill:none" points="
  189.154,85.8478 208.052,85.8478 
  "/>
<path clip-path="url(#clip010)" d="M61.4965 1750.1 Q57.8854 1750.1 56.0567 1753.66 Q54.2512 1757.21 54.2512 1764.34 Q54.2512 1771.44 56.0567 1775.01 Q57.8854 1778.55 61.4965 1778.55 Q65.1307 1778.55 66.9363 1775.01 Q68.765 1771.44 68.765 1764.34 Q68.765 1757.21 66.9363 1753.66 Q65.1307 1750.1 61.4965 1750.1 M61.4965 1746.4 Q67.3067 1746.4 70.3622 1751 Q73.4409 1755.59 73.4409 1764.34 Q73.4409 1773.06 70.3622 1777.67 Q67.3067 1782.25 61.4965 1782.25 Q55.6864 1782.25 52.6077 1777.67 Q49.5521 1773.06 49.5521 1764.34 Q49.5521 1755.59 52.6077 1751 Q55.6864 1746.4 61.4965 1746.4 Z" fill="#000000" fill-rule="evenodd" fill-opacity="1" /><path clip-path="url(#clip010)" d="M81.6584 1775.7 L86.5427 1775.7 L86.5427 1781.58 L81.6584 1781.58 L81.6584 1775.7 Z" fill="#000000" fill-rule="evenodd" fill-opacity="1" /><path clip-path="url(#clip010)" d="M106.728 1750.1 Q103.117 1750.1 101.288 1753.66 Q99.4824 1757.21 99.4824 1764.34 Q99.4824 1771.44 101.288 1775.01 Q103.117 1778.55 106.728 1778.55 Q110.362 1778.55 112.168 1775.01 Q113.996 1771.44 113.996 1764.34 Q113.996 1757.21 112.168 1753.66 Q110.362 1750.1 106.728 1750.1 M106.728 1746.4 Q112.538 1746.4 115.593 1751 Q118.672 1755.59 118.672 1764.34 Q118.672 1773.06 115.593 1777.67 Q112.538 1782.25 106.728 1782.25 Q100.918 1782.25 97.8389 1777.67 Q94.7834 1773.06 94.7834 1764.34 Q94.7834 1755.59 97.8389 1751 Q100.918 1746.4 106.728 1746.4 Z" fill="#000000" fill-rule="evenodd" fill-opacity="1" /><path clip-path="url(#clip010)" d="M136.89 1750.1 Q133.279 1750.1 131.45 1753.66 Q129.644 1757.21 129.644 1764.34 Q129.644 1771.44 131.45 1775.01 Q133.279 1778.55 136.89 1778.55 Q140.524 1778.55 142.329 1775.01 Q144.158 1771.44 144.158 1764.34 Q144.158 1757.21 142.329 1753.66 Q140.524 1750.1 136.89 1750.1 M136.89 1746.4 Q142.7 1746.4 145.755 1751 Q148.834 1755.59 148.834 1764.34 Q148.834 1773.06 145.755 1777.67 Q142.7 1782.25 136.89 1782.25 Q131.079 1782.25 128.001 1777.67 Q124.945 1773.06 124.945 1764.34 Q124.945 1755.59 128.001 1751 Q131.079 1746.4 136.89 1746.4 Z" fill="#000000" fill-rule="evenodd" fill-opacity="1" /><path clip-path="url(#clip010)" d="M62.4919 1330.49 Q58.8808 1330.49 57.0521 1334.05 Q55.2465 1337.59 55.2465 1344.72 Q55.2465 1351.83 57.0521 1355.39 Q58.8808 1358.93 62.4919 1358.93 Q66.1261 1358.93 67.9317 1355.39 Q69.7604 1351.83 69.7604 1344.72 Q69.7604 1337.59 67.9317 1334.05 Q66.1261 1330.49 62.4919 1330.49 M62.4919 1326.78 Q68.302 1326.78 71.3576 1331.39 Q74.4363 1335.97 74.4363 1344.72 Q74.4363 1353.45 71.3576 1358.06 Q68.302 1362.64 62.4919 1362.64 Q56.6817 1362.64 53.603 1358.06 Q50.5475 1353.45 50.5475 1344.72 Q50.5475 1335.97 53.603 1331.39 Q56.6817 1326.78 62.4919 1326.78 Z" fill="#000000" fill-rule="evenodd" fill-opacity="1" /><path clip-path="url(#clip010)" d="M82.6538 1356.09 L87.538 1356.09 L87.538 1361.97 L82.6538 1361.97 L82.6538 1356.09 Z" fill="#000000" fill-rule="evenodd" fill-opacity="1" /><path clip-path="url(#clip010)" d="M101.751 1358.03 L118.07 1358.03 L118.07 1361.97 L96.126 1361.97 L96.126 1358.03 Q98.788 1355.28 103.371 1350.65 Q107.978 1346 109.158 1344.65 Q111.404 1342.13 112.283 1340.39 Q113.186 1338.63 113.186 1336.94 Q113.186 1334.19 111.242 1332.45 Q109.32 1330.72 106.218 1330.72 Q104.019 1330.72 101.566 1331.48 Q99.1352 1332.25 96.3574 1333.8 L96.3574 1329.07 Q99.1815 1327.94 101.635 1327.36 Q104.089 1326.78 106.126 1326.78 Q111.496 1326.78 114.691 1329.47 Q117.885 1332.15 117.885 1336.64 Q117.885 1338.77 117.075 1340.69 Q116.288 1342.59 114.181 1345.19 Q113.603 1345.86 110.501 1349.07 Q107.399 1352.27 101.751 1358.03 Z" fill="#000000" fill-rule="evenodd" fill-opacity="1" /><path clip-path="url(#clip010)" d="M127.931 1327.41 L146.288 1327.41 L146.288 1331.34 L132.214 1331.34 L132.214 1339.81 Q133.232 1339.47 134.251 1339.31 Q135.269 1339.12 136.288 1339.12 Q142.075 1339.12 145.454 1342.29 Q148.834 1345.46 148.834 1350.88 Q148.834 1356.46 145.362 1359.56 Q141.89 1362.64 135.57 1362.64 Q133.394 1362.64 131.126 1362.27 Q128.88 1361.9 126.473 1361.16 L126.473 1356.46 Q128.556 1357.59 130.779 1358.15 Q133.001 1358.7 135.478 1358.7 Q139.482 1358.7 141.82 1356.6 Q144.158 1354.49 144.158 1350.88 Q144.158 1347.27 141.82 1345.16 Q139.482 1343.06 135.478 1343.06 Q133.603 1343.06 131.728 1343.47 Q129.876 1343.89 127.931 1344.77 L127.931 1327.41 Z" fill="#000000" fill-rule="evenodd" fill-opacity="1" /><path clip-path="url(#clip010)" d="M61.4965 910.873 Q57.8854 910.873 56.0567 914.438 Q54.2512 917.979 54.2512 925.109 Q54.2512 932.215 56.0567 935.78 Q57.8854 939.322 61.4965 939.322 Q65.1307 939.322 66.9363 935.78 Q68.765 932.215 68.765 925.109 Q68.765 917.979 66.9363 914.438 Q65.1307 910.873 61.4965 910.873 M61.4965 907.169 Q67.3067 907.169 70.3622 911.776 Q73.4409 916.359 73.4409 925.109 Q73.4409 933.836 70.3622 938.442 Q67.3067 943.025 61.4965 943.025 Q55.6864 943.025 52.6077 938.442 Q49.5521 933.836 49.5521 925.109 Q49.5521 916.359 52.6077 911.776 Q55.6864 907.169 61.4965 907.169 Z" fill="#000000" fill-rule="evenodd" fill-opacity="1" /><path clip-path="url(#clip010)" d="M81.6584 936.475 L86.5427 936.475 L86.5427 942.354 L81.6584 942.354 L81.6584 936.475 Z" fill="#000000" fill-rule="evenodd" fill-opacity="1" /><path clip-path="url(#clip010)" d="M96.7741 907.794 L115.13 907.794 L115.13 911.729 L101.056 911.729 L101.056 920.202 Q102.075 919.854 103.094 919.692 Q104.112 919.507 105.131 919.507 Q110.918 919.507 114.297 922.678 Q117.677 925.85 117.677 931.266 Q117.677 936.845 114.205 939.947 Q110.732 943.025 104.413 943.025 Q102.237 943.025 99.9685 942.655 Q97.7232 942.285 95.3158 941.544 L95.3158 936.845 Q97.3991 937.979 99.6213 938.535 Q101.844 939.09 104.32 939.09 Q108.325 939.09 110.663 936.984 Q113.001 934.877 113.001 931.266 Q113.001 927.655 110.663 925.549 Q108.325 923.442 104.32 923.442 Q102.445 923.442 100.57 923.859 Q98.7185 924.276 96.7741 925.155 L96.7741 907.794 Z" fill="#000000" fill-rule="evenodd" fill-opacity="1" /><path clip-path="url(#clip010)" d="M136.89 910.873 Q133.279 910.873 131.45 914.438 Q129.644 917.979 129.644 925.109 Q129.644 932.215 131.45 935.78 Q133.279 939.322 136.89 939.322 Q140.524 939.322 142.329 935.78 Q144.158 932.215 144.158 925.109 Q144.158 917.979 142.329 914.438 Q140.524 910.873 136.89 910.873 M136.89 907.169 Q142.7 907.169 145.755 911.776 Q148.834 916.359 148.834 925.109 Q148.834 933.836 145.755 938.442 Q142.7 943.025 136.89 943.025 Q131.079 943.025 128.001 938.442 Q124.945 933.836 124.945 925.109 Q124.945 916.359 128.001 911.776 Q131.079 907.169 136.89 907.169 Z" fill="#000000" fill-rule="evenodd" fill-opacity="1" /><path clip-path="url(#clip010)" d="M62.4919 491.26 Q58.8808 491.26 57.0521 494.824 Q55.2465 498.366 55.2465 505.496 Q55.2465 512.602 57.0521 516.167 Q58.8808 519.709 62.4919 519.709 Q66.1261 519.709 67.9317 516.167 Q69.7604 512.602 69.7604 505.496 Q69.7604 498.366 67.9317 494.824 Q66.1261 491.26 62.4919 491.26 M62.4919 487.556 Q68.302 487.556 71.3576 492.162 Q74.4363 496.746 74.4363 505.496 Q74.4363 514.223 71.3576 518.829 Q68.302 523.412 62.4919 523.412 Q56.6817 523.412 53.603 518.829 Q50.5475 514.223 50.5475 505.496 Q50.5475 496.746 53.603 492.162 Q56.6817 487.556 62.4919 487.556 Z" fill="#000000" fill-rule="evenodd" fill-opacity="1" /><path clip-path="url(#clip010)" d="M82.6538 516.861 L87.538 516.861 L87.538 522.741 L82.6538 522.741 L82.6538 516.861 Z" fill="#000000" fill-rule="evenodd" fill-opacity="1" /><path clip-path="url(#clip010)" d="M96.5426 488.181 L118.765 488.181 L118.765 490.172 L106.218 522.741 L101.334 522.741 L113.14 492.116 L96.5426 492.116 L96.5426 488.181 Z" fill="#000000" fill-rule="evenodd" fill-opacity="1" /><path clip-path="url(#clip010)" d="M127.931 488.181 L146.288 488.181 L146.288 492.116 L132.214 492.116 L132.214 500.588 Q133.232 500.241 134.251 500.079 Q135.269 499.894 136.288 499.894 Q142.075 499.894 145.454 503.065 Q148.834 506.236 148.834 511.653 Q148.834 517.232 145.362 520.334 Q141.89 523.412 135.57 523.412 Q133.394 523.412 131.126 523.042 Q128.88 522.672 126.473 521.931 L126.473 517.232 Q128.556 518.366 130.779 518.922 Q133.001 519.477 135.478 519.477 Q139.482 519.477 141.82 517.371 Q144.158 515.264 144.158 511.653 Q144.158 508.042 141.82 505.936 Q139.482 503.829 135.478 503.829 Q133.603 503.829 131.728 504.246 Q129.876 504.662 127.931 505.542 L127.931 488.181 Z" fill="#000000" fill-rule="evenodd" fill-opacity="1" /><path clip-path="url(#clip010)" d="M52.3067 99.1927 L59.9456 99.1927 L59.9456 72.8271 L51.6354 74.4937 L51.6354 70.2345 L59.8993 68.5678 L64.5752 68.5678 L64.5752 99.1927 L72.214 99.1927 L72.214 103.128 L52.3067 103.128 L52.3067 99.1927 Z" fill="#000000" fill-rule="evenodd" fill-opacity="1" /><path clip-path="url(#clip010)" d="M81.6584 97.2482 L86.5427 97.2482 L86.5427 103.128 L81.6584 103.128 L81.6584 97.2482 Z" fill="#000000" fill-rule="evenodd" fill-opacity="1" /><path clip-path="url(#clip010)" d="M106.728 71.6465 Q103.117 71.6465 101.288 75.2113 Q99.4824 78.753 99.4824 85.8826 Q99.4824 92.989 101.288 96.5538 Q103.117 100.095 106.728 100.095 Q110.362 100.095 112.168 96.5538 Q113.996 92.989 113.996 85.8826 Q113.996 78.753 112.168 75.2113 Q110.362 71.6465 106.728 71.6465 M106.728 67.9429 Q112.538 67.9429 115.593 72.5493 Q118.672 77.1326 118.672 85.8826 Q118.672 94.6094 115.593 99.2158 Q112.538 103.799 106.728 103.799 Q100.918 103.799 97.8389 99.2158 Q94.7834 94.6094 94.7834 85.8826 Q94.7834 77.1326 97.8389 72.5493 Q100.918 67.9429 106.728 67.9429 Z" fill="#000000" fill-rule="evenodd" fill-opacity="1" /><path clip-path="url(#clip010)" d="M136.89 71.6465 Q133.279 71.6465 131.45 75.2113 Q129.644 78.753 129.644 85.8826 Q129.644 92.989 131.45 96.5538 Q133.279 100.095 136.89 100.095 Q140.524 100.095 142.329 96.5538 Q144.158 92.989 144.158 85.8826 Q144.158 78.753 142.329 75.2113 Q140.524 71.6465 136.89 71.6465 M136.89 67.9429 Q142.7 67.9429 145.755 72.5493 Q148.834 77.1326 148.834 85.8826 Q148.834 94.6094 145.755 99.2158 Q142.7 103.799 136.89 103.799 Q131.079 103.799 128.001 99.2158 Q124.945 94.6094 124.945 85.8826 Q124.945 77.1326 128.001 72.5493 Q131.079 67.9429 136.89 67.9429 Z" fill="#000000" fill-rule="evenodd" fill-opacity="1" /><polyline clip-path="url(#clip012)" style="stroke:#009af9; stroke-linecap:butt; stroke-linejoin:round; stroke-width:4; stroke-opacity:1; fill:none" points="
  1234.92,140.357 1205.8,983.451 657.864,366.967 2187.27,749.07 1151.38,1564.58 320.455,654.99 2027.09,722.826 604.558,1481.46 1192.15,821.06 743.136,648.778 
  1243.48,1482.12 1205.54,1176.99 1606.69,1395.92 2506.56,1560.9 2141.67,1274.72 315.371,1687.68 1853.05,159.503 1467.8,1326.47 1232.57,1441.91 1920.43,487.59 
  1360.08,1109.77 1964.47,673.07 258.539,654.462 1865.54,1156.34 2524.75,212.41 2051.12,1180.57 1957.1,287.257 2489.98,749.521 1306.53,1740.37 1381.04,776.313 
  395.344,160.178 1412.45,1751.15 1867.29,1140.44 1313.32,1443.23 1517.05,414.535 2171.86,278.686 1992.57,1305.14 2407.6,371.272 2200.11,976.577 1513.32,1229.6 
  1942.74,349.254 2111.67,1471.86 1796.6,139.349 402.931,819.216 2446.83,1156.32 1344.61,583.556 405.729,1212.92 2104.46,1495.06 1315.59,194.196 2429.75,995.117 
  935.335,1131.17 815.602,693.673 1947.9,700.441 825.159,1135.12 1484.68,718.562 1528.66,987.043 1471.18,1297.07 648.948,898.658 1332.66,1450.16 1111.48,96.8724 
  2561.95,1548.13 1190.43,297.009 1582.7,125.505 1158.81,523.758 498.509,1272.99 571.278,1360.28 775.91,1564.38 1139.01,1469.86 393.447,902.013 2417.52,1488.34 
  1679.84,310.482 2571.37,987.187 1543.23,1709.02 2318.84,1289.12 961.442,458.986 608.791,713.019 2338.32,1450.53 758.556,1611.66 2059.81,561.543 2041.4,656.111 
  1969.15,1185.81 1000.27,1240.06 1722.12,1076.61 416.784,658.584 1952.21,1209.35 1435.38,212.638 880.69,126.097 285.877,883.567 602.83,275.03 634.549,944.546 
  2558.59,302.812 303.33,541.012 1876.83,994.637 2522.92,963.219 2083.06,1191.27 1068.11,1075.49 1352.91,1153.9 1902.74,1475.83 1049.75,457.455 700.03,483.766 
  
  "/>
<path clip-path="url(#clip010)" d="
M270.874 209.375 L568.465 209.375 L568.465 105.695 L270.874 105.695  Z
  " fill="#ffffff" fill-rule="evenodd" fill-opacity="1"/>
<polyline clip-path="url(#clip010)" style="stroke:#000000; stroke-linecap:butt; stroke-linejoin:round; stroke-width:4; stroke-opacity:1; fill:none" points="
  270.874,209.375 568.465,209.375 568.465,105.695 270.874,105.695 270.874,209.375 
  "/>
<polyline clip-path="url(#clip010)" style="stroke:#009af9; stroke-linecap:butt; stroke-linejoin:round; stroke-width:4; stroke-opacity:1; fill:none" points="
  298.114,157.535 461.554,157.535 
  "/>
<path clip-path="url(#clip010)" d="M502.637 177.223 Q500.831 181.852 499.118 183.264 Q497.405 184.676 494.535 184.676 L491.132 184.676 L491.132 181.112 L493.632 181.112 Q495.391 181.112 496.364 180.278 Q497.336 179.445 498.516 176.343 L499.28 174.399 L488.794 148.889 L493.308 148.889 L501.41 169.167 L509.512 148.889 L514.026 148.889 L502.637 177.223 Z" fill="#000000" fill-rule="evenodd" fill-opacity="1" /><path clip-path="url(#clip010)" d="M521.317 170.88 L528.956 170.88 L528.956 144.515 L520.646 146.181 L520.646 141.922 L528.91 140.255 L533.586 140.255 L533.586 170.88 L541.225 170.88 L541.225 174.815 L521.317 174.815 L521.317 170.88 Z" fill="#000000" fill-rule="evenodd" fill-opacity="1" /></svg>
