<?xml version="1.0" encoding="utf-8"?>
<svg xmlns="http://www.w3.org/2000/svg" xmlns:xlink="http://www.w3.org/1999/xlink" width="672" height="480" viewBox="0 0 2688 1920">
<defs>
  <clipPath id="clip940">
    <rect x="0" y="0" width="2688" height="1920"/>
  </clipPath>
</defs>
<path clip-path="url(#clip940)" d="
M0 1920 L2688 1920 L2688 0 L0 0  Z
  " fill="#ffffff" fill-rule="evenodd" fill-opacity="1"/>
<defs>
  <clipPath id="clip941">
    <rect x="537" y="0" width="1883" height="1883"/>
  </clipPath>
</defs>
<path clip-path="url(#clip940)" d="
M189.154 1800.78 L2640.76 1800.78 L2640.76 47.2441 L189.154 47.2441  Z
  " fill="#ffffff" fill-rule="evenodd" fill-opacity="1"/>
<defs>
  <clipPath id="clip942">
    <rect x="189" y="47" width="2453" height="1755"/>
  </clipPath>
</defs>
<polyline clip-path="url(#clip942)" style="stroke:#000000; stroke-linecap:butt; stroke-linejoin:round; stroke-width:2; stroke-opacity:0.1; fill:none" points="
  246.528,1800.78 246.528,47.2441 
  "/>
<polyline clip-path="url(#clip942)" style="stroke:#000000; stroke-linecap:butt; stroke-linejoin:round; stroke-width:2; stroke-opacity:0.1; fill:none" points="
  833.09,1800.78 833.09,47.2441 
  "/>
<polyline clip-path="url(#clip942)" style="stroke:#000000; stroke-linecap:butt; stroke-linejoin:round; stroke-width:2; stroke-opacity:0.1; fill:none" points="
  1419.65,1800.78 1419.65,47.2441 
  "/>
<polyline clip-path="url(#clip942)" style="stroke:#000000; stroke-linecap:butt; stroke-linejoin:round; stroke-width:2; stroke-opacity:0.1; fill:none" points="
  2006.21,1800.78 2006.21,47.2441 
  "/>
<polyline clip-path="url(#clip942)" style="stroke:#000000; stroke-linecap:butt; stroke-linejoin:round; stroke-width:2; stroke-opacity:0.1; fill:none" points="
  2592.77,1800.78 2592.77,47.2441 
  "/>
<polyline clip-path="url(#clip940)" style="stroke:#000000; stroke-linecap:butt; stroke-linejoin:round; stroke-width:4; stroke-opacity:1; fill:none" points="
  189.154,1800.78 2640.76,1800.78 
  "/>
<polyline clip-path="url(#clip940)" style="stroke:#000000; stroke-linecap:butt; stroke-linejoin:round; stroke-width:4; stroke-opacity:1; fill:none" points="
  246.528,1800.78 246.528,1781.88 
  "/>
<polyline clip-path="url(#clip940)" style="stroke:#000000; stroke-linecap:butt; stroke-linejoin:round; stroke-width:4; stroke-opacity:1; fill:none" points="
  833.09,1800.78 833.09,1781.88 
  "/>
<polyline clip-path="url(#clip940)" style="stroke:#000000; stroke-linecap:butt; stroke-linejoin:round; stroke-width:4; stroke-opacity:1; fill:none" points="
  1419.65,1800.78 1419.65,1781.88 
  "/>
<polyline clip-path="url(#clip940)" style="stroke:#000000; stroke-linecap:butt; stroke-linejoin:round; stroke-width:4; stroke-opacity:1; fill:none" points="
  2006.21,1800.78 2006.21,1781.88 
  "/>
<polyline clip-path="url(#clip940)" style="stroke:#000000; stroke-linecap:butt; stroke-linejoin:round; stroke-width:4; stroke-opacity:1; fill:none" points="
  2592.77,1800.78 2592.77,1781.88 
  "/>
<path clip-path="url(#clip940)" d="M208.831 1834 Q205.22 1834 203.392 1837.57 Q201.586 1841.11 201.586 1848.24 Q201.586 1855.34 203.392 1858.91 Q205.22 1862.45 208.831 1862.45 Q212.466 1862.45 214.271 1858.91 Q216.1 1855.34 216.1 1848.24 Q216.1 1841.11 214.271 1837.57 Q212.466 1834 208.831 1834 M208.831 1830.3 Q214.641 1830.3 217.697 1834.9 Q220.776 1839.49 220.776 1848.24 Q220.776 1856.96 217.697 1861.57 Q214.641 1866.15 208.831 1866.15 Q203.021 1866.15 199.942 1861.57 Q196.887 1856.96 196.887 1848.24 Q196.887 1839.49 199.942 1834.9 Q203.021 1830.3 208.831 1830.3 Z" fill="#000000" fill-rule="evenodd" fill-opacity="1" /><path clip-path="url(#clip940)" d="M228.993 1859.6 L233.877 1859.6 L233.877 1865.48 L228.993 1865.48 L228.993 1859.6 Z" fill="#000000" fill-rule="evenodd" fill-opacity="1" /><path clip-path="url(#clip940)" d="M254.063 1834 Q250.451 1834 248.623 1837.57 Q246.817 1841.11 246.817 1848.24 Q246.817 1855.34 248.623 1858.91 Q250.451 1862.45 254.063 1862.45 Q257.697 1862.45 259.502 1858.91 Q261.331 1855.34 261.331 1848.24 Q261.331 1841.11 259.502 1837.57 Q257.697 1834 254.063 1834 M254.063 1830.3 Q259.873 1830.3 262.928 1834.9 Q266.007 1839.49 266.007 1848.24 Q266.007 1856.96 262.928 1861.57 Q259.873 1866.15 254.063 1866.15 Q248.252 1866.15 245.174 1861.57 Q242.118 1856.96 242.118 1848.24 Q242.118 1839.49 245.174 1834.9 Q248.252 1830.3 254.063 1830.3 Z" fill="#000000" fill-rule="evenodd" fill-opacity="1" /><path clip-path="url(#clip940)" d="M284.224 1834 Q280.613 1834 278.785 1837.57 Q276.979 1841.11 276.979 1848.24 Q276.979 1855.34 278.785 1858.91 Q280.613 1862.45 284.224 1862.45 Q287.859 1862.45 289.664 1858.91 Q291.493 1855.34 291.493 1848.24 Q291.493 1841.11 289.664 1837.57 Q287.859 1834 284.224 1834 M284.224 1830.3 Q290.035 1830.3 293.09 1834.9 Q296.169 1839.49 296.169 1848.24 Q296.169 1856.96 293.09 1861.57 Q290.035 1866.15 284.224 1866.15 Q278.414 1866.15 275.336 1861.57 Q272.28 1856.96 272.28 1848.24 Q272.28 1839.49 275.336 1834.9 Q278.414 1830.3 284.224 1830.3 Z" fill="#000000" fill-rule="evenodd" fill-opacity="1" /><path clip-path="url(#clip940)" d="M795.891 1834 Q792.28 1834 790.451 1837.57 Q788.645 1841.11 788.645 1848.24 Q788.645 1855.34 790.451 1858.91 Q792.28 1862.45 795.891 1862.45 Q799.525 1862.45 801.33 1858.91 Q803.159 1855.34 803.159 1848.24 Q803.159 1841.11 801.33 1837.57 Q799.525 1834 795.891 1834 M795.891 1830.3 Q801.701 1830.3 804.756 1834.9 Q807.835 1839.49 807.835 1848.24 Q807.835 1856.96 804.756 1861.57 Q801.701 1866.15 795.891 1866.15 Q790.081 1866.15 787.002 1861.57 Q783.946 1856.96 783.946 1848.24 Q783.946 1839.49 787.002 1834.9 Q790.081 1830.3 795.891 1830.3 Z" fill="#000000" fill-rule="evenodd" fill-opacity="1" /><path clip-path="url(#clip940)" d="M816.053 1859.6 L820.937 1859.6 L820.937 1865.48 L816.053 1865.48 L816.053 1859.6 Z" fill="#000000" fill-rule="evenodd" fill-opacity="1" /><path clip-path="url(#clip940)" d="M835.15 1861.55 L851.469 1861.55 L851.469 1865.48 L829.525 1865.48 L829.525 1861.55 Q832.187 1858.79 836.77 1854.16 Q841.377 1849.51 842.557 1848.17 Q844.802 1845.65 845.682 1843.91 Q846.585 1842.15 846.585 1840.46 Q846.585 1837.71 844.64 1835.97 Q842.719 1834.23 839.617 1834.23 Q837.418 1834.23 834.965 1835 Q832.534 1835.76 829.756 1837.31 L829.756 1832.59 Q832.58 1831.46 835.034 1830.88 Q837.488 1830.3 839.525 1830.3 Q844.895 1830.3 848.089 1832.98 Q851.284 1835.67 851.284 1840.16 Q851.284 1842.29 850.474 1844.21 Q849.687 1846.11 847.58 1848.7 Q847.002 1849.37 843.9 1852.59 Q840.798 1855.78 835.15 1861.55 Z" fill="#000000" fill-rule="evenodd" fill-opacity="1" /><path clip-path="url(#clip940)" d="M861.33 1830.92 L879.687 1830.92 L879.687 1834.86 L865.613 1834.86 L865.613 1843.33 Q866.631 1842.98 867.65 1842.82 Q868.668 1842.64 869.687 1842.64 Q875.474 1842.64 878.853 1845.81 Q882.233 1848.98 882.233 1854.4 Q882.233 1859.97 878.761 1863.08 Q875.288 1866.15 868.969 1866.15 Q866.793 1866.15 864.525 1865.78 Q862.279 1865.41 859.872 1864.67 L859.872 1859.97 Q861.955 1861.11 864.177 1861.66 Q866.4 1862.22 868.876 1862.22 Q872.881 1862.22 875.219 1860.11 Q877.557 1858.01 877.557 1854.4 Q877.557 1850.78 875.219 1848.68 Q872.881 1846.57 868.876 1846.57 Q867.001 1846.57 865.126 1846.99 Q863.275 1847.4 861.33 1848.28 L861.33 1830.92 Z" fill="#000000" fill-rule="evenodd" fill-opacity="1" /><path clip-path="url(#clip940)" d="M1381.95 1834 Q1378.34 1834 1376.51 1837.57 Q1374.71 1841.11 1374.71 1848.24 Q1374.71 1855.34 1376.51 1858.91 Q1378.34 1862.45 1381.95 1862.45 Q1385.59 1862.45 1387.39 1858.91 Q1389.22 1855.34 1389.22 1848.24 Q1389.22 1841.11 1387.39 1837.57 Q1385.59 1834 1381.95 1834 M1381.95 1830.3 Q1387.76 1830.3 1390.82 1834.9 Q1393.9 1839.49 1393.9 1848.24 Q1393.9 1856.96 1390.82 1861.57 Q1387.76 1866.15 1381.95 1866.15 Q1376.14 1866.15 1373.07 1861.57 Q1370.01 1856.96 1370.01 1848.24 Q1370.01 1839.49 1373.07 1834.9 Q1376.14 1830.3 1381.95 1830.3 Z" fill="#000000" fill-rule="evenodd" fill-opacity="1" /><path clip-path="url(#clip940)" d="M1402.12 1859.6 L1407 1859.6 L1407 1865.48 L1402.12 1865.48 L1402.12 1859.6 Z" fill="#000000" fill-rule="evenodd" fill-opacity="1" /><path clip-path="url(#clip940)" d="M1417.23 1830.92 L1435.59 1830.92 L1435.59 1834.86 L1421.51 1834.86 L1421.51 1843.33 Q1422.53 1842.98 1423.55 1842.82 Q1424.57 1842.64 1425.59 1842.64 Q1431.38 1842.64 1434.76 1845.81 Q1438.13 1848.98 1438.13 1854.4 Q1438.13 1859.97 1434.66 1863.08 Q1431.19 1866.15 1424.87 1866.15 Q1422.7 1866.15 1420.43 1865.78 Q1418.18 1865.41 1415.77 1864.67 L1415.77 1859.97 Q1417.86 1861.11 1420.08 1861.66 Q1422.3 1862.22 1424.78 1862.22 Q1428.78 1862.22 1431.12 1860.11 Q1433.46 1858.01 1433.46 1854.4 Q1433.46 1850.78 1431.12 1848.68 Q1428.78 1846.57 1424.78 1846.57 Q1422.9 1846.57 1421.03 1846.99 Q1419.18 1847.4 1417.23 1848.28 L1417.23 1830.92 Z" fill="#000000" fill-rule="evenodd" fill-opacity="1" /><path clip-path="url(#clip940)" d="M1457.35 1834 Q1453.74 1834 1451.91 1837.57 Q1450.1 1841.11 1450.1 1848.24 Q1450.1 1855.34 1451.91 1858.91 Q1453.74 1862.45 1457.35 1862.45 Q1460.98 1862.45 1462.79 1858.91 Q1464.62 1855.34 1464.62 1848.24 Q1464.62 1841.11 1462.79 1837.57 Q1460.98 1834 1457.35 1834 M1457.35 1830.3 Q1463.16 1830.3 1466.21 1834.9 Q1469.29 1839.49 1469.29 1848.24 Q1469.29 1856.96 1466.21 1861.57 Q1463.16 1866.15 1457.35 1866.15 Q1451.54 1866.15 1448.46 1861.57 Q1445.4 1856.96 1445.4 1848.24 Q1445.4 1839.49 1448.46 1834.9 Q1451.54 1830.3 1457.35 1830.3 Z" fill="#000000" fill-rule="evenodd" fill-opacity="1" /><path clip-path="url(#clip940)" d="M1969.01 1834 Q1965.4 1834 1963.57 1837.57 Q1961.77 1841.11 1961.77 1848.24 Q1961.77 1855.34 1963.57 1858.91 Q1965.4 1862.45 1969.01 1862.45 Q1972.65 1862.45 1974.45 1858.91 Q1976.28 1855.34 1976.28 1848.24 Q1976.28 1841.11 1974.45 1837.57 Q1972.65 1834 1969.01 1834 M1969.01 1830.3 Q1974.82 1830.3 1977.88 1834.9 Q1980.96 1839.49 1980.96 1848.24 Q1980.96 1856.96 1977.88 1861.57 Q1974.82 1866.15 1969.01 1866.15 Q1963.2 1866.15 1960.13 1861.57 Q1957.07 1856.96 1957.07 1848.24 Q1957.07 1839.49 1960.13 1834.9 Q1963.2 1830.3 1969.01 1830.3 Z" fill="#000000" fill-rule="evenodd" fill-opacity="1" /><path clip-path="url(#clip940)" d="M1989.18 1859.6 L1994.06 1859.6 L1994.06 1865.48 L1989.18 1865.48 L1989.18 1859.6 Z" fill="#000000" fill-rule="evenodd" fill-opacity="1" /><path clip-path="url(#clip940)" d="M2003.06 1830.92 L2025.29 1830.92 L2025.29 1832.91 L2012.74 1865.48 L2007.86 1865.48 L2019.66 1834.86 L2003.06 1834.86 L2003.06 1830.92 Z" fill="#000000" fill-rule="evenodd" fill-opacity="1" /><path clip-path="url(#clip940)" d="M2034.45 1830.92 L2052.81 1830.92 L2052.81 1834.86 L2038.74 1834.86 L2038.74 1843.33 Q2039.75 1842.98 2040.77 1842.82 Q2041.79 1842.64 2042.81 1842.64 Q2048.6 1842.64 2051.98 1845.81 Q2055.36 1848.98 2055.36 1854.4 Q2055.36 1859.97 2051.88 1863.08 Q2048.41 1866.15 2042.09 1866.15 Q2039.92 1866.15 2037.65 1865.78 Q2035.4 1865.41 2033 1864.67 L2033 1859.97 Q2035.08 1861.11 2037.3 1861.66 Q2039.52 1862.22 2042 1862.22 Q2046 1862.22 2048.34 1860.11 Q2050.68 1858.01 2050.68 1854.4 Q2050.68 1850.78 2048.34 1848.68 Q2046 1846.57 2042 1846.57 Q2040.12 1846.57 2038.25 1846.99 Q2036.4 1847.4 2034.45 1848.28 L2034.45 1830.92 Z" fill="#000000" fill-rule="evenodd" fill-opacity="1" /><path clip-path="url(#clip940)" d="M2544.85 1861.55 L2552.49 1861.55 L2552.49 1835.18 L2544.18 1836.85 L2544.18 1832.59 L2552.44 1830.92 L2557.11 1830.92 L2557.11 1861.55 L2564.75 1861.55 L2564.75 1865.48 L2544.85 1865.48 L2544.85 1861.55 Z" fill="#000000" fill-rule="evenodd" fill-opacity="1" /><path clip-path="url(#clip940)" d="M2574.2 1859.6 L2579.08 1859.6 L2579.08 1865.48 L2574.2 1865.48 L2574.2 1859.6 Z" fill="#000000" fill-rule="evenodd" fill-opacity="1" /><path clip-path="url(#clip940)" d="M2599.27 1834 Q2595.66 1834 2593.83 1837.57 Q2592.02 1841.11 2592.02 1848.24 Q2592.02 1855.34 2593.83 1858.91 Q2595.66 1862.45 2599.27 1862.45 Q2602.9 1862.45 2604.71 1858.91 Q2606.54 1855.34 2606.54 1848.24 Q2606.54 1841.11 2604.71 1837.57 Q2602.9 1834 2599.27 1834 M2599.27 1830.3 Q2605.08 1830.3 2608.13 1834.9 Q2611.21 1839.49 2611.21 1848.24 Q2611.21 1856.96 2608.13 1861.57 Q2605.08 1866.15 2599.27 1866.15 Q2593.46 1866.15 2590.38 1861.57 Q2587.32 1856.96 2587.32 1848.24 Q2587.32 1839.49 2590.38 1834.9 Q2593.46 1830.3 2599.27 1830.3 Z" fill="#000000" fill-rule="evenodd" fill-opacity="1" /><path clip-path="url(#clip940)" d="M2629.43 1834 Q2625.82 1834 2623.99 1837.57 Q2622.18 1841.11 2622.18 1848.24 Q2622.18 1855.34 2623.99 1858.91 Q2625.82 1862.45 2629.43 1862.45 Q2633.06 1862.45 2634.87 1858.91 Q2636.7 1855.34 2636.7 1848.24 Q2636.7 1841.11 2634.87 1837.57 Q2633.06 1834 2629.43 1834 M2629.43 1830.3 Q2635.24 1830.3 2638.3 1834.9 Q2641.37 1839.49 2641.37 1848.24 Q2641.37 1856.96 2638.3 1861.57 Q2635.24 1866.15 2629.43 1866.15 Q2623.62 1866.15 2620.54 1861.57 Q2617.49 1856.96 2617.49 1848.24 Q2617.49 1839.49 2620.54 1834.9 Q2623.62 1830.3 2629.43 1830.3 Z" fill="#000000" fill-rule="evenodd" fill-opacity="1" /><polyline clip-path="url(#clip942)" style="stroke:#000000; stroke-linecap:butt; stroke-linejoin:round; stroke-width:2; stroke-opacity:0.1; fill:none" points="
  189.154,1771.22 2640.76,1771.22 
  "/>
<polyline clip-path="url(#clip942)" style="stroke:#000000; stroke-linecap:butt; stroke-linejoin:round; stroke-width:2; stroke-opacity:0.1; fill:none" points="
  189.154,1351.78 2640.76,1351.78 
  "/>
<polyline clip-path="url(#clip942)" style="stroke:#000000; stroke-linecap:butt; stroke-linejoin:round; stroke-width:2; stroke-opacity:0.1; fill:none" points="
  189.154,932.338 2640.76,932.338 
  "/>
<polyline clip-path="url(#clip942)" style="stroke:#000000; stroke-linecap:butt; stroke-linejoin:round; stroke-width:2; stroke-opacity:0.1; fill:none" points="
  189.154,512.897 2640.76,512.897 
  "/>
<polyline clip-path="url(#clip942)" style="stroke:#000000; stroke-linecap:butt; stroke-linejoin:round; stroke-width:2; stroke-opacity:0.1; fill:none" points="
  189.154,93.4571 2640.76,93.4571 
  "/>
<polyline clip-path="url(#clip940)" style="stroke:#000000; stroke-linecap:butt; stroke-linejoin:round; stroke-width:4; stroke-opacity:1; fill:none" points="
  189.154,1800.78 189.154,47.2441 
  "/>
<polyline clip-path="url(#clip940)" style="stroke:#000000; stroke-linecap:butt; stroke-linejoin:round; stroke-width:4; stroke-opacity:1; fill:none" points="
  189.154,1771.22 208.052,1771.22 
  "/>
<polyline clip-path="url(#clip940)" style="stroke:#000000; stroke-linecap:butt; stroke-linejoin:round; stroke-width:4; stroke-opacity:1; fill:none" points="
  189.154,1351.78 208.052,1351.78 
  "/>
<polyline clip-path="url(#clip940)" style="stroke:#000000; stroke-linecap:butt; stroke-linejoin:round; stroke-width:4; stroke-opacity:1; fill:none" points="
  189.154,932.338 208.052,932.338 
  "/>
<polyline clip-path="url(#clip940)" style="stroke:#000000; stroke-linecap:butt; stroke-linejoin:round; stroke-width:4; stroke-opacity:1; fill:none" points="
  189.154,512.897 208.052,512.897 
  "/>
<polyline clip-path="url(#clip940)" style="stroke:#000000; stroke-linecap:butt; stroke-linejoin:round; stroke-width:4; stroke-opacity:1; fill:none" points="
  189.154,93.4571 208.052,93.4571 
  "/>
<path clip-path="url(#clip940)" d="M61.4965 1757.02 Q57.8854 1757.02 56.0567 1760.58 Q54.2512 1764.12 54.2512 1771.25 Q54.2512 1778.36 56.0567 1781.92 Q57.8854 1785.47 61.4965 1785.47 Q65.1307 1785.47 66.9363 1781.92 Q68.765 1778.36 68.765 1771.25 Q68.765 1764.12 66.9363 1760.58 Q65.1307 1757.02 61.4965 1757.02 M61.4965 1753.31 Q67.3067 1753.31 70.3622 1757.92 Q73.4409 1762.5 73.4409 1771.25 Q73.4409 1779.98 70.3622 1784.59 Q67.3067 1789.17 61.4965 1789.17 Q55.6864 1789.17 52.6077 1784.59 Q49.5521 1779.98 49.5521 1771.25 Q49.5521 1762.5 52.6077 1757.92 Q55.6864 1753.31 61.4965 1753.31 Z" fill="#000000" fill-rule="evenodd" fill-opacity="1" /><path clip-path="url(#clip940)" d="M81.6584 1782.62 L86.5427 1782.62 L86.5427 1788.5 L81.6584 1788.5 L81.6584 1782.62 Z" fill="#000000" fill-rule="evenodd" fill-opacity="1" /><path clip-path="url(#clip940)" d="M106.728 1757.02 Q103.117 1757.02 101.288 1760.58 Q99.4824 1764.12 99.4824 1771.25 Q99.4824 1778.36 101.288 1781.92 Q103.117 1785.47 106.728 1785.47 Q110.362 1785.47 112.168 1781.92 Q113.996 1778.36 113.996 1771.25 Q113.996 1764.12 112.168 1760.58 Q110.362 1757.02 106.728 1757.02 M106.728 1753.31 Q112.538 1753.31 115.593 1757.92 Q118.672 1762.5 118.672 1771.25 Q118.672 1779.98 115.593 1784.59 Q112.538 1789.17 106.728 1789.17 Q100.918 1789.17 97.8389 1784.59 Q94.7834 1779.98 94.7834 1771.25 Q94.7834 1762.5 97.8389 1757.92 Q100.918 1753.31 106.728 1753.31 Z" fill="#000000" fill-rule="evenodd" fill-opacity="1" /><path clip-path="url(#clip940)" d="M136.89 1757.02 Q133.279 1757.02 131.45 1760.58 Q129.644 1764.12 129.644 1771.25 Q129.644 1778.36 131.45 1781.92 Q133.279 1785.47 136.89 1785.47 Q140.524 1785.47 142.329 1781.92 Q144.158 1778.36 144.158 1771.25 Q144.158 1764.12 142.329 1760.58 Q140.524 1757.02 136.89 1757.02 M136.89 1753.31 Q142.7 1753.31 145.755 1757.92 Q148.834 1762.5 148.834 1771.25 Q148.834 1779.98 145.755 1784.59 Q142.7 1789.17 136.89 1789.17 Q131.079 1789.17 128.001 1784.59 Q124.945 1779.98 124.945 1771.25 Q124.945 1762.5 128.001 1757.92 Q131.079 1753.31 136.89 1753.31 Z" fill="#000000" fill-rule="evenodd" fill-opacity="1" /><path clip-path="url(#clip940)" d="M62.4919 1337.58 Q58.8808 1337.58 57.0521 1341.14 Q55.2465 1344.68 55.2465 1351.81 Q55.2465 1358.92 57.0521 1362.48 Q58.8808 1366.03 62.4919 1366.03 Q66.1261 1366.03 67.9317 1362.48 Q69.7604 1358.92 69.7604 1351.81 Q69.7604 1344.68 67.9317 1341.14 Q66.1261 1337.58 62.4919 1337.58 M62.4919 1333.87 Q68.302 1333.87 71.3576 1338.48 Q74.4363 1343.06 74.4363 1351.81 Q74.4363 1360.54 71.3576 1365.15 Q68.302 1369.73 62.4919 1369.73 Q56.6817 1369.73 53.603 1365.15 Q50.5475 1360.54 50.5475 1351.81 Q50.5475 1343.06 53.603 1338.48 Q56.6817 1333.87 62.4919 1333.87 Z" fill="#000000" fill-rule="evenodd" fill-opacity="1" /><path clip-path="url(#clip940)" d="M82.6538 1363.18 L87.538 1363.18 L87.538 1369.06 L82.6538 1369.06 L82.6538 1363.18 Z" fill="#000000" fill-rule="evenodd" fill-opacity="1" /><path clip-path="url(#clip940)" d="M101.751 1365.12 L118.07 1365.12 L118.07 1369.06 L96.126 1369.06 L96.126 1365.12 Q98.788 1362.37 103.371 1357.74 Q107.978 1353.09 109.158 1351.74 Q111.404 1349.22 112.283 1347.48 Q113.186 1345.72 113.186 1344.04 Q113.186 1341.28 111.242 1339.54 Q109.32 1337.81 106.218 1337.81 Q104.019 1337.81 101.566 1338.57 Q99.1352 1339.34 96.3574 1340.89 L96.3574 1336.16 Q99.1815 1335.03 101.635 1334.45 Q104.089 1333.87 106.126 1333.87 Q111.496 1333.87 114.691 1336.56 Q117.885 1339.24 117.885 1343.73 Q117.885 1345.86 117.075 1347.79 Q116.288 1349.68 114.181 1352.28 Q113.603 1352.95 110.501 1356.16 Q107.399 1359.36 101.751 1365.12 Z" fill="#000000" fill-rule="evenodd" fill-opacity="1" /><path clip-path="url(#clip940)" d="M127.931 1334.5 L146.288 1334.5 L146.288 1338.43 L132.214 1338.43 L132.214 1346.91 Q133.232 1346.56 134.251 1346.4 Q135.269 1346.21 136.288 1346.21 Q142.075 1346.21 145.454 1349.38 Q148.834 1352.55 148.834 1357.97 Q148.834 1363.55 145.362 1366.65 Q141.89 1369.73 135.57 1369.73 Q133.394 1369.73 131.126 1369.36 Q128.88 1368.99 126.473 1368.25 L126.473 1363.55 Q128.556 1364.68 130.779 1365.24 Q133.001 1365.79 135.478 1365.79 Q139.482 1365.79 141.82 1363.69 Q144.158 1361.58 144.158 1357.97 Q144.158 1354.36 141.82 1352.25 Q139.482 1350.15 135.478 1350.15 Q133.603 1350.15 131.728 1350.56 Q129.876 1350.98 127.931 1351.86 L127.931 1334.5 Z" fill="#000000" fill-rule="evenodd" fill-opacity="1" /><path clip-path="url(#clip940)" d="M61.4965 918.136 Q57.8854 918.136 56.0567 921.701 Q54.2512 925.243 54.2512 932.373 Q54.2512 939.479 56.0567 943.044 Q57.8854 946.585 61.4965 946.585 Q65.1307 946.585 66.9363 943.044 Q68.765 939.479 68.765 932.373 Q68.765 925.243 66.9363 921.701 Q65.1307 918.136 61.4965 918.136 M61.4965 914.433 Q67.3067 914.433 70.3622 919.039 Q73.4409 923.623 73.4409 932.373 Q73.4409 941.099 70.3622 945.706 Q67.3067 950.289 61.4965 950.289 Q55.6864 950.289 52.6077 945.706 Q49.5521 941.099 49.5521 932.373 Q49.5521 923.623 52.6077 919.039 Q55.6864 914.433 61.4965 914.433 Z" fill="#000000" fill-rule="evenodd" fill-opacity="1" /><path clip-path="url(#clip940)" d="M81.6584 943.738 L86.5427 943.738 L86.5427 949.618 L81.6584 949.618 L81.6584 943.738 Z" fill="#000000" fill-rule="evenodd" fill-opacity="1" /><path clip-path="url(#clip940)" d="M96.7741 915.058 L115.13 915.058 L115.13 918.993 L101.056 918.993 L101.056 927.465 Q102.075 927.118 103.094 926.956 Q104.112 926.771 105.131 926.771 Q110.918 926.771 114.297 929.942 Q117.677 933.113 117.677 938.53 Q117.677 944.109 114.205 947.21 Q110.732 950.289 104.413 950.289 Q102.237 950.289 99.9685 949.919 Q97.7232 949.548 95.3158 948.808 L95.3158 944.109 Q97.3991 945.243 99.6213 945.798 Q101.844 946.354 104.32 946.354 Q108.325 946.354 110.663 944.247 Q113.001 942.141 113.001 938.53 Q113.001 934.919 110.663 932.812 Q108.325 930.706 104.32 930.706 Q102.445 930.706 100.57 931.123 Q98.7185 931.539 96.7741 932.419 L96.7741 915.058 Z" fill="#000000" fill-rule="evenodd" fill-opacity="1" /><path clip-path="url(#clip940)" d="M136.89 918.136 Q133.279 918.136 131.45 921.701 Q129.644 925.243 129.644 932.373 Q129.644 939.479 131.45 943.044 Q133.279 946.585 136.89 946.585 Q140.524 946.585 142.329 943.044 Q144.158 939.479 144.158 932.373 Q144.158 925.243 142.329 921.701 Q140.524 918.136 136.89 918.136 M136.89 914.433 Q142.7 914.433 145.755 919.039 Q148.834 923.623 148.834 932.373 Q148.834 941.099 145.755 945.706 Q142.7 950.289 136.89 950.289 Q131.079 950.289 128.001 945.706 Q124.945 941.099 124.945 932.373 Q124.945 923.623 128.001 919.039 Q131.079 914.433 136.89 914.433 Z" fill="#000000" fill-rule="evenodd" fill-opacity="1" /><path clip-path="url(#clip940)" d="M62.4919 498.696 Q58.8808 498.696 57.0521 502.261 Q55.2465 505.803 55.2465 512.932 Q55.2465 520.039 57.0521 523.603 Q58.8808 527.145 62.4919 527.145 Q66.1261 527.145 67.9317 523.603 Q69.7604 520.039 69.7604 512.932 Q69.7604 505.803 67.9317 502.261 Q66.1261 498.696 62.4919 498.696 M62.4919 494.992 Q68.302 494.992 71.3576 499.599 Q74.4363 504.182 74.4363 512.932 Q74.4363 521.659 71.3576 526.265 Q68.302 530.849 62.4919 530.849 Q56.6817 530.849 53.603 526.265 Q50.5475 521.659 50.5475 512.932 Q50.5475 504.182 53.603 499.599 Q56.6817 494.992 62.4919 494.992 Z" fill="#000000" fill-rule="evenodd" fill-opacity="1" /><path clip-path="url(#clip940)" d="M82.6538 524.298 L87.538 524.298 L87.538 530.177 L82.6538 530.177 L82.6538 524.298 Z" fill="#000000" fill-rule="evenodd" fill-opacity="1" /><path clip-path="url(#clip940)" d="M96.5426 495.617 L118.765 495.617 L118.765 497.608 L106.218 530.177 L101.334 530.177 L113.14 499.553 L96.5426 499.553 L96.5426 495.617 Z" fill="#000000" fill-rule="evenodd" fill-opacity="1" /><path clip-path="url(#clip940)" d="M127.931 495.617 L146.288 495.617 L146.288 499.553 L132.214 499.553 L132.214 508.025 Q133.232 507.678 134.251 507.516 Q135.269 507.33 136.288 507.33 Q142.075 507.33 145.454 510.502 Q148.834 513.673 148.834 519.09 Q148.834 524.668 145.362 527.77 Q141.89 530.849 135.57 530.849 Q133.394 530.849 131.126 530.478 Q128.88 530.108 126.473 529.367 L126.473 524.668 Q128.556 525.802 130.779 526.358 Q133.001 526.914 135.478 526.914 Q139.482 526.914 141.82 524.807 Q144.158 522.701 144.158 519.09 Q144.158 515.478 141.82 513.372 Q139.482 511.266 135.478 511.266 Q133.603 511.266 131.728 511.682 Q129.876 512.099 127.931 512.978 L127.931 495.617 Z" fill="#000000" fill-rule="evenodd" fill-opacity="1" /><path clip-path="url(#clip940)" d="M52.3067 106.802 L59.9456 106.802 L59.9456 80.4363 L51.6354 82.103 L51.6354 77.8437 L59.8993 76.1771 L64.5752 76.1771 L64.5752 106.802 L72.214 106.802 L72.214 110.737 L52.3067 110.737 L52.3067 106.802 Z" fill="#000000" fill-rule="evenodd" fill-opacity="1" /><path clip-path="url(#clip940)" d="M81.6584 104.857 L86.5427 104.857 L86.5427 110.737 L81.6584 110.737 L81.6584 104.857 Z" fill="#000000" fill-rule="evenodd" fill-opacity="1" /><path clip-path="url(#clip940)" d="M106.728 79.2558 Q103.117 79.2558 101.288 82.8206 Q99.4824 86.3622 99.4824 93.4918 Q99.4824 100.598 101.288 104.163 Q103.117 107.705 106.728 107.705 Q110.362 107.705 112.168 104.163 Q113.996 100.598 113.996 93.4918 Q113.996 86.3622 112.168 82.8206 Q110.362 79.2558 106.728 79.2558 M106.728 75.5521 Q112.538 75.5521 115.593 80.1585 Q118.672 84.7419 118.672 93.4918 Q118.672 102.219 115.593 106.825 Q112.538 111.408 106.728 111.408 Q100.918 111.408 97.8389 106.825 Q94.7834 102.219 94.7834 93.4918 Q94.7834 84.7419 97.8389 80.1585 Q100.918 75.5521 106.728 75.5521 Z" fill="#000000" fill-rule="evenodd" fill-opacity="1" /><path clip-path="url(#clip940)" d="M136.89 79.2558 Q133.279 79.2558 131.45 82.8206 Q129.644 86.3622 129.644 93.4918 Q129.644 100.598 131.45 104.163 Q133.279 107.705 136.89 107.705 Q140.524 107.705 142.329 104.163 Q144.158 100.598 144.158 93.4918 Q144.158 86.3622 142.329 82.8206 Q140.524 79.2558 136.89 79.2558 M136.89 75.5521 Q142.7 75.5521 145.755 80.1585 Q148.834 84.7419 148.834 93.4918 Q148.834 102.219 145.755 106.825 Q142.7 111.408 136.89 111.408 Q131.079 111.408 128.001 106.825 Q124.945 102.219 124.945 93.4918 Q124.945 84.7419 128.001 80.1585 Q131.079 75.5521 136.89 75.5521 Z" fill="#000000" fill-rule="evenodd" fill-opacity="1" /><polyline clip-path="url(#clip942)" style="stroke:#009af9; stroke-linecap:butt; stroke-linejoin:round; stroke-width:4; stroke-opacity:1; fill:none" points="
  499.929,1649.21 1448.84,1130.14 344.187,1642.86 2231.67,1517.79 1542.65,1232.33 842.166,469.412 276.285,211.452 1772,983.164 1309.92,1443.91 385.968,901.028 
  1809.85,576.256 1088.57,1616.45 1460.97,1221.96 2385.27,1118.33 519.329,145.672 1575.17,730.849 1208.93,563.651 2057.3,1734.48 2269.39,96.8724 731.163,1282.11 
  485.66,1477.75 1822.28,1329.87 775.145,1719.97 2210.25,682.435 866.883,499.858 2571.01,1748.33 1327.04,1086.37 1695.68,1749.61 868.253,1509.53 1057.16,574.986 
  653.283,633.239 2257.49,973.333 292.79,381.55 685.23,1446.46 1722.11,1421.97 656.985,495.921 614.529,1355.13 1860.36,942.252 1416.47,620.148 1342.72,1717.62 
  1933.47,1486.18 1064.55,284.522 2028.38,1634.98 2004.22,1290.13 732.172,610.074 2417.02,1361.32 1840.38,739.428 1999.77,865.606 2524.32,394.174 419.624,295.344 
  386.707,1470.51 2256.55,1008.43 1269.35,492.817 1045.15,1428.86 761.312,899.711 1673.45,925.817 915.816,902.223 501.118,969.224 1124.51,638.962 2163.53,1575.44 
  1263.43,1597.63 2235.98,1073.33 2392.95,151.886 275.136,1395.3 1686.76,293.729 659.922,1166.94 1338.17,620.251 758.017,1586.28 1401.67,1140.16 517.302,136.289 
  1157.79,736.908 2435.2,446.582 2069.82,1382.24 1573.94,476.548 1169.21,271.31 2356.04,197.84 1418.41,1657.87 726.565,1415.49 351.676,907.313 1823.56,1094.42 
  258.539,130.708 1547.01,1369.27 1709.18,779.239 1122.31,204.173 2494.1,410.514 306.545,111.034 2117.88,1301.69 1814.08,929.856 1552.24,1236.64 1126.9,1450.65 
  582.97,1751.15 1927.18,1127.83 1579.33,1053.07 1314.93,491.901 922.541,1591.27 1689.09,462.87 511.871,1106.62 1377.48,1295.15 2571.37,1189.36 1890.41,157.607 
  
  "/>
<path clip-path="url(#clip940)" d="
M2261.45 1742.33 L2559.04 1742.33 L2559.04 1638.65 L2261.45 1638.65  Z
  " fill="#ffffff" fill-rule="evenodd" fill-opacity="1"/>
<polyline clip-path="url(#clip940)" style="stroke:#000000; stroke-linecap:butt; stroke-linejoin:round; stroke-width:4; stroke-opacity:1; fill:none" points="
  2261.45,1742.33 2559.04,1742.33 2559.04,1638.65 2261.45,1638.65 2261.45,1742.33 
  "/>
<polyline clip-path="url(#clip940)" style="stroke:#009af9; stroke-linecap:butt; stroke-linejoin:round; stroke-width:4; stroke-opacity:1; fill:none" points="
  2288.69,1690.49 2452.13,1690.49 
  "/>
<path clip-path="url(#clip940)" d="M2493.21 1710.18 Q2491.4 1714.81 2489.69 1716.22 Q2487.98 1717.63 2485.11 1717.63 L2481.7 1717.63 L2481.7 1714.06 L2484.2 1714.06 Q2485.96 1714.06 2486.93 1713.23 Q2487.91 1712.4 2489.09 1709.3 L2489.85 1707.35 L2479.37 1681.84 L2483.88 1681.84 L2491.98 1702.12 L2500.08 1681.84 L2504.6 1681.84 L2493.21 1710.18 Z" fill="#000000" fill-rule="evenodd" fill-opacity="1" /><path clip-path="url(#clip940)" d="M2511.89 1703.83 L2519.53 1703.83 L2519.53 1677.47 L2511.22 1679.13 L2511.22 1674.87 L2519.48 1673.21 L2524.16 1673.21 L2524.16 1703.83 L2531.8 1703.83 L2531.8 1707.77 L2511.89 1707.77 L2511.89 1703.83 Z" fill="#000000" fill-rule="evenodd" fill-opacity="1" /></svg>
