<?xml version="1.0" encoding="utf-8"?>
<svg xmlns="http://www.w3.org/2000/svg" xmlns:xlink="http://www.w3.org/1999/xlink" width="672" height="480" viewBox="0 0 2688 1920">
<defs>
  <clipPath id="clip230">
    <rect x="0" y="0" width="2688" height="1920"/>
  </clipPath>
</defs>
<path clip-path="url(#clip230)" d="
M0 1920 L2688 1920 L2688 0 L0 0  Z
  " fill="#ffffff" fill-rule="evenodd" fill-opacity="1"/>
<defs>
  <clipPath id="clip231">
    <rect x="537" y="0" width="1883" height="1883"/>
  </clipPath>
</defs>
<path clip-path="url(#clip230)" d="
M189.154 1800.78 L2640.76 1800.78 L2640.76 47.2441 L189.154 47.2441  Z
  " fill="#ffffff" fill-rule="evenodd" fill-opacity="1"/>
<defs>
  <clipPath id="clip232">
    <rect x="189" y="47" width="2453" height="1755"/>
  </clipPath>
</defs>
<polyline clip-path="url(#clip232)" style="stroke:#000000; stroke-linecap:butt; stroke-linejoin:round; stroke-width:2; stroke-opacity:0.1; fill:none" points="
  253.349,1800.78 253.349,47.2441 
  "/>
<polyline clip-path="url(#clip232)" style="stroke:#000000; stroke-linecap:butt; stroke-linejoin:round; stroke-width:2; stroke-opacity:0.1; fill:none" points="
  833.546,1800.78 833.546,47.2441 
  "/>
<polyline clip-path="url(#clip232)" style="stroke:#000000; stroke-linecap:butt; stroke-linejoin:round; stroke-width:2; stroke-opacity:0.1; fill:none" points="
  1413.74,1800.78 1413.74,47.2441 
  "/>
<polyline clip-path="url(#clip232)" style="stroke:#000000; stroke-linecap:butt; stroke-linejoin:round; stroke-width:2; stroke-opacity:0.1; fill:none" points="
  1993.94,1800.78 1993.94,47.2441 
  "/>
<polyline clip-path="url(#clip232)" style="stroke:#000000; stroke-linecap:butt; stroke-linejoin:round; stroke-width:2; stroke-opacity:0.1; fill:none" points="
  2574.14,1800.78 2574.14,47.2441 
  "/>
<polyline clip-path="url(#clip230)" style="stroke:#000000; stroke-linecap:butt; stroke-linejoin:round; stroke-width:4; stroke-opacity:1; fill:none" points="
  189.154,1800.78 2640.76,1800.78 
  "/>
<polyline clip-path="url(#clip230)" style="stroke:#000000; stroke-linecap:butt; stroke-linejoin:round; stroke-width:4; stroke-opacity:1; fill:none" points="
  253.349,1800.78 253.349,1781.88 
  "/>
<polyline clip-path="url(#clip230)" style="stroke:#000000; stroke-linecap:butt; stroke-linejoin:round; stroke-width:4; stroke-opacity:1; fill:none" points="
  833.546,1800.78 833.546,1781.88 
  "/>
<polyline clip-path="url(#clip230)" style="stroke:#000000; stroke-linecap:butt; stroke-linejoin:round; stroke-width:4; stroke-opacity:1; fill:none" points="
  1413.74,1800.78 1413.74,1781.88 
  "/>
<polyline clip-path="url(#clip230)" style="stroke:#000000; stroke-linecap:butt; stroke-linejoin:round; stroke-width:4; stroke-opacity:1; fill:none" points="
  1993.94,1800.78 1993.94,1781.88 
  "/>
<polyline clip-path="url(#clip230)" style="stroke:#000000; stroke-linecap:butt; stroke-linejoin:round; stroke-width:4; stroke-opacity:1; fill:none" points="
  2574.14,1800.78 2574.14,1781.88 
  "/>
<path clip-path="url(#clip230)" d="M215.652 1834 Q212.041 1834 210.213 1837.57 Q208.407 1841.11 208.407 1848.24 Q208.407 1855.34 210.213 1858.91 Q212.041 1862.45 215.652 1862.45 Q219.287 1862.45 221.092 1858.91 Q222.921 1855.34 222.921 1848.24 Q222.921 1841.11 221.092 1837.57 Q219.287 1834 215.652 1834 M215.652 1830.3 Q221.463 1830.3 224.518 1834.9 Q227.597 1839.49 227.597 1848.24 Q227.597 1856.96 224.518 1861.57 Q221.463 1866.15 215.652 1866.15 Q209.842 1866.15 206.764 1861.57 Q203.708 1856.96 203.708 1848.24 Q203.708 1839.49 206.764 1834.9 Q209.842 1830.3 215.652 1830.3 Z" fill="#000000" fill-rule="evenodd" fill-opacity="1" /><path clip-path="url(#clip230)" d="M235.814 1859.6 L240.699 1859.6 L240.699 1865.48 L235.814 1865.48 L235.814 1859.6 Z" fill="#000000" fill-rule="evenodd" fill-opacity="1" /><path clip-path="url(#clip230)" d="M260.884 1834 Q257.273 1834 255.444 1837.57 Q253.638 1841.11 253.638 1848.24 Q253.638 1855.34 255.444 1858.91 Q257.273 1862.45 260.884 1862.45 Q264.518 1862.45 266.323 1858.91 Q268.152 1855.34 268.152 1848.24 Q268.152 1841.11 266.323 1837.57 Q264.518 1834 260.884 1834 M260.884 1830.3 Q266.694 1830.3 269.749 1834.9 Q272.828 1839.49 272.828 1848.24 Q272.828 1856.96 269.749 1861.57 Q266.694 1866.15 260.884 1866.15 Q255.074 1866.15 251.995 1861.57 Q248.939 1856.96 248.939 1848.24 Q248.939 1839.49 251.995 1834.9 Q255.074 1830.3 260.884 1830.3 Z" fill="#000000" fill-rule="evenodd" fill-opacity="1" /><path clip-path="url(#clip230)" d="M291.046 1834 Q287.434 1834 285.606 1837.57 Q283.8 1841.11 283.8 1848.24 Q283.8 1855.34 285.606 1858.91 Q287.434 1862.45 291.046 1862.45 Q294.68 1862.45 296.485 1858.91 Q298.314 1855.34 298.314 1848.24 Q298.314 1841.11 296.485 1837.57 Q294.68 1834 291.046 1834 M291.046 1830.3 Q296.856 1830.3 299.911 1834.9 Q302.99 1839.49 302.99 1848.24 Q302.99 1856.96 299.911 1861.57 Q296.856 1866.15 291.046 1866.15 Q285.235 1866.15 282.157 1861.57 Q279.101 1856.96 279.101 1848.24 Q279.101 1839.49 282.157 1834.9 Q285.235 1830.3 291.046 1830.3 Z" fill="#000000" fill-rule="evenodd" fill-opacity="1" /><path clip-path="url(#clip230)" d="M796.347 1834 Q792.736 1834 790.907 1837.57 Q789.102 1841.11 789.102 1848.24 Q789.102 1855.34 790.907 1858.91 Q792.736 1862.45 796.347 1862.45 Q799.982 1862.45 801.787 1858.91 Q803.616 1855.34 803.616 1848.24 Q803.616 1841.11 801.787 1837.57 Q799.982 1834 796.347 1834 M796.347 1830.3 Q802.157 1830.3 805.213 1834.9 Q808.292 1839.49 808.292 1848.24 Q808.292 1856.96 805.213 1861.57 Q802.157 1866.15 796.347 1866.15 Q790.537 1866.15 787.458 1861.57 Q784.403 1856.96 784.403 1848.24 Q784.403 1839.49 787.458 1834.9 Q790.537 1830.3 796.347 1830.3 Z" fill="#000000" fill-rule="evenodd" fill-opacity="1" /><path clip-path="url(#clip230)" d="M816.509 1859.6 L821.393 1859.6 L821.393 1865.48 L816.509 1865.48 L816.509 1859.6 Z" fill="#000000" fill-rule="evenodd" fill-opacity="1" /><path clip-path="url(#clip230)" d="M835.606 1861.55 L851.926 1861.55 L851.926 1865.48 L829.981 1865.48 L829.981 1861.55 Q832.643 1858.79 837.227 1854.16 Q841.833 1849.51 843.014 1848.17 Q845.259 1845.65 846.139 1843.91 Q847.041 1842.15 847.041 1840.46 Q847.041 1837.71 845.097 1835.97 Q843.176 1834.23 840.074 1834.23 Q837.875 1834.23 835.421 1835 Q832.991 1835.76 830.213 1837.31 L830.213 1832.59 Q833.037 1831.46 835.491 1830.88 Q837.944 1830.3 839.981 1830.3 Q845.352 1830.3 848.546 1832.98 Q851.74 1835.67 851.74 1840.16 Q851.74 1842.29 850.93 1844.21 Q850.143 1846.11 848.037 1848.7 Q847.458 1849.37 844.356 1852.59 Q841.254 1855.78 835.606 1861.55 Z" fill="#000000" fill-rule="evenodd" fill-opacity="1" /><path clip-path="url(#clip230)" d="M861.787 1830.92 L880.143 1830.92 L880.143 1834.86 L866.069 1834.86 L866.069 1843.33 Q867.088 1842.98 868.106 1842.82 Q869.125 1842.64 870.143 1842.64 Q875.93 1842.64 879.31 1845.81 Q882.689 1848.98 882.689 1854.4 Q882.689 1859.97 879.217 1863.08 Q875.745 1866.15 869.426 1866.15 Q867.25 1866.15 864.981 1865.78 Q862.736 1865.41 860.328 1864.67 L860.328 1859.97 Q862.412 1861.11 864.634 1861.66 Q866.856 1862.22 869.333 1862.22 Q873.338 1862.22 875.676 1860.11 Q878.013 1858.01 878.013 1854.4 Q878.013 1850.78 875.676 1848.68 Q873.338 1846.57 869.333 1846.57 Q867.458 1846.57 865.583 1846.99 Q863.731 1847.4 861.787 1848.28 L861.787 1830.92 Z" fill="#000000" fill-rule="evenodd" fill-opacity="1" /><path clip-path="url(#clip230)" d="M1376.05 1834 Q1372.44 1834 1370.61 1837.57 Q1368.8 1841.11 1368.8 1848.24 Q1368.8 1855.34 1370.61 1858.91 Q1372.44 1862.45 1376.05 1862.45 Q1379.68 1862.45 1381.49 1858.91 Q1383.32 1855.34 1383.32 1848.24 Q1383.32 1841.11 1381.49 1837.57 Q1379.68 1834 1376.05 1834 M1376.05 1830.3 Q1381.86 1830.3 1384.91 1834.9 Q1387.99 1839.49 1387.99 1848.24 Q1387.99 1856.96 1384.91 1861.57 Q1381.86 1866.15 1376.05 1866.15 Q1370.24 1866.15 1367.16 1861.57 Q1364.1 1856.96 1364.1 1848.24 Q1364.1 1839.49 1367.16 1834.9 Q1370.24 1830.3 1376.05 1830.3 Z" fill="#000000" fill-rule="evenodd" fill-opacity="1" /><path clip-path="url(#clip230)" d="M1396.21 1859.6 L1401.09 1859.6 L1401.09 1865.48 L1396.21 1865.48 L1396.21 1859.6 Z" fill="#000000" fill-rule="evenodd" fill-opacity="1" /><path clip-path="url(#clip230)" d="M1411.32 1830.92 L1429.68 1830.92 L1429.68 1834.86 L1415.61 1834.86 L1415.61 1843.33 Q1416.63 1842.98 1417.64 1842.82 Q1418.66 1842.64 1419.68 1842.64 Q1425.47 1842.64 1428.85 1845.81 Q1432.23 1848.98 1432.23 1854.4 Q1432.23 1859.97 1428.75 1863.08 Q1425.28 1866.15 1418.96 1866.15 Q1416.79 1866.15 1414.52 1865.78 Q1412.27 1865.41 1409.87 1864.67 L1409.87 1859.97 Q1411.95 1861.11 1414.17 1861.66 Q1416.39 1862.22 1418.87 1862.22 Q1422.88 1862.22 1425.21 1860.11 Q1427.55 1858.01 1427.55 1854.4 Q1427.55 1850.78 1425.21 1848.68 Q1422.88 1846.57 1418.87 1846.57 Q1417 1846.57 1415.12 1846.99 Q1413.27 1847.4 1411.32 1848.28 L1411.32 1830.92 Z" fill="#000000" fill-rule="evenodd" fill-opacity="1" /><path clip-path="url(#clip230)" d="M1451.44 1834 Q1447.83 1834 1446 1837.57 Q1444.19 1841.11 1444.19 1848.24 Q1444.19 1855.34 1446 1858.91 Q1447.83 1862.45 1451.44 1862.45 Q1455.07 1862.45 1456.88 1858.91 Q1458.71 1855.34 1458.71 1848.24 Q1458.71 1841.11 1456.88 1837.57 Q1455.07 1834 1451.44 1834 M1451.44 1830.3 Q1457.25 1830.3 1460.31 1834.9 Q1463.38 1839.49 1463.38 1848.24 Q1463.38 1856.96 1460.31 1861.57 Q1457.25 1866.15 1451.44 1866.15 Q1445.63 1866.15 1442.55 1861.57 Q1439.5 1856.96 1439.5 1848.24 Q1439.5 1839.49 1442.55 1834.9 Q1445.63 1830.3 1451.44 1830.3 Z" fill="#000000" fill-rule="evenodd" fill-opacity="1" /><path clip-path="url(#clip230)" d="M1956.74 1834 Q1953.13 1834 1951.3 1837.57 Q1949.5 1841.11 1949.5 1848.24 Q1949.5 1855.34 1951.3 1858.91 Q1953.13 1862.45 1956.74 1862.45 Q1960.38 1862.45 1962.18 1858.91 Q1964.01 1855.34 1964.01 1848.24 Q1964.01 1841.11 1962.18 1837.57 Q1960.38 1834 1956.74 1834 M1956.74 1830.3 Q1962.55 1830.3 1965.61 1834.9 Q1968.69 1839.49 1968.69 1848.24 Q1968.69 1856.96 1965.61 1861.57 Q1962.55 1866.15 1956.74 1866.15 Q1950.93 1866.15 1947.85 1861.57 Q1944.8 1856.96 1944.8 1848.24 Q1944.8 1839.49 1947.85 1834.9 Q1950.93 1830.3 1956.74 1830.3 Z" fill="#000000" fill-rule="evenodd" fill-opacity="1" /><path clip-path="url(#clip230)" d="M1976.9 1859.6 L1981.79 1859.6 L1981.79 1865.48 L1976.9 1865.48 L1976.9 1859.6 Z" fill="#000000" fill-rule="evenodd" fill-opacity="1" /><path clip-path="url(#clip230)" d="M1990.79 1830.92 L2013.01 1830.92 L2013.01 1832.91 L2000.47 1865.48 L1995.58 1865.48 L2007.39 1834.86 L1990.79 1834.86 L1990.79 1830.92 Z" fill="#000000" fill-rule="evenodd" fill-opacity="1" /><path clip-path="url(#clip230)" d="M2022.18 1830.92 L2040.54 1830.92 L2040.54 1834.86 L2026.46 1834.86 L2026.46 1843.33 Q2027.48 1842.98 2028.5 1842.82 Q2029.52 1842.64 2030.54 1842.64 Q2036.32 1842.64 2039.7 1845.81 Q2043.08 1848.98 2043.08 1854.4 Q2043.08 1859.97 2039.61 1863.08 Q2036.14 1866.15 2029.82 1866.15 Q2027.64 1866.15 2025.38 1865.78 Q2023.13 1865.41 2020.72 1864.67 L2020.72 1859.97 Q2022.81 1861.11 2025.03 1861.66 Q2027.25 1862.22 2029.73 1862.22 Q2033.73 1862.22 2036.07 1860.11 Q2038.41 1858.01 2038.41 1854.4 Q2038.41 1850.78 2036.07 1848.68 Q2033.73 1846.57 2029.73 1846.57 Q2027.85 1846.57 2025.98 1846.99 Q2024.13 1847.4 2022.18 1848.28 L2022.18 1830.92 Z" fill="#000000" fill-rule="evenodd" fill-opacity="1" /><path clip-path="url(#clip230)" d="M2526.21 1861.55 L2533.85 1861.55 L2533.85 1835.18 L2525.54 1836.85 L2525.54 1832.59 L2533.8 1830.92 L2538.48 1830.92 L2538.48 1861.55 L2546.12 1861.55 L2546.12 1865.48 L2526.21 1865.48 L2526.21 1861.55 Z" fill="#000000" fill-rule="evenodd" fill-opacity="1" /><path clip-path="url(#clip230)" d="M2555.56 1859.6 L2560.45 1859.6 L2560.45 1865.48 L2555.56 1865.48 L2555.56 1859.6 Z" fill="#000000" fill-rule="evenodd" fill-opacity="1" /><path clip-path="url(#clip230)" d="M2580.63 1834 Q2577.02 1834 2575.19 1837.57 Q2573.39 1841.11 2573.39 1848.24 Q2573.39 1855.34 2575.19 1858.91 Q2577.02 1862.45 2580.63 1862.45 Q2584.26 1862.45 2586.07 1858.91 Q2587.9 1855.34 2587.9 1848.24 Q2587.9 1841.11 2586.07 1837.57 Q2584.26 1834 2580.63 1834 M2580.63 1830.3 Q2586.44 1830.3 2589.5 1834.9 Q2592.58 1839.49 2592.58 1848.24 Q2592.58 1856.96 2589.5 1861.57 Q2586.44 1866.15 2580.63 1866.15 Q2574.82 1866.15 2571.74 1861.57 Q2568.69 1856.96 2568.69 1848.24 Q2568.69 1839.49 2571.74 1834.9 Q2574.82 1830.3 2580.63 1830.3 Z" fill="#000000" fill-rule="evenodd" fill-opacity="1" /><path clip-path="url(#clip230)" d="M2610.79 1834 Q2607.18 1834 2605.35 1837.57 Q2603.55 1841.11 2603.55 1848.24 Q2603.55 1855.34 2605.35 1858.91 Q2607.18 1862.45 2610.79 1862.45 Q2614.43 1862.45 2616.23 1858.91 Q2618.06 1855.34 2618.06 1848.24 Q2618.06 1841.11 2616.23 1837.57 Q2614.43 1834 2610.79 1834 M2610.79 1830.3 Q2616.6 1830.3 2619.66 1834.9 Q2622.74 1839.49 2622.74 1848.24 Q2622.74 1856.96 2619.66 1861.57 Q2616.6 1866.15 2610.79 1866.15 Q2604.98 1866.15 2601.9 1861.57 Q2598.85 1856.96 2598.85 1848.24 Q2598.85 1839.49 2601.9 1834.9 Q2604.98 1830.3 2610.79 1830.3 Z" fill="#000000" fill-rule="evenodd" fill-opacity="1" /><polyline clip-path="url(#clip232)" style="stroke:#000000; stroke-linecap:butt; stroke-linejoin:round; stroke-width:2; stroke-opacity:0.1; fill:none" points="
  189.154,1754.72 2640.76,1754.72 
  "/>
<polyline clip-path="url(#clip232)" style="stroke:#000000; stroke-linecap:butt; stroke-linejoin:round; stroke-width:2; stroke-opacity:0.1; fill:none" points="
  189.154,1339.06 2640.76,1339.06 
  "/>
<polyline clip-path="url(#clip232)" style="stroke:#000000; stroke-linecap:butt; stroke-linejoin:round; stroke-width:2; stroke-opacity:0.1; fill:none" points="
  189.154,923.396 2640.76,923.396 
  "/>
<polyline clip-path="url(#clip232)" style="stroke:#000000; stroke-linecap:butt; stroke-linejoin:round; stroke-width:2; stroke-opacity:0.1; fill:none" points="
  189.154,507.732 2640.76,507.732 
  "/>
<polyline clip-path="url(#clip232)" style="stroke:#000000; stroke-linecap:butt; stroke-linejoin:round; stroke-width:2; stroke-opacity:0.1; fill:none" points="
  189.154,92.0685 2640.76,92.0685 
  "/>
<polyline clip-path="url(#clip230)" style="stroke:#000000; stroke-linecap:butt; stroke-linejoin:round; stroke-width:4; stroke-opacity:1; fill:none" points="
  189.154,1800.78 189.154,47.2441 
  "/>
<polyline clip-path="url(#clip230)" style="stroke:#000000; stroke-linecap:butt; stroke-linejoin:round; stroke-width:4; stroke-opacity:1; fill:none" points="
  189.154,1754.72 208.052,1754.72 
  "/>
<polyline clip-path="url(#clip230)" style="stroke:#000000; stroke-linecap:butt; stroke-linejoin:round; stroke-width:4; stroke-opacity:1; fill:none" points="
  189.154,1339.06 208.052,1339.06 
  "/>
<polyline clip-path="url(#clip230)" style="stroke:#000000; stroke-linecap:butt; stroke-linejoin:round; stroke-width:4; stroke-opacity:1; fill:none" points="
  189.154,923.396 208.052,923.396 
  "/>
<polyline clip-path="url(#clip230)" style="stroke:#000000; stroke-linecap:butt; stroke-linejoin:round; stroke-width:4; stroke-opacity:1; fill:none" points="
  189.154,507.732 208.052,507.732 
  "/>
<polyline clip-path="url(#clip230)" style="stroke:#000000; stroke-linecap:butt; stroke-linejoin:round; stroke-width:4; stroke-opacity:1; fill:none" points="
  189.154,92.0685 208.052,92.0685 
  "/>
<path clip-path="url(#clip230)" d="M61.4965 1740.52 Q57.8854 1740.52 56.0567 1744.09 Q54.2512 1747.63 54.2512 1754.76 Q54.2512 1761.86 56.0567 1765.43 Q57.8854 1768.97 61.4965 1768.97 Q65.1307 1768.97 66.9363 1765.43 Q68.765 1761.86 68.765 1754.76 Q68.765 1747.63 66.9363 1744.09 Q65.1307 1740.52 61.4965 1740.52 M61.4965 1736.82 Q67.3067 1736.82 70.3622 1741.42 Q73.4409 1746.01 73.4409 1754.76 Q73.4409 1763.48 70.3622 1768.09 Q67.3067 1772.67 61.4965 1772.67 Q55.6864 1772.67 52.6077 1768.09 Q49.5521 1763.48 49.5521 1754.76 Q49.5521 1746.01 52.6077 1741.42 Q55.6864 1736.82 61.4965 1736.82 Z" fill="#000000" fill-rule="evenodd" fill-opacity="1" /><path clip-path="url(#clip230)" d="M81.6584 1766.12 L86.5427 1766.12 L86.5427 1772 L81.6584 1772 L81.6584 1766.12 Z" fill="#000000" fill-rule="evenodd" fill-opacity="1" /><path clip-path="url(#clip230)" d="M106.728 1740.52 Q103.117 1740.52 101.288 1744.09 Q99.4824 1747.63 99.4824 1754.76 Q99.4824 1761.86 101.288 1765.43 Q103.117 1768.97 106.728 1768.97 Q110.362 1768.97 112.168 1765.43 Q113.996 1761.86 113.996 1754.76 Q113.996 1747.63 112.168 1744.09 Q110.362 1740.52 106.728 1740.52 M106.728 1736.82 Q112.538 1736.82 115.593 1741.42 Q118.672 1746.01 118.672 1754.76 Q118.672 1763.48 115.593 1768.09 Q112.538 1772.67 106.728 1772.67 Q100.918 1772.67 97.8389 1768.09 Q94.7834 1763.48 94.7834 1754.76 Q94.7834 1746.01 97.8389 1741.42 Q100.918 1736.82 106.728 1736.82 Z" fill="#000000" fill-rule="evenodd" fill-opacity="1" /><path clip-path="url(#clip230)" d="M136.89 1740.52 Q133.279 1740.52 131.45 1744.09 Q129.644 1747.63 129.644 1754.76 Q129.644 1761.86 131.45 1765.43 Q133.279 1768.97 136.89 1768.97 Q140.524 1768.97 142.329 1765.43 Q144.158 1761.86 144.158 1754.76 Q144.158 1747.63 142.329 1744.09 Q140.524 1740.52 136.89 1740.52 M136.89 1736.82 Q142.7 1736.82 145.755 1741.42 Q148.834 1746.01 148.834 1754.76 Q148.834 1763.48 145.755 1768.09 Q142.7 1772.67 136.89 1772.67 Q131.079 1772.67 128.001 1768.09 Q124.945 1763.48 124.945 1754.76 Q124.945 1746.01 128.001 1741.42 Q131.079 1736.82 136.89 1736.82 Z" fill="#000000" fill-rule="evenodd" fill-opacity="1" /><path clip-path="url(#clip230)" d="M62.4919 1324.86 Q58.8808 1324.86 57.0521 1328.42 Q55.2465 1331.96 55.2465 1339.09 Q55.2465 1346.2 57.0521 1349.77 Q58.8808 1353.31 62.4919 1353.31 Q66.1261 1353.31 67.9317 1349.77 Q69.7604 1346.2 69.7604 1339.09 Q69.7604 1331.96 67.9317 1328.42 Q66.1261 1324.86 62.4919 1324.86 M62.4919 1321.15 Q68.302 1321.15 71.3576 1325.76 Q74.4363 1330.34 74.4363 1339.09 Q74.4363 1347.82 71.3576 1352.43 Q68.302 1357.01 62.4919 1357.01 Q56.6817 1357.01 53.603 1352.43 Q50.5475 1347.82 50.5475 1339.09 Q50.5475 1330.34 53.603 1325.76 Q56.6817 1321.15 62.4919 1321.15 Z" fill="#000000" fill-rule="evenodd" fill-opacity="1" /><path clip-path="url(#clip230)" d="M82.6538 1350.46 L87.538 1350.46 L87.538 1356.34 L82.6538 1356.34 L82.6538 1350.46 Z" fill="#000000" fill-rule="evenodd" fill-opacity="1" /><path clip-path="url(#clip230)" d="M101.751 1352.4 L118.07 1352.4 L118.07 1356.34 L96.126 1356.34 L96.126 1352.4 Q98.788 1349.65 103.371 1345.02 Q107.978 1340.37 109.158 1339.02 Q111.404 1336.5 112.283 1334.77 Q113.186 1333.01 113.186 1331.32 Q113.186 1328.56 111.242 1326.83 Q109.32 1325.09 106.218 1325.09 Q104.019 1325.09 101.566 1325.85 Q99.1352 1326.62 96.3574 1328.17 L96.3574 1323.45 Q99.1815 1322.31 101.635 1321.73 Q104.089 1321.15 106.126 1321.15 Q111.496 1321.15 114.691 1323.84 Q117.885 1326.52 117.885 1331.02 Q117.885 1333.14 117.075 1335.07 Q116.288 1336.96 114.181 1339.56 Q113.603 1340.23 110.501 1343.45 Q107.399 1346.64 101.751 1352.4 Z" fill="#000000" fill-rule="evenodd" fill-opacity="1" /><path clip-path="url(#clip230)" d="M127.931 1321.78 L146.288 1321.78 L146.288 1325.71 L132.214 1325.71 L132.214 1334.19 Q133.232 1333.84 134.251 1333.68 Q135.269 1333.49 136.288 1333.49 Q142.075 1333.49 145.454 1336.66 Q148.834 1339.83 148.834 1345.25 Q148.834 1350.83 145.362 1353.93 Q141.89 1357.01 135.57 1357.01 Q133.394 1357.01 131.126 1356.64 Q128.88 1356.27 126.473 1355.53 L126.473 1350.83 Q128.556 1351.96 130.779 1352.52 Q133.001 1353.08 135.478 1353.08 Q139.482 1353.08 141.82 1350.97 Q144.158 1348.86 144.158 1345.25 Q144.158 1341.64 141.82 1339.53 Q139.482 1337.43 135.478 1337.43 Q133.603 1337.43 131.728 1337.84 Q129.876 1338.26 127.931 1339.14 L127.931 1321.78 Z" fill="#000000" fill-rule="evenodd" fill-opacity="1" /><path clip-path="url(#clip230)" d="M61.4965 909.194 Q57.8854 909.194 56.0567 912.759 Q54.2512 916.301 54.2512 923.43 Q54.2512 930.537 56.0567 934.102 Q57.8854 937.643 61.4965 937.643 Q65.1307 937.643 66.9363 934.102 Q68.765 930.537 68.765 923.43 Q68.765 916.301 66.9363 912.759 Q65.1307 909.194 61.4965 909.194 M61.4965 905.491 Q67.3067 905.491 70.3622 910.097 Q73.4409 914.68 73.4409 923.43 Q73.4409 932.157 70.3622 936.764 Q67.3067 941.347 61.4965 941.347 Q55.6864 941.347 52.6077 936.764 Q49.5521 932.157 49.5521 923.43 Q49.5521 914.68 52.6077 910.097 Q55.6864 905.491 61.4965 905.491 Z" fill="#000000" fill-rule="evenodd" fill-opacity="1" /><path clip-path="url(#clip230)" d="M81.6584 934.796 L86.5427 934.796 L86.5427 940.676 L81.6584 940.676 L81.6584 934.796 Z" fill="#000000" fill-rule="evenodd" fill-opacity="1" /><path clip-path="url(#clip230)" d="M96.7741 906.116 L115.13 906.116 L115.13 910.051 L101.056 910.051 L101.056 918.523 Q102.075 918.176 103.094 918.014 Q104.112 917.829 105.131 917.829 Q110.918 917.829 114.297 921 Q117.677 924.171 117.677 929.588 Q117.677 935.166 114.205 938.268 Q110.732 941.347 104.413 941.347 Q102.237 941.347 99.9685 940.977 Q97.7232 940.606 95.3158 939.866 L95.3158 935.166 Q97.3991 936.301 99.6213 936.856 Q101.844 937.412 104.32 937.412 Q108.325 937.412 110.663 935.305 Q113.001 933.199 113.001 929.588 Q113.001 925.977 110.663 923.87 Q108.325 921.764 104.32 921.764 Q102.445 921.764 100.57 922.18 Q98.7185 922.597 96.7741 923.477 L96.7741 906.116 Z" fill="#000000" fill-rule="evenodd" fill-opacity="1" /><path clip-path="url(#clip230)" d="M136.89 909.194 Q133.279 909.194 131.45 912.759 Q129.644 916.301 129.644 923.43 Q129.644 930.537 131.45 934.102 Q133.279 937.643 136.89 937.643 Q140.524 937.643 142.329 934.102 Q144.158 930.537 144.158 923.43 Q144.158 916.301 142.329 912.759 Q140.524 909.194 136.89 909.194 M136.89 905.491 Q142.7 905.491 145.755 910.097 Q148.834 914.68 148.834 923.43 Q148.834 932.157 145.755 936.764 Q142.7 941.347 136.89 941.347 Q131.079 941.347 128.001 936.764 Q124.945 932.157 124.945 923.43 Q124.945 914.68 128.001 910.097 Q131.079 905.491 136.89 905.491 Z" fill="#000000" fill-rule="evenodd" fill-opacity="1" /><path clip-path="url(#clip230)" d="M62.4919 493.531 Q58.8808 493.531 57.0521 497.096 Q55.2465 500.637 55.2465 507.767 Q55.2465 514.873 57.0521 518.438 Q58.8808 521.98 62.4919 521.98 Q66.1261 521.98 67.9317 518.438 Q69.7604 514.873 69.7604 507.767 Q69.7604 500.637 67.9317 497.096 Q66.1261 493.531 62.4919 493.531 M62.4919 489.827 Q68.302 489.827 71.3576 494.434 Q74.4363 499.017 74.4363 507.767 Q74.4363 516.494 71.3576 521.1 Q68.302 525.683 62.4919 525.683 Q56.6817 525.683 53.603 521.1 Q50.5475 516.494 50.5475 507.767 Q50.5475 499.017 53.603 494.434 Q56.6817 489.827 62.4919 489.827 Z" fill="#000000" fill-rule="evenodd" fill-opacity="1" /><path clip-path="url(#clip230)" d="M82.6538 519.132 L87.538 519.132 L87.538 525.012 L82.6538 525.012 L82.6538 519.132 Z" fill="#000000" fill-rule="evenodd" fill-opacity="1" /><path clip-path="url(#clip230)" d="M96.5426 490.452 L118.765 490.452 L118.765 492.443 L106.218 525.012 L101.334 525.012 L113.14 494.387 L96.5426 494.387 L96.5426 490.452 Z" fill="#000000" fill-rule="evenodd" fill-opacity="1" /><path clip-path="url(#clip230)" d="M127.931 490.452 L146.288 490.452 L146.288 494.387 L132.214 494.387 L132.214 502.859 Q133.232 502.512 134.251 502.35 Q135.269 502.165 136.288 502.165 Q142.075 502.165 145.454 505.336 Q148.834 508.508 148.834 513.924 Q148.834 519.503 145.362 522.605 Q141.89 525.683 135.57 525.683 Q133.394 525.683 131.126 525.313 Q128.88 524.943 126.473 524.202 L126.473 519.503 Q128.556 520.637 130.779 521.193 Q133.001 521.748 135.478 521.748 Q139.482 521.748 141.82 519.642 Q144.158 517.535 144.158 513.924 Q144.158 510.313 141.82 508.207 Q139.482 506.1 135.478 506.1 Q133.603 506.1 131.728 506.517 Q129.876 506.933 127.931 507.813 L127.931 490.452 Z" fill="#000000" fill-rule="evenodd" fill-opacity="1" /><path clip-path="url(#clip230)" d="M52.3067 105.413 L59.9456 105.413 L59.9456 79.0477 L51.6354 80.7144 L51.6354 76.4552 L59.8993 74.7885 L64.5752 74.7885 L64.5752 105.413 L72.214 105.413 L72.214 109.348 L52.3067 109.348 L52.3067 105.413 Z" fill="#000000" fill-rule="evenodd" fill-opacity="1" /><path clip-path="url(#clip230)" d="M81.6584 103.469 L86.5427 103.469 L86.5427 109.348 L81.6584 109.348 L81.6584 103.469 Z" fill="#000000" fill-rule="evenodd" fill-opacity="1" /><path clip-path="url(#clip230)" d="M106.728 77.8672 Q103.117 77.8672 101.288 81.432 Q99.4824 84.9736 99.4824 92.1032 Q99.4824 99.2097 101.288 102.774 Q103.117 106.316 106.728 106.316 Q110.362 106.316 112.168 102.774 Q113.996 99.2097 113.996 92.1032 Q113.996 84.9736 112.168 81.432 Q110.362 77.8672 106.728 77.8672 M106.728 74.1635 Q112.538 74.1635 115.593 78.77 Q118.672 83.3533 118.672 92.1032 Q118.672 100.83 115.593 105.436 Q112.538 110.02 106.728 110.02 Q100.918 110.02 97.8389 105.436 Q94.7834 100.83 94.7834 92.1032 Q94.7834 83.3533 97.8389 78.77 Q100.918 74.1635 106.728 74.1635 Z" fill="#000000" fill-rule="evenodd" fill-opacity="1" /><path clip-path="url(#clip230)" d="M136.89 77.8672 Q133.279 77.8672 131.45 81.432 Q129.644 84.9736 129.644 92.1032 Q129.644 99.2097 131.45 102.774 Q133.279 106.316 136.89 106.316 Q140.524 106.316 142.329 102.774 Q144.158 99.2097 144.158 92.1032 Q144.158 84.9736 142.329 81.432 Q140.524 77.8672 136.89 77.8672 M136.89 74.1635 Q142.7 74.1635 145.755 78.77 Q148.834 83.3533 148.834 92.1032 Q148.834 100.83 145.755 105.436 Q142.7 110.02 136.89 110.02 Q131.079 110.02 128.001 105.436 Q124.945 100.83 124.945 92.1032 Q124.945 83.3533 128.001 78.77 Q131.079 74.1635 136.89 74.1635 Z" fill="#000000" fill-rule="evenodd" fill-opacity="1" /><polyline clip-path="url(#clip232)" style="stroke:#009af9; stroke-linecap:butt; stroke-linejoin:round; stroke-width:4; stroke-opacity:1; fill:none" points="
  2554.4,302.879 674.386,1396.01 1291.54,501.583 489.918,113.395 2113.51,555.291 730.474,1076.08 739.707,829.277 1820.61,687.388 2493.41,1595.76 682.407,305.227 
  599.12,1024.46 891.774,1620.47 541.242,982.361 1620.71,1097.54 832.662,572.493 1337.96,797.075 807.937,1027.97 258.539,229.358 964.215,1034.62 677.906,1605.82 
  2344.47,1442.13 1983.18,1261.82 1134.98,1360.22 405.851,1224.07 1583.01,138.748 932.792,958.922 972.391,630.593 546.392,1330.63 2571.37,247.252 2561.75,1080.96 
  1103.89,118.306 745.702,1662.01 1594.96,1642.85 604.924,932.304 294.774,1684.35 1873.13,1742.27 1314.69,613.822 1079.29,528.017 938.831,862.694 2432.09,1254.32 
  1924.98,1131.93 612.854,1116.12 1695.97,1540.94 1253.16,1698.9 1440.07,1667.82 842.805,338.152 1753.98,573.461 1942.22,963.955 1373.91,1381.32 2132.46,1706 
  2540.46,1198.46 1613.06,1127.59 2320.22,890.747 262.936,911.431 2110.89,360.974 2529.5,1071.59 2433.26,1700.44 1697.65,1305.87 666.337,1371.64 384.753,321.261 
  1711.36,697.132 563.221,935.743 293.605,296.015 2249.98,986.202 1967.2,1248.27 1589.87,302.605 2561.32,613.145 1306.21,1179.87 883.109,96.8724 1751.69,1678.32 
  885.858,1076.71 532.667,1751.15 2496.52,115.595 1402.67,1259.6 586.307,1499.98 969.802,634.235 299.317,1662.85 783.93,1151.7 2050.48,148.899 2217.18,978.521 
  1218.14,726.783 1700.87,1232.21 1707.87,1507.5 1946.9,518.611 2288.09,552.757 2542.12,406.928 617.568,640.59 1697.13,1562.33 538.943,1301.4 1896.74,112.209 
  299.5,1398.42 1207.71,693.444 287.755,1565.98 1370.1,1219.59 1607.42,261.667 1177.28,807.198 1237.06,1301.28 1084.71,1493.95 499.581,658.756 2079.73,1491.62 
  
  "/>
<path clip-path="url(#clip230)" d="
M2261.45 1742.33 L2559.04 1742.33 L2559.04 1638.65 L2261.45 1638.65  Z
  " fill="#ffffff" fill-rule="evenodd" fill-opacity="1"/>
<polyline clip-path="url(#clip230)" style="stroke:#000000; stroke-linecap:butt; stroke-linejoin:round; stroke-width:4; stroke-opacity:1; fill:none" points="
  2261.45,1742.33 2559.04,1742.33 2559.04,1638.65 2261.45,1638.65 2261.45,1742.33 
  "/>
<polyline clip-path="url(#clip230)" style="stroke:#009af9; stroke-linecap:butt; stroke-linejoin:round; stroke-width:4; stroke-opacity:1; fill:none" points="
  2288.69,1690.49 2452.13,1690.49 
  "/>
<path clip-path="url(#clip230)" d="M2493.21 1710.18 Q2491.4 1714.81 2489.69 1716.22 Q2487.98 1717.63 2485.11 1717.63 L2481.7 1717.63 L2481.7 1714.06 L2484.2 1714.06 Q2485.96 1714.06 2486.93 1713.23 Q2487.91 1712.4 2489.09 1709.3 L2489.85 1707.35 L2479.37 1681.84 L2483.88 1681.84 L2491.98 1702.12 L2500.08 1681.84 L2504.6 1681.84 L2493.21 1710.18 Z" fill="#000000" fill-rule="evenodd" fill-opacity="1" /><path clip-path="url(#clip230)" d="M2511.89 1703.83 L2519.53 1703.83 L2519.53 1677.47 L2511.22 1679.13 L2511.22 1674.87 L2519.48 1673.21 L2524.16 1673.21 L2524.16 1703.83 L2531.8 1703.83 L2531.8 1707.77 L2511.89 1707.77 L2511.89 1703.83 Z" fill="#000000" fill-rule="evenodd" fill-opacity="1" /></svg>
