<?xml version="1.0" encoding="utf-8"?>
<svg xmlns="http://www.w3.org/2000/svg" xmlns:xlink="http://www.w3.org/1999/xlink" width="672" height="480" viewBox="0 0 2688 1920">
<defs>
  <clipPath id="clip080">
    <rect x="0" y="0" width="2688" height="1920"/>
  </clipPath>
</defs>
<path clip-path="url(#clip080)" d="
M0 1920 L2688 1920 L2688 0 L0 0  Z
  " fill="#ffffff" fill-rule="evenodd" fill-opacity="1"/>
<defs>
  <clipPath id="clip081">
    <rect x="537" y="0" width="1883" height="1883"/>
  </clipPath>
</defs>
<path clip-path="url(#clip080)" d="
M189.154 1800.78 L2640.76 1800.78 L2640.76 47.2441 L189.154 47.2441  Z
  " fill="#ffffff" fill-rule="evenodd" fill-opacity="1"/>
<defs>
  <clipPath id="clip082">
    <rect x="189" y="47" width="2453" height="1755"/>
  </clipPath>
</defs>
<polyline clip-path="url(#clip082)" style="stroke:#000000; stroke-linecap:butt; stroke-linejoin:round; stroke-width:2; stroke-opacity:0.1; fill:none" points="
  207.512,1800.78 207.512,47.2441 
  "/>
<polyline clip-path="url(#clip082)" style="stroke:#000000; stroke-linecap:butt; stroke-linejoin:round; stroke-width:2; stroke-opacity:0.1; fill:none" points="
  799.032,1800.78 799.032,47.2441 
  "/>
<polyline clip-path="url(#clip082)" style="stroke:#000000; stroke-linecap:butt; stroke-linejoin:round; stroke-width:2; stroke-opacity:0.1; fill:none" points="
  1390.55,1800.78 1390.55,47.2441 
  "/>
<polyline clip-path="url(#clip082)" style="stroke:#000000; stroke-linecap:butt; stroke-linejoin:round; stroke-width:2; stroke-opacity:0.1; fill:none" points="
  1982.07,1800.78 1982.07,47.2441 
  "/>
<polyline clip-path="url(#clip082)" style="stroke:#000000; stroke-linecap:butt; stroke-linejoin:round; stroke-width:2; stroke-opacity:0.1; fill:none" points="
  2573.59,1800.78 2573.59,47.2441 
  "/>
<polyline clip-path="url(#clip080)" style="stroke:#000000; stroke-linecap:butt; stroke-linejoin:round; stroke-width:4; stroke-opacity:1; fill:none" points="
  189.154,1800.78 2640.76,1800.78 
  "/>
<polyline clip-path="url(#clip080)" style="stroke:#000000; stroke-linecap:butt; stroke-linejoin:round; stroke-width:4; stroke-opacity:1; fill:none" points="
  207.512,1800.78 207.512,1781.88 
  "/>
<polyline clip-path="url(#clip080)" style="stroke:#000000; stroke-linecap:butt; stroke-linejoin:round; stroke-width:4; stroke-opacity:1; fill:none" points="
  799.032,1800.78 799.032,1781.88 
  "/>
<polyline clip-path="url(#clip080)" style="stroke:#000000; stroke-linecap:butt; stroke-linejoin:round; stroke-width:4; stroke-opacity:1; fill:none" points="
  1390.55,1800.78 1390.55,1781.88 
  "/>
<polyline clip-path="url(#clip080)" style="stroke:#000000; stroke-linecap:butt; stroke-linejoin:round; stroke-width:4; stroke-opacity:1; fill:none" points="
  1982.07,1800.78 1982.07,1781.88 
  "/>
<polyline clip-path="url(#clip080)" style="stroke:#000000; stroke-linecap:butt; stroke-linejoin:round; stroke-width:4; stroke-opacity:1; fill:none" points="
  2573.59,1800.78 2573.59,1781.88 
  "/>
<path clip-path="url(#clip080)" d="M169.815 1834 Q166.204 1834 164.375 1837.57 Q162.57 1841.11 162.57 1848.24 Q162.57 1855.34 164.375 1858.91 Q166.204 1862.45 169.815 1862.45 Q173.449 1862.45 175.255 1858.91 Q177.083 1855.34 177.083 1848.24 Q177.083 1841.11 175.255 1837.57 Q173.449 1834 169.815 1834 M169.815 1830.3 Q175.625 1830.3 178.681 1834.9 Q181.759 1839.49 181.759 1848.24 Q181.759 1856.96 178.681 1861.57 Q175.625 1866.15 169.815 1866.15 Q164.005 1866.15 160.926 1861.57 Q157.871 1856.96 157.871 1848.24 Q157.871 1839.49 160.926 1834.9 Q164.005 1830.3 169.815 1830.3 Z" fill="#000000" fill-rule="evenodd" fill-opacity="1" /><path clip-path="url(#clip080)" d="M189.977 1859.6 L194.861 1859.6 L194.861 1865.48 L189.977 1865.48 L189.977 1859.6 Z" fill="#000000" fill-rule="evenodd" fill-opacity="1" /><path clip-path="url(#clip080)" d="M215.046 1834 Q211.435 1834 209.606 1837.57 Q207.801 1841.11 207.801 1848.24 Q207.801 1855.34 209.606 1858.91 Q211.435 1862.45 215.046 1862.45 Q218.68 1862.45 220.486 1858.91 Q222.315 1855.34 222.315 1848.24 Q222.315 1841.11 220.486 1837.57 Q218.68 1834 215.046 1834 M215.046 1830.3 Q220.856 1830.3 223.912 1834.9 Q226.991 1839.49 226.991 1848.24 Q226.991 1856.96 223.912 1861.57 Q220.856 1866.15 215.046 1866.15 Q209.236 1866.15 206.157 1861.57 Q203.102 1856.96 203.102 1848.24 Q203.102 1839.49 206.157 1834.9 Q209.236 1830.3 215.046 1830.3 Z" fill="#000000" fill-rule="evenodd" fill-opacity="1" /><path clip-path="url(#clip080)" d="M245.208 1834 Q241.597 1834 239.768 1837.57 Q237.963 1841.11 237.963 1848.24 Q237.963 1855.34 239.768 1858.91 Q241.597 1862.45 245.208 1862.45 Q248.842 1862.45 250.648 1858.91 Q252.477 1855.34 252.477 1848.24 Q252.477 1841.11 250.648 1837.57 Q248.842 1834 245.208 1834 M245.208 1830.3 Q251.018 1830.3 254.074 1834.9 Q257.152 1839.49 257.152 1848.24 Q257.152 1856.96 254.074 1861.57 Q251.018 1866.15 245.208 1866.15 Q239.398 1866.15 236.319 1861.57 Q233.264 1856.96 233.264 1848.24 Q233.264 1839.49 236.319 1834.9 Q239.398 1830.3 245.208 1830.3 Z" fill="#000000" fill-rule="evenodd" fill-opacity="1" /><path clip-path="url(#clip080)" d="M761.833 1834 Q758.222 1834 756.393 1837.57 Q754.588 1841.11 754.588 1848.24 Q754.588 1855.34 756.393 1858.91 Q758.222 1862.45 761.833 1862.45 Q765.468 1862.45 767.273 1858.91 Q769.102 1855.34 769.102 1848.24 Q769.102 1841.11 767.273 1837.57 Q765.468 1834 761.833 1834 M761.833 1830.3 Q767.643 1830.3 770.699 1834.9 Q773.778 1839.49 773.778 1848.24 Q773.778 1856.96 770.699 1861.57 Q767.643 1866.15 761.833 1866.15 Q756.023 1866.15 752.944 1861.57 Q749.889 1856.96 749.889 1848.24 Q749.889 1839.49 752.944 1834.9 Q756.023 1830.3 761.833 1830.3 Z" fill="#000000" fill-rule="evenodd" fill-opacity="1" /><path clip-path="url(#clip080)" d="M781.995 1859.6 L786.879 1859.6 L786.879 1865.48 L781.995 1865.48 L781.995 1859.6 Z" fill="#000000" fill-rule="evenodd" fill-opacity="1" /><path clip-path="url(#clip080)" d="M801.092 1861.55 L817.412 1861.55 L817.412 1865.48 L795.467 1865.48 L795.467 1861.55 Q798.129 1858.79 802.713 1854.16 Q807.319 1849.51 808.5 1848.17 Q810.745 1845.65 811.625 1843.91 Q812.527 1842.15 812.527 1840.46 Q812.527 1837.71 810.583 1835.97 Q808.662 1834.23 805.56 1834.23 Q803.361 1834.23 800.907 1835 Q798.477 1835.76 795.699 1837.31 L795.699 1832.59 Q798.523 1831.46 800.977 1830.88 Q803.43 1830.3 805.467 1830.3 Q810.838 1830.3 814.032 1832.98 Q817.226 1835.67 817.226 1840.16 Q817.226 1842.29 816.416 1844.21 Q815.629 1846.11 813.523 1848.7 Q812.944 1849.37 809.842 1852.59 Q806.74 1855.78 801.092 1861.55 Z" fill="#000000" fill-rule="evenodd" fill-opacity="1" /><path clip-path="url(#clip080)" d="M827.273 1830.92 L845.629 1830.92 L845.629 1834.86 L831.555 1834.86 L831.555 1843.33 Q832.574 1842.98 833.592 1842.82 Q834.611 1842.64 835.629 1842.64 Q841.416 1842.64 844.796 1845.81 Q848.175 1848.98 848.175 1854.4 Q848.175 1859.97 844.703 1863.08 Q841.231 1866.15 834.912 1866.15 Q832.736 1866.15 830.467 1865.78 Q828.222 1865.41 825.814 1864.67 L825.814 1859.97 Q827.898 1861.11 830.12 1861.66 Q832.342 1862.22 834.819 1862.22 Q838.824 1862.22 841.162 1860.11 Q843.499 1858.01 843.499 1854.4 Q843.499 1850.78 841.162 1848.68 Q838.824 1846.57 834.819 1846.57 Q832.944 1846.57 831.069 1846.99 Q829.217 1847.4 827.273 1848.28 L827.273 1830.92 Z" fill="#000000" fill-rule="evenodd" fill-opacity="1" /><path clip-path="url(#clip080)" d="M1352.86 1834 Q1349.25 1834 1347.42 1837.57 Q1345.61 1841.11 1345.61 1848.24 Q1345.61 1855.34 1347.42 1858.91 Q1349.25 1862.45 1352.86 1862.45 Q1356.49 1862.45 1358.3 1858.91 Q1360.12 1855.34 1360.12 1848.24 Q1360.12 1841.11 1358.3 1837.57 Q1356.49 1834 1352.86 1834 M1352.86 1830.3 Q1358.67 1830.3 1361.72 1834.9 Q1364.8 1839.49 1364.8 1848.24 Q1364.8 1856.96 1361.72 1861.57 Q1358.67 1866.15 1352.86 1866.15 Q1347.05 1866.15 1343.97 1861.57 Q1340.91 1856.96 1340.91 1848.24 Q1340.91 1839.49 1343.97 1834.9 Q1347.05 1830.3 1352.86 1830.3 Z" fill="#000000" fill-rule="evenodd" fill-opacity="1" /><path clip-path="url(#clip080)" d="M1373.02 1859.6 L1377.9 1859.6 L1377.9 1865.48 L1373.02 1865.48 L1373.02 1859.6 Z" fill="#000000" fill-rule="evenodd" fill-opacity="1" /><path clip-path="url(#clip080)" d="M1388.13 1830.92 L1406.49 1830.92 L1406.49 1834.86 L1392.42 1834.86 L1392.42 1843.33 Q1393.43 1842.98 1394.45 1842.82 Q1395.47 1842.64 1396.49 1842.64 Q1402.28 1842.64 1405.66 1845.81 Q1409.04 1848.98 1409.04 1854.4 Q1409.04 1859.97 1405.56 1863.08 Q1402.09 1866.15 1395.77 1866.15 Q1393.6 1866.15 1391.33 1865.78 Q1389.08 1865.41 1386.68 1864.67 L1386.68 1859.97 Q1388.76 1861.11 1390.98 1861.66 Q1393.2 1862.22 1395.68 1862.22 Q1399.68 1862.22 1402.02 1860.11 Q1404.36 1858.01 1404.36 1854.4 Q1404.36 1850.78 1402.02 1848.68 Q1399.68 1846.57 1395.68 1846.57 Q1393.81 1846.57 1391.93 1846.99 Q1390.08 1847.4 1388.13 1848.28 L1388.13 1830.92 Z" fill="#000000" fill-rule="evenodd" fill-opacity="1" /><path clip-path="url(#clip080)" d="M1428.25 1834 Q1424.64 1834 1422.81 1837.57 Q1421 1841.11 1421 1848.24 Q1421 1855.34 1422.81 1858.91 Q1424.64 1862.45 1428.25 1862.45 Q1431.88 1862.45 1433.69 1858.91 Q1435.52 1855.34 1435.52 1848.24 Q1435.52 1841.11 1433.69 1837.57 Q1431.88 1834 1428.25 1834 M1428.25 1830.3 Q1434.06 1830.3 1437.12 1834.9 Q1440.19 1839.49 1440.19 1848.24 Q1440.19 1856.96 1437.12 1861.57 Q1434.06 1866.15 1428.25 1866.15 Q1422.44 1866.15 1419.36 1861.57 Q1416.3 1856.96 1416.3 1848.24 Q1416.3 1839.49 1419.36 1834.9 Q1422.44 1830.3 1428.25 1830.3 Z" fill="#000000" fill-rule="evenodd" fill-opacity="1" /><path clip-path="url(#clip080)" d="M1944.87 1834 Q1941.26 1834 1939.43 1837.57 Q1937.63 1841.11 1937.63 1848.24 Q1937.63 1855.34 1939.43 1858.91 Q1941.26 1862.45 1944.87 1862.45 Q1948.51 1862.45 1950.31 1858.91 Q1952.14 1855.34 1952.14 1848.24 Q1952.14 1841.11 1950.31 1837.57 Q1948.51 1834 1944.87 1834 M1944.87 1830.3 Q1950.68 1830.3 1953.74 1834.9 Q1956.82 1839.49 1956.82 1848.24 Q1956.82 1856.96 1953.74 1861.57 Q1950.68 1866.15 1944.87 1866.15 Q1939.06 1866.15 1935.99 1861.57 Q1932.93 1856.96 1932.93 1848.24 Q1932.93 1839.49 1935.99 1834.9 Q1939.06 1830.3 1944.87 1830.3 Z" fill="#000000" fill-rule="evenodd" fill-opacity="1" /><path clip-path="url(#clip080)" d="M1965.04 1859.6 L1969.92 1859.6 L1969.92 1865.48 L1965.04 1865.48 L1965.04 1859.6 Z" fill="#000000" fill-rule="evenodd" fill-opacity="1" /><path clip-path="url(#clip080)" d="M1978.93 1830.92 L2001.15 1830.92 L2001.15 1832.91 L1988.6 1865.48 L1983.72 1865.48 L1995.52 1834.86 L1978.93 1834.86 L1978.93 1830.92 Z" fill="#000000" fill-rule="evenodd" fill-opacity="1" /><path clip-path="url(#clip080)" d="M2010.31 1830.92 L2028.67 1830.92 L2028.67 1834.86 L2014.6 1834.86 L2014.6 1843.33 Q2015.61 1842.98 2016.63 1842.82 Q2017.65 1842.64 2018.67 1842.64 Q2024.46 1842.64 2027.84 1845.81 Q2031.22 1848.98 2031.22 1854.4 Q2031.22 1859.97 2027.74 1863.08 Q2024.27 1866.15 2017.95 1866.15 Q2015.78 1866.15 2013.51 1865.78 Q2011.26 1865.41 2008.86 1864.67 L2008.86 1859.97 Q2010.94 1861.11 2013.16 1861.66 Q2015.38 1862.22 2017.86 1862.22 Q2021.86 1862.22 2024.2 1860.11 Q2026.54 1858.01 2026.54 1854.4 Q2026.54 1850.78 2024.2 1848.68 Q2021.86 1846.57 2017.86 1846.57 Q2015.99 1846.57 2014.11 1846.99 Q2012.26 1847.4 2010.31 1848.28 L2010.31 1830.92 Z" fill="#000000" fill-rule="evenodd" fill-opacity="1" /><path clip-path="url(#clip080)" d="M2525.67 1861.55 L2533.3 1861.55 L2533.3 1835.18 L2524.99 1836.85 L2524.99 1832.59 L2533.26 1830.92 L2537.93 1830.92 L2537.93 1861.55 L2545.57 1861.55 L2545.57 1865.48 L2525.67 1865.48 L2525.67 1861.55 Z" fill="#000000" fill-rule="evenodd" fill-opacity="1" /><path clip-path="url(#clip080)" d="M2555.02 1859.6 L2559.9 1859.6 L2559.9 1865.48 L2555.02 1865.48 L2555.02 1859.6 Z" fill="#000000" fill-rule="evenodd" fill-opacity="1" /><path clip-path="url(#clip080)" d="M2580.09 1834 Q2576.48 1834 2574.65 1837.57 Q2572.84 1841.11 2572.84 1848.24 Q2572.84 1855.34 2574.65 1858.91 Q2576.48 1862.45 2580.09 1862.45 Q2583.72 1862.45 2585.53 1858.91 Q2587.36 1855.34 2587.36 1848.24 Q2587.36 1841.11 2585.53 1837.57 Q2583.72 1834 2580.09 1834 M2580.09 1830.3 Q2585.9 1830.3 2588.95 1834.9 Q2592.03 1839.49 2592.03 1848.24 Q2592.03 1856.96 2588.95 1861.57 Q2585.9 1866.15 2580.09 1866.15 Q2574.28 1866.15 2571.2 1861.57 Q2568.14 1856.96 2568.14 1848.24 Q2568.14 1839.49 2571.2 1834.9 Q2574.28 1830.3 2580.09 1830.3 Z" fill="#000000" fill-rule="evenodd" fill-opacity="1" /><path clip-path="url(#clip080)" d="M2610.25 1834 Q2606.64 1834 2604.81 1837.57 Q2603 1841.11 2603 1848.24 Q2603 1855.34 2604.81 1858.91 Q2606.64 1862.45 2610.25 1862.45 Q2613.88 1862.45 2615.69 1858.91 Q2617.52 1855.34 2617.52 1848.24 Q2617.52 1841.11 2615.69 1837.57 Q2613.88 1834 2610.25 1834 M2610.25 1830.3 Q2616.06 1830.3 2619.11 1834.9 Q2622.19 1839.49 2622.19 1848.24 Q2622.19 1856.96 2619.11 1861.57 Q2616.06 1866.15 2610.25 1866.15 Q2604.44 1866.15 2601.36 1861.57 Q2598.3 1856.96 2598.3 1848.24 Q2598.3 1839.49 2601.36 1834.9 Q2604.44 1830.3 2610.25 1830.3 Z" fill="#000000" fill-rule="evenodd" fill-opacity="1" /><polyline clip-path="url(#clip082)" style="stroke:#000000; stroke-linecap:butt; stroke-linejoin:round; stroke-width:2; stroke-opacity:0.1; fill:none" points="
  189.154,1754.34 2640.76,1754.34 
  "/>
<polyline clip-path="url(#clip082)" style="stroke:#000000; stroke-linecap:butt; stroke-linejoin:round; stroke-width:2; stroke-opacity:0.1; fill:none" points="
  189.154,1334.78 2640.76,1334.78 
  "/>
<polyline clip-path="url(#clip082)" style="stroke:#000000; stroke-linecap:butt; stroke-linejoin:round; stroke-width:2; stroke-opacity:0.1; fill:none" points="
  189.154,915.234 2640.76,915.234 
  "/>
<polyline clip-path="url(#clip082)" style="stroke:#000000; stroke-linecap:butt; stroke-linejoin:round; stroke-width:2; stroke-opacity:0.1; fill:none" points="
  189.154,495.683 2640.76,495.683 
  "/>
<polyline clip-path="url(#clip082)" style="stroke:#000000; stroke-linecap:butt; stroke-linejoin:round; stroke-width:2; stroke-opacity:0.1; fill:none" points="
  189.154,76.1321 2640.76,76.1321 
  "/>
<polyline clip-path="url(#clip080)" style="stroke:#000000; stroke-linecap:butt; stroke-linejoin:round; stroke-width:4; stroke-opacity:1; fill:none" points="
  189.154,1800.78 189.154,47.2441 
  "/>
<polyline clip-path="url(#clip080)" style="stroke:#000000; stroke-linecap:butt; stroke-linejoin:round; stroke-width:4; stroke-opacity:1; fill:none" points="
  189.154,1754.34 208.052,1754.34 
  "/>
<polyline clip-path="url(#clip080)" style="stroke:#000000; stroke-linecap:butt; stroke-linejoin:round; stroke-width:4; stroke-opacity:1; fill:none" points="
  189.154,1334.78 208.052,1334.78 
  "/>
<polyline clip-path="url(#clip080)" style="stroke:#000000; stroke-linecap:butt; stroke-linejoin:round; stroke-width:4; stroke-opacity:1; fill:none" points="
  189.154,915.234 208.052,915.234 
  "/>
<polyline clip-path="url(#clip080)" style="stroke:#000000; stroke-linecap:butt; stroke-linejoin:round; stroke-width:4; stroke-opacity:1; fill:none" points="
  189.154,495.683 208.052,495.683 
  "/>
<polyline clip-path="url(#clip080)" style="stroke:#000000; stroke-linecap:butt; stroke-linejoin:round; stroke-width:4; stroke-opacity:1; fill:none" points="
  189.154,76.1321 208.052,76.1321 
  "/>
<path clip-path="url(#clip080)" d="M61.4965 1740.13 Q57.8854 1740.13 56.0567 1743.7 Q54.2512 1747.24 54.2512 1754.37 Q54.2512 1761.48 56.0567 1765.04 Q57.8854 1768.58 61.4965 1768.58 Q65.1307 1768.58 66.9363 1765.04 Q68.765 1761.48 68.765 1754.37 Q68.765 1747.24 66.9363 1743.7 Q65.1307 1740.13 61.4965 1740.13 M61.4965 1736.43 Q67.3067 1736.43 70.3622 1741.04 Q73.4409 1745.62 73.4409 1754.37 Q73.4409 1763.1 70.3622 1767.7 Q67.3067 1772.29 61.4965 1772.29 Q55.6864 1772.29 52.6077 1767.7 Q49.5521 1763.1 49.5521 1754.37 Q49.5521 1745.62 52.6077 1741.04 Q55.6864 1736.43 61.4965 1736.43 Z" fill="#000000" fill-rule="evenodd" fill-opacity="1" /><path clip-path="url(#clip080)" d="M81.6584 1765.74 L86.5427 1765.74 L86.5427 1771.62 L81.6584 1771.62 L81.6584 1765.74 Z" fill="#000000" fill-rule="evenodd" fill-opacity="1" /><path clip-path="url(#clip080)" d="M106.728 1740.13 Q103.117 1740.13 101.288 1743.7 Q99.4824 1747.24 99.4824 1754.37 Q99.4824 1761.48 101.288 1765.04 Q103.117 1768.58 106.728 1768.58 Q110.362 1768.58 112.168 1765.04 Q113.996 1761.48 113.996 1754.37 Q113.996 1747.24 112.168 1743.7 Q110.362 1740.13 106.728 1740.13 M106.728 1736.43 Q112.538 1736.43 115.593 1741.04 Q118.672 1745.62 118.672 1754.37 Q118.672 1763.1 115.593 1767.7 Q112.538 1772.29 106.728 1772.29 Q100.918 1772.29 97.8389 1767.7 Q94.7834 1763.1 94.7834 1754.37 Q94.7834 1745.62 97.8389 1741.04 Q100.918 1736.43 106.728 1736.43 Z" fill="#000000" fill-rule="evenodd" fill-opacity="1" /><path clip-path="url(#clip080)" d="M136.89 1740.13 Q133.279 1740.13 131.45 1743.7 Q129.644 1747.24 129.644 1754.37 Q129.644 1761.48 131.45 1765.04 Q133.279 1768.58 136.89 1768.58 Q140.524 1768.58 142.329 1765.04 Q144.158 1761.48 144.158 1754.37 Q144.158 1747.24 142.329 1743.7 Q140.524 1740.13 136.89 1740.13 M136.89 1736.43 Q142.7 1736.43 145.755 1741.04 Q148.834 1745.62 148.834 1754.37 Q148.834 1763.1 145.755 1767.7 Q142.7 1772.29 136.89 1772.29 Q131.079 1772.29 128.001 1767.7 Q124.945 1763.1 124.945 1754.37 Q124.945 1745.62 128.001 1741.04 Q131.079 1736.43 136.89 1736.43 Z" fill="#000000" fill-rule="evenodd" fill-opacity="1" /><path clip-path="url(#clip080)" d="M62.4919 1320.58 Q58.8808 1320.58 57.0521 1324.15 Q55.2465 1327.69 55.2465 1334.82 Q55.2465 1341.93 57.0521 1345.49 Q58.8808 1349.03 62.4919 1349.03 Q66.1261 1349.03 67.9317 1345.49 Q69.7604 1341.93 69.7604 1334.82 Q69.7604 1327.69 67.9317 1324.15 Q66.1261 1320.58 62.4919 1320.58 M62.4919 1316.88 Q68.302 1316.88 71.3576 1321.49 Q74.4363 1326.07 74.4363 1334.82 Q74.4363 1343.55 71.3576 1348.15 Q68.302 1352.74 62.4919 1352.74 Q56.6817 1352.74 53.603 1348.15 Q50.5475 1343.55 50.5475 1334.82 Q50.5475 1326.07 53.603 1321.49 Q56.6817 1316.88 62.4919 1316.88 Z" fill="#000000" fill-rule="evenodd" fill-opacity="1" /><path clip-path="url(#clip080)" d="M82.6538 1346.19 L87.538 1346.19 L87.538 1352.06 L82.6538 1352.06 L82.6538 1346.19 Z" fill="#000000" fill-rule="evenodd" fill-opacity="1" /><path clip-path="url(#clip080)" d="M101.751 1348.13 L118.07 1348.13 L118.07 1352.06 L96.126 1352.06 L96.126 1348.13 Q98.788 1345.38 103.371 1340.75 Q107.978 1336.09 109.158 1334.75 Q111.404 1332.23 112.283 1330.49 Q113.186 1328.73 113.186 1327.04 Q113.186 1324.29 111.242 1322.55 Q109.32 1320.82 106.218 1320.82 Q104.019 1320.82 101.566 1321.58 Q99.1352 1322.34 96.3574 1323.89 L96.3574 1319.17 Q99.1815 1318.04 101.635 1317.46 Q104.089 1316.88 106.126 1316.88 Q111.496 1316.88 114.691 1319.57 Q117.885 1322.25 117.885 1326.74 Q117.885 1328.87 117.075 1330.79 Q116.288 1332.69 114.181 1335.28 Q113.603 1335.95 110.501 1339.17 Q107.399 1342.37 101.751 1348.13 Z" fill="#000000" fill-rule="evenodd" fill-opacity="1" /><path clip-path="url(#clip080)" d="M127.931 1317.5 L146.288 1317.5 L146.288 1321.44 L132.214 1321.44 L132.214 1329.91 Q133.232 1329.57 134.251 1329.4 Q135.269 1329.22 136.288 1329.22 Q142.075 1329.22 145.454 1332.39 Q148.834 1335.56 148.834 1340.98 Q148.834 1346.56 145.362 1349.66 Q141.89 1352.74 135.57 1352.74 Q133.394 1352.74 131.126 1352.37 Q128.88 1352 126.473 1351.25 L126.473 1346.56 Q128.556 1347.69 130.779 1348.25 Q133.001 1348.8 135.478 1348.8 Q139.482 1348.8 141.82 1346.69 Q144.158 1344.59 144.158 1340.98 Q144.158 1337.37 141.82 1335.26 Q139.482 1333.15 135.478 1333.15 Q133.603 1333.15 131.728 1333.57 Q129.876 1333.99 127.931 1334.87 L127.931 1317.5 Z" fill="#000000" fill-rule="evenodd" fill-opacity="1" /><path clip-path="url(#clip080)" d="M61.4965 901.033 Q57.8854 901.033 56.0567 904.597 Q54.2512 908.139 54.2512 915.269 Q54.2512 922.375 56.0567 925.94 Q57.8854 929.482 61.4965 929.482 Q65.1307 929.482 66.9363 925.94 Q68.765 922.375 68.765 915.269 Q68.765 908.139 66.9363 904.597 Q65.1307 901.033 61.4965 901.033 M61.4965 897.329 Q67.3067 897.329 70.3622 901.935 Q73.4409 906.519 73.4409 915.269 Q73.4409 923.995 70.3622 928.602 Q67.3067 933.185 61.4965 933.185 Q55.6864 933.185 52.6077 928.602 Q49.5521 923.995 49.5521 915.269 Q49.5521 906.519 52.6077 901.935 Q55.6864 897.329 61.4965 897.329 Z" fill="#000000" fill-rule="evenodd" fill-opacity="1" /><path clip-path="url(#clip080)" d="M81.6584 926.634 L86.5427 926.634 L86.5427 932.514 L81.6584 932.514 L81.6584 926.634 Z" fill="#000000" fill-rule="evenodd" fill-opacity="1" /><path clip-path="url(#clip080)" d="M96.7741 897.954 L115.13 897.954 L115.13 901.889 L101.056 901.889 L101.056 910.361 Q102.075 910.014 103.094 909.852 Q104.112 909.667 105.131 909.667 Q110.918 909.667 114.297 912.838 Q117.677 916.009 117.677 921.426 Q117.677 927.005 114.205 930.107 Q110.732 933.185 104.413 933.185 Q102.237 933.185 99.9685 932.815 Q97.7232 932.445 95.3158 931.704 L95.3158 927.005 Q97.3991 928.139 99.6213 928.695 Q101.844 929.25 104.32 929.25 Q108.325 929.25 110.663 927.144 Q113.001 925.037 113.001 921.426 Q113.001 917.815 110.663 915.708 Q108.325 913.602 104.32 913.602 Q102.445 913.602 100.57 914.019 Q98.7185 914.435 96.7741 915.315 L96.7741 897.954 Z" fill="#000000" fill-rule="evenodd" fill-opacity="1" /><path clip-path="url(#clip080)" d="M136.89 901.033 Q133.279 901.033 131.45 904.597 Q129.644 908.139 129.644 915.269 Q129.644 922.375 131.45 925.94 Q133.279 929.482 136.89 929.482 Q140.524 929.482 142.329 925.94 Q144.158 922.375 144.158 915.269 Q144.158 908.139 142.329 904.597 Q140.524 901.033 136.89 901.033 M136.89 897.329 Q142.7 897.329 145.755 901.935 Q148.834 906.519 148.834 915.269 Q148.834 923.995 145.755 928.602 Q142.7 933.185 136.89 933.185 Q131.079 933.185 128.001 928.602 Q124.945 923.995 124.945 915.269 Q124.945 906.519 128.001 901.935 Q131.079 897.329 136.89 897.329 Z" fill="#000000" fill-rule="evenodd" fill-opacity="1" /><path clip-path="url(#clip080)" d="M62.4919 481.482 Q58.8808 481.482 57.0521 485.047 Q55.2465 488.588 55.2465 495.718 Q55.2465 502.824 57.0521 506.389 Q58.8808 509.931 62.4919 509.931 Q66.1261 509.931 67.9317 506.389 Q69.7604 502.824 69.7604 495.718 Q69.7604 488.588 67.9317 485.047 Q66.1261 481.482 62.4919 481.482 M62.4919 477.778 Q68.302 477.778 71.3576 482.384 Q74.4363 486.968 74.4363 495.718 Q74.4363 504.445 71.3576 509.051 Q68.302 513.634 62.4919 513.634 Q56.6817 513.634 53.603 509.051 Q50.5475 504.445 50.5475 495.718 Q50.5475 486.968 53.603 482.384 Q56.6817 477.778 62.4919 477.778 Z" fill="#000000" fill-rule="evenodd" fill-opacity="1" /><path clip-path="url(#clip080)" d="M82.6538 507.083 L87.538 507.083 L87.538 512.963 L82.6538 512.963 L82.6538 507.083 Z" fill="#000000" fill-rule="evenodd" fill-opacity="1" /><path clip-path="url(#clip080)" d="M96.5426 478.403 L118.765 478.403 L118.765 480.394 L106.218 512.963 L101.334 512.963 L113.14 482.338 L96.5426 482.338 L96.5426 478.403 Z" fill="#000000" fill-rule="evenodd" fill-opacity="1" /><path clip-path="url(#clip080)" d="M127.931 478.403 L146.288 478.403 L146.288 482.338 L132.214 482.338 L132.214 490.81 Q133.232 490.463 134.251 490.301 Q135.269 490.116 136.288 490.116 Q142.075 490.116 145.454 493.287 Q148.834 496.458 148.834 501.875 Q148.834 507.454 145.362 510.556 Q141.89 513.634 135.57 513.634 Q133.394 513.634 131.126 513.264 Q128.88 512.894 126.473 512.153 L126.473 507.454 Q128.556 508.588 130.779 509.144 Q133.001 509.699 135.478 509.699 Q139.482 509.699 141.82 507.593 Q144.158 505.486 144.158 501.875 Q144.158 498.264 141.82 496.158 Q139.482 494.051 135.478 494.051 Q133.603 494.051 131.728 494.468 Q129.876 494.884 127.931 495.764 L127.931 478.403 Z" fill="#000000" fill-rule="evenodd" fill-opacity="1" /><path clip-path="url(#clip080)" d="M52.3067 89.4769 L59.9456 89.4769 L59.9456 63.1113 L51.6354 64.778 L51.6354 60.5187 L59.8993 58.8521 L64.5752 58.8521 L64.5752 89.4769 L72.214 89.4769 L72.214 93.4121 L52.3067 93.4121 L52.3067 89.4769 Z" fill="#000000" fill-rule="evenodd" fill-opacity="1" /><path clip-path="url(#clip080)" d="M81.6584 87.5325 L86.5427 87.5325 L86.5427 93.4121 L81.6584 93.4121 L81.6584 87.5325 Z" fill="#000000" fill-rule="evenodd" fill-opacity="1" /><path clip-path="url(#clip080)" d="M106.728 61.9308 Q103.117 61.9308 101.288 65.4956 Q99.4824 69.0372 99.4824 76.1668 Q99.4824 83.2732 101.288 86.838 Q103.117 90.3797 106.728 90.3797 Q110.362 90.3797 112.168 86.838 Q113.996 83.2732 113.996 76.1668 Q113.996 69.0372 112.168 65.4956 Q110.362 61.9308 106.728 61.9308 M106.728 58.2271 Q112.538 58.2271 115.593 62.8335 Q118.672 67.4168 118.672 76.1668 Q118.672 84.8936 115.593 89.5001 Q112.538 94.0834 106.728 94.0834 Q100.918 94.0834 97.8389 89.5001 Q94.7834 84.8936 94.7834 76.1668 Q94.7834 67.4168 97.8389 62.8335 Q100.918 58.2271 106.728 58.2271 Z" fill="#000000" fill-rule="evenodd" fill-opacity="1" /><path clip-path="url(#clip080)" d="M136.89 61.9308 Q133.279 61.9308 131.45 65.4956 Q129.644 69.0372 129.644 76.1668 Q129.644 83.2732 131.45 86.838 Q133.279 90.3797 136.89 90.3797 Q140.524 90.3797 142.329 86.838 Q144.158 83.2732 144.158 76.1668 Q144.158 69.0372 142.329 65.4956 Q140.524 61.9308 136.89 61.9308 M136.89 58.2271 Q142.7 58.2271 145.755 62.8335 Q148.834 67.4168 148.834 76.1668 Q148.834 84.8936 145.755 89.5001 Q142.7 94.0834 136.89 94.0834 Q131.079 94.0834 128.001 89.5001 Q124.945 84.8936 124.945 76.1668 Q124.945 67.4168 128.001 62.8335 Q131.079 58.2271 136.89 58.2271 Z" fill="#000000" fill-rule="evenodd" fill-opacity="1" /><polyline clip-path="url(#clip082)" style="stroke:#009af9; stroke-linecap:butt; stroke-linejoin:round; stroke-width:4; stroke-opacity:1; fill:none" points="
  1146.94,577.755 1705.8,1404.72 1795.45,415.742 1747.46,810.008 2226.26,981.33 1061.28,1446.18 2291.43,1224.37 1042.01,217.328 1078.17,1009.66 662.38,393.915 
  1098.24,577.468 1685.8,587.217 818.202,654.968 1523.63,270.855 1491.74,565.354 448.28,1544.23 749.648,701.653 682.68,655.175 605.976,441.246 1657.69,307.112 
  1635.48,638.268 1244.76,1094.93 2388.73,654.719 258.539,472.608 1744.31,1684.38 2347.83,1595.44 1784.36,109.52 1294.08,1658 1187.53,137.206 2037.15,605.747 
  1967,165.697 1558.7,1683.55 581.617,404.953 2518.11,171.303 291.326,263.335 729.765,256.188 1732.15,1225.33 1291.76,1741.61 2203.3,963.759 1992.47,930.248 
  2265.04,1711.28 1771.77,407.389 1817.15,512.562 2197.14,1030.45 2385.86,726.387 911.527,1033.96 467.214,1721.38 1752.48,1386.54 1848.4,834.282 2408.39,1514.38 
  562.641,697.063 1625.53,1520.3 1100.23,794.68 2221.66,1550.23 1620.34,96.8724 1238,1689.91 646.663,361.161 2316.71,741.031 1333.09,1686.46 547.053,1439.26 
  1989.1,448.24 1323.14,144.824 635.707,1364.7 2283.38,1751.15 1147.18,425.43 1467.77,1371.94 2400.97,698.178 2301.58,1657.51 1624.4,145.141 2525.82,1149.51 
  2383.76,1410.59 1823.5,1701.14 2056.57,587.783 1912.98,737.476 1236.66,1206.47 2233.98,654.696 1229.24,1683.76 2314.71,1041.09 922.698,1197.53 2534.15,842.385 
  458.684,531.154 1801.11,1366.25 2113.49,175.837 638.605,576.696 864.788,286.821 2461.66,1010.97 2571.37,1211.73 2228.24,1226.17 2106.37,237.24 719.927,668.995 
  2119.81,507.725 643.583,1009.07 807.937,1447.91 1201.71,1454.92 1008.26,1058.37 2140.88,120.458 1514,557.865 545.731,1638.86 1634.08,1399.32 2135.11,1700.32 
  
  "/>
<path clip-path="url(#clip080)" d="
M2261.45 209.375 L2559.04 209.375 L2559.04 105.695 L2261.45 105.695  Z
  " fill="#ffffff" fill-rule="evenodd" fill-opacity="1"/>
<polyline clip-path="url(#clip080)" style="stroke:#000000; stroke-linecap:butt; stroke-linejoin:round; stroke-width:4; stroke-opacity:1; fill:none" points="
  2261.45,209.375 2559.04,209.375 2559.04,105.695 2261.45,105.695 2261.45,209.375 
  "/>
<polyline clip-path="url(#clip080)" style="stroke:#009af9; stroke-linecap:butt; stroke-linejoin:round; stroke-width:4; stroke-opacity:1; fill:none" points="
  2288.69,157.535 2452.13,157.535 
  "/>
<path clip-path="url(#clip080)" d="M2493.21 177.223 Q2491.4 181.852 2489.69 183.264 Q2487.98 184.676 2485.11 184.676 L2481.7 184.676 L2481.7 181.112 L2484.2 181.112 Q2485.96 181.112 2486.93 180.278 Q2487.91 179.445 2489.09 176.343 L2489.85 174.399 L2479.37 148.889 L2483.88 148.889 L2491.98 169.167 L2500.08 148.889 L2504.6 148.889 L2493.21 177.223 Z" fill="#000000" fill-rule="evenodd" fill-opacity="1" /><path clip-path="url(#clip080)" d="M2511.89 170.88 L2519.53 170.88 L2519.53 144.515 L2511.22 146.181 L2511.22 141.922 L2519.48 140.255 L2524.16 140.255 L2524.16 170.88 L2531.8 170.88 L2531.8 174.815 L2511.89 174.815 L2511.89 170.88 Z" fill="#000000" fill-rule="evenodd" fill-opacity="1" /></svg>
