<?xml version="1.0" encoding="utf-8"?>
<svg xmlns="http://www.w3.org/2000/svg" xmlns:xlink="http://www.w3.org/1999/xlink" width="672" height="480" viewBox="0 0 2688 1920">
<defs>
  <clipPath id="clip630">
    <rect x="0" y="0" width="2688" height="1920"/>
  </clipPath>
</defs>
<path clip-path="url(#clip630)" d="
M0 1920 L2688 1920 L2688 0 L0 0  Z
  " fill="#ffffff" fill-rule="evenodd" fill-opacity="1"/>
<defs>
  <clipPath id="clip631">
    <rect x="537" y="0" width="1883" height="1883"/>
  </clipPath>
</defs>
<path clip-path="url(#clip630)" d="
M189.154 1800.78 L2640.76 1800.78 L2640.76 47.2441 L189.154 47.2441  Z
  " fill="#ffffff" fill-rule="evenodd" fill-opacity="1"/>
<defs>
  <clipPath id="clip632">
    <rect x="189" y="47" width="2453" height="1755"/>
  </clipPath>
</defs>
<polyline clip-path="url(#clip632)" style="stroke:#000000; stroke-linecap:butt; stroke-linejoin:round; stroke-width:2; stroke-opacity:0.1; fill:none" points="
  233.594,1800.78 233.594,47.2441 
  "/>
<polyline clip-path="url(#clip632)" style="stroke:#000000; stroke-linecap:butt; stroke-linejoin:round; stroke-width:2; stroke-opacity:0.1; fill:none" points="
  820.298,1800.78 820.298,47.2441 
  "/>
<polyline clip-path="url(#clip632)" style="stroke:#000000; stroke-linecap:butt; stroke-linejoin:round; stroke-width:2; stroke-opacity:0.1; fill:none" points="
  1407,1800.78 1407,47.2441 
  "/>
<polyline clip-path="url(#clip632)" style="stroke:#000000; stroke-linecap:butt; stroke-linejoin:round; stroke-width:2; stroke-opacity:0.1; fill:none" points="
  1993.7,1800.78 1993.7,47.2441 
  "/>
<polyline clip-path="url(#clip632)" style="stroke:#000000; stroke-linecap:butt; stroke-linejoin:round; stroke-width:2; stroke-opacity:0.1; fill:none" points="
  2580.41,1800.78 2580.41,47.2441 
  "/>
<polyline clip-path="url(#clip630)" style="stroke:#000000; stroke-linecap:butt; stroke-linejoin:round; stroke-width:4; stroke-opacity:1; fill:none" points="
  189.154,1800.78 2640.76,1800.78 
  "/>
<polyline clip-path="url(#clip630)" style="stroke:#000000; stroke-linecap:butt; stroke-linejoin:round; stroke-width:4; stroke-opacity:1; fill:none" points="
  233.594,1800.78 233.594,1781.88 
  "/>
<polyline clip-path="url(#clip630)" style="stroke:#000000; stroke-linecap:butt; stroke-linejoin:round; stroke-width:4; stroke-opacity:1; fill:none" points="
  820.298,1800.78 820.298,1781.88 
  "/>
<polyline clip-path="url(#clip630)" style="stroke:#000000; stroke-linecap:butt; stroke-linejoin:round; stroke-width:4; stroke-opacity:1; fill:none" points="
  1407,1800.78 1407,1781.88 
  "/>
<polyline clip-path="url(#clip630)" style="stroke:#000000; stroke-linecap:butt; stroke-linejoin:round; stroke-width:4; stroke-opacity:1; fill:none" points="
  1993.7,1800.78 1993.7,1781.88 
  "/>
<polyline clip-path="url(#clip630)" style="stroke:#000000; stroke-linecap:butt; stroke-linejoin:round; stroke-width:4; stroke-opacity:1; fill:none" points="
  2580.41,1800.78 2580.41,1781.88 
  "/>
<path clip-path="url(#clip630)" d="M195.898 1834 Q192.287 1834 190.458 1837.57 Q188.652 1841.11 188.652 1848.24 Q188.652 1855.34 190.458 1858.91 Q192.287 1862.45 195.898 1862.45 Q199.532 1862.45 201.338 1858.91 Q203.166 1855.34 203.166 1848.24 Q203.166 1841.11 201.338 1837.57 Q199.532 1834 195.898 1834 M195.898 1830.3 Q201.708 1830.3 204.764 1834.9 Q207.842 1839.49 207.842 1848.24 Q207.842 1856.96 204.764 1861.57 Q201.708 1866.15 195.898 1866.15 Q190.088 1866.15 187.009 1861.57 Q183.953 1856.96 183.953 1848.24 Q183.953 1839.49 187.009 1834.9 Q190.088 1830.3 195.898 1830.3 Z" fill="#000000" fill-rule="evenodd" fill-opacity="1" /><path clip-path="url(#clip630)" d="M216.06 1859.6 L220.944 1859.6 L220.944 1865.48 L216.06 1865.48 L216.06 1859.6 Z" fill="#000000" fill-rule="evenodd" fill-opacity="1" /><path clip-path="url(#clip630)" d="M241.129 1834 Q237.518 1834 235.689 1837.57 Q233.884 1841.11 233.884 1848.24 Q233.884 1855.34 235.689 1858.91 Q237.518 1862.45 241.129 1862.45 Q244.763 1862.45 246.569 1858.91 Q248.398 1855.34 248.398 1848.24 Q248.398 1841.11 246.569 1837.57 Q244.763 1834 241.129 1834 M241.129 1830.3 Q246.939 1830.3 249.995 1834.9 Q253.073 1839.49 253.073 1848.24 Q253.073 1856.96 249.995 1861.57 Q246.939 1866.15 241.129 1866.15 Q235.319 1866.15 232.24 1861.57 Q229.185 1856.96 229.185 1848.24 Q229.185 1839.49 232.24 1834.9 Q235.319 1830.3 241.129 1830.3 Z" fill="#000000" fill-rule="evenodd" fill-opacity="1" /><path clip-path="url(#clip630)" d="M271.291 1834 Q267.68 1834 265.851 1837.57 Q264.046 1841.11 264.046 1848.24 Q264.046 1855.34 265.851 1858.91 Q267.68 1862.45 271.291 1862.45 Q274.925 1862.45 276.731 1858.91 Q278.559 1855.34 278.559 1848.24 Q278.559 1841.11 276.731 1837.57 Q274.925 1834 271.291 1834 M271.291 1830.3 Q277.101 1830.3 280.157 1834.9 Q283.235 1839.49 283.235 1848.24 Q283.235 1856.96 280.157 1861.57 Q277.101 1866.15 271.291 1866.15 Q265.481 1866.15 262.402 1861.57 Q259.347 1856.96 259.347 1848.24 Q259.347 1839.49 262.402 1834.9 Q265.481 1830.3 271.291 1830.3 Z" fill="#000000" fill-rule="evenodd" fill-opacity="1" /><path clip-path="url(#clip630)" d="M783.099 1834 Q779.488 1834 777.659 1837.57 Q775.853 1841.11 775.853 1848.24 Q775.853 1855.34 777.659 1858.91 Q779.488 1862.45 783.099 1862.45 Q786.733 1862.45 788.539 1858.91 Q790.367 1855.34 790.367 1848.24 Q790.367 1841.11 788.539 1837.57 Q786.733 1834 783.099 1834 M783.099 1830.3 Q788.909 1830.3 791.964 1834.9 Q795.043 1839.49 795.043 1848.24 Q795.043 1856.96 791.964 1861.57 Q788.909 1866.15 783.099 1866.15 Q777.289 1866.15 774.21 1861.57 Q771.154 1856.96 771.154 1848.24 Q771.154 1839.49 774.21 1834.9 Q777.289 1830.3 783.099 1830.3 Z" fill="#000000" fill-rule="evenodd" fill-opacity="1" /><path clip-path="url(#clip630)" d="M803.261 1859.6 L808.145 1859.6 L808.145 1865.48 L803.261 1865.48 L803.261 1859.6 Z" fill="#000000" fill-rule="evenodd" fill-opacity="1" /><path clip-path="url(#clip630)" d="M822.358 1861.55 L838.677 1861.55 L838.677 1865.48 L816.733 1865.48 L816.733 1861.55 Q819.395 1858.79 823.978 1854.16 Q828.585 1849.51 829.765 1848.17 Q832.011 1845.65 832.89 1843.91 Q833.793 1842.15 833.793 1840.46 Q833.793 1837.71 831.848 1835.97 Q829.927 1834.23 826.825 1834.23 Q824.626 1834.23 822.173 1835 Q819.742 1835.76 816.964 1837.31 L816.964 1832.59 Q819.788 1831.46 822.242 1830.88 Q824.696 1830.3 826.733 1830.3 Q832.103 1830.3 835.298 1832.98 Q838.492 1835.67 838.492 1840.16 Q838.492 1842.29 837.682 1844.21 Q836.895 1846.11 834.788 1848.7 Q834.21 1849.37 831.108 1852.59 Q828.006 1855.78 822.358 1861.55 Z" fill="#000000" fill-rule="evenodd" fill-opacity="1" /><path clip-path="url(#clip630)" d="M848.538 1830.92 L866.895 1830.92 L866.895 1834.86 L852.821 1834.86 L852.821 1843.33 Q853.839 1842.98 854.858 1842.82 Q855.876 1842.64 856.895 1842.64 Q862.682 1842.64 866.061 1845.81 Q869.441 1848.98 869.441 1854.4 Q869.441 1859.97 865.969 1863.08 Q862.496 1866.15 856.177 1866.15 Q854.001 1866.15 851.733 1865.78 Q849.487 1865.41 847.08 1864.67 L847.08 1859.97 Q849.163 1861.11 851.385 1861.66 Q853.608 1862.22 856.084 1862.22 Q860.089 1862.22 862.427 1860.11 Q864.765 1858.01 864.765 1854.4 Q864.765 1850.78 862.427 1848.68 Q860.089 1846.57 856.084 1846.57 Q854.209 1846.57 852.334 1846.99 Q850.483 1847.4 848.538 1848.28 L848.538 1830.92 Z" fill="#000000" fill-rule="evenodd" fill-opacity="1" /><path clip-path="url(#clip630)" d="M1369.3 1834 Q1365.69 1834 1363.86 1837.57 Q1362.06 1841.11 1362.06 1848.24 Q1362.06 1855.34 1363.86 1858.91 Q1365.69 1862.45 1369.3 1862.45 Q1372.94 1862.45 1374.74 1858.91 Q1376.57 1855.34 1376.57 1848.24 Q1376.57 1841.11 1374.74 1837.57 Q1372.94 1834 1369.3 1834 M1369.3 1830.3 Q1375.11 1830.3 1378.17 1834.9 Q1381.25 1839.49 1381.25 1848.24 Q1381.25 1856.96 1378.17 1861.57 Q1375.11 1866.15 1369.3 1866.15 Q1363.49 1866.15 1360.42 1861.57 Q1357.36 1856.96 1357.36 1848.24 Q1357.36 1839.49 1360.42 1834.9 Q1363.49 1830.3 1369.3 1830.3 Z" fill="#000000" fill-rule="evenodd" fill-opacity="1" /><path clip-path="url(#clip630)" d="M1389.47 1859.6 L1394.35 1859.6 L1394.35 1865.48 L1389.47 1865.48 L1389.47 1859.6 Z" fill="#000000" fill-rule="evenodd" fill-opacity="1" /><path clip-path="url(#clip630)" d="M1404.58 1830.92 L1422.94 1830.92 L1422.94 1834.86 L1408.86 1834.86 L1408.86 1843.33 Q1409.88 1842.98 1410.9 1842.82 Q1411.92 1842.64 1412.94 1842.64 Q1418.73 1842.64 1422.1 1845.81 Q1425.48 1848.98 1425.48 1854.4 Q1425.48 1859.97 1422.01 1863.08 Q1418.54 1866.15 1412.22 1866.15 Q1410.04 1866.15 1407.78 1865.78 Q1405.53 1865.41 1403.12 1864.67 L1403.12 1859.97 Q1405.21 1861.11 1407.43 1861.66 Q1409.65 1862.22 1412.13 1862.22 Q1416.13 1862.22 1418.47 1860.11 Q1420.81 1858.01 1420.81 1854.4 Q1420.81 1850.78 1418.47 1848.68 Q1416.13 1846.57 1412.13 1846.57 Q1410.25 1846.57 1408.38 1846.99 Q1406.53 1847.4 1404.58 1848.28 L1404.58 1830.92 Z" fill="#000000" fill-rule="evenodd" fill-opacity="1" /><path clip-path="url(#clip630)" d="M1444.7 1834 Q1441.09 1834 1439.26 1837.57 Q1437.45 1841.11 1437.45 1848.24 Q1437.45 1855.34 1439.26 1858.91 Q1441.09 1862.45 1444.7 1862.45 Q1448.33 1862.45 1450.14 1858.91 Q1451.97 1855.34 1451.97 1848.24 Q1451.97 1841.11 1450.14 1837.57 Q1448.33 1834 1444.7 1834 M1444.7 1830.3 Q1450.51 1830.3 1453.56 1834.9 Q1456.64 1839.49 1456.64 1848.24 Q1456.64 1856.96 1453.56 1861.57 Q1450.51 1866.15 1444.7 1866.15 Q1438.89 1866.15 1435.81 1861.57 Q1432.75 1856.96 1432.75 1848.24 Q1432.75 1839.49 1435.81 1834.9 Q1438.89 1830.3 1444.7 1830.3 Z" fill="#000000" fill-rule="evenodd" fill-opacity="1" /><path clip-path="url(#clip630)" d="M1956.51 1834 Q1952.89 1834 1951.07 1837.57 Q1949.26 1841.11 1949.26 1848.24 Q1949.26 1855.34 1951.07 1858.91 Q1952.89 1862.45 1956.51 1862.45 Q1960.14 1862.45 1961.94 1858.91 Q1963.77 1855.34 1963.77 1848.24 Q1963.77 1841.11 1961.94 1837.57 Q1960.14 1834 1956.51 1834 M1956.51 1830.3 Q1962.32 1830.3 1965.37 1834.9 Q1968.45 1839.49 1968.45 1848.24 Q1968.45 1856.96 1965.37 1861.57 Q1962.32 1866.15 1956.51 1866.15 Q1950.7 1866.15 1947.62 1861.57 Q1944.56 1856.96 1944.56 1848.24 Q1944.56 1839.49 1947.62 1834.9 Q1950.7 1830.3 1956.51 1830.3 Z" fill="#000000" fill-rule="evenodd" fill-opacity="1" /><path clip-path="url(#clip630)" d="M1976.67 1859.6 L1981.55 1859.6 L1981.55 1865.48 L1976.67 1865.48 L1976.67 1859.6 Z" fill="#000000" fill-rule="evenodd" fill-opacity="1" /><path clip-path="url(#clip630)" d="M1990.56 1830.92 L2012.78 1830.92 L2012.78 1832.91 L2000.23 1865.48 L1995.35 1865.48 L2007.15 1834.86 L1990.56 1834.86 L1990.56 1830.92 Z" fill="#000000" fill-rule="evenodd" fill-opacity="1" /><path clip-path="url(#clip630)" d="M2021.94 1830.92 L2040.3 1830.92 L2040.3 1834.86 L2026.23 1834.86 L2026.23 1843.33 Q2027.25 1842.98 2028.26 1842.82 Q2029.28 1842.64 2030.3 1842.64 Q2036.09 1842.64 2039.47 1845.81 Q2042.85 1848.98 2042.85 1854.4 Q2042.85 1859.97 2039.38 1863.08 Q2035.9 1866.15 2029.58 1866.15 Q2027.41 1866.15 2025.14 1865.78 Q2022.89 1865.41 2020.49 1864.67 L2020.49 1859.97 Q2022.57 1861.11 2024.79 1861.66 Q2027.01 1862.22 2029.49 1862.22 Q2033.5 1862.22 2035.83 1860.11 Q2038.17 1858.01 2038.17 1854.4 Q2038.17 1850.78 2035.83 1848.68 Q2033.5 1846.57 2029.49 1846.57 Q2027.62 1846.57 2025.74 1846.99 Q2023.89 1847.4 2021.94 1848.28 L2021.94 1830.92 Z" fill="#000000" fill-rule="evenodd" fill-opacity="1" /><path clip-path="url(#clip630)" d="M2532.48 1861.55 L2540.12 1861.55 L2540.12 1835.18 L2531.81 1836.85 L2531.81 1832.59 L2540.07 1830.92 L2544.75 1830.92 L2544.75 1861.55 L2552.39 1861.55 L2552.39 1865.48 L2532.48 1865.48 L2532.48 1861.55 Z" fill="#000000" fill-rule="evenodd" fill-opacity="1" /><path clip-path="url(#clip630)" d="M2561.83 1859.6 L2566.72 1859.6 L2566.72 1865.48 L2561.83 1865.48 L2561.83 1859.6 Z" fill="#000000" fill-rule="evenodd" fill-opacity="1" /><path clip-path="url(#clip630)" d="M2586.9 1834 Q2583.29 1834 2581.46 1837.57 Q2579.65 1841.11 2579.65 1848.24 Q2579.65 1855.34 2581.46 1858.91 Q2583.29 1862.45 2586.9 1862.45 Q2590.53 1862.45 2592.34 1858.91 Q2594.17 1855.34 2594.17 1848.24 Q2594.17 1841.11 2592.34 1837.57 Q2590.53 1834 2586.9 1834 M2586.9 1830.3 Q2592.71 1830.3 2595.77 1834.9 Q2598.84 1839.49 2598.84 1848.24 Q2598.84 1856.96 2595.77 1861.57 Q2592.71 1866.15 2586.9 1866.15 Q2581.09 1866.15 2578.01 1861.57 Q2574.96 1856.96 2574.96 1848.24 Q2574.96 1839.49 2578.01 1834.9 Q2581.09 1830.3 2586.9 1830.3 Z" fill="#000000" fill-rule="evenodd" fill-opacity="1" /><path clip-path="url(#clip630)" d="M2617.06 1834 Q2613.45 1834 2611.62 1837.57 Q2609.82 1841.11 2609.82 1848.24 Q2609.82 1855.34 2611.62 1858.91 Q2613.45 1862.45 2617.06 1862.45 Q2620.7 1862.45 2622.5 1858.91 Q2624.33 1855.34 2624.33 1848.24 Q2624.33 1841.11 2622.5 1837.57 Q2620.7 1834 2617.06 1834 M2617.06 1830.3 Q2622.87 1830.3 2625.93 1834.9 Q2629.01 1839.49 2629.01 1848.24 Q2629.01 1856.96 2625.93 1861.57 Q2622.87 1866.15 2617.06 1866.15 Q2611.25 1866.15 2608.17 1861.57 Q2605.12 1856.96 2605.12 1848.24 Q2605.12 1839.49 2608.17 1834.9 Q2611.25 1830.3 2617.06 1830.3 Z" fill="#000000" fill-rule="evenodd" fill-opacity="1" /><polyline clip-path="url(#clip632)" style="stroke:#000000; stroke-linecap:butt; stroke-linejoin:round; stroke-width:2; stroke-opacity:0.1; fill:none" points="
  189.154,1760.54 2640.76,1760.54 
  "/>
<polyline clip-path="url(#clip632)" style="stroke:#000000; stroke-linecap:butt; stroke-linejoin:round; stroke-width:2; stroke-opacity:0.1; fill:none" points="
  189.154,1338.77 2640.76,1338.77 
  "/>
<polyline clip-path="url(#clip632)" style="stroke:#000000; stroke-linecap:butt; stroke-linejoin:round; stroke-width:2; stroke-opacity:0.1; fill:none" points="
  189.154,916.998 2640.76,916.998 
  "/>
<polyline clip-path="url(#clip632)" style="stroke:#000000; stroke-linecap:butt; stroke-linejoin:round; stroke-width:2; stroke-opacity:0.1; fill:none" points="
  189.154,495.228 2640.76,495.228 
  "/>
<polyline clip-path="url(#clip632)" style="stroke:#000000; stroke-linecap:butt; stroke-linejoin:round; stroke-width:2; stroke-opacity:0.1; fill:none" points="
  189.154,73.4593 2640.76,73.4593 
  "/>
<polyline clip-path="url(#clip630)" style="stroke:#000000; stroke-linecap:butt; stroke-linejoin:round; stroke-width:4; stroke-opacity:1; fill:none" points="
  189.154,1800.78 189.154,47.2441 
  "/>
<polyline clip-path="url(#clip630)" style="stroke:#000000; stroke-linecap:butt; stroke-linejoin:round; stroke-width:4; stroke-opacity:1; fill:none" points="
  189.154,1760.54 208.052,1760.54 
  "/>
<polyline clip-path="url(#clip630)" style="stroke:#000000; stroke-linecap:butt; stroke-linejoin:round; stroke-width:4; stroke-opacity:1; fill:none" points="
  189.154,1338.77 208.052,1338.77 
  "/>
<polyline clip-path="url(#clip630)" style="stroke:#000000; stroke-linecap:butt; stroke-linejoin:round; stroke-width:4; stroke-opacity:1; fill:none" points="
  189.154,916.998 208.052,916.998 
  "/>
<polyline clip-path="url(#clip630)" style="stroke:#000000; stroke-linecap:butt; stroke-linejoin:round; stroke-width:4; stroke-opacity:1; fill:none" points="
  189.154,495.228 208.052,495.228 
  "/>
<polyline clip-path="url(#clip630)" style="stroke:#000000; stroke-linecap:butt; stroke-linejoin:round; stroke-width:4; stroke-opacity:1; fill:none" points="
  189.154,73.4593 208.052,73.4593 
  "/>
<path clip-path="url(#clip630)" d="M61.4965 1746.33 Q57.8854 1746.33 56.0567 1749.9 Q54.2512 1753.44 54.2512 1760.57 Q54.2512 1767.68 56.0567 1771.24 Q57.8854 1774.78 61.4965 1774.78 Q65.1307 1774.78 66.9363 1771.24 Q68.765 1767.68 68.765 1760.57 Q68.765 1753.44 66.9363 1749.9 Q65.1307 1746.33 61.4965 1746.33 M61.4965 1742.63 Q67.3067 1742.63 70.3622 1747.24 Q73.4409 1751.82 73.4409 1760.57 Q73.4409 1769.3 70.3622 1773.9 Q67.3067 1778.49 61.4965 1778.49 Q55.6864 1778.49 52.6077 1773.9 Q49.5521 1769.3 49.5521 1760.57 Q49.5521 1751.82 52.6077 1747.24 Q55.6864 1742.63 61.4965 1742.63 Z" fill="#000000" fill-rule="evenodd" fill-opacity="1" /><path clip-path="url(#clip630)" d="M81.6584 1771.94 L86.5427 1771.94 L86.5427 1777.82 L81.6584 1777.82 L81.6584 1771.94 Z" fill="#000000" fill-rule="evenodd" fill-opacity="1" /><path clip-path="url(#clip630)" d="M106.728 1746.33 Q103.117 1746.33 101.288 1749.9 Q99.4824 1753.44 99.4824 1760.57 Q99.4824 1767.68 101.288 1771.24 Q103.117 1774.78 106.728 1774.78 Q110.362 1774.78 112.168 1771.24 Q113.996 1767.68 113.996 1760.57 Q113.996 1753.44 112.168 1749.9 Q110.362 1746.33 106.728 1746.33 M106.728 1742.63 Q112.538 1742.63 115.593 1747.24 Q118.672 1751.82 118.672 1760.57 Q118.672 1769.3 115.593 1773.9 Q112.538 1778.49 106.728 1778.49 Q100.918 1778.49 97.8389 1773.9 Q94.7834 1769.3 94.7834 1760.57 Q94.7834 1751.82 97.8389 1747.24 Q100.918 1742.63 106.728 1742.63 Z" fill="#000000" fill-rule="evenodd" fill-opacity="1" /><path clip-path="url(#clip630)" d="M136.89 1746.33 Q133.279 1746.33 131.45 1749.9 Q129.644 1753.44 129.644 1760.57 Q129.644 1767.68 131.45 1771.24 Q133.279 1774.78 136.89 1774.78 Q140.524 1774.78 142.329 1771.24 Q144.158 1767.68 144.158 1760.57 Q144.158 1753.44 142.329 1749.9 Q140.524 1746.33 136.89 1746.33 M136.89 1742.63 Q142.7 1742.63 145.755 1747.24 Q148.834 1751.82 148.834 1760.57 Q148.834 1769.3 145.755 1773.9 Q142.7 1778.49 136.89 1778.49 Q131.079 1778.49 128.001 1773.9 Q124.945 1769.3 124.945 1760.57 Q124.945 1751.82 128.001 1747.24 Q131.079 1742.63 136.89 1742.63 Z" fill="#000000" fill-rule="evenodd" fill-opacity="1" /><path clip-path="url(#clip630)" d="M62.4919 1324.57 Q58.8808 1324.57 57.0521 1328.13 Q55.2465 1331.67 55.2465 1338.8 Q55.2465 1345.91 57.0521 1349.47 Q58.8808 1353.01 62.4919 1353.01 Q66.1261 1353.01 67.9317 1349.47 Q69.7604 1345.91 69.7604 1338.8 Q69.7604 1331.67 67.9317 1328.13 Q66.1261 1324.57 62.4919 1324.57 M62.4919 1320.86 Q68.302 1320.86 71.3576 1325.47 Q74.4363 1330.05 74.4363 1338.8 Q74.4363 1347.53 71.3576 1352.13 Q68.302 1356.72 62.4919 1356.72 Q56.6817 1356.72 53.603 1352.13 Q50.5475 1347.53 50.5475 1338.8 Q50.5475 1330.05 53.603 1325.47 Q56.6817 1320.86 62.4919 1320.86 Z" fill="#000000" fill-rule="evenodd" fill-opacity="1" /><path clip-path="url(#clip630)" d="M82.6538 1350.17 L87.538 1350.17 L87.538 1356.05 L82.6538 1356.05 L82.6538 1350.17 Z" fill="#000000" fill-rule="evenodd" fill-opacity="1" /><path clip-path="url(#clip630)" d="M101.751 1352.11 L118.07 1352.11 L118.07 1356.05 L96.126 1356.05 L96.126 1352.11 Q98.788 1349.36 103.371 1344.73 Q107.978 1340.07 109.158 1338.73 Q111.404 1336.21 112.283 1334.47 Q113.186 1332.71 113.186 1331.02 Q113.186 1328.27 111.242 1326.53 Q109.32 1324.8 106.218 1324.8 Q104.019 1324.8 101.566 1325.56 Q99.1352 1326.32 96.3574 1327.88 L96.3574 1323.15 Q99.1815 1322.02 101.635 1321.44 Q104.089 1320.86 106.126 1320.86 Q111.496 1320.86 114.691 1323.55 Q117.885 1326.23 117.885 1330.72 Q117.885 1332.85 117.075 1334.77 Q116.288 1336.67 114.181 1339.26 Q113.603 1339.94 110.501 1343.15 Q107.399 1346.35 101.751 1352.11 Z" fill="#000000" fill-rule="evenodd" fill-opacity="1" /><path clip-path="url(#clip630)" d="M127.931 1321.49 L146.288 1321.49 L146.288 1325.42 L132.214 1325.42 L132.214 1333.89 Q133.232 1333.55 134.251 1333.38 Q135.269 1333.2 136.288 1333.2 Q142.075 1333.2 145.454 1336.37 Q148.834 1339.54 148.834 1344.96 Q148.834 1350.54 145.362 1353.64 Q141.89 1356.72 135.57 1356.72 Q133.394 1356.72 131.126 1356.35 Q128.88 1355.98 126.473 1355.24 L126.473 1350.54 Q128.556 1351.67 130.779 1352.23 Q133.001 1352.78 135.478 1352.78 Q139.482 1352.78 141.82 1350.68 Q144.158 1348.57 144.158 1344.96 Q144.158 1341.35 141.82 1339.24 Q139.482 1337.13 135.478 1337.13 Q133.603 1337.13 131.728 1337.55 Q129.876 1337.97 127.931 1338.85 L127.931 1321.49 Z" fill="#000000" fill-rule="evenodd" fill-opacity="1" /><path clip-path="url(#clip630)" d="M61.4965 902.796 Q57.8854 902.796 56.0567 906.361 Q54.2512 909.903 54.2512 917.032 Q54.2512 924.139 56.0567 927.704 Q57.8854 931.245 61.4965 931.245 Q65.1307 931.245 66.9363 927.704 Q68.765 924.139 68.765 917.032 Q68.765 909.903 66.9363 906.361 Q65.1307 902.796 61.4965 902.796 M61.4965 899.093 Q67.3067 899.093 70.3622 903.699 Q73.4409 908.282 73.4409 917.032 Q73.4409 925.759 70.3622 930.366 Q67.3067 934.949 61.4965 934.949 Q55.6864 934.949 52.6077 930.366 Q49.5521 925.759 49.5521 917.032 Q49.5521 908.282 52.6077 903.699 Q55.6864 899.093 61.4965 899.093 Z" fill="#000000" fill-rule="evenodd" fill-opacity="1" /><path clip-path="url(#clip630)" d="M81.6584 928.398 L86.5427 928.398 L86.5427 934.278 L81.6584 934.278 L81.6584 928.398 Z" fill="#000000" fill-rule="evenodd" fill-opacity="1" /><path clip-path="url(#clip630)" d="M96.7741 899.718 L115.13 899.718 L115.13 903.653 L101.056 903.653 L101.056 912.125 Q102.075 911.778 103.094 911.616 Q104.112 911.431 105.131 911.431 Q110.918 911.431 114.297 914.602 Q117.677 917.773 117.677 923.19 Q117.677 928.768 114.205 931.87 Q110.732 934.949 104.413 934.949 Q102.237 934.949 99.9685 934.579 Q97.7232 934.208 95.3158 933.468 L95.3158 928.768 Q97.3991 929.903 99.6213 930.458 Q101.844 931.014 104.32 931.014 Q108.325 931.014 110.663 928.907 Q113.001 926.801 113.001 923.19 Q113.001 919.579 110.663 917.472 Q108.325 915.366 104.32 915.366 Q102.445 915.366 100.57 915.782 Q98.7185 916.199 96.7741 917.079 L96.7741 899.718 Z" fill="#000000" fill-rule="evenodd" fill-opacity="1" /><path clip-path="url(#clip630)" d="M136.89 902.796 Q133.279 902.796 131.45 906.361 Q129.644 909.903 129.644 917.032 Q129.644 924.139 131.45 927.704 Q133.279 931.245 136.89 931.245 Q140.524 931.245 142.329 927.704 Q144.158 924.139 144.158 917.032 Q144.158 909.903 142.329 906.361 Q140.524 902.796 136.89 902.796 M136.89 899.093 Q142.7 899.093 145.755 903.699 Q148.834 908.282 148.834 917.032 Q148.834 925.759 145.755 930.366 Q142.7 934.949 136.89 934.949 Q131.079 934.949 128.001 930.366 Q124.945 925.759 124.945 917.032 Q124.945 908.282 128.001 903.699 Q131.079 899.093 136.89 899.093 Z" fill="#000000" fill-rule="evenodd" fill-opacity="1" /><path clip-path="url(#clip630)" d="M62.4919 481.027 Q58.8808 481.027 57.0521 484.592 Q55.2465 488.134 55.2465 495.263 Q55.2465 502.37 57.0521 505.934 Q58.8808 509.476 62.4919 509.476 Q66.1261 509.476 67.9317 505.934 Q69.7604 502.37 69.7604 495.263 Q69.7604 488.134 67.9317 484.592 Q66.1261 481.027 62.4919 481.027 M62.4919 477.323 Q68.302 477.323 71.3576 481.93 Q74.4363 486.513 74.4363 495.263 Q74.4363 503.99 71.3576 508.596 Q68.302 513.18 62.4919 513.18 Q56.6817 513.18 53.603 508.596 Q50.5475 503.99 50.5475 495.263 Q50.5475 486.513 53.603 481.93 Q56.6817 477.323 62.4919 477.323 Z" fill="#000000" fill-rule="evenodd" fill-opacity="1" /><path clip-path="url(#clip630)" d="M82.6538 506.629 L87.538 506.629 L87.538 512.508 L82.6538 512.508 L82.6538 506.629 Z" fill="#000000" fill-rule="evenodd" fill-opacity="1" /><path clip-path="url(#clip630)" d="M96.5426 477.948 L118.765 477.948 L118.765 479.939 L106.218 512.508 L101.334 512.508 L113.14 481.884 L96.5426 481.884 L96.5426 477.948 Z" fill="#000000" fill-rule="evenodd" fill-opacity="1" /><path clip-path="url(#clip630)" d="M127.931 477.948 L146.288 477.948 L146.288 481.884 L132.214 481.884 L132.214 490.356 Q133.232 490.009 134.251 489.847 Q135.269 489.661 136.288 489.661 Q142.075 489.661 145.454 492.833 Q148.834 496.004 148.834 501.421 Q148.834 506.999 145.362 510.101 Q141.89 513.18 135.57 513.18 Q133.394 513.18 131.126 512.809 Q128.88 512.439 126.473 511.698 L126.473 506.999 Q128.556 508.134 130.779 508.689 Q133.001 509.245 135.478 509.245 Q139.482 509.245 141.82 507.138 Q144.158 505.032 144.158 501.421 Q144.158 497.809 141.82 495.703 Q139.482 493.597 135.478 493.597 Q133.603 493.597 131.728 494.013 Q129.876 494.43 127.931 495.309 L127.931 477.948 Z" fill="#000000" fill-rule="evenodd" fill-opacity="1" /><path clip-path="url(#clip630)" d="M52.3067 86.8041 L59.9456 86.8041 L59.9456 60.4385 L51.6354 62.1052 L51.6354 57.8459 L59.8993 56.1793 L64.5752 56.1793 L64.5752 86.8041 L72.214 86.8041 L72.214 90.7393 L52.3067 90.7393 L52.3067 86.8041 Z" fill="#000000" fill-rule="evenodd" fill-opacity="1" /><path clip-path="url(#clip630)" d="M81.6584 84.8597 L86.5427 84.8597 L86.5427 90.7393 L81.6584 90.7393 L81.6584 84.8597 Z" fill="#000000" fill-rule="evenodd" fill-opacity="1" /><path clip-path="url(#clip630)" d="M106.728 59.258 Q103.117 59.258 101.288 62.8228 Q99.4824 66.3644 99.4824 73.494 Q99.4824 80.6004 101.288 84.1652 Q103.117 87.7069 106.728 87.7069 Q110.362 87.7069 112.168 84.1652 Q113.996 80.6004 113.996 73.494 Q113.996 66.3644 112.168 62.8228 Q110.362 59.258 106.728 59.258 M106.728 55.5543 Q112.538 55.5543 115.593 60.1607 Q118.672 64.744 118.672 73.494 Q118.672 82.2208 115.593 86.8273 Q112.538 91.4106 106.728 91.4106 Q100.918 91.4106 97.8389 86.8273 Q94.7834 82.2208 94.7834 73.494 Q94.7834 64.744 97.8389 60.1607 Q100.918 55.5543 106.728 55.5543 Z" fill="#000000" fill-rule="evenodd" fill-opacity="1" /><path clip-path="url(#clip630)" d="M136.89 59.258 Q133.279 59.258 131.45 62.8228 Q129.644 66.3644 129.644 73.494 Q129.644 80.6004 131.45 84.1652 Q133.279 87.7069 136.89 87.7069 Q140.524 87.7069 142.329 84.1652 Q144.158 80.6004 144.158 73.494 Q144.158 66.3644 142.329 62.8228 Q140.524 59.258 136.89 59.258 M136.89 55.5543 Q142.7 55.5543 145.755 60.1607 Q148.834 64.744 148.834 73.494 Q148.834 82.2208 145.755 86.8273 Q142.7 91.4106 136.89 91.4106 Q131.079 91.4106 128.001 86.8273 Q124.945 82.2208 124.945 73.494 Q124.945 64.744 128.001 60.1607 Q131.079 55.5543 136.89 55.5543 Z" fill="#000000" fill-rule="evenodd" fill-opacity="1" /><polyline clip-path="url(#clip632)" style="stroke:#009af9; stroke-linecap:butt; stroke-linejoin:round; stroke-width:4; stroke-opacity:1; fill:none" points="
  1152.2,1267.61 1748.14,806.325 445.531,789.155 1977.95,1232.04 1159.79,957.525 633.549,1302.63 685.459,1238.04 2326.81,824.217 1392.04,655.66 2519.18,962.649 
  325.118,1533.24 319.519,1499.03 389.906,334.12 1891.59,223.735 2531.55,599.824 1853.44,268.077 1609.84,888.765 2128.32,588.743 1046.67,1160.2 1777.95,470.133 
  446.092,176.543 1586.24,325.191 1760.18,1049.96 2189.75,778.828 1304.47,1170.62 1340.4,423.687 1439.97,1519.39 1531.45,799.785 1364.44,1013.71 837.738,1300.84 
  877.066,278.676 2399.8,488.396 2510.71,182.57 509.148,712.222 920.588,809.47 304.666,1117.5 2052.16,975.766 1925.17,792.328 486.379,1036.75 537.002,1471.23 
  305.672,1751.15 295.006,1032.82 1093.78,301.329 299.453,988.012 1047.09,767.765 439.188,894.57 671.01,1367.04 674.893,96.8724 1056.55,1023.55 438.448,109.521 
  1474.85,1643.4 1416.34,801.986 2333.27,1655.95 2027.62,1184.36 1555.88,103.922 1950.06,480.102 2377.45,206.464 1803.41,1070.8 705.064,1487.52 365.138,947.499 
  1654.08,984.834 643.039,895.035 1768.34,1436.76 2080.59,664.312 330.011,1337.72 1385.61,1622.39 263.249,1427.93 731.394,1417.13 2036.76,1367.19 1166.65,1208.77 
  2571.37,523.122 1138.5,510.886 2130.98,1548.58 931.387,1554.74 2255.5,1605.57 1350.02,1530.75 785.505,1144.79 2073.9,490.728 2369.03,342.259 535.072,566.985 
  2159.59,922.755 499.327,558.609 1031.01,1668.88 517.867,947.089 1976.26,988.528 682.761,240.493 1675.84,499.039 1015.53,726.24 1224.99,534.606 2433.94,234.425 
  1282.07,1454.33 258.539,1056.53 2183.03,905.593 750.966,373.754 1464.52,1145.81 294.996,319.812 1241.38,104.962 1303.42,751.407 313.025,1484.28 936.019,422.426 
  
  "/>
<path clip-path="url(#clip630)" d="
M2261.45 1742.33 L2559.04 1742.33 L2559.04 1638.65 L2261.45 1638.65  Z
  " fill="#ffffff" fill-rule="evenodd" fill-opacity="1"/>
<polyline clip-path="url(#clip630)" style="stroke:#000000; stroke-linecap:butt; stroke-linejoin:round; stroke-width:4; stroke-opacity:1; fill:none" points="
  2261.45,1742.33 2559.04,1742.33 2559.04,1638.65 2261.45,1638.65 2261.45,1742.33 
  "/>
<polyline clip-path="url(#clip630)" style="stroke:#009af9; stroke-linecap:butt; stroke-linejoin:round; stroke-width:4; stroke-opacity:1; fill:none" points="
  2288.69,1690.49 2452.13,1690.49 
  "/>
<path clip-path="url(#clip630)" d="M2493.21 1710.18 Q2491.4 1714.81 2489.69 1716.22 Q2487.98 1717.63 2485.11 1717.63 L2481.7 1717.63 L2481.7 1714.06 L2484.2 1714.06 Q2485.96 1714.06 2486.93 1713.23 Q2487.91 1712.4 2489.09 1709.3 L2489.85 1707.35 L2479.37 1681.84 L2483.88 1681.84 L2491.98 1702.12 L2500.08 1681.84 L2504.6 1681.84 L2493.21 1710.18 Z" fill="#000000" fill-rule="evenodd" fill-opacity="1" /><path clip-path="url(#clip630)" d="M2511.89 1703.83 L2519.53 1703.83 L2519.53 1677.47 L2511.22 1679.13 L2511.22 1674.87 L2519.48 1673.21 L2524.16 1673.21 L2524.16 1703.83 L2531.8 1703.83 L2531.8 1707.77 L2511.89 1707.77 L2511.89 1703.83 Z" fill="#000000" fill-rule="evenodd" fill-opacity="1" /></svg>
