<?xml version="1.0" encoding="utf-8"?>
<svg xmlns="http://www.w3.org/2000/svg" xmlns:xlink="http://www.w3.org/1999/xlink" width="672" height="480" viewBox="0 0 2688 1920">
<defs>
  <clipPath id="clip360">
    <rect x="0" y="0" width="2688" height="1920"/>
  </clipPath>
</defs>
<path clip-path="url(#clip360)" d="
M0 1920 L2688 1920 L2688 0 L0 0  Z
  " fill="#ffffff" fill-rule="evenodd" fill-opacity="1"/>
<defs>
  <clipPath id="clip361">
    <rect x="537" y="0" width="1883" height="1883"/>
  </clipPath>
</defs>
<path clip-path="url(#clip360)" d="
M189.154 1800.78 L2640.76 1800.78 L2640.76 47.2441 L189.154 47.2441  Z
  " fill="#ffffff" fill-rule="evenodd" fill-opacity="1"/>
<defs>
  <clipPath id="clip362">
    <rect x="189" y="47" width="2453" height="1755"/>
  </clipPath>
</defs>
<polyline clip-path="url(#clip362)" style="stroke:#000000; stroke-linecap:butt; stroke-linejoin:round; stroke-width:2; stroke-opacity:0.1; fill:none" points="
  241.997,1800.78 241.997,47.2441 
  "/>
<polyline clip-path="url(#clip362)" style="stroke:#000000; stroke-linecap:butt; stroke-linejoin:round; stroke-width:2; stroke-opacity:0.1; fill:none" points="
  824.942,1800.78 824.942,47.2441 
  "/>
<polyline clip-path="url(#clip362)" style="stroke:#000000; stroke-linecap:butt; stroke-linejoin:round; stroke-width:2; stroke-opacity:0.1; fill:none" points="
  1407.89,1800.78 1407.89,47.2441 
  "/>
<polyline clip-path="url(#clip362)" style="stroke:#000000; stroke-linecap:butt; stroke-linejoin:round; stroke-width:2; stroke-opacity:0.1; fill:none" points="
  1990.83,1800.78 1990.83,47.2441 
  "/>
<polyline clip-path="url(#clip362)" style="stroke:#000000; stroke-linecap:butt; stroke-linejoin:round; stroke-width:2; stroke-opacity:0.1; fill:none" points="
  2573.77,1800.78 2573.77,47.2441 
  "/>
<polyline clip-path="url(#clip360)" style="stroke:#000000; stroke-linecap:butt; stroke-linejoin:round; stroke-width:4; stroke-opacity:1; fill:none" points="
  189.154,1800.78 2640.76,1800.78 
  "/>
<polyline clip-path="url(#clip360)" style="stroke:#000000; stroke-linecap:butt; stroke-linejoin:round; stroke-width:4; stroke-opacity:1; fill:none" points="
  241.997,1800.78 241.997,1781.88 
  "/>
<polyline clip-path="url(#clip360)" style="stroke:#000000; stroke-linecap:butt; stroke-linejoin:round; stroke-width:4; stroke-opacity:1; fill:none" points="
  824.942,1800.78 824.942,1781.88 
  "/>
<polyline clip-path="url(#clip360)" style="stroke:#000000; stroke-linecap:butt; stroke-linejoin:round; stroke-width:4; stroke-opacity:1; fill:none" points="
  1407.89,1800.78 1407.89,1781.88 
  "/>
<polyline clip-path="url(#clip360)" style="stroke:#000000; stroke-linecap:butt; stroke-linejoin:round; stroke-width:4; stroke-opacity:1; fill:none" points="
  1990.83,1800.78 1990.83,1781.88 
  "/>
<polyline clip-path="url(#clip360)" style="stroke:#000000; stroke-linecap:butt; stroke-linejoin:round; stroke-width:4; stroke-opacity:1; fill:none" points="
  2573.77,1800.78 2573.77,1781.88 
  "/>
<path clip-path="url(#clip360)" d="M204.301 1834 Q200.69 1834 198.861 1837.57 Q197.055 1841.11 197.055 1848.24 Q197.055 1855.34 198.861 1858.91 Q200.69 1862.45 204.301 1862.45 Q207.935 1862.45 209.74 1858.91 Q211.569 1855.34 211.569 1848.24 Q211.569 1841.11 209.74 1837.57 Q207.935 1834 204.301 1834 M204.301 1830.3 Q210.111 1830.3 213.166 1834.9 Q216.245 1839.49 216.245 1848.24 Q216.245 1856.96 213.166 1861.57 Q210.111 1866.15 204.301 1866.15 Q198.49 1866.15 195.412 1861.57 Q192.356 1856.96 192.356 1848.24 Q192.356 1839.49 195.412 1834.9 Q198.49 1830.3 204.301 1830.3 Z" fill="#000000" fill-rule="evenodd" fill-opacity="1" /><path clip-path="url(#clip360)" d="M224.463 1859.6 L229.347 1859.6 L229.347 1865.48 L224.463 1865.48 L224.463 1859.6 Z" fill="#000000" fill-rule="evenodd" fill-opacity="1" /><path clip-path="url(#clip360)" d="M249.532 1834 Q245.921 1834 244.092 1837.57 Q242.287 1841.11 242.287 1848.24 Q242.287 1855.34 244.092 1858.91 Q245.921 1862.45 249.532 1862.45 Q253.166 1862.45 254.972 1858.91 Q256.8 1855.34 256.8 1848.24 Q256.8 1841.11 254.972 1837.57 Q253.166 1834 249.532 1834 M249.532 1830.3 Q255.342 1830.3 258.398 1834.9 Q261.476 1839.49 261.476 1848.24 Q261.476 1856.96 258.398 1861.57 Q255.342 1866.15 249.532 1866.15 Q243.722 1866.15 240.643 1861.57 Q237.587 1856.96 237.587 1848.24 Q237.587 1839.49 240.643 1834.9 Q243.722 1830.3 249.532 1830.3 Z" fill="#000000" fill-rule="evenodd" fill-opacity="1" /><path clip-path="url(#clip360)" d="M279.694 1834 Q276.083 1834 274.254 1837.57 Q272.448 1841.11 272.448 1848.24 Q272.448 1855.34 274.254 1858.91 Q276.083 1862.45 279.694 1862.45 Q283.328 1862.45 285.134 1858.91 Q286.962 1855.34 286.962 1848.24 Q286.962 1841.11 285.134 1837.57 Q283.328 1834 279.694 1834 M279.694 1830.3 Q285.504 1830.3 288.559 1834.9 Q291.638 1839.49 291.638 1848.24 Q291.638 1856.96 288.559 1861.57 Q285.504 1866.15 279.694 1866.15 Q273.884 1866.15 270.805 1861.57 Q267.749 1856.96 267.749 1848.24 Q267.749 1839.49 270.805 1834.9 Q273.884 1830.3 279.694 1830.3 Z" fill="#000000" fill-rule="evenodd" fill-opacity="1" /><path clip-path="url(#clip360)" d="M787.743 1834 Q784.132 1834 782.303 1837.57 Q780.497 1841.11 780.497 1848.24 Q780.497 1855.34 782.303 1858.91 Q784.132 1862.45 787.743 1862.45 Q791.377 1862.45 793.183 1858.91 Q795.011 1855.34 795.011 1848.24 Q795.011 1841.11 793.183 1837.57 Q791.377 1834 787.743 1834 M787.743 1830.3 Q793.553 1830.3 796.608 1834.9 Q799.687 1839.49 799.687 1848.24 Q799.687 1856.96 796.608 1861.57 Q793.553 1866.15 787.743 1866.15 Q781.933 1866.15 778.854 1861.57 Q775.798 1856.96 775.798 1848.24 Q775.798 1839.49 778.854 1834.9 Q781.933 1830.3 787.743 1830.3 Z" fill="#000000" fill-rule="evenodd" fill-opacity="1" /><path clip-path="url(#clip360)" d="M807.905 1859.6 L812.789 1859.6 L812.789 1865.48 L807.905 1865.48 L807.905 1859.6 Z" fill="#000000" fill-rule="evenodd" fill-opacity="1" /><path clip-path="url(#clip360)" d="M827.002 1861.55 L843.321 1861.55 L843.321 1865.48 L821.377 1865.48 L821.377 1861.55 Q824.039 1858.79 828.622 1854.16 Q833.229 1849.51 834.409 1848.17 Q836.655 1845.65 837.534 1843.91 Q838.437 1842.15 838.437 1840.46 Q838.437 1837.71 836.492 1835.97 Q834.571 1834.23 831.469 1834.23 Q829.27 1834.23 826.817 1835 Q824.386 1835.76 821.608 1837.31 L821.608 1832.59 Q824.432 1831.46 826.886 1830.88 Q829.34 1830.3 831.377 1830.3 Q836.747 1830.3 839.942 1832.98 Q843.136 1835.67 843.136 1840.16 Q843.136 1842.29 842.326 1844.21 Q841.539 1846.11 839.432 1848.7 Q838.854 1849.37 835.752 1852.59 Q832.65 1855.78 827.002 1861.55 Z" fill="#000000" fill-rule="evenodd" fill-opacity="1" /><path clip-path="url(#clip360)" d="M853.182 1830.92 L871.539 1830.92 L871.539 1834.86 L857.465 1834.86 L857.465 1843.33 Q858.483 1842.98 859.502 1842.82 Q860.52 1842.64 861.539 1842.64 Q867.326 1842.64 870.705 1845.81 Q874.085 1848.98 874.085 1854.4 Q874.085 1859.97 870.613 1863.08 Q867.14 1866.15 860.821 1866.15 Q858.645 1866.15 856.377 1865.78 Q854.131 1865.41 851.724 1864.67 L851.724 1859.97 Q853.807 1861.11 856.029 1861.66 Q858.252 1862.22 860.728 1862.22 Q864.733 1862.22 867.071 1860.11 Q869.409 1858.01 869.409 1854.4 Q869.409 1850.78 867.071 1848.68 Q864.733 1846.57 860.728 1846.57 Q858.853 1846.57 856.978 1846.99 Q855.127 1847.4 853.182 1848.28 L853.182 1830.92 Z" fill="#000000" fill-rule="evenodd" fill-opacity="1" /><path clip-path="url(#clip360)" d="M1370.19 1834 Q1366.58 1834 1364.75 1837.57 Q1362.94 1841.11 1362.94 1848.24 Q1362.94 1855.34 1364.75 1858.91 Q1366.58 1862.45 1370.19 1862.45 Q1373.82 1862.45 1375.63 1858.91 Q1377.46 1855.34 1377.46 1848.24 Q1377.46 1841.11 1375.63 1837.57 Q1373.82 1834 1370.19 1834 M1370.19 1830.3 Q1376 1830.3 1379.06 1834.9 Q1382.13 1839.49 1382.13 1848.24 Q1382.13 1856.96 1379.06 1861.57 Q1376 1866.15 1370.19 1866.15 Q1364.38 1866.15 1361.3 1861.57 Q1358.25 1856.96 1358.25 1848.24 Q1358.25 1839.49 1361.3 1834.9 Q1364.38 1830.3 1370.19 1830.3 Z" fill="#000000" fill-rule="evenodd" fill-opacity="1" /><path clip-path="url(#clip360)" d="M1390.35 1859.6 L1395.24 1859.6 L1395.24 1865.48 L1390.35 1865.48 L1390.35 1859.6 Z" fill="#000000" fill-rule="evenodd" fill-opacity="1" /><path clip-path="url(#clip360)" d="M1405.47 1830.92 L1423.82 1830.92 L1423.82 1834.86 L1409.75 1834.86 L1409.75 1843.33 Q1410.77 1842.98 1411.79 1842.82 Q1412.81 1842.64 1413.82 1842.64 Q1419.61 1842.64 1422.99 1845.81 Q1426.37 1848.98 1426.37 1854.4 Q1426.37 1859.97 1422.9 1863.08 Q1419.43 1866.15 1413.11 1866.15 Q1410.93 1866.15 1408.66 1865.78 Q1406.42 1865.41 1404.01 1864.67 L1404.01 1859.97 Q1406.09 1861.11 1408.31 1861.66 Q1410.54 1862.22 1413.01 1862.22 Q1417.02 1862.22 1419.36 1860.11 Q1421.69 1858.01 1421.69 1854.4 Q1421.69 1850.78 1419.36 1848.68 Q1417.02 1846.57 1413.01 1846.57 Q1411.14 1846.57 1409.26 1846.99 Q1407.41 1847.4 1405.47 1848.28 L1405.47 1830.92 Z" fill="#000000" fill-rule="evenodd" fill-opacity="1" /><path clip-path="url(#clip360)" d="M1445.58 1834 Q1441.97 1834 1440.14 1837.57 Q1438.34 1841.11 1438.34 1848.24 Q1438.34 1855.34 1440.14 1858.91 Q1441.97 1862.45 1445.58 1862.45 Q1449.22 1862.45 1451.02 1858.91 Q1452.85 1855.34 1452.85 1848.24 Q1452.85 1841.11 1451.02 1837.57 Q1449.22 1834 1445.58 1834 M1445.58 1830.3 Q1451.39 1830.3 1454.45 1834.9 Q1457.53 1839.49 1457.53 1848.24 Q1457.53 1856.96 1454.45 1861.57 Q1451.39 1866.15 1445.58 1866.15 Q1439.77 1866.15 1436.69 1861.57 Q1433.64 1856.96 1433.64 1848.24 Q1433.64 1839.49 1436.69 1834.9 Q1439.77 1830.3 1445.58 1830.3 Z" fill="#000000" fill-rule="evenodd" fill-opacity="1" /><path clip-path="url(#clip360)" d="M1953.63 1834 Q1950.02 1834 1948.19 1837.57 Q1946.39 1841.11 1946.39 1848.24 Q1946.39 1855.34 1948.19 1858.91 Q1950.02 1862.45 1953.63 1862.45 Q1957.27 1862.45 1959.07 1858.91 Q1960.9 1855.34 1960.9 1848.24 Q1960.9 1841.11 1959.07 1837.57 Q1957.27 1834 1953.63 1834 M1953.63 1830.3 Q1959.44 1830.3 1962.5 1834.9 Q1965.58 1839.49 1965.58 1848.24 Q1965.58 1856.96 1962.5 1861.57 Q1959.44 1866.15 1953.63 1866.15 Q1947.82 1866.15 1944.74 1861.57 Q1941.69 1856.96 1941.69 1848.24 Q1941.69 1839.49 1944.74 1834.9 Q1947.82 1830.3 1953.63 1830.3 Z" fill="#000000" fill-rule="evenodd" fill-opacity="1" /><path clip-path="url(#clip360)" d="M1973.79 1859.6 L1978.68 1859.6 L1978.68 1865.48 L1973.79 1865.48 L1973.79 1859.6 Z" fill="#000000" fill-rule="evenodd" fill-opacity="1" /><path clip-path="url(#clip360)" d="M1987.68 1830.92 L2009.9 1830.92 L2009.9 1832.91 L1997.36 1865.48 L1992.47 1865.48 L2004.28 1834.86 L1987.68 1834.86 L1987.68 1830.92 Z" fill="#000000" fill-rule="evenodd" fill-opacity="1" /><path clip-path="url(#clip360)" d="M2019.07 1830.92 L2037.43 1830.92 L2037.43 1834.86 L2023.35 1834.86 L2023.35 1843.33 Q2024.37 1842.98 2025.39 1842.82 Q2026.41 1842.64 2027.43 1842.64 Q2033.21 1842.64 2036.59 1845.81 Q2039.97 1848.98 2039.97 1854.4 Q2039.97 1859.97 2036.5 1863.08 Q2033.03 1866.15 2026.71 1866.15 Q2024.53 1866.15 2022.27 1865.78 Q2020.02 1865.41 2017.61 1864.67 L2017.61 1859.97 Q2019.7 1861.11 2021.92 1861.66 Q2024.14 1862.22 2026.62 1862.22 Q2030.62 1862.22 2032.96 1860.11 Q2035.3 1858.01 2035.3 1854.4 Q2035.3 1850.78 2032.96 1848.68 Q2030.62 1846.57 2026.62 1846.57 Q2024.74 1846.57 2022.87 1846.99 Q2021.02 1847.4 2019.07 1848.28 L2019.07 1830.92 Z" fill="#000000" fill-rule="evenodd" fill-opacity="1" /><path clip-path="url(#clip360)" d="M2525.85 1861.55 L2533.49 1861.55 L2533.49 1835.18 L2525.18 1836.85 L2525.18 1832.59 L2533.44 1830.92 L2538.12 1830.92 L2538.12 1861.55 L2545.75 1861.55 L2545.75 1865.48 L2525.85 1865.48 L2525.85 1861.55 Z" fill="#000000" fill-rule="evenodd" fill-opacity="1" /><path clip-path="url(#clip360)" d="M2555.2 1859.6 L2560.08 1859.6 L2560.08 1865.48 L2555.2 1865.48 L2555.2 1859.6 Z" fill="#000000" fill-rule="evenodd" fill-opacity="1" /><path clip-path="url(#clip360)" d="M2580.27 1834 Q2576.66 1834 2574.83 1837.57 Q2573.02 1841.11 2573.02 1848.24 Q2573.02 1855.34 2574.83 1858.91 Q2576.66 1862.45 2580.27 1862.45 Q2583.9 1862.45 2585.71 1858.91 Q2587.54 1855.34 2587.54 1848.24 Q2587.54 1841.11 2585.71 1837.57 Q2583.9 1834 2580.27 1834 M2580.27 1830.3 Q2586.08 1830.3 2589.13 1834.9 Q2592.21 1839.49 2592.21 1848.24 Q2592.21 1856.96 2589.13 1861.57 Q2586.08 1866.15 2580.27 1866.15 Q2574.46 1866.15 2571.38 1861.57 Q2568.32 1856.96 2568.32 1848.24 Q2568.32 1839.49 2571.38 1834.9 Q2574.46 1830.3 2580.27 1830.3 Z" fill="#000000" fill-rule="evenodd" fill-opacity="1" /><path clip-path="url(#clip360)" d="M2610.43 1834 Q2606.82 1834 2604.99 1837.57 Q2603.18 1841.11 2603.18 1848.24 Q2603.18 1855.34 2604.99 1858.91 Q2606.82 1862.45 2610.43 1862.45 Q2614.06 1862.45 2615.87 1858.91 Q2617.7 1855.34 2617.7 1848.24 Q2617.7 1841.11 2615.87 1837.57 Q2614.06 1834 2610.43 1834 M2610.43 1830.3 Q2616.24 1830.3 2619.3 1834.9 Q2622.37 1839.49 2622.37 1848.24 Q2622.37 1856.96 2619.3 1861.57 Q2616.24 1866.15 2610.43 1866.15 Q2604.62 1866.15 2601.54 1861.57 Q2598.49 1856.96 2598.49 1848.24 Q2598.49 1839.49 2601.54 1834.9 Q2604.62 1830.3 2610.43 1830.3 Z" fill="#000000" fill-rule="evenodd" fill-opacity="1" /><polyline clip-path="url(#clip362)" style="stroke:#000000; stroke-linecap:butt; stroke-linejoin:round; stroke-width:2; stroke-opacity:0.1; fill:none" points="
  189.154,1758.74 2640.76,1758.74 
  "/>
<polyline clip-path="url(#clip362)" style="stroke:#000000; stroke-linecap:butt; stroke-linejoin:round; stroke-width:2; stroke-opacity:0.1; fill:none" points="
  189.154,1337.44 2640.76,1337.44 
  "/>
<polyline clip-path="url(#clip362)" style="stroke:#000000; stroke-linecap:butt; stroke-linejoin:round; stroke-width:2; stroke-opacity:0.1; fill:none" points="
  189.154,916.133 2640.76,916.133 
  "/>
<polyline clip-path="url(#clip362)" style="stroke:#000000; stroke-linecap:butt; stroke-linejoin:round; stroke-width:2; stroke-opacity:0.1; fill:none" points="
  189.154,494.83 2640.76,494.83 
  "/>
<polyline clip-path="url(#clip362)" style="stroke:#000000; stroke-linecap:butt; stroke-linejoin:round; stroke-width:2; stroke-opacity:0.1; fill:none" points="
  189.154,73.5277 2640.76,73.5277 
  "/>
<polyline clip-path="url(#clip360)" style="stroke:#000000; stroke-linecap:butt; stroke-linejoin:round; stroke-width:4; stroke-opacity:1; fill:none" points="
  189.154,1800.78 189.154,47.2441 
  "/>
<polyline clip-path="url(#clip360)" style="stroke:#000000; stroke-linecap:butt; stroke-linejoin:round; stroke-width:4; stroke-opacity:1; fill:none" points="
  189.154,1758.74 208.052,1758.74 
  "/>
<polyline clip-path="url(#clip360)" style="stroke:#000000; stroke-linecap:butt; stroke-linejoin:round; stroke-width:4; stroke-opacity:1; fill:none" points="
  189.154,1337.44 208.052,1337.44 
  "/>
<polyline clip-path="url(#clip360)" style="stroke:#000000; stroke-linecap:butt; stroke-linejoin:round; stroke-width:4; stroke-opacity:1; fill:none" points="
  189.154,916.133 208.052,916.133 
  "/>
<polyline clip-path="url(#clip360)" style="stroke:#000000; stroke-linecap:butt; stroke-linejoin:round; stroke-width:4; stroke-opacity:1; fill:none" points="
  189.154,494.83 208.052,494.83 
  "/>
<polyline clip-path="url(#clip360)" style="stroke:#000000; stroke-linecap:butt; stroke-linejoin:round; stroke-width:4; stroke-opacity:1; fill:none" points="
  189.154,73.5277 208.052,73.5277 
  "/>
<path clip-path="url(#clip360)" d="M61.4965 1744.54 Q57.8854 1744.54 56.0567 1748.1 Q54.2512 1751.64 54.2512 1758.77 Q54.2512 1765.88 56.0567 1769.44 Q57.8854 1772.99 61.4965 1772.99 Q65.1307 1772.99 66.9363 1769.44 Q68.765 1765.88 68.765 1758.77 Q68.765 1751.64 66.9363 1748.1 Q65.1307 1744.54 61.4965 1744.54 M61.4965 1740.83 Q67.3067 1740.83 70.3622 1745.44 Q73.4409 1750.02 73.4409 1758.77 Q73.4409 1767.5 70.3622 1772.11 Q67.3067 1776.69 61.4965 1776.69 Q55.6864 1776.69 52.6077 1772.11 Q49.5521 1767.5 49.5521 1758.77 Q49.5521 1750.02 52.6077 1745.44 Q55.6864 1740.83 61.4965 1740.83 Z" fill="#000000" fill-rule="evenodd" fill-opacity="1" /><path clip-path="url(#clip360)" d="M81.6584 1770.14 L86.5427 1770.14 L86.5427 1776.02 L81.6584 1776.02 L81.6584 1770.14 Z" fill="#000000" fill-rule="evenodd" fill-opacity="1" /><path clip-path="url(#clip360)" d="M106.728 1744.54 Q103.117 1744.54 101.288 1748.1 Q99.4824 1751.64 99.4824 1758.77 Q99.4824 1765.88 101.288 1769.44 Q103.117 1772.99 106.728 1772.99 Q110.362 1772.99 112.168 1769.44 Q113.996 1765.88 113.996 1758.77 Q113.996 1751.64 112.168 1748.1 Q110.362 1744.54 106.728 1744.54 M106.728 1740.83 Q112.538 1740.83 115.593 1745.44 Q118.672 1750.02 118.672 1758.77 Q118.672 1767.5 115.593 1772.11 Q112.538 1776.69 106.728 1776.69 Q100.918 1776.69 97.8389 1772.11 Q94.7834 1767.5 94.7834 1758.77 Q94.7834 1750.02 97.8389 1745.44 Q100.918 1740.83 106.728 1740.83 Z" fill="#000000" fill-rule="evenodd" fill-opacity="1" /><path clip-path="url(#clip360)" d="M136.89 1744.54 Q133.279 1744.54 131.45 1748.1 Q129.644 1751.64 129.644 1758.77 Q129.644 1765.88 131.45 1769.44 Q133.279 1772.99 136.89 1772.99 Q140.524 1772.99 142.329 1769.44 Q144.158 1765.88 144.158 1758.77 Q144.158 1751.64 142.329 1748.1 Q140.524 1744.54 136.89 1744.54 M136.89 1740.83 Q142.7 1740.83 145.755 1745.44 Q148.834 1750.02 148.834 1758.77 Q148.834 1767.5 145.755 1772.11 Q142.7 1776.69 136.89 1776.69 Q131.079 1776.69 128.001 1772.11 Q124.945 1767.5 124.945 1758.77 Q124.945 1750.02 128.001 1745.44 Q131.079 1740.83 136.89 1740.83 Z" fill="#000000" fill-rule="evenodd" fill-opacity="1" /><path clip-path="url(#clip360)" d="M62.4919 1323.23 Q58.8808 1323.23 57.0521 1326.8 Q55.2465 1330.34 55.2465 1337.47 Q55.2465 1344.58 57.0521 1348.14 Q58.8808 1351.68 62.4919 1351.68 Q66.1261 1351.68 67.9317 1348.14 Q69.7604 1344.58 69.7604 1337.47 Q69.7604 1330.34 67.9317 1326.8 Q66.1261 1323.23 62.4919 1323.23 M62.4919 1319.53 Q68.302 1319.53 71.3576 1324.14 Q74.4363 1328.72 74.4363 1337.47 Q74.4363 1346.2 71.3576 1350.8 Q68.302 1355.39 62.4919 1355.39 Q56.6817 1355.39 53.603 1350.8 Q50.5475 1346.2 50.5475 1337.47 Q50.5475 1328.72 53.603 1324.14 Q56.6817 1319.53 62.4919 1319.53 Z" fill="#000000" fill-rule="evenodd" fill-opacity="1" /><path clip-path="url(#clip360)" d="M82.6538 1348.84 L87.538 1348.84 L87.538 1354.72 L82.6538 1354.72 L82.6538 1348.84 Z" fill="#000000" fill-rule="evenodd" fill-opacity="1" /><path clip-path="url(#clip360)" d="M101.751 1350.78 L118.07 1350.78 L118.07 1354.72 L96.126 1354.72 L96.126 1350.78 Q98.788 1348.03 103.371 1343.4 Q107.978 1338.74 109.158 1337.4 Q111.404 1334.88 112.283 1333.14 Q113.186 1331.38 113.186 1329.69 Q113.186 1326.94 111.242 1325.2 Q109.32 1323.47 106.218 1323.47 Q104.019 1323.47 101.566 1324.23 Q99.1352 1324.99 96.3574 1326.54 L96.3574 1321.82 Q99.1815 1320.69 101.635 1320.11 Q104.089 1319.53 106.126 1319.53 Q111.496 1319.53 114.691 1322.22 Q117.885 1324.9 117.885 1329.39 Q117.885 1331.52 117.075 1333.44 Q116.288 1335.34 114.181 1337.93 Q113.603 1338.6 110.501 1341.82 Q107.399 1345.02 101.751 1350.78 Z" fill="#000000" fill-rule="evenodd" fill-opacity="1" /><path clip-path="url(#clip360)" d="M127.931 1320.16 L146.288 1320.16 L146.288 1324.09 L132.214 1324.09 L132.214 1332.56 Q133.232 1332.22 134.251 1332.05 Q135.269 1331.87 136.288 1331.87 Q142.075 1331.87 145.454 1335.04 Q148.834 1338.21 148.834 1343.63 Q148.834 1349.21 145.362 1352.31 Q141.89 1355.39 135.57 1355.39 Q133.394 1355.39 131.126 1355.02 Q128.88 1354.65 126.473 1353.9 L126.473 1349.21 Q128.556 1350.34 130.779 1350.9 Q133.001 1351.45 135.478 1351.45 Q139.482 1351.45 141.82 1349.34 Q144.158 1347.24 144.158 1343.63 Q144.158 1340.02 141.82 1337.91 Q139.482 1335.8 135.478 1335.8 Q133.603 1335.8 131.728 1336.22 Q129.876 1336.64 127.931 1337.52 L127.931 1320.16 Z" fill="#000000" fill-rule="evenodd" fill-opacity="1" /><path clip-path="url(#clip360)" d="M61.4965 901.931 Q57.8854 901.931 56.0567 905.496 Q54.2512 909.038 54.2512 916.167 Q54.2512 923.274 56.0567 926.839 Q57.8854 930.38 61.4965 930.38 Q65.1307 930.38 66.9363 926.839 Q68.765 923.274 68.765 916.167 Q68.765 909.038 66.9363 905.496 Q65.1307 901.931 61.4965 901.931 M61.4965 898.228 Q67.3067 898.228 70.3622 902.834 Q73.4409 907.417 73.4409 916.167 Q73.4409 924.894 70.3622 929.501 Q67.3067 934.084 61.4965 934.084 Q55.6864 934.084 52.6077 929.501 Q49.5521 924.894 49.5521 916.167 Q49.5521 907.417 52.6077 902.834 Q55.6864 898.228 61.4965 898.228 Z" fill="#000000" fill-rule="evenodd" fill-opacity="1" /><path clip-path="url(#clip360)" d="M81.6584 927.533 L86.5427 927.533 L86.5427 933.413 L81.6584 933.413 L81.6584 927.533 Z" fill="#000000" fill-rule="evenodd" fill-opacity="1" /><path clip-path="url(#clip360)" d="M96.7741 898.853 L115.13 898.853 L115.13 902.788 L101.056 902.788 L101.056 911.26 Q102.075 910.913 103.094 910.751 Q104.112 910.566 105.131 910.566 Q110.918 910.566 114.297 913.737 Q117.677 916.908 117.677 922.325 Q117.677 927.903 114.205 931.005 Q110.732 934.084 104.413 934.084 Q102.237 934.084 99.9685 933.714 Q97.7232 933.343 95.3158 932.602 L95.3158 927.903 Q97.3991 929.038 99.6213 929.593 Q101.844 930.149 104.32 930.149 Q108.325 930.149 110.663 928.042 Q113.001 925.936 113.001 922.325 Q113.001 918.714 110.663 916.607 Q108.325 914.501 104.32 914.501 Q102.445 914.501 100.57 914.917 Q98.7185 915.334 96.7741 916.214 L96.7741 898.853 Z" fill="#000000" fill-rule="evenodd" fill-opacity="1" /><path clip-path="url(#clip360)" d="M136.89 901.931 Q133.279 901.931 131.45 905.496 Q129.644 909.038 129.644 916.167 Q129.644 923.274 131.45 926.839 Q133.279 930.38 136.89 930.38 Q140.524 930.38 142.329 926.839 Q144.158 923.274 144.158 916.167 Q144.158 909.038 142.329 905.496 Q140.524 901.931 136.89 901.931 M136.89 898.228 Q142.7 898.228 145.755 902.834 Q148.834 907.417 148.834 916.167 Q148.834 924.894 145.755 929.501 Q142.7 934.084 136.89 934.084 Q131.079 934.084 128.001 929.501 Q124.945 924.894 124.945 916.167 Q124.945 907.417 128.001 902.834 Q131.079 898.228 136.89 898.228 Z" fill="#000000" fill-rule="evenodd" fill-opacity="1" /><path clip-path="url(#clip360)" d="M62.4919 480.629 Q58.8808 480.629 57.0521 484.194 Q55.2465 487.735 55.2465 494.865 Q55.2465 501.971 57.0521 505.536 Q58.8808 509.078 62.4919 509.078 Q66.1261 509.078 67.9317 505.536 Q69.7604 501.971 69.7604 494.865 Q69.7604 487.735 67.9317 484.194 Q66.1261 480.629 62.4919 480.629 M62.4919 476.925 Q68.302 476.925 71.3576 481.532 Q74.4363 486.115 74.4363 494.865 Q74.4363 503.592 71.3576 508.198 Q68.302 512.781 62.4919 512.781 Q56.6817 512.781 53.603 508.198 Q50.5475 503.592 50.5475 494.865 Q50.5475 486.115 53.603 481.532 Q56.6817 476.925 62.4919 476.925 Z" fill="#000000" fill-rule="evenodd" fill-opacity="1" /><path clip-path="url(#clip360)" d="M82.6538 506.231 L87.538 506.231 L87.538 512.11 L82.6538 512.11 L82.6538 506.231 Z" fill="#000000" fill-rule="evenodd" fill-opacity="1" /><path clip-path="url(#clip360)" d="M96.5426 477.55 L118.765 477.55 L118.765 479.541 L106.218 512.11 L101.334 512.11 L113.14 481.485 L96.5426 481.485 L96.5426 477.55 Z" fill="#000000" fill-rule="evenodd" fill-opacity="1" /><path clip-path="url(#clip360)" d="M127.931 477.55 L146.288 477.55 L146.288 481.485 L132.214 481.485 L132.214 489.958 Q133.232 489.61 134.251 489.448 Q135.269 489.263 136.288 489.263 Q142.075 489.263 145.454 492.434 Q148.834 495.606 148.834 501.022 Q148.834 506.601 145.362 509.703 Q141.89 512.781 135.57 512.781 Q133.394 512.781 131.126 512.411 Q128.88 512.041 126.473 511.3 L126.473 506.601 Q128.556 507.735 130.779 508.291 Q133.001 508.846 135.478 508.846 Q139.482 508.846 141.82 506.74 Q144.158 504.633 144.158 501.022 Q144.158 497.411 141.82 495.305 Q139.482 493.198 135.478 493.198 Q133.603 493.198 131.728 493.615 Q129.876 494.032 127.931 494.911 L127.931 477.55 Z" fill="#000000" fill-rule="evenodd" fill-opacity="1" /><path clip-path="url(#clip360)" d="M52.3067 86.8725 L59.9456 86.8725 L59.9456 60.5069 L51.6354 62.1736 L51.6354 57.9144 L59.8993 56.2477 L64.5752 56.2477 L64.5752 86.8725 L72.214 86.8725 L72.214 90.8077 L52.3067 90.8077 L52.3067 86.8725 Z" fill="#000000" fill-rule="evenodd" fill-opacity="1" /><path clip-path="url(#clip360)" d="M81.6584 84.9281 L86.5427 84.9281 L86.5427 90.8077 L81.6584 90.8077 L81.6584 84.9281 Z" fill="#000000" fill-rule="evenodd" fill-opacity="1" /><path clip-path="url(#clip360)" d="M106.728 59.3264 Q103.117 59.3264 101.288 62.8912 Q99.4824 66.4328 99.4824 73.5624 Q99.4824 80.6689 101.288 84.2337 Q103.117 87.7753 106.728 87.7753 Q110.362 87.7753 112.168 84.2337 Q113.996 80.6689 113.996 73.5624 Q113.996 66.4328 112.168 62.8912 Q110.362 59.3264 106.728 59.3264 M106.728 55.6227 Q112.538 55.6227 115.593 60.2292 Q118.672 64.8125 118.672 73.5624 Q118.672 82.2892 115.593 86.8957 Q112.538 91.479 106.728 91.479 Q100.918 91.479 97.8389 86.8957 Q94.7834 82.2892 94.7834 73.5624 Q94.7834 64.8125 97.8389 60.2292 Q100.918 55.6227 106.728 55.6227 Z" fill="#000000" fill-rule="evenodd" fill-opacity="1" /><path clip-path="url(#clip360)" d="M136.89 59.3264 Q133.279 59.3264 131.45 62.8912 Q129.644 66.4328 129.644 73.5624 Q129.644 80.6689 131.45 84.2337 Q133.279 87.7753 136.89 87.7753 Q140.524 87.7753 142.329 84.2337 Q144.158 80.6689 144.158 73.5624 Q144.158 66.4328 142.329 62.8912 Q140.524 59.3264 136.89 59.3264 M136.89 55.6227 Q142.7 55.6227 145.755 60.2292 Q148.834 64.8125 148.834 73.5624 Q148.834 82.2892 145.755 86.8957 Q142.7 91.479 136.89 91.479 Q131.079 91.479 128.001 86.8957 Q124.945 82.2892 124.945 73.5624 Q124.945 64.8125 128.001 60.2292 Q131.079 55.6227 136.89 55.6227 Z" fill="#000000" fill-rule="evenodd" fill-opacity="1" /><polyline clip-path="url(#clip362)" style="stroke:#009af9; stroke-linecap:butt; stroke-linejoin:round; stroke-width:4; stroke-opacity:1; fill:none" points="
  1236.93,1189.77 1704.51,904.47 2042.06,1466.72 1224.54,101.497 826.42,684.44 2504.25,209.768 1056.01,1507.55 771.87,384.005 1819.8,693.637 994.912,304.721 
  860.67,567.553 2519.87,629.174 1971.06,1261.53 2489.79,417.796 2025.31,1592.37 1003.96,171.273 430.76,635.142 1304.21,840.668 464.23,1598.35 727.619,329.158 
  2135.77,1267.82 2195.96,1279.04 2021.99,740.936 925.742,972.249 2283.62,1567.93 2387.71,1423.66 2497.59,1273.97 1275.85,1096.05 1213.75,1179.35 908.861,994.595 
  2270.56,571.725 719.384,1549.18 1576.46,1283.39 1295.86,1139.54 942.208,126.735 867.964,1150.66 750.076,960.814 1104.43,568.265 607.14,1501.83 1918.79,1631.61 
  672.635,365.646 1977.66,1585.42 980.94,246.903 1794.21,1296.01 2279.31,135.638 1869.17,1513.94 2549.33,1369.29 1727.43,617.806 1179.3,183.987 1067.89,819.206 
  1167.27,957.953 768.196,96.8724 1993.39,247.889 1744.72,1440.71 2112.23,620.326 1203.9,815.689 1113.94,1576.59 1856.49,170.218 1299.73,681.204 1204.62,611.95 
  2546.85,190.525 805.997,1620.85 349.942,385.024 2297.99,762.984 2420.82,698.214 528.658,412.604 2571.37,1675.3 1276.23,1687.25 698.362,984.781 272.85,282.453 
  1520.38,628.053 2430.67,1469.96 2232.59,482.038 2218.63,102.848 2179.94,745.698 688.049,1136.54 1178.15,436.598 653.775,1532.89 1956.18,1099.02 1467.63,398.469 
  1399.11,1464.59 1720.86,859.259 658.505,1701.01 413.322,1024.11 1311.59,1602.97 1701.57,406.346 508.647,1751.15 464.184,1257.93 1253.44,767.546 989.669,622.443 
  1525.05,248.32 1484.93,205.179 1093.91,476.842 1026.01,1080.8 1361.1,353.751 2346.14,1537.57 258.539,799.765 1906.26,1453.57 2229.76,975.162 2274.14,361.414 
  
  "/>
<path clip-path="url(#clip360)" d="
M270.874 209.375 L568.465 209.375 L568.465 105.695 L270.874 105.695  Z
  " fill="#ffffff" fill-rule="evenodd" fill-opacity="1"/>
<polyline clip-path="url(#clip360)" style="stroke:#000000; stroke-linecap:butt; stroke-linejoin:round; stroke-width:4; stroke-opacity:1; fill:none" points="
  270.874,209.375 568.465,209.375 568.465,105.695 270.874,105.695 270.874,209.375 
  "/>
<polyline clip-path="url(#clip360)" style="stroke:#009af9; stroke-linecap:butt; stroke-linejoin:round; stroke-width:4; stroke-opacity:1; fill:none" points="
  298.114,157.535 461.554,157.535 
  "/>
<path clip-path="url(#clip360)" d="M502.637 177.223 Q500.831 181.852 499.118 183.264 Q497.405 184.676 494.535 184.676 L491.132 184.676 L491.132 181.112 L493.632 181.112 Q495.391 181.112 496.364 180.278 Q497.336 179.445 498.516 176.343 L499.28 174.399 L488.794 148.889 L493.308 148.889 L501.41 169.167 L509.512 148.889 L514.026 148.889 L502.637 177.223 Z" fill="#000000" fill-rule="evenodd" fill-opacity="1" /><path clip-path="url(#clip360)" d="M521.317 170.88 L528.956 170.88 L528.956 144.515 L520.646 146.181 L520.646 141.922 L528.91 140.255 L533.586 140.255 L533.586 170.88 L541.225 170.88 L541.225 174.815 L521.317 174.815 L521.317 170.88 Z" fill="#000000" fill-rule="evenodd" fill-opacity="1" /></svg>
