<?xml version="1.0" encoding="utf-8"?>
<svg xmlns="http://www.w3.org/2000/svg" xmlns:xlink="http://www.w3.org/1999/xlink" width="672" height="480" viewBox="0 0 2688 1920">
<defs>
  <clipPath id="clip400">
    <rect x="0" y="0" width="2688" height="1920"/>
  </clipPath>
</defs>
<path clip-path="url(#clip400)" d="
M0 1920 L2688 1920 L2688 0 L0 0  Z
  " fill="#ffffff" fill-rule="evenodd" fill-opacity="1"/>
<defs>
  <clipPath id="clip401">
    <rect x="537" y="0" width="1883" height="1883"/>
  </clipPath>
</defs>
<path clip-path="url(#clip400)" d="
M189.154 1800.78 L2640.76 1800.78 L2640.76 47.2441 L189.154 47.2441  Z
  " fill="#ffffff" fill-rule="evenodd" fill-opacity="1"/>
<defs>
  <clipPath id="clip402">
    <rect x="189" y="47" width="2453" height="1755"/>
  </clipPath>
</defs>
<polyline clip-path="url(#clip402)" style="stroke:#000000; stroke-linecap:butt; stroke-linejoin:round; stroke-width:2; stroke-opacity:0.1; fill:none" points="
  246.816,1800.78 246.816,47.2441 
  "/>
<polyline clip-path="url(#clip402)" style="stroke:#000000; stroke-linecap:butt; stroke-linejoin:round; stroke-width:2; stroke-opacity:0.1; fill:none" points="
  831.138,1800.78 831.138,47.2441 
  "/>
<polyline clip-path="url(#clip402)" style="stroke:#000000; stroke-linecap:butt; stroke-linejoin:round; stroke-width:2; stroke-opacity:0.1; fill:none" points="
  1415.46,1800.78 1415.46,47.2441 
  "/>
<polyline clip-path="url(#clip402)" style="stroke:#000000; stroke-linecap:butt; stroke-linejoin:round; stroke-width:2; stroke-opacity:0.1; fill:none" points="
  1999.78,1800.78 1999.78,47.2441 
  "/>
<polyline clip-path="url(#clip402)" style="stroke:#000000; stroke-linecap:butt; stroke-linejoin:round; stroke-width:2; stroke-opacity:0.1; fill:none" points="
  2584.1,1800.78 2584.1,47.2441 
  "/>
<polyline clip-path="url(#clip400)" style="stroke:#000000; stroke-linecap:butt; stroke-linejoin:round; stroke-width:4; stroke-opacity:1; fill:none" points="
  189.154,1800.78 2640.76,1800.78 
  "/>
<polyline clip-path="url(#clip400)" style="stroke:#000000; stroke-linecap:butt; stroke-linejoin:round; stroke-width:4; stroke-opacity:1; fill:none" points="
  246.816,1800.78 246.816,1781.88 
  "/>
<polyline clip-path="url(#clip400)" style="stroke:#000000; stroke-linecap:butt; stroke-linejoin:round; stroke-width:4; stroke-opacity:1; fill:none" points="
  831.138,1800.78 831.138,1781.88 
  "/>
<polyline clip-path="url(#clip400)" style="stroke:#000000; stroke-linecap:butt; stroke-linejoin:round; stroke-width:4; stroke-opacity:1; fill:none" points="
  1415.46,1800.78 1415.46,1781.88 
  "/>
<polyline clip-path="url(#clip400)" style="stroke:#000000; stroke-linecap:butt; stroke-linejoin:round; stroke-width:4; stroke-opacity:1; fill:none" points="
  1999.78,1800.78 1999.78,1781.88 
  "/>
<polyline clip-path="url(#clip400)" style="stroke:#000000; stroke-linecap:butt; stroke-linejoin:round; stroke-width:4; stroke-opacity:1; fill:none" points="
  2584.1,1800.78 2584.1,1781.88 
  "/>
<path clip-path="url(#clip400)" d="M209.119 1834 Q205.508 1834 203.679 1837.57 Q201.874 1841.11 201.874 1848.24 Q201.874 1855.34 203.679 1858.91 Q205.508 1862.45 209.119 1862.45 Q212.753 1862.45 214.559 1858.91 Q216.388 1855.34 216.388 1848.24 Q216.388 1841.11 214.559 1837.57 Q212.753 1834 209.119 1834 M209.119 1830.3 Q214.929 1830.3 217.985 1834.9 Q221.064 1839.49 221.064 1848.24 Q221.064 1856.96 217.985 1861.57 Q214.929 1866.15 209.119 1866.15 Q203.309 1866.15 200.23 1861.57 Q197.175 1856.96 197.175 1848.24 Q197.175 1839.49 200.23 1834.9 Q203.309 1830.3 209.119 1830.3 Z" fill="#000000" fill-rule="evenodd" fill-opacity="1" /><path clip-path="url(#clip400)" d="M229.281 1859.6 L234.165 1859.6 L234.165 1865.48 L229.281 1865.48 L229.281 1859.6 Z" fill="#000000" fill-rule="evenodd" fill-opacity="1" /><path clip-path="url(#clip400)" d="M254.35 1834 Q250.739 1834 248.911 1837.57 Q247.105 1841.11 247.105 1848.24 Q247.105 1855.34 248.911 1858.91 Q250.739 1862.45 254.35 1862.45 Q257.985 1862.45 259.79 1858.91 Q261.619 1855.34 261.619 1848.24 Q261.619 1841.11 259.79 1837.57 Q257.985 1834 254.35 1834 M254.35 1830.3 Q260.161 1830.3 263.216 1834.9 Q266.295 1839.49 266.295 1848.24 Q266.295 1856.96 263.216 1861.57 Q260.161 1866.15 254.35 1866.15 Q248.54 1866.15 245.462 1861.57 Q242.406 1856.96 242.406 1848.24 Q242.406 1839.49 245.462 1834.9 Q248.54 1830.3 254.35 1830.3 Z" fill="#000000" fill-rule="evenodd" fill-opacity="1" /><path clip-path="url(#clip400)" d="M284.512 1834 Q280.901 1834 279.072 1837.57 Q277.267 1841.11 277.267 1848.24 Q277.267 1855.34 279.072 1858.91 Q280.901 1862.45 284.512 1862.45 Q288.147 1862.45 289.952 1858.91 Q291.781 1855.34 291.781 1848.24 Q291.781 1841.11 289.952 1837.57 Q288.147 1834 284.512 1834 M284.512 1830.3 Q290.322 1830.3 293.378 1834.9 Q296.457 1839.49 296.457 1848.24 Q296.457 1856.96 293.378 1861.57 Q290.322 1866.15 284.512 1866.15 Q278.702 1866.15 275.623 1861.57 Q272.568 1856.96 272.568 1848.24 Q272.568 1839.49 275.623 1834.9 Q278.702 1830.3 284.512 1830.3 Z" fill="#000000" fill-rule="evenodd" fill-opacity="1" /><path clip-path="url(#clip400)" d="M793.939 1834 Q790.328 1834 788.499 1837.57 Q786.693 1841.11 786.693 1848.24 Q786.693 1855.34 788.499 1858.91 Q790.328 1862.45 793.939 1862.45 Q797.573 1862.45 799.379 1858.91 Q801.207 1855.34 801.207 1848.24 Q801.207 1841.11 799.379 1837.57 Q797.573 1834 793.939 1834 M793.939 1830.3 Q799.749 1830.3 802.804 1834.9 Q805.883 1839.49 805.883 1848.24 Q805.883 1856.96 802.804 1861.57 Q799.749 1866.15 793.939 1866.15 Q788.129 1866.15 785.05 1861.57 Q781.994 1856.96 781.994 1848.24 Q781.994 1839.49 785.05 1834.9 Q788.129 1830.3 793.939 1830.3 Z" fill="#000000" fill-rule="evenodd" fill-opacity="1" /><path clip-path="url(#clip400)" d="M814.101 1859.6 L818.985 1859.6 L818.985 1865.48 L814.101 1865.48 L814.101 1859.6 Z" fill="#000000" fill-rule="evenodd" fill-opacity="1" /><path clip-path="url(#clip400)" d="M833.198 1861.55 L849.517 1861.55 L849.517 1865.48 L827.573 1865.48 L827.573 1861.55 Q830.235 1858.79 834.818 1854.16 Q839.425 1849.51 840.605 1848.17 Q842.851 1845.65 843.73 1843.91 Q844.633 1842.15 844.633 1840.46 Q844.633 1837.71 842.689 1835.97 Q840.767 1834.23 837.665 1834.23 Q835.466 1834.23 833.013 1835 Q830.582 1835.76 827.804 1837.31 L827.804 1832.59 Q830.628 1831.46 833.082 1830.88 Q835.536 1830.3 837.573 1830.3 Q842.943 1830.3 846.138 1832.98 Q849.332 1835.67 849.332 1840.16 Q849.332 1842.29 848.522 1844.21 Q847.735 1846.11 845.628 1848.7 Q845.05 1849.37 841.948 1852.59 Q838.846 1855.78 833.198 1861.55 Z" fill="#000000" fill-rule="evenodd" fill-opacity="1" /><path clip-path="url(#clip400)" d="M859.378 1830.92 L877.735 1830.92 L877.735 1834.86 L863.661 1834.86 L863.661 1843.33 Q864.679 1842.98 865.698 1842.82 Q866.716 1842.64 867.735 1842.64 Q873.522 1842.64 876.901 1845.81 Q880.281 1848.98 880.281 1854.4 Q880.281 1859.97 876.809 1863.08 Q873.337 1866.15 867.017 1866.15 Q864.841 1866.15 862.573 1865.78 Q860.327 1865.41 857.92 1864.67 L857.92 1859.97 Q860.003 1861.11 862.225 1861.66 Q864.448 1862.22 866.925 1862.22 Q870.929 1862.22 873.267 1860.11 Q875.605 1858.01 875.605 1854.4 Q875.605 1850.78 873.267 1848.68 Q870.929 1846.57 866.925 1846.57 Q865.05 1846.57 863.175 1846.99 Q861.323 1847.4 859.378 1848.28 L859.378 1830.92 Z" fill="#000000" fill-rule="evenodd" fill-opacity="1" /><path clip-path="url(#clip400)" d="M1377.76 1834 Q1374.15 1834 1372.32 1837.57 Q1370.52 1841.11 1370.52 1848.24 Q1370.52 1855.34 1372.32 1858.91 Q1374.15 1862.45 1377.76 1862.45 Q1381.4 1862.45 1383.2 1858.91 Q1385.03 1855.34 1385.03 1848.24 Q1385.03 1841.11 1383.2 1837.57 Q1381.4 1834 1377.76 1834 M1377.76 1830.3 Q1383.57 1830.3 1386.63 1834.9 Q1389.71 1839.49 1389.71 1848.24 Q1389.71 1856.96 1386.63 1861.57 Q1383.57 1866.15 1377.76 1866.15 Q1371.95 1866.15 1368.87 1861.57 Q1365.82 1856.96 1365.82 1848.24 Q1365.82 1839.49 1368.87 1834.9 Q1371.95 1830.3 1377.76 1830.3 Z" fill="#000000" fill-rule="evenodd" fill-opacity="1" /><path clip-path="url(#clip400)" d="M1397.92 1859.6 L1402.81 1859.6 L1402.81 1865.48 L1397.92 1865.48 L1397.92 1859.6 Z" fill="#000000" fill-rule="evenodd" fill-opacity="1" /><path clip-path="url(#clip400)" d="M1413.04 1830.92 L1431.4 1830.92 L1431.4 1834.86 L1417.32 1834.86 L1417.32 1843.33 Q1418.34 1842.98 1419.36 1842.82 Q1420.38 1842.64 1421.4 1842.64 Q1427.18 1842.64 1430.56 1845.81 Q1433.94 1848.98 1433.94 1854.4 Q1433.94 1859.97 1430.47 1863.08 Q1427 1866.15 1420.68 1866.15 Q1418.5 1866.15 1416.24 1865.78 Q1413.99 1865.41 1411.58 1864.67 L1411.58 1859.97 Q1413.67 1861.11 1415.89 1861.66 Q1418.11 1862.22 1420.59 1862.22 Q1424.59 1862.22 1426.93 1860.11 Q1429.27 1858.01 1429.27 1854.4 Q1429.27 1850.78 1426.93 1848.68 Q1424.59 1846.57 1420.59 1846.57 Q1418.71 1846.57 1416.84 1846.99 Q1414.99 1847.4 1413.04 1848.28 L1413.04 1830.92 Z" fill="#000000" fill-rule="evenodd" fill-opacity="1" /><path clip-path="url(#clip400)" d="M1453.16 1834 Q1449.55 1834 1447.72 1837.57 Q1445.91 1841.11 1445.91 1848.24 Q1445.91 1855.34 1447.72 1858.91 Q1449.55 1862.45 1453.16 1862.45 Q1456.79 1862.45 1458.6 1858.91 Q1460.42 1855.34 1460.42 1848.24 Q1460.42 1841.11 1458.6 1837.57 Q1456.79 1834 1453.16 1834 M1453.16 1830.3 Q1458.97 1830.3 1462.02 1834.9 Q1465.1 1839.49 1465.1 1848.24 Q1465.1 1856.96 1462.02 1861.57 Q1458.97 1866.15 1453.16 1866.15 Q1447.35 1866.15 1444.27 1861.57 Q1441.21 1856.96 1441.21 1848.24 Q1441.21 1839.49 1444.27 1834.9 Q1447.35 1830.3 1453.16 1830.3 Z" fill="#000000" fill-rule="evenodd" fill-opacity="1" /><path clip-path="url(#clip400)" d="M1962.58 1834 Q1958.97 1834 1957.14 1837.57 Q1955.34 1841.11 1955.34 1848.24 Q1955.34 1855.34 1957.14 1858.91 Q1958.97 1862.45 1962.58 1862.45 Q1966.22 1862.45 1968.02 1858.91 Q1969.85 1855.34 1969.85 1848.24 Q1969.85 1841.11 1968.02 1837.57 Q1966.22 1834 1962.58 1834 M1962.58 1830.3 Q1968.39 1830.3 1971.45 1834.9 Q1974.53 1839.49 1974.53 1848.24 Q1974.53 1856.96 1971.45 1861.57 Q1968.39 1866.15 1962.58 1866.15 Q1956.77 1866.15 1953.69 1861.57 Q1950.64 1856.96 1950.64 1848.24 Q1950.64 1839.49 1953.69 1834.9 Q1956.77 1830.3 1962.58 1830.3 Z" fill="#000000" fill-rule="evenodd" fill-opacity="1" /><path clip-path="url(#clip400)" d="M1982.74 1859.6 L1987.63 1859.6 L1987.63 1865.48 L1982.74 1865.48 L1982.74 1859.6 Z" fill="#000000" fill-rule="evenodd" fill-opacity="1" /><path clip-path="url(#clip400)" d="M1996.63 1830.92 L2018.86 1830.92 L2018.86 1832.91 L2006.31 1865.48 L2001.43 1865.48 L2013.23 1834.86 L1996.63 1834.86 L1996.63 1830.92 Z" fill="#000000" fill-rule="evenodd" fill-opacity="1" /><path clip-path="url(#clip400)" d="M2028.02 1830.92 L2046.38 1830.92 L2046.38 1834.86 L2032.3 1834.86 L2032.3 1843.33 Q2033.32 1842.98 2034.34 1842.82 Q2035.36 1842.64 2036.38 1842.64 Q2042.17 1842.64 2045.55 1845.81 Q2048.92 1848.98 2048.92 1854.4 Q2048.92 1859.97 2045.45 1863.08 Q2041.98 1866.15 2035.66 1866.15 Q2033.49 1866.15 2031.22 1865.78 Q2028.97 1865.41 2026.56 1864.67 L2026.56 1859.97 Q2028.65 1861.11 2030.87 1861.66 Q2033.09 1862.22 2035.57 1862.22 Q2039.57 1862.22 2041.91 1860.11 Q2044.25 1858.01 2044.25 1854.4 Q2044.25 1850.78 2041.91 1848.68 Q2039.57 1846.57 2035.57 1846.57 Q2033.69 1846.57 2031.82 1846.99 Q2029.97 1847.4 2028.02 1848.28 L2028.02 1830.92 Z" fill="#000000" fill-rule="evenodd" fill-opacity="1" /><path clip-path="url(#clip400)" d="M2536.18 1861.55 L2543.81 1861.55 L2543.81 1835.18 L2535.5 1836.85 L2535.5 1832.59 L2543.77 1830.92 L2548.44 1830.92 L2548.44 1861.55 L2556.08 1861.55 L2556.08 1865.48 L2536.18 1865.48 L2536.18 1861.55 Z" fill="#000000" fill-rule="evenodd" fill-opacity="1" /><path clip-path="url(#clip400)" d="M2565.53 1859.6 L2570.41 1859.6 L2570.41 1865.48 L2565.53 1865.48 L2565.53 1859.6 Z" fill="#000000" fill-rule="evenodd" fill-opacity="1" /><path clip-path="url(#clip400)" d="M2590.6 1834 Q2586.99 1834 2585.16 1837.57 Q2583.35 1841.11 2583.35 1848.24 Q2583.35 1855.34 2585.16 1858.91 Q2586.99 1862.45 2590.6 1862.45 Q2594.23 1862.45 2596.04 1858.91 Q2597.87 1855.34 2597.87 1848.24 Q2597.87 1841.11 2596.04 1837.57 Q2594.23 1834 2590.6 1834 M2590.6 1830.3 Q2596.41 1830.3 2599.46 1834.9 Q2602.54 1839.49 2602.54 1848.24 Q2602.54 1856.96 2599.46 1861.57 Q2596.41 1866.15 2590.6 1866.15 Q2584.79 1866.15 2581.71 1861.57 Q2578.65 1856.96 2578.65 1848.24 Q2578.65 1839.49 2581.71 1834.9 Q2584.79 1830.3 2590.6 1830.3 Z" fill="#000000" fill-rule="evenodd" fill-opacity="1" /><path clip-path="url(#clip400)" d="M2620.76 1834 Q2617.15 1834 2615.32 1837.57 Q2613.51 1841.11 2613.51 1848.24 Q2613.51 1855.34 2615.32 1858.91 Q2617.15 1862.45 2620.76 1862.45 Q2624.39 1862.45 2626.2 1858.91 Q2628.03 1855.34 2628.03 1848.24 Q2628.03 1841.11 2626.2 1837.57 Q2624.39 1834 2620.76 1834 M2620.76 1830.3 Q2626.57 1830.3 2629.62 1834.9 Q2632.7 1839.49 2632.7 1848.24 Q2632.7 1856.96 2629.62 1861.57 Q2626.57 1866.15 2620.76 1866.15 Q2614.95 1866.15 2611.87 1861.57 Q2608.81 1856.96 2608.81 1848.24 Q2608.81 1839.49 2611.87 1834.9 Q2614.95 1830.3 2620.76 1830.3 Z" fill="#000000" fill-rule="evenodd" fill-opacity="1" /><polyline clip-path="url(#clip402)" style="stroke:#000000; stroke-linecap:butt; stroke-linejoin:round; stroke-width:2; stroke-opacity:0.1; fill:none" points="
  189.154,1768.25 2640.76,1768.25 
  "/>
<polyline clip-path="url(#clip402)" style="stroke:#000000; stroke-linecap:butt; stroke-linejoin:round; stroke-width:2; stroke-opacity:0.1; fill:none" points="
  189.154,1348.86 2640.76,1348.86 
  "/>
<polyline clip-path="url(#clip402)" style="stroke:#000000; stroke-linecap:butt; stroke-linejoin:round; stroke-width:2; stroke-opacity:0.1; fill:none" points="
  189.154,929.456 2640.76,929.456 
  "/>
<polyline clip-path="url(#clip402)" style="stroke:#000000; stroke-linecap:butt; stroke-linejoin:round; stroke-width:2; stroke-opacity:0.1; fill:none" points="
  189.154,510.057 2640.76,510.057 
  "/>
<polyline clip-path="url(#clip402)" style="stroke:#000000; stroke-linecap:butt; stroke-linejoin:round; stroke-width:2; stroke-opacity:0.1; fill:none" points="
  189.154,90.6587 2640.76,90.6587 
  "/>
<polyline clip-path="url(#clip400)" style="stroke:#000000; stroke-linecap:butt; stroke-linejoin:round; stroke-width:4; stroke-opacity:1; fill:none" points="
  189.154,1800.78 189.154,47.2441 
  "/>
<polyline clip-path="url(#clip400)" style="stroke:#000000; stroke-linecap:butt; stroke-linejoin:round; stroke-width:4; stroke-opacity:1; fill:none" points="
  189.154,1768.25 208.052,1768.25 
  "/>
<polyline clip-path="url(#clip400)" style="stroke:#000000; stroke-linecap:butt; stroke-linejoin:round; stroke-width:4; stroke-opacity:1; fill:none" points="
  189.154,1348.86 208.052,1348.86 
  "/>
<polyline clip-path="url(#clip400)" style="stroke:#000000; stroke-linecap:butt; stroke-linejoin:round; stroke-width:4; stroke-opacity:1; fill:none" points="
  189.154,929.456 208.052,929.456 
  "/>
<polyline clip-path="url(#clip400)" style="stroke:#000000; stroke-linecap:butt; stroke-linejoin:round; stroke-width:4; stroke-opacity:1; fill:none" points="
  189.154,510.057 208.052,510.057 
  "/>
<polyline clip-path="url(#clip400)" style="stroke:#000000; stroke-linecap:butt; stroke-linejoin:round; stroke-width:4; stroke-opacity:1; fill:none" points="
  189.154,90.6587 208.052,90.6587 
  "/>
<path clip-path="url(#clip400)" d="M61.4965 1754.05 Q57.8854 1754.05 56.0567 1757.62 Q54.2512 1761.16 54.2512 1768.29 Q54.2512 1775.39 56.0567 1778.96 Q57.8854 1782.5 61.4965 1782.5 Q65.1307 1782.5 66.9363 1778.96 Q68.765 1775.39 68.765 1768.29 Q68.765 1761.16 66.9363 1757.62 Q65.1307 1754.05 61.4965 1754.05 M61.4965 1750.35 Q67.3067 1750.35 70.3622 1754.96 Q73.4409 1759.54 73.4409 1768.29 Q73.4409 1777.02 70.3622 1781.62 Q67.3067 1786.21 61.4965 1786.21 Q55.6864 1786.21 52.6077 1781.62 Q49.5521 1777.02 49.5521 1768.29 Q49.5521 1759.54 52.6077 1754.96 Q55.6864 1750.35 61.4965 1750.35 Z" fill="#000000" fill-rule="evenodd" fill-opacity="1" /><path clip-path="url(#clip400)" d="M81.6584 1779.65 L86.5427 1779.65 L86.5427 1785.53 L81.6584 1785.53 L81.6584 1779.65 Z" fill="#000000" fill-rule="evenodd" fill-opacity="1" /><path clip-path="url(#clip400)" d="M106.728 1754.05 Q103.117 1754.05 101.288 1757.62 Q99.4824 1761.16 99.4824 1768.29 Q99.4824 1775.39 101.288 1778.96 Q103.117 1782.5 106.728 1782.5 Q110.362 1782.5 112.168 1778.96 Q113.996 1775.39 113.996 1768.29 Q113.996 1761.16 112.168 1757.62 Q110.362 1754.05 106.728 1754.05 M106.728 1750.35 Q112.538 1750.35 115.593 1754.96 Q118.672 1759.54 118.672 1768.29 Q118.672 1777.02 115.593 1781.62 Q112.538 1786.21 106.728 1786.21 Q100.918 1786.21 97.8389 1781.62 Q94.7834 1777.02 94.7834 1768.29 Q94.7834 1759.54 97.8389 1754.96 Q100.918 1750.35 106.728 1750.35 Z" fill="#000000" fill-rule="evenodd" fill-opacity="1" /><path clip-path="url(#clip400)" d="M136.89 1754.05 Q133.279 1754.05 131.45 1757.62 Q129.644 1761.16 129.644 1768.29 Q129.644 1775.39 131.45 1778.96 Q133.279 1782.5 136.89 1782.5 Q140.524 1782.5 142.329 1778.96 Q144.158 1775.39 144.158 1768.29 Q144.158 1761.16 142.329 1757.62 Q140.524 1754.05 136.89 1754.05 M136.89 1750.35 Q142.7 1750.35 145.755 1754.96 Q148.834 1759.54 148.834 1768.29 Q148.834 1777.02 145.755 1781.62 Q142.7 1786.21 136.89 1786.21 Q131.079 1786.21 128.001 1781.62 Q124.945 1777.02 124.945 1768.29 Q124.945 1759.54 128.001 1754.96 Q131.079 1750.35 136.89 1750.35 Z" fill="#000000" fill-rule="evenodd" fill-opacity="1" /><path clip-path="url(#clip400)" d="M62.4919 1334.65 Q58.8808 1334.65 57.0521 1338.22 Q55.2465 1341.76 55.2465 1348.89 Q55.2465 1356 57.0521 1359.56 Q58.8808 1363.1 62.4919 1363.1 Q66.1261 1363.1 67.9317 1359.56 Q69.7604 1356 69.7604 1348.89 Q69.7604 1341.76 67.9317 1338.22 Q66.1261 1334.65 62.4919 1334.65 M62.4919 1330.95 Q68.302 1330.95 71.3576 1335.56 Q74.4363 1340.14 74.4363 1348.89 Q74.4363 1357.62 71.3576 1362.22 Q68.302 1366.81 62.4919 1366.81 Q56.6817 1366.81 53.603 1362.22 Q50.5475 1357.62 50.5475 1348.89 Q50.5475 1340.14 53.603 1335.56 Q56.6817 1330.95 62.4919 1330.95 Z" fill="#000000" fill-rule="evenodd" fill-opacity="1" /><path clip-path="url(#clip400)" d="M82.6538 1360.26 L87.538 1360.26 L87.538 1366.14 L82.6538 1366.14 L82.6538 1360.26 Z" fill="#000000" fill-rule="evenodd" fill-opacity="1" /><path clip-path="url(#clip400)" d="M101.751 1362.2 L118.07 1362.2 L118.07 1366.14 L96.126 1366.14 L96.126 1362.2 Q98.788 1359.45 103.371 1354.82 Q107.978 1350.16 109.158 1348.82 Q111.404 1346.3 112.283 1344.56 Q113.186 1342.8 113.186 1341.11 Q113.186 1338.36 111.242 1336.62 Q109.32 1334.89 106.218 1334.89 Q104.019 1334.89 101.566 1335.65 Q99.1352 1336.41 96.3574 1337.96 L96.3574 1333.24 Q99.1815 1332.11 101.635 1331.53 Q104.089 1330.95 106.126 1330.95 Q111.496 1330.95 114.691 1333.64 Q117.885 1336.32 117.885 1340.81 Q117.885 1342.94 117.075 1344.86 Q116.288 1346.76 114.181 1349.35 Q113.603 1350.02 110.501 1353.24 Q107.399 1356.44 101.751 1362.2 Z" fill="#000000" fill-rule="evenodd" fill-opacity="1" /><path clip-path="url(#clip400)" d="M127.931 1331.58 L146.288 1331.58 L146.288 1335.51 L132.214 1335.51 L132.214 1343.98 Q133.232 1343.64 134.251 1343.47 Q135.269 1343.29 136.288 1343.29 Q142.075 1343.29 145.454 1346.46 Q148.834 1349.63 148.834 1355.05 Q148.834 1360.63 145.362 1363.73 Q141.89 1366.81 135.57 1366.81 Q133.394 1366.81 131.126 1366.44 Q128.88 1366.07 126.473 1365.32 L126.473 1360.63 Q128.556 1361.76 130.779 1362.32 Q133.001 1362.87 135.478 1362.87 Q139.482 1362.87 141.82 1360.76 Q144.158 1358.66 144.158 1355.05 Q144.158 1351.44 141.82 1349.33 Q139.482 1347.22 135.478 1347.22 Q133.603 1347.22 131.728 1347.64 Q129.876 1348.06 127.931 1348.94 L127.931 1331.58 Z" fill="#000000" fill-rule="evenodd" fill-opacity="1" /><path clip-path="url(#clip400)" d="M61.4965 915.255 Q57.8854 915.255 56.0567 918.82 Q54.2512 922.361 54.2512 929.491 Q54.2512 936.597 56.0567 940.162 Q57.8854 943.704 61.4965 943.704 Q65.1307 943.704 66.9363 940.162 Q68.765 936.597 68.765 929.491 Q68.765 922.361 66.9363 918.82 Q65.1307 915.255 61.4965 915.255 M61.4965 911.551 Q67.3067 911.551 70.3622 916.158 Q73.4409 920.741 73.4409 929.491 Q73.4409 938.218 70.3622 942.824 Q67.3067 947.408 61.4965 947.408 Q55.6864 947.408 52.6077 942.824 Q49.5521 938.218 49.5521 929.491 Q49.5521 920.741 52.6077 916.158 Q55.6864 911.551 61.4965 911.551 Z" fill="#000000" fill-rule="evenodd" fill-opacity="1" /><path clip-path="url(#clip400)" d="M81.6584 940.857 L86.5427 940.857 L86.5427 946.736 L81.6584 946.736 L81.6584 940.857 Z" fill="#000000" fill-rule="evenodd" fill-opacity="1" /><path clip-path="url(#clip400)" d="M96.7741 912.176 L115.13 912.176 L115.13 916.111 L101.056 916.111 L101.056 924.584 Q102.075 924.236 103.094 924.074 Q104.112 923.889 105.131 923.889 Q110.918 923.889 114.297 927.06 Q117.677 930.232 117.677 935.648 Q117.677 941.227 114.205 944.329 Q110.732 947.408 104.413 947.408 Q102.237 947.408 99.9685 947.037 Q97.7232 946.667 95.3158 945.926 L95.3158 941.227 Q97.3991 942.361 99.6213 942.917 Q101.844 943.472 104.32 943.472 Q108.325 943.472 110.663 941.366 Q113.001 939.259 113.001 935.648 Q113.001 932.037 110.663 929.931 Q108.325 927.824 104.32 927.824 Q102.445 927.824 100.57 928.241 Q98.7185 928.658 96.7741 929.537 L96.7741 912.176 Z" fill="#000000" fill-rule="evenodd" fill-opacity="1" /><path clip-path="url(#clip400)" d="M136.89 915.255 Q133.279 915.255 131.45 918.82 Q129.644 922.361 129.644 929.491 Q129.644 936.597 131.45 940.162 Q133.279 943.704 136.89 943.704 Q140.524 943.704 142.329 940.162 Q144.158 936.597 144.158 929.491 Q144.158 922.361 142.329 918.82 Q140.524 915.255 136.89 915.255 M136.89 911.551 Q142.7 911.551 145.755 916.158 Q148.834 920.741 148.834 929.491 Q148.834 938.218 145.755 942.824 Q142.7 947.408 136.89 947.408 Q131.079 947.408 128.001 942.824 Q124.945 938.218 124.945 929.491 Q124.945 920.741 128.001 916.158 Q131.079 911.551 136.89 911.551 Z" fill="#000000" fill-rule="evenodd" fill-opacity="1" /><path clip-path="url(#clip400)" d="M62.4919 495.856 Q58.8808 495.856 57.0521 499.421 Q55.2465 502.963 55.2465 510.092 Q55.2465 517.199 57.0521 520.763 Q58.8808 524.305 62.4919 524.305 Q66.1261 524.305 67.9317 520.763 Q69.7604 517.199 69.7604 510.092 Q69.7604 502.963 67.9317 499.421 Q66.1261 495.856 62.4919 495.856 M62.4919 492.153 Q68.302 492.153 71.3576 496.759 Q74.4363 501.342 74.4363 510.092 Q74.4363 518.819 71.3576 523.425 Q68.302 528.009 62.4919 528.009 Q56.6817 528.009 53.603 523.425 Q50.5475 518.819 50.5475 510.092 Q50.5475 501.342 53.603 496.759 Q56.6817 492.153 62.4919 492.153 Z" fill="#000000" fill-rule="evenodd" fill-opacity="1" /><path clip-path="url(#clip400)" d="M82.6538 521.458 L87.538 521.458 L87.538 527.337 L82.6538 527.337 L82.6538 521.458 Z" fill="#000000" fill-rule="evenodd" fill-opacity="1" /><path clip-path="url(#clip400)" d="M96.5426 492.777 L118.765 492.777 L118.765 494.768 L106.218 527.337 L101.334 527.337 L113.14 496.713 L96.5426 496.713 L96.5426 492.777 Z" fill="#000000" fill-rule="evenodd" fill-opacity="1" /><path clip-path="url(#clip400)" d="M127.931 492.777 L146.288 492.777 L146.288 496.713 L132.214 496.713 L132.214 505.185 Q133.232 504.838 134.251 504.676 Q135.269 504.49 136.288 504.49 Q142.075 504.49 145.454 507.662 Q148.834 510.833 148.834 516.25 Q148.834 521.828 145.362 524.93 Q141.89 528.009 135.57 528.009 Q133.394 528.009 131.126 527.638 Q128.88 527.268 126.473 526.527 L126.473 521.828 Q128.556 522.963 130.779 523.518 Q133.001 524.074 135.478 524.074 Q139.482 524.074 141.82 521.967 Q144.158 519.861 144.158 516.25 Q144.158 512.639 141.82 510.532 Q139.482 508.426 135.478 508.426 Q133.603 508.426 131.728 508.842 Q129.876 509.259 127.931 510.139 L127.931 492.777 Z" fill="#000000" fill-rule="evenodd" fill-opacity="1" /><path clip-path="url(#clip400)" d="M52.3067 104.004 L59.9456 104.004 L59.9456 77.638 L51.6354 79.3046 L51.6354 75.0454 L59.8993 73.3787 L64.5752 73.3787 L64.5752 104.004 L72.214 104.004 L72.214 107.939 L52.3067 107.939 L52.3067 104.004 Z" fill="#000000" fill-rule="evenodd" fill-opacity="1" /><path clip-path="url(#clip400)" d="M81.6584 102.059 L86.5427 102.059 L86.5427 107.939 L81.6584 107.939 L81.6584 102.059 Z" fill="#000000" fill-rule="evenodd" fill-opacity="1" /><path clip-path="url(#clip400)" d="M106.728 76.4574 Q103.117 76.4574 101.288 80.0222 Q99.4824 83.5639 99.4824 90.6935 Q99.4824 97.7999 101.288 101.365 Q103.117 104.906 106.728 104.906 Q110.362 104.906 112.168 101.365 Q113.996 97.7999 113.996 90.6935 Q113.996 83.5639 112.168 80.0222 Q110.362 76.4574 106.728 76.4574 M106.728 72.7537 Q112.538 72.7537 115.593 77.3602 Q118.672 81.9435 118.672 90.6935 Q118.672 99.4203 115.593 104.027 Q112.538 108.61 106.728 108.61 Q100.918 108.61 97.8389 104.027 Q94.7834 99.4203 94.7834 90.6935 Q94.7834 81.9435 97.8389 77.3602 Q100.918 72.7537 106.728 72.7537 Z" fill="#000000" fill-rule="evenodd" fill-opacity="1" /><path clip-path="url(#clip400)" d="M136.89 76.4574 Q133.279 76.4574 131.45 80.0222 Q129.644 83.5639 129.644 90.6935 Q129.644 97.7999 131.45 101.365 Q133.279 104.906 136.89 104.906 Q140.524 104.906 142.329 101.365 Q144.158 97.7999 144.158 90.6935 Q144.158 83.5639 142.329 80.0222 Q140.524 76.4574 136.89 76.4574 M136.89 72.7537 Q142.7 72.7537 145.755 77.3602 Q148.834 81.9435 148.834 90.6935 Q148.834 99.4203 145.755 104.027 Q142.7 108.61 136.89 108.61 Q131.079 108.61 128.001 104.027 Q124.945 99.4203 124.945 90.6935 Q124.945 81.9435 128.001 77.3602 Q131.079 72.7537 136.89 72.7537 Z" fill="#000000" fill-rule="evenodd" fill-opacity="1" /><polyline clip-path="url(#clip402)" style="stroke:#009af9; stroke-linecap:butt; stroke-linejoin:round; stroke-width:4; stroke-opacity:1; fill:none" points="
  1978.48,1706.8 1930.62,930.536 1041.2,801.092 980.641,141.055 2527.78,1172.19 1313.77,1670.07 1554.59,1082.27 698.393,125.043 1075.45,1664.87 1145.86,916.181 
  1731.38,790.183 1376.41,106.541 2043.72,1061.51 644.432,616.272 1609.2,1605.48 2170.32,1430.31 2487.59,1256.6 1497.03,358.188 1166.27,829.761 1616.87,340.829 
  700.127,1600.26 2221.71,1232.81 1883.12,1028.68 2452.08,446.313 1442.99,1362.49 2260.16,816.72 2432.63,1078.49 1302.23,249.499 724.896,953.055 1614.99,562.473 
  2481.71,991.924 1606.86,1533.56 1656.72,945.691 2183.36,1662.44 2067.03,318.31 724.762,1163.9 369.967,1288.25 598.575,955.547 1579.1,1485.33 2361.01,1325.81 
  757.653,849.421 2571.37,1157.63 283.184,96.8724 520.75,1259.77 384.298,850.262 2152.79,1336.66 2342.54,116.571 376.311,1492.65 2254.93,1480.14 258.539,900.404 
  423.211,462.03 585.469,1455.25 543.399,1356.63 2396.56,469.614 2252.53,1742.41 876.375,181.816 635.729,1294.94 556.211,206.744 929.469,1586.65 2092.56,1189.55 
  344.109,293.815 1316.48,632.222 2083.19,1721.29 2273.17,816.954 1191.21,360.386 1294.12,770.43 1297.35,494.313 2446.26,1751.15 2518.17,1463.03 1284,114.533 
  1354.89,1235.31 1126.83,1673.95 793.464,944.259 1157.54,1164.65 2027.17,647.385 1708.88,1034.8 1648.26,1500.39 2481.41,1546.06 488.326,479.951 1450.74,606.108 
  2451.16,1356.29 1587.06,421.895 1895.8,455.275 2148.58,135.791 2473.38,739.722 271.36,1002.03 1409.13,1223.7 754.839,1218.38 1804.11,1466.13 2065.02,527.257 
  2428.87,1695.02 1079.86,438.431 2471.78,498.45 679.634,717.991 2398.06,1029.56 1270.96,555.957 813.855,615.994 1614.85,1685.75 967.472,428.562 2283.62,1714.2 
  
  "/>
<path clip-path="url(#clip400)" d="
M270.874 1742.33 L568.465 1742.33 L568.465 1638.65 L270.874 1638.65  Z
  " fill="#ffffff" fill-rule="evenodd" fill-opacity="1"/>
<polyline clip-path="url(#clip400)" style="stroke:#000000; stroke-linecap:butt; stroke-linejoin:round; stroke-width:4; stroke-opacity:1; fill:none" points="
  270.874,1742.33 568.465,1742.33 568.465,1638.65 270.874,1638.65 270.874,1742.33 
  "/>
<polyline clip-path="url(#clip400)" style="stroke:#009af9; stroke-linecap:butt; stroke-linejoin:round; stroke-width:4; stroke-opacity:1; fill:none" points="
  298.114,1690.49 461.554,1690.49 
  "/>
<path clip-path="url(#clip400)" d="M502.637 1710.18 Q500.831 1714.81 499.118 1716.22 Q497.405 1717.63 494.535 1717.63 L491.132 1717.63 L491.132 1714.06 L493.632 1714.06 Q495.391 1714.06 496.364 1713.23 Q497.336 1712.4 498.516 1709.3 L499.28 1707.35 L488.794 1681.84 L493.308 1681.84 L501.41 1702.12 L509.512 1681.84 L514.026 1681.84 L502.637 1710.18 Z" fill="#000000" fill-rule="evenodd" fill-opacity="1" /><path clip-path="url(#clip400)" d="M521.317 1703.83 L528.956 1703.83 L528.956 1677.47 L520.646 1679.13 L520.646 1674.87 L528.91 1673.21 L533.586 1673.21 L533.586 1703.83 L541.225 1703.83 L541.225 1707.77 L521.317 1707.77 L521.317 1703.83 Z" fill="#000000" fill-rule="evenodd" fill-opacity="1" /></svg>
