<?xml version="1.0" encoding="utf-8"?>
<svg xmlns="http://www.w3.org/2000/svg" xmlns:xlink="http://www.w3.org/1999/xlink" width="672" height="480" viewBox="0 0 2688 1920">
<defs>
  <clipPath id="clip670">
    <rect x="0" y="0" width="2688" height="1920"/>
  </clipPath>
</defs>
<path clip-path="url(#clip670)" d="
M0 1920 L2688 1920 L2688 0 L0 0  Z
  " fill="#ffffff" fill-rule="evenodd" fill-opacity="1"/>
<defs>
  <clipPath id="clip671">
    <rect x="537" y="0" width="1883" height="1883"/>
  </clipPath>
</defs>
<path clip-path="url(#clip670)" d="
M189.154 1800.78 L2640.76 1800.78 L2640.76 47.2441 L189.154 47.2441  Z
  " fill="#ffffff" fill-rule="evenodd" fill-opacity="1"/>
<defs>
  <clipPath id="clip672">
    <rect x="189" y="47" width="2453" height="1755"/>
  </clipPath>
</defs>
<polyline clip-path="url(#clip672)" style="stroke:#000000; stroke-linecap:butt; stroke-linejoin:round; stroke-width:2; stroke-opacity:0.1; fill:none" points="
  244.6,1800.78 244.6,47.2441 
  "/>
<polyline clip-path="url(#clip672)" style="stroke:#000000; stroke-linecap:butt; stroke-linejoin:round; stroke-width:2; stroke-opacity:0.1; fill:none" points="
  828.27,1800.78 828.27,47.2441 
  "/>
<polyline clip-path="url(#clip672)" style="stroke:#000000; stroke-linecap:butt; stroke-linejoin:round; stroke-width:2; stroke-opacity:0.1; fill:none" points="
  1411.94,1800.78 1411.94,47.2441 
  "/>
<polyline clip-path="url(#clip672)" style="stroke:#000000; stroke-linecap:butt; stroke-linejoin:round; stroke-width:2; stroke-opacity:0.1; fill:none" points="
  1995.61,1800.78 1995.61,47.2441 
  "/>
<polyline clip-path="url(#clip672)" style="stroke:#000000; stroke-linecap:butt; stroke-linejoin:round; stroke-width:2; stroke-opacity:0.1; fill:none" points="
  2579.28,1800.78 2579.28,47.2441 
  "/>
<polyline clip-path="url(#clip670)" style="stroke:#000000; stroke-linecap:butt; stroke-linejoin:round; stroke-width:4; stroke-opacity:1; fill:none" points="
  189.154,1800.78 2640.76,1800.78 
  "/>
<polyline clip-path="url(#clip670)" style="stroke:#000000; stroke-linecap:butt; stroke-linejoin:round; stroke-width:4; stroke-opacity:1; fill:none" points="
  244.6,1800.78 244.6,1781.88 
  "/>
<polyline clip-path="url(#clip670)" style="stroke:#000000; stroke-linecap:butt; stroke-linejoin:round; stroke-width:4; stroke-opacity:1; fill:none" points="
  828.27,1800.78 828.27,1781.88 
  "/>
<polyline clip-path="url(#clip670)" style="stroke:#000000; stroke-linecap:butt; stroke-linejoin:round; stroke-width:4; stroke-opacity:1; fill:none" points="
  1411.94,1800.78 1411.94,1781.88 
  "/>
<polyline clip-path="url(#clip670)" style="stroke:#000000; stroke-linecap:butt; stroke-linejoin:round; stroke-width:4; stroke-opacity:1; fill:none" points="
  1995.61,1800.78 1995.61,1781.88 
  "/>
<polyline clip-path="url(#clip670)" style="stroke:#000000; stroke-linecap:butt; stroke-linejoin:round; stroke-width:4; stroke-opacity:1; fill:none" points="
  2579.28,1800.78 2579.28,1781.88 
  "/>
<path clip-path="url(#clip670)" d="M206.904 1834 Q203.293 1834 201.464 1837.57 Q199.658 1841.11 199.658 1848.24 Q199.658 1855.34 201.464 1858.91 Q203.293 1862.45 206.904 1862.45 Q210.538 1862.45 212.344 1858.91 Q214.172 1855.34 214.172 1848.24 Q214.172 1841.11 212.344 1837.57 Q210.538 1834 206.904 1834 M206.904 1830.3 Q212.714 1830.3 215.769 1834.9 Q218.848 1839.49 218.848 1848.24 Q218.848 1856.96 215.769 1861.57 Q212.714 1866.15 206.904 1866.15 Q201.094 1866.15 198.015 1861.57 Q194.959 1856.96 194.959 1848.24 Q194.959 1839.49 198.015 1834.9 Q201.094 1830.3 206.904 1830.3 Z" fill="#000000" fill-rule="evenodd" fill-opacity="1" /><path clip-path="url(#clip670)" d="M227.066 1859.6 L231.95 1859.6 L231.95 1865.48 L227.066 1865.48 L227.066 1859.6 Z" fill="#000000" fill-rule="evenodd" fill-opacity="1" /><path clip-path="url(#clip670)" d="M252.135 1834 Q248.524 1834 246.695 1837.57 Q244.89 1841.11 244.89 1848.24 Q244.89 1855.34 246.695 1858.91 Q248.524 1862.45 252.135 1862.45 Q255.769 1862.45 257.575 1858.91 Q259.404 1855.34 259.404 1848.24 Q259.404 1841.11 257.575 1837.57 Q255.769 1834 252.135 1834 M252.135 1830.3 Q257.945 1830.3 261.001 1834.9 Q264.079 1839.49 264.079 1848.24 Q264.079 1856.96 261.001 1861.57 Q257.945 1866.15 252.135 1866.15 Q246.325 1866.15 243.246 1861.57 Q240.191 1856.96 240.191 1848.24 Q240.191 1839.49 243.246 1834.9 Q246.325 1830.3 252.135 1830.3 Z" fill="#000000" fill-rule="evenodd" fill-opacity="1" /><path clip-path="url(#clip670)" d="M282.297 1834 Q278.686 1834 276.857 1837.57 Q275.052 1841.11 275.052 1848.24 Q275.052 1855.34 276.857 1858.91 Q278.686 1862.45 282.297 1862.45 Q285.931 1862.45 287.737 1858.91 Q289.565 1855.34 289.565 1848.24 Q289.565 1841.11 287.737 1837.57 Q285.931 1834 282.297 1834 M282.297 1830.3 Q288.107 1830.3 291.163 1834.9 Q294.241 1839.49 294.241 1848.24 Q294.241 1856.96 291.163 1861.57 Q288.107 1866.15 282.297 1866.15 Q276.487 1866.15 273.408 1861.57 Q270.353 1856.96 270.353 1848.24 Q270.353 1839.49 273.408 1834.9 Q276.487 1830.3 282.297 1830.3 Z" fill="#000000" fill-rule="evenodd" fill-opacity="1" /><path clip-path="url(#clip670)" d="M791.071 1834 Q787.46 1834 785.632 1837.57 Q783.826 1841.11 783.826 1848.24 Q783.826 1855.34 785.632 1858.91 Q787.46 1862.45 791.071 1862.45 Q794.706 1862.45 796.511 1858.91 Q798.34 1855.34 798.34 1848.24 Q798.34 1841.11 796.511 1837.57 Q794.706 1834 791.071 1834 M791.071 1830.3 Q796.882 1830.3 799.937 1834.9 Q803.016 1839.49 803.016 1848.24 Q803.016 1856.96 799.937 1861.57 Q796.882 1866.15 791.071 1866.15 Q785.261 1866.15 782.183 1861.57 Q779.127 1856.96 779.127 1848.24 Q779.127 1839.49 782.183 1834.9 Q785.261 1830.3 791.071 1830.3 Z" fill="#000000" fill-rule="evenodd" fill-opacity="1" /><path clip-path="url(#clip670)" d="M811.233 1859.6 L816.118 1859.6 L816.118 1865.48 L811.233 1865.48 L811.233 1859.6 Z" fill="#000000" fill-rule="evenodd" fill-opacity="1" /><path clip-path="url(#clip670)" d="M830.33 1861.55 L846.65 1861.55 L846.65 1865.48 L824.705 1865.48 L824.705 1861.55 Q827.368 1858.79 831.951 1854.16 Q836.557 1849.51 837.738 1848.17 Q839.983 1845.65 840.863 1843.91 Q841.766 1842.15 841.766 1840.46 Q841.766 1837.71 839.821 1835.97 Q837.9 1834.23 834.798 1834.23 Q832.599 1834.23 830.145 1835 Q827.715 1835.76 824.937 1837.31 L824.937 1832.59 Q827.761 1831.46 830.215 1830.88 Q832.668 1830.3 834.705 1830.3 Q840.076 1830.3 843.27 1832.98 Q846.465 1835.67 846.465 1840.16 Q846.465 1842.29 845.654 1844.21 Q844.867 1846.11 842.761 1848.7 Q842.182 1849.37 839.08 1852.59 Q835.979 1855.78 830.33 1861.55 Z" fill="#000000" fill-rule="evenodd" fill-opacity="1" /><path clip-path="url(#clip670)" d="M856.511 1830.92 L874.867 1830.92 L874.867 1834.86 L860.793 1834.86 L860.793 1843.33 Q861.812 1842.98 862.83 1842.82 Q863.849 1842.64 864.867 1842.64 Q870.654 1842.64 874.034 1845.81 Q877.414 1848.98 877.414 1854.4 Q877.414 1859.97 873.941 1863.08 Q870.469 1866.15 864.15 1866.15 Q861.974 1866.15 859.705 1865.78 Q857.46 1865.41 855.053 1864.67 L855.053 1859.97 Q857.136 1861.11 859.358 1861.66 Q861.58 1862.22 864.057 1862.22 Q868.062 1862.22 870.4 1860.11 Q872.738 1858.01 872.738 1854.4 Q872.738 1850.78 870.4 1848.68 Q868.062 1846.57 864.057 1846.57 Q862.182 1846.57 860.307 1846.99 Q858.455 1847.4 856.511 1848.28 L856.511 1830.92 Z" fill="#000000" fill-rule="evenodd" fill-opacity="1" /><path clip-path="url(#clip670)" d="M1374.24 1834 Q1370.63 1834 1368.8 1837.57 Q1367 1841.11 1367 1848.24 Q1367 1855.34 1368.8 1858.91 Q1370.63 1862.45 1374.24 1862.45 Q1377.88 1862.45 1379.68 1858.91 Q1381.51 1855.34 1381.51 1848.24 Q1381.51 1841.11 1379.68 1837.57 Q1377.88 1834 1374.24 1834 M1374.24 1830.3 Q1380.05 1830.3 1383.11 1834.9 Q1386.19 1839.49 1386.19 1848.24 Q1386.19 1856.96 1383.11 1861.57 Q1380.05 1866.15 1374.24 1866.15 Q1368.43 1866.15 1365.35 1861.57 Q1362.3 1856.96 1362.3 1848.24 Q1362.3 1839.49 1365.35 1834.9 Q1368.43 1830.3 1374.24 1830.3 Z" fill="#000000" fill-rule="evenodd" fill-opacity="1" /><path clip-path="url(#clip670)" d="M1394.41 1859.6 L1399.29 1859.6 L1399.29 1865.48 L1394.41 1865.48 L1394.41 1859.6 Z" fill="#000000" fill-rule="evenodd" fill-opacity="1" /><path clip-path="url(#clip670)" d="M1409.52 1830.92 L1427.88 1830.92 L1427.88 1834.86 L1413.8 1834.86 L1413.8 1843.33 Q1414.82 1842.98 1415.84 1842.82 Q1416.86 1842.64 1417.88 1842.64 Q1423.66 1842.64 1427.04 1845.81 Q1430.42 1848.98 1430.42 1854.4 Q1430.42 1859.97 1426.95 1863.08 Q1423.48 1866.15 1417.16 1866.15 Q1414.98 1866.15 1412.72 1865.78 Q1410.47 1865.41 1408.06 1864.67 L1408.06 1859.97 Q1410.15 1861.11 1412.37 1861.66 Q1414.59 1862.22 1417.07 1862.22 Q1421.07 1862.22 1423.41 1860.11 Q1425.75 1858.01 1425.75 1854.4 Q1425.75 1850.78 1423.41 1848.68 Q1421.07 1846.57 1417.07 1846.57 Q1415.19 1846.57 1413.32 1846.99 Q1411.47 1847.4 1409.52 1848.28 L1409.52 1830.92 Z" fill="#000000" fill-rule="evenodd" fill-opacity="1" /><path clip-path="url(#clip670)" d="M1449.64 1834 Q1446.03 1834 1444.2 1837.57 Q1442.39 1841.11 1442.39 1848.24 Q1442.39 1855.34 1444.2 1858.91 Q1446.03 1862.45 1449.64 1862.45 Q1453.27 1862.45 1455.08 1858.91 Q1456.91 1855.34 1456.91 1848.24 Q1456.91 1841.11 1455.08 1837.57 Q1453.27 1834 1449.64 1834 M1449.64 1830.3 Q1455.45 1830.3 1458.5 1834.9 Q1461.58 1839.49 1461.58 1848.24 Q1461.58 1856.96 1458.5 1861.57 Q1455.45 1866.15 1449.64 1866.15 Q1443.83 1866.15 1440.75 1861.57 Q1437.69 1856.96 1437.69 1848.24 Q1437.69 1839.49 1440.75 1834.9 Q1443.83 1830.3 1449.64 1830.3 Z" fill="#000000" fill-rule="evenodd" fill-opacity="1" /><path clip-path="url(#clip670)" d="M1958.41 1834 Q1954.8 1834 1952.97 1837.57 Q1951.17 1841.11 1951.17 1848.24 Q1951.17 1855.34 1952.97 1858.91 Q1954.8 1862.45 1958.41 1862.45 Q1962.05 1862.45 1963.85 1858.91 Q1965.68 1855.34 1965.68 1848.24 Q1965.68 1841.11 1963.85 1837.57 Q1962.05 1834 1958.41 1834 M1958.41 1830.3 Q1964.22 1830.3 1967.28 1834.9 Q1970.36 1839.49 1970.36 1848.24 Q1970.36 1856.96 1967.28 1861.57 Q1964.22 1866.15 1958.41 1866.15 Q1952.6 1866.15 1949.52 1861.57 Q1946.47 1856.96 1946.47 1848.24 Q1946.47 1839.49 1949.52 1834.9 Q1952.6 1830.3 1958.41 1830.3 Z" fill="#000000" fill-rule="evenodd" fill-opacity="1" /><path clip-path="url(#clip670)" d="M1978.57 1859.6 L1983.46 1859.6 L1983.46 1865.48 L1978.57 1865.48 L1978.57 1859.6 Z" fill="#000000" fill-rule="evenodd" fill-opacity="1" /><path clip-path="url(#clip670)" d="M1992.46 1830.92 L2014.68 1830.92 L2014.68 1832.91 L2002.14 1865.48 L1997.25 1865.48 L2009.06 1834.86 L1992.46 1834.86 L1992.46 1830.92 Z" fill="#000000" fill-rule="evenodd" fill-opacity="1" /><path clip-path="url(#clip670)" d="M2023.85 1830.92 L2042.21 1830.92 L2042.21 1834.86 L2028.13 1834.86 L2028.13 1843.33 Q2029.15 1842.98 2030.17 1842.82 Q2031.19 1842.64 2032.21 1842.64 Q2037.99 1842.64 2041.37 1845.81 Q2044.75 1848.98 2044.75 1854.4 Q2044.75 1859.97 2041.28 1863.08 Q2037.81 1866.15 2031.49 1866.15 Q2029.31 1866.15 2027.05 1865.78 Q2024.8 1865.41 2022.39 1864.67 L2022.39 1859.97 Q2024.48 1861.11 2026.7 1861.66 Q2028.92 1862.22 2031.4 1862.22 Q2035.4 1862.22 2037.74 1860.11 Q2040.08 1858.01 2040.08 1854.4 Q2040.08 1850.78 2037.74 1848.68 Q2035.4 1846.57 2031.4 1846.57 Q2029.52 1846.57 2027.65 1846.99 Q2025.8 1847.4 2023.85 1848.28 L2023.85 1830.92 Z" fill="#000000" fill-rule="evenodd" fill-opacity="1" /><path clip-path="url(#clip670)" d="M2531.35 1861.55 L2538.99 1861.55 L2538.99 1835.18 L2530.68 1836.85 L2530.68 1832.59 L2538.94 1830.92 L2543.62 1830.92 L2543.62 1861.55 L2551.26 1861.55 L2551.26 1865.48 L2531.35 1865.48 L2531.35 1861.55 Z" fill="#000000" fill-rule="evenodd" fill-opacity="1" /><path clip-path="url(#clip670)" d="M2560.7 1859.6 L2565.59 1859.6 L2565.59 1865.48 L2560.7 1865.48 L2560.7 1859.6 Z" fill="#000000" fill-rule="evenodd" fill-opacity="1" /><path clip-path="url(#clip670)" d="M2585.77 1834 Q2582.16 1834 2580.33 1837.57 Q2578.53 1841.11 2578.53 1848.24 Q2578.53 1855.34 2580.33 1858.91 Q2582.16 1862.45 2585.77 1862.45 Q2589.41 1862.45 2591.21 1858.91 Q2593.04 1855.34 2593.04 1848.24 Q2593.04 1841.11 2591.21 1837.57 Q2589.41 1834 2585.77 1834 M2585.77 1830.3 Q2591.58 1830.3 2594.64 1834.9 Q2597.72 1839.49 2597.72 1848.24 Q2597.72 1856.96 2594.64 1861.57 Q2591.58 1866.15 2585.77 1866.15 Q2579.96 1866.15 2576.88 1861.57 Q2573.83 1856.96 2573.83 1848.24 Q2573.83 1839.49 2576.88 1834.9 Q2579.96 1830.3 2585.77 1830.3 Z" fill="#000000" fill-rule="evenodd" fill-opacity="1" /><path clip-path="url(#clip670)" d="M2615.93 1834 Q2612.32 1834 2610.5 1837.57 Q2608.69 1841.11 2608.69 1848.24 Q2608.69 1855.34 2610.5 1858.91 Q2612.32 1862.45 2615.93 1862.45 Q2619.57 1862.45 2621.37 1858.91 Q2623.2 1855.34 2623.2 1848.24 Q2623.2 1841.11 2621.37 1837.57 Q2619.57 1834 2615.93 1834 M2615.93 1830.3 Q2621.75 1830.3 2624.8 1834.9 Q2627.88 1839.49 2627.88 1848.24 Q2627.88 1856.96 2624.8 1861.57 Q2621.75 1866.15 2615.93 1866.15 Q2610.12 1866.15 2607.05 1861.57 Q2603.99 1856.96 2603.99 1848.24 Q2603.99 1839.49 2607.05 1834.9 Q2610.12 1830.3 2615.93 1830.3 Z" fill="#000000" fill-rule="evenodd" fill-opacity="1" /><polyline clip-path="url(#clip672)" style="stroke:#000000; stroke-linecap:butt; stroke-linejoin:round; stroke-width:2; stroke-opacity:0.1; fill:none" points="
  189.154,1756.49 2640.76,1756.49 
  "/>
<polyline clip-path="url(#clip672)" style="stroke:#000000; stroke-linecap:butt; stroke-linejoin:round; stroke-width:2; stroke-opacity:0.1; fill:none" points="
  189.154,1340.41 2640.76,1340.41 
  "/>
<polyline clip-path="url(#clip672)" style="stroke:#000000; stroke-linecap:butt; stroke-linejoin:round; stroke-width:2; stroke-opacity:0.1; fill:none" points="
  189.154,924.328 2640.76,924.328 
  "/>
<polyline clip-path="url(#clip672)" style="stroke:#000000; stroke-linecap:butt; stroke-linejoin:round; stroke-width:2; stroke-opacity:0.1; fill:none" points="
  189.154,508.249 2640.76,508.249 
  "/>
<polyline clip-path="url(#clip672)" style="stroke:#000000; stroke-linecap:butt; stroke-linejoin:round; stroke-width:2; stroke-opacity:0.1; fill:none" points="
  189.154,92.1693 2640.76,92.1693 
  "/>
<polyline clip-path="url(#clip670)" style="stroke:#000000; stroke-linecap:butt; stroke-linejoin:round; stroke-width:4; stroke-opacity:1; fill:none" points="
  189.154,1800.78 189.154,47.2441 
  "/>
<polyline clip-path="url(#clip670)" style="stroke:#000000; stroke-linecap:butt; stroke-linejoin:round; stroke-width:4; stroke-opacity:1; fill:none" points="
  189.154,1756.49 208.052,1756.49 
  "/>
<polyline clip-path="url(#clip670)" style="stroke:#000000; stroke-linecap:butt; stroke-linejoin:round; stroke-width:4; stroke-opacity:1; fill:none" points="
  189.154,1340.41 208.052,1340.41 
  "/>
<polyline clip-path="url(#clip670)" style="stroke:#000000; stroke-linecap:butt; stroke-linejoin:round; stroke-width:4; stroke-opacity:1; fill:none" points="
  189.154,924.328 208.052,924.328 
  "/>
<polyline clip-path="url(#clip670)" style="stroke:#000000; stroke-linecap:butt; stroke-linejoin:round; stroke-width:4; stroke-opacity:1; fill:none" points="
  189.154,508.249 208.052,508.249 
  "/>
<polyline clip-path="url(#clip670)" style="stroke:#000000; stroke-linecap:butt; stroke-linejoin:round; stroke-width:4; stroke-opacity:1; fill:none" points="
  189.154,92.1693 208.052,92.1693 
  "/>
<path clip-path="url(#clip670)" d="M61.4965 1742.29 Q57.8854 1742.29 56.0567 1745.85 Q54.2512 1749.39 54.2512 1756.52 Q54.2512 1763.63 56.0567 1767.19 Q57.8854 1770.73 61.4965 1770.73 Q65.1307 1770.73 66.9363 1767.19 Q68.765 1763.63 68.765 1756.52 Q68.765 1749.39 66.9363 1745.85 Q65.1307 1742.29 61.4965 1742.29 M61.4965 1738.58 Q67.3067 1738.58 70.3622 1743.19 Q73.4409 1747.77 73.4409 1756.52 Q73.4409 1765.25 70.3622 1769.85 Q67.3067 1774.44 61.4965 1774.44 Q55.6864 1774.44 52.6077 1769.85 Q49.5521 1765.25 49.5521 1756.52 Q49.5521 1747.77 52.6077 1743.19 Q55.6864 1738.58 61.4965 1738.58 Z" fill="#000000" fill-rule="evenodd" fill-opacity="1" /><path clip-path="url(#clip670)" d="M81.6584 1767.89 L86.5427 1767.89 L86.5427 1773.77 L81.6584 1773.77 L81.6584 1767.89 Z" fill="#000000" fill-rule="evenodd" fill-opacity="1" /><path clip-path="url(#clip670)" d="M106.728 1742.29 Q103.117 1742.29 101.288 1745.85 Q99.4824 1749.39 99.4824 1756.52 Q99.4824 1763.63 101.288 1767.19 Q103.117 1770.73 106.728 1770.73 Q110.362 1770.73 112.168 1767.19 Q113.996 1763.63 113.996 1756.52 Q113.996 1749.39 112.168 1745.85 Q110.362 1742.29 106.728 1742.29 M106.728 1738.58 Q112.538 1738.58 115.593 1743.19 Q118.672 1747.77 118.672 1756.52 Q118.672 1765.25 115.593 1769.85 Q112.538 1774.44 106.728 1774.44 Q100.918 1774.44 97.8389 1769.85 Q94.7834 1765.25 94.7834 1756.52 Q94.7834 1747.77 97.8389 1743.19 Q100.918 1738.58 106.728 1738.58 Z" fill="#000000" fill-rule="evenodd" fill-opacity="1" /><path clip-path="url(#clip670)" d="M136.89 1742.29 Q133.279 1742.29 131.45 1745.85 Q129.644 1749.39 129.644 1756.52 Q129.644 1763.63 131.45 1767.19 Q133.279 1770.73 136.89 1770.73 Q140.524 1770.73 142.329 1767.19 Q144.158 1763.63 144.158 1756.52 Q144.158 1749.39 142.329 1745.85 Q140.524 1742.29 136.89 1742.29 M136.89 1738.58 Q142.7 1738.58 145.755 1743.19 Q148.834 1747.77 148.834 1756.52 Q148.834 1765.25 145.755 1769.85 Q142.7 1774.44 136.89 1774.44 Q131.079 1774.44 128.001 1769.85 Q124.945 1765.25 124.945 1756.52 Q124.945 1747.77 128.001 1743.19 Q131.079 1738.58 136.89 1738.58 Z" fill="#000000" fill-rule="evenodd" fill-opacity="1" /><path clip-path="url(#clip670)" d="M62.4919 1326.21 Q58.8808 1326.21 57.0521 1329.77 Q55.2465 1333.31 55.2465 1340.44 Q55.2465 1347.55 57.0521 1351.11 Q58.8808 1354.66 62.4919 1354.66 Q66.1261 1354.66 67.9317 1351.11 Q69.7604 1347.55 69.7604 1340.44 Q69.7604 1333.31 67.9317 1329.77 Q66.1261 1326.21 62.4919 1326.21 M62.4919 1322.5 Q68.302 1322.5 71.3576 1327.11 Q74.4363 1331.69 74.4363 1340.44 Q74.4363 1349.17 71.3576 1353.78 Q68.302 1358.36 62.4919 1358.36 Q56.6817 1358.36 53.603 1353.78 Q50.5475 1349.17 50.5475 1340.44 Q50.5475 1331.69 53.603 1327.11 Q56.6817 1322.5 62.4919 1322.5 Z" fill="#000000" fill-rule="evenodd" fill-opacity="1" /><path clip-path="url(#clip670)" d="M82.6538 1351.81 L87.538 1351.81 L87.538 1357.69 L82.6538 1357.69 L82.6538 1351.81 Z" fill="#000000" fill-rule="evenodd" fill-opacity="1" /><path clip-path="url(#clip670)" d="M101.751 1353.75 L118.07 1353.75 L118.07 1357.69 L96.126 1357.69 L96.126 1353.75 Q98.788 1351 103.371 1346.37 Q107.978 1341.72 109.158 1340.37 Q111.404 1337.85 112.283 1336.11 Q113.186 1334.35 113.186 1332.66 Q113.186 1329.91 111.242 1328.17 Q109.32 1326.44 106.218 1326.44 Q104.019 1326.44 101.566 1327.2 Q99.1352 1327.97 96.3574 1329.52 L96.3574 1324.79 Q99.1815 1323.66 101.635 1323.08 Q104.089 1322.5 106.126 1322.5 Q111.496 1322.5 114.691 1325.19 Q117.885 1327.87 117.885 1332.36 Q117.885 1334.49 117.075 1336.41 Q116.288 1338.31 114.181 1340.91 Q113.603 1341.58 110.501 1344.79 Q107.399 1347.99 101.751 1353.75 Z" fill="#000000" fill-rule="evenodd" fill-opacity="1" /><path clip-path="url(#clip670)" d="M127.931 1323.13 L146.288 1323.13 L146.288 1327.06 L132.214 1327.06 L132.214 1335.53 Q133.232 1335.19 134.251 1335.03 Q135.269 1334.84 136.288 1334.84 Q142.075 1334.84 145.454 1338.01 Q148.834 1341.18 148.834 1346.6 Q148.834 1352.18 145.362 1355.28 Q141.89 1358.36 135.57 1358.36 Q133.394 1358.36 131.126 1357.99 Q128.88 1357.62 126.473 1356.88 L126.473 1352.18 Q128.556 1353.31 130.779 1353.87 Q133.001 1354.42 135.478 1354.42 Q139.482 1354.42 141.82 1352.32 Q144.158 1350.21 144.158 1346.6 Q144.158 1342.99 141.82 1340.88 Q139.482 1338.78 135.478 1338.78 Q133.603 1338.78 131.728 1339.19 Q129.876 1339.61 127.931 1340.49 L127.931 1323.13 Z" fill="#000000" fill-rule="evenodd" fill-opacity="1" /><path clip-path="url(#clip670)" d="M61.4965 910.127 Q57.8854 910.127 56.0567 913.692 Q54.2512 917.233 54.2512 924.363 Q54.2512 931.469 56.0567 935.034 Q57.8854 938.576 61.4965 938.576 Q65.1307 938.576 66.9363 935.034 Q68.765 931.469 68.765 924.363 Q68.765 917.233 66.9363 913.692 Q65.1307 910.127 61.4965 910.127 M61.4965 906.423 Q67.3067 906.423 70.3622 911.03 Q73.4409 915.613 73.4409 924.363 Q73.4409 933.09 70.3622 937.696 Q67.3067 942.279 61.4965 942.279 Q55.6864 942.279 52.6077 937.696 Q49.5521 933.09 49.5521 924.363 Q49.5521 915.613 52.6077 911.03 Q55.6864 906.423 61.4965 906.423 Z" fill="#000000" fill-rule="evenodd" fill-opacity="1" /><path clip-path="url(#clip670)" d="M81.6584 935.728 L86.5427 935.728 L86.5427 941.608 L81.6584 941.608 L81.6584 935.728 Z" fill="#000000" fill-rule="evenodd" fill-opacity="1" /><path clip-path="url(#clip670)" d="M96.7741 907.048 L115.13 907.048 L115.13 910.983 L101.056 910.983 L101.056 919.455 Q102.075 919.108 103.094 918.946 Q104.112 918.761 105.131 918.761 Q110.918 918.761 114.297 921.932 Q117.677 925.104 117.677 930.52 Q117.677 936.099 114.205 939.201 Q110.732 942.279 104.413 942.279 Q102.237 942.279 99.9685 941.909 Q97.7232 941.539 95.3158 940.798 L95.3158 936.099 Q97.3991 937.233 99.6213 937.789 Q101.844 938.344 104.32 938.344 Q108.325 938.344 110.663 936.238 Q113.001 934.131 113.001 930.52 Q113.001 926.909 110.663 924.803 Q108.325 922.696 104.32 922.696 Q102.445 922.696 100.57 923.113 Q98.7185 923.529 96.7741 924.409 L96.7741 907.048 Z" fill="#000000" fill-rule="evenodd" fill-opacity="1" /><path clip-path="url(#clip670)" d="M136.89 910.127 Q133.279 910.127 131.45 913.692 Q129.644 917.233 129.644 924.363 Q129.644 931.469 131.45 935.034 Q133.279 938.576 136.89 938.576 Q140.524 938.576 142.329 935.034 Q144.158 931.469 144.158 924.363 Q144.158 917.233 142.329 913.692 Q140.524 910.127 136.89 910.127 M136.89 906.423 Q142.7 906.423 145.755 911.03 Q148.834 915.613 148.834 924.363 Q148.834 933.09 145.755 937.696 Q142.7 942.279 136.89 942.279 Q131.079 942.279 128.001 937.696 Q124.945 933.09 124.945 924.363 Q124.945 915.613 128.001 911.03 Q131.079 906.423 136.89 906.423 Z" fill="#000000" fill-rule="evenodd" fill-opacity="1" /><path clip-path="url(#clip670)" d="M62.4919 494.047 Q58.8808 494.047 57.0521 497.612 Q55.2465 501.154 55.2465 508.283 Q55.2465 515.39 57.0521 518.955 Q58.8808 522.496 62.4919 522.496 Q66.1261 522.496 67.9317 518.955 Q69.7604 515.39 69.7604 508.283 Q69.7604 501.154 67.9317 497.612 Q66.1261 494.047 62.4919 494.047 M62.4919 490.344 Q68.302 490.344 71.3576 494.95 Q74.4363 499.533 74.4363 508.283 Q74.4363 517.01 71.3576 521.617 Q68.302 526.2 62.4919 526.2 Q56.6817 526.2 53.603 521.617 Q50.5475 517.01 50.5475 508.283 Q50.5475 499.533 53.603 494.95 Q56.6817 490.344 62.4919 490.344 Z" fill="#000000" fill-rule="evenodd" fill-opacity="1" /><path clip-path="url(#clip670)" d="M82.6538 519.649 L87.538 519.649 L87.538 525.529 L82.6538 525.529 L82.6538 519.649 Z" fill="#000000" fill-rule="evenodd" fill-opacity="1" /><path clip-path="url(#clip670)" d="M96.5426 490.969 L118.765 490.969 L118.765 492.959 L106.218 525.529 L101.334 525.529 L113.14 494.904 L96.5426 494.904 L96.5426 490.969 Z" fill="#000000" fill-rule="evenodd" fill-opacity="1" /><path clip-path="url(#clip670)" d="M127.931 490.969 L146.288 490.969 L146.288 494.904 L132.214 494.904 L132.214 503.376 Q133.232 503.029 134.251 502.867 Q135.269 502.682 136.288 502.682 Q142.075 502.682 145.454 505.853 Q148.834 509.024 148.834 514.441 Q148.834 520.019 145.362 523.121 Q141.89 526.2 135.57 526.2 Q133.394 526.2 131.126 525.83 Q128.88 525.459 126.473 524.719 L126.473 520.019 Q128.556 521.154 130.779 521.709 Q133.001 522.265 135.478 522.265 Q139.482 522.265 141.82 520.158 Q144.158 518.052 144.158 514.441 Q144.158 510.83 141.82 508.723 Q139.482 506.617 135.478 506.617 Q133.603 506.617 131.728 507.033 Q129.876 507.45 127.931 508.33 L127.931 490.969 Z" fill="#000000" fill-rule="evenodd" fill-opacity="1" /><path clip-path="url(#clip670)" d="M52.3067 105.514 L59.9456 105.514 L59.9456 79.1486 L51.6354 80.8152 L51.6354 76.556 L59.8993 74.8893 L64.5752 74.8893 L64.5752 105.514 L72.214 105.514 L72.214 109.449 L52.3067 109.449 L52.3067 105.514 Z" fill="#000000" fill-rule="evenodd" fill-opacity="1" /><path clip-path="url(#clip670)" d="M81.6584 103.57 L86.5427 103.57 L86.5427 109.449 L81.6584 109.449 L81.6584 103.57 Z" fill="#000000" fill-rule="evenodd" fill-opacity="1" /><path clip-path="url(#clip670)" d="M106.728 77.968 Q103.117 77.968 101.288 81.5328 Q99.4824 85.0744 99.4824 92.204 Q99.4824 99.3105 101.288 102.875 Q103.117 106.417 106.728 106.417 Q110.362 106.417 112.168 102.875 Q113.996 99.3105 113.996 92.204 Q113.996 85.0744 112.168 81.5328 Q110.362 77.968 106.728 77.968 M106.728 74.2643 Q112.538 74.2643 115.593 78.8708 Q118.672 83.4541 118.672 92.204 Q118.672 100.931 115.593 105.537 Q112.538 110.121 106.728 110.121 Q100.918 110.121 97.8389 105.537 Q94.7834 100.931 94.7834 92.204 Q94.7834 83.4541 97.8389 78.8708 Q100.918 74.2643 106.728 74.2643 Z" fill="#000000" fill-rule="evenodd" fill-opacity="1" /><path clip-path="url(#clip670)" d="M136.89 77.968 Q133.279 77.968 131.45 81.5328 Q129.644 85.0744 129.644 92.204 Q129.644 99.3105 131.45 102.875 Q133.279 106.417 136.89 106.417 Q140.524 106.417 142.329 102.875 Q144.158 99.3105 144.158 92.204 Q144.158 85.0744 142.329 81.5328 Q140.524 77.968 136.89 77.968 M136.89 74.2643 Q142.7 74.2643 145.755 78.8708 Q148.834 83.4541 148.834 92.204 Q148.834 100.931 145.755 105.537 Q142.7 110.121 136.89 110.121 Q131.079 110.121 128.001 105.537 Q124.945 100.931 124.945 92.204 Q124.945 83.4541 128.001 78.8708 Q131.079 74.2643 136.89 74.2643 Z" fill="#000000" fill-rule="evenodd" fill-opacity="1" /><polyline clip-path="url(#clip672)" style="stroke:#009af9; stroke-linecap:butt; stroke-linejoin:round; stroke-width:4; stroke-opacity:1; fill:none" points="
  1859.26,1034.23 2235.78,210.73 738.451,1251.16 2374.34,96.8724 2002.01,1100.21 1417.03,282.607 2004.55,468.031 1789.27,1517.05 1452.7,408.31 1496.19,1722.38 
  1124.89,205.46 1577.57,1391.91 342.977,632.154 531.919,312.987 2168.52,1467.52 713.302,1366.39 2244.32,781.604 867.59,111.99 2389.44,764.533 850.062,145.735 
  1888.39,1397.34 1270.73,807.953 264.891,1418.84 1798.23,857.839 1926.99,612.044 1054.85,389.702 1530.06,1132.11 370.693,112.401 2192.76,779.073 1911.04,99.9973 
  2082.83,1372.71 2501.11,1723.91 2340.76,1169.5 1511.85,1220.36 1933.48,1110.97 2219.31,1565.76 258.539,1744.32 1112.75,993.464 2095.76,988.059 1569.82,253.213 
  2475.88,492.703 1777.75,944.551 1447.48,821.356 1746.6,1083.37 502.93,653.566 2571.37,773.137 2498.28,982.103 2094.47,1737.5 1000.48,1202.55 2103.7,1522.73 
  869.898,646.742 728.681,897.632 1436.48,217.307 1307.82,147.487 2495.69,323.581 710.542,795.762 1202.18,845.873 1049.31,215.868 1181.29,342.38 259.963,615.511 
  879.063,1151.78 513.289,848.764 2347.88,1751.15 371.75,469.674 2179,1350.98 438.667,1700.46 1620.19,131.309 550.13,912.481 1458.97,1189.32 900.832,468.892 
  2302.26,1365.59 2261.87,1701.82 1003.66,1037.29 1070.17,98.2851 952.651,379.605 1572.08,303.544 342.942,1447.48 1018.7,1451.24 630.029,328.132 1510.79,1609.55 
  495.08,1448.37 1476.41,1660.58 1396.29,219.458 325.127,233.009 1070.1,337.905 745.069,664.206 1420.7,442.412 558.318,1041.9 1503.58,110.209 2417.05,657.107 
  2406.44,327.551 2520.93,119.049 1596.16,1245.49 1307.69,584.935 2228.66,1162.22 459.417,981.913 374.598,594.553 383.025,689.327 2323.38,1350.54 2385.04,751.456 
  
  "/>
<path clip-path="url(#clip670)" d="
M270.874 209.375 L568.465 209.375 L568.465 105.695 L270.874 105.695  Z
  " fill="#ffffff" fill-rule="evenodd" fill-opacity="1"/>
<polyline clip-path="url(#clip670)" style="stroke:#000000; stroke-linecap:butt; stroke-linejoin:round; stroke-width:4; stroke-opacity:1; fill:none" points="
  270.874,209.375 568.465,209.375 568.465,105.695 270.874,105.695 270.874,209.375 
  "/>
<polyline clip-path="url(#clip670)" style="stroke:#009af9; stroke-linecap:butt; stroke-linejoin:round; stroke-width:4; stroke-opacity:1; fill:none" points="
  298.114,157.535 461.554,157.535 
  "/>
<path clip-path="url(#clip670)" d="M502.637 177.223 Q500.831 181.852 499.118 183.264 Q497.405 184.676 494.535 184.676 L491.132 184.676 L491.132 181.112 L493.632 181.112 Q495.391 181.112 496.364 180.278 Q497.336 179.445 498.516 176.343 L499.28 174.399 L488.794 148.889 L493.308 148.889 L501.41 169.167 L509.512 148.889 L514.026 148.889 L502.637 177.223 Z" fill="#000000" fill-rule="evenodd" fill-opacity="1" /><path clip-path="url(#clip670)" d="M521.317 170.88 L528.956 170.88 L528.956 144.515 L520.646 146.181 L520.646 141.922 L528.91 140.255 L533.586 140.255 L533.586 170.88 L541.225 170.88 L541.225 174.815 L521.317 174.815 L521.317 170.88 Z" fill="#000000" fill-rule="evenodd" fill-opacity="1" /></svg>
