<?xml version="1.0" encoding="utf-8"?>
<svg xmlns="http://www.w3.org/2000/svg" xmlns:xlink="http://www.w3.org/1999/xlink" width="672" height="480" viewBox="0 0 2688 1920">
<defs>
  <clipPath id="clip530">
    <rect x="0" y="0" width="2688" height="1920"/>
  </clipPath>
</defs>
<path clip-path="url(#clip530)" d="
M0 1920 L2688 1920 L2688 0 L0 0  Z
  " fill="#ffffff" fill-rule="evenodd" fill-opacity="1"/>
<defs>
  <clipPath id="clip531">
    <rect x="537" y="0" width="1883" height="1883"/>
  </clipPath>
</defs>
<path clip-path="url(#clip530)" d="
M189.154 1800.78 L2640.76 1800.78 L2640.76 47.2441 L189.154 47.2441  Z
  " fill="#ffffff" fill-rule="evenodd" fill-opacity="1"/>
<defs>
  <clipPath id="clip532">
    <rect x="189" y="47" width="2453" height="1755"/>
  </clipPath>
</defs>
<polyline clip-path="url(#clip532)" style="stroke:#000000; stroke-linecap:butt; stroke-linejoin:round; stroke-width:2; stroke-opacity:0.1; fill:none" points="
  238.816,1800.78 238.816,47.2441 
  "/>
<polyline clip-path="url(#clip532)" style="stroke:#000000; stroke-linecap:butt; stroke-linejoin:round; stroke-width:2; stroke-opacity:0.1; fill:none" points="
  824.751,1800.78 824.751,47.2441 
  "/>
<polyline clip-path="url(#clip532)" style="stroke:#000000; stroke-linecap:butt; stroke-linejoin:round; stroke-width:2; stroke-opacity:0.1; fill:none" points="
  1410.69,1800.78 1410.69,47.2441 
  "/>
<polyline clip-path="url(#clip532)" style="stroke:#000000; stroke-linecap:butt; stroke-linejoin:round; stroke-width:2; stroke-opacity:0.1; fill:none" points="
  1996.62,1800.78 1996.62,47.2441 
  "/>
<polyline clip-path="url(#clip532)" style="stroke:#000000; stroke-linecap:butt; stroke-linejoin:round; stroke-width:2; stroke-opacity:0.1; fill:none" points="
  2582.56,1800.78 2582.56,47.2441 
  "/>
<polyline clip-path="url(#clip530)" style="stroke:#000000; stroke-linecap:butt; stroke-linejoin:round; stroke-width:4; stroke-opacity:1; fill:none" points="
  189.154,1800.78 2640.76,1800.78 
  "/>
<polyline clip-path="url(#clip530)" style="stroke:#000000; stroke-linecap:butt; stroke-linejoin:round; stroke-width:4; stroke-opacity:1; fill:none" points="
  238.816,1800.78 238.816,1781.88 
  "/>
<polyline clip-path="url(#clip530)" style="stroke:#000000; stroke-linecap:butt; stroke-linejoin:round; stroke-width:4; stroke-opacity:1; fill:none" points="
  824.751,1800.78 824.751,1781.88 
  "/>
<polyline clip-path="url(#clip530)" style="stroke:#000000; stroke-linecap:butt; stroke-linejoin:round; stroke-width:4; stroke-opacity:1; fill:none" points="
  1410.69,1800.78 1410.69,1781.88 
  "/>
<polyline clip-path="url(#clip530)" style="stroke:#000000; stroke-linecap:butt; stroke-linejoin:round; stroke-width:4; stroke-opacity:1; fill:none" points="
  1996.62,1800.78 1996.62,1781.88 
  "/>
<polyline clip-path="url(#clip530)" style="stroke:#000000; stroke-linecap:butt; stroke-linejoin:round; stroke-width:4; stroke-opacity:1; fill:none" points="
  2582.56,1800.78 2582.56,1781.88 
  "/>
<path clip-path="url(#clip530)" d="M201.119 1834 Q197.508 1834 195.679 1837.57 Q193.874 1841.11 193.874 1848.24 Q193.874 1855.34 195.679 1858.91 Q197.508 1862.45 201.119 1862.45 Q204.753 1862.45 206.559 1858.91 Q208.387 1855.34 208.387 1848.24 Q208.387 1841.11 206.559 1837.57 Q204.753 1834 201.119 1834 M201.119 1830.3 Q206.929 1830.3 209.985 1834.9 Q213.063 1839.49 213.063 1848.24 Q213.063 1856.96 209.985 1861.57 Q206.929 1866.15 201.119 1866.15 Q195.309 1866.15 192.23 1861.57 Q189.175 1856.96 189.175 1848.24 Q189.175 1839.49 192.23 1834.9 Q195.309 1830.3 201.119 1830.3 Z" fill="#000000" fill-rule="evenodd" fill-opacity="1" /><path clip-path="url(#clip530)" d="M221.281 1859.6 L226.165 1859.6 L226.165 1865.48 L221.281 1865.48 L221.281 1859.6 Z" fill="#000000" fill-rule="evenodd" fill-opacity="1" /><path clip-path="url(#clip530)" d="M246.35 1834 Q242.739 1834 240.91 1837.57 Q239.105 1841.11 239.105 1848.24 Q239.105 1855.34 240.91 1858.91 Q242.739 1862.45 246.35 1862.45 Q249.984 1862.45 251.79 1858.91 Q253.619 1855.34 253.619 1848.24 Q253.619 1841.11 251.79 1837.57 Q249.984 1834 246.35 1834 M246.35 1830.3 Q252.16 1830.3 255.216 1834.9 Q258.295 1839.49 258.295 1848.24 Q258.295 1856.96 255.216 1861.57 Q252.16 1866.15 246.35 1866.15 Q240.54 1866.15 237.461 1861.57 Q234.406 1856.96 234.406 1848.24 Q234.406 1839.49 237.461 1834.9 Q240.54 1830.3 246.35 1830.3 Z" fill="#000000" fill-rule="evenodd" fill-opacity="1" /><path clip-path="url(#clip530)" d="M276.512 1834 Q272.901 1834 271.072 1837.57 Q269.267 1841.11 269.267 1848.24 Q269.267 1855.34 271.072 1858.91 Q272.901 1862.45 276.512 1862.45 Q280.146 1862.45 281.952 1858.91 Q283.781 1855.34 283.781 1848.24 Q283.781 1841.11 281.952 1837.57 Q280.146 1834 276.512 1834 M276.512 1830.3 Q282.322 1830.3 285.378 1834.9 Q288.456 1839.49 288.456 1848.24 Q288.456 1856.96 285.378 1861.57 Q282.322 1866.15 276.512 1866.15 Q270.702 1866.15 267.623 1861.57 Q264.568 1856.96 264.568 1848.24 Q264.568 1839.49 267.623 1834.9 Q270.702 1830.3 276.512 1830.3 Z" fill="#000000" fill-rule="evenodd" fill-opacity="1" /><path clip-path="url(#clip530)" d="M787.552 1834 Q783.941 1834 782.113 1837.57 Q780.307 1841.11 780.307 1848.24 Q780.307 1855.34 782.113 1858.91 Q783.941 1862.45 787.552 1862.45 Q791.187 1862.45 792.992 1858.91 Q794.821 1855.34 794.821 1848.24 Q794.821 1841.11 792.992 1837.57 Q791.187 1834 787.552 1834 M787.552 1830.3 Q793.363 1830.3 796.418 1834.9 Q799.497 1839.49 799.497 1848.24 Q799.497 1856.96 796.418 1861.57 Q793.363 1866.15 787.552 1866.15 Q781.742 1866.15 778.664 1861.57 Q775.608 1856.96 775.608 1848.24 Q775.608 1839.49 778.664 1834.9 Q781.742 1830.3 787.552 1830.3 Z" fill="#000000" fill-rule="evenodd" fill-opacity="1" /><path clip-path="url(#clip530)" d="M807.714 1859.6 L812.599 1859.6 L812.599 1865.48 L807.714 1865.48 L807.714 1859.6 Z" fill="#000000" fill-rule="evenodd" fill-opacity="1" /><path clip-path="url(#clip530)" d="M826.811 1861.55 L843.131 1861.55 L843.131 1865.48 L821.186 1865.48 L821.186 1861.55 Q823.848 1858.79 828.432 1854.16 Q833.038 1849.51 834.219 1848.17 Q836.464 1845.65 837.344 1843.91 Q838.247 1842.15 838.247 1840.46 Q838.247 1837.71 836.302 1835.97 Q834.381 1834.23 831.279 1834.23 Q829.08 1834.23 826.626 1835 Q824.196 1835.76 821.418 1837.31 L821.418 1832.59 Q824.242 1831.46 826.696 1830.88 Q829.149 1830.3 831.186 1830.3 Q836.557 1830.3 839.751 1832.98 Q842.946 1835.67 842.946 1840.16 Q842.946 1842.29 842.135 1844.21 Q841.348 1846.11 839.242 1848.7 Q838.663 1849.37 835.561 1852.59 Q832.46 1855.78 826.811 1861.55 Z" fill="#000000" fill-rule="evenodd" fill-opacity="1" /><path clip-path="url(#clip530)" d="M852.992 1830.92 L871.348 1830.92 L871.348 1834.86 L857.274 1834.86 L857.274 1843.33 Q858.293 1842.98 859.311 1842.82 Q860.33 1842.64 861.348 1842.64 Q867.135 1842.64 870.515 1845.81 Q873.895 1848.98 873.895 1854.4 Q873.895 1859.97 870.422 1863.08 Q866.95 1866.15 860.631 1866.15 Q858.455 1866.15 856.186 1865.78 Q853.941 1865.41 851.534 1864.67 L851.534 1859.97 Q853.617 1861.11 855.839 1861.66 Q858.061 1862.22 860.538 1862.22 Q864.543 1862.22 866.881 1860.11 Q869.219 1858.01 869.219 1854.4 Q869.219 1850.78 866.881 1848.68 Q864.543 1846.57 860.538 1846.57 Q858.663 1846.57 856.788 1846.99 Q854.936 1847.4 852.992 1848.28 L852.992 1830.92 Z" fill="#000000" fill-rule="evenodd" fill-opacity="1" /><path clip-path="url(#clip530)" d="M1372.99 1834 Q1369.38 1834 1367.55 1837.57 Q1365.75 1841.11 1365.75 1848.24 Q1365.75 1855.34 1367.55 1858.91 Q1369.38 1862.45 1372.99 1862.45 Q1376.62 1862.45 1378.43 1858.91 Q1380.26 1855.34 1380.26 1848.24 Q1380.26 1841.11 1378.43 1837.57 Q1376.62 1834 1372.99 1834 M1372.99 1830.3 Q1378.8 1830.3 1381.86 1834.9 Q1384.93 1839.49 1384.93 1848.24 Q1384.93 1856.96 1381.86 1861.57 Q1378.8 1866.15 1372.99 1866.15 Q1367.18 1866.15 1364.1 1861.57 Q1361.05 1856.96 1361.05 1848.24 Q1361.05 1839.49 1364.1 1834.9 Q1367.18 1830.3 1372.99 1830.3 Z" fill="#000000" fill-rule="evenodd" fill-opacity="1" /><path clip-path="url(#clip530)" d="M1393.15 1859.6 L1398.04 1859.6 L1398.04 1865.48 L1393.15 1865.48 L1393.15 1859.6 Z" fill="#000000" fill-rule="evenodd" fill-opacity="1" /><path clip-path="url(#clip530)" d="M1408.27 1830.92 L1426.62 1830.92 L1426.62 1834.86 L1412.55 1834.86 L1412.55 1843.33 Q1413.57 1842.98 1414.59 1842.82 Q1415.61 1842.64 1416.62 1842.64 Q1422.41 1842.64 1425.79 1845.81 Q1429.17 1848.98 1429.17 1854.4 Q1429.17 1859.97 1425.7 1863.08 Q1422.23 1866.15 1415.91 1866.15 Q1413.73 1866.15 1411.46 1865.78 Q1409.22 1865.41 1406.81 1864.67 L1406.81 1859.97 Q1408.89 1861.11 1411.12 1861.66 Q1413.34 1862.22 1415.81 1862.22 Q1419.82 1862.22 1422.16 1860.11 Q1424.49 1858.01 1424.49 1854.4 Q1424.49 1850.78 1422.16 1848.68 Q1419.82 1846.57 1415.81 1846.57 Q1413.94 1846.57 1412.06 1846.99 Q1410.21 1847.4 1408.27 1848.28 L1408.27 1830.92 Z" fill="#000000" fill-rule="evenodd" fill-opacity="1" /><path clip-path="url(#clip530)" d="M1448.38 1834 Q1444.77 1834 1442.94 1837.57 Q1441.14 1841.11 1441.14 1848.24 Q1441.14 1855.34 1442.94 1858.91 Q1444.77 1862.45 1448.38 1862.45 Q1452.02 1862.45 1453.82 1858.91 Q1455.65 1855.34 1455.65 1848.24 Q1455.65 1841.11 1453.82 1837.57 Q1452.02 1834 1448.38 1834 M1448.38 1830.3 Q1454.19 1830.3 1457.25 1834.9 Q1460.33 1839.49 1460.33 1848.24 Q1460.33 1856.96 1457.25 1861.57 Q1454.19 1866.15 1448.38 1866.15 Q1442.57 1866.15 1439.49 1861.57 Q1436.44 1856.96 1436.44 1848.24 Q1436.44 1839.49 1439.49 1834.9 Q1442.57 1830.3 1448.38 1830.3 Z" fill="#000000" fill-rule="evenodd" fill-opacity="1" /><path clip-path="url(#clip530)" d="M1959.42 1834 Q1955.81 1834 1953.98 1837.57 Q1952.18 1841.11 1952.18 1848.24 Q1952.18 1855.34 1953.98 1858.91 Q1955.81 1862.45 1959.42 1862.45 Q1963.06 1862.45 1964.86 1858.91 Q1966.69 1855.34 1966.69 1848.24 Q1966.69 1841.11 1964.86 1837.57 Q1963.06 1834 1959.42 1834 M1959.42 1830.3 Q1965.23 1830.3 1968.29 1834.9 Q1971.37 1839.49 1971.37 1848.24 Q1971.37 1856.96 1968.29 1861.57 Q1965.23 1866.15 1959.42 1866.15 Q1953.61 1866.15 1950.54 1861.57 Q1947.48 1856.96 1947.48 1848.24 Q1947.48 1839.49 1950.54 1834.9 Q1953.61 1830.3 1959.42 1830.3 Z" fill="#000000" fill-rule="evenodd" fill-opacity="1" /><path clip-path="url(#clip530)" d="M1979.59 1859.6 L1984.47 1859.6 L1984.47 1865.48 L1979.59 1865.48 L1979.59 1859.6 Z" fill="#000000" fill-rule="evenodd" fill-opacity="1" /><path clip-path="url(#clip530)" d="M1993.47 1830.92 L2015.7 1830.92 L2015.7 1832.91 L2003.15 1865.48 L1998.27 1865.48 L2010.07 1834.86 L1993.47 1834.86 L1993.47 1830.92 Z" fill="#000000" fill-rule="evenodd" fill-opacity="1" /><path clip-path="url(#clip530)" d="M2024.86 1830.92 L2043.22 1830.92 L2043.22 1834.86 L2029.15 1834.86 L2029.15 1843.33 Q2030.16 1842.98 2031.18 1842.82 Q2032.2 1842.64 2033.22 1842.64 Q2039.01 1842.64 2042.39 1845.81 Q2045.77 1848.98 2045.77 1854.4 Q2045.77 1859.97 2042.29 1863.08 Q2038.82 1866.15 2032.5 1866.15 Q2030.33 1866.15 2028.06 1865.78 Q2025.81 1865.41 2023.4 1864.67 L2023.4 1859.97 Q2025.49 1861.11 2027.71 1861.66 Q2029.93 1862.22 2032.41 1862.22 Q2036.41 1862.22 2038.75 1860.11 Q2041.09 1858.01 2041.09 1854.4 Q2041.09 1850.78 2038.75 1848.68 Q2036.41 1846.57 2032.41 1846.57 Q2030.53 1846.57 2028.66 1846.99 Q2026.81 1847.4 2024.86 1848.28 L2024.86 1830.92 Z" fill="#000000" fill-rule="evenodd" fill-opacity="1" /><path clip-path="url(#clip530)" d="M2534.63 1861.55 L2542.27 1861.55 L2542.27 1835.18 L2533.96 1836.85 L2533.96 1832.59 L2542.22 1830.92 L2546.9 1830.92 L2546.9 1861.55 L2554.54 1861.55 L2554.54 1865.48 L2534.63 1865.48 L2534.63 1861.55 Z" fill="#000000" fill-rule="evenodd" fill-opacity="1" /><path clip-path="url(#clip530)" d="M2563.98 1859.6 L2568.87 1859.6 L2568.87 1865.48 L2563.98 1865.48 L2563.98 1859.6 Z" fill="#000000" fill-rule="evenodd" fill-opacity="1" /><path clip-path="url(#clip530)" d="M2589.05 1834 Q2585.44 1834 2583.61 1837.57 Q2581.81 1841.11 2581.81 1848.24 Q2581.81 1855.34 2583.61 1858.91 Q2585.44 1862.45 2589.05 1862.45 Q2592.69 1862.45 2594.49 1858.91 Q2596.32 1855.34 2596.32 1848.24 Q2596.32 1841.11 2594.49 1837.57 Q2592.69 1834 2589.05 1834 M2589.05 1830.3 Q2594.86 1830.3 2597.92 1834.9 Q2601 1839.49 2601 1848.24 Q2601 1856.96 2597.92 1861.57 Q2594.86 1866.15 2589.05 1866.15 Q2583.24 1866.15 2580.16 1861.57 Q2577.11 1856.96 2577.11 1848.24 Q2577.11 1839.49 2580.16 1834.9 Q2583.24 1830.3 2589.05 1830.3 Z" fill="#000000" fill-rule="evenodd" fill-opacity="1" /><path clip-path="url(#clip530)" d="M2619.21 1834 Q2615.6 1834 2613.77 1837.57 Q2611.97 1841.11 2611.97 1848.24 Q2611.97 1855.34 2613.77 1858.91 Q2615.6 1862.45 2619.21 1862.45 Q2622.85 1862.45 2624.65 1858.91 Q2626.48 1855.34 2626.48 1848.24 Q2626.48 1841.11 2624.65 1837.57 Q2622.85 1834 2619.21 1834 M2619.21 1830.3 Q2625.02 1830.3 2628.08 1834.9 Q2631.16 1839.49 2631.16 1848.24 Q2631.16 1856.96 2628.08 1861.57 Q2625.02 1866.15 2619.21 1866.15 Q2613.4 1866.15 2610.32 1861.57 Q2607.27 1856.96 2607.27 1848.24 Q2607.27 1839.49 2610.32 1834.9 Q2613.4 1830.3 2619.21 1830.3 Z" fill="#000000" fill-rule="evenodd" fill-opacity="1" /><polyline clip-path="url(#clip532)" style="stroke:#000000; stroke-linecap:butt; stroke-linejoin:round; stroke-width:2; stroke-opacity:0.1; fill:none" points="
  189.154,1751.43 2640.76,1751.43 
  "/>
<polyline clip-path="url(#clip532)" style="stroke:#000000; stroke-linecap:butt; stroke-linejoin:round; stroke-width:2; stroke-opacity:0.1; fill:none" points="
  189.154,1337.67 2640.76,1337.67 
  "/>
<polyline clip-path="url(#clip532)" style="stroke:#000000; stroke-linecap:butt; stroke-linejoin:round; stroke-width:2; stroke-opacity:0.1; fill:none" points="
  189.154,923.915 2640.76,923.915 
  "/>
<polyline clip-path="url(#clip532)" style="stroke:#000000; stroke-linecap:butt; stroke-linejoin:round; stroke-width:2; stroke-opacity:0.1; fill:none" points="
  189.154,510.157 2640.76,510.157 
  "/>
<polyline clip-path="url(#clip532)" style="stroke:#000000; stroke-linecap:butt; stroke-linejoin:round; stroke-width:2; stroke-opacity:0.1; fill:none" points="
  189.154,96.3989 2640.76,96.3989 
  "/>
<polyline clip-path="url(#clip530)" style="stroke:#000000; stroke-linecap:butt; stroke-linejoin:round; stroke-width:4; stroke-opacity:1; fill:none" points="
  189.154,1800.78 189.154,47.2441 
  "/>
<polyline clip-path="url(#clip530)" style="stroke:#000000; stroke-linecap:butt; stroke-linejoin:round; stroke-width:4; stroke-opacity:1; fill:none" points="
  189.154,1751.43 208.052,1751.43 
  "/>
<polyline clip-path="url(#clip530)" style="stroke:#000000; stroke-linecap:butt; stroke-linejoin:round; stroke-width:4; stroke-opacity:1; fill:none" points="
  189.154,1337.67 208.052,1337.67 
  "/>
<polyline clip-path="url(#clip530)" style="stroke:#000000; stroke-linecap:butt; stroke-linejoin:round; stroke-width:4; stroke-opacity:1; fill:none" points="
  189.154,923.915 208.052,923.915 
  "/>
<polyline clip-path="url(#clip530)" style="stroke:#000000; stroke-linecap:butt; stroke-linejoin:round; stroke-width:4; stroke-opacity:1; fill:none" points="
  189.154,510.157 208.052,510.157 
  "/>
<polyline clip-path="url(#clip530)" style="stroke:#000000; stroke-linecap:butt; stroke-linejoin:round; stroke-width:4; stroke-opacity:1; fill:none" points="
  189.154,96.3989 208.052,96.3989 
  "/>
<path clip-path="url(#clip530)" d="M61.4965 1737.23 Q57.8854 1737.23 56.0567 1740.79 Q54.2512 1744.34 54.2512 1751.47 Q54.2512 1758.57 56.0567 1762.14 Q57.8854 1765.68 61.4965 1765.68 Q65.1307 1765.68 66.9363 1762.14 Q68.765 1758.57 68.765 1751.47 Q68.765 1744.34 66.9363 1740.79 Q65.1307 1737.23 61.4965 1737.23 M61.4965 1733.53 Q67.3067 1733.53 70.3622 1738.13 Q73.4409 1742.72 73.4409 1751.47 Q73.4409 1760.19 70.3622 1764.8 Q67.3067 1769.38 61.4965 1769.38 Q55.6864 1769.38 52.6077 1764.8 Q49.5521 1760.19 49.5521 1751.47 Q49.5521 1742.72 52.6077 1738.13 Q55.6864 1733.53 61.4965 1733.53 Z" fill="#000000" fill-rule="evenodd" fill-opacity="1" /><path clip-path="url(#clip530)" d="M81.6584 1762.83 L86.5427 1762.83 L86.5427 1768.71 L81.6584 1768.71 L81.6584 1762.83 Z" fill="#000000" fill-rule="evenodd" fill-opacity="1" /><path clip-path="url(#clip530)" d="M106.728 1737.23 Q103.117 1737.23 101.288 1740.79 Q99.4824 1744.34 99.4824 1751.47 Q99.4824 1758.57 101.288 1762.14 Q103.117 1765.68 106.728 1765.68 Q110.362 1765.68 112.168 1762.14 Q113.996 1758.57 113.996 1751.47 Q113.996 1744.34 112.168 1740.79 Q110.362 1737.23 106.728 1737.23 M106.728 1733.53 Q112.538 1733.53 115.593 1738.13 Q118.672 1742.72 118.672 1751.47 Q118.672 1760.19 115.593 1764.8 Q112.538 1769.38 106.728 1769.38 Q100.918 1769.38 97.8389 1764.8 Q94.7834 1760.19 94.7834 1751.47 Q94.7834 1742.72 97.8389 1738.13 Q100.918 1733.53 106.728 1733.53 Z" fill="#000000" fill-rule="evenodd" fill-opacity="1" /><path clip-path="url(#clip530)" d="M136.89 1737.23 Q133.279 1737.23 131.45 1740.79 Q129.644 1744.34 129.644 1751.47 Q129.644 1758.57 131.45 1762.14 Q133.279 1765.68 136.89 1765.68 Q140.524 1765.68 142.329 1762.14 Q144.158 1758.57 144.158 1751.47 Q144.158 1744.34 142.329 1740.79 Q140.524 1737.23 136.89 1737.23 M136.89 1733.53 Q142.7 1733.53 145.755 1738.13 Q148.834 1742.72 148.834 1751.47 Q148.834 1760.19 145.755 1764.8 Q142.7 1769.38 136.89 1769.38 Q131.079 1769.38 128.001 1764.8 Q124.945 1760.19 124.945 1751.47 Q124.945 1742.72 128.001 1738.13 Q131.079 1733.53 136.89 1733.53 Z" fill="#000000" fill-rule="evenodd" fill-opacity="1" /><path clip-path="url(#clip530)" d="M62.4919 1323.47 Q58.8808 1323.47 57.0521 1327.04 Q55.2465 1330.58 55.2465 1337.71 Q55.2465 1344.81 57.0521 1348.38 Q58.8808 1351.92 62.4919 1351.92 Q66.1261 1351.92 67.9317 1348.38 Q69.7604 1344.81 69.7604 1337.71 Q69.7604 1330.58 67.9317 1327.04 Q66.1261 1323.47 62.4919 1323.47 M62.4919 1319.77 Q68.302 1319.77 71.3576 1324.37 Q74.4363 1328.96 74.4363 1337.71 Q74.4363 1346.43 71.3576 1351.04 Q68.302 1355.62 62.4919 1355.62 Q56.6817 1355.62 53.603 1351.04 Q50.5475 1346.43 50.5475 1337.71 Q50.5475 1328.96 53.603 1324.37 Q56.6817 1319.77 62.4919 1319.77 Z" fill="#000000" fill-rule="evenodd" fill-opacity="1" /><path clip-path="url(#clip530)" d="M82.6538 1349.07 L87.538 1349.07 L87.538 1354.95 L82.6538 1354.95 L82.6538 1349.07 Z" fill="#000000" fill-rule="evenodd" fill-opacity="1" /><path clip-path="url(#clip530)" d="M101.751 1351.02 L118.07 1351.02 L118.07 1354.95 L96.126 1354.95 L96.126 1351.02 Q98.788 1348.26 103.371 1343.63 Q107.978 1338.98 109.158 1337.64 Q111.404 1335.11 112.283 1333.38 Q113.186 1331.62 113.186 1329.93 Q113.186 1327.18 111.242 1325.44 Q109.32 1323.7 106.218 1323.7 Q104.019 1323.7 101.566 1324.47 Q99.1352 1325.23 96.3574 1326.78 L96.3574 1322.06 Q99.1815 1320.93 101.635 1320.35 Q104.089 1319.77 106.126 1319.77 Q111.496 1319.77 114.691 1322.45 Q117.885 1325.14 117.885 1329.63 Q117.885 1331.76 117.075 1333.68 Q116.288 1335.58 114.181 1338.17 Q113.603 1338.84 110.501 1342.06 Q107.399 1345.25 101.751 1351.02 Z" fill="#000000" fill-rule="evenodd" fill-opacity="1" /><path clip-path="url(#clip530)" d="M127.931 1320.39 L146.288 1320.39 L146.288 1324.33 L132.214 1324.33 L132.214 1332.8 Q133.232 1332.45 134.251 1332.29 Q135.269 1332.11 136.288 1332.11 Q142.075 1332.11 145.454 1335.28 Q148.834 1338.45 148.834 1343.86 Q148.834 1349.44 145.362 1352.55 Q141.89 1355.62 135.57 1355.62 Q133.394 1355.62 131.126 1355.25 Q128.88 1354.88 126.473 1354.14 L126.473 1349.44 Q128.556 1350.58 130.779 1351.13 Q133.001 1351.69 135.478 1351.69 Q139.482 1351.69 141.82 1349.58 Q144.158 1347.48 144.158 1343.86 Q144.158 1340.25 141.82 1338.15 Q139.482 1336.04 135.478 1336.04 Q133.603 1336.04 131.728 1336.46 Q129.876 1336.87 127.931 1337.75 L127.931 1320.39 Z" fill="#000000" fill-rule="evenodd" fill-opacity="1" /><path clip-path="url(#clip530)" d="M61.4965 909.713 Q57.8854 909.713 56.0567 913.278 Q54.2512 916.82 54.2512 923.949 Q54.2512 931.056 56.0567 934.621 Q57.8854 938.162 61.4965 938.162 Q65.1307 938.162 66.9363 934.621 Q68.765 931.056 68.765 923.949 Q68.765 916.82 66.9363 913.278 Q65.1307 909.713 61.4965 909.713 M61.4965 906.01 Q67.3067 906.01 70.3622 910.616 Q73.4409 915.2 73.4409 923.949 Q73.4409 932.676 70.3622 937.283 Q67.3067 941.866 61.4965 941.866 Q55.6864 941.866 52.6077 937.283 Q49.5521 932.676 49.5521 923.949 Q49.5521 915.2 52.6077 910.616 Q55.6864 906.01 61.4965 906.01 Z" fill="#000000" fill-rule="evenodd" fill-opacity="1" /><path clip-path="url(#clip530)" d="M81.6584 935.315 L86.5427 935.315 L86.5427 941.195 L81.6584 941.195 L81.6584 935.315 Z" fill="#000000" fill-rule="evenodd" fill-opacity="1" /><path clip-path="url(#clip530)" d="M96.7741 906.635 L115.13 906.635 L115.13 910.57 L101.056 910.57 L101.056 919.042 Q102.075 918.695 103.094 918.533 Q104.112 918.348 105.131 918.348 Q110.918 918.348 114.297 921.519 Q117.677 924.69 117.677 930.107 Q117.677 935.686 114.205 938.787 Q110.732 941.866 104.413 941.866 Q102.237 941.866 99.9685 941.496 Q97.7232 941.125 95.3158 940.385 L95.3158 935.686 Q97.3991 936.82 99.6213 937.375 Q101.844 937.931 104.32 937.931 Q108.325 937.931 110.663 935.824 Q113.001 933.718 113.001 930.107 Q113.001 926.496 110.663 924.389 Q108.325 922.283 104.32 922.283 Q102.445 922.283 100.57 922.699 Q98.7185 923.116 96.7741 923.996 L96.7741 906.635 Z" fill="#000000" fill-rule="evenodd" fill-opacity="1" /><path clip-path="url(#clip530)" d="M136.89 909.713 Q133.279 909.713 131.45 913.278 Q129.644 916.82 129.644 923.949 Q129.644 931.056 131.45 934.621 Q133.279 938.162 136.89 938.162 Q140.524 938.162 142.329 934.621 Q144.158 931.056 144.158 923.949 Q144.158 916.82 142.329 913.278 Q140.524 909.713 136.89 909.713 M136.89 906.01 Q142.7 906.01 145.755 910.616 Q148.834 915.2 148.834 923.949 Q148.834 932.676 145.755 937.283 Q142.7 941.866 136.89 941.866 Q131.079 941.866 128.001 937.283 Q124.945 932.676 124.945 923.949 Q124.945 915.2 128.001 910.616 Q131.079 906.01 136.89 906.01 Z" fill="#000000" fill-rule="evenodd" fill-opacity="1" /><path clip-path="url(#clip530)" d="M62.4919 495.955 Q58.8808 495.955 57.0521 499.52 Q55.2465 503.062 55.2465 510.192 Q55.2465 517.298 57.0521 520.863 Q58.8808 524.404 62.4919 524.404 Q66.1261 524.404 67.9317 520.863 Q69.7604 517.298 69.7604 510.192 Q69.7604 503.062 67.9317 499.52 Q66.1261 495.955 62.4919 495.955 M62.4919 492.252 Q68.302 492.252 71.3576 496.858 Q74.4363 501.442 74.4363 510.192 Q74.4363 518.918 71.3576 523.525 Q68.302 528.108 62.4919 528.108 Q56.6817 528.108 53.603 523.525 Q50.5475 518.918 50.5475 510.192 Q50.5475 501.442 53.603 496.858 Q56.6817 492.252 62.4919 492.252 Z" fill="#000000" fill-rule="evenodd" fill-opacity="1" /><path clip-path="url(#clip530)" d="M82.6538 521.557 L87.538 521.557 L87.538 527.437 L82.6538 527.437 L82.6538 521.557 Z" fill="#000000" fill-rule="evenodd" fill-opacity="1" /><path clip-path="url(#clip530)" d="M96.5426 492.877 L118.765 492.877 L118.765 494.868 L106.218 527.437 L101.334 527.437 L113.14 496.812 L96.5426 496.812 L96.5426 492.877 Z" fill="#000000" fill-rule="evenodd" fill-opacity="1" /><path clip-path="url(#clip530)" d="M127.931 492.877 L146.288 492.877 L146.288 496.812 L132.214 496.812 L132.214 505.284 Q133.232 504.937 134.251 504.775 Q135.269 504.59 136.288 504.59 Q142.075 504.59 145.454 507.761 Q148.834 510.932 148.834 516.349 Q148.834 521.928 145.362 525.029 Q141.89 528.108 135.57 528.108 Q133.394 528.108 131.126 527.738 Q128.88 527.367 126.473 526.627 L126.473 521.928 Q128.556 523.062 130.779 523.617 Q133.001 524.173 135.478 524.173 Q139.482 524.173 141.82 522.066 Q144.158 519.96 144.158 516.349 Q144.158 512.738 141.82 510.631 Q139.482 508.525 135.478 508.525 Q133.603 508.525 131.728 508.942 Q129.876 509.358 127.931 510.238 L127.931 492.877 Z" fill="#000000" fill-rule="evenodd" fill-opacity="1" /><path clip-path="url(#clip530)" d="M52.3067 109.744 L59.9456 109.744 L59.9456 83.3781 L51.6354 85.0447 L51.6354 80.7855 L59.8993 79.1189 L64.5752 79.1189 L64.5752 109.744 L72.214 109.744 L72.214 113.679 L52.3067 113.679 L52.3067 109.744 Z" fill="#000000" fill-rule="evenodd" fill-opacity="1" /><path clip-path="url(#clip530)" d="M81.6584 107.799 L86.5427 107.799 L86.5427 113.679 L81.6584 113.679 L81.6584 107.799 Z" fill="#000000" fill-rule="evenodd" fill-opacity="1" /><path clip-path="url(#clip530)" d="M106.728 82.1975 Q103.117 82.1975 101.288 85.7623 Q99.4824 89.304 99.4824 96.4336 Q99.4824 103.54 101.288 107.105 Q103.117 110.646 106.728 110.646 Q110.362 110.646 112.168 107.105 Q113.996 103.54 113.996 96.4336 Q113.996 89.304 112.168 85.7623 Q110.362 82.1975 106.728 82.1975 M106.728 78.4939 Q112.538 78.4939 115.593 83.1003 Q118.672 87.6836 118.672 96.4336 Q118.672 105.16 115.593 109.767 Q112.538 114.35 106.728 114.35 Q100.918 114.35 97.8389 109.767 Q94.7834 105.16 94.7834 96.4336 Q94.7834 87.6836 97.8389 83.1003 Q100.918 78.4939 106.728 78.4939 Z" fill="#000000" fill-rule="evenodd" fill-opacity="1" /><path clip-path="url(#clip530)" d="M136.89 82.1975 Q133.279 82.1975 131.45 85.7623 Q129.644 89.304 129.644 96.4336 Q129.644 103.54 131.45 107.105 Q133.279 110.646 136.89 110.646 Q140.524 110.646 142.329 107.105 Q144.158 103.54 144.158 96.4336 Q144.158 89.304 142.329 85.7623 Q140.524 82.1975 136.89 82.1975 M136.89 78.4939 Q142.7 78.4939 145.755 83.1003 Q148.834 87.6836 148.834 96.4336 Q148.834 105.16 145.755 109.767 Q142.7 114.35 136.89 114.35 Q131.079 114.35 128.001 109.767 Q124.945 105.16 124.945 96.4336 Q124.945 87.6836 128.001 83.1003 Q131.079 78.4939 136.89 78.4939 Z" fill="#000000" fill-rule="evenodd" fill-opacity="1" /><polyline clip-path="url(#clip532)" style="stroke:#009af9; stroke-linecap:butt; stroke-linejoin:round; stroke-width:4; stroke-opacity:1; fill:none" points="
  2235.43,645.109 452.842,1586.25 1764.24,292.804 1529.01,1379.99 2242.31,1609.47 710.175,1627.33 1634.32,1428.28 1939.03,303.953 2016.23,1709.85 2243.97,1663.25 
  696.343,729.08 1435.3,1135.63 1077.87,1721.28 844.211,784.068 1147.52,968.839 341.999,304.284 2325.97,236.764 1980.15,941.888 1475.61,1325.68 1702.41,334.468 
  1373.87,952.313 743.633,1563.91 2218.34,1702.93 2491.41,621.703 2368.84,1479.67 1864.55,708.302 2168.64,774.692 2511.75,1193.48 290.579,1751.15 2521.74,704.406 
  288.422,1420.03 535.557,930.085 727.978,472.683 2466.77,1340.19 1872.52,230.362 916.105,1096.79 1718.56,486.281 837.547,1350.98 274.811,1071.01 354.447,176.412 
  1568.74,149.982 2571.37,1397.67 1043.35,199.356 2155.8,213.087 835.743,1387.65 1345.99,1228.9 1723.5,865.298 1233.92,1202.44 1490.59,1646.83 2530.55,495.168 
  258.539,1643.22 513.32,367.304 895.371,1071.95 1108.82,1372.79 1049.95,1617.52 328.887,1329.03 458.503,1741.78 501.302,1300.14 1373.44,496.804 1747.93,1545.66 
  2005.61,730.9 1082.42,473.075 1394.91,245.887 1660.23,96.8724 1989.62,1162.73 1248.82,641.528 2090.84,1108.74 613.149,1300.35 968.068,281.084 856.979,165.918 
  655.793,1364.31 1986.92,476.928 1101.45,403.704 2019.75,365.633 695.58,750.7 324.816,1642.41 1154.93,959.942 2081.49,1309.31 919.313,587.706 1964.82,1750.21 
  824.33,311.15 1292.85,1470.29 2087.83,787.414 1234.64,824.701 1591.75,1189.54 2263.3,1286.07 2001.6,1616.66 1027.36,806.929 2052.68,471.556 1582.83,1458.77 
  1953.93,182.066 1065.01,810.608 1652.99,925.395 2298.53,677.019 1543.63,1558.89 429.751,1453.84 552.344,907.65 640.19,473.431 1652.25,474.304 2145.33,1238.3 
  
  "/>
<path clip-path="url(#clip530)" d="
M2261.45 209.375 L2559.04 209.375 L2559.04 105.695 L2261.45 105.695  Z
  " fill="#ffffff" fill-rule="evenodd" fill-opacity="1"/>
<polyline clip-path="url(#clip530)" style="stroke:#000000; stroke-linecap:butt; stroke-linejoin:round; stroke-width:4; stroke-opacity:1; fill:none" points="
  2261.45,209.375 2559.04,209.375 2559.04,105.695 2261.45,105.695 2261.45,209.375 
  "/>
<polyline clip-path="url(#clip530)" style="stroke:#009af9; stroke-linecap:butt; stroke-linejoin:round; stroke-width:4; stroke-opacity:1; fill:none" points="
  2288.69,157.535 2452.13,157.535 
  "/>
<path clip-path="url(#clip530)" d="M2493.21 177.223 Q2491.4 181.852 2489.69 183.264 Q2487.98 184.676 2485.11 184.676 L2481.7 184.676 L2481.7 181.112 L2484.2 181.112 Q2485.96 181.112 2486.93 180.278 Q2487.91 179.445 2489.09 176.343 L2489.85 174.399 L2479.37 148.889 L2483.88 148.889 L2491.98 169.167 L2500.08 148.889 L2504.6 148.889 L2493.21 177.223 Z" fill="#000000" fill-rule="evenodd" fill-opacity="1" /><path clip-path="url(#clip530)" d="M2511.89 170.88 L2519.53 170.88 L2519.53 144.515 L2511.22 146.181 L2511.22 141.922 L2519.48 140.255 L2524.16 140.255 L2524.16 170.88 L2531.8 170.88 L2531.8 174.815 L2511.89 174.815 L2511.89 170.88 Z" fill="#000000" fill-rule="evenodd" fill-opacity="1" /></svg>
