<?xml version="1.0" encoding="utf-8"?>
<svg xmlns="http://www.w3.org/2000/svg" xmlns:xlink="http://www.w3.org/1999/xlink" width="672" height="480" viewBox="0 0 2688 1920">
<defs>
  <clipPath id="clip790">
    <rect x="0" y="0" width="2688" height="1920"/>
  </clipPath>
</defs>
<path clip-path="url(#clip790)" d="
M0 1920 L2688 1920 L2688 0 L0 0  Z
  " fill="#ffffff" fill-rule="evenodd" fill-opacity="1"/>
<defs>
  <clipPath id="clip791">
    <rect x="537" y="0" width="1883" height="1883"/>
  </clipPath>
</defs>
<path clip-path="url(#clip790)" d="
M189.154 1800.78 L2640.76 1800.78 L2640.76 47.2441 L189.154 47.2441  Z
  " fill="#ffffff" fill-rule="evenodd" fill-opacity="1"/>
<defs>
  <clipPath id="clip792">
    <rect x="189" y="47" width="2453" height="1755"/>
  </clipPath>
</defs>
<polyline clip-path="url(#clip792)" style="stroke:#000000; stroke-linecap:butt; stroke-linejoin:round; stroke-width:2; stroke-opacity:0.1; fill:none" points="
  233.078,1800.78 233.078,47.2441 
  "/>
<polyline clip-path="url(#clip792)" style="stroke:#000000; stroke-linecap:butt; stroke-linejoin:round; stroke-width:2; stroke-opacity:0.1; fill:none" points="
  819.143,1800.78 819.143,47.2441 
  "/>
<polyline clip-path="url(#clip792)" style="stroke:#000000; stroke-linecap:butt; stroke-linejoin:round; stroke-width:2; stroke-opacity:0.1; fill:none" points="
  1405.21,1800.78 1405.21,47.2441 
  "/>
<polyline clip-path="url(#clip792)" style="stroke:#000000; stroke-linecap:butt; stroke-linejoin:round; stroke-width:2; stroke-opacity:0.1; fill:none" points="
  1991.27,1800.78 1991.27,47.2441 
  "/>
<polyline clip-path="url(#clip792)" style="stroke:#000000; stroke-linecap:butt; stroke-linejoin:round; stroke-width:2; stroke-opacity:0.1; fill:none" points="
  2577.34,1800.78 2577.34,47.2441 
  "/>
<polyline clip-path="url(#clip790)" style="stroke:#000000; stroke-linecap:butt; stroke-linejoin:round; stroke-width:4; stroke-opacity:1; fill:none" points="
  189.154,1800.78 2640.76,1800.78 
  "/>
<polyline clip-path="url(#clip790)" style="stroke:#000000; stroke-linecap:butt; stroke-linejoin:round; stroke-width:4; stroke-opacity:1; fill:none" points="
  233.078,1800.78 233.078,1781.88 
  "/>
<polyline clip-path="url(#clip790)" style="stroke:#000000; stroke-linecap:butt; stroke-linejoin:round; stroke-width:4; stroke-opacity:1; fill:none" points="
  819.143,1800.78 819.143,1781.88 
  "/>
<polyline clip-path="url(#clip790)" style="stroke:#000000; stroke-linecap:butt; stroke-linejoin:round; stroke-width:4; stroke-opacity:1; fill:none" points="
  1405.21,1800.78 1405.21,1781.88 
  "/>
<polyline clip-path="url(#clip790)" style="stroke:#000000; stroke-linecap:butt; stroke-linejoin:round; stroke-width:4; stroke-opacity:1; fill:none" points="
  1991.27,1800.78 1991.27,1781.88 
  "/>
<polyline clip-path="url(#clip790)" style="stroke:#000000; stroke-linecap:butt; stroke-linejoin:round; stroke-width:4; stroke-opacity:1; fill:none" points="
  2577.34,1800.78 2577.34,1781.88 
  "/>
<path clip-path="url(#clip790)" d="M195.382 1834 Q191.771 1834 189.942 1837.57 Q188.137 1841.11 188.137 1848.24 Q188.137 1855.34 189.942 1858.91 Q191.771 1862.45 195.382 1862.45 Q199.016 1862.45 200.822 1858.91 Q202.65 1855.34 202.65 1848.24 Q202.65 1841.11 200.822 1837.57 Q199.016 1834 195.382 1834 M195.382 1830.3 Q201.192 1830.3 204.248 1834.9 Q207.326 1839.49 207.326 1848.24 Q207.326 1856.96 204.248 1861.57 Q201.192 1866.15 195.382 1866.15 Q189.572 1866.15 186.493 1861.57 Q183.437 1856.96 183.437 1848.24 Q183.437 1839.49 186.493 1834.9 Q189.572 1830.3 195.382 1830.3 Z" fill="#000000" fill-rule="evenodd" fill-opacity="1" /><path clip-path="url(#clip790)" d="M215.544 1859.6 L220.428 1859.6 L220.428 1865.48 L215.544 1865.48 L215.544 1859.6 Z" fill="#000000" fill-rule="evenodd" fill-opacity="1" /><path clip-path="url(#clip790)" d="M240.613 1834 Q237.002 1834 235.173 1837.57 Q233.368 1841.11 233.368 1848.24 Q233.368 1855.34 235.173 1858.91 Q237.002 1862.45 240.613 1862.45 Q244.247 1862.45 246.053 1858.91 Q247.882 1855.34 247.882 1848.24 Q247.882 1841.11 246.053 1837.57 Q244.247 1834 240.613 1834 M240.613 1830.3 Q246.423 1830.3 249.479 1834.9 Q252.557 1839.49 252.557 1848.24 Q252.557 1856.96 249.479 1861.57 Q246.423 1866.15 240.613 1866.15 Q234.803 1866.15 231.724 1861.57 Q228.669 1856.96 228.669 1848.24 Q228.669 1839.49 231.724 1834.9 Q234.803 1830.3 240.613 1830.3 Z" fill="#000000" fill-rule="evenodd" fill-opacity="1" /><path clip-path="url(#clip790)" d="M270.775 1834 Q267.164 1834 265.335 1837.57 Q263.53 1841.11 263.53 1848.24 Q263.53 1855.34 265.335 1858.91 Q267.164 1862.45 270.775 1862.45 Q274.409 1862.45 276.215 1858.91 Q278.043 1855.34 278.043 1848.24 Q278.043 1841.11 276.215 1837.57 Q274.409 1834 270.775 1834 M270.775 1830.3 Q276.585 1830.3 279.641 1834.9 Q282.719 1839.49 282.719 1848.24 Q282.719 1856.96 279.641 1861.57 Q276.585 1866.15 270.775 1866.15 Q264.965 1866.15 261.886 1861.57 Q258.831 1856.96 258.831 1848.24 Q258.831 1839.49 261.886 1834.9 Q264.965 1830.3 270.775 1830.3 Z" fill="#000000" fill-rule="evenodd" fill-opacity="1" /><path clip-path="url(#clip790)" d="M781.944 1834 Q778.333 1834 776.504 1837.57 Q774.699 1841.11 774.699 1848.24 Q774.699 1855.34 776.504 1858.91 Q778.333 1862.45 781.944 1862.45 Q785.578 1862.45 787.384 1858.91 Q789.212 1855.34 789.212 1848.24 Q789.212 1841.11 787.384 1837.57 Q785.578 1834 781.944 1834 M781.944 1830.3 Q787.754 1830.3 790.81 1834.9 Q793.888 1839.49 793.888 1848.24 Q793.888 1856.96 790.81 1861.57 Q787.754 1866.15 781.944 1866.15 Q776.134 1866.15 773.055 1861.57 Q770 1856.96 770 1848.24 Q770 1839.49 773.055 1834.9 Q776.134 1830.3 781.944 1830.3 Z" fill="#000000" fill-rule="evenodd" fill-opacity="1" /><path clip-path="url(#clip790)" d="M802.106 1859.6 L806.99 1859.6 L806.99 1865.48 L802.106 1865.48 L802.106 1859.6 Z" fill="#000000" fill-rule="evenodd" fill-opacity="1" /><path clip-path="url(#clip790)" d="M821.203 1861.55 L837.522 1861.55 L837.522 1865.48 L815.578 1865.48 L815.578 1861.55 Q818.24 1858.79 822.823 1854.16 Q827.43 1849.51 828.61 1848.17 Q830.856 1845.65 831.735 1843.91 Q832.638 1842.15 832.638 1840.46 Q832.638 1837.71 830.694 1835.97 Q828.772 1834.23 825.671 1834.23 Q823.472 1834.23 821.018 1835 Q818.587 1835.76 815.81 1837.31 L815.81 1832.59 Q818.634 1831.46 821.087 1830.88 Q823.541 1830.3 825.578 1830.3 Q830.948 1830.3 834.143 1832.98 Q837.337 1835.67 837.337 1840.16 Q837.337 1842.29 836.527 1844.21 Q835.74 1846.11 833.634 1848.7 Q833.055 1849.37 829.953 1852.59 Q826.851 1855.78 821.203 1861.55 Z" fill="#000000" fill-rule="evenodd" fill-opacity="1" /><path clip-path="url(#clip790)" d="M847.383 1830.92 L865.74 1830.92 L865.74 1834.86 L851.666 1834.86 L851.666 1843.33 Q852.684 1842.98 853.703 1842.82 Q854.721 1842.64 855.74 1842.64 Q861.527 1842.64 864.907 1845.81 Q868.286 1848.98 868.286 1854.4 Q868.286 1859.97 864.814 1863.08 Q861.342 1866.15 855.022 1866.15 Q852.846 1866.15 850.578 1865.78 Q848.333 1865.41 845.925 1864.67 L845.925 1859.97 Q848.008 1861.11 850.231 1861.66 Q852.453 1862.22 854.93 1862.22 Q858.934 1862.22 861.272 1860.11 Q863.61 1858.01 863.61 1854.4 Q863.61 1850.78 861.272 1848.68 Q858.934 1846.57 854.93 1846.57 Q853.055 1846.57 851.18 1846.99 Q849.328 1847.4 847.383 1848.28 L847.383 1830.92 Z" fill="#000000" fill-rule="evenodd" fill-opacity="1" /><path clip-path="url(#clip790)" d="M1367.51 1834 Q1363.9 1834 1362.07 1837.57 Q1360.27 1841.11 1360.27 1848.24 Q1360.27 1855.34 1362.07 1858.91 Q1363.9 1862.45 1367.51 1862.45 Q1371.15 1862.45 1372.95 1858.91 Q1374.78 1855.34 1374.78 1848.24 Q1374.78 1841.11 1372.95 1837.57 Q1371.15 1834 1367.51 1834 M1367.51 1830.3 Q1373.32 1830.3 1376.38 1834.9 Q1379.46 1839.49 1379.46 1848.24 Q1379.46 1856.96 1376.38 1861.57 Q1373.32 1866.15 1367.51 1866.15 Q1361.7 1866.15 1358.62 1861.57 Q1355.57 1856.96 1355.57 1848.24 Q1355.57 1839.49 1358.62 1834.9 Q1361.7 1830.3 1367.51 1830.3 Z" fill="#000000" fill-rule="evenodd" fill-opacity="1" /><path clip-path="url(#clip790)" d="M1387.67 1859.6 L1392.56 1859.6 L1392.56 1865.48 L1387.67 1865.48 L1387.67 1859.6 Z" fill="#000000" fill-rule="evenodd" fill-opacity="1" /><path clip-path="url(#clip790)" d="M1402.79 1830.92 L1421.14 1830.92 L1421.14 1834.86 L1407.07 1834.86 L1407.07 1843.33 Q1408.09 1842.98 1409.11 1842.82 Q1410.13 1842.64 1411.14 1842.64 Q1416.93 1842.64 1420.31 1845.81 Q1423.69 1848.98 1423.69 1854.4 Q1423.69 1859.97 1420.22 1863.08 Q1416.75 1866.15 1410.43 1866.15 Q1408.25 1866.15 1405.98 1865.78 Q1403.74 1865.41 1401.33 1864.67 L1401.33 1859.97 Q1403.41 1861.11 1405.64 1861.66 Q1407.86 1862.22 1410.33 1862.22 Q1414.34 1862.22 1416.68 1860.11 Q1419.02 1858.01 1419.02 1854.4 Q1419.02 1850.78 1416.68 1848.68 Q1414.34 1846.57 1410.33 1846.57 Q1408.46 1846.57 1406.58 1846.99 Q1404.73 1847.4 1402.79 1848.28 L1402.79 1830.92 Z" fill="#000000" fill-rule="evenodd" fill-opacity="1" /><path clip-path="url(#clip790)" d="M1442.9 1834 Q1439.29 1834 1437.46 1837.57 Q1435.66 1841.11 1435.66 1848.24 Q1435.66 1855.34 1437.46 1858.91 Q1439.29 1862.45 1442.9 1862.45 Q1446.54 1862.45 1448.34 1858.91 Q1450.17 1855.34 1450.17 1848.24 Q1450.17 1841.11 1448.34 1837.57 Q1446.54 1834 1442.9 1834 M1442.9 1830.3 Q1448.71 1830.3 1451.77 1834.9 Q1454.85 1839.49 1454.85 1848.24 Q1454.85 1856.96 1451.77 1861.57 Q1448.71 1866.15 1442.9 1866.15 Q1437.09 1866.15 1434.02 1861.57 Q1430.96 1856.96 1430.96 1848.24 Q1430.96 1839.49 1434.02 1834.9 Q1437.09 1830.3 1442.9 1830.3 Z" fill="#000000" fill-rule="evenodd" fill-opacity="1" /><path clip-path="url(#clip790)" d="M1954.07 1834 Q1950.46 1834 1948.63 1837.57 Q1946.83 1841.11 1946.83 1848.24 Q1946.83 1855.34 1948.63 1858.91 Q1950.46 1862.45 1954.07 1862.45 Q1957.71 1862.45 1959.51 1858.91 Q1961.34 1855.34 1961.34 1848.24 Q1961.34 1841.11 1959.51 1837.57 Q1957.71 1834 1954.07 1834 M1954.07 1830.3 Q1959.88 1830.3 1962.94 1834.9 Q1966.02 1839.49 1966.02 1848.24 Q1966.02 1856.96 1962.94 1861.57 Q1959.88 1866.15 1954.07 1866.15 Q1948.26 1866.15 1945.18 1861.57 Q1942.13 1856.96 1942.13 1848.24 Q1942.13 1839.49 1945.18 1834.9 Q1948.26 1830.3 1954.07 1830.3 Z" fill="#000000" fill-rule="evenodd" fill-opacity="1" /><path clip-path="url(#clip790)" d="M1974.23 1859.6 L1979.12 1859.6 L1979.12 1865.48 L1974.23 1865.48 L1974.23 1859.6 Z" fill="#000000" fill-rule="evenodd" fill-opacity="1" /><path clip-path="url(#clip790)" d="M1988.12 1830.92 L2010.35 1830.92 L2010.35 1832.91 L1997.8 1865.48 L1992.92 1865.48 L2004.72 1834.86 L1988.12 1834.86 L1988.12 1830.92 Z" fill="#000000" fill-rule="evenodd" fill-opacity="1" /><path clip-path="url(#clip790)" d="M2019.51 1830.92 L2037.87 1830.92 L2037.87 1834.86 L2023.79 1834.86 L2023.79 1843.33 Q2024.81 1842.98 2025.83 1842.82 Q2026.85 1842.64 2027.87 1842.64 Q2033.66 1842.64 2037.04 1845.81 Q2040.42 1848.98 2040.42 1854.4 Q2040.42 1859.97 2036.94 1863.08 Q2033.47 1866.15 2027.15 1866.15 Q2024.98 1866.15 2022.71 1865.78 Q2020.46 1865.41 2018.05 1864.67 L2018.05 1859.97 Q2020.14 1861.11 2022.36 1861.66 Q2024.58 1862.22 2027.06 1862.22 Q2031.06 1862.22 2033.4 1860.11 Q2035.74 1858.01 2035.74 1854.4 Q2035.74 1850.78 2033.4 1848.68 Q2031.06 1846.57 2027.06 1846.57 Q2025.18 1846.57 2023.31 1846.99 Q2021.46 1847.4 2019.51 1848.28 L2019.51 1830.92 Z" fill="#000000" fill-rule="evenodd" fill-opacity="1" /><path clip-path="url(#clip790)" d="M2529.41 1861.55 L2537.05 1861.55 L2537.05 1835.18 L2528.74 1836.85 L2528.74 1832.59 L2537 1830.92 L2541.68 1830.92 L2541.68 1861.55 L2549.32 1861.55 L2549.32 1865.48 L2529.41 1865.48 L2529.41 1861.55 Z" fill="#000000" fill-rule="evenodd" fill-opacity="1" /><path clip-path="url(#clip790)" d="M2558.76 1859.6 L2563.64 1859.6 L2563.64 1865.48 L2558.76 1865.48 L2558.76 1859.6 Z" fill="#000000" fill-rule="evenodd" fill-opacity="1" /><path clip-path="url(#clip790)" d="M2583.83 1834 Q2580.22 1834 2578.39 1837.57 Q2576.58 1841.11 2576.58 1848.24 Q2576.58 1855.34 2578.39 1858.91 Q2580.22 1862.45 2583.83 1862.45 Q2587.46 1862.45 2589.27 1858.91 Q2591.1 1855.34 2591.1 1848.24 Q2591.1 1841.11 2589.27 1837.57 Q2587.46 1834 2583.83 1834 M2583.83 1830.3 Q2589.64 1830.3 2592.7 1834.9 Q2595.77 1839.49 2595.77 1848.24 Q2595.77 1856.96 2592.7 1861.57 Q2589.64 1866.15 2583.83 1866.15 Q2578.02 1866.15 2574.94 1861.57 Q2571.88 1856.96 2571.88 1848.24 Q2571.88 1839.49 2574.94 1834.9 Q2578.02 1830.3 2583.83 1830.3 Z" fill="#000000" fill-rule="evenodd" fill-opacity="1" /><path clip-path="url(#clip790)" d="M2613.99 1834 Q2610.38 1834 2608.55 1837.57 Q2606.75 1841.11 2606.75 1848.24 Q2606.75 1855.34 2608.55 1858.91 Q2610.38 1862.45 2613.99 1862.45 Q2617.63 1862.45 2619.43 1858.91 Q2621.26 1855.34 2621.26 1848.24 Q2621.26 1841.11 2619.43 1837.57 Q2617.63 1834 2613.99 1834 M2613.99 1830.3 Q2619.8 1830.3 2622.86 1834.9 Q2625.94 1839.49 2625.94 1848.24 Q2625.94 1856.96 2622.86 1861.57 Q2619.8 1866.15 2613.99 1866.15 Q2608.18 1866.15 2605.1 1861.57 Q2602.05 1856.96 2602.05 1848.24 Q2602.05 1839.49 2605.1 1834.9 Q2608.18 1830.3 2613.99 1830.3 Z" fill="#000000" fill-rule="evenodd" fill-opacity="1" /><polyline clip-path="url(#clip792)" style="stroke:#000000; stroke-linecap:butt; stroke-linejoin:round; stroke-width:2; stroke-opacity:0.1; fill:none" points="
  189.154,1765.34 2640.76,1765.34 
  "/>
<polyline clip-path="url(#clip792)" style="stroke:#000000; stroke-linecap:butt; stroke-linejoin:round; stroke-width:2; stroke-opacity:0.1; fill:none" points="
  189.154,1346.85 2640.76,1346.85 
  "/>
<polyline clip-path="url(#clip792)" style="stroke:#000000; stroke-linecap:butt; stroke-linejoin:round; stroke-width:2; stroke-opacity:0.1; fill:none" points="
  189.154,928.361 2640.76,928.361 
  "/>
<polyline clip-path="url(#clip792)" style="stroke:#000000; stroke-linecap:butt; stroke-linejoin:round; stroke-width:2; stroke-opacity:0.1; fill:none" points="
  189.154,509.872 2640.76,509.872 
  "/>
<polyline clip-path="url(#clip792)" style="stroke:#000000; stroke-linecap:butt; stroke-linejoin:round; stroke-width:2; stroke-opacity:0.1; fill:none" points="
  189.154,91.3837 2640.76,91.3837 
  "/>
<polyline clip-path="url(#clip790)" style="stroke:#000000; stroke-linecap:butt; stroke-linejoin:round; stroke-width:4; stroke-opacity:1; fill:none" points="
  189.154,1800.78 189.154,47.2441 
  "/>
<polyline clip-path="url(#clip790)" style="stroke:#000000; stroke-linecap:butt; stroke-linejoin:round; stroke-width:4; stroke-opacity:1; fill:none" points="
  189.154,1765.34 208.052,1765.34 
  "/>
<polyline clip-path="url(#clip790)" style="stroke:#000000; stroke-linecap:butt; stroke-linejoin:round; stroke-width:4; stroke-opacity:1; fill:none" points="
  189.154,1346.85 208.052,1346.85 
  "/>
<polyline clip-path="url(#clip790)" style="stroke:#000000; stroke-linecap:butt; stroke-linejoin:round; stroke-width:4; stroke-opacity:1; fill:none" points="
  189.154,928.361 208.052,928.361 
  "/>
<polyline clip-path="url(#clip790)" style="stroke:#000000; stroke-linecap:butt; stroke-linejoin:round; stroke-width:4; stroke-opacity:1; fill:none" points="
  189.154,509.872 208.052,509.872 
  "/>
<polyline clip-path="url(#clip790)" style="stroke:#000000; stroke-linecap:butt; stroke-linejoin:round; stroke-width:4; stroke-opacity:1; fill:none" points="
  189.154,91.3837 208.052,91.3837 
  "/>
<path clip-path="url(#clip790)" d="M61.4965 1751.14 Q57.8854 1751.14 56.0567 1754.7 Q54.2512 1758.24 54.2512 1765.37 Q54.2512 1772.48 56.0567 1776.04 Q57.8854 1779.58 61.4965 1779.58 Q65.1307 1779.58 66.9363 1776.04 Q68.765 1772.48 68.765 1765.37 Q68.765 1758.24 66.9363 1754.7 Q65.1307 1751.14 61.4965 1751.14 M61.4965 1747.43 Q67.3067 1747.43 70.3622 1752.04 Q73.4409 1756.62 73.4409 1765.37 Q73.4409 1774.1 70.3622 1778.71 Q67.3067 1783.29 61.4965 1783.29 Q55.6864 1783.29 52.6077 1778.71 Q49.5521 1774.1 49.5521 1765.37 Q49.5521 1756.62 52.6077 1752.04 Q55.6864 1747.43 61.4965 1747.43 Z" fill="#000000" fill-rule="evenodd" fill-opacity="1" /><path clip-path="url(#clip790)" d="M81.6584 1776.74 L86.5427 1776.74 L86.5427 1782.62 L81.6584 1782.62 L81.6584 1776.74 Z" fill="#000000" fill-rule="evenodd" fill-opacity="1" /><path clip-path="url(#clip790)" d="M106.728 1751.14 Q103.117 1751.14 101.288 1754.7 Q99.4824 1758.24 99.4824 1765.37 Q99.4824 1772.48 101.288 1776.04 Q103.117 1779.58 106.728 1779.58 Q110.362 1779.58 112.168 1776.04 Q113.996 1772.48 113.996 1765.37 Q113.996 1758.24 112.168 1754.7 Q110.362 1751.14 106.728 1751.14 M106.728 1747.43 Q112.538 1747.43 115.593 1752.04 Q118.672 1756.62 118.672 1765.37 Q118.672 1774.1 115.593 1778.71 Q112.538 1783.29 106.728 1783.29 Q100.918 1783.29 97.8389 1778.71 Q94.7834 1774.1 94.7834 1765.37 Q94.7834 1756.62 97.8389 1752.04 Q100.918 1747.43 106.728 1747.43 Z" fill="#000000" fill-rule="evenodd" fill-opacity="1" /><path clip-path="url(#clip790)" d="M136.89 1751.14 Q133.279 1751.14 131.45 1754.7 Q129.644 1758.24 129.644 1765.37 Q129.644 1772.48 131.45 1776.04 Q133.279 1779.58 136.89 1779.58 Q140.524 1779.58 142.329 1776.04 Q144.158 1772.48 144.158 1765.37 Q144.158 1758.24 142.329 1754.7 Q140.524 1751.14 136.89 1751.14 M136.89 1747.43 Q142.7 1747.43 145.755 1752.04 Q148.834 1756.62 148.834 1765.37 Q148.834 1774.1 145.755 1778.71 Q142.7 1783.29 136.89 1783.29 Q131.079 1783.29 128.001 1778.71 Q124.945 1774.1 124.945 1765.37 Q124.945 1756.62 128.001 1752.04 Q131.079 1747.43 136.89 1747.43 Z" fill="#000000" fill-rule="evenodd" fill-opacity="1" /><path clip-path="url(#clip790)" d="M62.4919 1332.65 Q58.8808 1332.65 57.0521 1336.21 Q55.2465 1339.75 55.2465 1346.88 Q55.2465 1353.99 57.0521 1357.55 Q58.8808 1361.1 62.4919 1361.1 Q66.1261 1361.1 67.9317 1357.55 Q69.7604 1353.99 69.7604 1346.88 Q69.7604 1339.75 67.9317 1336.21 Q66.1261 1332.65 62.4919 1332.65 M62.4919 1328.94 Q68.302 1328.94 71.3576 1333.55 Q74.4363 1338.13 74.4363 1346.88 Q74.4363 1355.61 71.3576 1360.22 Q68.302 1364.8 62.4919 1364.8 Q56.6817 1364.8 53.603 1360.22 Q50.5475 1355.61 50.5475 1346.88 Q50.5475 1338.13 53.603 1333.55 Q56.6817 1328.94 62.4919 1328.94 Z" fill="#000000" fill-rule="evenodd" fill-opacity="1" /><path clip-path="url(#clip790)" d="M82.6538 1358.25 L87.538 1358.25 L87.538 1364.13 L82.6538 1364.13 L82.6538 1358.25 Z" fill="#000000" fill-rule="evenodd" fill-opacity="1" /><path clip-path="url(#clip790)" d="M101.751 1360.19 L118.07 1360.19 L118.07 1364.13 L96.126 1364.13 L96.126 1360.19 Q98.788 1357.44 103.371 1352.81 Q107.978 1348.16 109.158 1346.81 Q111.404 1344.29 112.283 1342.55 Q113.186 1340.8 113.186 1339.11 Q113.186 1336.35 111.242 1334.62 Q109.32 1332.88 106.218 1332.88 Q104.019 1332.88 101.566 1333.64 Q99.1352 1334.41 96.3574 1335.96 L96.3574 1331.24 Q99.1815 1330.1 101.635 1329.52 Q104.089 1328.94 106.126 1328.94 Q111.496 1328.94 114.691 1331.63 Q117.885 1334.31 117.885 1338.8 Q117.885 1340.93 117.075 1342.86 Q116.288 1344.75 114.181 1347.35 Q113.603 1348.02 110.501 1351.24 Q107.399 1354.43 101.751 1360.19 Z" fill="#000000" fill-rule="evenodd" fill-opacity="1" /><path clip-path="url(#clip790)" d="M127.931 1329.57 L146.288 1329.57 L146.288 1333.5 L132.214 1333.5 L132.214 1341.98 Q133.232 1341.63 134.251 1341.47 Q135.269 1341.28 136.288 1341.28 Q142.075 1341.28 145.454 1344.45 Q148.834 1347.62 148.834 1353.04 Q148.834 1358.62 145.362 1361.72 Q141.89 1364.8 135.57 1364.8 Q133.394 1364.8 131.126 1364.43 Q128.88 1364.06 126.473 1363.32 L126.473 1358.62 Q128.556 1359.75 130.779 1360.31 Q133.001 1360.87 135.478 1360.87 Q139.482 1360.87 141.82 1358.76 Q144.158 1356.65 144.158 1353.04 Q144.158 1349.43 141.82 1347.32 Q139.482 1345.22 135.478 1345.22 Q133.603 1345.22 131.728 1345.63 Q129.876 1346.05 127.931 1346.93 L127.931 1329.57 Z" fill="#000000" fill-rule="evenodd" fill-opacity="1" /><path clip-path="url(#clip790)" d="M61.4965 914.159 Q57.8854 914.159 56.0567 917.724 Q54.2512 921.266 54.2512 928.395 Q54.2512 935.502 56.0567 939.066 Q57.8854 942.608 61.4965 942.608 Q65.1307 942.608 66.9363 939.066 Q68.765 935.502 68.765 928.395 Q68.765 921.266 66.9363 917.724 Q65.1307 914.159 61.4965 914.159 M61.4965 910.456 Q67.3067 910.456 70.3622 915.062 Q73.4409 919.645 73.4409 928.395 Q73.4409 937.122 70.3622 941.728 Q67.3067 946.312 61.4965 946.312 Q55.6864 946.312 52.6077 941.728 Q49.5521 937.122 49.5521 928.395 Q49.5521 919.645 52.6077 915.062 Q55.6864 910.456 61.4965 910.456 Z" fill="#000000" fill-rule="evenodd" fill-opacity="1" /><path clip-path="url(#clip790)" d="M81.6584 939.761 L86.5427 939.761 L86.5427 945.641 L81.6584 945.641 L81.6584 939.761 Z" fill="#000000" fill-rule="evenodd" fill-opacity="1" /><path clip-path="url(#clip790)" d="M96.7741 911.081 L115.13 911.081 L115.13 915.016 L101.056 915.016 L101.056 923.488 Q102.075 923.141 103.094 922.979 Q104.112 922.793 105.131 922.793 Q110.918 922.793 114.297 925.965 Q117.677 929.136 117.677 934.553 Q117.677 940.131 114.205 943.233 Q110.732 946.312 104.413 946.312 Q102.237 946.312 99.9685 945.941 Q97.7232 945.571 95.3158 944.83 L95.3158 940.131 Q97.3991 941.266 99.6213 941.821 Q101.844 942.377 104.32 942.377 Q108.325 942.377 110.663 940.27 Q113.001 938.164 113.001 934.553 Q113.001 930.942 110.663 928.835 Q108.325 926.729 104.32 926.729 Q102.445 926.729 100.57 927.145 Q98.7185 927.562 96.7741 928.442 L96.7741 911.081 Z" fill="#000000" fill-rule="evenodd" fill-opacity="1" /><path clip-path="url(#clip790)" d="M136.89 914.159 Q133.279 914.159 131.45 917.724 Q129.644 921.266 129.644 928.395 Q129.644 935.502 131.45 939.066 Q133.279 942.608 136.89 942.608 Q140.524 942.608 142.329 939.066 Q144.158 935.502 144.158 928.395 Q144.158 921.266 142.329 917.724 Q140.524 914.159 136.89 914.159 M136.89 910.456 Q142.7 910.456 145.755 915.062 Q148.834 919.645 148.834 928.395 Q148.834 937.122 145.755 941.728 Q142.7 946.312 136.89 946.312 Q131.079 946.312 128.001 941.728 Q124.945 937.122 124.945 928.395 Q124.945 919.645 128.001 915.062 Q131.079 910.456 136.89 910.456 Z" fill="#000000" fill-rule="evenodd" fill-opacity="1" /><path clip-path="url(#clip790)" d="M62.4919 495.671 Q58.8808 495.671 57.0521 499.236 Q55.2465 502.777 55.2465 509.907 Q55.2465 517.013 57.0521 520.578 Q58.8808 524.12 62.4919 524.12 Q66.1261 524.12 67.9317 520.578 Q69.7604 517.013 69.7604 509.907 Q69.7604 502.777 67.9317 499.236 Q66.1261 495.671 62.4919 495.671 M62.4919 491.967 Q68.302 491.967 71.3576 496.574 Q74.4363 501.157 74.4363 509.907 Q74.4363 518.634 71.3576 523.24 Q68.302 527.823 62.4919 527.823 Q56.6817 527.823 53.603 523.24 Q50.5475 518.634 50.5475 509.907 Q50.5475 501.157 53.603 496.574 Q56.6817 491.967 62.4919 491.967 Z" fill="#000000" fill-rule="evenodd" fill-opacity="1" /><path clip-path="url(#clip790)" d="M82.6538 521.273 L87.538 521.273 L87.538 527.152 L82.6538 527.152 L82.6538 521.273 Z" fill="#000000" fill-rule="evenodd" fill-opacity="1" /><path clip-path="url(#clip790)" d="M96.5426 492.592 L118.765 492.592 L118.765 494.583 L106.218 527.152 L101.334 527.152 L113.14 496.527 L96.5426 496.527 L96.5426 492.592 Z" fill="#000000" fill-rule="evenodd" fill-opacity="1" /><path clip-path="url(#clip790)" d="M127.931 492.592 L146.288 492.592 L146.288 496.527 L132.214 496.527 L132.214 504.999 Q133.232 504.652 134.251 504.49 Q135.269 504.305 136.288 504.305 Q142.075 504.305 145.454 507.476 Q148.834 510.648 148.834 516.064 Q148.834 521.643 145.362 524.745 Q141.89 527.823 135.57 527.823 Q133.394 527.823 131.126 527.453 Q128.88 527.083 126.473 526.342 L126.473 521.643 Q128.556 522.777 130.779 523.333 Q133.001 523.888 135.478 523.888 Q139.482 523.888 141.82 521.782 Q144.158 519.675 144.158 516.064 Q144.158 512.453 141.82 510.347 Q139.482 508.24 135.478 508.24 Q133.603 508.24 131.728 508.657 Q129.876 509.073 127.931 509.953 L127.931 492.592 Z" fill="#000000" fill-rule="evenodd" fill-opacity="1" /><path clip-path="url(#clip790)" d="M52.3067 104.729 L59.9456 104.729 L59.9456 78.3629 L51.6354 80.0296 L51.6354 75.7703 L59.8993 74.1037 L64.5752 74.1037 L64.5752 104.729 L72.214 104.729 L72.214 108.664 L52.3067 108.664 L52.3067 104.729 Z" fill="#000000" fill-rule="evenodd" fill-opacity="1" /><path clip-path="url(#clip790)" d="M81.6584 102.784 L86.5427 102.784 L86.5427 108.664 L81.6584 108.664 L81.6584 102.784 Z" fill="#000000" fill-rule="evenodd" fill-opacity="1" /><path clip-path="url(#clip790)" d="M106.728 77.1824 Q103.117 77.1824 101.288 80.7472 Q99.4824 84.2888 99.4824 91.4184 Q99.4824 98.5249 101.288 102.09 Q103.117 105.631 106.728 105.631 Q110.362 105.631 112.168 102.09 Q113.996 98.5249 113.996 91.4184 Q113.996 84.2888 112.168 80.7472 Q110.362 77.1824 106.728 77.1824 M106.728 73.4787 Q112.538 73.4787 115.593 78.0852 Q118.672 82.6685 118.672 91.4184 Q118.672 100.145 115.593 104.752 Q112.538 109.335 106.728 109.335 Q100.918 109.335 97.8389 104.752 Q94.7834 100.145 94.7834 91.4184 Q94.7834 82.6685 97.8389 78.0852 Q100.918 73.4787 106.728 73.4787 Z" fill="#000000" fill-rule="evenodd" fill-opacity="1" /><path clip-path="url(#clip790)" d="M136.89 77.1824 Q133.279 77.1824 131.45 80.7472 Q129.644 84.2888 129.644 91.4184 Q129.644 98.5249 131.45 102.09 Q133.279 105.631 136.89 105.631 Q140.524 105.631 142.329 102.09 Q144.158 98.5249 144.158 91.4184 Q144.158 84.2888 142.329 80.7472 Q140.524 77.1824 136.89 77.1824 M136.89 73.4787 Q142.7 73.4787 145.755 78.0852 Q148.834 82.6685 148.834 91.4184 Q148.834 100.145 145.755 104.752 Q142.7 109.335 136.89 109.335 Q131.079 109.335 128.001 104.752 Q124.945 100.145 124.945 91.4184 Q124.945 82.6685 128.001 78.0852 Q131.079 73.4787 136.89 73.4787 Z" fill="#000000" fill-rule="evenodd" fill-opacity="1" /><polyline clip-path="url(#clip792)" style="stroke:#009af9; stroke-linecap:butt; stroke-linejoin:round; stroke-width:4; stroke-opacity:1; fill:none" points="
  1638.34,726.434 1125.3,1095.59 1224.89,1046.62 681.639,327.93 1126.09,1136.9 592.667,487.984 2441.89,1200.34 2439.62,1455.08 2240.13,853.273 2396.43,1751.15 
  554.339,875.745 2152.19,350.203 816.085,1087.6 2559.34,826.357 2558.72,368.724 1489.69,1598.95 1612.4,1513.11 1449.53,907.455 2551.93,527.196 440.648,1408.5 
  1165.66,207.695 2397.18,419.97 1837.74,518.361 1903.52,1009.99 1398.73,347.567 564.456,1296.09 425.61,401.639 2571.37,989.607 1565.08,822.474 1345.85,1091.23 
  1534.95,1521.46 823.087,664.291 2411.95,1596.12 546.909,329.792 1357.17,738.538 534.16,544.038 434.65,1134.95 327.076,512.781 523.348,308.57 2445.88,221.959 
  702.943,1290.47 1950.3,1113.96 1458.4,137.563 2026,96.8724 1388.14,847.581 456.567,513.688 720.818,1509.31 613.156,223.146 742.835,625.401 448.821,1448.34 
  1804.49,1595.52 336.44,923.533 1569.86,612.892 1183.77,1035.24 1923.87,1392.31 1374.2,1128.47 842.563,1480.87 1841.8,861.772 1648.09,1108.84 653.908,822.052 
  2211.52,1224.3 1546.28,1478.51 2359.55,774.176 871.99,540.041 1915.71,1095.04 258.539,220.6 2134.69,1572.84 2211.24,590.652 1859.63,1423.83 284.348,670.708 
  2008.7,1102.33 2319.69,572.668 418.113,1622.34 1966.4,647.018 1282,1414.06 1532.69,1546.13 1508.32,668.009 2273.53,832.974 799.884,1324.48 1588.08,259.349 
  1161.83,1429.96 1377.05,798.168 645.102,258.837 266.656,1118.21 1508.81,1547.44 2520.46,340.185 1800.37,992.297 2352.21,1461.98 1003.93,485.697 707.562,1688.59 
  1825.41,602.171 1149.31,833.372 2270.42,1616.61 1008.55,1744.72 2472.2,304.104 1436.86,952.779 1421.74,1704.88 1061.88,567.835 1462.03,109.254 1696.11,115.229 
  
  "/>
<path clip-path="url(#clip790)" d="
M270.874 1742.33 L568.465 1742.33 L568.465 1638.65 L270.874 1638.65  Z
  " fill="#ffffff" fill-rule="evenodd" fill-opacity="1"/>
<polyline clip-path="url(#clip790)" style="stroke:#000000; stroke-linecap:butt; stroke-linejoin:round; stroke-width:4; stroke-opacity:1; fill:none" points="
  270.874,1742.33 568.465,1742.33 568.465,1638.65 270.874,1638.65 270.874,1742.33 
  "/>
<polyline clip-path="url(#clip790)" style="stroke:#009af9; stroke-linecap:butt; stroke-linejoin:round; stroke-width:4; stroke-opacity:1; fill:none" points="
  298.114,1690.49 461.554,1690.49 
  "/>
<path clip-path="url(#clip790)" d="M502.637 1710.18 Q500.831 1714.81 499.118 1716.22 Q497.405 1717.63 494.535 1717.63 L491.132 1717.63 L491.132 1714.06 L493.632 1714.06 Q495.391 1714.06 496.364 1713.23 Q497.336 1712.4 498.516 1709.3 L499.28 1707.35 L488.794 1681.84 L493.308 1681.84 L501.41 1702.12 L509.512 1681.84 L514.026 1681.84 L502.637 1710.18 Z" fill="#000000" fill-rule="evenodd" fill-opacity="1" /><path clip-path="url(#clip790)" d="M521.317 1703.83 L528.956 1703.83 L528.956 1677.47 L520.646 1679.13 L520.646 1674.87 L528.91 1673.21 L533.586 1673.21 L533.586 1703.83 L541.225 1703.83 L541.225 1707.77 L521.317 1707.77 L521.317 1703.83 Z" fill="#000000" fill-rule="evenodd" fill-opacity="1" /></svg>
