<?xml version="1.0" encoding="utf-8"?>
<svg xmlns="http://www.w3.org/2000/svg" xmlns:xlink="http://www.w3.org/1999/xlink" width="672" height="480" viewBox="0 0 2688 1920">
<defs>
  <clipPath id="clip100">
    <rect x="0" y="0" width="2688" height="1920"/>
  </clipPath>
</defs>
<path clip-path="url(#clip100)" d="
M0 1920 L2688 1920 L2688 0 L0 0  Z
  " fill="#ffffff" fill-rule="evenodd" fill-opacity="1"/>
<defs>
  <clipPath id="clip101">
    <rect x="537" y="0" width="1883" height="1883"/>
  </clipPath>
</defs>
<path clip-path="url(#clip100)" d="
M189.154 1800.78 L2640.76 1800.78 L2640.76 47.2441 L189.154 47.2441  Z
  " fill="#ffffff" fill-rule="evenodd" fill-opacity="1"/>
<defs>
  <clipPath id="clip102">
    <rect x="189" y="47" width="2453" height="1755"/>
  </clipPath>
</defs>
<polyline clip-path="url(#clip102)" style="stroke:#000000; stroke-linecap:butt; stroke-linejoin:round; stroke-width:2; stroke-opacity:0.1; fill:none" points="
  251.356,1800.78 251.356,47.2441 
  "/>
<polyline clip-path="url(#clip102)" style="stroke:#000000; stroke-linecap:butt; stroke-linejoin:round; stroke-width:2; stroke-opacity:0.1; fill:none" points="
  838.245,1800.78 838.245,47.2441 
  "/>
<polyline clip-path="url(#clip102)" style="stroke:#000000; stroke-linecap:butt; stroke-linejoin:round; stroke-width:2; stroke-opacity:0.1; fill:none" points="
  1425.13,1800.78 1425.13,47.2441 
  "/>
<polyline clip-path="url(#clip102)" style="stroke:#000000; stroke-linecap:butt; stroke-linejoin:round; stroke-width:2; stroke-opacity:0.1; fill:none" points="
  2012.02,1800.78 2012.02,47.2441 
  "/>
<polyline clip-path="url(#clip102)" style="stroke:#000000; stroke-linecap:butt; stroke-linejoin:round; stroke-width:2; stroke-opacity:0.1; fill:none" points="
  2598.91,1800.78 2598.91,47.2441 
  "/>
<polyline clip-path="url(#clip100)" style="stroke:#000000; stroke-linecap:butt; stroke-linejoin:round; stroke-width:4; stroke-opacity:1; fill:none" points="
  189.154,1800.78 2640.76,1800.78 
  "/>
<polyline clip-path="url(#clip100)" style="stroke:#000000; stroke-linecap:butt; stroke-linejoin:round; stroke-width:4; stroke-opacity:1; fill:none" points="
  251.356,1800.78 251.356,1781.88 
  "/>
<polyline clip-path="url(#clip100)" style="stroke:#000000; stroke-linecap:butt; stroke-linejoin:round; stroke-width:4; stroke-opacity:1; fill:none" points="
  838.245,1800.78 838.245,1781.88 
  "/>
<polyline clip-path="url(#clip100)" style="stroke:#000000; stroke-linecap:butt; stroke-linejoin:round; stroke-width:4; stroke-opacity:1; fill:none" points="
  1425.13,1800.78 1425.13,1781.88 
  "/>
<polyline clip-path="url(#clip100)" style="stroke:#000000; stroke-linecap:butt; stroke-linejoin:round; stroke-width:4; stroke-opacity:1; fill:none" points="
  2012.02,1800.78 2012.02,1781.88 
  "/>
<polyline clip-path="url(#clip100)" style="stroke:#000000; stroke-linecap:butt; stroke-linejoin:round; stroke-width:4; stroke-opacity:1; fill:none" points="
  2598.91,1800.78 2598.91,1781.88 
  "/>
<path clip-path="url(#clip100)" d="M213.659 1834 Q210.048 1834 208.219 1837.57 Q206.414 1841.11 206.414 1848.24 Q206.414 1855.34 208.219 1858.91 Q210.048 1862.45 213.659 1862.45 Q217.293 1862.45 219.099 1858.91 Q220.927 1855.34 220.927 1848.24 Q220.927 1841.11 219.099 1837.57 Q217.293 1834 213.659 1834 M213.659 1830.3 Q219.469 1830.3 222.525 1834.9 Q225.603 1839.49 225.603 1848.24 Q225.603 1856.96 222.525 1861.57 Q219.469 1866.15 213.659 1866.15 Q207.849 1866.15 204.77 1861.57 Q201.715 1856.96 201.715 1848.24 Q201.715 1839.49 204.77 1834.9 Q207.849 1830.3 213.659 1830.3 Z" fill="#000000" fill-rule="evenodd" fill-opacity="1" /><path clip-path="url(#clip100)" d="M233.821 1859.6 L238.705 1859.6 L238.705 1865.48 L233.821 1865.48 L233.821 1859.6 Z" fill="#000000" fill-rule="evenodd" fill-opacity="1" /><path clip-path="url(#clip100)" d="M258.89 1834 Q255.279 1834 253.45 1837.57 Q251.645 1841.11 251.645 1848.24 Q251.645 1855.34 253.45 1858.91 Q255.279 1862.45 258.89 1862.45 Q262.524 1862.45 264.33 1858.91 Q266.159 1855.34 266.159 1848.24 Q266.159 1841.11 264.33 1837.57 Q262.524 1834 258.89 1834 M258.89 1830.3 Q264.7 1830.3 267.756 1834.9 Q270.835 1839.49 270.835 1848.24 Q270.835 1856.96 267.756 1861.57 Q264.7 1866.15 258.89 1866.15 Q253.08 1866.15 250.001 1861.57 Q246.946 1856.96 246.946 1848.24 Q246.946 1839.49 250.001 1834.9 Q253.08 1830.3 258.89 1830.3 Z" fill="#000000" fill-rule="evenodd" fill-opacity="1" /><path clip-path="url(#clip100)" d="M289.052 1834 Q285.441 1834 283.612 1837.57 Q281.807 1841.11 281.807 1848.24 Q281.807 1855.34 283.612 1858.91 Q285.441 1862.45 289.052 1862.45 Q292.686 1862.45 294.492 1858.91 Q296.321 1855.34 296.321 1848.24 Q296.321 1841.11 294.492 1837.57 Q292.686 1834 289.052 1834 M289.052 1830.3 Q294.862 1830.3 297.918 1834.9 Q300.996 1839.49 300.996 1848.24 Q300.996 1856.96 297.918 1861.57 Q294.862 1866.15 289.052 1866.15 Q283.242 1866.15 280.163 1861.57 Q277.108 1856.96 277.108 1848.24 Q277.108 1839.49 280.163 1834.9 Q283.242 1830.3 289.052 1830.3 Z" fill="#000000" fill-rule="evenodd" fill-opacity="1" /><path clip-path="url(#clip100)" d="M801.046 1834 Q797.435 1834 795.606 1837.57 Q793.801 1841.11 793.801 1848.24 Q793.801 1855.34 795.606 1858.91 Q797.435 1862.45 801.046 1862.45 Q804.681 1862.45 806.486 1858.91 Q808.315 1855.34 808.315 1848.24 Q808.315 1841.11 806.486 1837.57 Q804.681 1834 801.046 1834 M801.046 1830.3 Q806.856 1830.3 809.912 1834.9 Q812.991 1839.49 812.991 1848.24 Q812.991 1856.96 809.912 1861.57 Q806.856 1866.15 801.046 1866.15 Q795.236 1866.15 792.157 1861.57 Q789.102 1856.96 789.102 1848.24 Q789.102 1839.49 792.157 1834.9 Q795.236 1830.3 801.046 1830.3 Z" fill="#000000" fill-rule="evenodd" fill-opacity="1" /><path clip-path="url(#clip100)" d="M821.208 1859.6 L826.092 1859.6 L826.092 1865.48 L821.208 1865.48 L821.208 1859.6 Z" fill="#000000" fill-rule="evenodd" fill-opacity="1" /><path clip-path="url(#clip100)" d="M840.305 1861.55 L856.625 1861.55 L856.625 1865.48 L834.68 1865.48 L834.68 1861.55 Q837.342 1858.79 841.926 1854.16 Q846.532 1849.51 847.713 1848.17 Q849.958 1845.65 850.838 1843.91 Q851.74 1842.15 851.74 1840.46 Q851.74 1837.71 849.796 1835.97 Q847.875 1834.23 844.773 1834.23 Q842.574 1834.23 840.12 1835 Q837.69 1835.76 834.912 1837.31 L834.912 1832.59 Q837.736 1831.46 840.19 1830.88 Q842.643 1830.3 844.68 1830.3 Q850.051 1830.3 853.245 1832.98 Q856.439 1835.67 856.439 1840.16 Q856.439 1842.29 855.629 1844.21 Q854.842 1846.11 852.736 1848.7 Q852.157 1849.37 849.055 1852.59 Q845.953 1855.78 840.305 1861.55 Z" fill="#000000" fill-rule="evenodd" fill-opacity="1" /><path clip-path="url(#clip100)" d="M866.486 1830.92 L884.842 1830.92 L884.842 1834.86 L870.768 1834.86 L870.768 1843.33 Q871.787 1842.98 872.805 1842.82 Q873.824 1842.64 874.842 1842.64 Q880.629 1842.64 884.009 1845.81 Q887.388 1848.98 887.388 1854.4 Q887.388 1859.97 883.916 1863.08 Q880.444 1866.15 874.125 1866.15 Q871.949 1866.15 869.68 1865.78 Q867.435 1865.41 865.027 1864.67 L865.027 1859.97 Q867.111 1861.11 869.333 1861.66 Q871.555 1862.22 874.032 1862.22 Q878.037 1862.22 880.375 1860.11 Q882.713 1858.01 882.713 1854.4 Q882.713 1850.78 880.375 1848.68 Q878.037 1846.57 874.032 1846.57 Q872.157 1846.57 870.282 1846.99 Q868.43 1847.4 866.486 1848.28 L866.486 1830.92 Z" fill="#000000" fill-rule="evenodd" fill-opacity="1" /><path clip-path="url(#clip100)" d="M1387.44 1834 Q1383.83 1834 1382 1837.57 Q1380.19 1841.11 1380.19 1848.24 Q1380.19 1855.34 1382 1858.91 Q1383.83 1862.45 1387.44 1862.45 Q1391.07 1862.45 1392.88 1858.91 Q1394.71 1855.34 1394.71 1848.24 Q1394.71 1841.11 1392.88 1837.57 Q1391.07 1834 1387.44 1834 M1387.44 1830.3 Q1393.25 1830.3 1396.3 1834.9 Q1399.38 1839.49 1399.38 1848.24 Q1399.38 1856.96 1396.3 1861.57 Q1393.25 1866.15 1387.44 1866.15 Q1381.63 1866.15 1378.55 1861.57 Q1375.49 1856.96 1375.49 1848.24 Q1375.49 1839.49 1378.55 1834.9 Q1381.63 1830.3 1387.44 1830.3 Z" fill="#000000" fill-rule="evenodd" fill-opacity="1" /><path clip-path="url(#clip100)" d="M1407.6 1859.6 L1412.48 1859.6 L1412.48 1865.48 L1407.6 1865.48 L1407.6 1859.6 Z" fill="#000000" fill-rule="evenodd" fill-opacity="1" /><path clip-path="url(#clip100)" d="M1422.72 1830.92 L1441.07 1830.92 L1441.07 1834.86 L1427 1834.86 L1427 1843.33 Q1428.02 1842.98 1429.04 1842.82 Q1430.05 1842.64 1431.07 1842.64 Q1436.86 1842.64 1440.24 1845.81 Q1443.62 1848.98 1443.62 1854.4 Q1443.62 1859.97 1440.15 1863.08 Q1436.67 1866.15 1430.35 1866.15 Q1428.18 1866.15 1425.91 1865.78 Q1423.66 1865.41 1421.26 1864.67 L1421.26 1859.97 Q1423.34 1861.11 1425.56 1861.66 Q1427.79 1862.22 1430.26 1862.22 Q1434.27 1862.22 1436.6 1860.11 Q1438.94 1858.01 1438.94 1854.4 Q1438.94 1850.78 1436.6 1848.68 Q1434.27 1846.57 1430.26 1846.57 Q1428.39 1846.57 1426.51 1846.99 Q1424.66 1847.4 1422.72 1848.28 L1422.72 1830.92 Z" fill="#000000" fill-rule="evenodd" fill-opacity="1" /><path clip-path="url(#clip100)" d="M1462.83 1834 Q1459.22 1834 1457.39 1837.57 Q1455.59 1841.11 1455.59 1848.24 Q1455.59 1855.34 1457.39 1858.91 Q1459.22 1862.45 1462.83 1862.45 Q1466.47 1862.45 1468.27 1858.91 Q1470.1 1855.34 1470.1 1848.24 Q1470.1 1841.11 1468.27 1837.57 Q1466.47 1834 1462.83 1834 M1462.83 1830.3 Q1468.64 1830.3 1471.7 1834.9 Q1474.78 1839.49 1474.78 1848.24 Q1474.78 1856.96 1471.7 1861.57 Q1468.64 1866.15 1462.83 1866.15 Q1457.02 1866.15 1453.94 1861.57 Q1450.89 1856.96 1450.89 1848.24 Q1450.89 1839.49 1453.94 1834.9 Q1457.02 1830.3 1462.83 1830.3 Z" fill="#000000" fill-rule="evenodd" fill-opacity="1" /><path clip-path="url(#clip100)" d="M1974.83 1834 Q1971.21 1834 1969.39 1837.57 Q1967.58 1841.11 1967.58 1848.24 Q1967.58 1855.34 1969.39 1858.91 Q1971.21 1862.45 1974.83 1862.45 Q1978.46 1862.45 1980.27 1858.91 Q1982.09 1855.34 1982.09 1848.24 Q1982.09 1841.11 1980.27 1837.57 Q1978.46 1834 1974.83 1834 M1974.83 1830.3 Q1980.64 1830.3 1983.69 1834.9 Q1986.77 1839.49 1986.77 1848.24 Q1986.77 1856.96 1983.69 1861.57 Q1980.64 1866.15 1974.83 1866.15 Q1969.02 1866.15 1965.94 1861.57 Q1962.88 1856.96 1962.88 1848.24 Q1962.88 1839.49 1965.94 1834.9 Q1969.02 1830.3 1974.83 1830.3 Z" fill="#000000" fill-rule="evenodd" fill-opacity="1" /><path clip-path="url(#clip100)" d="M1994.99 1859.6 L1999.87 1859.6 L1999.87 1865.48 L1994.99 1865.48 L1994.99 1859.6 Z" fill="#000000" fill-rule="evenodd" fill-opacity="1" /><path clip-path="url(#clip100)" d="M2008.88 1830.92 L2031.1 1830.92 L2031.1 1832.91 L2018.55 1865.48 L2013.67 1865.48 L2025.47 1834.86 L2008.88 1834.86 L2008.88 1830.92 Z" fill="#000000" fill-rule="evenodd" fill-opacity="1" /><path clip-path="url(#clip100)" d="M2040.27 1830.92 L2058.62 1830.92 L2058.62 1834.86 L2044.55 1834.86 L2044.55 1843.33 Q2045.57 1842.98 2046.58 1842.82 Q2047.6 1842.64 2048.62 1842.64 Q2054.41 1842.64 2057.79 1845.81 Q2061.17 1848.98 2061.17 1854.4 Q2061.17 1859.97 2057.7 1863.08 Q2054.22 1866.15 2047.9 1866.15 Q2045.73 1866.15 2043.46 1865.78 Q2041.21 1865.41 2038.81 1864.67 L2038.81 1859.97 Q2040.89 1861.11 2043.11 1861.66 Q2045.33 1862.22 2047.81 1862.22 Q2051.82 1862.22 2054.15 1860.11 Q2056.49 1858.01 2056.49 1854.4 Q2056.49 1850.78 2054.15 1848.68 Q2051.82 1846.57 2047.81 1846.57 Q2045.94 1846.57 2044.06 1846.99 Q2042.21 1847.4 2040.27 1848.28 L2040.27 1830.92 Z" fill="#000000" fill-rule="evenodd" fill-opacity="1" /><path clip-path="url(#clip100)" d="M2550.99 1861.55 L2558.62 1861.55 L2558.62 1835.18 L2550.31 1836.85 L2550.31 1832.59 L2558.58 1830.92 L2563.25 1830.92 L2563.25 1861.55 L2570.89 1861.55 L2570.89 1865.48 L2550.99 1865.48 L2550.99 1861.55 Z" fill="#000000" fill-rule="evenodd" fill-opacity="1" /><path clip-path="url(#clip100)" d="M2580.34 1859.6 L2585.22 1859.6 L2585.22 1865.48 L2580.34 1865.48 L2580.34 1859.6 Z" fill="#000000" fill-rule="evenodd" fill-opacity="1" /><path clip-path="url(#clip100)" d="M2605.41 1834 Q2601.8 1834 2599.97 1837.57 Q2598.16 1841.11 2598.16 1848.24 Q2598.16 1855.34 2599.97 1858.91 Q2601.8 1862.45 2605.41 1862.45 Q2609.04 1862.45 2610.85 1858.91 Q2612.68 1855.34 2612.68 1848.24 Q2612.68 1841.11 2610.85 1837.57 Q2609.04 1834 2605.41 1834 M2605.41 1830.3 Q2611.22 1830.3 2614.27 1834.9 Q2617.35 1839.49 2617.35 1848.24 Q2617.35 1856.96 2614.27 1861.57 Q2611.22 1866.15 2605.41 1866.15 Q2599.6 1866.15 2596.52 1861.57 Q2593.46 1856.96 2593.46 1848.24 Q2593.46 1839.49 2596.52 1834.9 Q2599.6 1830.3 2605.41 1830.3 Z" fill="#000000" fill-rule="evenodd" fill-opacity="1" /><path clip-path="url(#clip100)" d="M2635.57 1834 Q2631.96 1834 2630.13 1837.57 Q2628.32 1841.11 2628.32 1848.24 Q2628.32 1855.34 2630.13 1858.91 Q2631.96 1862.45 2635.57 1862.45 Q2639.2 1862.45 2641.01 1858.91 Q2642.84 1855.34 2642.84 1848.24 Q2642.84 1841.11 2641.01 1837.57 Q2639.2 1834 2635.57 1834 M2635.57 1830.3 Q2641.38 1830.3 2644.43 1834.9 Q2647.51 1839.49 2647.51 1848.24 Q2647.51 1856.96 2644.43 1861.57 Q2641.38 1866.15 2635.57 1866.15 Q2629.76 1866.15 2626.68 1861.57 Q2623.62 1856.96 2623.62 1848.24 Q2623.62 1839.49 2626.68 1834.9 Q2629.76 1830.3 2635.57 1830.3 Z" fill="#000000" fill-rule="evenodd" fill-opacity="1" /><polyline clip-path="url(#clip102)" style="stroke:#000000; stroke-linecap:butt; stroke-linejoin:round; stroke-width:2; stroke-opacity:0.1; fill:none" points="
  189.154,1759.23 2640.76,1759.23 
  "/>
<polyline clip-path="url(#clip102)" style="stroke:#000000; stroke-linecap:butt; stroke-linejoin:round; stroke-width:2; stroke-opacity:0.1; fill:none" points="
  189.154,1341.4 2640.76,1341.4 
  "/>
<polyline clip-path="url(#clip102)" style="stroke:#000000; stroke-linecap:butt; stroke-linejoin:round; stroke-width:2; stroke-opacity:0.1; fill:none" points="
  189.154,923.576 2640.76,923.576 
  "/>
<polyline clip-path="url(#clip102)" style="stroke:#000000; stroke-linecap:butt; stroke-linejoin:round; stroke-width:2; stroke-opacity:0.1; fill:none" points="
  189.154,505.749 2640.76,505.749 
  "/>
<polyline clip-path="url(#clip102)" style="stroke:#000000; stroke-linecap:butt; stroke-linejoin:round; stroke-width:2; stroke-opacity:0.1; fill:none" points="
  189.154,87.9213 2640.76,87.9213 
  "/>
<polyline clip-path="url(#clip100)" style="stroke:#000000; stroke-linecap:butt; stroke-linejoin:round; stroke-width:4; stroke-opacity:1; fill:none" points="
  189.154,1800.78 189.154,47.2441 
  "/>
<polyline clip-path="url(#clip100)" style="stroke:#000000; stroke-linecap:butt; stroke-linejoin:round; stroke-width:4; stroke-opacity:1; fill:none" points="
  189.154,1759.23 208.052,1759.23 
  "/>
<polyline clip-path="url(#clip100)" style="stroke:#000000; stroke-linecap:butt; stroke-linejoin:round; stroke-width:4; stroke-opacity:1; fill:none" points="
  189.154,1341.4 208.052,1341.4 
  "/>
<polyline clip-path="url(#clip100)" style="stroke:#000000; stroke-linecap:butt; stroke-linejoin:round; stroke-width:4; stroke-opacity:1; fill:none" points="
  189.154,923.576 208.052,923.576 
  "/>
<polyline clip-path="url(#clip100)" style="stroke:#000000; stroke-linecap:butt; stroke-linejoin:round; stroke-width:4; stroke-opacity:1; fill:none" points="
  189.154,505.749 208.052,505.749 
  "/>
<polyline clip-path="url(#clip100)" style="stroke:#000000; stroke-linecap:butt; stroke-linejoin:round; stroke-width:4; stroke-opacity:1; fill:none" points="
  189.154,87.9213 208.052,87.9213 
  "/>
<path clip-path="url(#clip100)" d="M61.4965 1745.03 Q57.8854 1745.03 56.0567 1748.59 Q54.2512 1752.14 54.2512 1759.27 Q54.2512 1766.37 56.0567 1769.94 Q57.8854 1773.48 61.4965 1773.48 Q65.1307 1773.48 66.9363 1769.94 Q68.765 1766.37 68.765 1759.27 Q68.765 1752.14 66.9363 1748.59 Q65.1307 1745.03 61.4965 1745.03 M61.4965 1741.33 Q67.3067 1741.33 70.3622 1745.93 Q73.4409 1750.52 73.4409 1759.27 Q73.4409 1767.99 70.3622 1772.6 Q67.3067 1777.18 61.4965 1777.18 Q55.6864 1777.18 52.6077 1772.6 Q49.5521 1767.99 49.5521 1759.27 Q49.5521 1750.52 52.6077 1745.93 Q55.6864 1741.33 61.4965 1741.33 Z" fill="#000000" fill-rule="evenodd" fill-opacity="1" /><path clip-path="url(#clip100)" d="M81.6584 1770.63 L86.5427 1770.63 L86.5427 1776.51 L81.6584 1776.51 L81.6584 1770.63 Z" fill="#000000" fill-rule="evenodd" fill-opacity="1" /><path clip-path="url(#clip100)" d="M106.728 1745.03 Q103.117 1745.03 101.288 1748.59 Q99.4824 1752.14 99.4824 1759.27 Q99.4824 1766.37 101.288 1769.94 Q103.117 1773.48 106.728 1773.48 Q110.362 1773.48 112.168 1769.94 Q113.996 1766.37 113.996 1759.27 Q113.996 1752.14 112.168 1748.59 Q110.362 1745.03 106.728 1745.03 M106.728 1741.33 Q112.538 1741.33 115.593 1745.93 Q118.672 1750.52 118.672 1759.27 Q118.672 1767.99 115.593 1772.6 Q112.538 1777.18 106.728 1777.18 Q100.918 1777.18 97.8389 1772.6 Q94.7834 1767.99 94.7834 1759.27 Q94.7834 1750.52 97.8389 1745.93 Q100.918 1741.33 106.728 1741.33 Z" fill="#000000" fill-rule="evenodd" fill-opacity="1" /><path clip-path="url(#clip100)" d="M136.89 1745.03 Q133.279 1745.03 131.45 1748.59 Q129.644 1752.14 129.644 1759.27 Q129.644 1766.37 131.45 1769.94 Q133.279 1773.48 136.89 1773.48 Q140.524 1773.48 142.329 1769.94 Q144.158 1766.37 144.158 1759.27 Q144.158 1752.14 142.329 1748.59 Q140.524 1745.03 136.89 1745.03 M136.89 1741.33 Q142.7 1741.33 145.755 1745.93 Q148.834 1750.52 148.834 1759.27 Q148.834 1767.99 145.755 1772.6 Q142.7 1777.18 136.89 1777.18 Q131.079 1777.18 128.001 1772.6 Q124.945 1767.99 124.945 1759.27 Q124.945 1750.52 128.001 1745.93 Q131.079 1741.33 136.89 1741.33 Z" fill="#000000" fill-rule="evenodd" fill-opacity="1" /><path clip-path="url(#clip100)" d="M62.4919 1327.2 Q58.8808 1327.2 57.0521 1330.77 Q55.2465 1334.31 55.2465 1341.44 Q55.2465 1348.54 57.0521 1352.11 Q58.8808 1355.65 62.4919 1355.65 Q66.1261 1355.65 67.9317 1352.11 Q69.7604 1348.54 69.7604 1341.44 Q69.7604 1334.31 67.9317 1330.77 Q66.1261 1327.2 62.4919 1327.2 M62.4919 1323.5 Q68.302 1323.5 71.3576 1328.1 Q74.4363 1332.69 74.4363 1341.44 Q74.4363 1350.16 71.3576 1354.77 Q68.302 1359.35 62.4919 1359.35 Q56.6817 1359.35 53.603 1354.77 Q50.5475 1350.16 50.5475 1341.44 Q50.5475 1332.69 53.603 1328.1 Q56.6817 1323.5 62.4919 1323.5 Z" fill="#000000" fill-rule="evenodd" fill-opacity="1" /><path clip-path="url(#clip100)" d="M82.6538 1352.8 L87.538 1352.8 L87.538 1358.68 L82.6538 1358.68 L82.6538 1352.8 Z" fill="#000000" fill-rule="evenodd" fill-opacity="1" /><path clip-path="url(#clip100)" d="M101.751 1354.75 L118.07 1354.75 L118.07 1358.68 L96.126 1358.68 L96.126 1354.75 Q98.788 1351.99 103.371 1347.36 Q107.978 1342.71 109.158 1341.37 Q111.404 1338.85 112.283 1337.11 Q113.186 1335.35 113.186 1333.66 Q113.186 1330.91 111.242 1329.17 Q109.32 1327.43 106.218 1327.43 Q104.019 1327.43 101.566 1328.2 Q99.1352 1328.96 96.3574 1330.51 L96.3574 1325.79 Q99.1815 1324.66 101.635 1324.08 Q104.089 1323.5 106.126 1323.5 Q111.496 1323.5 114.691 1326.18 Q117.885 1328.87 117.885 1333.36 Q117.885 1335.49 117.075 1337.41 Q116.288 1339.31 114.181 1341.9 Q113.603 1342.57 110.501 1345.79 Q107.399 1348.98 101.751 1354.75 Z" fill="#000000" fill-rule="evenodd" fill-opacity="1" /><path clip-path="url(#clip100)" d="M127.931 1324.12 L146.288 1324.12 L146.288 1328.06 L132.214 1328.06 L132.214 1336.53 Q133.232 1336.18 134.251 1336.02 Q135.269 1335.84 136.288 1335.84 Q142.075 1335.84 145.454 1339.01 Q148.834 1342.18 148.834 1347.6 Q148.834 1353.17 145.362 1356.28 Q141.89 1359.35 135.57 1359.35 Q133.394 1359.35 131.126 1358.98 Q128.88 1358.61 126.473 1357.87 L126.473 1353.17 Q128.556 1354.31 130.779 1354.86 Q133.001 1355.42 135.478 1355.42 Q139.482 1355.42 141.82 1353.31 Q144.158 1351.21 144.158 1347.6 Q144.158 1343.98 141.82 1341.88 Q139.482 1339.77 135.478 1339.77 Q133.603 1339.77 131.728 1340.19 Q129.876 1340.6 127.931 1341.48 L127.931 1324.12 Z" fill="#000000" fill-rule="evenodd" fill-opacity="1" /><path clip-path="url(#clip100)" d="M61.4965 909.375 Q57.8854 909.375 56.0567 912.939 Q54.2512 916.481 54.2512 923.611 Q54.2512 930.717 56.0567 934.282 Q57.8854 937.824 61.4965 937.824 Q65.1307 937.824 66.9363 934.282 Q68.765 930.717 68.765 923.611 Q68.765 916.481 66.9363 912.939 Q65.1307 909.375 61.4965 909.375 M61.4965 905.671 Q67.3067 905.671 70.3622 910.277 Q73.4409 914.861 73.4409 923.611 Q73.4409 932.337 70.3622 936.944 Q67.3067 941.527 61.4965 941.527 Q55.6864 941.527 52.6077 936.944 Q49.5521 932.337 49.5521 923.611 Q49.5521 914.861 52.6077 910.277 Q55.6864 905.671 61.4965 905.671 Z" fill="#000000" fill-rule="evenodd" fill-opacity="1" /><path clip-path="url(#clip100)" d="M81.6584 934.976 L86.5427 934.976 L86.5427 940.856 L81.6584 940.856 L81.6584 934.976 Z" fill="#000000" fill-rule="evenodd" fill-opacity="1" /><path clip-path="url(#clip100)" d="M96.7741 906.296 L115.13 906.296 L115.13 910.231 L101.056 910.231 L101.056 918.703 Q102.075 918.356 103.094 918.194 Q104.112 918.009 105.131 918.009 Q110.918 918.009 114.297 921.18 Q117.677 924.351 117.677 929.768 Q117.677 935.347 114.205 938.449 Q110.732 941.527 104.413 941.527 Q102.237 941.527 99.9685 941.157 Q97.7232 940.787 95.3158 940.046 L95.3158 935.347 Q97.3991 936.481 99.6213 937.037 Q101.844 937.592 104.32 937.592 Q108.325 937.592 110.663 935.486 Q113.001 933.379 113.001 929.768 Q113.001 926.157 110.663 924.05 Q108.325 921.944 104.32 921.944 Q102.445 921.944 100.57 922.361 Q98.7185 922.777 96.7741 923.657 L96.7741 906.296 Z" fill="#000000" fill-rule="evenodd" fill-opacity="1" /><path clip-path="url(#clip100)" d="M136.89 909.375 Q133.279 909.375 131.45 912.939 Q129.644 916.481 129.644 923.611 Q129.644 930.717 131.45 934.282 Q133.279 937.824 136.89 937.824 Q140.524 937.824 142.329 934.282 Q144.158 930.717 144.158 923.611 Q144.158 916.481 142.329 912.939 Q140.524 909.375 136.89 909.375 M136.89 905.671 Q142.7 905.671 145.755 910.277 Q148.834 914.861 148.834 923.611 Q148.834 932.337 145.755 936.944 Q142.7 941.527 136.89 941.527 Q131.079 941.527 128.001 936.944 Q124.945 932.337 124.945 923.611 Q124.945 914.861 128.001 910.277 Q131.079 905.671 136.89 905.671 Z" fill="#000000" fill-rule="evenodd" fill-opacity="1" /><path clip-path="url(#clip100)" d="M62.4919 491.547 Q58.8808 491.547 57.0521 495.112 Q55.2465 498.654 55.2465 505.783 Q55.2465 512.89 57.0521 516.455 Q58.8808 519.996 62.4919 519.996 Q66.1261 519.996 67.9317 516.455 Q69.7604 512.89 69.7604 505.783 Q69.7604 498.654 67.9317 495.112 Q66.1261 491.547 62.4919 491.547 M62.4919 487.844 Q68.302 487.844 71.3576 492.45 Q74.4363 497.033 74.4363 505.783 Q74.4363 514.51 71.3576 519.117 Q68.302 523.7 62.4919 523.7 Q56.6817 523.7 53.603 519.117 Q50.5475 514.51 50.5475 505.783 Q50.5475 497.033 53.603 492.45 Q56.6817 487.844 62.4919 487.844 Z" fill="#000000" fill-rule="evenodd" fill-opacity="1" /><path clip-path="url(#clip100)" d="M82.6538 517.149 L87.538 517.149 L87.538 523.029 L82.6538 523.029 L82.6538 517.149 Z" fill="#000000" fill-rule="evenodd" fill-opacity="1" /><path clip-path="url(#clip100)" d="M96.5426 488.469 L118.765 488.469 L118.765 490.459 L106.218 523.029 L101.334 523.029 L113.14 492.404 L96.5426 492.404 L96.5426 488.469 Z" fill="#000000" fill-rule="evenodd" fill-opacity="1" /><path clip-path="url(#clip100)" d="M127.931 488.469 L146.288 488.469 L146.288 492.404 L132.214 492.404 L132.214 500.876 Q133.232 500.529 134.251 500.367 Q135.269 500.182 136.288 500.182 Q142.075 500.182 145.454 503.353 Q148.834 506.524 148.834 511.941 Q148.834 517.519 145.362 520.621 Q141.89 523.7 135.57 523.7 Q133.394 523.7 131.126 523.33 Q128.88 522.959 126.473 522.218 L126.473 517.519 Q128.556 518.654 130.779 519.209 Q133.001 519.765 135.478 519.765 Q139.482 519.765 141.82 517.658 Q144.158 515.552 144.158 511.941 Q144.158 508.33 141.82 506.223 Q139.482 504.117 135.478 504.117 Q133.603 504.117 131.728 504.533 Q129.876 504.95 127.931 505.83 L127.931 488.469 Z" fill="#000000" fill-rule="evenodd" fill-opacity="1" /><path clip-path="url(#clip100)" d="M52.3067 101.266 L59.9456 101.266 L59.9456 74.9005 L51.6354 76.5672 L51.6354 72.3079 L59.8993 70.6413 L64.5752 70.6413 L64.5752 101.266 L72.214 101.266 L72.214 105.201 L52.3067 105.201 L52.3067 101.266 Z" fill="#000000" fill-rule="evenodd" fill-opacity="1" /><path clip-path="url(#clip100)" d="M81.6584 99.3217 L86.5427 99.3217 L86.5427 105.201 L81.6584 105.201 L81.6584 99.3217 Z" fill="#000000" fill-rule="evenodd" fill-opacity="1" /><path clip-path="url(#clip100)" d="M106.728 73.72 Q103.117 73.72 101.288 77.2848 Q99.4824 80.8264 99.4824 87.956 Q99.4824 95.0625 101.288 98.6272 Q103.117 102.169 106.728 102.169 Q110.362 102.169 112.168 98.6272 Q113.996 95.0625 113.996 87.956 Q113.996 80.8264 112.168 77.2848 Q110.362 73.72 106.728 73.72 M106.728 70.0163 Q112.538 70.0163 115.593 74.6227 Q118.672 79.2061 118.672 87.956 Q118.672 96.6828 115.593 101.289 Q112.538 105.873 106.728 105.873 Q100.918 105.873 97.8389 101.289 Q94.7834 96.6828 94.7834 87.956 Q94.7834 79.2061 97.8389 74.6227 Q100.918 70.0163 106.728 70.0163 Z" fill="#000000" fill-rule="evenodd" fill-opacity="1" /><path clip-path="url(#clip100)" d="M136.89 73.72 Q133.279 73.72 131.45 77.2848 Q129.644 80.8264 129.644 87.956 Q129.644 95.0625 131.45 98.6272 Q133.279 102.169 136.89 102.169 Q140.524 102.169 142.329 98.6272 Q144.158 95.0625 144.158 87.956 Q144.158 80.8264 142.329 77.2848 Q140.524 73.72 136.89 73.72 M136.89 70.0163 Q142.7 70.0163 145.755 74.6227 Q148.834 79.2061 148.834 87.956 Q148.834 96.6828 145.755 101.289 Q142.7 105.873 136.89 105.873 Q131.079 105.873 128.001 101.289 Q124.945 96.6828 124.945 87.956 Q124.945 79.2061 128.001 74.6227 Q131.079 70.0163 136.89 70.0163 Z" fill="#000000" fill-rule="evenodd" fill-opacity="1" /><polyline clip-path="url(#clip102)" style="stroke:#009af9; stroke-linecap:butt; stroke-linejoin:round; stroke-width:4; stroke-opacity:1; fill:none" points="
  494.669,726.993 500.696,827.545 2286.75,1228.51 283.171,1227.05 615.92,327.08 1764.96,1722.07 636.095,1462.86 1258.48,101.011 798.672,1534.45 1275.91,954.987 
  1749.39,1255.86 649.873,283.444 1465.17,965.793 1857.71,1354.17 1274.76,707.83 1661.09,1683.99 358.336,867.584 2182.88,1457.07 670.286,1200.73 1696.47,1302.61 
  422.211,1218.53 528.861,1489.41 2130.62,819.549 1296.21,379.288 2537.82,1329.57 2524.13,1478.71 1582.28,700.655 2430.56,603.564 1897.19,173.798 2354.27,1304.55 
  2260.52,1532.89 1922.15,1108.14 873.083,142.605 2248.22,1062.79 2032.68,240.22 1539.79,670.27 1930.47,501.266 2561.33,1050.52 437.278,714.648 322.293,1541.51 
  1491.75,952.415 1143.22,494.172 1319.73,747.564 415.075,404.801 2449.61,896.991 2571.37,749.076 591.181,96.8724 1615.45,802.584 1399.75,1364.72 1697.84,973.731 
  1440.08,590.587 1001.77,623.229 932.732,1015.08 2206.47,1102.16 1208.68,1184.77 885.658,485.5 1878.4,260.197 1334.33,1297.02 1329.93,261.459 1308.18,336.882 
  1068.52,781.3 1681.51,458.312 468.989,1500.4 2156.35,484.792 811.893,511.905 455.987,1648.76 958.961,1323.13 2473.84,1196.26 1870.18,1100.74 395.563,861.968 
  623.302,1157.72 2353.63,217.844 1254.36,836.66 1418.2,732.572 2135.27,440.338 1388.48,453.391 1918.44,1571.48 2438.35,705.074 548.95,1699.28 1409.09,1615.92 
  1171.69,1590.48 285.627,855.264 503.968,953.324 331.298,1096.02 956.507,537.678 2398.55,158.254 536.358,587.756 2070.03,754.124 1823.25,1357.78 380.992,275.801 
  342.935,928.647 1675.84,1166.13 1640.67,341.892 1289.75,555.001 258.539,1428.97 690.99,1751.15 2434.75,1193.01 2434.9,175.009 2167.43,305.343 1284.66,1200.99 
  
  "/>
<path clip-path="url(#clip100)" d="
M2261.45 1742.33 L2559.04 1742.33 L2559.04 1638.65 L2261.45 1638.65  Z
  " fill="#ffffff" fill-rule="evenodd" fill-opacity="1"/>
<polyline clip-path="url(#clip100)" style="stroke:#000000; stroke-linecap:butt; stroke-linejoin:round; stroke-width:4; stroke-opacity:1; fill:none" points="
  2261.45,1742.33 2559.04,1742.33 2559.04,1638.65 2261.45,1638.65 2261.45,1742.33 
  "/>
<polyline clip-path="url(#clip100)" style="stroke:#009af9; stroke-linecap:butt; stroke-linejoin:round; stroke-width:4; stroke-opacity:1; fill:none" points="
  2288.69,1690.49 2452.13,1690.49 
  "/>
<path clip-path="url(#clip100)" d="M2493.21 1710.18 Q2491.4 1714.81 2489.69 1716.22 Q2487.98 1717.63 2485.11 1717.63 L2481.7 1717.63 L2481.7 1714.06 L2484.2 1714.06 Q2485.96 1714.06 2486.93 1713.23 Q2487.91 1712.4 2489.09 1709.3 L2489.85 1707.35 L2479.37 1681.84 L2483.88 1681.84 L2491.98 1702.12 L2500.08 1681.84 L2504.6 1681.84 L2493.21 1710.18 Z" fill="#000000" fill-rule="evenodd" fill-opacity="1" /><path clip-path="url(#clip100)" d="M2511.89 1703.83 L2519.53 1703.83 L2519.53 1677.47 L2511.22 1679.13 L2511.22 1674.87 L2519.48 1673.21 L2524.16 1673.21 L2524.16 1703.83 L2531.8 1703.83 L2531.8 1707.77 L2511.89 1707.77 L2511.89 1703.83 Z" fill="#000000" fill-rule="evenodd" fill-opacity="1" /></svg>
