<?xml version="1.0" encoding="utf-8"?>
<svg xmlns="http://www.w3.org/2000/svg" xmlns:xlink="http://www.w3.org/1999/xlink" width="672" height="480" viewBox="0 0 2688 1920">
<defs>
  <clipPath id="clip390">
    <rect x="0" y="0" width="2688" height="1920"/>
  </clipPath>
</defs>
<path clip-path="url(#clip390)" d="
M0 1920 L2688 1920 L2688 0 L0 0  Z
  " fill="#ffffff" fill-rule="evenodd" fill-opacity="1"/>
<defs>
  <clipPath id="clip391">
    <rect x="537" y="0" width="1883" height="1883"/>
  </clipPath>
</defs>
<path clip-path="url(#clip390)" d="
M189.154 1800.78 L2640.76 1800.78 L2640.76 47.2441 L189.154 47.2441  Z
  " fill="#ffffff" fill-rule="evenodd" fill-opacity="1"/>
<defs>
  <clipPath id="clip392">
    <rect x="189" y="47" width="2453" height="1755"/>
  </clipPath>
</defs>
<polyline clip-path="url(#clip392)" style="stroke:#000000; stroke-linecap:butt; stroke-linejoin:round; stroke-width:2; stroke-opacity:0.1; fill:none" points="
  229.413,1800.78 229.413,47.2441 
  "/>
<polyline clip-path="url(#clip392)" style="stroke:#000000; stroke-linecap:butt; stroke-linejoin:round; stroke-width:2; stroke-opacity:0.1; fill:none" points="
  822.301,1800.78 822.301,47.2441 
  "/>
<polyline clip-path="url(#clip392)" style="stroke:#000000; stroke-linecap:butt; stroke-linejoin:round; stroke-width:2; stroke-opacity:0.1; fill:none" points="
  1415.19,1800.78 1415.19,47.2441 
  "/>
<polyline clip-path="url(#clip392)" style="stroke:#000000; stroke-linecap:butt; stroke-linejoin:round; stroke-width:2; stroke-opacity:0.1; fill:none" points="
  2008.08,1800.78 2008.08,47.2441 
  "/>
<polyline clip-path="url(#clip392)" style="stroke:#000000; stroke-linecap:butt; stroke-linejoin:round; stroke-width:2; stroke-opacity:0.1; fill:none" points="
  2600.96,1800.78 2600.96,47.2441 
  "/>
<polyline clip-path="url(#clip390)" style="stroke:#000000; stroke-linecap:butt; stroke-linejoin:round; stroke-width:4; stroke-opacity:1; fill:none" points="
  189.154,1800.78 2640.76,1800.78 
  "/>
<polyline clip-path="url(#clip390)" style="stroke:#000000; stroke-linecap:butt; stroke-linejoin:round; stroke-width:4; stroke-opacity:1; fill:none" points="
  229.413,1800.78 229.413,1781.88 
  "/>
<polyline clip-path="url(#clip390)" style="stroke:#000000; stroke-linecap:butt; stroke-linejoin:round; stroke-width:4; stroke-opacity:1; fill:none" points="
  822.301,1800.78 822.301,1781.88 
  "/>
<polyline clip-path="url(#clip390)" style="stroke:#000000; stroke-linecap:butt; stroke-linejoin:round; stroke-width:4; stroke-opacity:1; fill:none" points="
  1415.19,1800.78 1415.19,1781.88 
  "/>
<polyline clip-path="url(#clip390)" style="stroke:#000000; stroke-linecap:butt; stroke-linejoin:round; stroke-width:4; stroke-opacity:1; fill:none" points="
  2008.08,1800.78 2008.08,1781.88 
  "/>
<polyline clip-path="url(#clip390)" style="stroke:#000000; stroke-linecap:butt; stroke-linejoin:round; stroke-width:4; stroke-opacity:1; fill:none" points="
  2600.96,1800.78 2600.96,1781.88 
  "/>
<path clip-path="url(#clip390)" d="M191.716 1834 Q188.105 1834 186.276 1837.57 Q184.471 1841.11 184.471 1848.24 Q184.471 1855.34 186.276 1858.91 Q188.105 1862.45 191.716 1862.45 Q195.35 1862.45 197.156 1858.91 Q198.984 1855.34 198.984 1848.24 Q198.984 1841.11 197.156 1837.57 Q195.35 1834 191.716 1834 M191.716 1830.3 Q197.526 1830.3 200.582 1834.9 Q203.66 1839.49 203.66 1848.24 Q203.66 1856.96 200.582 1861.57 Q197.526 1866.15 191.716 1866.15 Q185.906 1866.15 182.827 1861.57 Q179.772 1856.96 179.772 1848.24 Q179.772 1839.49 182.827 1834.9 Q185.906 1830.3 191.716 1830.3 Z" fill="#000000" fill-rule="evenodd" fill-opacity="1" /><path clip-path="url(#clip390)" d="M211.878 1859.6 L216.762 1859.6 L216.762 1865.48 L211.878 1865.48 L211.878 1859.6 Z" fill="#000000" fill-rule="evenodd" fill-opacity="1" /><path clip-path="url(#clip390)" d="M236.947 1834 Q233.336 1834 231.507 1837.57 Q229.702 1841.11 229.702 1848.24 Q229.702 1855.34 231.507 1858.91 Q233.336 1862.45 236.947 1862.45 Q240.581 1862.45 242.387 1858.91 Q244.216 1855.34 244.216 1848.24 Q244.216 1841.11 242.387 1837.57 Q240.581 1834 236.947 1834 M236.947 1830.3 Q242.757 1830.3 245.813 1834.9 Q248.892 1839.49 248.892 1848.24 Q248.892 1856.96 245.813 1861.57 Q242.757 1866.15 236.947 1866.15 Q231.137 1866.15 228.058 1861.57 Q225.003 1856.96 225.003 1848.24 Q225.003 1839.49 228.058 1834.9 Q231.137 1830.3 236.947 1830.3 Z" fill="#000000" fill-rule="evenodd" fill-opacity="1" /><path clip-path="url(#clip390)" d="M267.109 1834 Q263.498 1834 261.669 1837.57 Q259.864 1841.11 259.864 1848.24 Q259.864 1855.34 261.669 1858.91 Q263.498 1862.45 267.109 1862.45 Q270.743 1862.45 272.549 1858.91 Q274.378 1855.34 274.378 1848.24 Q274.378 1841.11 272.549 1837.57 Q270.743 1834 267.109 1834 M267.109 1830.3 Q272.919 1830.3 275.975 1834.9 Q279.053 1839.49 279.053 1848.24 Q279.053 1856.96 275.975 1861.57 Q272.919 1866.15 267.109 1866.15 Q261.299 1866.15 258.22 1861.57 Q255.165 1856.96 255.165 1848.24 Q255.165 1839.49 258.22 1834.9 Q261.299 1830.3 267.109 1830.3 Z" fill="#000000" fill-rule="evenodd" fill-opacity="1" /><path clip-path="url(#clip390)" d="M785.102 1834 Q781.491 1834 779.662 1837.57 Q777.856 1841.11 777.856 1848.24 Q777.856 1855.34 779.662 1858.91 Q781.491 1862.45 785.102 1862.45 Q788.736 1862.45 790.541 1858.91 Q792.37 1855.34 792.37 1848.24 Q792.37 1841.11 790.541 1837.57 Q788.736 1834 785.102 1834 M785.102 1830.3 Q790.912 1830.3 793.967 1834.9 Q797.046 1839.49 797.046 1848.24 Q797.046 1856.96 793.967 1861.57 Q790.912 1866.15 785.102 1866.15 Q779.292 1866.15 776.213 1861.57 Q773.157 1856.96 773.157 1848.24 Q773.157 1839.49 776.213 1834.9 Q779.292 1830.3 785.102 1830.3 Z" fill="#000000" fill-rule="evenodd" fill-opacity="1" /><path clip-path="url(#clip390)" d="M805.264 1859.6 L810.148 1859.6 L810.148 1865.48 L805.264 1865.48 L805.264 1859.6 Z" fill="#000000" fill-rule="evenodd" fill-opacity="1" /><path clip-path="url(#clip390)" d="M824.361 1861.55 L840.68 1861.55 L840.68 1865.48 L818.736 1865.48 L818.736 1861.55 Q821.398 1858.79 825.981 1854.16 Q830.588 1849.51 831.768 1848.17 Q834.013 1845.65 834.893 1843.91 Q835.796 1842.15 835.796 1840.46 Q835.796 1837.71 833.851 1835.97 Q831.93 1834.23 828.828 1834.23 Q826.629 1834.23 824.176 1835 Q821.745 1835.76 818.967 1837.31 L818.967 1832.59 Q821.791 1831.46 824.245 1830.88 Q826.699 1830.3 828.736 1830.3 Q834.106 1830.3 837.3 1832.98 Q840.495 1835.67 840.495 1840.16 Q840.495 1842.29 839.685 1844.21 Q838.898 1846.11 836.791 1848.7 Q836.213 1849.37 833.111 1852.59 Q830.009 1855.78 824.361 1861.55 Z" fill="#000000" fill-rule="evenodd" fill-opacity="1" /><path clip-path="url(#clip390)" d="M850.541 1830.92 L868.898 1830.92 L868.898 1834.86 L854.824 1834.86 L854.824 1843.33 Q855.842 1842.98 856.861 1842.82 Q857.879 1842.64 858.898 1842.64 Q864.685 1842.64 868.064 1845.81 Q871.444 1848.98 871.444 1854.4 Q871.444 1859.97 867.972 1863.08 Q864.499 1866.15 858.18 1866.15 Q856.004 1866.15 853.736 1865.78 Q851.49 1865.41 849.083 1864.67 L849.083 1859.97 Q851.166 1861.11 853.388 1861.66 Q855.611 1862.22 858.087 1862.22 Q862.092 1862.22 864.43 1860.11 Q866.768 1858.01 866.768 1854.4 Q866.768 1850.78 864.43 1848.68 Q862.092 1846.57 858.087 1846.57 Q856.212 1846.57 854.337 1846.99 Q852.486 1847.4 850.541 1848.28 L850.541 1830.92 Z" fill="#000000" fill-rule="evenodd" fill-opacity="1" /><path clip-path="url(#clip390)" d="M1377.49 1834 Q1373.88 1834 1372.05 1837.57 Q1370.25 1841.11 1370.25 1848.24 Q1370.25 1855.34 1372.05 1858.91 Q1373.88 1862.45 1377.49 1862.45 Q1381.13 1862.45 1382.93 1858.91 Q1384.76 1855.34 1384.76 1848.24 Q1384.76 1841.11 1382.93 1837.57 Q1381.13 1834 1377.49 1834 M1377.49 1830.3 Q1383.3 1830.3 1386.36 1834.9 Q1389.44 1839.49 1389.44 1848.24 Q1389.44 1856.96 1386.36 1861.57 Q1383.3 1866.15 1377.49 1866.15 Q1371.68 1866.15 1368.6 1861.57 Q1365.55 1856.96 1365.55 1848.24 Q1365.55 1839.49 1368.6 1834.9 Q1371.68 1830.3 1377.49 1830.3 Z" fill="#000000" fill-rule="evenodd" fill-opacity="1" /><path clip-path="url(#clip390)" d="M1397.65 1859.6 L1402.54 1859.6 L1402.54 1865.48 L1397.65 1865.48 L1397.65 1859.6 Z" fill="#000000" fill-rule="evenodd" fill-opacity="1" /><path clip-path="url(#clip390)" d="M1412.77 1830.92 L1431.13 1830.92 L1431.13 1834.86 L1417.05 1834.86 L1417.05 1843.33 Q1418.07 1842.98 1419.09 1842.82 Q1420.11 1842.64 1421.13 1842.64 Q1426.91 1842.64 1430.29 1845.81 Q1433.67 1848.98 1433.67 1854.4 Q1433.67 1859.97 1430.2 1863.08 Q1426.73 1866.15 1420.41 1866.15 Q1418.23 1866.15 1415.96 1865.78 Q1413.72 1865.41 1411.31 1864.67 L1411.31 1859.97 Q1413.39 1861.11 1415.62 1861.66 Q1417.84 1862.22 1420.32 1862.22 Q1424.32 1862.22 1426.66 1860.11 Q1429 1858.01 1429 1854.4 Q1429 1850.78 1426.66 1848.68 Q1424.32 1846.57 1420.32 1846.57 Q1418.44 1846.57 1416.57 1846.99 Q1414.71 1847.4 1412.77 1848.28 L1412.77 1830.92 Z" fill="#000000" fill-rule="evenodd" fill-opacity="1" /><path clip-path="url(#clip390)" d="M1452.89 1834 Q1449.27 1834 1447.45 1837.57 Q1445.64 1841.11 1445.64 1848.24 Q1445.64 1855.34 1447.45 1858.91 Q1449.27 1862.45 1452.89 1862.45 Q1456.52 1862.45 1458.32 1858.91 Q1460.15 1855.34 1460.15 1848.24 Q1460.15 1841.11 1458.32 1837.57 Q1456.52 1834 1452.89 1834 M1452.89 1830.3 Q1458.7 1830.3 1461.75 1834.9 Q1464.83 1839.49 1464.83 1848.24 Q1464.83 1856.96 1461.75 1861.57 Q1458.7 1866.15 1452.89 1866.15 Q1447.07 1866.15 1444 1861.57 Q1440.94 1856.96 1440.94 1848.24 Q1440.94 1839.49 1444 1834.9 Q1447.07 1830.3 1452.89 1830.3 Z" fill="#000000" fill-rule="evenodd" fill-opacity="1" /><path clip-path="url(#clip390)" d="M1970.88 1834 Q1967.27 1834 1965.44 1837.57 Q1963.63 1841.11 1963.63 1848.24 Q1963.63 1855.34 1965.44 1858.91 Q1967.27 1862.45 1970.88 1862.45 Q1974.51 1862.45 1976.32 1858.91 Q1978.15 1855.34 1978.15 1848.24 Q1978.15 1841.11 1976.32 1837.57 Q1974.51 1834 1970.88 1834 M1970.88 1830.3 Q1976.69 1830.3 1979.74 1834.9 Q1982.82 1839.49 1982.82 1848.24 Q1982.82 1856.96 1979.74 1861.57 Q1976.69 1866.15 1970.88 1866.15 Q1965.07 1866.15 1961.99 1861.57 Q1958.93 1856.96 1958.93 1848.24 Q1958.93 1839.49 1961.99 1834.9 Q1965.07 1830.3 1970.88 1830.3 Z" fill="#000000" fill-rule="evenodd" fill-opacity="1" /><path clip-path="url(#clip390)" d="M1991.04 1859.6 L1995.92 1859.6 L1995.92 1865.48 L1991.04 1865.48 L1991.04 1859.6 Z" fill="#000000" fill-rule="evenodd" fill-opacity="1" /><path clip-path="url(#clip390)" d="M2004.93 1830.92 L2027.15 1830.92 L2027.15 1832.91 L2014.6 1865.48 L2009.72 1865.48 L2021.53 1834.86 L2004.93 1834.86 L2004.93 1830.92 Z" fill="#000000" fill-rule="evenodd" fill-opacity="1" /><path clip-path="url(#clip390)" d="M2036.32 1830.92 L2054.67 1830.92 L2054.67 1834.86 L2040.6 1834.86 L2040.6 1843.33 Q2041.62 1842.98 2042.64 1842.82 Q2043.66 1842.64 2044.67 1842.64 Q2050.46 1842.64 2053.84 1845.81 Q2057.22 1848.98 2057.22 1854.4 Q2057.22 1859.97 2053.75 1863.08 Q2050.28 1866.15 2043.96 1866.15 Q2041.78 1866.15 2039.51 1865.78 Q2037.27 1865.41 2034.86 1864.67 L2034.86 1859.97 Q2036.94 1861.11 2039.16 1861.66 Q2041.39 1862.22 2043.86 1862.22 Q2047.87 1862.22 2050.21 1860.11 Q2052.54 1858.01 2052.54 1854.4 Q2052.54 1850.78 2050.21 1848.68 Q2047.87 1846.57 2043.86 1846.57 Q2041.99 1846.57 2040.11 1846.99 Q2038.26 1847.4 2036.32 1848.28 L2036.32 1830.92 Z" fill="#000000" fill-rule="evenodd" fill-opacity="1" /><path clip-path="url(#clip390)" d="M2553.04 1861.55 L2560.68 1861.55 L2560.68 1835.18 L2552.37 1836.85 L2552.37 1832.59 L2560.63 1830.92 L2565.31 1830.92 L2565.31 1861.55 L2572.94 1861.55 L2572.94 1865.48 L2553.04 1865.48 L2553.04 1861.55 Z" fill="#000000" fill-rule="evenodd" fill-opacity="1" /><path clip-path="url(#clip390)" d="M2582.39 1859.6 L2587.27 1859.6 L2587.27 1865.48 L2582.39 1865.48 L2582.39 1859.6 Z" fill="#000000" fill-rule="evenodd" fill-opacity="1" /><path clip-path="url(#clip390)" d="M2607.46 1834 Q2603.85 1834 2602.02 1837.57 Q2600.21 1841.11 2600.21 1848.24 Q2600.21 1855.34 2602.02 1858.91 Q2603.85 1862.45 2607.46 1862.45 Q2611.09 1862.45 2612.9 1858.91 Q2614.73 1855.34 2614.73 1848.24 Q2614.73 1841.11 2612.9 1837.57 Q2611.09 1834 2607.46 1834 M2607.46 1830.3 Q2613.27 1830.3 2616.32 1834.9 Q2619.4 1839.49 2619.4 1848.24 Q2619.4 1856.96 2616.32 1861.57 Q2613.27 1866.15 2607.46 1866.15 Q2601.65 1866.15 2598.57 1861.57 Q2595.51 1856.96 2595.51 1848.24 Q2595.51 1839.49 2598.57 1834.9 Q2601.65 1830.3 2607.46 1830.3 Z" fill="#000000" fill-rule="evenodd" fill-opacity="1" /><path clip-path="url(#clip390)" d="M2637.62 1834 Q2634.01 1834 2632.18 1837.57 Q2630.37 1841.11 2630.37 1848.24 Q2630.37 1855.34 2632.18 1858.91 Q2634.01 1862.45 2637.62 1862.45 Q2641.25 1862.45 2643.06 1858.91 Q2644.89 1855.34 2644.89 1848.24 Q2644.89 1841.11 2643.06 1837.57 Q2641.25 1834 2637.62 1834 M2637.62 1830.3 Q2643.43 1830.3 2646.49 1834.9 Q2649.56 1839.49 2649.56 1848.24 Q2649.56 1856.96 2646.49 1861.57 Q2643.43 1866.15 2637.62 1866.15 Q2631.81 1866.15 2628.73 1861.57 Q2625.68 1856.96 2625.68 1848.24 Q2625.68 1839.49 2628.73 1834.9 Q2631.81 1830.3 2637.62 1830.3 Z" fill="#000000" fill-rule="evenodd" fill-opacity="1" /><polyline clip-path="url(#clip392)" style="stroke:#000000; stroke-linecap:butt; stroke-linejoin:round; stroke-width:2; stroke-opacity:0.1; fill:none" points="
  189.154,1756.65 2640.76,1756.65 
  "/>
<polyline clip-path="url(#clip392)" style="stroke:#000000; stroke-linecap:butt; stroke-linejoin:round; stroke-width:2; stroke-opacity:0.1; fill:none" points="
  189.154,1338.56 2640.76,1338.56 
  "/>
<polyline clip-path="url(#clip392)" style="stroke:#000000; stroke-linecap:butt; stroke-linejoin:round; stroke-width:2; stroke-opacity:0.1; fill:none" points="
  189.154,920.462 2640.76,920.462 
  "/>
<polyline clip-path="url(#clip392)" style="stroke:#000000; stroke-linecap:butt; stroke-linejoin:round; stroke-width:2; stroke-opacity:0.1; fill:none" points="
  189.154,502.368 2640.76,502.368 
  "/>
<polyline clip-path="url(#clip392)" style="stroke:#000000; stroke-linecap:butt; stroke-linejoin:round; stroke-width:2; stroke-opacity:0.1; fill:none" points="
  189.154,84.2737 2640.76,84.2737 
  "/>
<polyline clip-path="url(#clip390)" style="stroke:#000000; stroke-linecap:butt; stroke-linejoin:round; stroke-width:4; stroke-opacity:1; fill:none" points="
  189.154,1800.78 189.154,47.2441 
  "/>
<polyline clip-path="url(#clip390)" style="stroke:#000000; stroke-linecap:butt; stroke-linejoin:round; stroke-width:4; stroke-opacity:1; fill:none" points="
  189.154,1756.65 208.052,1756.65 
  "/>
<polyline clip-path="url(#clip390)" style="stroke:#000000; stroke-linecap:butt; stroke-linejoin:round; stroke-width:4; stroke-opacity:1; fill:none" points="
  189.154,1338.56 208.052,1338.56 
  "/>
<polyline clip-path="url(#clip390)" style="stroke:#000000; stroke-linecap:butt; stroke-linejoin:round; stroke-width:4; stroke-opacity:1; fill:none" points="
  189.154,920.462 208.052,920.462 
  "/>
<polyline clip-path="url(#clip390)" style="stroke:#000000; stroke-linecap:butt; stroke-linejoin:round; stroke-width:4; stroke-opacity:1; fill:none" points="
  189.154,502.368 208.052,502.368 
  "/>
<polyline clip-path="url(#clip390)" style="stroke:#000000; stroke-linecap:butt; stroke-linejoin:round; stroke-width:4; stroke-opacity:1; fill:none" points="
  189.154,84.2737 208.052,84.2737 
  "/>
<path clip-path="url(#clip390)" d="M61.4965 1742.45 Q57.8854 1742.45 56.0567 1746.01 Q54.2512 1749.56 54.2512 1756.69 Q54.2512 1763.79 56.0567 1767.36 Q57.8854 1770.9 61.4965 1770.9 Q65.1307 1770.9 66.9363 1767.36 Q68.765 1763.79 68.765 1756.69 Q68.765 1749.56 66.9363 1746.01 Q65.1307 1742.45 61.4965 1742.45 M61.4965 1738.75 Q67.3067 1738.75 70.3622 1743.35 Q73.4409 1747.94 73.4409 1756.69 Q73.4409 1765.41 70.3622 1770.02 Q67.3067 1774.6 61.4965 1774.6 Q55.6864 1774.6 52.6077 1770.02 Q49.5521 1765.41 49.5521 1756.69 Q49.5521 1747.94 52.6077 1743.35 Q55.6864 1738.75 61.4965 1738.75 Z" fill="#000000" fill-rule="evenodd" fill-opacity="1" /><path clip-path="url(#clip390)" d="M81.6584 1768.05 L86.5427 1768.05 L86.5427 1773.93 L81.6584 1773.93 L81.6584 1768.05 Z" fill="#000000" fill-rule="evenodd" fill-opacity="1" /><path clip-path="url(#clip390)" d="M106.728 1742.45 Q103.117 1742.45 101.288 1746.01 Q99.4824 1749.56 99.4824 1756.69 Q99.4824 1763.79 101.288 1767.36 Q103.117 1770.9 106.728 1770.9 Q110.362 1770.9 112.168 1767.36 Q113.996 1763.79 113.996 1756.69 Q113.996 1749.56 112.168 1746.01 Q110.362 1742.45 106.728 1742.45 M106.728 1738.75 Q112.538 1738.75 115.593 1743.35 Q118.672 1747.94 118.672 1756.69 Q118.672 1765.41 115.593 1770.02 Q112.538 1774.6 106.728 1774.6 Q100.918 1774.6 97.8389 1770.02 Q94.7834 1765.41 94.7834 1756.69 Q94.7834 1747.94 97.8389 1743.35 Q100.918 1738.75 106.728 1738.75 Z" fill="#000000" fill-rule="evenodd" fill-opacity="1" /><path clip-path="url(#clip390)" d="M136.89 1742.45 Q133.279 1742.45 131.45 1746.01 Q129.644 1749.56 129.644 1756.69 Q129.644 1763.79 131.45 1767.36 Q133.279 1770.9 136.89 1770.9 Q140.524 1770.9 142.329 1767.36 Q144.158 1763.79 144.158 1756.69 Q144.158 1749.56 142.329 1746.01 Q140.524 1742.45 136.89 1742.45 M136.89 1738.75 Q142.7 1738.75 145.755 1743.35 Q148.834 1747.94 148.834 1756.69 Q148.834 1765.41 145.755 1770.02 Q142.7 1774.6 136.89 1774.6 Q131.079 1774.6 128.001 1770.02 Q124.945 1765.41 124.945 1756.69 Q124.945 1747.94 128.001 1743.35 Q131.079 1738.75 136.89 1738.75 Z" fill="#000000" fill-rule="evenodd" fill-opacity="1" /><path clip-path="url(#clip390)" d="M62.4919 1324.36 Q58.8808 1324.36 57.0521 1327.92 Q55.2465 1331.46 55.2465 1338.59 Q55.2465 1345.7 57.0521 1349.26 Q58.8808 1352.8 62.4919 1352.8 Q66.1261 1352.8 67.9317 1349.26 Q69.7604 1345.7 69.7604 1338.59 Q69.7604 1331.46 67.9317 1327.92 Q66.1261 1324.36 62.4919 1324.36 M62.4919 1320.65 Q68.302 1320.65 71.3576 1325.26 Q74.4363 1329.84 74.4363 1338.59 Q74.4363 1347.32 71.3576 1351.92 Q68.302 1356.51 62.4919 1356.51 Q56.6817 1356.51 53.603 1351.92 Q50.5475 1347.32 50.5475 1338.59 Q50.5475 1329.84 53.603 1325.26 Q56.6817 1320.65 62.4919 1320.65 Z" fill="#000000" fill-rule="evenodd" fill-opacity="1" /><path clip-path="url(#clip390)" d="M82.6538 1349.96 L87.538 1349.96 L87.538 1355.84 L82.6538 1355.84 L82.6538 1349.96 Z" fill="#000000" fill-rule="evenodd" fill-opacity="1" /><path clip-path="url(#clip390)" d="M101.751 1351.9 L118.07 1351.9 L118.07 1355.84 L96.126 1355.84 L96.126 1351.9 Q98.788 1349.15 103.371 1344.52 Q107.978 1339.86 109.158 1338.52 Q111.404 1336 112.283 1334.26 Q113.186 1332.5 113.186 1330.81 Q113.186 1328.06 111.242 1326.32 Q109.32 1324.59 106.218 1324.59 Q104.019 1324.59 101.566 1325.35 Q99.1352 1326.11 96.3574 1327.67 L96.3574 1322.94 Q99.1815 1321.81 101.635 1321.23 Q104.089 1320.65 106.126 1320.65 Q111.496 1320.65 114.691 1323.34 Q117.885 1326.02 117.885 1330.51 Q117.885 1332.64 117.075 1334.56 Q116.288 1336.46 114.181 1339.05 Q113.603 1339.73 110.501 1342.94 Q107.399 1346.14 101.751 1351.9 Z" fill="#000000" fill-rule="evenodd" fill-opacity="1" /><path clip-path="url(#clip390)" d="M127.931 1321.28 L146.288 1321.28 L146.288 1325.21 L132.214 1325.21 L132.214 1333.68 Q133.232 1333.34 134.251 1333.17 Q135.269 1332.99 136.288 1332.99 Q142.075 1332.99 145.454 1336.16 Q148.834 1339.33 148.834 1344.75 Q148.834 1350.33 145.362 1353.43 Q141.89 1356.51 135.57 1356.51 Q133.394 1356.51 131.126 1356.14 Q128.88 1355.77 126.473 1355.03 L126.473 1350.33 Q128.556 1351.46 130.779 1352.02 Q133.001 1352.57 135.478 1352.57 Q139.482 1352.57 141.82 1350.47 Q144.158 1348.36 144.158 1344.75 Q144.158 1341.14 141.82 1339.03 Q139.482 1336.92 135.478 1336.92 Q133.603 1336.92 131.728 1337.34 Q129.876 1337.76 127.931 1338.64 L127.931 1321.28 Z" fill="#000000" fill-rule="evenodd" fill-opacity="1" /><path clip-path="url(#clip390)" d="M61.4965 906.261 Q57.8854 906.261 56.0567 909.826 Q54.2512 913.367 54.2512 920.497 Q54.2512 927.603 56.0567 931.168 Q57.8854 934.71 61.4965 934.71 Q65.1307 934.71 66.9363 931.168 Q68.765 927.603 68.765 920.497 Q68.765 913.367 66.9363 909.826 Q65.1307 906.261 61.4965 906.261 M61.4965 902.557 Q67.3067 902.557 70.3622 907.164 Q73.4409 911.747 73.4409 920.497 Q73.4409 929.224 70.3622 933.83 Q67.3067 938.414 61.4965 938.414 Q55.6864 938.414 52.6077 933.83 Q49.5521 929.224 49.5521 920.497 Q49.5521 911.747 52.6077 907.164 Q55.6864 902.557 61.4965 902.557 Z" fill="#000000" fill-rule="evenodd" fill-opacity="1" /><path clip-path="url(#clip390)" d="M81.6584 931.863 L86.5427 931.863 L86.5427 937.742 L81.6584 937.742 L81.6584 931.863 Z" fill="#000000" fill-rule="evenodd" fill-opacity="1" /><path clip-path="url(#clip390)" d="M96.7741 903.182 L115.13 903.182 L115.13 907.117 L101.056 907.117 L101.056 915.59 Q102.075 915.242 103.094 915.08 Q104.112 914.895 105.131 914.895 Q110.918 914.895 114.297 918.066 Q117.677 921.238 117.677 926.654 Q117.677 932.233 114.205 935.335 Q110.732 938.414 104.413 938.414 Q102.237 938.414 99.9685 938.043 Q97.7232 937.673 95.3158 936.932 L95.3158 932.233 Q97.3991 933.367 99.6213 933.923 Q101.844 934.478 104.32 934.478 Q108.325 934.478 110.663 932.372 Q113.001 930.265 113.001 926.654 Q113.001 923.043 110.663 920.937 Q108.325 918.83 104.32 918.83 Q102.445 918.83 100.57 919.247 Q98.7185 919.664 96.7741 920.543 L96.7741 903.182 Z" fill="#000000" fill-rule="evenodd" fill-opacity="1" /><path clip-path="url(#clip390)" d="M136.89 906.261 Q133.279 906.261 131.45 909.826 Q129.644 913.367 129.644 920.497 Q129.644 927.603 131.45 931.168 Q133.279 934.71 136.89 934.71 Q140.524 934.71 142.329 931.168 Q144.158 927.603 144.158 920.497 Q144.158 913.367 142.329 909.826 Q140.524 906.261 136.89 906.261 M136.89 902.557 Q142.7 902.557 145.755 907.164 Q148.834 911.747 148.834 920.497 Q148.834 929.224 145.755 933.83 Q142.7 938.414 136.89 938.414 Q131.079 938.414 128.001 933.83 Q124.945 929.224 124.945 920.497 Q124.945 911.747 128.001 907.164 Q131.079 902.557 136.89 902.557 Z" fill="#000000" fill-rule="evenodd" fill-opacity="1" /><path clip-path="url(#clip390)" d="M62.4919 488.167 Q58.8808 488.167 57.0521 491.731 Q55.2465 495.273 55.2465 502.403 Q55.2465 509.509 57.0521 513.074 Q58.8808 516.616 62.4919 516.616 Q66.1261 516.616 67.9317 513.074 Q69.7604 509.509 69.7604 502.403 Q69.7604 495.273 67.9317 491.731 Q66.1261 488.167 62.4919 488.167 M62.4919 484.463 Q68.302 484.463 71.3576 489.069 Q74.4363 493.653 74.4363 502.403 Q74.4363 511.13 71.3576 515.736 Q68.302 520.319 62.4919 520.319 Q56.6817 520.319 53.603 515.736 Q50.5475 511.13 50.5475 502.403 Q50.5475 493.653 53.603 489.069 Q56.6817 484.463 62.4919 484.463 Z" fill="#000000" fill-rule="evenodd" fill-opacity="1" /><path clip-path="url(#clip390)" d="M82.6538 513.768 L87.538 513.768 L87.538 519.648 L82.6538 519.648 L82.6538 513.768 Z" fill="#000000" fill-rule="evenodd" fill-opacity="1" /><path clip-path="url(#clip390)" d="M96.5426 485.088 L118.765 485.088 L118.765 487.079 L106.218 519.648 L101.334 519.648 L113.14 489.023 L96.5426 489.023 L96.5426 485.088 Z" fill="#000000" fill-rule="evenodd" fill-opacity="1" /><path clip-path="url(#clip390)" d="M127.931 485.088 L146.288 485.088 L146.288 489.023 L132.214 489.023 L132.214 497.495 Q133.232 497.148 134.251 496.986 Q135.269 496.801 136.288 496.801 Q142.075 496.801 145.454 499.972 Q148.834 503.143 148.834 508.56 Q148.834 514.139 145.362 517.241 Q141.89 520.319 135.57 520.319 Q133.394 520.319 131.126 519.949 Q128.88 519.579 126.473 518.838 L126.473 514.139 Q128.556 515.273 130.779 515.829 Q133.001 516.384 135.478 516.384 Q139.482 516.384 141.82 514.278 Q144.158 512.171 144.158 508.56 Q144.158 504.949 141.82 502.843 Q139.482 500.736 135.478 500.736 Q133.603 500.736 131.728 501.153 Q129.876 501.569 127.931 502.449 L127.931 485.088 Z" fill="#000000" fill-rule="evenodd" fill-opacity="1" /><path clip-path="url(#clip390)" d="M52.3067 97.6186 L59.9456 97.6186 L59.9456 71.253 L51.6354 72.9196 L51.6354 68.6604 L59.8993 66.9937 L64.5752 66.9937 L64.5752 97.6186 L72.214 97.6186 L72.214 101.554 L52.3067 101.554 L52.3067 97.6186 Z" fill="#000000" fill-rule="evenodd" fill-opacity="1" /><path clip-path="url(#clip390)" d="M81.6584 95.6741 L86.5427 95.6741 L86.5427 101.554 L81.6584 101.554 L81.6584 95.6741 Z" fill="#000000" fill-rule="evenodd" fill-opacity="1" /><path clip-path="url(#clip390)" d="M106.728 70.0724 Q103.117 70.0724 101.288 73.6372 Q99.4824 77.1789 99.4824 84.3084 Q99.4824 91.4149 101.288 94.9797 Q103.117 98.5213 106.728 98.5213 Q110.362 98.5213 112.168 94.9797 Q113.996 91.4149 113.996 84.3084 Q113.996 77.1789 112.168 73.6372 Q110.362 70.0724 106.728 70.0724 M106.728 66.3687 Q112.538 66.3687 115.593 70.9752 Q118.672 75.5585 118.672 84.3084 Q118.672 93.0352 115.593 97.6417 Q112.538 102.225 106.728 102.225 Q100.918 102.225 97.8389 97.6417 Q94.7834 93.0352 94.7834 84.3084 Q94.7834 75.5585 97.8389 70.9752 Q100.918 66.3687 106.728 66.3687 Z" fill="#000000" fill-rule="evenodd" fill-opacity="1" /><path clip-path="url(#clip390)" d="M136.89 70.0724 Q133.279 70.0724 131.45 73.6372 Q129.644 77.1789 129.644 84.3084 Q129.644 91.4149 131.45 94.9797 Q133.279 98.5213 136.89 98.5213 Q140.524 98.5213 142.329 94.9797 Q144.158 91.4149 144.158 84.3084 Q144.158 77.1789 142.329 73.6372 Q140.524 70.0724 136.89 70.0724 M136.89 66.3687 Q142.7 66.3687 145.755 70.9752 Q148.834 75.5585 148.834 84.3084 Q148.834 93.0352 145.755 97.6417 Q142.7 102.225 136.89 102.225 Q131.079 102.225 128.001 97.6417 Q124.945 93.0352 124.945 84.3084 Q124.945 75.5585 128.001 70.9752 Q131.079 66.3687 136.89 66.3687 Z" fill="#000000" fill-rule="evenodd" fill-opacity="1" /><polyline clip-path="url(#clip392)" style="stroke:#009af9; stroke-linecap:butt; stroke-linejoin:round; stroke-width:4; stroke-opacity:1; fill:none" points="
  2009.44,1250.98 2208.17,912.544 649.432,1213.31 2401.27,854.815 928.486,1216.92 1739.92,307.354 262.25,1179.03 2329.64,1200.09 2434.3,1493.5 1549.36,206.235 
  720.582,997.803 2566.13,1354.89 2571.37,443.966 845.59,551.148 1860.32,1435.12 854.926,340.549 2502.79,1176.21 1975.1,397.061 258.539,949.111 1087.55,1720.27 
  2212.85,1470.88 580.934,410.613 1640.56,120.825 443.195,813.84 415.224,1052.81 976.804,622.33 1877.25,1634.79 1700.07,1720.55 1586.74,836.76 465.942,1546.36 
  582.813,814.009 1028.18,890.746 2386.34,1742.71 1848.43,1635.74 2446.93,1489.95 1492.89,1135.88 1957.39,787.191 955.811,1497.33 315.986,483.517 336.882,159.378 
  1036.4,761.549 2445.39,1751.15 2360.55,716.316 649.638,1002.88 2382.44,1383.67 1479.66,975.871 408.819,129.621 1721.24,551.452 2491.06,1743.69 1074.84,96.8724 
  1244.17,265.223 2301.92,1168.56 1144.32,1225.66 270.851,876.795 1407.98,1405.97 944.599,794.571 2481.31,1118.33 1437,757.093 1304.77,1241.34 1753.81,445.87 
  1991.36,842.562 580.725,503.146 1826.85,526.124 547.816,1505.5 344.418,162.614 1872.42,1028.78 655.999,258.788 531.399,347.535 2270.83,674.674 1284.47,164.807 
  1253.39,470.959 1416.36,1008.76 2546.6,1534.28 548.134,284.74 1987.57,1224.69 2135.98,1005.67 1064.75,201.455 2150.16,1680.73 2347.41,633.617 1008.55,1057.5 
  1071.3,168.961 270.026,1058.12 2340.14,1218.79 2007.08,1474.58 1773.73,1594.55 1335.08,1400.62 889.271,624.554 1983.27,505.7 1380.21,1244.37 1766.13,937.264 
  1288.13,304.535 1739.84,463.157 1107.06,745.799 1358.75,869.374 996.044,1337.1 1446.02,1414.61 1884.92,966.683 636.757,199.621 780.439,212.914 311.739,1678.78 
  
  "/>
<path clip-path="url(#clip390)" d="
M2261.45 209.375 L2559.04 209.375 L2559.04 105.695 L2261.45 105.695  Z
  " fill="#ffffff" fill-rule="evenodd" fill-opacity="1"/>
<polyline clip-path="url(#clip390)" style="stroke:#000000; stroke-linecap:butt; stroke-linejoin:round; stroke-width:4; stroke-opacity:1; fill:none" points="
  2261.45,209.375 2559.04,209.375 2559.04,105.695 2261.45,105.695 2261.45,209.375 
  "/>
<polyline clip-path="url(#clip390)" style="stroke:#009af9; stroke-linecap:butt; stroke-linejoin:round; stroke-width:4; stroke-opacity:1; fill:none" points="
  2288.69,157.535 2452.13,157.535 
  "/>
<path clip-path="url(#clip390)" d="M2493.21 177.223 Q2491.4 181.852 2489.69 183.264 Q2487.98 184.676 2485.11 184.676 L2481.7 184.676 L2481.7 181.112 L2484.2 181.112 Q2485.96 181.112 2486.93 180.278 Q2487.91 179.445 2489.09 176.343 L2489.85 174.399 L2479.37 148.889 L2483.88 148.889 L2491.98 169.167 L2500.08 148.889 L2504.6 148.889 L2493.21 177.223 Z" fill="#000000" fill-rule="evenodd" fill-opacity="1" /><path clip-path="url(#clip390)" d="M2511.89 170.88 L2519.53 170.88 L2519.53 144.515 L2511.22 146.181 L2511.22 141.922 L2519.48 140.255 L2524.16 140.255 L2524.16 170.88 L2531.8 170.88 L2531.8 174.815 L2511.89 174.815 L2511.89 170.88 Z" fill="#000000" fill-rule="evenodd" fill-opacity="1" /></svg>
