<?xml version="1.0" encoding="utf-8"?>
<svg xmlns="http://www.w3.org/2000/svg" xmlns:xlink="http://www.w3.org/1999/xlink" width="672" height="480" viewBox="0 0 2688 1920">
<defs>
  <clipPath id="clip780">
    <rect x="0" y="0" width="2688" height="1920"/>
  </clipPath>
</defs>
<path clip-path="url(#clip780)" d="
M0 1920 L2688 1920 L2688 0 L0 0  Z
  " fill="#ffffff" fill-rule="evenodd" fill-opacity="1"/>
<defs>
  <clipPath id="clip781">
    <rect x="537" y="0" width="1883" height="1883"/>
  </clipPath>
</defs>
<path clip-path="url(#clip780)" d="
M189.154 1800.78 L2640.76 1800.78 L2640.76 47.2441 L189.154 47.2441  Z
  " fill="#ffffff" fill-rule="evenodd" fill-opacity="1"/>
<defs>
  <clipPath id="clip782">
    <rect x="189" y="47" width="2453" height="1755"/>
  </clipPath>
</defs>
<polyline clip-path="url(#clip782)" style="stroke:#000000; stroke-linecap:butt; stroke-linejoin:round; stroke-width:2; stroke-opacity:0.1; fill:none" points="
  253.715,1800.78 253.715,47.2441 
  "/>
<polyline clip-path="url(#clip782)" style="stroke:#000000; stroke-linecap:butt; stroke-linejoin:round; stroke-width:2; stroke-opacity:0.1; fill:none" points="
  835.333,1800.78 835.333,47.2441 
  "/>
<polyline clip-path="url(#clip782)" style="stroke:#000000; stroke-linecap:butt; stroke-linejoin:round; stroke-width:2; stroke-opacity:0.1; fill:none" points="
  1416.95,1800.78 1416.95,47.2441 
  "/>
<polyline clip-path="url(#clip782)" style="stroke:#000000; stroke-linecap:butt; stroke-linejoin:round; stroke-width:2; stroke-opacity:0.1; fill:none" points="
  1998.57,1800.78 1998.57,47.2441 
  "/>
<polyline clip-path="url(#clip782)" style="stroke:#000000; stroke-linecap:butt; stroke-linejoin:round; stroke-width:2; stroke-opacity:0.1; fill:none" points="
  2580.19,1800.78 2580.19,47.2441 
  "/>
<polyline clip-path="url(#clip780)" style="stroke:#000000; stroke-linecap:butt; stroke-linejoin:round; stroke-width:4; stroke-opacity:1; fill:none" points="
  189.154,1800.78 2640.76,1800.78 
  "/>
<polyline clip-path="url(#clip780)" style="stroke:#000000; stroke-linecap:butt; stroke-linejoin:round; stroke-width:4; stroke-opacity:1; fill:none" points="
  253.715,1800.78 253.715,1781.88 
  "/>
<polyline clip-path="url(#clip780)" style="stroke:#000000; stroke-linecap:butt; stroke-linejoin:round; stroke-width:4; stroke-opacity:1; fill:none" points="
  835.333,1800.78 835.333,1781.88 
  "/>
<polyline clip-path="url(#clip780)" style="stroke:#000000; stroke-linecap:butt; stroke-linejoin:round; stroke-width:4; stroke-opacity:1; fill:none" points="
  1416.95,1800.78 1416.95,1781.88 
  "/>
<polyline clip-path="url(#clip780)" style="stroke:#000000; stroke-linecap:butt; stroke-linejoin:round; stroke-width:4; stroke-opacity:1; fill:none" points="
  1998.57,1800.78 1998.57,1781.88 
  "/>
<polyline clip-path="url(#clip780)" style="stroke:#000000; stroke-linecap:butt; stroke-linejoin:round; stroke-width:4; stroke-opacity:1; fill:none" points="
  2580.19,1800.78 2580.19,1781.88 
  "/>
<path clip-path="url(#clip780)" d="M216.018 1834 Q212.407 1834 210.578 1837.57 Q208.773 1841.11 208.773 1848.24 Q208.773 1855.34 210.578 1858.91 Q212.407 1862.45 216.018 1862.45 Q219.652 1862.45 221.458 1858.91 Q223.286 1855.34 223.286 1848.24 Q223.286 1841.11 221.458 1837.57 Q219.652 1834 216.018 1834 M216.018 1830.3 Q221.828 1830.3 224.884 1834.9 Q227.962 1839.49 227.962 1848.24 Q227.962 1856.96 224.884 1861.57 Q221.828 1866.15 216.018 1866.15 Q210.208 1866.15 207.129 1861.57 Q204.074 1856.96 204.074 1848.24 Q204.074 1839.49 207.129 1834.9 Q210.208 1830.3 216.018 1830.3 Z" fill="#000000" fill-rule="evenodd" fill-opacity="1" /><path clip-path="url(#clip780)" d="M236.18 1859.6 L241.064 1859.6 L241.064 1865.48 L236.18 1865.48 L236.18 1859.6 Z" fill="#000000" fill-rule="evenodd" fill-opacity="1" /><path clip-path="url(#clip780)" d="M261.249 1834 Q257.638 1834 255.809 1837.57 Q254.004 1841.11 254.004 1848.24 Q254.004 1855.34 255.809 1858.91 Q257.638 1862.45 261.249 1862.45 Q264.883 1862.45 266.689 1858.91 Q268.518 1855.34 268.518 1848.24 Q268.518 1841.11 266.689 1837.57 Q264.883 1834 261.249 1834 M261.249 1830.3 Q267.059 1830.3 270.115 1834.9 Q273.194 1839.49 273.194 1848.24 Q273.194 1856.96 270.115 1861.57 Q267.059 1866.15 261.249 1866.15 Q255.439 1866.15 252.36 1861.57 Q249.305 1856.96 249.305 1848.24 Q249.305 1839.49 252.36 1834.9 Q255.439 1830.3 261.249 1830.3 Z" fill="#000000" fill-rule="evenodd" fill-opacity="1" /><path clip-path="url(#clip780)" d="M291.411 1834 Q287.8 1834 285.971 1837.57 Q284.166 1841.11 284.166 1848.24 Q284.166 1855.34 285.971 1858.91 Q287.8 1862.45 291.411 1862.45 Q295.045 1862.45 296.851 1858.91 Q298.68 1855.34 298.68 1848.24 Q298.68 1841.11 296.851 1837.57 Q295.045 1834 291.411 1834 M291.411 1830.3 Q297.221 1830.3 300.277 1834.9 Q303.355 1839.49 303.355 1848.24 Q303.355 1856.96 300.277 1861.57 Q297.221 1866.15 291.411 1866.15 Q285.601 1866.15 282.522 1861.57 Q279.467 1856.96 279.467 1848.24 Q279.467 1839.49 282.522 1834.9 Q285.601 1830.3 291.411 1830.3 Z" fill="#000000" fill-rule="evenodd" fill-opacity="1" /><path clip-path="url(#clip780)" d="M798.134 1834 Q794.523 1834 792.695 1837.57 Q790.889 1841.11 790.889 1848.24 Q790.889 1855.34 792.695 1858.91 Q794.523 1862.45 798.134 1862.45 Q801.769 1862.45 803.574 1858.91 Q805.403 1855.34 805.403 1848.24 Q805.403 1841.11 803.574 1837.57 Q801.769 1834 798.134 1834 M798.134 1830.3 Q803.945 1830.3 807 1834.9 Q810.079 1839.49 810.079 1848.24 Q810.079 1856.96 807 1861.57 Q803.945 1866.15 798.134 1866.15 Q792.324 1866.15 789.246 1861.57 Q786.19 1856.96 786.19 1848.24 Q786.19 1839.49 789.246 1834.9 Q792.324 1830.3 798.134 1830.3 Z" fill="#000000" fill-rule="evenodd" fill-opacity="1" /><path clip-path="url(#clip780)" d="M818.296 1859.6 L823.181 1859.6 L823.181 1865.48 L818.296 1865.48 L818.296 1859.6 Z" fill="#000000" fill-rule="evenodd" fill-opacity="1" /><path clip-path="url(#clip780)" d="M837.393 1861.55 L853.713 1861.55 L853.713 1865.48 L831.769 1865.48 L831.769 1861.55 Q834.431 1858.79 839.014 1854.16 Q843.62 1849.51 844.801 1848.17 Q847.046 1845.65 847.926 1843.91 Q848.829 1842.15 848.829 1840.46 Q848.829 1837.71 846.884 1835.97 Q844.963 1834.23 841.861 1834.23 Q839.662 1834.23 837.208 1835 Q834.778 1835.76 832 1837.31 L832 1832.59 Q834.824 1831.46 837.278 1830.88 Q839.731 1830.3 841.768 1830.3 Q847.139 1830.3 850.333 1832.98 Q853.528 1835.67 853.528 1840.16 Q853.528 1842.29 852.717 1844.21 Q851.93 1846.11 849.824 1848.7 Q849.245 1849.37 846.143 1852.59 Q843.042 1855.78 837.393 1861.55 Z" fill="#000000" fill-rule="evenodd" fill-opacity="1" /><path clip-path="url(#clip780)" d="M863.574 1830.92 L881.93 1830.92 L881.93 1834.86 L867.856 1834.86 L867.856 1843.33 Q868.875 1842.98 869.893 1842.82 Q870.912 1842.64 871.93 1842.64 Q877.717 1842.64 881.097 1845.81 Q884.477 1848.98 884.477 1854.4 Q884.477 1859.97 881.004 1863.08 Q877.532 1866.15 871.213 1866.15 Q869.037 1866.15 866.768 1865.78 Q864.523 1865.41 862.116 1864.67 L862.116 1859.97 Q864.199 1861.11 866.421 1861.66 Q868.643 1862.22 871.12 1862.22 Q875.125 1862.22 877.463 1860.11 Q879.801 1858.01 879.801 1854.4 Q879.801 1850.78 877.463 1848.68 Q875.125 1846.57 871.12 1846.57 Q869.245 1846.57 867.37 1846.99 Q865.518 1847.4 863.574 1848.28 L863.574 1830.92 Z" fill="#000000" fill-rule="evenodd" fill-opacity="1" /><path clip-path="url(#clip780)" d="M1379.26 1834 Q1375.64 1834 1373.82 1837.57 Q1372.01 1841.11 1372.01 1848.24 Q1372.01 1855.34 1373.82 1858.91 Q1375.64 1862.45 1379.26 1862.45 Q1382.89 1862.45 1384.7 1858.91 Q1386.52 1855.34 1386.52 1848.24 Q1386.52 1841.11 1384.7 1837.57 Q1382.89 1834 1379.26 1834 M1379.26 1830.3 Q1385.07 1830.3 1388.12 1834.9 Q1391.2 1839.49 1391.2 1848.24 Q1391.2 1856.96 1388.12 1861.57 Q1385.07 1866.15 1379.26 1866.15 Q1373.45 1866.15 1370.37 1861.57 Q1367.31 1856.96 1367.31 1848.24 Q1367.31 1839.49 1370.37 1834.9 Q1373.45 1830.3 1379.26 1830.3 Z" fill="#000000" fill-rule="evenodd" fill-opacity="1" /><path clip-path="url(#clip780)" d="M1399.42 1859.6 L1404.3 1859.6 L1404.3 1865.48 L1399.42 1865.48 L1399.42 1859.6 Z" fill="#000000" fill-rule="evenodd" fill-opacity="1" /><path clip-path="url(#clip780)" d="M1414.53 1830.92 L1432.89 1830.92 L1432.89 1834.86 L1418.82 1834.86 L1418.82 1843.33 Q1419.83 1842.98 1420.85 1842.82 Q1421.87 1842.64 1422.89 1842.64 Q1428.68 1842.64 1432.06 1845.81 Q1435.44 1848.98 1435.44 1854.4 Q1435.44 1859.97 1431.96 1863.08 Q1428.49 1866.15 1422.17 1866.15 Q1420 1866.15 1417.73 1865.78 Q1415.48 1865.41 1413.07 1864.67 L1413.07 1859.97 Q1415.16 1861.11 1417.38 1861.66 Q1419.6 1862.22 1422.08 1862.22 Q1426.08 1862.22 1428.42 1860.11 Q1430.76 1858.01 1430.76 1854.4 Q1430.76 1850.78 1428.42 1848.68 Q1426.08 1846.57 1422.08 1846.57 Q1420.2 1846.57 1418.33 1846.99 Q1416.48 1847.4 1414.53 1848.28 L1414.53 1830.92 Z" fill="#000000" fill-rule="evenodd" fill-opacity="1" /><path clip-path="url(#clip780)" d="M1454.65 1834 Q1451.04 1834 1449.21 1837.57 Q1447.4 1841.11 1447.4 1848.24 Q1447.4 1855.34 1449.21 1858.91 Q1451.04 1862.45 1454.65 1862.45 Q1458.28 1862.45 1460.09 1858.91 Q1461.92 1855.34 1461.92 1848.24 Q1461.92 1841.11 1460.09 1837.57 Q1458.28 1834 1454.65 1834 M1454.65 1830.3 Q1460.46 1830.3 1463.51 1834.9 Q1466.59 1839.49 1466.59 1848.24 Q1466.59 1856.96 1463.51 1861.57 Q1460.46 1866.15 1454.65 1866.15 Q1448.84 1866.15 1445.76 1861.57 Q1442.7 1856.96 1442.7 1848.24 Q1442.7 1839.49 1445.76 1834.9 Q1448.84 1830.3 1454.65 1830.3 Z" fill="#000000" fill-rule="evenodd" fill-opacity="1" /><path clip-path="url(#clip780)" d="M1961.37 1834 Q1957.76 1834 1955.93 1837.57 Q1954.13 1841.11 1954.13 1848.24 Q1954.13 1855.34 1955.93 1858.91 Q1957.76 1862.45 1961.37 1862.45 Q1965.01 1862.45 1966.81 1858.91 Q1968.64 1855.34 1968.64 1848.24 Q1968.64 1841.11 1966.81 1837.57 Q1965.01 1834 1961.37 1834 M1961.37 1830.3 Q1967.18 1830.3 1970.24 1834.9 Q1973.32 1839.49 1973.32 1848.24 Q1973.32 1856.96 1970.24 1861.57 Q1967.18 1866.15 1961.37 1866.15 Q1955.56 1866.15 1952.48 1861.57 Q1949.43 1856.96 1949.43 1848.24 Q1949.43 1839.49 1952.48 1834.9 Q1955.56 1830.3 1961.37 1830.3 Z" fill="#000000" fill-rule="evenodd" fill-opacity="1" /><path clip-path="url(#clip780)" d="M1981.53 1859.6 L1986.42 1859.6 L1986.42 1865.48 L1981.53 1865.48 L1981.53 1859.6 Z" fill="#000000" fill-rule="evenodd" fill-opacity="1" /><path clip-path="url(#clip780)" d="M1995.42 1830.92 L2017.64 1830.92 L2017.64 1832.91 L2005.1 1865.48 L2000.21 1865.48 L2012.02 1834.86 L1995.42 1834.86 L1995.42 1830.92 Z" fill="#000000" fill-rule="evenodd" fill-opacity="1" /><path clip-path="url(#clip780)" d="M2026.81 1830.92 L2045.17 1830.92 L2045.17 1834.86 L2031.09 1834.86 L2031.09 1843.33 Q2032.11 1842.98 2033.13 1842.82 Q2034.15 1842.64 2035.17 1842.64 Q2040.95 1842.64 2044.33 1845.81 Q2047.71 1848.98 2047.71 1854.4 Q2047.71 1859.97 2044.24 1863.08 Q2040.77 1866.15 2034.45 1866.15 Q2032.27 1866.15 2030.01 1865.78 Q2027.76 1865.41 2025.35 1864.67 L2025.35 1859.97 Q2027.44 1861.11 2029.66 1861.66 Q2031.88 1862.22 2034.36 1862.22 Q2038.36 1862.22 2040.7 1860.11 Q2043.04 1858.01 2043.04 1854.4 Q2043.04 1850.78 2040.7 1848.68 Q2038.36 1846.57 2034.36 1846.57 Q2032.48 1846.57 2030.61 1846.99 Q2028.76 1847.4 2026.81 1848.28 L2026.81 1830.92 Z" fill="#000000" fill-rule="evenodd" fill-opacity="1" /><path clip-path="url(#clip780)" d="M2532.26 1861.55 L2539.9 1861.55 L2539.9 1835.18 L2531.59 1836.85 L2531.59 1832.59 L2539.85 1830.92 L2544.53 1830.92 L2544.53 1861.55 L2552.17 1861.55 L2552.17 1865.48 L2532.26 1865.48 L2532.26 1861.55 Z" fill="#000000" fill-rule="evenodd" fill-opacity="1" /><path clip-path="url(#clip780)" d="M2561.61 1859.6 L2566.5 1859.6 L2566.5 1865.48 L2561.61 1865.48 L2561.61 1859.6 Z" fill="#000000" fill-rule="evenodd" fill-opacity="1" /><path clip-path="url(#clip780)" d="M2586.68 1834 Q2583.07 1834 2581.24 1837.57 Q2579.44 1841.11 2579.44 1848.24 Q2579.44 1855.34 2581.24 1858.91 Q2583.07 1862.45 2586.68 1862.45 Q2590.32 1862.45 2592.12 1858.91 Q2593.95 1855.34 2593.95 1848.24 Q2593.95 1841.11 2592.12 1837.57 Q2590.32 1834 2586.68 1834 M2586.68 1830.3 Q2592.49 1830.3 2595.55 1834.9 Q2598.63 1839.49 2598.63 1848.24 Q2598.63 1856.96 2595.55 1861.57 Q2592.49 1866.15 2586.68 1866.15 Q2580.87 1866.15 2577.79 1861.57 Q2574.74 1856.96 2574.74 1848.24 Q2574.74 1839.49 2577.79 1834.9 Q2580.87 1830.3 2586.68 1830.3 Z" fill="#000000" fill-rule="evenodd" fill-opacity="1" /><path clip-path="url(#clip780)" d="M2616.84 1834 Q2613.23 1834 2611.4 1837.57 Q2609.6 1841.11 2609.6 1848.24 Q2609.6 1855.34 2611.4 1858.91 Q2613.23 1862.45 2616.84 1862.45 Q2620.48 1862.45 2622.28 1858.91 Q2624.11 1855.34 2624.11 1848.24 Q2624.11 1841.11 2622.28 1837.57 Q2620.48 1834 2616.84 1834 M2616.84 1830.3 Q2622.65 1830.3 2625.71 1834.9 Q2628.79 1839.49 2628.79 1848.24 Q2628.79 1856.96 2625.71 1861.57 Q2622.65 1866.15 2616.84 1866.15 Q2611.03 1866.15 2607.96 1861.57 Q2604.9 1856.96 2604.9 1848.24 Q2604.9 1839.49 2607.96 1834.9 Q2611.03 1830.3 2616.84 1830.3 Z" fill="#000000" fill-rule="evenodd" fill-opacity="1" /><polyline clip-path="url(#clip782)" style="stroke:#000000; stroke-linecap:butt; stroke-linejoin:round; stroke-width:2; stroke-opacity:0.1; fill:none" points="
  189.154,1762.7 2640.76,1762.7 
  "/>
<polyline clip-path="url(#clip782)" style="stroke:#000000; stroke-linecap:butt; stroke-linejoin:round; stroke-width:2; stroke-opacity:0.1; fill:none" points="
  189.154,1345.83 2640.76,1345.83 
  "/>
<polyline clip-path="url(#clip782)" style="stroke:#000000; stroke-linecap:butt; stroke-linejoin:round; stroke-width:2; stroke-opacity:0.1; fill:none" points="
  189.154,928.964 2640.76,928.964 
  "/>
<polyline clip-path="url(#clip782)" style="stroke:#000000; stroke-linecap:butt; stroke-linejoin:round; stroke-width:2; stroke-opacity:0.1; fill:none" points="
  189.154,512.097 2640.76,512.097 
  "/>
<polyline clip-path="url(#clip782)" style="stroke:#000000; stroke-linecap:butt; stroke-linejoin:round; stroke-width:2; stroke-opacity:0.1; fill:none" points="
  189.154,95.2303 2640.76,95.2303 
  "/>
<polyline clip-path="url(#clip780)" style="stroke:#000000; stroke-linecap:butt; stroke-linejoin:round; stroke-width:4; stroke-opacity:1; fill:none" points="
  189.154,1800.78 189.154,47.2441 
  "/>
<polyline clip-path="url(#clip780)" style="stroke:#000000; stroke-linecap:butt; stroke-linejoin:round; stroke-width:4; stroke-opacity:1; fill:none" points="
  189.154,1762.7 208.052,1762.7 
  "/>
<polyline clip-path="url(#clip780)" style="stroke:#000000; stroke-linecap:butt; stroke-linejoin:round; stroke-width:4; stroke-opacity:1; fill:none" points="
  189.154,1345.83 208.052,1345.83 
  "/>
<polyline clip-path="url(#clip780)" style="stroke:#000000; stroke-linecap:butt; stroke-linejoin:round; stroke-width:4; stroke-opacity:1; fill:none" points="
  189.154,928.964 208.052,928.964 
  "/>
<polyline clip-path="url(#clip780)" style="stroke:#000000; stroke-linecap:butt; stroke-linejoin:round; stroke-width:4; stroke-opacity:1; fill:none" points="
  189.154,512.097 208.052,512.097 
  "/>
<polyline clip-path="url(#clip780)" style="stroke:#000000; stroke-linecap:butt; stroke-linejoin:round; stroke-width:4; stroke-opacity:1; fill:none" points="
  189.154,95.2303 208.052,95.2303 
  "/>
<path clip-path="url(#clip780)" d="M61.4965 1748.5 Q57.8854 1748.5 56.0567 1752.06 Q54.2512 1755.6 54.2512 1762.73 Q54.2512 1769.84 56.0567 1773.4 Q57.8854 1776.95 61.4965 1776.95 Q65.1307 1776.95 66.9363 1773.4 Q68.765 1769.84 68.765 1762.73 Q68.765 1755.6 66.9363 1752.06 Q65.1307 1748.5 61.4965 1748.5 M61.4965 1744.79 Q67.3067 1744.79 70.3622 1749.4 Q73.4409 1753.98 73.4409 1762.73 Q73.4409 1771.46 70.3622 1776.07 Q67.3067 1780.65 61.4965 1780.65 Q55.6864 1780.65 52.6077 1776.07 Q49.5521 1771.46 49.5521 1762.73 Q49.5521 1753.98 52.6077 1749.4 Q55.6864 1744.79 61.4965 1744.79 Z" fill="#000000" fill-rule="evenodd" fill-opacity="1" /><path clip-path="url(#clip780)" d="M81.6584 1774.1 L86.5427 1774.1 L86.5427 1779.98 L81.6584 1779.98 L81.6584 1774.1 Z" fill="#000000" fill-rule="evenodd" fill-opacity="1" /><path clip-path="url(#clip780)" d="M106.728 1748.5 Q103.117 1748.5 101.288 1752.06 Q99.4824 1755.6 99.4824 1762.73 Q99.4824 1769.84 101.288 1773.4 Q103.117 1776.95 106.728 1776.95 Q110.362 1776.95 112.168 1773.4 Q113.996 1769.84 113.996 1762.73 Q113.996 1755.6 112.168 1752.06 Q110.362 1748.5 106.728 1748.5 M106.728 1744.79 Q112.538 1744.79 115.593 1749.4 Q118.672 1753.98 118.672 1762.73 Q118.672 1771.46 115.593 1776.07 Q112.538 1780.65 106.728 1780.65 Q100.918 1780.65 97.8389 1776.07 Q94.7834 1771.46 94.7834 1762.73 Q94.7834 1753.98 97.8389 1749.4 Q100.918 1744.79 106.728 1744.79 Z" fill="#000000" fill-rule="evenodd" fill-opacity="1" /><path clip-path="url(#clip780)" d="M136.89 1748.5 Q133.279 1748.5 131.45 1752.06 Q129.644 1755.6 129.644 1762.73 Q129.644 1769.84 131.45 1773.4 Q133.279 1776.95 136.89 1776.95 Q140.524 1776.95 142.329 1773.4 Q144.158 1769.84 144.158 1762.73 Q144.158 1755.6 142.329 1752.06 Q140.524 1748.5 136.89 1748.5 M136.89 1744.79 Q142.7 1744.79 145.755 1749.4 Q148.834 1753.98 148.834 1762.73 Q148.834 1771.46 145.755 1776.07 Q142.7 1780.65 136.89 1780.65 Q131.079 1780.65 128.001 1776.07 Q124.945 1771.46 124.945 1762.73 Q124.945 1753.98 128.001 1749.4 Q131.079 1744.79 136.89 1744.79 Z" fill="#000000" fill-rule="evenodd" fill-opacity="1" /><path clip-path="url(#clip780)" d="M62.4919 1331.63 Q58.8808 1331.63 57.0521 1335.19 Q55.2465 1338.74 55.2465 1345.87 Q55.2465 1352.97 57.0521 1356.54 Q58.8808 1360.08 62.4919 1360.08 Q66.1261 1360.08 67.9317 1356.54 Q69.7604 1352.97 69.7604 1345.87 Q69.7604 1338.74 67.9317 1335.19 Q66.1261 1331.63 62.4919 1331.63 M62.4919 1327.93 Q68.302 1327.93 71.3576 1332.53 Q74.4363 1337.12 74.4363 1345.87 Q74.4363 1354.59 71.3576 1359.2 Q68.302 1363.78 62.4919 1363.78 Q56.6817 1363.78 53.603 1359.2 Q50.5475 1354.59 50.5475 1345.87 Q50.5475 1337.12 53.603 1332.53 Q56.6817 1327.93 62.4919 1327.93 Z" fill="#000000" fill-rule="evenodd" fill-opacity="1" /><path clip-path="url(#clip780)" d="M82.6538 1357.23 L87.538 1357.23 L87.538 1363.11 L82.6538 1363.11 L82.6538 1357.23 Z" fill="#000000" fill-rule="evenodd" fill-opacity="1" /><path clip-path="url(#clip780)" d="M101.751 1359.18 L118.07 1359.18 L118.07 1363.11 L96.126 1363.11 L96.126 1359.18 Q98.788 1356.42 103.371 1351.79 Q107.978 1347.14 109.158 1345.8 Q111.404 1343.27 112.283 1341.54 Q113.186 1339.78 113.186 1338.09 Q113.186 1335.33 111.242 1333.6 Q109.32 1331.86 106.218 1331.86 Q104.019 1331.86 101.566 1332.63 Q99.1352 1333.39 96.3574 1334.94 L96.3574 1330.22 Q99.1815 1329.08 101.635 1328.5 Q104.089 1327.93 106.126 1327.93 Q111.496 1327.93 114.691 1330.61 Q117.885 1333.3 117.885 1337.79 Q117.885 1339.92 117.075 1341.84 Q116.288 1343.74 114.181 1346.33 Q113.603 1347 110.501 1350.22 Q107.399 1353.41 101.751 1359.18 Z" fill="#000000" fill-rule="evenodd" fill-opacity="1" /><path clip-path="url(#clip780)" d="M127.931 1328.55 L146.288 1328.55 L146.288 1332.49 L132.214 1332.49 L132.214 1340.96 Q133.232 1340.61 134.251 1340.45 Q135.269 1340.26 136.288 1340.26 Q142.075 1340.26 145.454 1343.44 Q148.834 1346.61 148.834 1352.02 Q148.834 1357.6 145.362 1360.7 Q141.89 1363.78 135.57 1363.78 Q133.394 1363.78 131.126 1363.41 Q128.88 1363.04 126.473 1362.3 L126.473 1357.6 Q128.556 1358.74 130.779 1359.29 Q133.001 1359.85 135.478 1359.85 Q139.482 1359.85 141.82 1357.74 Q144.158 1355.63 144.158 1352.02 Q144.158 1348.41 141.82 1346.31 Q139.482 1344.2 135.478 1344.2 Q133.603 1344.2 131.728 1344.62 Q129.876 1345.03 127.931 1345.91 L127.931 1328.55 Z" fill="#000000" fill-rule="evenodd" fill-opacity="1" /><path clip-path="url(#clip780)" d="M61.4965 914.763 Q57.8854 914.763 56.0567 918.328 Q54.2512 921.869 54.2512 928.999 Q54.2512 936.105 56.0567 939.67 Q57.8854 943.212 61.4965 943.212 Q65.1307 943.212 66.9363 939.67 Q68.765 936.105 68.765 928.999 Q68.765 921.869 66.9363 918.328 Q65.1307 914.763 61.4965 914.763 M61.4965 911.059 Q67.3067 911.059 70.3622 915.666 Q73.4409 920.249 73.4409 928.999 Q73.4409 937.726 70.3622 942.332 Q67.3067 946.915 61.4965 946.915 Q55.6864 946.915 52.6077 942.332 Q49.5521 937.726 49.5521 928.999 Q49.5521 920.249 52.6077 915.666 Q55.6864 911.059 61.4965 911.059 Z" fill="#000000" fill-rule="evenodd" fill-opacity="1" /><path clip-path="url(#clip780)" d="M81.6584 940.365 L86.5427 940.365 L86.5427 946.244 L81.6584 946.244 L81.6584 940.365 Z" fill="#000000" fill-rule="evenodd" fill-opacity="1" /><path clip-path="url(#clip780)" d="M96.7741 911.684 L115.13 911.684 L115.13 915.619 L101.056 915.619 L101.056 924.092 Q102.075 923.744 103.094 923.582 Q104.112 923.397 105.131 923.397 Q110.918 923.397 114.297 926.568 Q117.677 929.74 117.677 935.156 Q117.677 940.735 114.205 943.837 Q110.732 946.915 104.413 946.915 Q102.237 946.915 99.9685 946.545 Q97.7232 946.175 95.3158 945.434 L95.3158 940.735 Q97.3991 941.869 99.6213 942.425 Q101.844 942.98 104.32 942.98 Q108.325 942.98 110.663 940.874 Q113.001 938.767 113.001 935.156 Q113.001 931.545 110.663 929.439 Q108.325 927.332 104.32 927.332 Q102.445 927.332 100.57 927.749 Q98.7185 928.166 96.7741 929.045 L96.7741 911.684 Z" fill="#000000" fill-rule="evenodd" fill-opacity="1" /><path clip-path="url(#clip780)" d="M136.89 914.763 Q133.279 914.763 131.45 918.328 Q129.644 921.869 129.644 928.999 Q129.644 936.105 131.45 939.67 Q133.279 943.212 136.89 943.212 Q140.524 943.212 142.329 939.67 Q144.158 936.105 144.158 928.999 Q144.158 921.869 142.329 918.328 Q140.524 914.763 136.89 914.763 M136.89 911.059 Q142.7 911.059 145.755 915.666 Q148.834 920.249 148.834 928.999 Q148.834 937.726 145.755 942.332 Q142.7 946.915 136.89 946.915 Q131.079 946.915 128.001 942.332 Q124.945 937.726 124.945 928.999 Q124.945 920.249 128.001 915.666 Q131.079 911.059 136.89 911.059 Z" fill="#000000" fill-rule="evenodd" fill-opacity="1" /><path clip-path="url(#clip780)" d="M62.4919 497.896 Q58.8808 497.896 57.0521 501.461 Q55.2465 505.002 55.2465 512.132 Q55.2465 519.238 57.0521 522.803 Q58.8808 526.345 62.4919 526.345 Q66.1261 526.345 67.9317 522.803 Q69.7604 519.238 69.7604 512.132 Q69.7604 505.002 67.9317 501.461 Q66.1261 497.896 62.4919 497.896 M62.4919 494.192 Q68.302 494.192 71.3576 498.799 Q74.4363 503.382 74.4363 512.132 Q74.4363 520.859 71.3576 525.465 Q68.302 530.049 62.4919 530.049 Q56.6817 530.049 53.603 525.465 Q50.5475 520.859 50.5475 512.132 Q50.5475 503.382 53.603 498.799 Q56.6817 494.192 62.4919 494.192 Z" fill="#000000" fill-rule="evenodd" fill-opacity="1" /><path clip-path="url(#clip780)" d="M82.6538 523.498 L87.538 523.498 L87.538 529.377 L82.6538 529.377 L82.6538 523.498 Z" fill="#000000" fill-rule="evenodd" fill-opacity="1" /><path clip-path="url(#clip780)" d="M96.5426 494.817 L118.765 494.817 L118.765 496.808 L106.218 529.377 L101.334 529.377 L113.14 498.752 L96.5426 498.752 L96.5426 494.817 Z" fill="#000000" fill-rule="evenodd" fill-opacity="1" /><path clip-path="url(#clip780)" d="M127.931 494.817 L146.288 494.817 L146.288 498.752 L132.214 498.752 L132.214 507.225 Q133.232 506.877 134.251 506.715 Q135.269 506.53 136.288 506.53 Q142.075 506.53 145.454 509.701 Q148.834 512.873 148.834 518.289 Q148.834 523.868 145.362 526.97 Q141.89 530.049 135.57 530.049 Q133.394 530.049 131.126 529.678 Q128.88 529.308 126.473 528.567 L126.473 523.868 Q128.556 525.002 130.779 525.558 Q133.001 526.113 135.478 526.113 Q139.482 526.113 141.82 524.007 Q144.158 521.9 144.158 518.289 Q144.158 514.678 141.82 512.572 Q139.482 510.465 135.478 510.465 Q133.603 510.465 131.728 510.882 Q129.876 511.299 127.931 512.178 L127.931 494.817 Z" fill="#000000" fill-rule="evenodd" fill-opacity="1" /><path clip-path="url(#clip780)" d="M52.3067 108.575 L59.9456 108.575 L59.9456 82.2096 L51.6354 83.8762 L51.6354 79.617 L59.8993 77.9503 L64.5752 77.9503 L64.5752 108.575 L72.214 108.575 L72.214 112.51 L52.3067 112.51 L52.3067 108.575 Z" fill="#000000" fill-rule="evenodd" fill-opacity="1" /><path clip-path="url(#clip780)" d="M81.6584 106.631 L86.5427 106.631 L86.5427 112.51 L81.6584 112.51 L81.6584 106.631 Z" fill="#000000" fill-rule="evenodd" fill-opacity="1" /><path clip-path="url(#clip780)" d="M106.728 81.029 Q103.117 81.029 101.288 84.5938 Q99.4824 88.1355 99.4824 95.2651 Q99.4824 102.372 101.288 105.936 Q103.117 109.478 106.728 109.478 Q110.362 109.478 112.168 105.936 Q113.996 102.372 113.996 95.2651 Q113.996 88.1355 112.168 84.5938 Q110.362 81.029 106.728 81.029 M106.728 77.3253 Q112.538 77.3253 115.593 81.9318 Q118.672 86.5151 118.672 95.2651 Q118.672 103.992 115.593 108.598 Q112.538 113.182 106.728 113.182 Q100.918 113.182 97.8389 108.598 Q94.7834 103.992 94.7834 95.2651 Q94.7834 86.5151 97.8389 81.9318 Q100.918 77.3253 106.728 77.3253 Z" fill="#000000" fill-rule="evenodd" fill-opacity="1" /><path clip-path="url(#clip780)" d="M136.89 81.029 Q133.279 81.029 131.45 84.5938 Q129.644 88.1355 129.644 95.2651 Q129.644 102.372 131.45 105.936 Q133.279 109.478 136.89 109.478 Q140.524 109.478 142.329 105.936 Q144.158 102.372 144.158 95.2651 Q144.158 88.1355 142.329 84.5938 Q140.524 81.029 136.89 81.029 M136.89 77.3253 Q142.7 77.3253 145.755 81.9318 Q148.834 86.5151 148.834 95.2651 Q148.834 103.992 145.755 108.598 Q142.7 113.182 136.89 113.182 Q131.079 113.182 128.001 108.598 Q124.945 103.992 124.945 95.2651 Q124.945 86.5151 128.001 81.9318 Q131.079 77.3253 136.89 77.3253 Z" fill="#000000" fill-rule="evenodd" fill-opacity="1" /><polyline clip-path="url(#clip782)" style="stroke:#009af9; stroke-linecap:butt; stroke-linejoin:round; stroke-width:4; stroke-opacity:1; fill:none" points="
  2141.25,1621.09 1384.8,984.798 1458.2,1273.04 2389.25,813.984 965.687,1571.57 2058.11,352.751 1465.41,1306 1823.22,363.521 715.078,1287.77 520.426,1573.7 
  1661.12,132.924 2383.53,1561.9 2173.37,172.484 1691.63,1677.27 880.303,1185.65 1351.6,1150.5 812.968,212.606 749.429,1314.27 726.682,978.923 757.387,991.204 
  1018.45,1718.55 936.773,1148.7 2023.22,1012.93 263.034,296.561 935.446,1381.43 1784.75,1003.25 2297.89,1361.97 1428.46,967.527 2139.58,1182.7 548.608,181.995 
  2288.07,100.348 453.416,341.16 1377.69,245.125 1277.57,234.343 360.563,351.497 1235.98,266.927 1197.68,936.455 1965.91,1701.96 2307.02,975.652 379.572,96.8724 
  271.787,1456.97 1920.56,276.098 1350.99,1518.67 1566.81,626.093 2233.97,1751.15 2421.5,794.231 1004.86,1067.91 703.997,1255.87 990.7,1609.51 1326.71,327.68 
  2266.7,498.887 1730.48,584.165 1484.83,840.473 1354.85,356.18 2313.59,644.353 1207.01,1134.32 2296.27,1369.85 2541.5,225.986 1027.56,307.031 1880.35,1736.89 
  548.769,1605.74 1024.82,768.868 770.216,208.015 2527.64,225.206 1427.01,891.206 2449.11,486.224 832.959,467.108 2482.75,1510.81 988.472,1678.61 1097.99,211.992 
  2545.77,1118.18 572.399,304.719 1350.29,176.513 363.735,475.587 1566.65,965.201 524.052,1595.74 826.037,253.164 740.757,856.829 2571.37,114.412 1768.93,1344.88 
  1760.24,991.841 2003.52,1701.16 458.584,1046.82 694.663,1034.39 2086.66,1300.5 1106.15,562.946 258.539,551.564 2442.63,1330.99 2348.22,840.548 1108.13,696.013 
  2357.4,536.423 690.223,142.897 1379.99,658.405 1380.89,1517.04 297.532,330.375 851.605,1661.59 1191.66,441.058 1310.15,1341.7 1193.6,567.681 2338.57,290.356 
  
  "/>
<path clip-path="url(#clip780)" d="
M270.874 1742.33 L568.465 1742.33 L568.465 1638.65 L270.874 1638.65  Z
  " fill="#ffffff" fill-rule="evenodd" fill-opacity="1"/>
<polyline clip-path="url(#clip780)" style="stroke:#000000; stroke-linecap:butt; stroke-linejoin:round; stroke-width:4; stroke-opacity:1; fill:none" points="
  270.874,1742.33 568.465,1742.33 568.465,1638.65 270.874,1638.65 270.874,1742.33 
  "/>
<polyline clip-path="url(#clip780)" style="stroke:#009af9; stroke-linecap:butt; stroke-linejoin:round; stroke-width:4; stroke-opacity:1; fill:none" points="
  298.114,1690.49 461.554,1690.49 
  "/>
<path clip-path="url(#clip780)" d="M502.637 1710.18 Q500.831 1714.81 499.118 1716.22 Q497.405 1717.63 494.535 1717.63 L491.132 1717.63 L491.132 1714.06 L493.632 1714.06 Q495.391 1714.06 496.364 1713.23 Q497.336 1712.4 498.516 1709.3 L499.28 1707.35 L488.794 1681.84 L493.308 1681.84 L501.41 1702.12 L509.512 1681.84 L514.026 1681.84 L502.637 1710.18 Z" fill="#000000" fill-rule="evenodd" fill-opacity="1" /><path clip-path="url(#clip780)" d="M521.317 1703.83 L528.956 1703.83 L528.956 1677.47 L520.646 1679.13 L520.646 1674.87 L528.91 1673.21 L533.586 1673.21 L533.586 1703.83 L541.225 1703.83 L541.225 1707.77 L521.317 1707.77 L521.317 1703.83 Z" fill="#000000" fill-rule="evenodd" fill-opacity="1" /></svg>
