<?xml version="1.0" encoding="utf-8"?>
<svg xmlns="http://www.w3.org/2000/svg" xmlns:xlink="http://www.w3.org/1999/xlink" width="672" height="480" viewBox="0 0 2688 1920">
<defs>
  <clipPath id="clip160">
    <rect x="0" y="0" width="2688" height="1920"/>
  </clipPath>
</defs>
<path clip-path="url(#clip160)" d="
M0 1920 L2688 1920 L2688 0 L0 0  Z
  " fill="#ffffff" fill-rule="evenodd" fill-opacity="1"/>
<defs>
  <clipPath id="clip161">
    <rect x="537" y="0" width="1883" height="1883"/>
  </clipPath>
</defs>
<path clip-path="url(#clip160)" d="
M159.478 1800.78 L2640.76 1800.78 L2640.76 47.2441 L159.478 47.2441  Z
  " fill="#ffffff" fill-rule="evenodd" fill-opacity="1"/>
<defs>
  <clipPath id="clip162">
    <rect x="159" y="47" width="2482" height="1755"/>
  </clipPath>
</defs>
<polyline clip-path="url(#clip162)" style="stroke:#000000; stroke-linecap:butt; stroke-linejoin:round; stroke-width:2; stroke-opacity:0.1; fill:none" points="
  223.835,1800.78 223.835,47.2441 
  "/>
<polyline clip-path="url(#clip162)" style="stroke:#000000; stroke-linecap:butt; stroke-linejoin:round; stroke-width:2; stroke-opacity:0.1; fill:none" points="
  824.184,1800.78 824.184,47.2441 
  "/>
<polyline clip-path="url(#clip162)" style="stroke:#000000; stroke-linecap:butt; stroke-linejoin:round; stroke-width:2; stroke-opacity:0.1; fill:none" points="
  1424.53,1800.78 1424.53,47.2441 
  "/>
<polyline clip-path="url(#clip162)" style="stroke:#000000; stroke-linecap:butt; stroke-linejoin:round; stroke-width:2; stroke-opacity:0.1; fill:none" points="
  2024.88,1800.78 2024.88,47.2441 
  "/>
<polyline clip-path="url(#clip162)" style="stroke:#000000; stroke-linecap:butt; stroke-linejoin:round; stroke-width:2; stroke-opacity:0.1; fill:none" points="
  2625.23,1800.78 2625.23,47.2441 
  "/>
<polyline clip-path="url(#clip160)" style="stroke:#000000; stroke-linecap:butt; stroke-linejoin:round; stroke-width:4; stroke-opacity:1; fill:none" points="
  159.478,1800.78 2640.76,1800.78 
  "/>
<polyline clip-path="url(#clip160)" style="stroke:#000000; stroke-linecap:butt; stroke-linejoin:round; stroke-width:4; stroke-opacity:1; fill:none" points="
  223.835,1800.78 223.835,1781.88 
  "/>
<polyline clip-path="url(#clip160)" style="stroke:#000000; stroke-linecap:butt; stroke-linejoin:round; stroke-width:4; stroke-opacity:1; fill:none" points="
  824.184,1800.78 824.184,1781.88 
  "/>
<polyline clip-path="url(#clip160)" style="stroke:#000000; stroke-linecap:butt; stroke-linejoin:round; stroke-width:4; stroke-opacity:1; fill:none" points="
  1424.53,1800.78 1424.53,1781.88 
  "/>
<polyline clip-path="url(#clip160)" style="stroke:#000000; stroke-linecap:butt; stroke-linejoin:round; stroke-width:4; stroke-opacity:1; fill:none" points="
  2024.88,1800.78 2024.88,1781.88 
  "/>
<polyline clip-path="url(#clip160)" style="stroke:#000000; stroke-linecap:butt; stroke-linejoin:round; stroke-width:4; stroke-opacity:1; fill:none" points="
  2625.23,1800.78 2625.23,1781.88 
  "/>
<path clip-path="url(#clip160)" d="M186.138 1834 Q182.527 1834 180.699 1837.57 Q178.893 1841.11 178.893 1848.24 Q178.893 1855.34 180.699 1858.91 Q182.527 1862.45 186.138 1862.45 Q189.773 1862.45 191.578 1858.91 Q193.407 1855.34 193.407 1848.24 Q193.407 1841.11 191.578 1837.57 Q189.773 1834 186.138 1834 M186.138 1830.3 Q191.948 1830.3 195.004 1834.9 Q198.083 1839.49 198.083 1848.24 Q198.083 1856.96 195.004 1861.57 Q191.948 1866.15 186.138 1866.15 Q180.328 1866.15 177.249 1861.57 Q174.194 1856.96 174.194 1848.24 Q174.194 1839.49 177.249 1834.9 Q180.328 1830.3 186.138 1830.3 Z" fill="#000000" fill-rule="evenodd" fill-opacity="1" /><path clip-path="url(#clip160)" d="M206.3 1859.6 L211.184 1859.6 L211.184 1865.48 L206.3 1865.48 L206.3 1859.6 Z" fill="#000000" fill-rule="evenodd" fill-opacity="1" /><path clip-path="url(#clip160)" d="M231.37 1834 Q227.758 1834 225.93 1837.57 Q224.124 1841.11 224.124 1848.24 Q224.124 1855.34 225.93 1858.91 Q227.758 1862.45 231.37 1862.45 Q235.004 1862.45 236.809 1858.91 Q238.638 1855.34 238.638 1848.24 Q238.638 1841.11 236.809 1837.57 Q235.004 1834 231.37 1834 M231.37 1830.3 Q237.18 1830.3 240.235 1834.9 Q243.314 1839.49 243.314 1848.24 Q243.314 1856.96 240.235 1861.57 Q237.18 1866.15 231.37 1866.15 Q225.559 1866.15 222.481 1861.57 Q219.425 1856.96 219.425 1848.24 Q219.425 1839.49 222.481 1834.9 Q225.559 1830.3 231.37 1830.3 Z" fill="#000000" fill-rule="evenodd" fill-opacity="1" /><path clip-path="url(#clip160)" d="M261.531 1834 Q257.92 1834 256.092 1837.57 Q254.286 1841.11 254.286 1848.24 Q254.286 1855.34 256.092 1858.91 Q257.92 1862.45 261.531 1862.45 Q265.166 1862.45 266.971 1858.91 Q268.8 1855.34 268.8 1848.24 Q268.8 1841.11 266.971 1837.57 Q265.166 1834 261.531 1834 M261.531 1830.3 Q267.342 1830.3 270.397 1834.9 Q273.476 1839.49 273.476 1848.24 Q273.476 1856.96 270.397 1861.57 Q267.342 1866.15 261.531 1866.15 Q255.721 1866.15 252.643 1861.57 Q249.587 1856.96 249.587 1848.24 Q249.587 1839.49 252.643 1834.9 Q255.721 1830.3 261.531 1830.3 Z" fill="#000000" fill-rule="evenodd" fill-opacity="1" /><path clip-path="url(#clip160)" d="M786.985 1834 Q783.374 1834 781.545 1837.57 Q779.739 1841.11 779.739 1848.24 Q779.739 1855.34 781.545 1858.91 Q783.374 1862.45 786.985 1862.45 Q790.619 1862.45 792.424 1858.91 Q794.253 1855.34 794.253 1848.24 Q794.253 1841.11 792.424 1837.57 Q790.619 1834 786.985 1834 M786.985 1830.3 Q792.795 1830.3 795.85 1834.9 Q798.929 1839.49 798.929 1848.24 Q798.929 1856.96 795.85 1861.57 Q792.795 1866.15 786.985 1866.15 Q781.175 1866.15 778.096 1861.57 Q775.04 1856.96 775.04 1848.24 Q775.04 1839.49 778.096 1834.9 Q781.175 1830.3 786.985 1830.3 Z" fill="#000000" fill-rule="evenodd" fill-opacity="1" /><path clip-path="url(#clip160)" d="M807.147 1859.6 L812.031 1859.6 L812.031 1865.48 L807.147 1865.48 L807.147 1859.6 Z" fill="#000000" fill-rule="evenodd" fill-opacity="1" /><path clip-path="url(#clip160)" d="M826.244 1861.55 L842.563 1861.55 L842.563 1865.48 L820.619 1865.48 L820.619 1861.55 Q823.281 1858.79 827.864 1854.16 Q832.471 1849.51 833.651 1848.17 Q835.896 1845.65 836.776 1843.91 Q837.679 1842.15 837.679 1840.46 Q837.679 1837.71 835.734 1835.97 Q833.813 1834.23 830.711 1834.23 Q828.512 1834.23 826.059 1835 Q823.628 1835.76 820.85 1837.31 L820.85 1832.59 Q823.674 1831.46 826.128 1830.88 Q828.582 1830.3 830.619 1830.3 Q835.989 1830.3 839.183 1832.98 Q842.378 1835.67 842.378 1840.16 Q842.378 1842.29 841.568 1844.21 Q840.781 1846.11 838.674 1848.7 Q838.096 1849.37 834.994 1852.59 Q831.892 1855.78 826.244 1861.55 Z" fill="#000000" fill-rule="evenodd" fill-opacity="1" /><path clip-path="url(#clip160)" d="M852.424 1830.92 L870.781 1830.92 L870.781 1834.86 L856.707 1834.86 L856.707 1843.33 Q857.725 1842.98 858.744 1842.82 Q859.762 1842.64 860.781 1842.64 Q866.568 1842.64 869.947 1845.81 Q873.327 1848.98 873.327 1854.4 Q873.327 1859.97 869.855 1863.08 Q866.382 1866.15 860.063 1866.15 Q857.887 1866.15 855.619 1865.78 Q853.373 1865.41 850.966 1864.67 L850.966 1859.97 Q853.049 1861.11 855.271 1861.66 Q857.494 1862.22 859.97 1862.22 Q863.975 1862.22 866.313 1860.11 Q868.651 1858.01 868.651 1854.4 Q868.651 1850.78 866.313 1848.68 Q863.975 1846.57 859.97 1846.57 Q858.095 1846.57 856.22 1846.99 Q854.369 1847.4 852.424 1848.28 L852.424 1830.92 Z" fill="#000000" fill-rule="evenodd" fill-opacity="1" /><path clip-path="url(#clip160)" d="M1386.84 1834 Q1383.22 1834 1381.4 1837.57 Q1379.59 1841.11 1379.59 1848.24 Q1379.59 1855.34 1381.4 1858.91 Q1383.22 1862.45 1386.84 1862.45 Q1390.47 1862.45 1392.28 1858.91 Q1394.1 1855.34 1394.1 1848.24 Q1394.1 1841.11 1392.28 1837.57 Q1390.47 1834 1386.84 1834 M1386.84 1830.3 Q1392.65 1830.3 1395.7 1834.9 Q1398.78 1839.49 1398.78 1848.24 Q1398.78 1856.96 1395.7 1861.57 Q1392.65 1866.15 1386.84 1866.15 Q1381.03 1866.15 1377.95 1861.57 Q1374.89 1856.96 1374.89 1848.24 Q1374.89 1839.49 1377.95 1834.9 Q1381.03 1830.3 1386.84 1830.3 Z" fill="#000000" fill-rule="evenodd" fill-opacity="1" /><path clip-path="url(#clip160)" d="M1407 1859.6 L1411.88 1859.6 L1411.88 1865.48 L1407 1865.48 L1407 1859.6 Z" fill="#000000" fill-rule="evenodd" fill-opacity="1" /><path clip-path="url(#clip160)" d="M1422.11 1830.92 L1440.47 1830.92 L1440.47 1834.86 L1426.4 1834.86 L1426.4 1843.33 Q1427.41 1842.98 1428.43 1842.82 Q1429.45 1842.64 1430.47 1842.64 Q1436.26 1842.64 1439.64 1845.81 Q1443.02 1848.98 1443.02 1854.4 Q1443.02 1859.97 1439.54 1863.08 Q1436.07 1866.15 1429.75 1866.15 Q1427.58 1866.15 1425.31 1865.78 Q1423.06 1865.41 1420.65 1864.67 L1420.65 1859.97 Q1422.74 1861.11 1424.96 1861.66 Q1427.18 1862.22 1429.66 1862.22 Q1433.66 1862.22 1436 1860.11 Q1438.34 1858.01 1438.34 1854.4 Q1438.34 1850.78 1436 1848.68 Q1433.66 1846.57 1429.66 1846.57 Q1427.78 1846.57 1425.91 1846.99 Q1424.06 1847.4 1422.11 1848.28 L1422.11 1830.92 Z" fill="#000000" fill-rule="evenodd" fill-opacity="1" /><path clip-path="url(#clip160)" d="M1462.23 1834 Q1458.62 1834 1456.79 1837.57 Q1454.98 1841.11 1454.98 1848.24 Q1454.98 1855.34 1456.79 1858.91 Q1458.62 1862.45 1462.23 1862.45 Q1465.86 1862.45 1467.67 1858.91 Q1469.5 1855.34 1469.5 1848.24 Q1469.5 1841.11 1467.67 1837.57 Q1465.86 1834 1462.23 1834 M1462.23 1830.3 Q1468.04 1830.3 1471.09 1834.9 Q1474.17 1839.49 1474.17 1848.24 Q1474.17 1856.96 1471.09 1861.57 Q1468.04 1866.15 1462.23 1866.15 Q1456.42 1866.15 1453.34 1861.57 Q1450.28 1856.96 1450.28 1848.24 Q1450.28 1839.49 1453.34 1834.9 Q1456.42 1830.3 1462.23 1830.3 Z" fill="#000000" fill-rule="evenodd" fill-opacity="1" /><path clip-path="url(#clip160)" d="M1987.68 1834 Q1984.07 1834 1982.24 1837.57 Q1980.44 1841.11 1980.44 1848.24 Q1980.44 1855.34 1982.24 1858.91 Q1984.07 1862.45 1987.68 1862.45 Q1991.32 1862.45 1993.12 1858.91 Q1994.95 1855.34 1994.95 1848.24 Q1994.95 1841.11 1993.12 1837.57 Q1991.32 1834 1987.68 1834 M1987.68 1830.3 Q1993.49 1830.3 1996.55 1834.9 Q1999.63 1839.49 1999.63 1848.24 Q1999.63 1856.96 1996.55 1861.57 Q1993.49 1866.15 1987.68 1866.15 Q1981.87 1866.15 1978.79 1861.57 Q1975.74 1856.96 1975.74 1848.24 Q1975.74 1839.49 1978.79 1834.9 Q1981.87 1830.3 1987.68 1830.3 Z" fill="#000000" fill-rule="evenodd" fill-opacity="1" /><path clip-path="url(#clip160)" d="M2007.84 1859.6 L2012.73 1859.6 L2012.73 1865.48 L2007.84 1865.48 L2007.84 1859.6 Z" fill="#000000" fill-rule="evenodd" fill-opacity="1" /><path clip-path="url(#clip160)" d="M2021.73 1830.92 L2043.95 1830.92 L2043.95 1832.91 L2031.41 1865.48 L2026.52 1865.48 L2038.33 1834.86 L2021.73 1834.86 L2021.73 1830.92 Z" fill="#000000" fill-rule="evenodd" fill-opacity="1" /><path clip-path="url(#clip160)" d="M2053.12 1830.92 L2071.48 1830.92 L2071.48 1834.86 L2057.4 1834.86 L2057.4 1843.33 Q2058.42 1842.98 2059.44 1842.82 Q2060.46 1842.64 2061.48 1842.64 Q2067.26 1842.64 2070.64 1845.81 Q2074.02 1848.98 2074.02 1854.4 Q2074.02 1859.97 2070.55 1863.08 Q2067.08 1866.15 2060.76 1866.15 Q2058.58 1866.15 2056.32 1865.78 Q2054.07 1865.41 2051.66 1864.67 L2051.66 1859.97 Q2053.75 1861.11 2055.97 1861.66 Q2058.19 1862.22 2060.67 1862.22 Q2064.67 1862.22 2067.01 1860.11 Q2069.35 1858.01 2069.35 1854.4 Q2069.35 1850.78 2067.01 1848.68 Q2064.67 1846.57 2060.67 1846.57 Q2058.79 1846.57 2056.92 1846.99 Q2055.07 1847.4 2053.12 1848.28 L2053.12 1830.92 Z" fill="#000000" fill-rule="evenodd" fill-opacity="1" /><path clip-path="url(#clip160)" d="M2577.3 1861.55 L2584.94 1861.55 L2584.94 1835.18 L2576.63 1836.85 L2576.63 1832.59 L2584.89 1830.92 L2589.57 1830.92 L2589.57 1861.55 L2597.21 1861.55 L2597.21 1865.48 L2577.3 1865.48 L2577.3 1861.55 Z" fill="#000000" fill-rule="evenodd" fill-opacity="1" /><path clip-path="url(#clip160)" d="M2606.65 1859.6 L2611.54 1859.6 L2611.54 1865.48 L2606.65 1865.48 L2606.65 1859.6 Z" fill="#000000" fill-rule="evenodd" fill-opacity="1" /><path clip-path="url(#clip160)" d="M2631.72 1834 Q2628.11 1834 2626.28 1837.57 Q2624.48 1841.11 2624.48 1848.24 Q2624.48 1855.34 2626.28 1858.91 Q2628.11 1862.45 2631.72 1862.45 Q2635.36 1862.45 2637.16 1858.91 Q2638.99 1855.34 2638.99 1848.24 Q2638.99 1841.11 2637.16 1837.57 Q2635.36 1834 2631.72 1834 M2631.72 1830.3 Q2637.53 1830.3 2640.59 1834.9 Q2643.67 1839.49 2643.67 1848.24 Q2643.67 1856.96 2640.59 1861.57 Q2637.53 1866.15 2631.72 1866.15 Q2625.91 1866.15 2622.83 1861.57 Q2619.78 1856.96 2619.78 1848.24 Q2619.78 1839.49 2622.83 1834.9 Q2625.91 1830.3 2631.72 1830.3 Z" fill="#000000" fill-rule="evenodd" fill-opacity="1" /><path clip-path="url(#clip160)" d="M2661.88 1834 Q2658.27 1834 2656.44 1837.57 Q2654.64 1841.11 2654.64 1848.24 Q2654.64 1855.34 2656.44 1858.91 Q2658.27 1862.45 2661.88 1862.45 Q2665.52 1862.45 2667.32 1858.91 Q2669.15 1855.34 2669.15 1848.24 Q2669.15 1841.11 2667.32 1837.57 Q2665.52 1834 2661.88 1834 M2661.88 1830.3 Q2667.69 1830.3 2670.75 1834.9 Q2673.83 1839.49 2673.83 1848.24 Q2673.83 1856.96 2670.75 1861.57 Q2667.69 1866.15 2661.88 1866.15 Q2656.07 1866.15 2653 1861.57 Q2649.94 1856.96 2649.94 1848.24 Q2649.94 1839.49 2653 1834.9 Q2656.07 1830.3 2661.88 1830.3 Z" fill="#000000" fill-rule="evenodd" fill-opacity="1" /><polyline clip-path="url(#clip162)" style="stroke:#000000; stroke-linecap:butt; stroke-linejoin:round; stroke-width:2; stroke-opacity:0.1; fill:none" points="
  159.478,1759.86 2640.76,1759.86 
  "/>
<polyline clip-path="url(#clip162)" style="stroke:#000000; stroke-linecap:butt; stroke-linejoin:round; stroke-width:2; stroke-opacity:0.1; fill:none" points="
  159.478,1413.14 2640.76,1413.14 
  "/>
<polyline clip-path="url(#clip162)" style="stroke:#000000; stroke-linecap:butt; stroke-linejoin:round; stroke-width:2; stroke-opacity:0.1; fill:none" points="
  159.478,1066.42 2640.76,1066.42 
  "/>
<polyline clip-path="url(#clip162)" style="stroke:#000000; stroke-linecap:butt; stroke-linejoin:round; stroke-width:2; stroke-opacity:0.1; fill:none" points="
  159.478,719.698 2640.76,719.698 
  "/>
<polyline clip-path="url(#clip162)" style="stroke:#000000; stroke-linecap:butt; stroke-linejoin:round; stroke-width:2; stroke-opacity:0.1; fill:none" points="
  159.478,372.978 2640.76,372.978 
  "/>
<polyline clip-path="url(#clip160)" style="stroke:#000000; stroke-linecap:butt; stroke-linejoin:round; stroke-width:4; stroke-opacity:1; fill:none" points="
  159.478,1800.78 159.478,47.2441 
  "/>
<polyline clip-path="url(#clip160)" style="stroke:#000000; stroke-linecap:butt; stroke-linejoin:round; stroke-width:4; stroke-opacity:1; fill:none" points="
  159.478,1759.86 178.376,1759.86 
  "/>
<polyline clip-path="url(#clip160)" style="stroke:#000000; stroke-linecap:butt; stroke-linejoin:round; stroke-width:4; stroke-opacity:1; fill:none" points="
  159.478,1413.14 178.376,1413.14 
  "/>
<polyline clip-path="url(#clip160)" style="stroke:#000000; stroke-linecap:butt; stroke-linejoin:round; stroke-width:4; stroke-opacity:1; fill:none" points="
  159.478,1066.42 178.376,1066.42 
  "/>
<polyline clip-path="url(#clip160)" style="stroke:#000000; stroke-linecap:butt; stroke-linejoin:round; stroke-width:4; stroke-opacity:1; fill:none" points="
  159.478,719.698 178.376,719.698 
  "/>
<polyline clip-path="url(#clip160)" style="stroke:#000000; stroke-linecap:butt; stroke-linejoin:round; stroke-width:4; stroke-opacity:1; fill:none" points="
  159.478,372.978 178.376,372.978 
  "/>
<path clip-path="url(#clip160)" d="M61.9826 1745.66 Q58.3715 1745.66 56.5428 1749.22 Q54.7373 1752.76 54.7373 1759.89 Q54.7373 1767 56.5428 1770.56 Q58.3715 1774.11 61.9826 1774.11 Q65.6169 1774.11 67.4224 1770.56 Q69.2511 1767 69.2511 1759.89 Q69.2511 1752.76 67.4224 1749.22 Q65.6169 1745.66 61.9826 1745.66 M61.9826 1741.95 Q67.7928 1741.95 70.8483 1746.56 Q73.927 1751.14 73.927 1759.89 Q73.927 1768.62 70.8483 1773.23 Q67.7928 1777.81 61.9826 1777.81 Q56.1725 1777.81 53.0938 1773.23 Q50.0382 1768.62 50.0382 1759.89 Q50.0382 1751.14 53.0938 1746.56 Q56.1725 1741.95 61.9826 1741.95 Z" fill="#000000" fill-rule="evenodd" fill-opacity="1" /><path clip-path="url(#clip160)" d="M82.1445 1771.26 L87.0288 1771.26 L87.0288 1777.14 L82.1445 1777.14 L82.1445 1771.26 Z" fill="#000000" fill-rule="evenodd" fill-opacity="1" /><path clip-path="url(#clip160)" d="M107.214 1745.66 Q103.603 1745.66 101.774 1749.22 Q99.9685 1752.76 99.9685 1759.89 Q99.9685 1767 101.774 1770.56 Q103.603 1774.11 107.214 1774.11 Q110.848 1774.11 112.654 1770.56 Q114.482 1767 114.482 1759.89 Q114.482 1752.76 112.654 1749.22 Q110.848 1745.66 107.214 1745.66 M107.214 1741.95 Q113.024 1741.95 116.08 1746.56 Q119.158 1751.14 119.158 1759.89 Q119.158 1768.62 116.08 1773.23 Q113.024 1777.81 107.214 1777.81 Q101.404 1777.81 98.325 1773.23 Q95.2695 1768.62 95.2695 1759.89 Q95.2695 1751.14 98.325 1746.56 Q101.404 1741.95 107.214 1741.95 Z" fill="#000000" fill-rule="evenodd" fill-opacity="1" /><path clip-path="url(#clip160)" d="M63.5798 1398.94 Q59.9687 1398.94 58.14 1402.5 Q56.3345 1406.04 56.3345 1413.17 Q56.3345 1420.28 58.14 1423.84 Q59.9687 1427.39 63.5798 1427.39 Q67.2141 1427.39 69.0196 1423.84 Q70.8483 1420.28 70.8483 1413.17 Q70.8483 1406.04 69.0196 1402.5 Q67.2141 1398.94 63.5798 1398.94 M63.5798 1395.23 Q69.39 1395.23 72.4455 1399.84 Q75.5242 1404.42 75.5242 1413.17 Q75.5242 1421.9 72.4455 1426.51 Q69.39 1431.09 63.5798 1431.09 Q57.7697 1431.09 54.691 1426.51 Q51.6354 1421.9 51.6354 1413.17 Q51.6354 1404.42 54.691 1399.84 Q57.7697 1395.23 63.5798 1395.23 Z" fill="#000000" fill-rule="evenodd" fill-opacity="1" /><path clip-path="url(#clip160)" d="M83.7418 1424.54 L88.626 1424.54 L88.626 1430.42 L83.7418 1430.42 L83.7418 1424.54 Z" fill="#000000" fill-rule="evenodd" fill-opacity="1" /><path clip-path="url(#clip160)" d="M102.839 1426.48 L119.158 1426.48 L119.158 1430.42 L97.2139 1430.42 L97.2139 1426.48 Q99.8759 1423.73 104.459 1419.1 Q109.066 1414.45 110.246 1413.1 Q112.492 1410.58 113.371 1408.84 Q114.274 1407.08 114.274 1405.39 Q114.274 1402.64 112.33 1400.9 Q110.408 1399.17 107.306 1399.17 Q105.107 1399.17 102.654 1399.93 Q100.223 1400.7 97.4454 1402.25 L97.4454 1397.52 Q100.269 1396.39 102.723 1395.81 Q105.177 1395.23 107.214 1395.23 Q112.584 1395.23 115.779 1397.92 Q118.973 1400.6 118.973 1405.09 Q118.973 1407.22 118.163 1409.14 Q117.376 1411.04 115.269 1413.64 Q114.691 1414.31 111.589 1417.52 Q108.487 1420.72 102.839 1426.48 Z" fill="#000000" fill-rule="evenodd" fill-opacity="1" /><path clip-path="url(#clip160)" d="M61.4965 1052.22 Q57.8854 1052.22 56.0567 1055.78 Q54.2512 1059.32 54.2512 1066.45 Q54.2512 1073.56 56.0567 1077.12 Q57.8854 1080.67 61.4965 1080.67 Q65.1307 1080.67 66.9363 1077.12 Q68.765 1073.56 68.765 1066.45 Q68.765 1059.32 66.9363 1055.78 Q65.1307 1052.22 61.4965 1052.22 M61.4965 1048.51 Q67.3067 1048.51 70.3622 1053.12 Q73.4409 1057.7 73.4409 1066.45 Q73.4409 1075.18 70.3622 1079.79 Q67.3067 1084.37 61.4965 1084.37 Q55.6864 1084.37 52.6077 1079.79 Q49.5521 1075.18 49.5521 1066.45 Q49.5521 1057.7 52.6077 1053.12 Q55.6864 1048.51 61.4965 1048.51 Z" fill="#000000" fill-rule="evenodd" fill-opacity="1" /><path clip-path="url(#clip160)" d="M81.6584 1077.82 L86.5427 1077.82 L86.5427 1083.7 L81.6584 1083.7 L81.6584 1077.82 Z" fill="#000000" fill-rule="evenodd" fill-opacity="1" /><path clip-path="url(#clip160)" d="M109.575 1053.21 L97.7695 1071.66 L109.575 1071.66 L109.575 1053.21 M108.348 1049.14 L114.228 1049.14 L114.228 1071.66 L119.158 1071.66 L119.158 1075.55 L114.228 1075.55 L114.228 1083.7 L109.575 1083.7 L109.575 1075.55 L93.9732 1075.55 L93.9732 1071.04 L108.348 1049.14 Z" fill="#000000" fill-rule="evenodd" fill-opacity="1" /><path clip-path="url(#clip160)" d="M61.8206 705.497 Q58.2095 705.497 56.3808 709.061 Q54.5752 712.603 54.5752 719.733 Q54.5752 726.839 56.3808 730.404 Q58.2095 733.945 61.8206 733.945 Q65.4548 733.945 67.2604 730.404 Q69.0891 726.839 69.0891 719.733 Q69.0891 712.603 67.2604 709.061 Q65.4548 705.497 61.8206 705.497 M61.8206 701.793 Q67.6307 701.793 70.6863 706.399 Q73.765 710.983 73.765 719.733 Q73.765 728.459 70.6863 733.066 Q67.6307 737.649 61.8206 737.649 Q56.0104 737.649 52.9317 733.066 Q49.8762 728.459 49.8762 719.733 Q49.8762 710.983 52.9317 706.399 Q56.0104 701.793 61.8206 701.793 Z" fill="#000000" fill-rule="evenodd" fill-opacity="1" /><path clip-path="url(#clip160)" d="M81.9825 731.098 L86.8667 731.098 L86.8667 736.978 L81.9825 736.978 L81.9825 731.098 Z" fill="#000000" fill-rule="evenodd" fill-opacity="1" /><path clip-path="url(#clip160)" d="M107.631 717.834 Q104.482 717.834 102.631 719.987 Q100.802 722.14 100.802 725.89 Q100.802 729.617 102.631 731.793 Q104.482 733.945 107.631 733.945 Q110.779 733.945 112.607 731.793 Q114.459 729.617 114.459 725.89 Q114.459 722.14 112.607 719.987 Q110.779 717.834 107.631 717.834 M116.913 703.182 L116.913 707.441 Q115.154 706.608 113.348 706.168 Q111.566 705.728 109.806 705.728 Q105.177 705.728 102.723 708.853 Q100.293 711.978 99.9454 718.297 Q101.311 716.284 103.371 715.219 Q105.431 714.131 107.908 714.131 Q113.117 714.131 116.126 717.302 Q119.158 720.45 119.158 725.89 Q119.158 731.214 116.01 734.432 Q112.862 737.649 107.631 737.649 Q101.635 737.649 98.4639 733.066 Q95.2926 728.459 95.2926 719.733 Q95.2926 711.538 99.1815 706.677 Q103.07 701.793 109.621 701.793 Q111.38 701.793 113.163 702.14 Q114.968 702.487 116.913 703.182 Z" fill="#000000" fill-rule="evenodd" fill-opacity="1" /><path clip-path="url(#clip160)" d="M62.0752 358.777 Q58.4641 358.777 56.6354 362.341 Q54.8299 365.883 54.8299 373.013 Q54.8299 380.119 56.6354 383.684 Q58.4641 387.226 62.0752 387.226 Q65.7094 387.226 67.515 383.684 Q69.3437 380.119 69.3437 373.013 Q69.3437 365.883 67.515 362.341 Q65.7094 358.777 62.0752 358.777 M62.0752 355.073 Q67.8854 355.073 70.9409 359.679 Q74.0196 364.263 74.0196 373.013 Q74.0196 381.739 70.9409 386.346 Q67.8854 390.929 62.0752 390.929 Q56.2651 390.929 53.1864 386.346 Q50.1308 381.739 50.1308 373.013 Q50.1308 364.263 53.1864 359.679 Q56.2651 355.073 62.0752 355.073 Z" fill="#000000" fill-rule="evenodd" fill-opacity="1" /><path clip-path="url(#clip160)" d="M82.2371 384.378 L87.1214 384.378 L87.1214 390.258 L82.2371 390.258 L82.2371 384.378 Z" fill="#000000" fill-rule="evenodd" fill-opacity="1" /><path clip-path="url(#clip160)" d="M107.306 373.846 Q103.973 373.846 102.052 375.628 Q100.154 377.411 100.154 380.536 Q100.154 383.661 102.052 385.443 Q103.973 387.226 107.306 387.226 Q110.64 387.226 112.561 385.443 Q114.482 383.638 114.482 380.536 Q114.482 377.411 112.561 375.628 Q110.663 373.846 107.306 373.846 M102.631 371.855 Q99.6213 371.115 97.9315 369.054 Q96.2648 366.994 96.2648 364.031 Q96.2648 359.888 99.2046 357.48 Q102.168 355.073 107.306 355.073 Q112.468 355.073 115.408 357.48 Q118.348 359.888 118.348 364.031 Q118.348 366.994 116.658 369.054 Q114.992 371.115 112.005 371.855 Q115.385 372.642 117.26 374.934 Q119.158 377.226 119.158 380.536 Q119.158 385.559 116.08 388.244 Q113.024 390.929 107.306 390.929 Q101.589 390.929 98.5102 388.244 Q95.4547 385.559 95.4547 380.536 Q95.4547 377.226 97.3528 374.934 Q99.2509 372.642 102.631 371.855 M100.918 364.471 Q100.918 367.156 102.584 368.661 Q104.274 370.165 107.306 370.165 Q110.316 370.165 112.005 368.661 Q113.718 367.156 113.718 364.471 Q113.718 361.786 112.005 360.281 Q110.316 358.777 107.306 358.777 Q104.274 358.777 102.584 360.281 Q100.918 361.786 100.918 364.471 Z" fill="#000000" fill-rule="evenodd" fill-opacity="1" /><polyline clip-path="url(#clip162)" style="stroke:#009af9; stroke-linecap:butt; stroke-linejoin:round; stroke-width:4; stroke-opacity:1; fill:none" points="
  1664.56,148.202 1855.05,1493.82 1031.79,788.704 631.621,1317.51 1780.25,408.202 758.665,867.096 1314.42,598.969 1357.96,584.629 864.937,1157.07 332.696,496.857 
  305.21,1209.9 1511.44,457.658 744.805,1058.56 1573.64,1166.9 414.56,169.764 2522.58,121.687 560.571,780.225 229.703,1320.8 627.605,1655.51 968.461,1462.12 
  2365.8,1710.19 2055.2,1473.59 2296.03,333.959 2154.99,1103.3 1151.13,1177.16 2418.69,413.774 712.952,446.787 1748.23,1033.5 2030.02,1097.8 1994.06,1207.31 
  530.37,374.845 1099.63,1313.45 2299.81,371.716 377.22,1475.83 377.572,1697.56 1716.57,99.9097 1331.75,1159.54 1814.06,242.3 259.468,558.597 2132.25,122.198 
  2278.64,1515.27 2105.97,1674.77 1722.34,1676.45 1108.27,166.903 1621.31,634.751 1127.9,1751.15 2565.01,771.979 717.923,1360.04 1758.62,430.863 2459.77,1321.4 
  564.598,245.239 400.5,528.81 1353.25,1517.64 1146.03,133.689 2008.98,1538.72 1569.6,751.773 864.678,1016.8 2570.53,1244.4 2177.04,763.8 2330.56,896.567 
  1852.69,729.253 503.548,1616.36 1665.42,149.884 1972.47,1438.04 2435.23,96.8724 1118.64,171.515 792.674,1148.09 1192.48,704.127 669.573,726.08 2565.42,916.46 
  2309.95,1479.84 840.836,177.523 1026.45,1389.55 1276.36,1037.74 1285.05,1102.29 404.857,1431.21 2428.76,147.368 1812.31,1215.09 575.01,377.135 2338.82,805.099 
  2420.49,918.703 2568.98,1653.52 1619.07,578.862 971.078,189.737 976.083,436.689 1745.23,1493.53 947.502,1325.77 1960.72,188.231 2458.05,781.665 987.317,571.244 
  920.887,1017.14 871.384,672.745 1961.12,1220.11 2539.93,228.785 372.169,1633.98 881.651,198.879 2183.02,159.762 1523.45,1227.03 840.673,1385.49 612.212,1373.1 
  
  "/>
<path clip-path="url(#clip160)" d="
M242.187 209.375 L542.746 209.375 L542.746 105.695 L242.187 105.695  Z
  " fill="#ffffff" fill-rule="evenodd" fill-opacity="1"/>
<polyline clip-path="url(#clip160)" style="stroke:#000000; stroke-linecap:butt; stroke-linejoin:round; stroke-width:4; stroke-opacity:1; fill:none" points="
  242.187,209.375 542.746,209.375 542.746,105.695 242.187,105.695 242.187,209.375 
  "/>
<polyline clip-path="url(#clip160)" style="stroke:#009af9; stroke-linecap:butt; stroke-linejoin:round; stroke-width:4; stroke-opacity:1; fill:none" points="
  269.757,157.535 435.176,157.535 
  "/>
<path clip-path="url(#clip160)" d="M476.588 177.223 Q474.782 181.852 473.07 183.264 Q471.357 184.676 468.486 184.676 L465.083 184.676 L465.083 181.112 L467.583 181.112 Q469.343 181.112 470.315 180.278 Q471.287 179.445 472.468 176.343 L473.232 174.399 L462.746 148.889 L467.259 148.889 L475.361 169.167 L483.463 148.889 L487.977 148.889 L476.588 177.223 Z" fill="#000000" fill-rule="evenodd" fill-opacity="1" /><path clip-path="url(#clip160)" d="M495.268 170.88 L502.907 170.88 L502.907 144.515 L494.597 146.181 L494.597 141.922 L502.861 140.255 L507.537 140.255 L507.537 170.88 L515.176 170.88 L515.176 174.815 L495.268 174.815 L495.268 170.88 Z" fill="#000000" fill-rule="evenodd" fill-opacity="1" /></svg>
