<?xml version="1.0" encoding="utf-8"?>
<svg xmlns="http://www.w3.org/2000/svg" xmlns:xlink="http://www.w3.org/1999/xlink" width="672" height="480" viewBox="0 0 2688 1920">
<defs>
  <clipPath id="clip990">
    <rect x="0" y="0" width="2688" height="1920"/>
  </clipPath>
</defs>
<path clip-path="url(#clip990)" d="
M0 1920 L2688 1920 L2688 0 L0 0  Z
  " fill="#ffffff" fill-rule="evenodd" fill-opacity="1"/>
<defs>
  <clipPath id="clip991">
    <rect x="537" y="0" width="1883" height="1883"/>
  </clipPath>
</defs>
<path clip-path="url(#clip990)" d="
M159.478 1800.78 L2640.76 1800.78 L2640.76 47.2441 L159.478 47.2441  Z
  " fill="#ffffff" fill-rule="evenodd" fill-opacity="1"/>
<defs>
  <clipPath id="clip992">
    <rect x="159" y="47" width="2482" height="1755"/>
  </clipPath>
</defs>
<polyline clip-path="url(#clip992)" style="stroke:#000000; stroke-linecap:butt; stroke-linejoin:round; stroke-width:2; stroke-opacity:0.1; fill:none" points="
  222.757,1800.78 222.757,47.2441 
  "/>
<polyline clip-path="url(#clip992)" style="stroke:#000000; stroke-linecap:butt; stroke-linejoin:round; stroke-width:2; stroke-opacity:0.1; fill:none" points="
  819.226,1800.78 819.226,47.2441 
  "/>
<polyline clip-path="url(#clip992)" style="stroke:#000000; stroke-linecap:butt; stroke-linejoin:round; stroke-width:2; stroke-opacity:0.1; fill:none" points="
  1415.7,1800.78 1415.7,47.2441 
  "/>
<polyline clip-path="url(#clip992)" style="stroke:#000000; stroke-linecap:butt; stroke-linejoin:round; stroke-width:2; stroke-opacity:0.1; fill:none" points="
  2012.17,1800.78 2012.17,47.2441 
  "/>
<polyline clip-path="url(#clip992)" style="stroke:#000000; stroke-linecap:butt; stroke-linejoin:round; stroke-width:2; stroke-opacity:0.1; fill:none" points="
  2608.63,1800.78 2608.63,47.2441 
  "/>
<polyline clip-path="url(#clip990)" style="stroke:#000000; stroke-linecap:butt; stroke-linejoin:round; stroke-width:4; stroke-opacity:1; fill:none" points="
  159.478,1800.78 2640.76,1800.78 
  "/>
<polyline clip-path="url(#clip990)" style="stroke:#000000; stroke-linecap:butt; stroke-linejoin:round; stroke-width:4; stroke-opacity:1; fill:none" points="
  222.757,1800.78 222.757,1781.88 
  "/>
<polyline clip-path="url(#clip990)" style="stroke:#000000; stroke-linecap:butt; stroke-linejoin:round; stroke-width:4; stroke-opacity:1; fill:none" points="
  819.226,1800.78 819.226,1781.88 
  "/>
<polyline clip-path="url(#clip990)" style="stroke:#000000; stroke-linecap:butt; stroke-linejoin:round; stroke-width:4; stroke-opacity:1; fill:none" points="
  1415.7,1800.78 1415.7,1781.88 
  "/>
<polyline clip-path="url(#clip990)" style="stroke:#000000; stroke-linecap:butt; stroke-linejoin:round; stroke-width:4; stroke-opacity:1; fill:none" points="
  2012.17,1800.78 2012.17,1781.88 
  "/>
<polyline clip-path="url(#clip990)" style="stroke:#000000; stroke-linecap:butt; stroke-linejoin:round; stroke-width:4; stroke-opacity:1; fill:none" points="
  2608.63,1800.78 2608.63,1781.88 
  "/>
<path clip-path="url(#clip990)" d="M185.06 1834 Q181.449 1834 179.62 1837.57 Q177.815 1841.11 177.815 1848.24 Q177.815 1855.34 179.62 1858.91 Q181.449 1862.45 185.06 1862.45 Q188.694 1862.45 190.5 1858.91 Q192.329 1855.34 192.329 1848.24 Q192.329 1841.11 190.5 1837.57 Q188.694 1834 185.06 1834 M185.06 1830.3 Q190.87 1830.3 193.926 1834.9 Q197.005 1839.49 197.005 1848.24 Q197.005 1856.96 193.926 1861.57 Q190.87 1866.15 185.06 1866.15 Q179.25 1866.15 176.171 1861.57 Q173.116 1856.96 173.116 1848.24 Q173.116 1839.49 176.171 1834.9 Q179.25 1830.3 185.06 1830.3 Z" fill="#000000" fill-rule="evenodd" fill-opacity="1" /><path clip-path="url(#clip990)" d="M205.222 1859.6 L210.106 1859.6 L210.106 1865.48 L205.222 1865.48 L205.222 1859.6 Z" fill="#000000" fill-rule="evenodd" fill-opacity="1" /><path clip-path="url(#clip990)" d="M230.291 1834 Q226.68 1834 224.852 1837.57 Q223.046 1841.11 223.046 1848.24 Q223.046 1855.34 224.852 1858.91 Q226.68 1862.45 230.291 1862.45 Q233.926 1862.45 235.731 1858.91 Q237.56 1855.34 237.56 1848.24 Q237.56 1841.11 235.731 1837.57 Q233.926 1834 230.291 1834 M230.291 1830.3 Q236.102 1830.3 239.157 1834.9 Q242.236 1839.49 242.236 1848.24 Q242.236 1856.96 239.157 1861.57 Q236.102 1866.15 230.291 1866.15 Q224.481 1866.15 221.403 1861.57 Q218.347 1856.96 218.347 1848.24 Q218.347 1839.49 221.403 1834.9 Q224.481 1830.3 230.291 1830.3 Z" fill="#000000" fill-rule="evenodd" fill-opacity="1" /><path clip-path="url(#clip990)" d="M260.453 1834 Q256.842 1834 255.014 1837.57 Q253.208 1841.11 253.208 1848.24 Q253.208 1855.34 255.014 1858.91 Q256.842 1862.45 260.453 1862.45 Q264.088 1862.45 265.893 1858.91 Q267.722 1855.34 267.722 1848.24 Q267.722 1841.11 265.893 1837.57 Q264.088 1834 260.453 1834 M260.453 1830.3 Q266.263 1830.3 269.319 1834.9 Q272.398 1839.49 272.398 1848.24 Q272.398 1856.96 269.319 1861.57 Q266.263 1866.15 260.453 1866.15 Q254.643 1866.15 251.564 1861.57 Q248.509 1856.96 248.509 1848.24 Q248.509 1839.49 251.564 1834.9 Q254.643 1830.3 260.453 1830.3 Z" fill="#000000" fill-rule="evenodd" fill-opacity="1" /><path clip-path="url(#clip990)" d="M782.027 1834 Q778.416 1834 776.588 1837.57 Q774.782 1841.11 774.782 1848.24 Q774.782 1855.34 776.588 1858.91 Q778.416 1862.45 782.027 1862.45 Q785.662 1862.45 787.467 1858.91 Q789.296 1855.34 789.296 1848.24 Q789.296 1841.11 787.467 1837.57 Q785.662 1834 782.027 1834 M782.027 1830.3 Q787.838 1830.3 790.893 1834.9 Q793.972 1839.49 793.972 1848.24 Q793.972 1856.96 790.893 1861.57 Q787.838 1866.15 782.027 1866.15 Q776.217 1866.15 773.139 1861.57 Q770.083 1856.96 770.083 1848.24 Q770.083 1839.49 773.139 1834.9 Q776.217 1830.3 782.027 1830.3 Z" fill="#000000" fill-rule="evenodd" fill-opacity="1" /><path clip-path="url(#clip990)" d="M802.189 1859.6 L807.074 1859.6 L807.074 1865.48 L802.189 1865.48 L802.189 1859.6 Z" fill="#000000" fill-rule="evenodd" fill-opacity="1" /><path clip-path="url(#clip990)" d="M821.286 1861.55 L837.606 1861.55 L837.606 1865.48 L815.662 1865.48 L815.662 1861.55 Q818.324 1858.79 822.907 1854.16 Q827.513 1849.51 828.694 1848.17 Q830.939 1845.65 831.819 1843.91 Q832.722 1842.15 832.722 1840.46 Q832.722 1837.71 830.777 1835.97 Q828.856 1834.23 825.754 1834.23 Q823.555 1834.23 821.101 1835 Q818.671 1835.76 815.893 1837.31 L815.893 1832.59 Q818.717 1831.46 821.171 1830.88 Q823.624 1830.3 825.661 1830.3 Q831.032 1830.3 834.226 1832.98 Q837.421 1835.67 837.421 1840.16 Q837.421 1842.29 836.61 1844.21 Q835.823 1846.11 833.717 1848.7 Q833.138 1849.37 830.036 1852.59 Q826.935 1855.78 821.286 1861.55 Z" fill="#000000" fill-rule="evenodd" fill-opacity="1" /><path clip-path="url(#clip990)" d="M847.467 1830.92 L865.823 1830.92 L865.823 1834.86 L851.749 1834.86 L851.749 1843.33 Q852.768 1842.98 853.786 1842.82 Q854.805 1842.64 855.823 1842.64 Q861.61 1842.64 864.99 1845.81 Q868.37 1848.98 868.37 1854.4 Q868.37 1859.97 864.897 1863.08 Q861.425 1866.15 855.106 1866.15 Q852.93 1866.15 850.661 1865.78 Q848.416 1865.41 846.009 1864.67 L846.009 1859.97 Q848.092 1861.11 850.314 1861.66 Q852.536 1862.22 855.013 1862.22 Q859.018 1862.22 861.356 1860.11 Q863.694 1858.01 863.694 1854.4 Q863.694 1850.78 861.356 1848.68 Q859.018 1846.57 855.013 1846.57 Q853.138 1846.57 851.263 1846.99 Q849.411 1847.4 847.467 1848.28 L847.467 1830.92 Z" fill="#000000" fill-rule="evenodd" fill-opacity="1" /><path clip-path="url(#clip990)" d="M1378 1834 Q1374.39 1834 1372.56 1837.57 Q1370.75 1841.11 1370.75 1848.24 Q1370.75 1855.34 1372.56 1858.91 Q1374.39 1862.45 1378 1862.45 Q1381.63 1862.45 1383.44 1858.91 Q1385.27 1855.34 1385.27 1848.24 Q1385.27 1841.11 1383.44 1837.57 Q1381.63 1834 1378 1834 M1378 1830.3 Q1383.81 1830.3 1386.86 1834.9 Q1389.94 1839.49 1389.94 1848.24 Q1389.94 1856.96 1386.86 1861.57 Q1383.81 1866.15 1378 1866.15 Q1372.19 1866.15 1369.11 1861.57 Q1366.05 1856.96 1366.05 1848.24 Q1366.05 1839.49 1369.11 1834.9 Q1372.19 1830.3 1378 1830.3 Z" fill="#000000" fill-rule="evenodd" fill-opacity="1" /><path clip-path="url(#clip990)" d="M1398.16 1859.6 L1403.05 1859.6 L1403.05 1865.48 L1398.16 1865.48 L1398.16 1859.6 Z" fill="#000000" fill-rule="evenodd" fill-opacity="1" /><path clip-path="url(#clip990)" d="M1413.28 1830.92 L1431.63 1830.92 L1431.63 1834.86 L1417.56 1834.86 L1417.56 1843.33 Q1418.58 1842.98 1419.6 1842.82 Q1420.61 1842.64 1421.63 1842.64 Q1427.42 1842.64 1430.8 1845.81 Q1434.18 1848.98 1434.18 1854.4 Q1434.18 1859.97 1430.71 1863.08 Q1427.24 1866.15 1420.92 1866.15 Q1418.74 1866.15 1416.47 1865.78 Q1414.23 1865.41 1411.82 1864.67 L1411.82 1859.97 Q1413.9 1861.11 1416.12 1861.66 Q1418.35 1862.22 1420.82 1862.22 Q1424.83 1862.22 1427.17 1860.11 Q1429.5 1858.01 1429.5 1854.4 Q1429.5 1850.78 1427.17 1848.68 Q1424.83 1846.57 1420.82 1846.57 Q1418.95 1846.57 1417.07 1846.99 Q1415.22 1847.4 1413.28 1848.28 L1413.28 1830.92 Z" fill="#000000" fill-rule="evenodd" fill-opacity="1" /><path clip-path="url(#clip990)" d="M1453.39 1834 Q1449.78 1834 1447.95 1837.57 Q1446.15 1841.11 1446.15 1848.24 Q1446.15 1855.34 1447.95 1858.91 Q1449.78 1862.45 1453.39 1862.45 Q1457.03 1862.45 1458.83 1858.91 Q1460.66 1855.34 1460.66 1848.24 Q1460.66 1841.11 1458.83 1837.57 Q1457.03 1834 1453.39 1834 M1453.39 1830.3 Q1459.2 1830.3 1462.26 1834.9 Q1465.34 1839.49 1465.34 1848.24 Q1465.34 1856.96 1462.26 1861.57 Q1459.2 1866.15 1453.39 1866.15 Q1447.58 1866.15 1444.5 1861.57 Q1441.45 1856.96 1441.45 1848.24 Q1441.45 1839.49 1444.5 1834.9 Q1447.58 1830.3 1453.39 1830.3 Z" fill="#000000" fill-rule="evenodd" fill-opacity="1" /><path clip-path="url(#clip990)" d="M1974.97 1834 Q1971.36 1834 1969.53 1837.57 Q1967.72 1841.11 1967.72 1848.24 Q1967.72 1855.34 1969.53 1858.91 Q1971.36 1862.45 1974.97 1862.45 Q1978.6 1862.45 1980.41 1858.91 Q1982.24 1855.34 1982.24 1848.24 Q1982.24 1841.11 1980.41 1837.57 Q1978.6 1834 1974.97 1834 M1974.97 1830.3 Q1980.78 1830.3 1983.83 1834.9 Q1986.91 1839.49 1986.91 1848.24 Q1986.91 1856.96 1983.83 1861.57 Q1980.78 1866.15 1974.97 1866.15 Q1969.16 1866.15 1966.08 1861.57 Q1963.02 1856.96 1963.02 1848.24 Q1963.02 1839.49 1966.08 1834.9 Q1969.16 1830.3 1974.97 1830.3 Z" fill="#000000" fill-rule="evenodd" fill-opacity="1" /><path clip-path="url(#clip990)" d="M1995.13 1859.6 L2000.01 1859.6 L2000.01 1865.48 L1995.13 1865.48 L1995.13 1859.6 Z" fill="#000000" fill-rule="evenodd" fill-opacity="1" /><path clip-path="url(#clip990)" d="M2009.02 1830.92 L2031.24 1830.92 L2031.24 1832.91 L2018.69 1865.48 L2013.81 1865.48 L2025.61 1834.86 L2009.02 1834.86 L2009.02 1830.92 Z" fill="#000000" fill-rule="evenodd" fill-opacity="1" /><path clip-path="url(#clip990)" d="M2040.41 1830.92 L2058.76 1830.92 L2058.76 1834.86 L2044.69 1834.86 L2044.69 1843.33 Q2045.71 1842.98 2046.73 1842.82 Q2047.74 1842.64 2048.76 1842.64 Q2054.55 1842.64 2057.93 1845.81 Q2061.31 1848.98 2061.31 1854.4 Q2061.31 1859.97 2057.84 1863.08 Q2054.36 1866.15 2048.04 1866.15 Q2045.87 1866.15 2043.6 1865.78 Q2041.36 1865.41 2038.95 1864.67 L2038.95 1859.97 Q2041.03 1861.11 2043.25 1861.66 Q2045.48 1862.22 2047.95 1862.22 Q2051.96 1862.22 2054.29 1860.11 Q2056.63 1858.01 2056.63 1854.4 Q2056.63 1850.78 2054.29 1848.68 Q2051.96 1846.57 2047.95 1846.57 Q2046.08 1846.57 2044.2 1846.99 Q2042.35 1847.4 2040.41 1848.28 L2040.41 1830.92 Z" fill="#000000" fill-rule="evenodd" fill-opacity="1" /><path clip-path="url(#clip990)" d="M2560.71 1861.55 L2568.35 1861.55 L2568.35 1835.18 L2560.04 1836.85 L2560.04 1832.59 L2568.3 1830.92 L2572.98 1830.92 L2572.98 1861.55 L2580.61 1861.55 L2580.61 1865.48 L2560.71 1865.48 L2560.71 1861.55 Z" fill="#000000" fill-rule="evenodd" fill-opacity="1" /><path clip-path="url(#clip990)" d="M2590.06 1859.6 L2594.94 1859.6 L2594.94 1865.48 L2590.06 1865.48 L2590.06 1859.6 Z" fill="#000000" fill-rule="evenodd" fill-opacity="1" /><path clip-path="url(#clip990)" d="M2615.13 1834 Q2611.52 1834 2609.69 1837.57 Q2607.88 1841.11 2607.88 1848.24 Q2607.88 1855.34 2609.69 1858.91 Q2611.52 1862.45 2615.13 1862.45 Q2618.76 1862.45 2620.57 1858.91 Q2622.4 1855.34 2622.4 1848.24 Q2622.4 1841.11 2620.57 1837.57 Q2618.76 1834 2615.13 1834 M2615.13 1830.3 Q2620.94 1830.3 2623.99 1834.9 Q2627.07 1839.49 2627.07 1848.24 Q2627.07 1856.96 2623.99 1861.57 Q2620.94 1866.15 2615.13 1866.15 Q2609.32 1866.15 2606.24 1861.57 Q2603.18 1856.96 2603.18 1848.24 Q2603.18 1839.49 2606.24 1834.9 Q2609.32 1830.3 2615.13 1830.3 Z" fill="#000000" fill-rule="evenodd" fill-opacity="1" /><path clip-path="url(#clip990)" d="M2645.29 1834 Q2641.68 1834 2639.85 1837.57 Q2638.04 1841.11 2638.04 1848.24 Q2638.04 1855.34 2639.85 1858.91 Q2641.68 1862.45 2645.29 1862.45 Q2648.92 1862.45 2650.73 1858.91 Q2652.56 1855.34 2652.56 1848.24 Q2652.56 1841.11 2650.73 1837.57 Q2648.92 1834 2645.29 1834 M2645.29 1830.3 Q2651.1 1830.3 2654.16 1834.9 Q2657.23 1839.49 2657.23 1848.24 Q2657.23 1856.96 2654.16 1861.57 Q2651.1 1866.15 2645.29 1866.15 Q2639.48 1866.15 2636.4 1861.57 Q2633.35 1856.96 2633.35 1848.24 Q2633.35 1839.49 2636.4 1834.9 Q2639.48 1830.3 2645.29 1830.3 Z" fill="#000000" fill-rule="evenodd" fill-opacity="1" /><polyline clip-path="url(#clip992)" style="stroke:#000000; stroke-linecap:butt; stroke-linejoin:round; stroke-width:2; stroke-opacity:0.1; fill:none" points="
  159.478,1757.13 2640.76,1757.13 
  "/>
<polyline clip-path="url(#clip992)" style="stroke:#000000; stroke-linecap:butt; stroke-linejoin:round; stroke-width:2; stroke-opacity:0.1; fill:none" points="
  159.478,1412.06 2640.76,1412.06 
  "/>
<polyline clip-path="url(#clip992)" style="stroke:#000000; stroke-linecap:butt; stroke-linejoin:round; stroke-width:2; stroke-opacity:0.1; fill:none" points="
  159.478,1066.98 2640.76,1066.98 
  "/>
<polyline clip-path="url(#clip992)" style="stroke:#000000; stroke-linecap:butt; stroke-linejoin:round; stroke-width:2; stroke-opacity:0.1; fill:none" points="
  159.478,721.914 2640.76,721.914 
  "/>
<polyline clip-path="url(#clip992)" style="stroke:#000000; stroke-linecap:butt; stroke-linejoin:round; stroke-width:2; stroke-opacity:0.1; fill:none" points="
  159.478,376.844 2640.76,376.844 
  "/>
<polyline clip-path="url(#clip990)" style="stroke:#000000; stroke-linecap:butt; stroke-linejoin:round; stroke-width:4; stroke-opacity:1; fill:none" points="
  159.478,1800.78 159.478,47.2441 
  "/>
<polyline clip-path="url(#clip990)" style="stroke:#000000; stroke-linecap:butt; stroke-linejoin:round; stroke-width:4; stroke-opacity:1; fill:none" points="
  159.478,1757.13 178.376,1757.13 
  "/>
<polyline clip-path="url(#clip990)" style="stroke:#000000; stroke-linecap:butt; stroke-linejoin:round; stroke-width:4; stroke-opacity:1; fill:none" points="
  159.478,1412.06 178.376,1412.06 
  "/>
<polyline clip-path="url(#clip990)" style="stroke:#000000; stroke-linecap:butt; stroke-linejoin:round; stroke-width:4; stroke-opacity:1; fill:none" points="
  159.478,1066.98 178.376,1066.98 
  "/>
<polyline clip-path="url(#clip990)" style="stroke:#000000; stroke-linecap:butt; stroke-linejoin:round; stroke-width:4; stroke-opacity:1; fill:none" points="
  159.478,721.914 178.376,721.914 
  "/>
<polyline clip-path="url(#clip990)" style="stroke:#000000; stroke-linecap:butt; stroke-linejoin:round; stroke-width:4; stroke-opacity:1; fill:none" points="
  159.478,376.844 178.376,376.844 
  "/>
<path clip-path="url(#clip990)" d="M61.9826 1742.92 Q58.3715 1742.92 56.5428 1746.49 Q54.7373 1750.03 54.7373 1757.16 Q54.7373 1764.27 56.5428 1767.83 Q58.3715 1771.37 61.9826 1771.37 Q65.6169 1771.37 67.4224 1767.83 Q69.2511 1764.27 69.2511 1757.16 Q69.2511 1750.03 67.4224 1746.49 Q65.6169 1742.92 61.9826 1742.92 M61.9826 1739.22 Q67.7928 1739.22 70.8483 1743.83 Q73.927 1748.41 73.927 1757.16 Q73.927 1765.89 70.8483 1770.49 Q67.7928 1775.08 61.9826 1775.08 Q56.1725 1775.08 53.0938 1770.49 Q50.0382 1765.89 50.0382 1757.16 Q50.0382 1748.41 53.0938 1743.83 Q56.1725 1739.22 61.9826 1739.22 Z" fill="#000000" fill-rule="evenodd" fill-opacity="1" /><path clip-path="url(#clip990)" d="M82.1445 1768.53 L87.0288 1768.53 L87.0288 1774.41 L82.1445 1774.41 L82.1445 1768.53 Z" fill="#000000" fill-rule="evenodd" fill-opacity="1" /><path clip-path="url(#clip990)" d="M107.214 1742.92 Q103.603 1742.92 101.774 1746.49 Q99.9685 1750.03 99.9685 1757.16 Q99.9685 1764.27 101.774 1767.83 Q103.603 1771.37 107.214 1771.37 Q110.848 1771.37 112.654 1767.83 Q114.482 1764.27 114.482 1757.16 Q114.482 1750.03 112.654 1746.49 Q110.848 1742.92 107.214 1742.92 M107.214 1739.22 Q113.024 1739.22 116.08 1743.83 Q119.158 1748.41 119.158 1757.16 Q119.158 1765.89 116.08 1770.49 Q113.024 1775.08 107.214 1775.08 Q101.404 1775.08 98.325 1770.49 Q95.2695 1765.89 95.2695 1757.16 Q95.2695 1748.41 98.325 1743.83 Q101.404 1739.22 107.214 1739.22 Z" fill="#000000" fill-rule="evenodd" fill-opacity="1" /><path clip-path="url(#clip990)" d="M63.5798 1397.85 Q59.9687 1397.85 58.14 1401.42 Q56.3345 1404.96 56.3345 1412.09 Q56.3345 1419.2 58.14 1422.76 Q59.9687 1426.3 63.5798 1426.3 Q67.2141 1426.3 69.0196 1422.76 Q70.8483 1419.2 70.8483 1412.09 Q70.8483 1404.96 69.0196 1401.42 Q67.2141 1397.85 63.5798 1397.85 M63.5798 1394.15 Q69.39 1394.15 72.4455 1398.76 Q75.5242 1403.34 75.5242 1412.09 Q75.5242 1420.82 72.4455 1425.42 Q69.39 1430.01 63.5798 1430.01 Q57.7697 1430.01 54.691 1425.42 Q51.6354 1420.82 51.6354 1412.09 Q51.6354 1403.34 54.691 1398.76 Q57.7697 1394.15 63.5798 1394.15 Z" fill="#000000" fill-rule="evenodd" fill-opacity="1" /><path clip-path="url(#clip990)" d="M83.7418 1423.46 L88.626 1423.46 L88.626 1429.34 L83.7418 1429.34 L83.7418 1423.46 Z" fill="#000000" fill-rule="evenodd" fill-opacity="1" /><path clip-path="url(#clip990)" d="M102.839 1425.4 L119.158 1425.4 L119.158 1429.34 L97.2139 1429.34 L97.2139 1425.4 Q99.8759 1422.65 104.459 1418.02 Q109.066 1413.36 110.246 1412.02 Q112.492 1409.5 113.371 1407.76 Q114.274 1406 114.274 1404.31 Q114.274 1401.56 112.33 1399.82 Q110.408 1398.09 107.306 1398.09 Q105.107 1398.09 102.654 1398.85 Q100.223 1399.61 97.4454 1401.16 L97.4454 1396.44 Q100.269 1395.31 102.723 1394.73 Q105.177 1394.15 107.214 1394.15 Q112.584 1394.15 115.779 1396.84 Q118.973 1399.52 118.973 1404.01 Q118.973 1406.14 118.163 1408.06 Q117.376 1409.96 115.269 1412.55 Q114.691 1413.22 111.589 1416.44 Q108.487 1419.64 102.839 1425.4 Z" fill="#000000" fill-rule="evenodd" fill-opacity="1" /><path clip-path="url(#clip990)" d="M61.4965 1052.78 Q57.8854 1052.78 56.0567 1056.35 Q54.2512 1059.89 54.2512 1067.02 Q54.2512 1074.13 56.0567 1077.69 Q57.8854 1081.23 61.4965 1081.23 Q65.1307 1081.23 66.9363 1077.69 Q68.765 1074.13 68.765 1067.02 Q68.765 1059.89 66.9363 1056.35 Q65.1307 1052.78 61.4965 1052.78 M61.4965 1049.08 Q67.3067 1049.08 70.3622 1053.69 Q73.4409 1058.27 73.4409 1067.02 Q73.4409 1075.75 70.3622 1080.35 Q67.3067 1084.94 61.4965 1084.94 Q55.6864 1084.94 52.6077 1080.35 Q49.5521 1075.75 49.5521 1067.02 Q49.5521 1058.27 52.6077 1053.69 Q55.6864 1049.08 61.4965 1049.08 Z" fill="#000000" fill-rule="evenodd" fill-opacity="1" /><path clip-path="url(#clip990)" d="M81.6584 1078.39 L86.5427 1078.39 L86.5427 1084.26 L81.6584 1084.26 L81.6584 1078.39 Z" fill="#000000" fill-rule="evenodd" fill-opacity="1" /><path clip-path="url(#clip990)" d="M109.575 1053.78 L97.7695 1072.23 L109.575 1072.23 L109.575 1053.78 M108.348 1049.7 L114.228 1049.7 L114.228 1072.23 L119.158 1072.23 L119.158 1076.12 L114.228 1076.12 L114.228 1084.26 L109.575 1084.26 L109.575 1076.12 L93.9732 1076.12 L93.9732 1071.6 L108.348 1049.7 Z" fill="#000000" fill-rule="evenodd" fill-opacity="1" /><path clip-path="url(#clip990)" d="M61.8206 707.713 Q58.2095 707.713 56.3808 711.278 Q54.5752 714.819 54.5752 721.949 Q54.5752 729.055 56.3808 732.62 Q58.2095 736.162 61.8206 736.162 Q65.4548 736.162 67.2604 732.62 Q69.0891 729.055 69.0891 721.949 Q69.0891 714.819 67.2604 711.278 Q65.4548 707.713 61.8206 707.713 M61.8206 704.009 Q67.6307 704.009 70.6863 708.616 Q73.765 713.199 73.765 721.949 Q73.765 730.676 70.6863 735.282 Q67.6307 739.865 61.8206 739.865 Q56.0104 739.865 52.9317 735.282 Q49.8762 730.676 49.8762 721.949 Q49.8762 713.199 52.9317 708.616 Q56.0104 704.009 61.8206 704.009 Z" fill="#000000" fill-rule="evenodd" fill-opacity="1" /><path clip-path="url(#clip990)" d="M81.9825 733.314 L86.8667 733.314 L86.8667 739.194 L81.9825 739.194 L81.9825 733.314 Z" fill="#000000" fill-rule="evenodd" fill-opacity="1" /><path clip-path="url(#clip990)" d="M107.631 720.051 Q104.482 720.051 102.631 722.203 Q100.802 724.356 100.802 728.106 Q100.802 731.833 102.631 734.009 Q104.482 736.162 107.631 736.162 Q110.779 736.162 112.607 734.009 Q114.459 731.833 114.459 728.106 Q114.459 724.356 112.607 722.203 Q110.779 720.051 107.631 720.051 M116.913 705.398 L116.913 709.657 Q115.154 708.824 113.348 708.384 Q111.566 707.944 109.806 707.944 Q105.177 707.944 102.723 711.069 Q100.293 714.194 99.9454 720.514 Q101.311 718.5 103.371 717.435 Q105.431 716.347 107.908 716.347 Q113.117 716.347 116.126 719.518 Q119.158 722.666 119.158 728.106 Q119.158 733.43 116.01 736.648 Q112.862 739.865 107.631 739.865 Q101.635 739.865 98.4639 735.282 Q95.2926 730.676 95.2926 721.949 Q95.2926 713.754 99.1815 708.893 Q103.07 704.009 109.621 704.009 Q111.38 704.009 113.163 704.356 Q114.968 704.704 116.913 705.398 Z" fill="#000000" fill-rule="evenodd" fill-opacity="1" /><path clip-path="url(#clip990)" d="M62.0752 362.642 Q58.4641 362.642 56.6354 366.207 Q54.8299 369.749 54.8299 376.878 Q54.8299 383.985 56.6354 387.549 Q58.4641 391.091 62.0752 391.091 Q65.7094 391.091 67.515 387.549 Q69.3437 383.985 69.3437 376.878 Q69.3437 369.749 67.515 366.207 Q65.7094 362.642 62.0752 362.642 M62.0752 358.939 Q67.8854 358.939 70.9409 363.545 Q74.0196 368.128 74.0196 376.878 Q74.0196 385.605 70.9409 390.212 Q67.8854 394.795 62.0752 394.795 Q56.2651 394.795 53.1864 390.212 Q50.1308 385.605 50.1308 376.878 Q50.1308 368.128 53.1864 363.545 Q56.2651 358.939 62.0752 358.939 Z" fill="#000000" fill-rule="evenodd" fill-opacity="1" /><path clip-path="url(#clip990)" d="M82.2371 388.244 L87.1214 388.244 L87.1214 394.124 L82.2371 394.124 L82.2371 388.244 Z" fill="#000000" fill-rule="evenodd" fill-opacity="1" /><path clip-path="url(#clip990)" d="M107.306 377.712 Q103.973 377.712 102.052 379.494 Q100.154 381.276 100.154 384.401 Q100.154 387.526 102.052 389.309 Q103.973 391.091 107.306 391.091 Q110.64 391.091 112.561 389.309 Q114.482 387.503 114.482 384.401 Q114.482 381.276 112.561 379.494 Q110.663 377.712 107.306 377.712 M102.631 375.721 Q99.6213 374.98 97.9315 372.92 Q96.2648 370.86 96.2648 367.897 Q96.2648 363.753 99.2046 361.346 Q102.168 358.939 107.306 358.939 Q112.468 358.939 115.408 361.346 Q118.348 363.753 118.348 367.897 Q118.348 370.86 116.658 372.92 Q114.992 374.98 112.005 375.721 Q115.385 376.508 117.26 378.8 Q119.158 381.091 119.158 384.401 Q119.158 389.424 116.08 392.11 Q113.024 394.795 107.306 394.795 Q101.589 394.795 98.5102 392.11 Q95.4547 389.424 95.4547 384.401 Q95.4547 381.091 97.3528 378.8 Q99.2509 376.508 102.631 375.721 M100.918 368.337 Q100.918 371.022 102.584 372.526 Q104.274 374.031 107.306 374.031 Q110.316 374.031 112.005 372.526 Q113.718 371.022 113.718 368.337 Q113.718 365.651 112.005 364.147 Q110.316 362.642 107.306 362.642 Q104.274 362.642 102.584 364.147 Q100.918 365.651 100.918 368.337 Z" fill="#000000" fill-rule="evenodd" fill-opacity="1" /><polyline clip-path="url(#clip992)" style="stroke:#009af9; stroke-linecap:butt; stroke-linejoin:round; stroke-width:4; stroke-opacity:1; fill:none" points="
  1078.79,822.634 557.164,738.833 2566.4,1118.52 2210.98,1745.48 2442.41,1395.07 2266.25,713.161 2094.46,523.358 955.122,525.24 1437.44,1554.77 1051.55,841.609 
  1009.27,1336.45 1180.25,268.252 1915.42,1657.74 850.092,847.871 519.872,1485.01 1801.99,1092.68 1048.29,1014.05 1881.57,302.924 1331.55,823.062 1198.72,1524.97 
  2186.62,236.468 365.158,891.587 579.406,646.643 1807.53,1317.89 803.143,770.052 915.383,1614.05 1013.51,1364.82 1807.68,1751.15 748.157,1581.98 2034.8,1656.89 
  864.352,1390.39 1467.32,1516.66 1602.11,821.128 545.354,1289.91 563.365,835.057 1672.01,1069.48 1735.57,1402.76 1137.62,170.673 271.492,752.572 939.962,215.073 
  732.785,1420.21 412.698,1347.8 1009.16,846.58 1562.44,664.824 1618.22,1273.18 712.265,1526.98 691.41,268.665 267.688,96.8724 1933.94,848.629 2039.18,1557.93 
  1651.16,256.849 2566.2,379.653 2332.46,194.778 1355.09,235.462 2380.76,1238.15 1591.14,277.997 1103.58,1107.32 769.869,673.58 1900.6,1312.16 772.377,157.12 
  362.555,810.889 2160.35,102.969 1252.33,1744.04 1939.31,357.606 816.044,1630.71 2049.48,144.307 1130.04,1036.29 1521.46,199.88 1520.62,555.391 385.435,112.294 
  2170.5,518.114 1614.72,1420.14 2286.14,423.471 2570.53,1178.7 1005.79,898.785 1136.95,247.947 1969.16,152.261 1292.9,1275.72 1382.84,305.402 851.92,784.468 
  2437.9,219.689 2514.98,1503.05 2419.25,753.83 2326.59,368.386 930.453,1682.38 229.703,1156.5 1648.64,1113.52 928.306,1381.44 1292.87,1734.61 2441.39,195.977 
  2068.12,1174.67 376.494,276.865 321.376,996.259 2312.97,1065.41 797.842,1441.45 1521.07,221.591 429.1,695.282 1718.7,1261.31 1923.87,1167.7 600.854,439.919 
  
  "/>
<path clip-path="url(#clip990)" d="
M242.187 1742.33 L542.746 1742.33 L542.746 1638.65 L242.187 1638.65  Z
  " fill="#ffffff" fill-rule="evenodd" fill-opacity="1"/>
<polyline clip-path="url(#clip990)" style="stroke:#000000; stroke-linecap:butt; stroke-linejoin:round; stroke-width:4; stroke-opacity:1; fill:none" points="
  242.187,1742.33 542.746,1742.33 542.746,1638.65 242.187,1638.65 242.187,1742.33 
  "/>
<polyline clip-path="url(#clip990)" style="stroke:#009af9; stroke-linecap:butt; stroke-linejoin:round; stroke-width:4; stroke-opacity:1; fill:none" points="
  269.757,1690.49 435.176,1690.49 
  "/>
<path clip-path="url(#clip990)" d="M476.588 1710.18 Q474.782 1714.81 473.07 1716.22 Q471.357 1717.63 468.486 1717.63 L465.083 1717.63 L465.083 1714.06 L467.583 1714.06 Q469.343 1714.06 470.315 1713.23 Q471.287 1712.4 472.468 1709.3 L473.232 1707.35 L462.746 1681.84 L467.259 1681.84 L475.361 1702.12 L483.463 1681.84 L487.977 1681.84 L476.588 1710.18 Z" fill="#000000" fill-rule="evenodd" fill-opacity="1" /><path clip-path="url(#clip990)" d="M495.268 1703.83 L502.907 1703.83 L502.907 1677.47 L494.597 1679.13 L494.597 1674.87 L502.861 1673.21 L507.537 1673.21 L507.537 1703.83 L515.176 1703.83 L515.176 1707.77 L495.268 1707.77 L495.268 1703.83 Z" fill="#000000" fill-rule="evenodd" fill-opacity="1" /></svg>
