<?xml version="1.0" encoding="utf-8"?>
<svg xmlns="http://www.w3.org/2000/svg" xmlns:xlink="http://www.w3.org/1999/xlink" width="672" height="480" viewBox="0 0 2688 1920">
<defs>
  <clipPath id="clip100">
    <rect x="0" y="0" width="2688" height="1920"/>
  </clipPath>
</defs>
<path clip-path="url(#clip100)" d="
M0 1920 L2688 1920 L2688 0 L0 0  Z
  " fill="#ffffff" fill-rule="evenodd" fill-opacity="1"/>
<defs>
  <clipPath id="clip101">
    <rect x="537" y="0" width="1883" height="1883"/>
  </clipPath>
</defs>
<path clip-path="url(#clip100)" d="
M189.154 1800.78 L2640.76 1800.78 L2640.76 47.2441 L189.154 47.2441  Z
  " fill="#ffffff" fill-rule="evenodd" fill-opacity="1"/>
<defs>
  <clipPath id="clip102">
    <rect x="189" y="47" width="2453" height="1755"/>
  </clipPath>
</defs>
<polyline clip-path="url(#clip102)" style="stroke:#000000; stroke-linecap:butt; stroke-linejoin:round; stroke-width:2; stroke-opacity:0.1; fill:none" points="
  231.378,1800.78 231.378,47.2441 
  "/>
<polyline clip-path="url(#clip102)" style="stroke:#000000; stroke-linecap:butt; stroke-linejoin:round; stroke-width:2; stroke-opacity:0.1; fill:none" points="
  823.069,1800.78 823.069,47.2441 
  "/>
<polyline clip-path="url(#clip102)" style="stroke:#000000; stroke-linecap:butt; stroke-linejoin:round; stroke-width:2; stroke-opacity:0.1; fill:none" points="
  1414.76,1800.78 1414.76,47.2441 
  "/>
<polyline clip-path="url(#clip102)" style="stroke:#000000; stroke-linecap:butt; stroke-linejoin:round; stroke-width:2; stroke-opacity:0.1; fill:none" points="
  2006.45,1800.78 2006.45,47.2441 
  "/>
<polyline clip-path="url(#clip102)" style="stroke:#000000; stroke-linecap:butt; stroke-linejoin:round; stroke-width:2; stroke-opacity:0.1; fill:none" points="
  2598.14,1800.78 2598.14,47.2441 
  "/>
<polyline clip-path="url(#clip100)" style="stroke:#000000; stroke-linecap:butt; stroke-linejoin:round; stroke-width:4; stroke-opacity:1; fill:none" points="
  189.154,1800.78 2640.76,1800.78 
  "/>
<polyline clip-path="url(#clip100)" style="stroke:#000000; stroke-linecap:butt; stroke-linejoin:round; stroke-width:4; stroke-opacity:1; fill:none" points="
  231.378,1800.78 231.378,1781.88 
  "/>
<polyline clip-path="url(#clip100)" style="stroke:#000000; stroke-linecap:butt; stroke-linejoin:round; stroke-width:4; stroke-opacity:1; fill:none" points="
  823.069,1800.78 823.069,1781.88 
  "/>
<polyline clip-path="url(#clip100)" style="stroke:#000000; stroke-linecap:butt; stroke-linejoin:round; stroke-width:4; stroke-opacity:1; fill:none" points="
  1414.76,1800.78 1414.76,1781.88 
  "/>
<polyline clip-path="url(#clip100)" style="stroke:#000000; stroke-linecap:butt; stroke-linejoin:round; stroke-width:4; stroke-opacity:1; fill:none" points="
  2006.45,1800.78 2006.45,1781.88 
  "/>
<polyline clip-path="url(#clip100)" style="stroke:#000000; stroke-linecap:butt; stroke-linejoin:round; stroke-width:4; stroke-opacity:1; fill:none" points="
  2598.14,1800.78 2598.14,1781.88 
  "/>
<path clip-path="url(#clip100)" d="M193.682 1834 Q190.071 1834 188.242 1837.57 Q186.436 1841.11 186.436 1848.24 Q186.436 1855.34 188.242 1858.91 Q190.071 1862.45 193.682 1862.45 Q197.316 1862.45 199.122 1858.91 Q200.95 1855.34 200.95 1848.24 Q200.95 1841.11 199.122 1837.57 Q197.316 1834 193.682 1834 M193.682 1830.3 Q199.492 1830.3 202.547 1834.9 Q205.626 1839.49 205.626 1848.24 Q205.626 1856.96 202.547 1861.57 Q199.492 1866.15 193.682 1866.15 Q187.872 1866.15 184.793 1861.57 Q181.737 1856.96 181.737 1848.24 Q181.737 1839.49 184.793 1834.9 Q187.872 1830.3 193.682 1830.3 Z" fill="#000000" fill-rule="evenodd" fill-opacity="1" /><path clip-path="url(#clip100)" d="M213.844 1859.6 L218.728 1859.6 L218.728 1865.48 L213.844 1865.48 L213.844 1859.6 Z" fill="#000000" fill-rule="evenodd" fill-opacity="1" /><path clip-path="url(#clip100)" d="M238.913 1834 Q235.302 1834 233.473 1837.57 Q231.668 1841.11 231.668 1848.24 Q231.668 1855.34 233.473 1858.91 Q235.302 1862.45 238.913 1862.45 Q242.547 1862.45 244.353 1858.91 Q246.181 1855.34 246.181 1848.24 Q246.181 1841.11 244.353 1837.57 Q242.547 1834 238.913 1834 M238.913 1830.3 Q244.723 1830.3 247.779 1834.9 Q250.857 1839.49 250.857 1848.24 Q250.857 1856.96 247.779 1861.57 Q244.723 1866.15 238.913 1866.15 Q233.103 1866.15 230.024 1861.57 Q226.969 1856.96 226.969 1848.24 Q226.969 1839.49 230.024 1834.9 Q233.103 1830.3 238.913 1830.3 Z" fill="#000000" fill-rule="evenodd" fill-opacity="1" /><path clip-path="url(#clip100)" d="M269.075 1834 Q265.464 1834 263.635 1837.57 Q261.83 1841.11 261.83 1848.24 Q261.83 1855.34 263.635 1858.91 Q265.464 1862.45 269.075 1862.45 Q272.709 1862.45 274.515 1858.91 Q276.343 1855.34 276.343 1848.24 Q276.343 1841.11 274.515 1837.57 Q272.709 1834 269.075 1834 M269.075 1830.3 Q274.885 1830.3 277.941 1834.9 Q281.019 1839.49 281.019 1848.24 Q281.019 1856.96 277.941 1861.57 Q274.885 1866.15 269.075 1866.15 Q263.265 1866.15 260.186 1861.57 Q257.13 1856.96 257.13 1848.24 Q257.13 1839.49 260.186 1834.9 Q263.265 1830.3 269.075 1830.3 Z" fill="#000000" fill-rule="evenodd" fill-opacity="1" /><path clip-path="url(#clip100)" d="M785.87 1834 Q782.259 1834 780.43 1837.57 Q778.625 1841.11 778.625 1848.24 Q778.625 1855.34 780.43 1858.91 Q782.259 1862.45 785.87 1862.45 Q789.504 1862.45 791.31 1858.91 Q793.139 1855.34 793.139 1848.24 Q793.139 1841.11 791.31 1837.57 Q789.504 1834 785.87 1834 M785.87 1830.3 Q791.68 1830.3 794.736 1834.9 Q797.814 1839.49 797.814 1848.24 Q797.814 1856.96 794.736 1861.57 Q791.68 1866.15 785.87 1866.15 Q780.06 1866.15 776.981 1861.57 Q773.926 1856.96 773.926 1848.24 Q773.926 1839.49 776.981 1834.9 Q780.06 1830.3 785.87 1830.3 Z" fill="#000000" fill-rule="evenodd" fill-opacity="1" /><path clip-path="url(#clip100)" d="M806.032 1859.6 L810.916 1859.6 L810.916 1865.48 L806.032 1865.48 L806.032 1859.6 Z" fill="#000000" fill-rule="evenodd" fill-opacity="1" /><path clip-path="url(#clip100)" d="M825.129 1861.55 L841.449 1861.55 L841.449 1865.48 L819.504 1865.48 L819.504 1861.55 Q822.166 1858.79 826.75 1854.16 Q831.356 1849.51 832.537 1848.17 Q834.782 1845.65 835.662 1843.91 Q836.564 1842.15 836.564 1840.46 Q836.564 1837.71 834.62 1835.97 Q832.699 1834.23 829.597 1834.23 Q827.398 1834.23 824.944 1835 Q822.513 1835.76 819.736 1837.31 L819.736 1832.59 Q822.56 1831.46 825.013 1830.88 Q827.467 1830.3 829.504 1830.3 Q834.874 1830.3 838.069 1832.98 Q841.263 1835.67 841.263 1840.16 Q841.263 1842.29 840.453 1844.21 Q839.666 1846.11 837.56 1848.7 Q836.981 1849.37 833.879 1852.59 Q830.777 1855.78 825.129 1861.55 Z" fill="#000000" fill-rule="evenodd" fill-opacity="1" /><path clip-path="url(#clip100)" d="M851.31 1830.92 L869.666 1830.92 L869.666 1834.86 L855.592 1834.86 L855.592 1843.33 Q856.61 1842.98 857.629 1842.82 Q858.647 1842.64 859.666 1842.64 Q865.453 1842.64 868.833 1845.81 Q872.212 1848.98 872.212 1854.4 Q872.212 1859.97 868.74 1863.08 Q865.268 1866.15 858.948 1866.15 Q856.773 1866.15 854.504 1865.78 Q852.259 1865.41 849.851 1864.67 L849.851 1859.97 Q851.935 1861.11 854.157 1861.66 Q856.379 1862.22 858.856 1862.22 Q862.86 1862.22 865.198 1860.11 Q867.536 1858.01 867.536 1854.4 Q867.536 1850.78 865.198 1848.68 Q862.86 1846.57 858.856 1846.57 Q856.981 1846.57 855.106 1846.99 Q853.254 1847.4 851.31 1848.28 L851.31 1830.92 Z" fill="#000000" fill-rule="evenodd" fill-opacity="1" /><path clip-path="url(#clip100)" d="M1377.06 1834 Q1373.45 1834 1371.62 1837.57 Q1369.82 1841.11 1369.82 1848.24 Q1369.82 1855.34 1371.62 1858.91 Q1373.45 1862.45 1377.06 1862.45 Q1380.7 1862.45 1382.5 1858.91 Q1384.33 1855.34 1384.33 1848.24 Q1384.33 1841.11 1382.5 1837.57 Q1380.7 1834 1377.06 1834 M1377.06 1830.3 Q1382.87 1830.3 1385.93 1834.9 Q1389.01 1839.49 1389.01 1848.24 Q1389.01 1856.96 1385.93 1861.57 Q1382.87 1866.15 1377.06 1866.15 Q1371.25 1866.15 1368.17 1861.57 Q1365.12 1856.96 1365.12 1848.24 Q1365.12 1839.49 1368.17 1834.9 Q1371.25 1830.3 1377.06 1830.3 Z" fill="#000000" fill-rule="evenodd" fill-opacity="1" /><path clip-path="url(#clip100)" d="M1397.23 1859.6 L1402.11 1859.6 L1402.11 1865.48 L1397.23 1865.48 L1397.23 1859.6 Z" fill="#000000" fill-rule="evenodd" fill-opacity="1" /><path clip-path="url(#clip100)" d="M1412.34 1830.92 L1430.7 1830.92 L1430.7 1834.86 L1416.62 1834.86 L1416.62 1843.33 Q1417.64 1842.98 1418.66 1842.82 Q1419.68 1842.64 1420.7 1842.64 Q1426.48 1842.64 1429.86 1845.81 Q1433.24 1848.98 1433.24 1854.4 Q1433.24 1859.97 1429.77 1863.08 Q1426.3 1866.15 1419.98 1866.15 Q1417.8 1866.15 1415.54 1865.78 Q1413.29 1865.41 1410.88 1864.67 L1410.88 1859.97 Q1412.97 1861.11 1415.19 1861.66 Q1417.41 1862.22 1419.89 1862.22 Q1423.89 1862.22 1426.23 1860.11 Q1428.57 1858.01 1428.57 1854.4 Q1428.57 1850.78 1426.23 1848.68 Q1423.89 1846.57 1419.89 1846.57 Q1418.01 1846.57 1416.14 1846.99 Q1414.29 1847.4 1412.34 1848.28 L1412.34 1830.92 Z" fill="#000000" fill-rule="evenodd" fill-opacity="1" /><path clip-path="url(#clip100)" d="M1452.46 1834 Q1448.85 1834 1447.02 1837.57 Q1445.21 1841.11 1445.21 1848.24 Q1445.21 1855.34 1447.02 1858.91 Q1448.85 1862.45 1452.46 1862.45 Q1456.09 1862.45 1457.9 1858.91 Q1459.72 1855.34 1459.72 1848.24 Q1459.72 1841.11 1457.9 1837.57 Q1456.09 1834 1452.46 1834 M1452.46 1830.3 Q1458.27 1830.3 1461.32 1834.9 Q1464.4 1839.49 1464.4 1848.24 Q1464.4 1856.96 1461.32 1861.57 Q1458.27 1866.15 1452.46 1866.15 Q1446.65 1866.15 1443.57 1861.57 Q1440.51 1856.96 1440.51 1848.24 Q1440.51 1839.49 1443.57 1834.9 Q1446.65 1830.3 1452.46 1830.3 Z" fill="#000000" fill-rule="evenodd" fill-opacity="1" /><path clip-path="url(#clip100)" d="M1969.25 1834 Q1965.64 1834 1963.81 1837.57 Q1962.01 1841.11 1962.01 1848.24 Q1962.01 1855.34 1963.81 1858.91 Q1965.64 1862.45 1969.25 1862.45 Q1972.89 1862.45 1974.69 1858.91 Q1976.52 1855.34 1976.52 1848.24 Q1976.52 1841.11 1974.69 1837.57 Q1972.89 1834 1969.25 1834 M1969.25 1830.3 Q1975.06 1830.3 1978.12 1834.9 Q1981.2 1839.49 1981.2 1848.24 Q1981.2 1856.96 1978.12 1861.57 Q1975.06 1866.15 1969.25 1866.15 Q1963.44 1866.15 1960.36 1861.57 Q1957.31 1856.96 1957.31 1848.24 Q1957.31 1839.49 1960.36 1834.9 Q1963.44 1830.3 1969.25 1830.3 Z" fill="#000000" fill-rule="evenodd" fill-opacity="1" /><path clip-path="url(#clip100)" d="M1989.41 1859.6 L1994.3 1859.6 L1994.3 1865.48 L1989.41 1865.48 L1989.41 1859.6 Z" fill="#000000" fill-rule="evenodd" fill-opacity="1" /><path clip-path="url(#clip100)" d="M2003.3 1830.92 L2025.52 1830.92 L2025.52 1832.91 L2012.98 1865.48 L2008.09 1865.48 L2019.9 1834.86 L2003.3 1834.86 L2003.3 1830.92 Z" fill="#000000" fill-rule="evenodd" fill-opacity="1" /><path clip-path="url(#clip100)" d="M2034.69 1830.92 L2053.05 1830.92 L2053.05 1834.86 L2038.97 1834.86 L2038.97 1843.33 Q2039.99 1842.98 2041.01 1842.82 Q2042.03 1842.64 2043.05 1842.64 Q2048.83 1842.64 2052.21 1845.81 Q2055.59 1848.98 2055.59 1854.4 Q2055.59 1859.97 2052.12 1863.08 Q2048.65 1866.15 2042.33 1866.15 Q2040.15 1866.15 2037.89 1865.78 Q2035.64 1865.41 2033.23 1864.67 L2033.23 1859.97 Q2035.32 1861.11 2037.54 1861.66 Q2039.76 1862.22 2042.24 1862.22 Q2046.24 1862.22 2048.58 1860.11 Q2050.92 1858.01 2050.92 1854.4 Q2050.92 1850.78 2048.58 1848.68 Q2046.24 1846.57 2042.24 1846.57 Q2040.36 1846.57 2038.49 1846.99 Q2036.64 1847.4 2034.69 1848.28 L2034.69 1830.92 Z" fill="#000000" fill-rule="evenodd" fill-opacity="1" /><path clip-path="url(#clip100)" d="M2550.21 1861.55 L2557.85 1861.55 L2557.85 1835.18 L2549.54 1836.85 L2549.54 1832.59 L2557.81 1830.92 L2562.48 1830.92 L2562.48 1861.55 L2570.12 1861.55 L2570.12 1865.48 L2550.21 1865.48 L2550.21 1861.55 Z" fill="#000000" fill-rule="evenodd" fill-opacity="1" /><path clip-path="url(#clip100)" d="M2579.56 1859.6 L2584.45 1859.6 L2584.45 1865.48 L2579.56 1865.48 L2579.56 1859.6 Z" fill="#000000" fill-rule="evenodd" fill-opacity="1" /><path clip-path="url(#clip100)" d="M2604.63 1834 Q2601.02 1834 2599.19 1837.57 Q2597.39 1841.11 2597.39 1848.24 Q2597.39 1855.34 2599.19 1858.91 Q2601.02 1862.45 2604.63 1862.45 Q2608.27 1862.45 2610.07 1858.91 Q2611.9 1855.34 2611.9 1848.24 Q2611.9 1841.11 2610.07 1837.57 Q2608.27 1834 2604.63 1834 M2604.63 1830.3 Q2610.44 1830.3 2613.5 1834.9 Q2616.58 1839.49 2616.58 1848.24 Q2616.58 1856.96 2613.5 1861.57 Q2610.44 1866.15 2604.63 1866.15 Q2598.82 1866.15 2595.75 1861.57 Q2592.69 1856.96 2592.69 1848.24 Q2592.69 1839.49 2595.75 1834.9 Q2598.82 1830.3 2604.63 1830.3 Z" fill="#000000" fill-rule="evenodd" fill-opacity="1" /><path clip-path="url(#clip100)" d="M2634.8 1834 Q2631.18 1834 2629.36 1837.57 Q2627.55 1841.11 2627.55 1848.24 Q2627.55 1855.34 2629.36 1858.91 Q2631.18 1862.45 2634.8 1862.45 Q2638.43 1862.45 2640.24 1858.91 Q2642.06 1855.34 2642.06 1848.24 Q2642.06 1841.11 2640.24 1837.57 Q2638.43 1834 2634.8 1834 M2634.8 1830.3 Q2640.61 1830.3 2643.66 1834.9 Q2646.74 1839.49 2646.74 1848.24 Q2646.74 1856.96 2643.66 1861.57 Q2640.61 1866.15 2634.8 1866.15 Q2628.99 1866.15 2625.91 1861.57 Q2622.85 1856.96 2622.85 1848.24 Q2622.85 1839.49 2625.91 1834.9 Q2628.99 1830.3 2634.8 1830.3 Z" fill="#000000" fill-rule="evenodd" fill-opacity="1" /><polyline clip-path="url(#clip102)" style="stroke:#000000; stroke-linecap:butt; stroke-linejoin:round; stroke-width:2; stroke-opacity:0.1; fill:none" points="
  189.154,1800.33 2640.76,1800.33 
  "/>
<polyline clip-path="url(#clip102)" style="stroke:#000000; stroke-linecap:butt; stroke-linejoin:round; stroke-width:2; stroke-opacity:0.1; fill:none" points="
  189.154,1371.09 2640.76,1371.09 
  "/>
<polyline clip-path="url(#clip102)" style="stroke:#000000; stroke-linecap:butt; stroke-linejoin:round; stroke-width:2; stroke-opacity:0.1; fill:none" points="
  189.154,941.851 2640.76,941.851 
  "/>
<polyline clip-path="url(#clip102)" style="stroke:#000000; stroke-linecap:butt; stroke-linejoin:round; stroke-width:2; stroke-opacity:0.1; fill:none" points="
  189.154,512.612 2640.76,512.612 
  "/>
<polyline clip-path="url(#clip102)" style="stroke:#000000; stroke-linecap:butt; stroke-linejoin:round; stroke-width:2; stroke-opacity:0.1; fill:none" points="
  189.154,83.3741 2640.76,83.3741 
  "/>
<polyline clip-path="url(#clip100)" style="stroke:#000000; stroke-linecap:butt; stroke-linejoin:round; stroke-width:4; stroke-opacity:1; fill:none" points="
  189.154,1800.78 189.154,47.2441 
  "/>
<polyline clip-path="url(#clip100)" style="stroke:#000000; stroke-linecap:butt; stroke-linejoin:round; stroke-width:4; stroke-opacity:1; fill:none" points="
  189.154,1800.33 208.052,1800.33 
  "/>
<polyline clip-path="url(#clip100)" style="stroke:#000000; stroke-linecap:butt; stroke-linejoin:round; stroke-width:4; stroke-opacity:1; fill:none" points="
  189.154,1371.09 208.052,1371.09 
  "/>
<polyline clip-path="url(#clip100)" style="stroke:#000000; stroke-linecap:butt; stroke-linejoin:round; stroke-width:4; stroke-opacity:1; fill:none" points="
  189.154,941.851 208.052,941.851 
  "/>
<polyline clip-path="url(#clip100)" style="stroke:#000000; stroke-linecap:butt; stroke-linejoin:round; stroke-width:4; stroke-opacity:1; fill:none" points="
  189.154,512.612 208.052,512.612 
  "/>
<polyline clip-path="url(#clip100)" style="stroke:#000000; stroke-linecap:butt; stroke-linejoin:round; stroke-width:4; stroke-opacity:1; fill:none" points="
  189.154,83.3741 208.052,83.3741 
  "/>
<path clip-path="url(#clip100)" d="M61.4965 1786.13 Q57.8854 1786.13 56.0567 1789.69 Q54.2512 1793.23 54.2512 1800.36 Q54.2512 1807.47 56.0567 1811.03 Q57.8854 1814.58 61.4965 1814.58 Q65.1307 1814.58 66.9363 1811.03 Q68.765 1807.47 68.765 1800.36 Q68.765 1793.23 66.9363 1789.69 Q65.1307 1786.13 61.4965 1786.13 M61.4965 1782.42 Q67.3067 1782.42 70.3622 1787.03 Q73.4409 1791.61 73.4409 1800.36 Q73.4409 1809.09 70.3622 1813.7 Q67.3067 1818.28 61.4965 1818.28 Q55.6864 1818.28 52.6077 1813.7 Q49.5521 1809.09 49.5521 1800.36 Q49.5521 1791.61 52.6077 1787.03 Q55.6864 1782.42 61.4965 1782.42 Z" fill="#000000" fill-rule="evenodd" fill-opacity="1" /><path clip-path="url(#clip100)" d="M81.6584 1811.73 L86.5427 1811.73 L86.5427 1817.61 L81.6584 1817.61 L81.6584 1811.73 Z" fill="#000000" fill-rule="evenodd" fill-opacity="1" /><path clip-path="url(#clip100)" d="M106.728 1786.13 Q103.117 1786.13 101.288 1789.69 Q99.4824 1793.23 99.4824 1800.36 Q99.4824 1807.47 101.288 1811.03 Q103.117 1814.58 106.728 1814.58 Q110.362 1814.58 112.168 1811.03 Q113.996 1807.47 113.996 1800.36 Q113.996 1793.23 112.168 1789.69 Q110.362 1786.13 106.728 1786.13 M106.728 1782.42 Q112.538 1782.42 115.593 1787.03 Q118.672 1791.61 118.672 1800.36 Q118.672 1809.09 115.593 1813.7 Q112.538 1818.28 106.728 1818.28 Q100.918 1818.28 97.8389 1813.7 Q94.7834 1809.09 94.7834 1800.36 Q94.7834 1791.61 97.8389 1787.03 Q100.918 1782.42 106.728 1782.42 Z" fill="#000000" fill-rule="evenodd" fill-opacity="1" /><path clip-path="url(#clip100)" d="M136.89 1786.13 Q133.279 1786.13 131.45 1789.69 Q129.644 1793.23 129.644 1800.36 Q129.644 1807.47 131.45 1811.03 Q133.279 1814.58 136.89 1814.58 Q140.524 1814.58 142.329 1811.03 Q144.158 1807.47 144.158 1800.36 Q144.158 1793.23 142.329 1789.69 Q140.524 1786.13 136.89 1786.13 M136.89 1782.42 Q142.7 1782.42 145.755 1787.03 Q148.834 1791.61 148.834 1800.36 Q148.834 1809.09 145.755 1813.7 Q142.7 1818.28 136.89 1818.28 Q131.079 1818.28 128.001 1813.7 Q124.945 1809.09 124.945 1800.36 Q124.945 1791.61 128.001 1787.03 Q131.079 1782.42 136.89 1782.42 Z" fill="#000000" fill-rule="evenodd" fill-opacity="1" /><path clip-path="url(#clip100)" d="M62.4919 1356.89 Q58.8808 1356.89 57.0521 1360.45 Q55.2465 1363.99 55.2465 1371.12 Q55.2465 1378.23 57.0521 1381.8 Q58.8808 1385.34 62.4919 1385.34 Q66.1261 1385.34 67.9317 1381.8 Q69.7604 1378.23 69.7604 1371.12 Q69.7604 1363.99 67.9317 1360.45 Q66.1261 1356.89 62.4919 1356.89 M62.4919 1353.18 Q68.302 1353.18 71.3576 1357.79 Q74.4363 1362.37 74.4363 1371.12 Q74.4363 1379.85 71.3576 1384.46 Q68.302 1389.04 62.4919 1389.04 Q56.6817 1389.04 53.603 1384.46 Q50.5475 1379.85 50.5475 1371.12 Q50.5475 1362.37 53.603 1357.79 Q56.6817 1353.18 62.4919 1353.18 Z" fill="#000000" fill-rule="evenodd" fill-opacity="1" /><path clip-path="url(#clip100)" d="M82.6538 1382.49 L87.538 1382.49 L87.538 1388.37 L82.6538 1388.37 L82.6538 1382.49 Z" fill="#000000" fill-rule="evenodd" fill-opacity="1" /><path clip-path="url(#clip100)" d="M101.751 1384.43 L118.07 1384.43 L118.07 1388.37 L96.126 1388.37 L96.126 1384.43 Q98.788 1381.68 103.371 1377.05 Q107.978 1372.4 109.158 1371.05 Q111.404 1368.53 112.283 1366.8 Q113.186 1365.04 113.186 1363.35 Q113.186 1360.59 111.242 1358.86 Q109.32 1357.12 106.218 1357.12 Q104.019 1357.12 101.566 1357.88 Q99.1352 1358.65 96.3574 1360.2 L96.3574 1355.48 Q99.1815 1354.34 101.635 1353.76 Q104.089 1353.18 106.126 1353.18 Q111.496 1353.18 114.691 1355.87 Q117.885 1358.55 117.885 1363.05 Q117.885 1365.17 117.075 1367.1 Q116.288 1368.99 114.181 1371.59 Q113.603 1372.26 110.501 1375.48 Q107.399 1378.67 101.751 1384.43 Z" fill="#000000" fill-rule="evenodd" fill-opacity="1" /><path clip-path="url(#clip100)" d="M127.931 1353.81 L146.288 1353.81 L146.288 1357.74 L132.214 1357.74 L132.214 1366.22 Q133.232 1365.87 134.251 1365.71 Q135.269 1365.52 136.288 1365.52 Q142.075 1365.52 145.454 1368.69 Q148.834 1371.86 148.834 1377.28 Q148.834 1382.86 145.362 1385.96 Q141.89 1389.04 135.57 1389.04 Q133.394 1389.04 131.126 1388.67 Q128.88 1388.3 126.473 1387.56 L126.473 1382.86 Q128.556 1383.99 130.779 1384.55 Q133.001 1385.11 135.478 1385.11 Q139.482 1385.11 141.82 1383 Q144.158 1380.89 144.158 1377.28 Q144.158 1373.67 141.82 1371.56 Q139.482 1369.46 135.478 1369.46 Q133.603 1369.46 131.728 1369.87 Q129.876 1370.29 127.931 1371.17 L127.931 1353.81 Z" fill="#000000" fill-rule="evenodd" fill-opacity="1" /><path clip-path="url(#clip100)" d="M61.4965 927.65 Q57.8854 927.65 56.0567 931.214 Q54.2512 934.756 54.2512 941.886 Q54.2512 948.992 56.0567 952.557 Q57.8854 956.098 61.4965 956.098 Q65.1307 956.098 66.9363 952.557 Q68.765 948.992 68.765 941.886 Q68.765 934.756 66.9363 931.214 Q65.1307 927.65 61.4965 927.65 M61.4965 923.946 Q67.3067 923.946 70.3622 928.552 Q73.4409 933.136 73.4409 941.886 Q73.4409 950.612 70.3622 955.219 Q67.3067 959.802 61.4965 959.802 Q55.6864 959.802 52.6077 955.219 Q49.5521 950.612 49.5521 941.886 Q49.5521 933.136 52.6077 928.552 Q55.6864 923.946 61.4965 923.946 Z" fill="#000000" fill-rule="evenodd" fill-opacity="1" /><path clip-path="url(#clip100)" d="M81.6584 953.251 L86.5427 953.251 L86.5427 959.131 L81.6584 959.131 L81.6584 953.251 Z" fill="#000000" fill-rule="evenodd" fill-opacity="1" /><path clip-path="url(#clip100)" d="M96.7741 924.571 L115.13 924.571 L115.13 928.506 L101.056 928.506 L101.056 936.978 Q102.075 936.631 103.094 936.469 Q104.112 936.284 105.131 936.284 Q110.918 936.284 114.297 939.455 Q117.677 942.626 117.677 948.043 Q117.677 953.622 114.205 956.723 Q110.732 959.802 104.413 959.802 Q102.237 959.802 99.9685 959.432 Q97.7232 959.061 95.3158 958.321 L95.3158 953.622 Q97.3991 954.756 99.6213 955.311 Q101.844 955.867 104.32 955.867 Q108.325 955.867 110.663 953.761 Q113.001 951.654 113.001 948.043 Q113.001 944.432 110.663 942.325 Q108.325 940.219 104.32 940.219 Q102.445 940.219 100.57 940.636 Q98.7185 941.052 96.7741 941.932 L96.7741 924.571 Z" fill="#000000" fill-rule="evenodd" fill-opacity="1" /><path clip-path="url(#clip100)" d="M136.89 927.65 Q133.279 927.65 131.45 931.214 Q129.644 934.756 129.644 941.886 Q129.644 948.992 131.45 952.557 Q133.279 956.098 136.89 956.098 Q140.524 956.098 142.329 952.557 Q144.158 948.992 144.158 941.886 Q144.158 934.756 142.329 931.214 Q140.524 927.65 136.89 927.65 M136.89 923.946 Q142.7 923.946 145.755 928.552 Q148.834 933.136 148.834 941.886 Q148.834 950.612 145.755 955.219 Q142.7 959.802 136.89 959.802 Q131.079 959.802 128.001 955.219 Q124.945 950.612 124.945 941.886 Q124.945 933.136 128.001 928.552 Q131.079 923.946 136.89 923.946 Z" fill="#000000" fill-rule="evenodd" fill-opacity="1" /><path clip-path="url(#clip100)" d="M62.4919 498.411 Q58.8808 498.411 57.0521 501.976 Q55.2465 505.518 55.2465 512.647 Q55.2465 519.754 57.0521 523.318 Q58.8808 526.86 62.4919 526.86 Q66.1261 526.86 67.9317 523.318 Q69.7604 519.754 69.7604 512.647 Q69.7604 505.518 67.9317 501.976 Q66.1261 498.411 62.4919 498.411 M62.4919 494.707 Q68.302 494.707 71.3576 499.314 Q74.4363 503.897 74.4363 512.647 Q74.4363 521.374 71.3576 525.98 Q68.302 530.564 62.4919 530.564 Q56.6817 530.564 53.603 525.98 Q50.5475 521.374 50.5475 512.647 Q50.5475 503.897 53.603 499.314 Q56.6817 494.707 62.4919 494.707 Z" fill="#000000" fill-rule="evenodd" fill-opacity="1" /><path clip-path="url(#clip100)" d="M82.6538 524.013 L87.538 524.013 L87.538 529.892 L82.6538 529.892 L82.6538 524.013 Z" fill="#000000" fill-rule="evenodd" fill-opacity="1" /><path clip-path="url(#clip100)" d="M96.5426 495.332 L118.765 495.332 L118.765 497.323 L106.218 529.892 L101.334 529.892 L113.14 499.268 L96.5426 499.268 L96.5426 495.332 Z" fill="#000000" fill-rule="evenodd" fill-opacity="1" /><path clip-path="url(#clip100)" d="M127.931 495.332 L146.288 495.332 L146.288 499.268 L132.214 499.268 L132.214 507.74 Q133.232 507.393 134.251 507.231 Q135.269 507.045 136.288 507.045 Q142.075 507.045 145.454 510.217 Q148.834 513.388 148.834 518.805 Q148.834 524.383 145.362 527.485 Q141.89 530.564 135.57 530.564 Q133.394 530.564 131.126 530.193 Q128.88 529.823 126.473 529.082 L126.473 524.383 Q128.556 525.518 130.779 526.073 Q133.001 526.629 135.478 526.629 Q139.482 526.629 141.82 524.522 Q144.158 522.416 144.158 518.805 Q144.158 515.193 141.82 513.087 Q139.482 510.981 135.478 510.981 Q133.603 510.981 131.728 511.397 Q129.876 511.814 127.931 512.694 L127.931 495.332 Z" fill="#000000" fill-rule="evenodd" fill-opacity="1" /><path clip-path="url(#clip100)" d="M52.3067 96.7189 L59.9456 96.7189 L59.9456 70.3533 L51.6354 72.02 L51.6354 67.7608 L59.8993 66.0941 L64.5752 66.0941 L64.5752 96.7189 L72.214 96.7189 L72.214 100.654 L52.3067 100.654 L52.3067 96.7189 Z" fill="#000000" fill-rule="evenodd" fill-opacity="1" /><path clip-path="url(#clip100)" d="M81.6584 94.7745 L86.5427 94.7745 L86.5427 100.654 L81.6584 100.654 L81.6584 94.7745 Z" fill="#000000" fill-rule="evenodd" fill-opacity="1" /><path clip-path="url(#clip100)" d="M106.728 69.1728 Q103.117 69.1728 101.288 72.7376 Q99.4824 76.2792 99.4824 83.4088 Q99.4824 90.5153 101.288 94.0801 Q103.117 97.6217 106.728 97.6217 Q110.362 97.6217 112.168 94.0801 Q113.996 90.5153 113.996 83.4088 Q113.996 76.2792 112.168 72.7376 Q110.362 69.1728 106.728 69.1728 M106.728 65.4691 Q112.538 65.4691 115.593 70.0756 Q118.672 74.6589 118.672 83.4088 Q118.672 92.1356 115.593 96.7421 Q112.538 101.325 106.728 101.325 Q100.918 101.325 97.8389 96.7421 Q94.7834 92.1356 94.7834 83.4088 Q94.7834 74.6589 97.8389 70.0756 Q100.918 65.4691 106.728 65.4691 Z" fill="#000000" fill-rule="evenodd" fill-opacity="1" /><path clip-path="url(#clip100)" d="M136.89 69.1728 Q133.279 69.1728 131.45 72.7376 Q129.644 76.2792 129.644 83.4088 Q129.644 90.5153 131.45 94.0801 Q133.279 97.6217 136.89 97.6217 Q140.524 97.6217 142.329 94.0801 Q144.158 90.5153 144.158 83.4088 Q144.158 76.2792 142.329 72.7376 Q140.524 69.1728 136.89 69.1728 M136.89 65.4691 Q142.7 65.4691 145.755 70.0756 Q148.834 74.6589 148.834 83.4088 Q148.834 92.1356 145.755 96.7421 Q142.7 101.325 136.89 101.325 Q131.079 101.325 128.001 96.7421 Q124.945 92.1356 124.945 83.4088 Q124.945 74.6589 128.001 70.0756 Q131.079 65.4691 136.89 65.4691 Z" fill="#000000" fill-rule="evenodd" fill-opacity="1" /><polyline clip-path="url(#clip102)" style="stroke:#009af9; stroke-linecap:butt; stroke-linejoin:round; stroke-width:4; stroke-opacity:1; fill:none" points="
  2386.05,181.663 612.572,1751.15 414.143,890.715 1210.68,1683.64 1900.14,1050.08 1660.45,96.8724 653.995,496.337 1846.23,1202.91 1476.83,364.395 1120,389.579 
  2423.54,529.794 665.691,1247.37 973.241,770.737 899.665,446.978 614.483,625.822 1213.86,1540.85 1974.47,606.407 711.256,1516.85 2340.11,758.734 2163.49,1532.43 
  500.302,161.272 472.392,825.609 606.042,576.148 2235.28,598.054 1507.71,132.869 1344.82,97.3754 2090.58,1587.16 1031.31,926.433 779.91,818.804 325.593,316.176 
  2015.33,1279.67 258.539,772.422 2346.64,378.749 1112.52,1074.15 1994.6,287.56 1828.78,1222.31 2295.94,1643.59 2395.21,1151.86 1625.4,600.699 2222.46,124.54 
  932.628,1602.35 1735.95,179.508 2242.74,460.631 1156.09,1098.8 1333.16,765.024 708.382,602.754 2537.29,1120.18 772.064,1028.88 812.468,727.186 1286.17,1010.86 
  2454.95,235.816 2301.59,1033.89 2505,1393.07 2277.26,505.349 1950.12,781.237 2376.49,861.084 1893.16,1235.47 1247.03,965.884 749.17,850.427 1073.66,1699.24 
  794.885,1273.71 1116.23,573.433 1874.77,1279.52 1932.83,384.9 854.898,916.506 2015.59,1252.94 1740.51,1568.77 1410.06,304.199 783.975,1007.73 2571.37,222.513 
  1642.22,1144.05 1935.7,1404.45 459.538,1291.1 2124.36,345.471 2084.04,910.781 1099.25,1593.27 1924.74,961.829 1489.43,1288.25 959.725,1691.35 1434.25,837.455 
  905.29,654.424 1691.95,393.212 918.053,1664.54 1737.42,359.91 478.738,119.067 687.353,475.258 1028.46,855.279 1033.47,339.806 2540.2,1499.97 390.109,1051.5 
  803.602,331.718 1970.56,501.11 1392.25,1552.53 385.963,1332.99 1391.84,1385.22 570.996,1247.29 2541.46,1583.87 468.151,974.541 1293.65,1129.88 880.009,1224.44 
  
  "/>
<path clip-path="url(#clip100)" d="
M270.874 1742.33 L568.465 1742.33 L568.465 1638.65 L270.874 1638.65  Z
  " fill="#ffffff" fill-rule="evenodd" fill-opacity="1"/>
<polyline clip-path="url(#clip100)" style="stroke:#000000; stroke-linecap:butt; stroke-linejoin:round; stroke-width:4; stroke-opacity:1; fill:none" points="
  270.874,1742.33 568.465,1742.33 568.465,1638.65 270.874,1638.65 270.874,1742.33 
  "/>
<polyline clip-path="url(#clip100)" style="stroke:#009af9; stroke-linecap:butt; stroke-linejoin:round; stroke-width:4; stroke-opacity:1; fill:none" points="
  298.114,1690.49 461.554,1690.49 
  "/>
<path clip-path="url(#clip100)" d="M502.637 1710.18 Q500.831 1714.81 499.118 1716.22 Q497.405 1717.63 494.535 1717.63 L491.132 1717.63 L491.132 1714.06 L493.632 1714.06 Q495.391 1714.06 496.364 1713.23 Q497.336 1712.4 498.516 1709.3 L499.28 1707.35 L488.794 1681.84 L493.308 1681.84 L501.41 1702.12 L509.512 1681.84 L514.026 1681.84 L502.637 1710.18 Z" fill="#000000" fill-rule="evenodd" fill-opacity="1" /><path clip-path="url(#clip100)" d="M521.317 1703.83 L528.956 1703.83 L528.956 1677.47 L520.646 1679.13 L520.646 1674.87 L528.91 1673.21 L533.586 1673.21 L533.586 1703.83 L541.225 1703.83 L541.225 1707.77 L521.317 1707.77 L521.317 1703.83 Z" fill="#000000" fill-rule="evenodd" fill-opacity="1" /></svg>
