<?xml version="1.0" encoding="utf-8"?>
<svg xmlns="http://www.w3.org/2000/svg" xmlns:xlink="http://www.w3.org/1999/xlink" width="672" height="480" viewBox="0 0 2688 1920">
<defs>
  <clipPath id="clip470">
    <rect x="0" y="0" width="2688" height="1920"/>
  </clipPath>
</defs>
<path clip-path="url(#clip470)" d="
M0 1920 L2688 1920 L2688 0 L0 0  Z
  " fill="#ffffff" fill-rule="evenodd" fill-opacity="1"/>
<defs>
  <clipPath id="clip471">
    <rect x="537" y="0" width="1883" height="1883"/>
  </clipPath>
</defs>
<path clip-path="url(#clip470)" d="
M159.478 1800.78 L2640.76 1800.78 L2640.76 47.2441 L159.478 47.2441  Z
  " fill="#ffffff" fill-rule="evenodd" fill-opacity="1"/>
<defs>
  <clipPath id="clip472">
    <rect x="159" y="47" width="2482" height="1755"/>
  </clipPath>
</defs>
<polyline clip-path="url(#clip472)" style="stroke:#000000; stroke-linecap:butt; stroke-linejoin:round; stroke-width:2; stroke-opacity:0.1; fill:none" points="
  223.765,1800.78 223.765,47.2441 
  "/>
<polyline clip-path="url(#clip472)" style="stroke:#000000; stroke-linecap:butt; stroke-linejoin:round; stroke-width:2; stroke-opacity:0.1; fill:none" points="
  811.654,1800.78 811.654,47.2441 
  "/>
<polyline clip-path="url(#clip472)" style="stroke:#000000; stroke-linecap:butt; stroke-linejoin:round; stroke-width:2; stroke-opacity:0.1; fill:none" points="
  1399.54,1800.78 1399.54,47.2441 
  "/>
<polyline clip-path="url(#clip472)" style="stroke:#000000; stroke-linecap:butt; stroke-linejoin:round; stroke-width:2; stroke-opacity:0.1; fill:none" points="
  1987.43,1800.78 1987.43,47.2441 
  "/>
<polyline clip-path="url(#clip472)" style="stroke:#000000; stroke-linecap:butt; stroke-linejoin:round; stroke-width:2; stroke-opacity:0.1; fill:none" points="
  2575.32,1800.78 2575.32,47.2441 
  "/>
<polyline clip-path="url(#clip470)" style="stroke:#000000; stroke-linecap:butt; stroke-linejoin:round; stroke-width:4; stroke-opacity:1; fill:none" points="
  159.478,1800.78 2640.76,1800.78 
  "/>
<polyline clip-path="url(#clip470)" style="stroke:#000000; stroke-linecap:butt; stroke-linejoin:round; stroke-width:4; stroke-opacity:1; fill:none" points="
  223.765,1800.78 223.765,1781.88 
  "/>
<polyline clip-path="url(#clip470)" style="stroke:#000000; stroke-linecap:butt; stroke-linejoin:round; stroke-width:4; stroke-opacity:1; fill:none" points="
  811.654,1800.78 811.654,1781.88 
  "/>
<polyline clip-path="url(#clip470)" style="stroke:#000000; stroke-linecap:butt; stroke-linejoin:round; stroke-width:4; stroke-opacity:1; fill:none" points="
  1399.54,1800.78 1399.54,1781.88 
  "/>
<polyline clip-path="url(#clip470)" style="stroke:#000000; stroke-linecap:butt; stroke-linejoin:round; stroke-width:4; stroke-opacity:1; fill:none" points="
  1987.43,1800.78 1987.43,1781.88 
  "/>
<polyline clip-path="url(#clip470)" style="stroke:#000000; stroke-linecap:butt; stroke-linejoin:round; stroke-width:4; stroke-opacity:1; fill:none" points="
  2575.32,1800.78 2575.32,1781.88 
  "/>
<path clip-path="url(#clip470)" d="M186.069 1834 Q182.458 1834 180.629 1837.57 Q178.823 1841.11 178.823 1848.24 Q178.823 1855.34 180.629 1858.91 Q182.458 1862.45 186.069 1862.45 Q189.703 1862.45 191.509 1858.91 Q193.337 1855.34 193.337 1848.24 Q193.337 1841.11 191.509 1837.57 Q189.703 1834 186.069 1834 M186.069 1830.3 Q191.879 1830.3 194.934 1834.9 Q198.013 1839.49 198.013 1848.24 Q198.013 1856.96 194.934 1861.57 Q191.879 1866.15 186.069 1866.15 Q180.259 1866.15 177.18 1861.57 Q174.124 1856.96 174.124 1848.24 Q174.124 1839.49 177.18 1834.9 Q180.259 1830.3 186.069 1830.3 Z" fill="#000000" fill-rule="evenodd" fill-opacity="1" /><path clip-path="url(#clip470)" d="M206.231 1859.6 L211.115 1859.6 L211.115 1865.48 L206.231 1865.48 L206.231 1859.6 Z" fill="#000000" fill-rule="evenodd" fill-opacity="1" /><path clip-path="url(#clip470)" d="M231.3 1834 Q227.689 1834 225.86 1837.57 Q224.055 1841.11 224.055 1848.24 Q224.055 1855.34 225.86 1858.91 Q227.689 1862.45 231.3 1862.45 Q234.934 1862.45 236.74 1858.91 Q238.568 1855.34 238.568 1848.24 Q238.568 1841.11 236.74 1837.57 Q234.934 1834 231.3 1834 M231.3 1830.3 Q237.11 1830.3 240.166 1834.9 Q243.244 1839.49 243.244 1848.24 Q243.244 1856.96 240.166 1861.57 Q237.11 1866.15 231.3 1866.15 Q225.49 1866.15 222.411 1861.57 Q219.356 1856.96 219.356 1848.24 Q219.356 1839.49 222.411 1834.9 Q225.49 1830.3 231.3 1830.3 Z" fill="#000000" fill-rule="evenodd" fill-opacity="1" /><path clip-path="url(#clip470)" d="M261.462 1834 Q257.851 1834 256.022 1837.57 Q254.217 1841.11 254.217 1848.24 Q254.217 1855.34 256.022 1858.91 Q257.851 1862.45 261.462 1862.45 Q265.096 1862.45 266.902 1858.91 Q268.73 1855.34 268.73 1848.24 Q268.73 1841.11 266.902 1837.57 Q265.096 1834 261.462 1834 M261.462 1830.3 Q267.272 1830.3 270.328 1834.9 Q273.406 1839.49 273.406 1848.24 Q273.406 1856.96 270.328 1861.57 Q267.272 1866.15 261.462 1866.15 Q255.652 1866.15 252.573 1861.57 Q249.517 1856.96 249.517 1848.24 Q249.517 1839.49 252.573 1834.9 Q255.652 1830.3 261.462 1830.3 Z" fill="#000000" fill-rule="evenodd" fill-opacity="1" /><path clip-path="url(#clip470)" d="M774.456 1834 Q770.845 1834 769.016 1837.57 Q767.21 1841.11 767.21 1848.24 Q767.21 1855.34 769.016 1858.91 Q770.845 1862.45 774.456 1862.45 Q778.09 1862.45 779.895 1858.91 Q781.724 1855.34 781.724 1848.24 Q781.724 1841.11 779.895 1837.57 Q778.09 1834 774.456 1834 M774.456 1830.3 Q780.266 1830.3 783.321 1834.9 Q786.4 1839.49 786.4 1848.24 Q786.4 1856.96 783.321 1861.57 Q780.266 1866.15 774.456 1866.15 Q768.645 1866.15 765.567 1861.57 Q762.511 1856.96 762.511 1848.24 Q762.511 1839.49 765.567 1834.9 Q768.645 1830.3 774.456 1830.3 Z" fill="#000000" fill-rule="evenodd" fill-opacity="1" /><path clip-path="url(#clip470)" d="M794.618 1859.6 L799.502 1859.6 L799.502 1865.48 L794.618 1865.48 L794.618 1859.6 Z" fill="#000000" fill-rule="evenodd" fill-opacity="1" /><path clip-path="url(#clip470)" d="M813.715 1861.55 L830.034 1861.55 L830.034 1865.48 L808.09 1865.48 L808.09 1861.55 Q810.752 1858.79 815.335 1854.16 Q819.941 1849.51 821.122 1848.17 Q823.367 1845.65 824.247 1843.91 Q825.15 1842.15 825.15 1840.46 Q825.15 1837.71 823.205 1835.97 Q821.284 1834.23 818.182 1834.23 Q815.983 1834.23 813.529 1835 Q811.099 1835.76 808.321 1837.31 L808.321 1832.59 Q811.145 1831.46 813.599 1830.88 Q816.053 1830.3 818.09 1830.3 Q823.46 1830.3 826.654 1832.98 Q829.849 1835.67 829.849 1840.16 Q829.849 1842.29 829.039 1844.21 Q828.252 1846.11 826.145 1848.7 Q825.566 1849.37 822.465 1852.59 Q819.363 1855.78 813.715 1861.55 Z" fill="#000000" fill-rule="evenodd" fill-opacity="1" /><path clip-path="url(#clip470)" d="M839.895 1830.92 L858.251 1830.92 L858.251 1834.86 L844.177 1834.86 L844.177 1843.33 Q845.196 1842.98 846.214 1842.82 Q847.233 1842.64 848.252 1842.64 Q854.039 1842.64 857.418 1845.81 Q860.798 1848.98 860.798 1854.4 Q860.798 1859.97 857.326 1863.08 Q853.853 1866.15 847.534 1866.15 Q845.358 1866.15 843.089 1865.78 Q840.844 1865.41 838.437 1864.67 L838.437 1859.97 Q840.52 1861.11 842.742 1861.66 Q844.964 1862.22 847.441 1862.22 Q851.446 1862.22 853.784 1860.11 Q856.122 1858.01 856.122 1854.4 Q856.122 1850.78 853.784 1848.68 Q851.446 1846.57 847.441 1846.57 Q845.566 1846.57 843.691 1846.99 Q841.84 1847.4 839.895 1848.28 L839.895 1830.92 Z" fill="#000000" fill-rule="evenodd" fill-opacity="1" /><path clip-path="url(#clip470)" d="M1361.85 1834 Q1358.24 1834 1356.41 1837.57 Q1354.6 1841.11 1354.6 1848.24 Q1354.6 1855.34 1356.41 1858.91 Q1358.24 1862.45 1361.85 1862.45 Q1365.48 1862.45 1367.29 1858.91 Q1369.12 1855.34 1369.12 1848.24 Q1369.12 1841.11 1367.29 1837.57 Q1365.48 1834 1361.85 1834 M1361.85 1830.3 Q1367.66 1830.3 1370.71 1834.9 Q1373.79 1839.49 1373.79 1848.24 Q1373.79 1856.96 1370.71 1861.57 Q1367.66 1866.15 1361.85 1866.15 Q1356.04 1866.15 1352.96 1861.57 Q1349.9 1856.96 1349.9 1848.24 Q1349.9 1839.49 1352.96 1834.9 Q1356.04 1830.3 1361.85 1830.3 Z" fill="#000000" fill-rule="evenodd" fill-opacity="1" /><path clip-path="url(#clip470)" d="M1382.01 1859.6 L1386.89 1859.6 L1386.89 1865.48 L1382.01 1865.48 L1382.01 1859.6 Z" fill="#000000" fill-rule="evenodd" fill-opacity="1" /><path clip-path="url(#clip470)" d="M1397.12 1830.92 L1415.48 1830.92 L1415.48 1834.86 L1401.41 1834.86 L1401.41 1843.33 Q1402.43 1842.98 1403.44 1842.82 Q1404.46 1842.64 1405.48 1842.64 Q1411.27 1842.64 1414.65 1845.81 Q1418.03 1848.98 1418.03 1854.4 Q1418.03 1859.97 1414.56 1863.08 Q1411.08 1866.15 1404.76 1866.15 Q1402.59 1866.15 1400.32 1865.78 Q1398.07 1865.41 1395.67 1864.67 L1395.67 1859.97 Q1397.75 1861.11 1399.97 1861.66 Q1402.19 1862.22 1404.67 1862.22 Q1408.68 1862.22 1411.01 1860.11 Q1413.35 1858.01 1413.35 1854.4 Q1413.35 1850.78 1411.01 1848.68 Q1408.68 1846.57 1404.67 1846.57 Q1402.8 1846.57 1400.92 1846.99 Q1399.07 1847.4 1397.12 1848.28 L1397.12 1830.92 Z" fill="#000000" fill-rule="evenodd" fill-opacity="1" /><path clip-path="url(#clip470)" d="M1437.24 1834 Q1433.63 1834 1431.8 1837.57 Q1429.99 1841.11 1429.99 1848.24 Q1429.99 1855.34 1431.8 1858.91 Q1433.63 1862.45 1437.24 1862.45 Q1440.87 1862.45 1442.68 1858.91 Q1444.51 1855.34 1444.51 1848.24 Q1444.51 1841.11 1442.68 1837.57 Q1440.87 1834 1437.24 1834 M1437.24 1830.3 Q1443.05 1830.3 1446.11 1834.9 Q1449.18 1839.49 1449.18 1848.24 Q1449.18 1856.96 1446.11 1861.57 Q1443.05 1866.15 1437.24 1866.15 Q1431.43 1866.15 1428.35 1861.57 Q1425.3 1856.96 1425.3 1848.24 Q1425.3 1839.49 1428.35 1834.9 Q1431.43 1830.3 1437.24 1830.3 Z" fill="#000000" fill-rule="evenodd" fill-opacity="1" /><path clip-path="url(#clip470)" d="M1950.23 1834 Q1946.62 1834 1944.79 1837.57 Q1942.99 1841.11 1942.99 1848.24 Q1942.99 1855.34 1944.79 1858.91 Q1946.62 1862.45 1950.23 1862.45 Q1953.87 1862.45 1955.67 1858.91 Q1957.5 1855.34 1957.5 1848.24 Q1957.5 1841.11 1955.67 1837.57 Q1953.87 1834 1950.23 1834 M1950.23 1830.3 Q1956.04 1830.3 1959.1 1834.9 Q1962.18 1839.49 1962.18 1848.24 Q1962.18 1856.96 1959.1 1861.57 Q1956.04 1866.15 1950.23 1866.15 Q1944.42 1866.15 1941.35 1861.57 Q1938.29 1856.96 1938.29 1848.24 Q1938.29 1839.49 1941.35 1834.9 Q1944.42 1830.3 1950.23 1830.3 Z" fill="#000000" fill-rule="evenodd" fill-opacity="1" /><path clip-path="url(#clip470)" d="M1970.4 1859.6 L1975.28 1859.6 L1975.28 1865.48 L1970.4 1865.48 L1970.4 1859.6 Z" fill="#000000" fill-rule="evenodd" fill-opacity="1" /><path clip-path="url(#clip470)" d="M1984.28 1830.92 L2006.51 1830.92 L2006.51 1832.91 L1993.96 1865.48 L1989.08 1865.48 L2000.88 1834.86 L1984.28 1834.86 L1984.28 1830.92 Z" fill="#000000" fill-rule="evenodd" fill-opacity="1" /><path clip-path="url(#clip470)" d="M2015.67 1830.92 L2034.03 1830.92 L2034.03 1834.86 L2019.96 1834.86 L2019.96 1843.33 Q2020.97 1842.98 2021.99 1842.82 Q2023.01 1842.64 2024.03 1842.64 Q2029.82 1842.64 2033.2 1845.81 Q2036.58 1848.98 2036.58 1854.4 Q2036.58 1859.97 2033.1 1863.08 Q2029.63 1866.15 2023.31 1866.15 Q2021.14 1866.15 2018.87 1865.78 Q2016.62 1865.41 2014.22 1864.67 L2014.22 1859.97 Q2016.3 1861.11 2018.52 1861.66 Q2020.74 1862.22 2023.22 1862.22 Q2027.22 1862.22 2029.56 1860.11 Q2031.9 1858.01 2031.9 1854.4 Q2031.9 1850.78 2029.56 1848.68 Q2027.22 1846.57 2023.22 1846.57 Q2021.34 1846.57 2019.47 1846.99 Q2017.62 1847.4 2015.67 1848.28 L2015.67 1830.92 Z" fill="#000000" fill-rule="evenodd" fill-opacity="1" /><path clip-path="url(#clip470)" d="M2527.39 1861.55 L2535.03 1861.55 L2535.03 1835.18 L2526.72 1836.85 L2526.72 1832.59 L2534.99 1830.92 L2539.66 1830.92 L2539.66 1861.55 L2547.3 1861.55 L2547.3 1865.48 L2527.39 1865.48 L2527.39 1861.55 Z" fill="#000000" fill-rule="evenodd" fill-opacity="1" /><path clip-path="url(#clip470)" d="M2556.75 1859.6 L2561.63 1859.6 L2561.63 1865.48 L2556.75 1865.48 L2556.75 1859.6 Z" fill="#000000" fill-rule="evenodd" fill-opacity="1" /><path clip-path="url(#clip470)" d="M2581.81 1834 Q2578.2 1834 2576.38 1837.57 Q2574.57 1841.11 2574.57 1848.24 Q2574.57 1855.34 2576.38 1858.91 Q2578.2 1862.45 2581.81 1862.45 Q2585.45 1862.45 2587.25 1858.91 Q2589.08 1855.34 2589.08 1848.24 Q2589.08 1841.11 2587.25 1837.57 Q2585.45 1834 2581.81 1834 M2581.81 1830.3 Q2587.63 1830.3 2590.68 1834.9 Q2593.76 1839.49 2593.76 1848.24 Q2593.76 1856.96 2590.68 1861.57 Q2587.63 1866.15 2581.81 1866.15 Q2576 1866.15 2572.93 1861.57 Q2569.87 1856.96 2569.87 1848.24 Q2569.87 1839.49 2572.93 1834.9 Q2576 1830.3 2581.81 1830.3 Z" fill="#000000" fill-rule="evenodd" fill-opacity="1" /><path clip-path="url(#clip470)" d="M2611.98 1834 Q2608.37 1834 2606.54 1837.57 Q2604.73 1841.11 2604.73 1848.24 Q2604.73 1855.34 2606.54 1858.91 Q2608.37 1862.45 2611.98 1862.45 Q2615.61 1862.45 2617.42 1858.91 Q2619.25 1855.34 2619.25 1848.24 Q2619.25 1841.11 2617.42 1837.57 Q2615.61 1834 2611.98 1834 M2611.98 1830.3 Q2617.79 1830.3 2620.84 1834.9 Q2623.92 1839.49 2623.92 1848.24 Q2623.92 1856.96 2620.84 1861.57 Q2617.79 1866.15 2611.98 1866.15 Q2606.17 1866.15 2603.09 1861.57 Q2600.03 1856.96 2600.03 1848.24 Q2600.03 1839.49 2603.09 1834.9 Q2606.17 1830.3 2611.98 1830.3 Z" fill="#000000" fill-rule="evenodd" fill-opacity="1" /><polyline clip-path="url(#clip472)" style="stroke:#000000; stroke-linecap:butt; stroke-linejoin:round; stroke-width:2; stroke-opacity:0.1; fill:none" points="
  159.478,1501.11 2640.76,1501.11 
  "/>
<polyline clip-path="url(#clip472)" style="stroke:#000000; stroke-linecap:butt; stroke-linejoin:round; stroke-width:2; stroke-opacity:0.1; fill:none" points="
  159.478,1146.68 2640.76,1146.68 
  "/>
<polyline clip-path="url(#clip472)" style="stroke:#000000; stroke-linecap:butt; stroke-linejoin:round; stroke-width:2; stroke-opacity:0.1; fill:none" points="
  159.478,792.254 2640.76,792.254 
  "/>
<polyline clip-path="url(#clip472)" style="stroke:#000000; stroke-linecap:butt; stroke-linejoin:round; stroke-width:2; stroke-opacity:0.1; fill:none" points="
  159.478,437.827 2640.76,437.827 
  "/>
<polyline clip-path="url(#clip472)" style="stroke:#000000; stroke-linecap:butt; stroke-linejoin:round; stroke-width:2; stroke-opacity:0.1; fill:none" points="
  159.478,83.4008 2640.76,83.4008 
  "/>
<polyline clip-path="url(#clip470)" style="stroke:#000000; stroke-linecap:butt; stroke-linejoin:round; stroke-width:4; stroke-opacity:1; fill:none" points="
  159.478,1800.78 159.478,47.2441 
  "/>
<polyline clip-path="url(#clip470)" style="stroke:#000000; stroke-linecap:butt; stroke-linejoin:round; stroke-width:4; stroke-opacity:1; fill:none" points="
  159.478,1501.11 178.376,1501.11 
  "/>
<polyline clip-path="url(#clip470)" style="stroke:#000000; stroke-linecap:butt; stroke-linejoin:round; stroke-width:4; stroke-opacity:1; fill:none" points="
  159.478,1146.68 178.376,1146.68 
  "/>
<polyline clip-path="url(#clip470)" style="stroke:#000000; stroke-linecap:butt; stroke-linejoin:round; stroke-width:4; stroke-opacity:1; fill:none" points="
  159.478,792.254 178.376,792.254 
  "/>
<polyline clip-path="url(#clip470)" style="stroke:#000000; stroke-linecap:butt; stroke-linejoin:round; stroke-width:4; stroke-opacity:1; fill:none" points="
  159.478,437.827 178.376,437.827 
  "/>
<polyline clip-path="url(#clip470)" style="stroke:#000000; stroke-linecap:butt; stroke-linejoin:round; stroke-width:4; stroke-opacity:1; fill:none" points="
  159.478,83.4008 178.376,83.4008 
  "/>
<path clip-path="url(#clip470)" d="M63.5798 1486.91 Q59.9687 1486.91 58.14 1490.47 Q56.3345 1494.01 56.3345 1501.14 Q56.3345 1508.25 58.14 1511.81 Q59.9687 1515.35 63.5798 1515.35 Q67.2141 1515.35 69.0196 1511.81 Q70.8483 1508.25 70.8483 1501.14 Q70.8483 1494.01 69.0196 1490.47 Q67.2141 1486.91 63.5798 1486.91 M63.5798 1483.2 Q69.39 1483.2 72.4455 1487.81 Q75.5242 1492.39 75.5242 1501.14 Q75.5242 1509.87 72.4455 1514.48 Q69.39 1519.06 63.5798 1519.06 Q57.7697 1519.06 54.691 1514.48 Q51.6354 1509.87 51.6354 1501.14 Q51.6354 1492.39 54.691 1487.81 Q57.7697 1483.2 63.5798 1483.2 Z" fill="#000000" fill-rule="evenodd" fill-opacity="1" /><path clip-path="url(#clip470)" d="M83.7418 1512.51 L88.626 1512.51 L88.626 1518.39 L83.7418 1518.39 L83.7418 1512.51 Z" fill="#000000" fill-rule="evenodd" fill-opacity="1" /><path clip-path="url(#clip470)" d="M102.839 1514.45 L119.158 1514.45 L119.158 1518.39 L97.2139 1518.39 L97.2139 1514.45 Q99.8759 1511.7 104.459 1507.07 Q109.066 1502.41 110.246 1501.07 Q112.492 1498.55 113.371 1496.81 Q114.274 1495.05 114.274 1493.36 Q114.274 1490.61 112.33 1488.87 Q110.408 1487.14 107.306 1487.14 Q105.107 1487.14 102.654 1487.9 Q100.223 1488.66 97.4454 1490.22 L97.4454 1485.49 Q100.269 1484.36 102.723 1483.78 Q105.177 1483.2 107.214 1483.2 Q112.584 1483.2 115.779 1485.89 Q118.973 1488.57 118.973 1493.06 Q118.973 1495.19 118.163 1497.11 Q117.376 1499.01 115.269 1501.6 Q114.691 1502.28 111.589 1505.49 Q108.487 1508.69 102.839 1514.45 Z" fill="#000000" fill-rule="evenodd" fill-opacity="1" /><path clip-path="url(#clip470)" d="M61.4965 1132.48 Q57.8854 1132.48 56.0567 1136.04 Q54.2512 1139.59 54.2512 1146.72 Q54.2512 1153.82 56.0567 1157.39 Q57.8854 1160.93 61.4965 1160.93 Q65.1307 1160.93 66.9363 1157.39 Q68.765 1153.82 68.765 1146.72 Q68.765 1139.59 66.9363 1136.04 Q65.1307 1132.48 61.4965 1132.48 M61.4965 1128.78 Q67.3067 1128.78 70.3622 1133.38 Q73.4409 1137.97 73.4409 1146.72 Q73.4409 1155.44 70.3622 1160.05 Q67.3067 1164.63 61.4965 1164.63 Q55.6864 1164.63 52.6077 1160.05 Q49.5521 1155.44 49.5521 1146.72 Q49.5521 1137.97 52.6077 1133.38 Q55.6864 1128.78 61.4965 1128.78 Z" fill="#000000" fill-rule="evenodd" fill-opacity="1" /><path clip-path="url(#clip470)" d="M81.6584 1158.08 L86.5427 1158.08 L86.5427 1163.96 L81.6584 1163.96 L81.6584 1158.08 Z" fill="#000000" fill-rule="evenodd" fill-opacity="1" /><path clip-path="url(#clip470)" d="M109.575 1133.47 L97.7695 1151.92 L109.575 1151.92 L109.575 1133.47 M108.348 1129.4 L114.228 1129.4 L114.228 1151.92 L119.158 1151.92 L119.158 1155.81 L114.228 1155.81 L114.228 1163.96 L109.575 1163.96 L109.575 1155.81 L93.9732 1155.81 L93.9732 1151.3 L108.348 1129.4 Z" fill="#000000" fill-rule="evenodd" fill-opacity="1" /><path clip-path="url(#clip470)" d="M61.8206 778.053 Q58.2095 778.053 56.3808 781.617 Q54.5752 785.159 54.5752 792.289 Q54.5752 799.395 56.3808 802.96 Q58.2095 806.502 61.8206 806.502 Q65.4548 806.502 67.2604 802.96 Q69.0891 799.395 69.0891 792.289 Q69.0891 785.159 67.2604 781.617 Q65.4548 778.053 61.8206 778.053 M61.8206 774.349 Q67.6307 774.349 70.6863 778.955 Q73.765 783.539 73.765 792.289 Q73.765 801.015 70.6863 805.622 Q67.6307 810.205 61.8206 810.205 Q56.0104 810.205 52.9317 805.622 Q49.8762 801.015 49.8762 792.289 Q49.8762 783.539 52.9317 778.955 Q56.0104 774.349 61.8206 774.349 Z" fill="#000000" fill-rule="evenodd" fill-opacity="1" /><path clip-path="url(#clip470)" d="M81.9825 803.654 L86.8667 803.654 L86.8667 809.534 L81.9825 809.534 L81.9825 803.654 Z" fill="#000000" fill-rule="evenodd" fill-opacity="1" /><path clip-path="url(#clip470)" d="M107.631 790.391 Q104.482 790.391 102.631 792.543 Q100.802 794.696 100.802 798.446 Q100.802 802.173 102.631 804.349 Q104.482 806.502 107.631 806.502 Q110.779 806.502 112.607 804.349 Q114.459 802.173 114.459 798.446 Q114.459 794.696 112.607 792.543 Q110.779 790.391 107.631 790.391 M116.913 775.738 L116.913 779.997 Q115.154 779.164 113.348 778.724 Q111.566 778.284 109.806 778.284 Q105.177 778.284 102.723 781.409 Q100.293 784.534 99.9454 790.853 Q101.311 788.84 103.371 787.775 Q105.431 786.687 107.908 786.687 Q113.117 786.687 116.126 789.858 Q119.158 793.006 119.158 798.446 Q119.158 803.77 116.01 806.988 Q112.862 810.205 107.631 810.205 Q101.635 810.205 98.4639 805.622 Q95.2926 801.015 95.2926 792.289 Q95.2926 784.094 99.1815 779.233 Q103.07 774.349 109.621 774.349 Q111.38 774.349 113.163 774.696 Q114.968 775.043 116.913 775.738 Z" fill="#000000" fill-rule="evenodd" fill-opacity="1" /><path clip-path="url(#clip470)" d="M62.0752 423.626 Q58.4641 423.626 56.6354 427.191 Q54.8299 430.733 54.8299 437.862 Q54.8299 444.969 56.6354 448.533 Q58.4641 452.075 62.0752 452.075 Q65.7094 452.075 67.515 448.533 Q69.3437 444.969 69.3437 437.862 Q69.3437 430.733 67.515 427.191 Q65.7094 423.626 62.0752 423.626 M62.0752 419.922 Q67.8854 419.922 70.9409 424.529 Q74.0196 429.112 74.0196 437.862 Q74.0196 446.589 70.9409 451.195 Q67.8854 455.779 62.0752 455.779 Q56.2651 455.779 53.1864 451.195 Q50.1308 446.589 50.1308 437.862 Q50.1308 429.112 53.1864 424.529 Q56.2651 419.922 62.0752 419.922 Z" fill="#000000" fill-rule="evenodd" fill-opacity="1" /><path clip-path="url(#clip470)" d="M82.2371 449.228 L87.1214 449.228 L87.1214 455.107 L82.2371 455.107 L82.2371 449.228 Z" fill="#000000" fill-rule="evenodd" fill-opacity="1" /><path clip-path="url(#clip470)" d="M107.306 438.695 Q103.973 438.695 102.052 440.478 Q100.154 442.26 100.154 445.385 Q100.154 448.51 102.052 450.293 Q103.973 452.075 107.306 452.075 Q110.64 452.075 112.561 450.293 Q114.482 448.487 114.482 445.385 Q114.482 442.26 112.561 440.478 Q110.663 438.695 107.306 438.695 M102.631 436.705 Q99.6213 435.964 97.9315 433.904 Q96.2648 431.844 96.2648 428.881 Q96.2648 424.737 99.2046 422.33 Q102.168 419.922 107.306 419.922 Q112.468 419.922 115.408 422.33 Q118.348 424.737 118.348 428.881 Q118.348 431.844 116.658 433.904 Q114.992 435.964 112.005 436.705 Q115.385 437.492 117.26 439.783 Q119.158 442.075 119.158 445.385 Q119.158 450.408 116.08 453.093 Q113.024 455.779 107.306 455.779 Q101.589 455.779 98.5102 453.093 Q95.4547 450.408 95.4547 445.385 Q95.4547 442.075 97.3528 439.783 Q99.2509 437.492 102.631 436.705 M100.918 429.32 Q100.918 432.006 102.584 433.51 Q104.274 435.015 107.306 435.015 Q110.316 435.015 112.005 433.51 Q113.718 432.006 113.718 429.32 Q113.718 426.635 112.005 425.131 Q110.316 423.626 107.306 423.626 Q104.274 423.626 102.584 425.131 Q100.918 426.635 100.918 429.32 Z" fill="#000000" fill-rule="evenodd" fill-opacity="1" /><path clip-path="url(#clip470)" d="M52.7928 96.7457 L60.4317 96.7457 L60.4317 70.3801 L52.1216 72.0467 L52.1216 67.7875 L60.3854 66.1208 L65.0613 66.1208 L65.0613 96.7457 L72.7002 96.7457 L72.7002 100.681 L52.7928 100.681 L52.7928 96.7457 Z" fill="#000000" fill-rule="evenodd" fill-opacity="1" /><path clip-path="url(#clip470)" d="M82.1445 94.8012 L87.0288 94.8012 L87.0288 100.681 L82.1445 100.681 L82.1445 94.8012 Z" fill="#000000" fill-rule="evenodd" fill-opacity="1" /><path clip-path="url(#clip470)" d="M107.214 69.1995 Q103.603 69.1995 101.774 72.7643 Q99.9685 76.3059 99.9685 83.4355 Q99.9685 90.542 101.774 94.1068 Q103.603 97.6484 107.214 97.6484 Q110.848 97.6484 112.654 94.1068 Q114.482 90.542 114.482 83.4355 Q114.482 76.3059 112.654 72.7643 Q110.848 69.1995 107.214 69.1995 M107.214 65.4958 Q113.024 65.4958 116.08 70.1023 Q119.158 74.6856 119.158 83.4355 Q119.158 92.1623 116.08 96.7688 Q113.024 101.352 107.214 101.352 Q101.404 101.352 98.325 96.7688 Q95.2695 92.1623 95.2695 83.4355 Q95.2695 74.6856 98.325 70.1023 Q101.404 65.4958 107.214 65.4958 Z" fill="#000000" fill-rule="evenodd" fill-opacity="1" /><polyline clip-path="url(#clip472)" style="stroke:#009af9; stroke-linecap:butt; stroke-linejoin:round; stroke-width:4; stroke-opacity:1; fill:none" points="
  693.028,425.519 1251.49,1074.16 2441.41,1340.75 2277.98,538.456 2121.54,397.224 2118.86,1357.63 2278.8,876.716 1635.87,306.143 2360.55,1718.01 2277.14,972.805 
  535.95,1751.15 1491.65,866.839 1290.47,182.193 878.508,415.203 2125.38,1300.05 830.766,1115.57 1951.9,1157.48 1063.76,1151.1 2267.5,1463.55 922.774,1530.66 
  975.396,336.561 1425.64,1480.26 229.703,191.303 576.741,1621.77 1576.65,1479.52 1791.95,1321.92 649.373,588.326 2350.32,396.236 2129.51,886.723 2430.86,764.726 
  2196.52,1274.05 758.739,1736.4 1965.76,288.993 2565.68,792.64 2505.46,121.499 899.737,1701.68 1865.5,1624.64 406.038,96.8724 1182.08,1350.88 375.417,1540.86 
  2344.9,218.629 939.965,1149.3 2383.86,1609.86 2237.71,1384.48 1393.67,797.39 368.561,1382.03 1254.52,513.062 1044.86,1470.5 483.018,1215.12 2198.94,305.735 
  2048.39,1384.35 1173.42,838.068 1306.11,1263.88 414.499,1200.37 1267.8,1054.55 1981.6,1446.07 2229.42,1064.5 644.573,692.808 1019.44,660.728 834.673,1492.85 
  2563.51,408.478 914.912,480.308 1643.72,141.778 1374.62,1583.39 961.488,1177.51 1158.46,213.872 555.573,582.973 1815.82,444.531 1943.34,599.272 1542.19,117.562 
  711.995,1314.91 737.465,639.413 1593.44,435.472 1801.55,577.39 1968.67,140.664 809.759,1657.17 1598.26,1485.36 2455.77,722.918 984.2,508.227 882.449,350.357 
  2210.22,360.885 993.756,559.172 561.065,525.703 1174.36,1274.48 936.15,1594.68 1192.95,992.683 2059.37,1541.27 2570.53,1227.79 258.112,388.872 1952.86,761.284 
  355.713,1146.94 444.932,467.731 641.164,1699.22 2228.4,1088.35 487.152,1489.39 1992.31,1031.08 1969.39,898.593 1048.3,383.577 2320.24,1631.47 1737.74,433.323 
  
  "/>
<path clip-path="url(#clip470)" d="
M242.187 1742.33 L542.746 1742.33 L542.746 1638.65 L242.187 1638.65  Z
  " fill="#ffffff" fill-rule="evenodd" fill-opacity="1"/>
<polyline clip-path="url(#clip470)" style="stroke:#000000; stroke-linecap:butt; stroke-linejoin:round; stroke-width:4; stroke-opacity:1; fill:none" points="
  242.187,1742.33 542.746,1742.33 542.746,1638.65 242.187,1638.65 242.187,1742.33 
  "/>
<polyline clip-path="url(#clip470)" style="stroke:#009af9; stroke-linecap:butt; stroke-linejoin:round; stroke-width:4; stroke-opacity:1; fill:none" points="
  269.757,1690.49 435.176,1690.49 
  "/>
<path clip-path="url(#clip470)" d="M476.588 1710.18 Q474.782 1714.81 473.07 1716.22 Q471.357 1717.63 468.486 1717.63 L465.083 1717.63 L465.083 1714.06 L467.583 1714.06 Q469.343 1714.06 470.315 1713.23 Q471.287 1712.4 472.468 1709.3 L473.232 1707.35 L462.746 1681.84 L467.259 1681.84 L475.361 1702.12 L483.463 1681.84 L487.977 1681.84 L476.588 1710.18 Z" fill="#000000" fill-rule="evenodd" fill-opacity="1" /><path clip-path="url(#clip470)" d="M495.268 1703.83 L502.907 1703.83 L502.907 1677.47 L494.597 1679.13 L494.597 1674.87 L502.861 1673.21 L507.537 1673.21 L507.537 1703.83 L515.176 1703.83 L515.176 1707.77 L495.268 1707.77 L495.268 1703.83 Z" fill="#000000" fill-rule="evenodd" fill-opacity="1" /></svg>
