<?xml version="1.0" encoding="utf-8"?>
<svg xmlns="http://www.w3.org/2000/svg" xmlns:xlink="http://www.w3.org/1999/xlink" width="672" height="480" viewBox="0 0 2688 1920">
<defs>
  <clipPath id="clip330">
    <rect x="0" y="0" width="2688" height="1920"/>
  </clipPath>
</defs>
<path clip-path="url(#clip330)" d="
M0 1920 L2688 1920 L2688 0 L0 0  Z
  " fill="#ffffff" fill-rule="evenodd" fill-opacity="1"/>
<defs>
  <clipPath id="clip331">
    <rect x="537" y="0" width="1883" height="1883"/>
  </clipPath>
</defs>
<path clip-path="url(#clip330)" d="
M189.154 1800.78 L2640.76 1800.78 L2640.76 47.2441 L189.154 47.2441  Z
  " fill="#ffffff" fill-rule="evenodd" fill-opacity="1"/>
<defs>
  <clipPath id="clip332">
    <rect x="189" y="47" width="2453" height="1755"/>
  </clipPath>
</defs>
<polyline clip-path="url(#clip332)" style="stroke:#000000; stroke-linecap:butt; stroke-linejoin:round; stroke-width:2; stroke-opacity:0.1; fill:none" points="
  238.856,1800.78 238.856,47.2441 
  "/>
<polyline clip-path="url(#clip332)" style="stroke:#000000; stroke-linecap:butt; stroke-linejoin:round; stroke-width:2; stroke-opacity:0.1; fill:none" points="
  826.482,1800.78 826.482,47.2441 
  "/>
<polyline clip-path="url(#clip332)" style="stroke:#000000; stroke-linecap:butt; stroke-linejoin:round; stroke-width:2; stroke-opacity:0.1; fill:none" points="
  1414.11,1800.78 1414.11,47.2441 
  "/>
<polyline clip-path="url(#clip332)" style="stroke:#000000; stroke-linecap:butt; stroke-linejoin:round; stroke-width:2; stroke-opacity:0.1; fill:none" points="
  2001.73,1800.78 2001.73,47.2441 
  "/>
<polyline clip-path="url(#clip332)" style="stroke:#000000; stroke-linecap:butt; stroke-linejoin:round; stroke-width:2; stroke-opacity:0.1; fill:none" points="
  2589.36,1800.78 2589.36,47.2441 
  "/>
<polyline clip-path="url(#clip330)" style="stroke:#000000; stroke-linecap:butt; stroke-linejoin:round; stroke-width:4; stroke-opacity:1; fill:none" points="
  189.154,1800.78 2640.76,1800.78 
  "/>
<polyline clip-path="url(#clip330)" style="stroke:#000000; stroke-linecap:butt; stroke-linejoin:round; stroke-width:4; stroke-opacity:1; fill:none" points="
  238.856,1800.78 238.856,1781.88 
  "/>
<polyline clip-path="url(#clip330)" style="stroke:#000000; stroke-linecap:butt; stroke-linejoin:round; stroke-width:4; stroke-opacity:1; fill:none" points="
  826.482,1800.78 826.482,1781.88 
  "/>
<polyline clip-path="url(#clip330)" style="stroke:#000000; stroke-linecap:butt; stroke-linejoin:round; stroke-width:4; stroke-opacity:1; fill:none" points="
  1414.11,1800.78 1414.11,1781.88 
  "/>
<polyline clip-path="url(#clip330)" style="stroke:#000000; stroke-linecap:butt; stroke-linejoin:round; stroke-width:4; stroke-opacity:1; fill:none" points="
  2001.73,1800.78 2001.73,1781.88 
  "/>
<polyline clip-path="url(#clip330)" style="stroke:#000000; stroke-linecap:butt; stroke-linejoin:round; stroke-width:4; stroke-opacity:1; fill:none" points="
  2589.36,1800.78 2589.36,1781.88 
  "/>
<path clip-path="url(#clip330)" d="M201.16 1834 Q197.549 1834 195.72 1837.57 Q193.915 1841.11 193.915 1848.24 Q193.915 1855.34 195.72 1858.91 Q197.549 1862.45 201.16 1862.45 Q204.794 1862.45 206.6 1858.91 Q208.428 1855.34 208.428 1848.24 Q208.428 1841.11 206.6 1837.57 Q204.794 1834 201.16 1834 M201.16 1830.3 Q206.97 1830.3 210.026 1834.9 Q213.104 1839.49 213.104 1848.24 Q213.104 1856.96 210.026 1861.57 Q206.97 1866.15 201.16 1866.15 Q195.35 1866.15 192.271 1861.57 Q189.216 1856.96 189.216 1848.24 Q189.216 1839.49 192.271 1834.9 Q195.35 1830.3 201.16 1830.3 Z" fill="#000000" fill-rule="evenodd" fill-opacity="1" /><path clip-path="url(#clip330)" d="M221.322 1859.6 L226.206 1859.6 L226.206 1865.48 L221.322 1865.48 L221.322 1859.6 Z" fill="#000000" fill-rule="evenodd" fill-opacity="1" /><path clip-path="url(#clip330)" d="M246.391 1834 Q242.78 1834 240.951 1837.57 Q239.146 1841.11 239.146 1848.24 Q239.146 1855.34 240.951 1858.91 Q242.78 1862.45 246.391 1862.45 Q250.025 1862.45 251.831 1858.91 Q253.66 1855.34 253.66 1848.24 Q253.66 1841.11 251.831 1837.57 Q250.025 1834 246.391 1834 M246.391 1830.3 Q252.201 1830.3 255.257 1834.9 Q258.336 1839.49 258.336 1848.24 Q258.336 1856.96 255.257 1861.57 Q252.201 1866.15 246.391 1866.15 Q240.581 1866.15 237.502 1861.57 Q234.447 1856.96 234.447 1848.24 Q234.447 1839.49 237.502 1834.9 Q240.581 1830.3 246.391 1830.3 Z" fill="#000000" fill-rule="evenodd" fill-opacity="1" /><path clip-path="url(#clip330)" d="M276.553 1834 Q272.942 1834 271.113 1837.57 Q269.308 1841.11 269.308 1848.24 Q269.308 1855.34 271.113 1858.91 Q272.942 1862.45 276.553 1862.45 Q280.187 1862.45 281.993 1858.91 Q283.822 1855.34 283.822 1848.24 Q283.822 1841.11 281.993 1837.57 Q280.187 1834 276.553 1834 M276.553 1830.3 Q282.363 1830.3 285.419 1834.9 Q288.497 1839.49 288.497 1848.24 Q288.497 1856.96 285.419 1861.57 Q282.363 1866.15 276.553 1866.15 Q270.743 1866.15 267.664 1861.57 Q264.609 1856.96 264.609 1848.24 Q264.609 1839.49 267.664 1834.9 Q270.743 1830.3 276.553 1830.3 Z" fill="#000000" fill-rule="evenodd" fill-opacity="1" /><path clip-path="url(#clip330)" d="M789.283 1834 Q785.672 1834 783.843 1837.57 Q782.038 1841.11 782.038 1848.24 Q782.038 1855.34 783.843 1858.91 Q785.672 1862.45 789.283 1862.45 Q792.917 1862.45 794.723 1858.91 Q796.552 1855.34 796.552 1848.24 Q796.552 1841.11 794.723 1837.57 Q792.917 1834 789.283 1834 M789.283 1830.3 Q795.093 1830.3 798.149 1834.9 Q801.227 1839.49 801.227 1848.24 Q801.227 1856.96 798.149 1861.57 Q795.093 1866.15 789.283 1866.15 Q783.473 1866.15 780.394 1861.57 Q777.339 1856.96 777.339 1848.24 Q777.339 1839.49 780.394 1834.9 Q783.473 1830.3 789.283 1830.3 Z" fill="#000000" fill-rule="evenodd" fill-opacity="1" /><path clip-path="url(#clip330)" d="M809.445 1859.6 L814.329 1859.6 L814.329 1865.48 L809.445 1865.48 L809.445 1859.6 Z" fill="#000000" fill-rule="evenodd" fill-opacity="1" /><path clip-path="url(#clip330)" d="M828.542 1861.55 L844.862 1861.55 L844.862 1865.48 L822.917 1865.48 L822.917 1861.55 Q825.579 1858.79 830.163 1854.16 Q834.769 1849.51 835.95 1848.17 Q838.195 1845.65 839.075 1843.91 Q839.977 1842.15 839.977 1840.46 Q839.977 1837.71 838.033 1835.97 Q836.112 1834.23 833.01 1834.23 Q830.811 1834.23 828.357 1835 Q825.926 1835.76 823.149 1837.31 L823.149 1832.59 Q825.973 1831.46 828.426 1830.88 Q830.88 1830.3 832.917 1830.3 Q838.287 1830.3 841.482 1832.98 Q844.676 1835.67 844.676 1840.16 Q844.676 1842.29 843.866 1844.21 Q843.079 1846.11 840.973 1848.7 Q840.394 1849.37 837.292 1852.59 Q834.19 1855.78 828.542 1861.55 Z" fill="#000000" fill-rule="evenodd" fill-opacity="1" /><path clip-path="url(#clip330)" d="M854.723 1830.92 L873.079 1830.92 L873.079 1834.86 L859.005 1834.86 L859.005 1843.33 Q860.023 1842.98 861.042 1842.82 Q862.06 1842.64 863.079 1842.64 Q868.866 1842.64 872.246 1845.81 Q875.625 1848.98 875.625 1854.4 Q875.625 1859.97 872.153 1863.08 Q868.681 1866.15 862.361 1866.15 Q860.186 1866.15 857.917 1865.78 Q855.672 1865.41 853.264 1864.67 L853.264 1859.97 Q855.348 1861.11 857.57 1861.66 Q859.792 1862.22 862.269 1862.22 Q866.273 1862.22 868.611 1860.11 Q870.949 1858.01 870.949 1854.4 Q870.949 1850.78 868.611 1848.68 Q866.273 1846.57 862.269 1846.57 Q860.394 1846.57 858.519 1846.99 Q856.667 1847.4 854.723 1848.28 L854.723 1830.92 Z" fill="#000000" fill-rule="evenodd" fill-opacity="1" /><path clip-path="url(#clip330)" d="M1376.41 1834 Q1372.8 1834 1370.97 1837.57 Q1369.17 1841.11 1369.17 1848.24 Q1369.17 1855.34 1370.97 1858.91 Q1372.8 1862.45 1376.41 1862.45 Q1380.05 1862.45 1381.85 1858.91 Q1383.68 1855.34 1383.68 1848.24 Q1383.68 1841.11 1381.85 1837.57 Q1380.05 1834 1376.41 1834 M1376.41 1830.3 Q1382.22 1830.3 1385.28 1834.9 Q1388.36 1839.49 1388.36 1848.24 Q1388.36 1856.96 1385.28 1861.57 Q1382.22 1866.15 1376.41 1866.15 Q1370.6 1866.15 1367.52 1861.57 Q1364.47 1856.96 1364.47 1848.24 Q1364.47 1839.49 1367.52 1834.9 Q1370.6 1830.3 1376.41 1830.3 Z" fill="#000000" fill-rule="evenodd" fill-opacity="1" /><path clip-path="url(#clip330)" d="M1396.57 1859.6 L1401.46 1859.6 L1401.46 1865.48 L1396.57 1865.48 L1396.57 1859.6 Z" fill="#000000" fill-rule="evenodd" fill-opacity="1" /><path clip-path="url(#clip330)" d="M1411.69 1830.92 L1430.04 1830.92 L1430.04 1834.86 L1415.97 1834.86 L1415.97 1843.33 Q1416.99 1842.98 1418.01 1842.82 Q1419.03 1842.64 1420.04 1842.64 Q1425.83 1842.64 1429.21 1845.81 Q1432.59 1848.98 1432.59 1854.4 Q1432.59 1859.97 1429.12 1863.08 Q1425.65 1866.15 1419.33 1866.15 Q1417.15 1866.15 1414.88 1865.78 Q1412.64 1865.41 1410.23 1864.67 L1410.23 1859.97 Q1412.31 1861.11 1414.54 1861.66 Q1416.76 1862.22 1419.23 1862.22 Q1423.24 1862.22 1425.58 1860.11 Q1427.92 1858.01 1427.92 1854.4 Q1427.92 1850.78 1425.58 1848.68 Q1423.24 1846.57 1419.23 1846.57 Q1417.36 1846.57 1415.48 1846.99 Q1413.63 1847.4 1411.69 1848.28 L1411.69 1830.92 Z" fill="#000000" fill-rule="evenodd" fill-opacity="1" /><path clip-path="url(#clip330)" d="M1451.8 1834 Q1448.19 1834 1446.36 1837.57 Q1444.56 1841.11 1444.56 1848.24 Q1444.56 1855.34 1446.36 1858.91 Q1448.19 1862.45 1451.8 1862.45 Q1455.44 1862.45 1457.24 1858.91 Q1459.07 1855.34 1459.07 1848.24 Q1459.07 1841.11 1457.24 1837.57 Q1455.44 1834 1451.8 1834 M1451.8 1830.3 Q1457.61 1830.3 1460.67 1834.9 Q1463.75 1839.49 1463.75 1848.24 Q1463.75 1856.96 1460.67 1861.57 Q1457.61 1866.15 1451.8 1866.15 Q1445.99 1866.15 1442.92 1861.57 Q1439.86 1856.96 1439.86 1848.24 Q1439.86 1839.49 1442.92 1834.9 Q1445.99 1830.3 1451.8 1830.3 Z" fill="#000000" fill-rule="evenodd" fill-opacity="1" /><path clip-path="url(#clip330)" d="M1964.53 1834 Q1960.92 1834 1959.09 1837.57 Q1957.29 1841.11 1957.29 1848.24 Q1957.29 1855.34 1959.09 1858.91 Q1960.92 1862.45 1964.53 1862.45 Q1968.17 1862.45 1969.97 1858.91 Q1971.8 1855.34 1971.8 1848.24 Q1971.8 1841.11 1969.97 1837.57 Q1968.17 1834 1964.53 1834 M1964.53 1830.3 Q1970.34 1830.3 1973.4 1834.9 Q1976.48 1839.49 1976.48 1848.24 Q1976.48 1856.96 1973.4 1861.57 Q1970.34 1866.15 1964.53 1866.15 Q1958.72 1866.15 1955.65 1861.57 Q1952.59 1856.96 1952.59 1848.24 Q1952.59 1839.49 1955.65 1834.9 Q1958.72 1830.3 1964.53 1830.3 Z" fill="#000000" fill-rule="evenodd" fill-opacity="1" /><path clip-path="url(#clip330)" d="M1984.7 1859.6 L1989.58 1859.6 L1989.58 1865.48 L1984.7 1865.48 L1984.7 1859.6 Z" fill="#000000" fill-rule="evenodd" fill-opacity="1" /><path clip-path="url(#clip330)" d="M1998.58 1830.92 L2020.81 1830.92 L2020.81 1832.91 L2008.26 1865.48 L2003.38 1865.48 L2015.18 1834.86 L1998.58 1834.86 L1998.58 1830.92 Z" fill="#000000" fill-rule="evenodd" fill-opacity="1" /><path clip-path="url(#clip330)" d="M2029.97 1830.92 L2048.33 1830.92 L2048.33 1834.86 L2034.26 1834.86 L2034.26 1843.33 Q2035.27 1842.98 2036.29 1842.82 Q2037.31 1842.64 2038.33 1842.64 Q2044.12 1842.64 2047.5 1845.81 Q2050.88 1848.98 2050.88 1854.4 Q2050.88 1859.97 2047.4 1863.08 Q2043.93 1866.15 2037.61 1866.15 Q2035.44 1866.15 2033.17 1865.78 Q2030.92 1865.41 2028.52 1864.67 L2028.52 1859.97 Q2030.6 1861.11 2032.82 1861.66 Q2035.04 1862.22 2037.52 1862.22 Q2041.52 1862.22 2043.86 1860.11 Q2046.2 1858.01 2046.2 1854.4 Q2046.2 1850.78 2043.86 1848.68 Q2041.52 1846.57 2037.52 1846.57 Q2035.64 1846.57 2033.77 1846.99 Q2031.92 1847.4 2029.97 1848.28 L2029.97 1830.92 Z" fill="#000000" fill-rule="evenodd" fill-opacity="1" /><path clip-path="url(#clip330)" d="M2541.43 1861.55 L2549.07 1861.55 L2549.07 1835.18 L2540.76 1836.85 L2540.76 1832.59 L2549.02 1830.92 L2553.7 1830.92 L2553.7 1861.55 L2561.34 1861.55 L2561.34 1865.48 L2541.43 1865.48 L2541.43 1861.55 Z" fill="#000000" fill-rule="evenodd" fill-opacity="1" /><path clip-path="url(#clip330)" d="M2570.78 1859.6 L2575.67 1859.6 L2575.67 1865.48 L2570.78 1865.48 L2570.78 1859.6 Z" fill="#000000" fill-rule="evenodd" fill-opacity="1" /><path clip-path="url(#clip330)" d="M2595.85 1834 Q2592.24 1834 2590.41 1837.57 Q2588.61 1841.11 2588.61 1848.24 Q2588.61 1855.34 2590.41 1858.91 Q2592.24 1862.45 2595.85 1862.45 Q2599.49 1862.45 2601.29 1858.91 Q2603.12 1855.34 2603.12 1848.24 Q2603.12 1841.11 2601.29 1837.57 Q2599.49 1834 2595.85 1834 M2595.85 1830.3 Q2601.66 1830.3 2604.72 1834.9 Q2607.8 1839.49 2607.8 1848.24 Q2607.8 1856.96 2604.72 1861.57 Q2601.66 1866.15 2595.85 1866.15 Q2590.04 1866.15 2586.96 1861.57 Q2583.91 1856.96 2583.91 1848.24 Q2583.91 1839.49 2586.96 1834.9 Q2590.04 1830.3 2595.85 1830.3 Z" fill="#000000" fill-rule="evenodd" fill-opacity="1" /><path clip-path="url(#clip330)" d="M2626.01 1834 Q2622.4 1834 2620.57 1837.57 Q2618.77 1841.11 2618.77 1848.24 Q2618.77 1855.34 2620.57 1858.91 Q2622.4 1862.45 2626.01 1862.45 Q2629.65 1862.45 2631.45 1858.91 Q2633.28 1855.34 2633.28 1848.24 Q2633.28 1841.11 2631.45 1837.57 Q2629.65 1834 2626.01 1834 M2626.01 1830.3 Q2631.82 1830.3 2634.88 1834.9 Q2637.96 1839.49 2637.96 1848.24 Q2637.96 1856.96 2634.88 1861.57 Q2631.82 1866.15 2626.01 1866.15 Q2620.2 1866.15 2617.12 1861.57 Q2614.07 1856.96 2614.07 1848.24 Q2614.07 1839.49 2617.12 1834.9 Q2620.2 1830.3 2626.01 1830.3 Z" fill="#000000" fill-rule="evenodd" fill-opacity="1" /><polyline clip-path="url(#clip332)" style="stroke:#000000; stroke-linecap:butt; stroke-linejoin:round; stroke-width:2; stroke-opacity:0.1; fill:none" points="
  189.154,1777.51 2640.76,1777.51 
  "/>
<polyline clip-path="url(#clip332)" style="stroke:#000000; stroke-linecap:butt; stroke-linejoin:round; stroke-width:2; stroke-opacity:0.1; fill:none" points="
  189.154,1346.05 2640.76,1346.05 
  "/>
<polyline clip-path="url(#clip332)" style="stroke:#000000; stroke-linecap:butt; stroke-linejoin:round; stroke-width:2; stroke-opacity:0.1; fill:none" points="
  189.154,914.601 2640.76,914.601 
  "/>
<polyline clip-path="url(#clip332)" style="stroke:#000000; stroke-linecap:butt; stroke-linejoin:round; stroke-width:2; stroke-opacity:0.1; fill:none" points="
  189.154,483.147 2640.76,483.147 
  "/>
<polyline clip-path="url(#clip332)" style="stroke:#000000; stroke-linecap:butt; stroke-linejoin:round; stroke-width:2; stroke-opacity:0.1; fill:none" points="
  189.154,51.6936 2640.76,51.6936 
  "/>
<polyline clip-path="url(#clip330)" style="stroke:#000000; stroke-linecap:butt; stroke-linejoin:round; stroke-width:4; stroke-opacity:1; fill:none" points="
  189.154,1800.78 189.154,47.2441 
  "/>
<polyline clip-path="url(#clip330)" style="stroke:#000000; stroke-linecap:butt; stroke-linejoin:round; stroke-width:4; stroke-opacity:1; fill:none" points="
  189.154,1777.51 208.052,1777.51 
  "/>
<polyline clip-path="url(#clip330)" style="stroke:#000000; stroke-linecap:butt; stroke-linejoin:round; stroke-width:4; stroke-opacity:1; fill:none" points="
  189.154,1346.05 208.052,1346.05 
  "/>
<polyline clip-path="url(#clip330)" style="stroke:#000000; stroke-linecap:butt; stroke-linejoin:round; stroke-width:4; stroke-opacity:1; fill:none" points="
  189.154,914.601 208.052,914.601 
  "/>
<polyline clip-path="url(#clip330)" style="stroke:#000000; stroke-linecap:butt; stroke-linejoin:round; stroke-width:4; stroke-opacity:1; fill:none" points="
  189.154,483.147 208.052,483.147 
  "/>
<polyline clip-path="url(#clip330)" style="stroke:#000000; stroke-linecap:butt; stroke-linejoin:round; stroke-width:4; stroke-opacity:1; fill:none" points="
  189.154,51.6936 208.052,51.6936 
  "/>
<path clip-path="url(#clip330)" d="M61.4965 1763.31 Q57.8854 1763.31 56.0567 1766.87 Q54.2512 1770.41 54.2512 1777.54 Q54.2512 1784.65 56.0567 1788.21 Q57.8854 1791.76 61.4965 1791.76 Q65.1307 1791.76 66.9363 1788.21 Q68.765 1784.65 68.765 1777.54 Q68.765 1770.41 66.9363 1766.87 Q65.1307 1763.31 61.4965 1763.31 M61.4965 1759.6 Q67.3067 1759.6 70.3622 1764.21 Q73.4409 1768.79 73.4409 1777.54 Q73.4409 1786.27 70.3622 1790.88 Q67.3067 1795.46 61.4965 1795.46 Q55.6864 1795.46 52.6077 1790.88 Q49.5521 1786.27 49.5521 1777.54 Q49.5521 1768.79 52.6077 1764.21 Q55.6864 1759.6 61.4965 1759.6 Z" fill="#000000" fill-rule="evenodd" fill-opacity="1" /><path clip-path="url(#clip330)" d="M81.6584 1788.91 L86.5427 1788.91 L86.5427 1794.79 L81.6584 1794.79 L81.6584 1788.91 Z" fill="#000000" fill-rule="evenodd" fill-opacity="1" /><path clip-path="url(#clip330)" d="M106.728 1763.31 Q103.117 1763.31 101.288 1766.87 Q99.4824 1770.41 99.4824 1777.54 Q99.4824 1784.65 101.288 1788.21 Q103.117 1791.76 106.728 1791.76 Q110.362 1791.76 112.168 1788.21 Q113.996 1784.65 113.996 1777.54 Q113.996 1770.41 112.168 1766.87 Q110.362 1763.31 106.728 1763.31 M106.728 1759.6 Q112.538 1759.6 115.593 1764.21 Q118.672 1768.79 118.672 1777.54 Q118.672 1786.27 115.593 1790.88 Q112.538 1795.46 106.728 1795.46 Q100.918 1795.46 97.8389 1790.88 Q94.7834 1786.27 94.7834 1777.54 Q94.7834 1768.79 97.8389 1764.21 Q100.918 1759.6 106.728 1759.6 Z" fill="#000000" fill-rule="evenodd" fill-opacity="1" /><path clip-path="url(#clip330)" d="M136.89 1763.31 Q133.279 1763.31 131.45 1766.87 Q129.644 1770.41 129.644 1777.54 Q129.644 1784.65 131.45 1788.21 Q133.279 1791.76 136.89 1791.76 Q140.524 1791.76 142.329 1788.21 Q144.158 1784.65 144.158 1777.54 Q144.158 1770.41 142.329 1766.87 Q140.524 1763.31 136.89 1763.31 M136.89 1759.6 Q142.7 1759.6 145.755 1764.21 Q148.834 1768.79 148.834 1777.54 Q148.834 1786.27 145.755 1790.88 Q142.7 1795.46 136.89 1795.46 Q131.079 1795.46 128.001 1790.88 Q124.945 1786.27 124.945 1777.54 Q124.945 1768.79 128.001 1764.21 Q131.079 1759.6 136.89 1759.6 Z" fill="#000000" fill-rule="evenodd" fill-opacity="1" /><path clip-path="url(#clip330)" d="M62.4919 1331.85 Q58.8808 1331.85 57.0521 1335.42 Q55.2465 1338.96 55.2465 1346.09 Q55.2465 1353.2 57.0521 1356.76 Q58.8808 1360.3 62.4919 1360.3 Q66.1261 1360.3 67.9317 1356.76 Q69.7604 1353.2 69.7604 1346.09 Q69.7604 1338.96 67.9317 1335.42 Q66.1261 1331.85 62.4919 1331.85 M62.4919 1328.15 Q68.302 1328.15 71.3576 1332.76 Q74.4363 1337.34 74.4363 1346.09 Q74.4363 1354.82 71.3576 1359.42 Q68.302 1364.01 62.4919 1364.01 Q56.6817 1364.01 53.603 1359.42 Q50.5475 1354.82 50.5475 1346.09 Q50.5475 1337.34 53.603 1332.76 Q56.6817 1328.15 62.4919 1328.15 Z" fill="#000000" fill-rule="evenodd" fill-opacity="1" /><path clip-path="url(#clip330)" d="M82.6538 1357.46 L87.538 1357.46 L87.538 1363.33 L82.6538 1363.33 L82.6538 1357.46 Z" fill="#000000" fill-rule="evenodd" fill-opacity="1" /><path clip-path="url(#clip330)" d="M101.751 1359.4 L118.07 1359.4 L118.07 1363.33 L96.126 1363.33 L96.126 1359.4 Q98.788 1356.64 103.371 1352.02 Q107.978 1347.36 109.158 1346.02 Q111.404 1343.5 112.283 1341.76 Q113.186 1340 113.186 1338.31 Q113.186 1335.56 111.242 1333.82 Q109.32 1332.08 106.218 1332.08 Q104.019 1332.08 101.566 1332.85 Q99.1352 1333.61 96.3574 1335.16 L96.3574 1330.44 Q99.1815 1329.31 101.635 1328.73 Q104.089 1328.15 106.126 1328.15 Q111.496 1328.15 114.691 1330.83 Q117.885 1333.52 117.885 1338.01 Q117.885 1340.14 117.075 1342.06 Q116.288 1343.96 114.181 1346.55 Q113.603 1347.22 110.501 1350.44 Q107.399 1353.64 101.751 1359.4 Z" fill="#000000" fill-rule="evenodd" fill-opacity="1" /><path clip-path="url(#clip330)" d="M127.931 1328.77 L146.288 1328.77 L146.288 1332.71 L132.214 1332.71 L132.214 1341.18 Q133.232 1340.83 134.251 1340.67 Q135.269 1340.49 136.288 1340.49 Q142.075 1340.49 145.454 1343.66 Q148.834 1346.83 148.834 1352.25 Q148.834 1357.83 145.362 1360.93 Q141.89 1364.01 135.57 1364.01 Q133.394 1364.01 131.126 1363.64 Q128.88 1363.27 126.473 1362.52 L126.473 1357.83 Q128.556 1358.96 130.779 1359.52 Q133.001 1360.07 135.478 1360.07 Q139.482 1360.07 141.82 1357.96 Q144.158 1355.86 144.158 1352.25 Q144.158 1348.64 141.82 1346.53 Q139.482 1344.42 135.478 1344.42 Q133.603 1344.42 131.728 1344.84 Q129.876 1345.26 127.931 1346.14 L127.931 1328.77 Z" fill="#000000" fill-rule="evenodd" fill-opacity="1" /><path clip-path="url(#clip330)" d="M61.4965 900.4 Q57.8854 900.4 56.0567 903.964 Q54.2512 907.506 54.2512 914.636 Q54.2512 921.742 56.0567 925.307 Q57.8854 928.849 61.4965 928.849 Q65.1307 928.849 66.9363 925.307 Q68.765 921.742 68.765 914.636 Q68.765 907.506 66.9363 903.964 Q65.1307 900.4 61.4965 900.4 M61.4965 896.696 Q67.3067 896.696 70.3622 901.302 Q73.4409 905.886 73.4409 914.636 Q73.4409 923.362 70.3622 927.969 Q67.3067 932.552 61.4965 932.552 Q55.6864 932.552 52.6077 927.969 Q49.5521 923.362 49.5521 914.636 Q49.5521 905.886 52.6077 901.302 Q55.6864 896.696 61.4965 896.696 Z" fill="#000000" fill-rule="evenodd" fill-opacity="1" /><path clip-path="url(#clip330)" d="M81.6584 926.001 L86.5427 926.001 L86.5427 931.881 L81.6584 931.881 L81.6584 926.001 Z" fill="#000000" fill-rule="evenodd" fill-opacity="1" /><path clip-path="url(#clip330)" d="M96.7741 897.321 L115.13 897.321 L115.13 901.256 L101.056 901.256 L101.056 909.728 Q102.075 909.381 103.094 909.219 Q104.112 909.034 105.131 909.034 Q110.918 909.034 114.297 912.205 Q117.677 915.376 117.677 920.793 Q117.677 926.372 114.205 929.474 Q110.732 932.552 104.413 932.552 Q102.237 932.552 99.9685 932.182 Q97.7232 931.812 95.3158 931.071 L95.3158 926.372 Q97.3991 927.506 99.6213 928.062 Q101.844 928.617 104.32 928.617 Q108.325 928.617 110.663 926.511 Q113.001 924.404 113.001 920.793 Q113.001 917.182 110.663 915.075 Q108.325 912.969 104.32 912.969 Q102.445 912.969 100.57 913.386 Q98.7185 913.802 96.7741 914.682 L96.7741 897.321 Z" fill="#000000" fill-rule="evenodd" fill-opacity="1" /><path clip-path="url(#clip330)" d="M136.89 900.4 Q133.279 900.4 131.45 903.964 Q129.644 907.506 129.644 914.636 Q129.644 921.742 131.45 925.307 Q133.279 928.849 136.89 928.849 Q140.524 928.849 142.329 925.307 Q144.158 921.742 144.158 914.636 Q144.158 907.506 142.329 903.964 Q140.524 900.4 136.89 900.4 M136.89 896.696 Q142.7 896.696 145.755 901.302 Q148.834 905.886 148.834 914.636 Q148.834 923.362 145.755 927.969 Q142.7 932.552 136.89 932.552 Q131.079 932.552 128.001 927.969 Q124.945 923.362 124.945 914.636 Q124.945 905.886 128.001 901.302 Q131.079 896.696 136.89 896.696 Z" fill="#000000" fill-rule="evenodd" fill-opacity="1" /><path clip-path="url(#clip330)" d="M62.4919 468.946 Q58.8808 468.946 57.0521 472.511 Q55.2465 476.052 55.2465 483.182 Q55.2465 490.288 57.0521 493.853 Q58.8808 497.395 62.4919 497.395 Q66.1261 497.395 67.9317 493.853 Q69.7604 490.288 69.7604 483.182 Q69.7604 476.052 67.9317 472.511 Q66.1261 468.946 62.4919 468.946 M62.4919 465.242 Q68.302 465.242 71.3576 469.849 Q74.4363 474.432 74.4363 483.182 Q74.4363 491.909 71.3576 496.515 Q68.302 501.099 62.4919 501.099 Q56.6817 501.099 53.603 496.515 Q50.5475 491.909 50.5475 483.182 Q50.5475 474.432 53.603 469.849 Q56.6817 465.242 62.4919 465.242 Z" fill="#000000" fill-rule="evenodd" fill-opacity="1" /><path clip-path="url(#clip330)" d="M82.6538 494.548 L87.538 494.548 L87.538 500.427 L82.6538 500.427 L82.6538 494.548 Z" fill="#000000" fill-rule="evenodd" fill-opacity="1" /><path clip-path="url(#clip330)" d="M96.5426 465.867 L118.765 465.867 L118.765 467.858 L106.218 500.427 L101.334 500.427 L113.14 469.802 L96.5426 469.802 L96.5426 465.867 Z" fill="#000000" fill-rule="evenodd" fill-opacity="1" /><path clip-path="url(#clip330)" d="M127.931 465.867 L146.288 465.867 L146.288 469.802 L132.214 469.802 L132.214 478.275 Q133.232 477.927 134.251 477.765 Q135.269 477.58 136.288 477.58 Q142.075 477.58 145.454 480.751 Q148.834 483.923 148.834 489.339 Q148.834 494.918 145.362 498.02 Q141.89 501.099 135.57 501.099 Q133.394 501.099 131.126 500.728 Q128.88 500.358 126.473 499.617 L126.473 494.918 Q128.556 496.052 130.779 496.608 Q133.001 497.163 135.478 497.163 Q139.482 497.163 141.82 495.057 Q144.158 492.95 144.158 489.339 Q144.158 485.728 141.82 483.622 Q139.482 481.515 135.478 481.515 Q133.603 481.515 131.728 481.932 Q129.876 482.349 127.931 483.228 L127.931 465.867 Z" fill="#000000" fill-rule="evenodd" fill-opacity="1" /><path clip-path="url(#clip330)" d="M52.3067 65.0384 L59.9456 65.0384 L59.9456 38.6728 L51.6354 40.3395 L51.6354 36.0802 L59.8993 34.4136 L64.5752 34.4136 L64.5752 65.0384 L72.214 65.0384 L72.214 68.9736 L52.3067 68.9736 L52.3067 65.0384 Z" fill="#000000" fill-rule="evenodd" fill-opacity="1" /><path clip-path="url(#clip330)" d="M81.6584 63.094 L86.5427 63.094 L86.5427 68.9736 L81.6584 68.9736 L81.6584 63.094 Z" fill="#000000" fill-rule="evenodd" fill-opacity="1" /><path clip-path="url(#clip330)" d="M106.728 37.4922 Q103.117 37.4922 101.288 41.057 Q99.4824 44.5987 99.4824 51.7283 Q99.4824 58.8347 101.288 62.3995 Q103.117 65.9412 106.728 65.9412 Q110.362 65.9412 112.168 62.3995 Q113.996 58.8347 113.996 51.7283 Q113.996 44.5987 112.168 41.057 Q110.362 37.4922 106.728 37.4922 M106.728 33.7886 Q112.538 33.7886 115.593 38.395 Q118.672 42.9783 118.672 51.7283 Q118.672 60.4551 115.593 65.0615 Q112.538 69.6448 106.728 69.6448 Q100.918 69.6448 97.8389 65.0615 Q94.7834 60.4551 94.7834 51.7283 Q94.7834 42.9783 97.8389 38.395 Q100.918 33.7886 106.728 33.7886 Z" fill="#000000" fill-rule="evenodd" fill-opacity="1" /><path clip-path="url(#clip330)" d="M136.89 37.4922 Q133.279 37.4922 131.45 41.057 Q129.644 44.5987 129.644 51.7283 Q129.644 58.8347 131.45 62.3995 Q133.279 65.9412 136.89 65.9412 Q140.524 65.9412 142.329 62.3995 Q144.158 58.8347 144.158 51.7283 Q144.158 44.5987 142.329 41.057 Q140.524 37.4922 136.89 37.4922 M136.89 33.7886 Q142.7 33.7886 145.755 38.395 Q148.834 42.9783 148.834 51.7283 Q148.834 60.4551 145.755 65.0615 Q142.7 69.6448 136.89 69.6448 Q131.079 69.6448 128.001 65.0615 Q124.945 60.4551 124.945 51.7283 Q124.945 42.9783 128.001 38.395 Q131.079 33.7886 136.89 33.7886 Z" fill="#000000" fill-rule="evenodd" fill-opacity="1" /><polyline clip-path="url(#clip332)" style="stroke:#009af9; stroke-linecap:butt; stroke-linejoin:round; stroke-width:4; stroke-opacity:1; fill:none" points="
  626.063,133.722 631.149,752.596 2184.98,522.79 2232.19,1751.15 1355.91,544.428 2528.86,1418.8 1155.85,1443.22 1288.7,1725.83 1971.04,541.03 711.149,1719.43 
  1448.04,1330.92 548.155,1359.29 1673.57,744.999 1104.8,1305.19 2320.7,731.609 660.068,333.004 2270.41,1278.62 1929.72,1388.19 435.376,96.8724 1756.26,923.018 
  1261.76,1506.65 2243.16,1368.51 1063.19,776.66 1798.99,141.979 338.688,853.402 1338.82,1221.06 1336.76,1720.55 491.84,672.471 1660.38,602.951 975.7,1374.4 
  612.819,1621.08 1787.24,936.295 1101.6,784.837 1120.14,1748.98 561.406,1566.47 2196.26,1732.47 296.492,353.866 339.565,683.913 1373.23,152.205 577.385,157.779 
  1298.21,1103.54 2351.04,787.391 1958.05,1157.14 2389.57,479.427 874.351,1236.83 1946.82,601.857 1066.56,589.734 712.185,277.763 470.097,518.852 1825.56,1636.03 
  2445.93,1493.18 258.539,283.022 1348.96,587.906 500.023,1205.35 2213.95,1487.44 564.981,1458.64 1955.05,1192.49 2063.11,752.04 1940.35,182.064 802.346,370.53 
  2077.78,1506.34 1870.66,1576.39 1611.78,1730.46 2457.8,1006.02 311.541,975.351 564.772,569.298 1915.57,1495.87 1681.55,439.007 1653.51,689.424 1404.35,239.049 
  848.989,1701.28 1774.08,1453.06 1022.89,942.398 2434.6,1347.9 412.107,170.429 1719.98,500.418 563.947,822.505 2037.29,905.534 855.37,398.162 1613.26,1483.01 
  751.111,1125.47 804.143,1273.55 1991.47,211.906 2441.92,531.403 1758.04,113.472 1433.44,544.775 492.998,1253.78 2315.78,1706.97 547.315,765.411 1358.09,1264.9 
  2382.27,266.818 697.383,1521.66 2571.37,1293.09 1743.46,1528.78 997.288,519.926 1211.18,1112.06 2090.35,658.264 1301.15,192.092 1476.8,968.884 2241.54,179.188 
  
  "/>
<path clip-path="url(#clip330)" d="
M2261.45 209.375 L2559.04 209.375 L2559.04 105.695 L2261.45 105.695  Z
  " fill="#ffffff" fill-rule="evenodd" fill-opacity="1"/>
<polyline clip-path="url(#clip330)" style="stroke:#000000; stroke-linecap:butt; stroke-linejoin:round; stroke-width:4; stroke-opacity:1; fill:none" points="
  2261.45,209.375 2559.04,209.375 2559.04,105.695 2261.45,105.695 2261.45,209.375 
  "/>
<polyline clip-path="url(#clip330)" style="stroke:#009af9; stroke-linecap:butt; stroke-linejoin:round; stroke-width:4; stroke-opacity:1; fill:none" points="
  2288.69,157.535 2452.13,157.535 
  "/>
<path clip-path="url(#clip330)" d="M2493.21 177.223 Q2491.4 181.852 2489.69 183.264 Q2487.98 184.676 2485.11 184.676 L2481.7 184.676 L2481.7 181.112 L2484.2 181.112 Q2485.96 181.112 2486.93 180.278 Q2487.91 179.445 2489.09 176.343 L2489.85 174.399 L2479.37 148.889 L2483.88 148.889 L2491.98 169.167 L2500.08 148.889 L2504.6 148.889 L2493.21 177.223 Z" fill="#000000" fill-rule="evenodd" fill-opacity="1" /><path clip-path="url(#clip330)" d="M2511.89 170.88 L2519.53 170.88 L2519.53 144.515 L2511.22 146.181 L2511.22 141.922 L2519.48 140.255 L2524.16 140.255 L2524.16 170.88 L2531.8 170.88 L2531.8 174.815 L2511.89 174.815 L2511.89 170.88 Z" fill="#000000" fill-rule="evenodd" fill-opacity="1" /></svg>
