<?xml version="1.0" encoding="utf-8"?>
<svg xmlns="http://www.w3.org/2000/svg" xmlns:xlink="http://www.w3.org/1999/xlink" width="672" height="480" viewBox="0 0 2688 1920">
<defs>
  <clipPath id="clip170">
    <rect x="0" y="0" width="2688" height="1920"/>
  </clipPath>
</defs>
<path clip-path="url(#clip170)" d="
M0 1920 L2688 1920 L2688 0 L0 0  Z
  " fill="#ffffff" fill-rule="evenodd" fill-opacity="1"/>
<defs>
  <clipPath id="clip171">
    <rect x="537" y="0" width="1883" height="1883"/>
  </clipPath>
</defs>
<path clip-path="url(#clip170)" d="
M189.154 1800.78 L2640.76 1800.78 L2640.76 47.2441 L189.154 47.2441  Z
  " fill="#ffffff" fill-rule="evenodd" fill-opacity="1"/>
<defs>
  <clipPath id="clip172">
    <rect x="189" y="47" width="2453" height="1755"/>
  </clipPath>
</defs>
<polyline clip-path="url(#clip172)" style="stroke:#000000; stroke-linecap:butt; stroke-linejoin:round; stroke-width:2; stroke-opacity:0.1; fill:none" points="
  670.55,1800.78 670.55,47.2441 
  "/>
<polyline clip-path="url(#clip172)" style="stroke:#000000; stroke-linecap:butt; stroke-linejoin:round; stroke-width:2; stroke-opacity:0.1; fill:none" points="
  1159.16,1800.78 1159.16,47.2441 
  "/>
<polyline clip-path="url(#clip172)" style="stroke:#000000; stroke-linecap:butt; stroke-linejoin:round; stroke-width:2; stroke-opacity:0.1; fill:none" points="
  1647.77,1800.78 1647.77,47.2441 
  "/>
<polyline clip-path="url(#clip172)" style="stroke:#000000; stroke-linecap:butt; stroke-linejoin:round; stroke-width:2; stroke-opacity:0.1; fill:none" points="
  2136.38,1800.78 2136.38,47.2441 
  "/>
<polyline clip-path="url(#clip172)" style="stroke:#000000; stroke-linecap:butt; stroke-linejoin:round; stroke-width:2; stroke-opacity:0.1; fill:none" points="
  2625,1800.78 2625,47.2441 
  "/>
<polyline clip-path="url(#clip170)" style="stroke:#000000; stroke-linecap:butt; stroke-linejoin:round; stroke-width:4; stroke-opacity:1; fill:none" points="
  189.154,1800.78 2640.76,1800.78 
  "/>
<polyline clip-path="url(#clip170)" style="stroke:#000000; stroke-linecap:butt; stroke-linejoin:round; stroke-width:4; stroke-opacity:1; fill:none" points="
  670.55,1800.78 670.55,1781.88 
  "/>
<polyline clip-path="url(#clip170)" style="stroke:#000000; stroke-linecap:butt; stroke-linejoin:round; stroke-width:4; stroke-opacity:1; fill:none" points="
  1159.16,1800.78 1159.16,1781.88 
  "/>
<polyline clip-path="url(#clip170)" style="stroke:#000000; stroke-linecap:butt; stroke-linejoin:round; stroke-width:4; stroke-opacity:1; fill:none" points="
  1647.77,1800.78 1647.77,1781.88 
  "/>
<polyline clip-path="url(#clip170)" style="stroke:#000000; stroke-linecap:butt; stroke-linejoin:round; stroke-width:4; stroke-opacity:1; fill:none" points="
  2136.38,1800.78 2136.38,1781.88 
  "/>
<polyline clip-path="url(#clip170)" style="stroke:#000000; stroke-linecap:butt; stroke-linejoin:round; stroke-width:4; stroke-opacity:1; fill:none" points="
  2625,1800.78 2625,1781.88 
  "/>
<path clip-path="url(#clip170)" d="M648.733 1834 Q645.122 1834 643.293 1837.57 Q641.488 1841.11 641.488 1848.24 Q641.488 1855.34 643.293 1858.91 Q645.122 1862.45 648.733 1862.45 Q652.367 1862.45 654.173 1858.91 Q656.001 1855.34 656.001 1848.24 Q656.001 1841.11 654.173 1837.57 Q652.367 1834 648.733 1834 M648.733 1830.3 Q654.543 1830.3 657.599 1834.9 Q660.677 1839.49 660.677 1848.24 Q660.677 1856.96 657.599 1861.57 Q654.543 1866.15 648.733 1866.15 Q642.923 1866.15 639.844 1861.57 Q636.788 1856.96 636.788 1848.24 Q636.788 1839.49 639.844 1834.9 Q642.923 1830.3 648.733 1830.3 Z" fill="#000000" fill-rule="evenodd" fill-opacity="1" /><path clip-path="url(#clip170)" d="M668.895 1859.6 L673.779 1859.6 L673.779 1865.48 L668.895 1865.48 L668.895 1859.6 Z" fill="#000000" fill-rule="evenodd" fill-opacity="1" /><path clip-path="url(#clip170)" d="M687.992 1861.55 L704.311 1861.55 L704.311 1865.48 L682.367 1865.48 L682.367 1861.55 Q685.029 1858.79 689.612 1854.16 Q694.219 1849.51 695.399 1848.17 Q697.645 1845.65 698.524 1843.91 Q699.427 1842.15 699.427 1840.46 Q699.427 1837.71 697.483 1835.97 Q695.561 1834.23 692.459 1834.23 Q690.26 1834.23 687.807 1835 Q685.376 1835.76 682.598 1837.31 L682.598 1832.59 Q685.422 1831.46 687.876 1830.88 Q690.33 1830.3 692.367 1830.3 Q697.737 1830.3 700.932 1832.98 Q704.126 1835.67 704.126 1840.16 Q704.126 1842.29 703.316 1844.21 Q702.529 1846.11 700.422 1848.7 Q699.844 1849.37 696.742 1852.59 Q693.64 1855.78 687.992 1861.55 Z" fill="#000000" fill-rule="evenodd" fill-opacity="1" /><path clip-path="url(#clip170)" d="M1136.3 1834 Q1132.69 1834 1130.86 1837.57 Q1129.06 1841.11 1129.06 1848.24 Q1129.06 1855.34 1130.86 1858.91 Q1132.69 1862.45 1136.3 1862.45 Q1139.94 1862.45 1141.74 1858.91 Q1143.57 1855.34 1143.57 1848.24 Q1143.57 1841.11 1141.74 1837.57 Q1139.94 1834 1136.3 1834 M1136.3 1830.3 Q1142.11 1830.3 1145.17 1834.9 Q1148.25 1839.49 1148.25 1848.24 Q1148.25 1856.96 1145.17 1861.57 Q1142.11 1866.15 1136.3 1866.15 Q1130.49 1866.15 1127.41 1861.57 Q1124.36 1856.96 1124.36 1848.24 Q1124.36 1839.49 1127.41 1834.9 Q1130.49 1830.3 1136.3 1830.3 Z" fill="#000000" fill-rule="evenodd" fill-opacity="1" /><path clip-path="url(#clip170)" d="M1156.46 1859.6 L1161.35 1859.6 L1161.35 1865.48 L1156.46 1865.48 L1156.46 1859.6 Z" fill="#000000" fill-rule="evenodd" fill-opacity="1" /><path clip-path="url(#clip170)" d="M1184.38 1835 L1172.58 1853.45 L1184.38 1853.45 L1184.38 1835 M1183.15 1830.92 L1189.03 1830.92 L1189.03 1853.45 L1193.96 1853.45 L1193.96 1857.34 L1189.03 1857.34 L1189.03 1865.48 L1184.38 1865.48 L1184.38 1857.34 L1168.78 1857.34 L1168.78 1852.82 L1183.15 1830.92 Z" fill="#000000" fill-rule="evenodd" fill-opacity="1" /><path clip-path="url(#clip170)" d="M1625.08 1834 Q1621.47 1834 1619.64 1837.57 Q1617.83 1841.11 1617.83 1848.24 Q1617.83 1855.34 1619.64 1858.91 Q1621.47 1862.45 1625.08 1862.45 Q1628.71 1862.45 1630.52 1858.91 Q1632.34 1855.34 1632.34 1848.24 Q1632.34 1841.11 1630.52 1837.57 Q1628.71 1834 1625.08 1834 M1625.08 1830.3 Q1630.89 1830.3 1633.94 1834.9 Q1637.02 1839.49 1637.02 1848.24 Q1637.02 1856.96 1633.94 1861.57 Q1630.89 1866.15 1625.08 1866.15 Q1619.27 1866.15 1616.19 1861.57 Q1613.13 1856.96 1613.13 1848.24 Q1613.13 1839.49 1616.19 1834.9 Q1619.27 1830.3 1625.08 1830.3 Z" fill="#000000" fill-rule="evenodd" fill-opacity="1" /><path clip-path="url(#clip170)" d="M1645.24 1859.6 L1650.12 1859.6 L1650.12 1865.48 L1645.24 1865.48 L1645.24 1859.6 Z" fill="#000000" fill-rule="evenodd" fill-opacity="1" /><path clip-path="url(#clip170)" d="M1670.89 1846.34 Q1667.74 1846.34 1665.89 1848.49 Q1664.06 1850.65 1664.06 1854.4 Q1664.06 1858.12 1665.89 1860.3 Q1667.74 1862.45 1670.89 1862.45 Q1674.03 1862.45 1675.86 1860.3 Q1677.71 1858.12 1677.71 1854.4 Q1677.71 1850.65 1675.86 1848.49 Q1674.03 1846.34 1670.89 1846.34 M1680.17 1831.69 L1680.17 1835.95 Q1678.41 1835.11 1676.6 1834.67 Q1674.82 1834.23 1673.06 1834.23 Q1668.43 1834.23 1665.98 1837.36 Q1663.55 1840.48 1663.2 1846.8 Q1664.57 1844.79 1666.63 1843.72 Q1668.69 1842.64 1671.16 1842.64 Q1676.37 1842.64 1679.38 1845.81 Q1682.41 1848.96 1682.41 1854.4 Q1682.41 1859.72 1679.27 1862.94 Q1676.12 1866.15 1670.89 1866.15 Q1664.89 1866.15 1661.72 1861.57 Q1658.55 1856.96 1658.55 1848.24 Q1658.55 1840.04 1662.44 1835.18 Q1666.33 1830.3 1672.88 1830.3 Q1674.64 1830.3 1676.42 1830.65 Q1678.22 1830.99 1680.17 1831.69 Z" fill="#000000" fill-rule="evenodd" fill-opacity="1" /><path clip-path="url(#clip170)" d="M2113.82 1834 Q2110.2 1834 2108.38 1837.57 Q2106.57 1841.11 2106.57 1848.24 Q2106.57 1855.34 2108.38 1858.91 Q2110.2 1862.45 2113.82 1862.45 Q2117.45 1862.45 2119.25 1858.91 Q2121.08 1855.34 2121.08 1848.24 Q2121.08 1841.11 2119.25 1837.57 Q2117.45 1834 2113.82 1834 M2113.82 1830.3 Q2119.63 1830.3 2122.68 1834.9 Q2125.76 1839.49 2125.76 1848.24 Q2125.76 1856.96 2122.68 1861.57 Q2119.63 1866.15 2113.82 1866.15 Q2108.01 1866.15 2104.93 1861.57 Q2101.87 1856.96 2101.87 1848.24 Q2101.87 1839.49 2104.93 1834.9 Q2108.01 1830.3 2113.82 1830.3 Z" fill="#000000" fill-rule="evenodd" fill-opacity="1" /><path clip-path="url(#clip170)" d="M2133.98 1859.6 L2138.86 1859.6 L2138.86 1865.48 L2133.98 1865.48 L2133.98 1859.6 Z" fill="#000000" fill-rule="evenodd" fill-opacity="1" /><path clip-path="url(#clip170)" d="M2159.05 1849.07 Q2155.71 1849.07 2153.79 1850.85 Q2151.89 1852.64 2151.89 1855.76 Q2151.89 1858.89 2153.79 1860.67 Q2155.71 1862.45 2159.05 1862.45 Q2162.38 1862.45 2164.3 1860.67 Q2166.22 1858.86 2166.22 1855.76 Q2166.22 1852.64 2164.3 1850.85 Q2162.4 1849.07 2159.05 1849.07 M2154.37 1847.08 Q2151.36 1846.34 2149.67 1844.28 Q2148 1842.22 2148 1839.26 Q2148 1835.11 2150.94 1832.71 Q2153.91 1830.3 2159.05 1830.3 Q2164.21 1830.3 2167.15 1832.71 Q2170.09 1835.11 2170.09 1839.26 Q2170.09 1842.22 2168.4 1844.28 Q2166.73 1846.34 2163.75 1847.08 Q2167.13 1847.87 2169 1850.16 Q2170.9 1852.45 2170.9 1855.76 Q2170.9 1860.78 2167.82 1863.47 Q2164.76 1866.15 2159.05 1866.15 Q2153.33 1866.15 2150.25 1863.47 Q2147.19 1860.78 2147.19 1855.76 Q2147.19 1852.45 2149.09 1850.16 Q2150.99 1847.87 2154.37 1847.08 M2152.66 1839.7 Q2152.66 1842.38 2154.32 1843.89 Q2156.01 1845.39 2159.05 1845.39 Q2162.06 1845.39 2163.75 1843.89 Q2165.46 1842.38 2165.46 1839.7 Q2165.46 1837.01 2163.75 1835.51 Q2162.06 1834 2159.05 1834 Q2156.01 1834 2154.32 1835.51 Q2152.66 1837.01 2152.66 1839.7 Z" fill="#000000" fill-rule="evenodd" fill-opacity="1" /><path clip-path="url(#clip170)" d="M2592.15 1861.55 L2599.79 1861.55 L2599.79 1835.18 L2591.48 1836.85 L2591.48 1832.59 L2599.74 1830.92 L2604.42 1830.92 L2604.42 1861.55 L2612.06 1861.55 L2612.06 1865.48 L2592.15 1865.48 L2592.15 1861.55 Z" fill="#000000" fill-rule="evenodd" fill-opacity="1" /><path clip-path="url(#clip170)" d="M2621.5 1859.6 L2626.38 1859.6 L2626.38 1865.48 L2621.5 1865.48 L2621.5 1859.6 Z" fill="#000000" fill-rule="evenodd" fill-opacity="1" /><path clip-path="url(#clip170)" d="M2646.57 1834 Q2642.96 1834 2641.13 1837.57 Q2639.32 1841.11 2639.32 1848.24 Q2639.32 1855.34 2641.13 1858.91 Q2642.96 1862.45 2646.57 1862.45 Q2650.2 1862.45 2652.01 1858.91 Q2653.84 1855.34 2653.84 1848.24 Q2653.84 1841.11 2652.01 1837.57 Q2650.2 1834 2646.57 1834 M2646.57 1830.3 Q2652.38 1830.3 2655.44 1834.9 Q2658.51 1839.49 2658.51 1848.24 Q2658.51 1856.96 2655.44 1861.57 Q2652.38 1866.15 2646.57 1866.15 Q2640.76 1866.15 2637.68 1861.57 Q2634.63 1856.96 2634.63 1848.24 Q2634.63 1839.49 2637.68 1834.9 Q2640.76 1830.3 2646.57 1830.3 Z" fill="#000000" fill-rule="evenodd" fill-opacity="1" /><polyline clip-path="url(#clip172)" style="stroke:#000000; stroke-linecap:butt; stroke-linejoin:round; stroke-width:2; stroke-opacity:0.1; fill:none" points="
  189.154,1759.12 2640.76,1759.12 
  "/>
<polyline clip-path="url(#clip172)" style="stroke:#000000; stroke-linecap:butt; stroke-linejoin:round; stroke-width:2; stroke-opacity:0.1; fill:none" points="
  189.154,1341.88 2640.76,1341.88 
  "/>
<polyline clip-path="url(#clip172)" style="stroke:#000000; stroke-linecap:butt; stroke-linejoin:round; stroke-width:2; stroke-opacity:0.1; fill:none" points="
  189.154,924.644 2640.76,924.644 
  "/>
<polyline clip-path="url(#clip172)" style="stroke:#000000; stroke-linecap:butt; stroke-linejoin:round; stroke-width:2; stroke-opacity:0.1; fill:none" points="
  189.154,507.404 2640.76,507.404 
  "/>
<polyline clip-path="url(#clip172)" style="stroke:#000000; stroke-linecap:butt; stroke-linejoin:round; stroke-width:2; stroke-opacity:0.1; fill:none" points="
  189.154,90.164 2640.76,90.164 
  "/>
<polyline clip-path="url(#clip170)" style="stroke:#000000; stroke-linecap:butt; stroke-linejoin:round; stroke-width:4; stroke-opacity:1; fill:none" points="
  189.154,1800.78 189.154,47.2441 
  "/>
<polyline clip-path="url(#clip170)" style="stroke:#000000; stroke-linecap:butt; stroke-linejoin:round; stroke-width:4; stroke-opacity:1; fill:none" points="
  189.154,1759.12 208.052,1759.12 
  "/>
<polyline clip-path="url(#clip170)" style="stroke:#000000; stroke-linecap:butt; stroke-linejoin:round; stroke-width:4; stroke-opacity:1; fill:none" points="
  189.154,1341.88 208.052,1341.88 
  "/>
<polyline clip-path="url(#clip170)" style="stroke:#000000; stroke-linecap:butt; stroke-linejoin:round; stroke-width:4; stroke-opacity:1; fill:none" points="
  189.154,924.644 208.052,924.644 
  "/>
<polyline clip-path="url(#clip170)" style="stroke:#000000; stroke-linecap:butt; stroke-linejoin:round; stroke-width:4; stroke-opacity:1; fill:none" points="
  189.154,507.404 208.052,507.404 
  "/>
<polyline clip-path="url(#clip170)" style="stroke:#000000; stroke-linecap:butt; stroke-linejoin:round; stroke-width:4; stroke-opacity:1; fill:none" points="
  189.154,90.164 208.052,90.164 
  "/>
<path clip-path="url(#clip170)" d="M61.4965 1744.92 Q57.8854 1744.92 56.0567 1748.49 Q54.2512 1752.03 54.2512 1759.16 Q54.2512 1766.27 56.0567 1769.83 Q57.8854 1773.37 61.4965 1773.37 Q65.1307 1773.37 66.9363 1769.83 Q68.765 1766.27 68.765 1759.16 Q68.765 1752.03 66.9363 1748.49 Q65.1307 1744.92 61.4965 1744.92 M61.4965 1741.22 Q67.3067 1741.22 70.3622 1745.83 Q73.4409 1750.41 73.4409 1759.16 Q73.4409 1767.89 70.3622 1772.49 Q67.3067 1777.08 61.4965 1777.08 Q55.6864 1777.08 52.6077 1772.49 Q49.5521 1767.89 49.5521 1759.16 Q49.5521 1750.41 52.6077 1745.83 Q55.6864 1741.22 61.4965 1741.22 Z" fill="#000000" fill-rule="evenodd" fill-opacity="1" /><path clip-path="url(#clip170)" d="M81.6584 1770.52 L86.5427 1770.52 L86.5427 1776.4 L81.6584 1776.4 L81.6584 1770.52 Z" fill="#000000" fill-rule="evenodd" fill-opacity="1" /><path clip-path="url(#clip170)" d="M106.728 1744.92 Q103.117 1744.92 101.288 1748.49 Q99.4824 1752.03 99.4824 1759.16 Q99.4824 1766.27 101.288 1769.83 Q103.117 1773.37 106.728 1773.37 Q110.362 1773.37 112.168 1769.83 Q113.996 1766.27 113.996 1759.16 Q113.996 1752.03 112.168 1748.49 Q110.362 1744.92 106.728 1744.92 M106.728 1741.22 Q112.538 1741.22 115.593 1745.83 Q118.672 1750.41 118.672 1759.16 Q118.672 1767.89 115.593 1772.49 Q112.538 1777.08 106.728 1777.08 Q100.918 1777.08 97.8389 1772.49 Q94.7834 1767.89 94.7834 1759.16 Q94.7834 1750.41 97.8389 1745.83 Q100.918 1741.22 106.728 1741.22 Z" fill="#000000" fill-rule="evenodd" fill-opacity="1" /><path clip-path="url(#clip170)" d="M136.89 1744.92 Q133.279 1744.92 131.45 1748.49 Q129.644 1752.03 129.644 1759.16 Q129.644 1766.27 131.45 1769.83 Q133.279 1773.37 136.89 1773.37 Q140.524 1773.37 142.329 1769.83 Q144.158 1766.27 144.158 1759.16 Q144.158 1752.03 142.329 1748.49 Q140.524 1744.92 136.89 1744.92 M136.89 1741.22 Q142.7 1741.22 145.755 1745.83 Q148.834 1750.41 148.834 1759.16 Q148.834 1767.89 145.755 1772.49 Q142.7 1777.08 136.89 1777.08 Q131.079 1777.08 128.001 1772.49 Q124.945 1767.89 124.945 1759.16 Q124.945 1750.41 128.001 1745.83 Q131.079 1741.22 136.89 1741.22 Z" fill="#000000" fill-rule="evenodd" fill-opacity="1" /><path clip-path="url(#clip170)" d="M62.4919 1327.68 Q58.8808 1327.68 57.0521 1331.25 Q55.2465 1334.79 55.2465 1341.92 Q55.2465 1349.03 57.0521 1352.59 Q58.8808 1356.13 62.4919 1356.13 Q66.1261 1356.13 67.9317 1352.59 Q69.7604 1349.03 69.7604 1341.92 Q69.7604 1334.79 67.9317 1331.25 Q66.1261 1327.68 62.4919 1327.68 M62.4919 1323.98 Q68.302 1323.98 71.3576 1328.59 Q74.4363 1333.17 74.4363 1341.92 Q74.4363 1350.65 71.3576 1355.25 Q68.302 1359.84 62.4919 1359.84 Q56.6817 1359.84 53.603 1355.25 Q50.5475 1350.65 50.5475 1341.92 Q50.5475 1333.17 53.603 1328.59 Q56.6817 1323.98 62.4919 1323.98 Z" fill="#000000" fill-rule="evenodd" fill-opacity="1" /><path clip-path="url(#clip170)" d="M82.6538 1353.28 L87.538 1353.28 L87.538 1359.16 L82.6538 1359.16 L82.6538 1353.28 Z" fill="#000000" fill-rule="evenodd" fill-opacity="1" /><path clip-path="url(#clip170)" d="M101.751 1355.23 L118.07 1355.23 L118.07 1359.16 L96.126 1359.16 L96.126 1355.23 Q98.788 1352.47 103.371 1347.84 Q107.978 1343.19 109.158 1341.85 Q111.404 1339.33 112.283 1337.59 Q113.186 1335.83 113.186 1334.14 Q113.186 1331.39 111.242 1329.65 Q109.32 1327.91 106.218 1327.91 Q104.019 1327.91 101.566 1328.68 Q99.1352 1329.44 96.3574 1330.99 L96.3574 1326.27 Q99.1815 1325.14 101.635 1324.56 Q104.089 1323.98 106.126 1323.98 Q111.496 1323.98 114.691 1326.66 Q117.885 1329.35 117.885 1333.84 Q117.885 1335.97 117.075 1337.89 Q116.288 1339.79 114.181 1342.38 Q113.603 1343.05 110.501 1346.27 Q107.399 1349.46 101.751 1355.23 Z" fill="#000000" fill-rule="evenodd" fill-opacity="1" /><path clip-path="url(#clip170)" d="M127.931 1324.6 L146.288 1324.6 L146.288 1328.54 L132.214 1328.54 L132.214 1337.01 Q133.232 1336.66 134.251 1336.5 Q135.269 1336.32 136.288 1336.32 Q142.075 1336.32 145.454 1339.49 Q148.834 1342.66 148.834 1348.08 Q148.834 1353.65 145.362 1356.76 Q141.89 1359.84 135.57 1359.84 Q133.394 1359.84 131.126 1359.46 Q128.88 1359.09 126.473 1358.35 L126.473 1353.65 Q128.556 1354.79 130.779 1355.34 Q133.001 1355.9 135.478 1355.9 Q139.482 1355.9 141.82 1353.79 Q144.158 1351.69 144.158 1348.08 Q144.158 1344.46 141.82 1342.36 Q139.482 1340.25 135.478 1340.25 Q133.603 1340.25 131.728 1340.67 Q129.876 1341.09 127.931 1341.96 L127.931 1324.6 Z" fill="#000000" fill-rule="evenodd" fill-opacity="1" /><path clip-path="url(#clip170)" d="M61.4965 910.443 Q57.8854 910.443 56.0567 914.007 Q54.2512 917.549 54.2512 924.679 Q54.2512 931.785 56.0567 935.35 Q57.8854 938.892 61.4965 938.892 Q65.1307 938.892 66.9363 935.35 Q68.765 931.785 68.765 924.679 Q68.765 917.549 66.9363 914.007 Q65.1307 910.443 61.4965 910.443 M61.4965 906.739 Q67.3067 906.739 70.3622 911.345 Q73.4409 915.929 73.4409 924.679 Q73.4409 933.405 70.3622 938.012 Q67.3067 942.595 61.4965 942.595 Q55.6864 942.595 52.6077 938.012 Q49.5521 933.405 49.5521 924.679 Q49.5521 915.929 52.6077 911.345 Q55.6864 906.739 61.4965 906.739 Z" fill="#000000" fill-rule="evenodd" fill-opacity="1" /><path clip-path="url(#clip170)" d="M81.6584 936.044 L86.5427 936.044 L86.5427 941.924 L81.6584 941.924 L81.6584 936.044 Z" fill="#000000" fill-rule="evenodd" fill-opacity="1" /><path clip-path="url(#clip170)" d="M96.7741 907.364 L115.13 907.364 L115.13 911.299 L101.056 911.299 L101.056 919.771 Q102.075 919.424 103.094 919.262 Q104.112 919.077 105.131 919.077 Q110.918 919.077 114.297 922.248 Q117.677 925.419 117.677 930.836 Q117.677 936.415 114.205 939.517 Q110.732 942.595 104.413 942.595 Q102.237 942.595 99.9685 942.225 Q97.7232 941.854 95.3158 941.114 L95.3158 936.415 Q97.3991 937.549 99.6213 938.105 Q101.844 938.66 104.32 938.66 Q108.325 938.66 110.663 936.554 Q113.001 934.447 113.001 930.836 Q113.001 927.225 110.663 925.118 Q108.325 923.012 104.32 923.012 Q102.445 923.012 100.57 923.429 Q98.7185 923.845 96.7741 924.725 L96.7741 907.364 Z" fill="#000000" fill-rule="evenodd" fill-opacity="1" /><path clip-path="url(#clip170)" d="M136.89 910.443 Q133.279 910.443 131.45 914.007 Q129.644 917.549 129.644 924.679 Q129.644 931.785 131.45 935.35 Q133.279 938.892 136.89 938.892 Q140.524 938.892 142.329 935.35 Q144.158 931.785 144.158 924.679 Q144.158 917.549 142.329 914.007 Q140.524 910.443 136.89 910.443 M136.89 906.739 Q142.7 906.739 145.755 911.345 Q148.834 915.929 148.834 924.679 Q148.834 933.405 145.755 938.012 Q142.7 942.595 136.89 942.595 Q131.079 942.595 128.001 938.012 Q124.945 933.405 124.945 924.679 Q124.945 915.929 128.001 911.345 Q131.079 906.739 136.89 906.739 Z" fill="#000000" fill-rule="evenodd" fill-opacity="1" /><path clip-path="url(#clip170)" d="M62.4919 493.203 Q58.8808 493.203 57.0521 496.767 Q55.2465 500.309 55.2465 507.439 Q55.2465 514.545 57.0521 518.11 Q58.8808 521.652 62.4919 521.652 Q66.1261 521.652 67.9317 518.11 Q69.7604 514.545 69.7604 507.439 Q69.7604 500.309 67.9317 496.767 Q66.1261 493.203 62.4919 493.203 M62.4919 489.499 Q68.302 489.499 71.3576 494.105 Q74.4363 498.689 74.4363 507.439 Q74.4363 516.165 71.3576 520.772 Q68.302 525.355 62.4919 525.355 Q56.6817 525.355 53.603 520.772 Q50.5475 516.165 50.5475 507.439 Q50.5475 498.689 53.603 494.105 Q56.6817 489.499 62.4919 489.499 Z" fill="#000000" fill-rule="evenodd" fill-opacity="1" /><path clip-path="url(#clip170)" d="M82.6538 518.804 L87.538 518.804 L87.538 524.684 L82.6538 524.684 L82.6538 518.804 Z" fill="#000000" fill-rule="evenodd" fill-opacity="1" /><path clip-path="url(#clip170)" d="M96.5426 490.124 L118.765 490.124 L118.765 492.115 L106.218 524.684 L101.334 524.684 L113.14 494.059 L96.5426 494.059 L96.5426 490.124 Z" fill="#000000" fill-rule="evenodd" fill-opacity="1" /><path clip-path="url(#clip170)" d="M127.931 490.124 L146.288 490.124 L146.288 494.059 L132.214 494.059 L132.214 502.531 Q133.232 502.184 134.251 502.022 Q135.269 501.837 136.288 501.837 Q142.075 501.837 145.454 505.008 Q148.834 508.179 148.834 513.596 Q148.834 519.175 145.362 522.277 Q141.89 525.355 135.57 525.355 Q133.394 525.355 131.126 524.985 Q128.88 524.615 126.473 523.874 L126.473 519.175 Q128.556 520.309 130.779 520.865 Q133.001 521.42 135.478 521.42 Q139.482 521.42 141.82 519.314 Q144.158 517.207 144.158 513.596 Q144.158 509.985 141.82 507.879 Q139.482 505.772 135.478 505.772 Q133.603 505.772 131.728 506.189 Q129.876 506.605 127.931 507.485 L127.931 490.124 Z" fill="#000000" fill-rule="evenodd" fill-opacity="1" /><path clip-path="url(#clip170)" d="M52.3067 103.509 L59.9456 103.509 L59.9456 77.1432 L51.6354 78.8099 L51.6354 74.5507 L59.8993 72.884 L64.5752 72.884 L64.5752 103.509 L72.214 103.509 L72.214 107.444 L52.3067 107.444 L52.3067 103.509 Z" fill="#000000" fill-rule="evenodd" fill-opacity="1" /><path clip-path="url(#clip170)" d="M81.6584 101.564 L86.5427 101.564 L86.5427 107.444 L81.6584 107.444 L81.6584 101.564 Z" fill="#000000" fill-rule="evenodd" fill-opacity="1" /><path clip-path="url(#clip170)" d="M106.728 75.9627 Q103.117 75.9627 101.288 79.5275 Q99.4824 83.0691 99.4824 90.1987 Q99.4824 97.3052 101.288 100.87 Q103.117 104.412 106.728 104.412 Q110.362 104.412 112.168 100.87 Q113.996 97.3052 113.996 90.1987 Q113.996 83.0691 112.168 79.5275 Q110.362 75.9627 106.728 75.9627 M106.728 72.259 Q112.538 72.259 115.593 76.8655 Q118.672 81.4488 118.672 90.1987 Q118.672 98.9255 115.593 103.532 Q112.538 108.115 106.728 108.115 Q100.918 108.115 97.8389 103.532 Q94.7834 98.9255 94.7834 90.1987 Q94.7834 81.4488 97.8389 76.8655 Q100.918 72.259 106.728 72.259 Z" fill="#000000" fill-rule="evenodd" fill-opacity="1" /><path clip-path="url(#clip170)" d="M136.89 75.9627 Q133.279 75.9627 131.45 79.5275 Q129.644 83.0691 129.644 90.1987 Q129.644 97.3052 131.45 100.87 Q133.279 104.412 136.89 104.412 Q140.524 104.412 142.329 100.87 Q144.158 97.3052 144.158 90.1987 Q144.158 83.0691 142.329 79.5275 Q140.524 75.9627 136.89 75.9627 M136.89 72.259 Q142.7 72.259 145.755 76.8655 Q148.834 81.4488 148.834 90.1987 Q148.834 98.9255 145.755 103.532 Q142.7 108.115 136.89 108.115 Q131.079 108.115 128.001 103.532 Q124.945 98.9255 124.945 90.1987 Q124.945 81.4488 128.001 76.8655 Q131.079 72.259 136.89 72.259 Z" fill="#000000" fill-rule="evenodd" fill-opacity="1" /><polyline clip-path="url(#clip172)" style="stroke:#009af9; stroke-linecap:butt; stroke-linejoin:round; stroke-width:4; stroke-opacity:1; fill:none" points="
  2465.06,461.188 688.228,1671.6 1048.17,1592.9 2287.98,513.404 2127.17,1495.36 744.735,1087.66 1676.28,653.317 1949.75,147.333 671.412,362.325 1977.7,1392.46 
  1403.06,1190.49 730.283,324.461 952.078,597.992 1413.93,392.656 1912.36,1408.29 2479.71,969.57 1196.81,263.886 882.117,349.961 2180.41,962.861 976.427,96.8724 
  1062.59,751.613 2405.64,505.451 1096.45,508.762 1573.67,371.801 2350.2,741.287 485.773,179.934 2280.94,646.665 1073.73,190.134 2047.41,1751.15 1159.06,788.311 
  1525.85,1740.82 2058.65,416.107 1488.83,1065.69 942.327,1641.37 2001.69,1253.13 1394.85,227.719 1541.4,310.891 1859.71,719.505 2337.68,686.948 970.295,906.864 
  1593.74,1449.93 1707.68,1535.24 1359.3,1251.65 2053.66,640.482 708.309,1083.18 2325.06,1178.23 301.261,195.005 427.843,132.182 1143.63,1620.21 1485.34,506.227 
  2551.92,1686.02 1961.85,1350.8 2171.41,1216.41 720.852,635.782 375.793,660.354 2211.7,1281.42 2044.38,449.089 659.383,692.084 995.514,166.872 1000.19,844.95 
  845.235,1259.95 519.614,699.509 1458.16,475.711 708.868,749.276 787.407,992.494 2571.37,600.389 534.19,403.168 2282.99,1183.01 2020.01,402.079 2310.13,1571.99 
  2289.22,648.509 1873.01,497.962 560.28,1287.01 1797.25,584.934 2290.7,562.463 1326.81,384.112 2015.87,1186.89 258.539,923.486 2495.79,493.738 933.789,1213.98 
  2421.4,1161.35 281.688,546.16 2007.96,504.947 830.069,274.151 1135.82,522.875 2219.07,797.448 2459.39,401.292 1254.39,1109.13 2155,431.083 1719.08,273.423 
  1021.11,1399.4 616.151,1544.47 1913.83,1655.74 824.995,1399.09 1648.47,107.817 1821.98,1198.07 746.349,778.077 1824.81,347 1978.63,1577.83 281.878,398.525 
  
  "/>
<path clip-path="url(#clip170)" d="
M270.874 1742.33 L568.465 1742.33 L568.465 1638.65 L270.874 1638.65  Z
  " fill="#ffffff" fill-rule="evenodd" fill-opacity="1"/>
<polyline clip-path="url(#clip170)" style="stroke:#000000; stroke-linecap:butt; stroke-linejoin:round; stroke-width:4; stroke-opacity:1; fill:none" points="
  270.874,1742.33 568.465,1742.33 568.465,1638.65 270.874,1638.65 270.874,1742.33 
  "/>
<polyline clip-path="url(#clip170)" style="stroke:#009af9; stroke-linecap:butt; stroke-linejoin:round; stroke-width:4; stroke-opacity:1; fill:none" points="
  298.114,1690.49 461.554,1690.49 
  "/>
<path clip-path="url(#clip170)" d="M502.637 1710.18 Q500.831 1714.81 499.118 1716.22 Q497.405 1717.63 494.535 1717.63 L491.132 1717.63 L491.132 1714.06 L493.632 1714.06 Q495.391 1714.06 496.364 1713.23 Q497.336 1712.4 498.516 1709.3 L499.28 1707.35 L488.794 1681.84 L493.308 1681.84 L501.41 1702.12 L509.512 1681.84 L514.026 1681.84 L502.637 1710.18 Z" fill="#000000" fill-rule="evenodd" fill-opacity="1" /><path clip-path="url(#clip170)" d="M521.317 1703.83 L528.956 1703.83 L528.956 1677.47 L520.646 1679.13 L520.646 1674.87 L528.91 1673.21 L533.586 1673.21 L533.586 1703.83 L541.225 1703.83 L541.225 1707.77 L521.317 1707.77 L521.317 1703.83 Z" fill="#000000" fill-rule="evenodd" fill-opacity="1" /></svg>
