<?xml version="1.0" encoding="utf-8"?>
<svg xmlns="http://www.w3.org/2000/svg" xmlns:xlink="http://www.w3.org/1999/xlink" width="672" height="480" viewBox="0 0 2688 1920">
<defs>
  <clipPath id="clip820">
    <rect x="0" y="0" width="2688" height="1920"/>
  </clipPath>
</defs>
<path clip-path="url(#clip820)" d="
M0 1920 L2688 1920 L2688 0 L0 0  Z
  " fill="#ffffff" fill-rule="evenodd" fill-opacity="1"/>
<defs>
  <clipPath id="clip821">
    <rect x="537" y="0" width="1883" height="1883"/>
  </clipPath>
</defs>
<path clip-path="url(#clip820)" d="
M189.154 1800.78 L2640.76 1800.78 L2640.76 47.2441 L189.154 47.2441  Z
  " fill="#ffffff" fill-rule="evenodd" fill-opacity="1"/>
<defs>
  <clipPath id="clip822">
    <rect x="189" y="47" width="2453" height="1755"/>
  </clipPath>
</defs>
<polyline clip-path="url(#clip822)" style="stroke:#000000; stroke-linecap:butt; stroke-linejoin:round; stroke-width:2; stroke-opacity:0.1; fill:none" points="
  228.254,1800.78 228.254,47.2441 
  "/>
<polyline clip-path="url(#clip822)" style="stroke:#000000; stroke-linecap:butt; stroke-linejoin:round; stroke-width:2; stroke-opacity:0.1; fill:none" points="
  826.589,1800.78 826.589,47.2441 
  "/>
<polyline clip-path="url(#clip822)" style="stroke:#000000; stroke-linecap:butt; stroke-linejoin:round; stroke-width:2; stroke-opacity:0.1; fill:none" points="
  1424.92,1800.78 1424.92,47.2441 
  "/>
<polyline clip-path="url(#clip822)" style="stroke:#000000; stroke-linecap:butt; stroke-linejoin:round; stroke-width:2; stroke-opacity:0.1; fill:none" points="
  2023.26,1800.78 2023.26,47.2441 
  "/>
<polyline clip-path="url(#clip822)" style="stroke:#000000; stroke-linecap:butt; stroke-linejoin:round; stroke-width:2; stroke-opacity:0.1; fill:none" points="
  2621.6,1800.78 2621.6,47.2441 
  "/>
<polyline clip-path="url(#clip820)" style="stroke:#000000; stroke-linecap:butt; stroke-linejoin:round; stroke-width:4; stroke-opacity:1; fill:none" points="
  189.154,1800.78 2640.76,1800.78 
  "/>
<polyline clip-path="url(#clip820)" style="stroke:#000000; stroke-linecap:butt; stroke-linejoin:round; stroke-width:4; stroke-opacity:1; fill:none" points="
  228.254,1800.78 228.254,1781.88 
  "/>
<polyline clip-path="url(#clip820)" style="stroke:#000000; stroke-linecap:butt; stroke-linejoin:round; stroke-width:4; stroke-opacity:1; fill:none" points="
  826.589,1800.78 826.589,1781.88 
  "/>
<polyline clip-path="url(#clip820)" style="stroke:#000000; stroke-linecap:butt; stroke-linejoin:round; stroke-width:4; stroke-opacity:1; fill:none" points="
  1424.92,1800.78 1424.92,1781.88 
  "/>
<polyline clip-path="url(#clip820)" style="stroke:#000000; stroke-linecap:butt; stroke-linejoin:round; stroke-width:4; stroke-opacity:1; fill:none" points="
  2023.26,1800.78 2023.26,1781.88 
  "/>
<polyline clip-path="url(#clip820)" style="stroke:#000000; stroke-linecap:butt; stroke-linejoin:round; stroke-width:4; stroke-opacity:1; fill:none" points="
  2621.6,1800.78 2621.6,1781.88 
  "/>
<path clip-path="url(#clip820)" d="M190.557 1834 Q186.946 1834 185.117 1837.57 Q183.312 1841.11 183.312 1848.24 Q183.312 1855.34 185.117 1858.91 Q186.946 1862.45 190.557 1862.45 Q194.191 1862.45 195.997 1858.91 Q197.826 1855.34 197.826 1848.24 Q197.826 1841.11 195.997 1837.57 Q194.191 1834 190.557 1834 M190.557 1830.3 Q196.367 1830.3 199.423 1834.9 Q202.502 1839.49 202.502 1848.24 Q202.502 1856.96 199.423 1861.57 Q196.367 1866.15 190.557 1866.15 Q184.747 1866.15 181.668 1861.57 Q178.613 1856.96 178.613 1848.24 Q178.613 1839.49 181.668 1834.9 Q184.747 1830.3 190.557 1830.3 Z" fill="#000000" fill-rule="evenodd" fill-opacity="1" /><path clip-path="url(#clip820)" d="M210.719 1859.6 L215.603 1859.6 L215.603 1865.48 L210.719 1865.48 L210.719 1859.6 Z" fill="#000000" fill-rule="evenodd" fill-opacity="1" /><path clip-path="url(#clip820)" d="M235.788 1834 Q232.177 1834 230.349 1837.57 Q228.543 1841.11 228.543 1848.24 Q228.543 1855.34 230.349 1858.91 Q232.177 1862.45 235.788 1862.45 Q239.423 1862.45 241.228 1858.91 Q243.057 1855.34 243.057 1848.24 Q243.057 1841.11 241.228 1837.57 Q239.423 1834 235.788 1834 M235.788 1830.3 Q241.599 1830.3 244.654 1834.9 Q247.733 1839.49 247.733 1848.24 Q247.733 1856.96 244.654 1861.57 Q241.599 1866.15 235.788 1866.15 Q229.978 1866.15 226.9 1861.57 Q223.844 1856.96 223.844 1848.24 Q223.844 1839.49 226.9 1834.9 Q229.978 1830.3 235.788 1830.3 Z" fill="#000000" fill-rule="evenodd" fill-opacity="1" /><path clip-path="url(#clip820)" d="M265.95 1834 Q262.339 1834 260.511 1837.57 Q258.705 1841.11 258.705 1848.24 Q258.705 1855.34 260.511 1858.91 Q262.339 1862.45 265.95 1862.45 Q269.585 1862.45 271.39 1858.91 Q273.219 1855.34 273.219 1848.24 Q273.219 1841.11 271.39 1837.57 Q269.585 1834 265.95 1834 M265.95 1830.3 Q271.761 1830.3 274.816 1834.9 Q277.895 1839.49 277.895 1848.24 Q277.895 1856.96 274.816 1861.57 Q271.761 1866.15 265.95 1866.15 Q260.14 1866.15 257.062 1861.57 Q254.006 1856.96 254.006 1848.24 Q254.006 1839.49 257.062 1834.9 Q260.14 1830.3 265.95 1830.3 Z" fill="#000000" fill-rule="evenodd" fill-opacity="1" /><path clip-path="url(#clip820)" d="M789.39 1834 Q785.779 1834 783.951 1837.57 Q782.145 1841.11 782.145 1848.24 Q782.145 1855.34 783.951 1858.91 Q785.779 1862.45 789.39 1862.45 Q793.025 1862.45 794.83 1858.91 Q796.659 1855.34 796.659 1848.24 Q796.659 1841.11 794.83 1837.57 Q793.025 1834 789.39 1834 M789.39 1830.3 Q795.201 1830.3 798.256 1834.9 Q801.335 1839.49 801.335 1848.24 Q801.335 1856.96 798.256 1861.57 Q795.201 1866.15 789.39 1866.15 Q783.58 1866.15 780.502 1861.57 Q777.446 1856.96 777.446 1848.24 Q777.446 1839.49 780.502 1834.9 Q783.58 1830.3 789.39 1830.3 Z" fill="#000000" fill-rule="evenodd" fill-opacity="1" /><path clip-path="url(#clip820)" d="M809.552 1859.6 L814.437 1859.6 L814.437 1865.48 L809.552 1865.48 L809.552 1859.6 Z" fill="#000000" fill-rule="evenodd" fill-opacity="1" /><path clip-path="url(#clip820)" d="M828.649 1861.55 L844.969 1861.55 L844.969 1865.48 L823.024 1865.48 L823.024 1861.55 Q825.686 1858.79 830.27 1854.16 Q834.876 1849.51 836.057 1848.17 Q838.302 1845.65 839.182 1843.91 Q840.085 1842.15 840.085 1840.46 Q840.085 1837.71 838.14 1835.97 Q836.219 1834.23 833.117 1834.23 Q830.918 1834.23 828.464 1835 Q826.034 1835.76 823.256 1837.31 L823.256 1832.59 Q826.08 1831.46 828.534 1830.88 Q830.987 1830.3 833.024 1830.3 Q838.395 1830.3 841.589 1832.98 Q844.784 1835.67 844.784 1840.16 Q844.784 1842.29 843.973 1844.21 Q843.186 1846.11 841.08 1848.7 Q840.501 1849.37 837.399 1852.59 Q834.298 1855.78 828.649 1861.55 Z" fill="#000000" fill-rule="evenodd" fill-opacity="1" /><path clip-path="url(#clip820)" d="M854.83 1830.92 L873.186 1830.92 L873.186 1834.86 L859.112 1834.86 L859.112 1843.33 Q860.131 1842.98 861.149 1842.82 Q862.168 1842.64 863.186 1842.64 Q868.973 1842.64 872.353 1845.81 Q875.733 1848.98 875.733 1854.4 Q875.733 1859.97 872.26 1863.08 Q868.788 1866.15 862.469 1866.15 Q860.293 1866.15 858.024 1865.78 Q855.779 1865.41 853.372 1864.67 L853.372 1859.97 Q855.455 1861.11 857.677 1861.66 Q859.899 1862.22 862.376 1862.22 Q866.381 1862.22 868.719 1860.11 Q871.057 1858.01 871.057 1854.4 Q871.057 1850.78 868.719 1848.68 Q866.381 1846.57 862.376 1846.57 Q860.501 1846.57 858.626 1846.99 Q856.774 1847.4 854.83 1848.28 L854.83 1830.92 Z" fill="#000000" fill-rule="evenodd" fill-opacity="1" /><path clip-path="url(#clip820)" d="M1387.23 1834 Q1383.62 1834 1381.79 1837.57 Q1379.98 1841.11 1379.98 1848.24 Q1379.98 1855.34 1381.79 1858.91 Q1383.62 1862.45 1387.23 1862.45 Q1390.86 1862.45 1392.67 1858.91 Q1394.5 1855.34 1394.5 1848.24 Q1394.5 1841.11 1392.67 1837.57 Q1390.86 1834 1387.23 1834 M1387.23 1830.3 Q1393.04 1830.3 1396.09 1834.9 Q1399.17 1839.49 1399.17 1848.24 Q1399.17 1856.96 1396.09 1861.57 Q1393.04 1866.15 1387.23 1866.15 Q1381.42 1866.15 1378.34 1861.57 Q1375.28 1856.96 1375.28 1848.24 Q1375.28 1839.49 1378.34 1834.9 Q1381.42 1830.3 1387.23 1830.3 Z" fill="#000000" fill-rule="evenodd" fill-opacity="1" /><path clip-path="url(#clip820)" d="M1407.39 1859.6 L1412.27 1859.6 L1412.27 1865.48 L1407.39 1865.48 L1407.39 1859.6 Z" fill="#000000" fill-rule="evenodd" fill-opacity="1" /><path clip-path="url(#clip820)" d="M1422.51 1830.92 L1440.86 1830.92 L1440.86 1834.86 L1426.79 1834.86 L1426.79 1843.33 Q1427.81 1842.98 1428.83 1842.82 Q1429.84 1842.64 1430.86 1842.64 Q1436.65 1842.64 1440.03 1845.81 Q1443.41 1848.98 1443.41 1854.4 Q1443.41 1859.97 1439.94 1863.08 Q1436.46 1866.15 1430.14 1866.15 Q1427.97 1866.15 1425.7 1865.78 Q1423.45 1865.41 1421.05 1864.67 L1421.05 1859.97 Q1423.13 1861.11 1425.35 1861.66 Q1427.58 1862.22 1430.05 1862.22 Q1434.06 1862.22 1436.39 1860.11 Q1438.73 1858.01 1438.73 1854.4 Q1438.73 1850.78 1436.39 1848.68 Q1434.06 1846.57 1430.05 1846.57 Q1428.18 1846.57 1426.3 1846.99 Q1424.45 1847.4 1422.51 1848.28 L1422.51 1830.92 Z" fill="#000000" fill-rule="evenodd" fill-opacity="1" /><path clip-path="url(#clip820)" d="M1462.62 1834 Q1459.01 1834 1457.18 1837.57 Q1455.38 1841.11 1455.38 1848.24 Q1455.38 1855.34 1457.18 1858.91 Q1459.01 1862.45 1462.62 1862.45 Q1466.26 1862.45 1468.06 1858.91 Q1469.89 1855.34 1469.89 1848.24 Q1469.89 1841.11 1468.06 1837.57 Q1466.26 1834 1462.62 1834 M1462.62 1830.3 Q1468.43 1830.3 1471.49 1834.9 Q1474.57 1839.49 1474.57 1848.24 Q1474.57 1856.96 1471.49 1861.57 Q1468.43 1866.15 1462.62 1866.15 Q1456.81 1866.15 1453.73 1861.57 Q1450.68 1856.96 1450.68 1848.24 Q1450.68 1839.49 1453.73 1834.9 Q1456.81 1830.3 1462.62 1830.3 Z" fill="#000000" fill-rule="evenodd" fill-opacity="1" /><path clip-path="url(#clip820)" d="M1986.06 1834 Q1982.45 1834 1980.62 1837.57 Q1978.82 1841.11 1978.82 1848.24 Q1978.82 1855.34 1980.62 1858.91 Q1982.45 1862.45 1986.06 1862.45 Q1989.7 1862.45 1991.5 1858.91 Q1993.33 1855.34 1993.33 1848.24 Q1993.33 1841.11 1991.5 1837.57 Q1989.7 1834 1986.06 1834 M1986.06 1830.3 Q1991.87 1830.3 1994.93 1834.9 Q1998.01 1839.49 1998.01 1848.24 Q1998.01 1856.96 1994.93 1861.57 Q1991.87 1866.15 1986.06 1866.15 Q1980.25 1866.15 1977.17 1861.57 Q1974.12 1856.96 1974.12 1848.24 Q1974.12 1839.49 1977.17 1834.9 Q1980.25 1830.3 1986.06 1830.3 Z" fill="#000000" fill-rule="evenodd" fill-opacity="1" /><path clip-path="url(#clip820)" d="M2006.22 1859.6 L2011.11 1859.6 L2011.11 1865.48 L2006.22 1865.48 L2006.22 1859.6 Z" fill="#000000" fill-rule="evenodd" fill-opacity="1" /><path clip-path="url(#clip820)" d="M2020.11 1830.92 L2042.33 1830.92 L2042.33 1832.91 L2029.79 1865.48 L2024.9 1865.48 L2036.71 1834.86 L2020.11 1834.86 L2020.11 1830.92 Z" fill="#000000" fill-rule="evenodd" fill-opacity="1" /><path clip-path="url(#clip820)" d="M2051.5 1830.92 L2069.86 1830.92 L2069.86 1834.86 L2055.78 1834.86 L2055.78 1843.33 Q2056.8 1842.98 2057.82 1842.82 Q2058.84 1842.64 2059.86 1842.64 Q2065.64 1842.64 2069.02 1845.81 Q2072.4 1848.98 2072.4 1854.4 Q2072.4 1859.97 2068.93 1863.08 Q2065.46 1866.15 2059.14 1866.15 Q2056.96 1866.15 2054.7 1865.78 Q2052.45 1865.41 2050.04 1864.67 L2050.04 1859.97 Q2052.13 1861.11 2054.35 1861.66 Q2056.57 1862.22 2059.05 1862.22 Q2063.05 1862.22 2065.39 1860.11 Q2067.73 1858.01 2067.73 1854.4 Q2067.73 1850.78 2065.39 1848.68 Q2063.05 1846.57 2059.05 1846.57 Q2057.17 1846.57 2055.3 1846.99 Q2053.45 1847.4 2051.5 1848.28 L2051.5 1830.92 Z" fill="#000000" fill-rule="evenodd" fill-opacity="1" /><path clip-path="url(#clip820)" d="M2573.67 1861.55 L2581.31 1861.55 L2581.31 1835.18 L2573 1836.85 L2573 1832.59 L2581.26 1830.92 L2585.94 1830.92 L2585.94 1861.55 L2593.57 1861.55 L2593.57 1865.48 L2573.67 1865.48 L2573.67 1861.55 Z" fill="#000000" fill-rule="evenodd" fill-opacity="1" /><path clip-path="url(#clip820)" d="M2603.02 1859.6 L2607.9 1859.6 L2607.9 1865.48 L2603.02 1865.48 L2603.02 1859.6 Z" fill="#000000" fill-rule="evenodd" fill-opacity="1" /><path clip-path="url(#clip820)" d="M2628.09 1834 Q2624.48 1834 2622.65 1837.57 Q2620.84 1841.11 2620.84 1848.24 Q2620.84 1855.34 2622.65 1858.91 Q2624.48 1862.45 2628.09 1862.45 Q2631.72 1862.45 2633.53 1858.91 Q2635.36 1855.34 2635.36 1848.24 Q2635.36 1841.11 2633.53 1837.57 Q2631.72 1834 2628.09 1834 M2628.09 1830.3 Q2633.9 1830.3 2636.95 1834.9 Q2640.03 1839.49 2640.03 1848.24 Q2640.03 1856.96 2636.95 1861.57 Q2633.9 1866.15 2628.09 1866.15 Q2622.28 1866.15 2619.2 1861.57 Q2616.14 1856.96 2616.14 1848.24 Q2616.14 1839.49 2619.2 1834.9 Q2622.28 1830.3 2628.09 1830.3 Z" fill="#000000" fill-rule="evenodd" fill-opacity="1" /><path clip-path="url(#clip820)" d="M2658.25 1834 Q2654.64 1834 2652.81 1837.57 Q2651.01 1841.11 2651.01 1848.24 Q2651.01 1855.34 2652.81 1858.91 Q2654.64 1862.45 2658.25 1862.45 Q2661.88 1862.45 2663.69 1858.91 Q2665.52 1855.34 2665.52 1848.24 Q2665.52 1841.11 2663.69 1837.57 Q2661.88 1834 2658.25 1834 M2658.25 1830.3 Q2664.06 1830.3 2667.12 1834.9 Q2670.19 1839.49 2670.19 1848.24 Q2670.19 1856.96 2667.12 1861.57 Q2664.06 1866.15 2658.25 1866.15 Q2652.44 1866.15 2649.36 1861.57 Q2646.31 1856.96 2646.31 1848.24 Q2646.31 1839.49 2649.36 1834.9 Q2652.44 1830.3 2658.25 1830.3 Z" fill="#000000" fill-rule="evenodd" fill-opacity="1" /><polyline clip-path="url(#clip822)" style="stroke:#000000; stroke-linecap:butt; stroke-linejoin:round; stroke-width:2; stroke-opacity:0.1; fill:none" points="
  189.154,1763.19 2640.76,1763.19 
  "/>
<polyline clip-path="url(#clip822)" style="stroke:#000000; stroke-linecap:butt; stroke-linejoin:round; stroke-width:2; stroke-opacity:0.1; fill:none" points="
  189.154,1340.85 2640.76,1340.85 
  "/>
<polyline clip-path="url(#clip822)" style="stroke:#000000; stroke-linecap:butt; stroke-linejoin:round; stroke-width:2; stroke-opacity:0.1; fill:none" points="
  189.154,918.502 2640.76,918.502 
  "/>
<polyline clip-path="url(#clip822)" style="stroke:#000000; stroke-linecap:butt; stroke-linejoin:round; stroke-width:2; stroke-opacity:0.1; fill:none" points="
  189.154,496.157 2640.76,496.157 
  "/>
<polyline clip-path="url(#clip822)" style="stroke:#000000; stroke-linecap:butt; stroke-linejoin:round; stroke-width:2; stroke-opacity:0.1; fill:none" points="
  189.154,73.8113 2640.76,73.8113 
  "/>
<polyline clip-path="url(#clip820)" style="stroke:#000000; stroke-linecap:butt; stroke-linejoin:round; stroke-width:4; stroke-opacity:1; fill:none" points="
  189.154,1800.78 189.154,47.2441 
  "/>
<polyline clip-path="url(#clip820)" style="stroke:#000000; stroke-linecap:butt; stroke-linejoin:round; stroke-width:4; stroke-opacity:1; fill:none" points="
  189.154,1763.19 208.052,1763.19 
  "/>
<polyline clip-path="url(#clip820)" style="stroke:#000000; stroke-linecap:butt; stroke-linejoin:round; stroke-width:4; stroke-opacity:1; fill:none" points="
  189.154,1340.85 208.052,1340.85 
  "/>
<polyline clip-path="url(#clip820)" style="stroke:#000000; stroke-linecap:butt; stroke-linejoin:round; stroke-width:4; stroke-opacity:1; fill:none" points="
  189.154,918.502 208.052,918.502 
  "/>
<polyline clip-path="url(#clip820)" style="stroke:#000000; stroke-linecap:butt; stroke-linejoin:round; stroke-width:4; stroke-opacity:1; fill:none" points="
  189.154,496.157 208.052,496.157 
  "/>
<polyline clip-path="url(#clip820)" style="stroke:#000000; stroke-linecap:butt; stroke-linejoin:round; stroke-width:4; stroke-opacity:1; fill:none" points="
  189.154,73.8113 208.052,73.8113 
  "/>
<path clip-path="url(#clip820)" d="M61.4965 1748.99 Q57.8854 1748.99 56.0567 1752.56 Q54.2512 1756.1 54.2512 1763.23 Q54.2512 1770.33 56.0567 1773.9 Q57.8854 1777.44 61.4965 1777.44 Q65.1307 1777.44 66.9363 1773.9 Q68.765 1770.33 68.765 1763.23 Q68.765 1756.1 66.9363 1752.56 Q65.1307 1748.99 61.4965 1748.99 M61.4965 1745.29 Q67.3067 1745.29 70.3622 1749.89 Q73.4409 1754.48 73.4409 1763.23 Q73.4409 1771.95 70.3622 1776.56 Q67.3067 1781.14 61.4965 1781.14 Q55.6864 1781.14 52.6077 1776.56 Q49.5521 1771.95 49.5521 1763.23 Q49.5521 1754.48 52.6077 1749.89 Q55.6864 1745.29 61.4965 1745.29 Z" fill="#000000" fill-rule="evenodd" fill-opacity="1" /><path clip-path="url(#clip820)" d="M81.6584 1774.59 L86.5427 1774.59 L86.5427 1780.47 L81.6584 1780.47 L81.6584 1774.59 Z" fill="#000000" fill-rule="evenodd" fill-opacity="1" /><path clip-path="url(#clip820)" d="M106.728 1748.99 Q103.117 1748.99 101.288 1752.56 Q99.4824 1756.1 99.4824 1763.23 Q99.4824 1770.33 101.288 1773.9 Q103.117 1777.44 106.728 1777.44 Q110.362 1777.44 112.168 1773.9 Q113.996 1770.33 113.996 1763.23 Q113.996 1756.1 112.168 1752.56 Q110.362 1748.99 106.728 1748.99 M106.728 1745.29 Q112.538 1745.29 115.593 1749.89 Q118.672 1754.48 118.672 1763.23 Q118.672 1771.95 115.593 1776.56 Q112.538 1781.14 106.728 1781.14 Q100.918 1781.14 97.8389 1776.56 Q94.7834 1771.95 94.7834 1763.23 Q94.7834 1754.48 97.8389 1749.89 Q100.918 1745.29 106.728 1745.29 Z" fill="#000000" fill-rule="evenodd" fill-opacity="1" /><path clip-path="url(#clip820)" d="M136.89 1748.99 Q133.279 1748.99 131.45 1752.56 Q129.644 1756.1 129.644 1763.23 Q129.644 1770.33 131.45 1773.9 Q133.279 1777.44 136.89 1777.44 Q140.524 1777.44 142.329 1773.9 Q144.158 1770.33 144.158 1763.23 Q144.158 1756.1 142.329 1752.56 Q140.524 1748.99 136.89 1748.99 M136.89 1745.29 Q142.7 1745.29 145.755 1749.89 Q148.834 1754.48 148.834 1763.23 Q148.834 1771.95 145.755 1776.56 Q142.7 1781.14 136.89 1781.14 Q131.079 1781.14 128.001 1776.56 Q124.945 1771.95 124.945 1763.23 Q124.945 1754.48 128.001 1749.89 Q131.079 1745.29 136.89 1745.29 Z" fill="#000000" fill-rule="evenodd" fill-opacity="1" /><path clip-path="url(#clip820)" d="M62.4919 1326.65 Q58.8808 1326.65 57.0521 1330.21 Q55.2465 1333.75 55.2465 1340.88 Q55.2465 1347.99 57.0521 1351.55 Q58.8808 1355.1 62.4919 1355.1 Q66.1261 1355.1 67.9317 1351.55 Q69.7604 1347.99 69.7604 1340.88 Q69.7604 1333.75 67.9317 1330.21 Q66.1261 1326.65 62.4919 1326.65 M62.4919 1322.94 Q68.302 1322.94 71.3576 1327.55 Q74.4363 1332.13 74.4363 1340.88 Q74.4363 1349.61 71.3576 1354.22 Q68.302 1358.8 62.4919 1358.8 Q56.6817 1358.8 53.603 1354.22 Q50.5475 1349.61 50.5475 1340.88 Q50.5475 1332.13 53.603 1327.55 Q56.6817 1322.94 62.4919 1322.94 Z" fill="#000000" fill-rule="evenodd" fill-opacity="1" /><path clip-path="url(#clip820)" d="M82.6538 1352.25 L87.538 1352.25 L87.538 1358.13 L82.6538 1358.13 L82.6538 1352.25 Z" fill="#000000" fill-rule="evenodd" fill-opacity="1" /><path clip-path="url(#clip820)" d="M101.751 1354.19 L118.07 1354.19 L118.07 1358.13 L96.126 1358.13 L96.126 1354.19 Q98.788 1351.44 103.371 1346.81 Q107.978 1342.16 109.158 1340.81 Q111.404 1338.29 112.283 1336.55 Q113.186 1334.79 113.186 1333.1 Q113.186 1330.35 111.242 1328.61 Q109.32 1326.88 106.218 1326.88 Q104.019 1326.88 101.566 1327.64 Q99.1352 1328.41 96.3574 1329.96 L96.3574 1325.23 Q99.1815 1324.1 101.635 1323.52 Q104.089 1322.94 106.126 1322.94 Q111.496 1322.94 114.691 1325.63 Q117.885 1328.31 117.885 1332.8 Q117.885 1334.93 117.075 1336.85 Q116.288 1338.75 114.181 1341.35 Q113.603 1342.02 110.501 1345.23 Q107.399 1348.43 101.751 1354.19 Z" fill="#000000" fill-rule="evenodd" fill-opacity="1" /><path clip-path="url(#clip820)" d="M127.931 1323.57 L146.288 1323.57 L146.288 1327.5 L132.214 1327.5 L132.214 1335.98 Q133.232 1335.63 134.251 1335.47 Q135.269 1335.28 136.288 1335.28 Q142.075 1335.28 145.454 1338.45 Q148.834 1341.62 148.834 1347.04 Q148.834 1352.62 145.362 1355.72 Q141.89 1358.8 135.57 1358.8 Q133.394 1358.8 131.126 1358.43 Q128.88 1358.06 126.473 1357.32 L126.473 1352.62 Q128.556 1353.75 130.779 1354.31 Q133.001 1354.86 135.478 1354.86 Q139.482 1354.86 141.82 1352.76 Q144.158 1350.65 144.158 1347.04 Q144.158 1343.43 141.82 1341.32 Q139.482 1339.22 135.478 1339.22 Q133.603 1339.22 131.728 1339.63 Q129.876 1340.05 127.931 1340.93 L127.931 1323.57 Z" fill="#000000" fill-rule="evenodd" fill-opacity="1" /><path clip-path="url(#clip820)" d="M61.4965 904.301 Q57.8854 904.301 56.0567 907.866 Q54.2512 911.408 54.2512 918.537 Q54.2512 925.644 56.0567 929.208 Q57.8854 932.75 61.4965 932.75 Q65.1307 932.75 66.9363 929.208 Q68.765 925.644 68.765 918.537 Q68.765 911.408 66.9363 907.866 Q65.1307 904.301 61.4965 904.301 M61.4965 900.597 Q67.3067 900.597 70.3622 905.204 Q73.4409 909.787 73.4409 918.537 Q73.4409 927.264 70.3622 931.87 Q67.3067 936.454 61.4965 936.454 Q55.6864 936.454 52.6077 931.87 Q49.5521 927.264 49.5521 918.537 Q49.5521 909.787 52.6077 905.204 Q55.6864 900.597 61.4965 900.597 Z" fill="#000000" fill-rule="evenodd" fill-opacity="1" /><path clip-path="url(#clip820)" d="M81.6584 929.903 L86.5427 929.903 L86.5427 935.782 L81.6584 935.782 L81.6584 929.903 Z" fill="#000000" fill-rule="evenodd" fill-opacity="1" /><path clip-path="url(#clip820)" d="M96.7741 901.222 L115.13 901.222 L115.13 905.158 L101.056 905.158 L101.056 913.63 Q102.075 913.282 103.094 913.12 Q104.112 912.935 105.131 912.935 Q110.918 912.935 114.297 916.107 Q117.677 919.278 117.677 924.694 Q117.677 930.273 114.205 933.375 Q110.732 936.454 104.413 936.454 Q102.237 936.454 99.9685 936.083 Q97.7232 935.713 95.3158 934.972 L95.3158 930.273 Q97.3991 931.407 99.6213 931.963 Q101.844 932.518 104.32 932.518 Q108.325 932.518 110.663 930.412 Q113.001 928.306 113.001 924.694 Q113.001 921.083 110.663 918.977 Q108.325 916.87 104.32 916.87 Q102.445 916.87 100.57 917.287 Q98.7185 917.704 96.7741 918.583 L96.7741 901.222 Z" fill="#000000" fill-rule="evenodd" fill-opacity="1" /><path clip-path="url(#clip820)" d="M136.89 904.301 Q133.279 904.301 131.45 907.866 Q129.644 911.408 129.644 918.537 Q129.644 925.644 131.45 929.208 Q133.279 932.75 136.89 932.75 Q140.524 932.75 142.329 929.208 Q144.158 925.644 144.158 918.537 Q144.158 911.408 142.329 907.866 Q140.524 904.301 136.89 904.301 M136.89 900.597 Q142.7 900.597 145.755 905.204 Q148.834 909.787 148.834 918.537 Q148.834 927.264 145.755 931.87 Q142.7 936.454 136.89 936.454 Q131.079 936.454 128.001 931.87 Q124.945 927.264 124.945 918.537 Q124.945 909.787 128.001 905.204 Q131.079 900.597 136.89 900.597 Z" fill="#000000" fill-rule="evenodd" fill-opacity="1" /><path clip-path="url(#clip820)" d="M62.4919 481.956 Q58.8808 481.956 57.0521 485.52 Q55.2465 489.062 55.2465 496.192 Q55.2465 503.298 57.0521 506.863 Q58.8808 510.404 62.4919 510.404 Q66.1261 510.404 67.9317 506.863 Q69.7604 503.298 69.7604 496.192 Q69.7604 489.062 67.9317 485.52 Q66.1261 481.956 62.4919 481.956 M62.4919 478.252 Q68.302 478.252 71.3576 482.858 Q74.4363 487.442 74.4363 496.192 Q74.4363 504.918 71.3576 509.525 Q68.302 514.108 62.4919 514.108 Q56.6817 514.108 53.603 509.525 Q50.5475 504.918 50.5475 496.192 Q50.5475 487.442 53.603 482.858 Q56.6817 478.252 62.4919 478.252 Z" fill="#000000" fill-rule="evenodd" fill-opacity="1" /><path clip-path="url(#clip820)" d="M82.6538 507.557 L87.538 507.557 L87.538 513.437 L82.6538 513.437 L82.6538 507.557 Z" fill="#000000" fill-rule="evenodd" fill-opacity="1" /><path clip-path="url(#clip820)" d="M96.5426 478.877 L118.765 478.877 L118.765 480.868 L106.218 513.437 L101.334 513.437 L113.14 482.812 L96.5426 482.812 L96.5426 478.877 Z" fill="#000000" fill-rule="evenodd" fill-opacity="1" /><path clip-path="url(#clip820)" d="M127.931 478.877 L146.288 478.877 L146.288 482.812 L132.214 482.812 L132.214 491.284 Q133.232 490.937 134.251 490.775 Q135.269 490.59 136.288 490.59 Q142.075 490.59 145.454 493.761 Q148.834 496.932 148.834 502.349 Q148.834 507.928 145.362 511.029 Q141.89 514.108 135.57 514.108 Q133.394 514.108 131.126 513.738 Q128.88 513.367 126.473 512.627 L126.473 507.928 Q128.556 509.062 130.779 509.617 Q133.001 510.173 135.478 510.173 Q139.482 510.173 141.82 508.066 Q144.158 505.96 144.158 502.349 Q144.158 498.738 141.82 496.631 Q139.482 494.525 135.478 494.525 Q133.603 494.525 131.728 494.942 Q129.876 495.358 127.931 496.238 L127.931 478.877 Z" fill="#000000" fill-rule="evenodd" fill-opacity="1" /><path clip-path="url(#clip820)" d="M52.3067 87.1561 L59.9456 87.1561 L59.9456 60.7905 L51.6354 62.4572 L51.6354 58.1979 L59.8993 56.5313 L64.5752 56.5313 L64.5752 87.1561 L72.214 87.1561 L72.214 91.0913 L52.3067 91.0913 L52.3067 87.1561 Z" fill="#000000" fill-rule="evenodd" fill-opacity="1" /><path clip-path="url(#clip820)" d="M81.6584 85.2117 L86.5427 85.2117 L86.5427 91.0913 L81.6584 91.0913 L81.6584 85.2117 Z" fill="#000000" fill-rule="evenodd" fill-opacity="1" /><path clip-path="url(#clip820)" d="M106.728 59.61 Q103.117 59.61 101.288 63.1748 Q99.4824 66.7164 99.4824 73.846 Q99.4824 80.9524 101.288 84.5172 Q103.117 88.0589 106.728 88.0589 Q110.362 88.0589 112.168 84.5172 Q113.996 80.9524 113.996 73.846 Q113.996 66.7164 112.168 63.1748 Q110.362 59.61 106.728 59.61 M106.728 55.9063 Q112.538 55.9063 115.593 60.5127 Q118.672 65.0961 118.672 73.846 Q118.672 82.5728 115.593 87.1793 Q112.538 91.7626 106.728 91.7626 Q100.918 91.7626 97.8389 87.1793 Q94.7834 82.5728 94.7834 73.846 Q94.7834 65.0961 97.8389 60.5127 Q100.918 55.9063 106.728 55.9063 Z" fill="#000000" fill-rule="evenodd" fill-opacity="1" /><path clip-path="url(#clip820)" d="M136.89 59.61 Q133.279 59.61 131.45 63.1748 Q129.644 66.7164 129.644 73.846 Q129.644 80.9524 131.45 84.5172 Q133.279 88.0589 136.89 88.0589 Q140.524 88.0589 142.329 84.5172 Q144.158 80.9524 144.158 73.846 Q144.158 66.7164 142.329 63.1748 Q140.524 59.61 136.89 59.61 M136.89 55.9063 Q142.7 55.9063 145.755 60.5127 Q148.834 65.0961 148.834 73.846 Q148.834 82.5728 145.755 87.1793 Q142.7 91.7626 136.89 91.7626 Q131.079 91.7626 128.001 87.1793 Q124.945 82.5728 124.945 73.846 Q124.945 65.0961 128.001 60.5127 Q131.079 55.9063 136.89 55.9063 Z" fill="#000000" fill-rule="evenodd" fill-opacity="1" /><polyline clip-path="url(#clip822)" style="stroke:#009af9; stroke-linecap:butt; stroke-linejoin:round; stroke-width:4; stroke-opacity:1; fill:none" points="
  932.188,1125.21 1673.42,397.327 1270.9,721.379 1685.44,358.525 1825.63,96.8724 857.172,1183.77 1546.05,1078.02 1946.66,440.616 1853.07,668.192 444.554,1475.75 
  1187.93,1061.87 2300.12,678.671 1779.07,1182.03 2440.23,1669.47 1967.09,553.07 571.153,591.772 2443.85,180.139 451.221,702.421 1854.35,294.618 1380.99,228.942 
  2153.15,534.366 1123.23,401.325 1274.87,1556.07 965.038,1200.36 789.604,887.729 1198.77,872.427 776.54,1751.15 353.184,814.837 1620.14,329.139 454.178,397 
  2496.34,167.624 1395.18,1460.24 2521.12,661.2 368.679,831.952 1114.26,780.212 1875.07,475.937 1485.03,1435.71 281.978,324.133 2571.37,1524.62 748.762,1085.55 
  1178.75,411.531 1961.17,642.6 505.444,1505.11 1716.64,1270.01 787.151,1329.2 1944.12,659.035 2110.21,690.214 2453.48,478.824 2184.42,834.998 1456.26,1499.7 
  379.28,260.581 714.059,253.762 311.088,360.412 2281,423.824 2543.31,230.31 1728.46,759.122 1419.96,409.434 1687.84,472.263 2047.91,858.848 553.073,1636.12 
  1428.29,995.267 1665.2,871.2 414.42,122.39 1673.34,903.262 1626.75,414.615 498.907,1586.91 1239.42,969.987 1982.5,510.392 2430.97,1322.68 980.295,1034.48 
  1209.68,1283.41 1465.44,1129.83 2339.34,1506.65 1747.55,657.271 2075.65,535.219 2340.17,1723.33 258.539,1568.99 1608.43,1419.19 1145.73,914.078 823.281,1640.63 
  1845.03,349.426 2264.45,850.401 1388.13,1704.48 376.056,976.842 1124.58,718.591 1056.29,1667.34 1236.03,1090.41 482.446,793.661 1995.36,154.15 534.374,766.652 
  2107.05,1152.03 982.719,1314.13 1927.93,1223.17 1428.19,1380.73 2271.99,938.278 1080.61,1235.31 1901.32,575.803 819.436,146.344 550.621,339.153 1011.78,1491.36 
  
  "/>
<path clip-path="url(#clip820)" d="
M2261.45 1742.33 L2559.04 1742.33 L2559.04 1638.65 L2261.45 1638.65  Z
  " fill="#ffffff" fill-rule="evenodd" fill-opacity="1"/>
<polyline clip-path="url(#clip820)" style="stroke:#000000; stroke-linecap:butt; stroke-linejoin:round; stroke-width:4; stroke-opacity:1; fill:none" points="
  2261.45,1742.33 2559.04,1742.33 2559.04,1638.65 2261.45,1638.65 2261.45,1742.33 
  "/>
<polyline clip-path="url(#clip820)" style="stroke:#009af9; stroke-linecap:butt; stroke-linejoin:round; stroke-width:4; stroke-opacity:1; fill:none" points="
  2288.69,1690.49 2452.13,1690.49 
  "/>
<path clip-path="url(#clip820)" d="M2493.21 1710.18 Q2491.4 1714.81 2489.69 1716.22 Q2487.98 1717.63 2485.11 1717.63 L2481.7 1717.63 L2481.7 1714.06 L2484.2 1714.06 Q2485.96 1714.06 2486.93 1713.23 Q2487.91 1712.4 2489.09 1709.3 L2489.85 1707.35 L2479.37 1681.84 L2483.88 1681.84 L2491.98 1702.12 L2500.08 1681.84 L2504.6 1681.84 L2493.21 1710.18 Z" fill="#000000" fill-rule="evenodd" fill-opacity="1" /><path clip-path="url(#clip820)" d="M2511.89 1703.83 L2519.53 1703.83 L2519.53 1677.47 L2511.22 1679.13 L2511.22 1674.87 L2519.48 1673.21 L2524.16 1673.21 L2524.16 1703.83 L2531.8 1703.83 L2531.8 1707.77 L2511.89 1707.77 L2511.89 1703.83 Z" fill="#000000" fill-rule="evenodd" fill-opacity="1" /></svg>
