<?xml version="1.0" encoding="utf-8"?>
<svg xmlns="http://www.w3.org/2000/svg" xmlns:xlink="http://www.w3.org/1999/xlink" width="672" height="480" viewBox="0 0 2688 1920">
<defs>
  <clipPath id="clip150">
    <rect x="0" y="0" width="2688" height="1920"/>
  </clipPath>
</defs>
<path clip-path="url(#clip150)" d="
M0 1920 L2688 1920 L2688 0 L0 0  Z
  " fill="#ffffff" fill-rule="evenodd" fill-opacity="1"/>
<defs>
  <clipPath id="clip151">
    <rect x="537" y="0" width="1883" height="1883"/>
  </clipPath>
</defs>
<path clip-path="url(#clip150)" d="
M159.478 1800.78 L2640.76 1800.78 L2640.76 47.2441 L159.478 47.2441  Z
  " fill="#ffffff" fill-rule="evenodd" fill-opacity="1"/>
<defs>
  <clipPath id="clip152">
    <rect x="159" y="47" width="2482" height="1755"/>
  </clipPath>
</defs>
<polyline clip-path="url(#clip152)" style="stroke:#000000; stroke-linecap:butt; stroke-linejoin:round; stroke-width:2; stroke-opacity:0.1; fill:none" points="
  225.41,1800.78 225.41,47.2441 
  "/>
<polyline clip-path="url(#clip152)" style="stroke:#000000; stroke-linecap:butt; stroke-linejoin:round; stroke-width:2; stroke-opacity:0.1; fill:none" points="
  818.355,1800.78 818.355,47.2441 
  "/>
<polyline clip-path="url(#clip152)" style="stroke:#000000; stroke-linecap:butt; stroke-linejoin:round; stroke-width:2; stroke-opacity:0.1; fill:none" points="
  1411.3,1800.78 1411.3,47.2441 
  "/>
<polyline clip-path="url(#clip152)" style="stroke:#000000; stroke-linecap:butt; stroke-linejoin:round; stroke-width:2; stroke-opacity:0.1; fill:none" points="
  2004.25,1800.78 2004.25,47.2441 
  "/>
<polyline clip-path="url(#clip152)" style="stroke:#000000; stroke-linecap:butt; stroke-linejoin:round; stroke-width:2; stroke-opacity:0.1; fill:none" points="
  2597.19,1800.78 2597.19,47.2441 
  "/>
<polyline clip-path="url(#clip150)" style="stroke:#000000; stroke-linecap:butt; stroke-linejoin:round; stroke-width:4; stroke-opacity:1; fill:none" points="
  159.478,1800.78 2640.76,1800.78 
  "/>
<polyline clip-path="url(#clip150)" style="stroke:#000000; stroke-linecap:butt; stroke-linejoin:round; stroke-width:4; stroke-opacity:1; fill:none" points="
  225.41,1800.78 225.41,1781.88 
  "/>
<polyline clip-path="url(#clip150)" style="stroke:#000000; stroke-linecap:butt; stroke-linejoin:round; stroke-width:4; stroke-opacity:1; fill:none" points="
  818.355,1800.78 818.355,1781.88 
  "/>
<polyline clip-path="url(#clip150)" style="stroke:#000000; stroke-linecap:butt; stroke-linejoin:round; stroke-width:4; stroke-opacity:1; fill:none" points="
  1411.3,1800.78 1411.3,1781.88 
  "/>
<polyline clip-path="url(#clip150)" style="stroke:#000000; stroke-linecap:butt; stroke-linejoin:round; stroke-width:4; stroke-opacity:1; fill:none" points="
  2004.25,1800.78 2004.25,1781.88 
  "/>
<polyline clip-path="url(#clip150)" style="stroke:#000000; stroke-linecap:butt; stroke-linejoin:round; stroke-width:4; stroke-opacity:1; fill:none" points="
  2597.19,1800.78 2597.19,1781.88 
  "/>
<path clip-path="url(#clip150)" d="M187.713 1834 Q184.102 1834 182.273 1837.57 Q180.468 1841.11 180.468 1848.24 Q180.468 1855.34 182.273 1858.91 Q184.102 1862.45 187.713 1862.45 Q191.347 1862.45 193.153 1858.91 Q194.982 1855.34 194.982 1848.24 Q194.982 1841.11 193.153 1837.57 Q191.347 1834 187.713 1834 M187.713 1830.3 Q193.523 1830.3 196.579 1834.9 Q199.658 1839.49 199.658 1848.24 Q199.658 1856.96 196.579 1861.57 Q193.523 1866.15 187.713 1866.15 Q181.903 1866.15 178.824 1861.57 Q175.769 1856.96 175.769 1848.24 Q175.769 1839.49 178.824 1834.9 Q181.903 1830.3 187.713 1830.3 Z" fill="#000000" fill-rule="evenodd" fill-opacity="1" /><path clip-path="url(#clip150)" d="M207.875 1859.6 L212.759 1859.6 L212.759 1865.48 L207.875 1865.48 L207.875 1859.6 Z" fill="#000000" fill-rule="evenodd" fill-opacity="1" /><path clip-path="url(#clip150)" d="M232.944 1834 Q229.333 1834 227.505 1837.57 Q225.699 1841.11 225.699 1848.24 Q225.699 1855.34 227.505 1858.91 Q229.333 1862.45 232.944 1862.45 Q236.579 1862.45 238.384 1858.91 Q240.213 1855.34 240.213 1848.24 Q240.213 1841.11 238.384 1837.57 Q236.579 1834 232.944 1834 M232.944 1830.3 Q238.755 1830.3 241.81 1834.9 Q244.889 1839.49 244.889 1848.24 Q244.889 1856.96 241.81 1861.57 Q238.755 1866.15 232.944 1866.15 Q227.134 1866.15 224.056 1861.57 Q221 1856.96 221 1848.24 Q221 1839.49 224.056 1834.9 Q227.134 1830.3 232.944 1830.3 Z" fill="#000000" fill-rule="evenodd" fill-opacity="1" /><path clip-path="url(#clip150)" d="M263.106 1834 Q259.495 1834 257.667 1837.57 Q255.861 1841.11 255.861 1848.24 Q255.861 1855.34 257.667 1858.91 Q259.495 1862.45 263.106 1862.45 Q266.741 1862.45 268.546 1858.91 Q270.375 1855.34 270.375 1848.24 Q270.375 1841.11 268.546 1837.57 Q266.741 1834 263.106 1834 M263.106 1830.3 Q268.916 1830.3 271.972 1834.9 Q275.051 1839.49 275.051 1848.24 Q275.051 1856.96 271.972 1861.57 Q268.916 1866.15 263.106 1866.15 Q257.296 1866.15 254.217 1861.57 Q251.162 1856.96 251.162 1848.24 Q251.162 1839.49 254.217 1834.9 Q257.296 1830.3 263.106 1830.3 Z" fill="#000000" fill-rule="evenodd" fill-opacity="1" /><path clip-path="url(#clip150)" d="M781.156 1834 Q777.545 1834 775.717 1837.57 Q773.911 1841.11 773.911 1848.24 Q773.911 1855.34 775.717 1858.91 Q777.545 1862.45 781.156 1862.45 Q784.791 1862.45 786.596 1858.91 Q788.425 1855.34 788.425 1848.24 Q788.425 1841.11 786.596 1837.57 Q784.791 1834 781.156 1834 M781.156 1830.3 Q786.967 1830.3 790.022 1834.9 Q793.101 1839.49 793.101 1848.24 Q793.101 1856.96 790.022 1861.57 Q786.967 1866.15 781.156 1866.15 Q775.346 1866.15 772.268 1861.57 Q769.212 1856.96 769.212 1848.24 Q769.212 1839.49 772.268 1834.9 Q775.346 1830.3 781.156 1830.3 Z" fill="#000000" fill-rule="evenodd" fill-opacity="1" /><path clip-path="url(#clip150)" d="M801.318 1859.6 L806.203 1859.6 L806.203 1865.48 L801.318 1865.48 L801.318 1859.6 Z" fill="#000000" fill-rule="evenodd" fill-opacity="1" /><path clip-path="url(#clip150)" d="M820.415 1861.55 L836.735 1861.55 L836.735 1865.48 L814.79 1865.48 L814.79 1861.55 Q817.453 1858.79 822.036 1854.16 Q826.642 1849.51 827.823 1848.17 Q830.068 1845.65 830.948 1843.91 Q831.851 1842.15 831.851 1840.46 Q831.851 1837.71 829.906 1835.97 Q827.985 1834.23 824.883 1834.23 Q822.684 1834.23 820.23 1835 Q817.8 1835.76 815.022 1837.31 L815.022 1832.59 Q817.846 1831.46 820.3 1830.88 Q822.753 1830.3 824.79 1830.3 Q830.161 1830.3 833.355 1832.98 Q836.55 1835.67 836.55 1840.16 Q836.55 1842.29 835.739 1844.21 Q834.952 1846.11 832.846 1848.7 Q832.267 1849.37 829.165 1852.59 Q826.064 1855.78 820.415 1861.55 Z" fill="#000000" fill-rule="evenodd" fill-opacity="1" /><path clip-path="url(#clip150)" d="M846.596 1830.92 L864.952 1830.92 L864.952 1834.86 L850.878 1834.86 L850.878 1843.33 Q851.897 1842.98 852.915 1842.82 Q853.934 1842.64 854.952 1842.64 Q860.739 1842.64 864.119 1845.81 Q867.499 1848.98 867.499 1854.4 Q867.499 1859.97 864.026 1863.08 Q860.554 1866.15 854.235 1866.15 Q852.059 1866.15 849.79 1865.78 Q847.545 1865.41 845.138 1864.67 L845.138 1859.97 Q847.221 1861.11 849.443 1861.66 Q851.665 1862.22 854.142 1862.22 Q858.147 1862.22 860.485 1860.11 Q862.823 1858.01 862.823 1854.4 Q862.823 1850.78 860.485 1848.68 Q858.147 1846.57 854.142 1846.57 Q852.267 1846.57 850.392 1846.99 Q848.54 1847.4 846.596 1848.28 L846.596 1830.92 Z" fill="#000000" fill-rule="evenodd" fill-opacity="1" /><path clip-path="url(#clip150)" d="M1373.6 1834 Q1369.99 1834 1368.16 1837.57 Q1366.36 1841.11 1366.36 1848.24 Q1366.36 1855.34 1368.16 1858.91 Q1369.99 1862.45 1373.6 1862.45 Q1377.24 1862.45 1379.04 1858.91 Q1380.87 1855.34 1380.87 1848.24 Q1380.87 1841.11 1379.04 1837.57 Q1377.24 1834 1373.6 1834 M1373.6 1830.3 Q1379.41 1830.3 1382.47 1834.9 Q1385.55 1839.49 1385.55 1848.24 Q1385.55 1856.96 1382.47 1861.57 Q1379.41 1866.15 1373.6 1866.15 Q1367.79 1866.15 1364.72 1861.57 Q1361.66 1856.96 1361.66 1848.24 Q1361.66 1839.49 1364.72 1834.9 Q1367.79 1830.3 1373.6 1830.3 Z" fill="#000000" fill-rule="evenodd" fill-opacity="1" /><path clip-path="url(#clip150)" d="M1393.77 1859.6 L1398.65 1859.6 L1398.65 1865.48 L1393.77 1865.48 L1393.77 1859.6 Z" fill="#000000" fill-rule="evenodd" fill-opacity="1" /><path clip-path="url(#clip150)" d="M1408.88 1830.92 L1427.24 1830.92 L1427.24 1834.86 L1413.16 1834.86 L1413.16 1843.33 Q1414.18 1842.98 1415.2 1842.82 Q1416.22 1842.64 1417.24 1842.64 Q1423.03 1842.64 1426.4 1845.81 Q1429.78 1848.98 1429.78 1854.4 Q1429.78 1859.97 1426.31 1863.08 Q1422.84 1866.15 1416.52 1866.15 Q1414.34 1866.15 1412.08 1865.78 Q1409.83 1865.41 1407.42 1864.67 L1407.42 1859.97 Q1409.51 1861.11 1411.73 1861.66 Q1413.95 1862.22 1416.43 1862.22 Q1420.43 1862.22 1422.77 1860.11 Q1425.11 1858.01 1425.11 1854.4 Q1425.11 1850.78 1422.77 1848.68 Q1420.43 1846.57 1416.43 1846.57 Q1414.55 1846.57 1412.68 1846.99 Q1410.83 1847.4 1408.88 1848.28 L1408.88 1830.92 Z" fill="#000000" fill-rule="evenodd" fill-opacity="1" /><path clip-path="url(#clip150)" d="M1449 1834 Q1445.39 1834 1443.56 1837.57 Q1441.75 1841.11 1441.75 1848.24 Q1441.75 1855.34 1443.56 1858.91 Q1445.39 1862.45 1449 1862.45 Q1452.63 1862.45 1454.44 1858.91 Q1456.27 1855.34 1456.27 1848.24 Q1456.27 1841.11 1454.44 1837.57 Q1452.63 1834 1449 1834 M1449 1830.3 Q1454.81 1830.3 1457.86 1834.9 Q1460.94 1839.49 1460.94 1848.24 Q1460.94 1856.96 1457.86 1861.57 Q1454.81 1866.15 1449 1866.15 Q1443.19 1866.15 1440.11 1861.57 Q1437.05 1856.96 1437.05 1848.24 Q1437.05 1839.49 1440.11 1834.9 Q1443.19 1830.3 1449 1830.3 Z" fill="#000000" fill-rule="evenodd" fill-opacity="1" /><path clip-path="url(#clip150)" d="M1967.05 1834 Q1963.44 1834 1961.61 1837.57 Q1959.8 1841.11 1959.8 1848.24 Q1959.8 1855.34 1961.61 1858.91 Q1963.44 1862.45 1967.05 1862.45 Q1970.68 1862.45 1972.49 1858.91 Q1974.32 1855.34 1974.32 1848.24 Q1974.32 1841.11 1972.49 1837.57 Q1970.68 1834 1967.05 1834 M1967.05 1830.3 Q1972.86 1830.3 1975.91 1834.9 Q1978.99 1839.49 1978.99 1848.24 Q1978.99 1856.96 1975.91 1861.57 Q1972.86 1866.15 1967.05 1866.15 Q1961.24 1866.15 1958.16 1861.57 Q1955.1 1856.96 1955.1 1848.24 Q1955.1 1839.49 1958.16 1834.9 Q1961.24 1830.3 1967.05 1830.3 Z" fill="#000000" fill-rule="evenodd" fill-opacity="1" /><path clip-path="url(#clip150)" d="M1987.21 1859.6 L1992.09 1859.6 L1992.09 1865.48 L1987.21 1865.48 L1987.21 1859.6 Z" fill="#000000" fill-rule="evenodd" fill-opacity="1" /><path clip-path="url(#clip150)" d="M2001.1 1830.92 L2023.32 1830.92 L2023.32 1832.91 L2010.77 1865.48 L2005.89 1865.48 L2017.7 1834.86 L2001.1 1834.86 L2001.1 1830.92 Z" fill="#000000" fill-rule="evenodd" fill-opacity="1" /><path clip-path="url(#clip150)" d="M2032.49 1830.92 L2050.84 1830.92 L2050.84 1834.86 L2036.77 1834.86 L2036.77 1843.33 Q2037.79 1842.98 2038.81 1842.82 Q2039.82 1842.64 2040.84 1842.64 Q2046.63 1842.64 2050.01 1845.81 Q2053.39 1848.98 2053.39 1854.4 Q2053.39 1859.97 2049.92 1863.08 Q2046.45 1866.15 2040.13 1866.15 Q2037.95 1866.15 2035.68 1865.78 Q2033.44 1865.41 2031.03 1864.67 L2031.03 1859.97 Q2033.11 1861.11 2035.33 1861.66 Q2037.56 1862.22 2040.03 1862.22 Q2044.04 1862.22 2046.38 1860.11 Q2048.71 1858.01 2048.71 1854.4 Q2048.71 1850.78 2046.38 1848.68 Q2044.04 1846.57 2040.03 1846.57 Q2038.16 1846.57 2036.28 1846.99 Q2034.43 1847.4 2032.49 1848.28 L2032.49 1830.92 Z" fill="#000000" fill-rule="evenodd" fill-opacity="1" /><path clip-path="url(#clip150)" d="M2549.26 1861.55 L2556.9 1861.55 L2556.9 1835.18 L2548.59 1836.85 L2548.59 1832.59 L2556.86 1830.92 L2561.53 1830.92 L2561.53 1861.55 L2569.17 1861.55 L2569.17 1865.48 L2549.26 1865.48 L2549.26 1861.55 Z" fill="#000000" fill-rule="evenodd" fill-opacity="1" /><path clip-path="url(#clip150)" d="M2578.62 1859.6 L2583.5 1859.6 L2583.5 1865.48 L2578.62 1865.48 L2578.62 1859.6 Z" fill="#000000" fill-rule="evenodd" fill-opacity="1" /><path clip-path="url(#clip150)" d="M2603.68 1834 Q2600.07 1834 2598.25 1837.57 Q2596.44 1841.11 2596.44 1848.24 Q2596.44 1855.34 2598.25 1858.91 Q2600.07 1862.45 2603.68 1862.45 Q2607.32 1862.45 2609.12 1858.91 Q2610.95 1855.34 2610.95 1848.24 Q2610.95 1841.11 2609.12 1837.57 Q2607.32 1834 2603.68 1834 M2603.68 1830.3 Q2609.5 1830.3 2612.55 1834.9 Q2615.63 1839.49 2615.63 1848.24 Q2615.63 1856.96 2612.55 1861.57 Q2609.5 1866.15 2603.68 1866.15 Q2597.87 1866.15 2594.8 1861.57 Q2591.74 1856.96 2591.74 1848.24 Q2591.74 1839.49 2594.8 1834.9 Q2597.87 1830.3 2603.68 1830.3 Z" fill="#000000" fill-rule="evenodd" fill-opacity="1" /><path clip-path="url(#clip150)" d="M2633.85 1834 Q2630.24 1834 2628.41 1837.57 Q2626.6 1841.11 2626.6 1848.24 Q2626.6 1855.34 2628.41 1858.91 Q2630.24 1862.45 2633.85 1862.45 Q2637.48 1862.45 2639.29 1858.91 Q2641.12 1855.34 2641.12 1848.24 Q2641.12 1841.11 2639.29 1837.57 Q2637.48 1834 2633.85 1834 M2633.85 1830.3 Q2639.66 1830.3 2642.71 1834.9 Q2645.79 1839.49 2645.79 1848.24 Q2645.79 1856.96 2642.71 1861.57 Q2639.66 1866.15 2633.85 1866.15 Q2628.04 1866.15 2624.96 1861.57 Q2621.9 1856.96 2621.9 1848.24 Q2621.9 1839.49 2624.96 1834.9 Q2628.04 1830.3 2633.85 1830.3 Z" fill="#000000" fill-rule="evenodd" fill-opacity="1" /><polyline clip-path="url(#clip152)" style="stroke:#000000; stroke-linecap:butt; stroke-linejoin:round; stroke-width:2; stroke-opacity:0.1; fill:none" points="
  159.478,1783.19 2640.76,1783.19 
  "/>
<polyline clip-path="url(#clip152)" style="stroke:#000000; stroke-linecap:butt; stroke-linejoin:round; stroke-width:2; stroke-opacity:0.1; fill:none" points="
  159.478,1434.99 2640.76,1434.99 
  "/>
<polyline clip-path="url(#clip152)" style="stroke:#000000; stroke-linecap:butt; stroke-linejoin:round; stroke-width:2; stroke-opacity:0.1; fill:none" points="
  159.478,1086.79 2640.76,1086.79 
  "/>
<polyline clip-path="url(#clip152)" style="stroke:#000000; stroke-linecap:butt; stroke-linejoin:round; stroke-width:2; stroke-opacity:0.1; fill:none" points="
  159.478,738.591 2640.76,738.591 
  "/>
<polyline clip-path="url(#clip152)" style="stroke:#000000; stroke-linecap:butt; stroke-linejoin:round; stroke-width:2; stroke-opacity:0.1; fill:none" points="
  159.478,390.391 2640.76,390.391 
  "/>
<polyline clip-path="url(#clip150)" style="stroke:#000000; stroke-linecap:butt; stroke-linejoin:round; stroke-width:4; stroke-opacity:1; fill:none" points="
  159.478,1800.78 159.478,47.2441 
  "/>
<polyline clip-path="url(#clip150)" style="stroke:#000000; stroke-linecap:butt; stroke-linejoin:round; stroke-width:4; stroke-opacity:1; fill:none" points="
  159.478,1783.19 178.376,1783.19 
  "/>
<polyline clip-path="url(#clip150)" style="stroke:#000000; stroke-linecap:butt; stroke-linejoin:round; stroke-width:4; stroke-opacity:1; fill:none" points="
  159.478,1434.99 178.376,1434.99 
  "/>
<polyline clip-path="url(#clip150)" style="stroke:#000000; stroke-linecap:butt; stroke-linejoin:round; stroke-width:4; stroke-opacity:1; fill:none" points="
  159.478,1086.79 178.376,1086.79 
  "/>
<polyline clip-path="url(#clip150)" style="stroke:#000000; stroke-linecap:butt; stroke-linejoin:round; stroke-width:4; stroke-opacity:1; fill:none" points="
  159.478,738.591 178.376,738.591 
  "/>
<polyline clip-path="url(#clip150)" style="stroke:#000000; stroke-linecap:butt; stroke-linejoin:round; stroke-width:4; stroke-opacity:1; fill:none" points="
  159.478,390.391 178.376,390.391 
  "/>
<path clip-path="url(#clip150)" d="M61.9826 1768.99 Q58.3715 1768.99 56.5428 1772.55 Q54.7373 1776.1 54.7373 1783.23 Q54.7373 1790.33 56.5428 1793.9 Q58.3715 1797.44 61.9826 1797.44 Q65.6169 1797.44 67.4224 1793.9 Q69.2511 1790.33 69.2511 1783.23 Q69.2511 1776.1 67.4224 1772.55 Q65.6169 1768.99 61.9826 1768.99 M61.9826 1765.29 Q67.7928 1765.29 70.8483 1769.89 Q73.927 1774.48 73.927 1783.23 Q73.927 1791.95 70.8483 1796.56 Q67.7928 1801.14 61.9826 1801.14 Q56.1725 1801.14 53.0938 1796.56 Q50.0382 1791.95 50.0382 1783.23 Q50.0382 1774.48 53.0938 1769.89 Q56.1725 1765.29 61.9826 1765.29 Z" fill="#000000" fill-rule="evenodd" fill-opacity="1" /><path clip-path="url(#clip150)" d="M82.1445 1794.59 L87.0288 1794.59 L87.0288 1800.47 L82.1445 1800.47 L82.1445 1794.59 Z" fill="#000000" fill-rule="evenodd" fill-opacity="1" /><path clip-path="url(#clip150)" d="M107.214 1768.99 Q103.603 1768.99 101.774 1772.55 Q99.9685 1776.1 99.9685 1783.23 Q99.9685 1790.33 101.774 1793.9 Q103.603 1797.44 107.214 1797.44 Q110.848 1797.44 112.654 1793.9 Q114.482 1790.33 114.482 1783.23 Q114.482 1776.1 112.654 1772.55 Q110.848 1768.99 107.214 1768.99 M107.214 1765.29 Q113.024 1765.29 116.08 1769.89 Q119.158 1774.48 119.158 1783.23 Q119.158 1791.95 116.08 1796.56 Q113.024 1801.14 107.214 1801.14 Q101.404 1801.14 98.325 1796.56 Q95.2695 1791.95 95.2695 1783.23 Q95.2695 1774.48 98.325 1769.89 Q101.404 1765.29 107.214 1765.29 Z" fill="#000000" fill-rule="evenodd" fill-opacity="1" /><path clip-path="url(#clip150)" d="M63.5798 1420.79 Q59.9687 1420.79 58.14 1424.35 Q56.3345 1427.9 56.3345 1435.03 Q56.3345 1442.13 58.14 1445.7 Q59.9687 1449.24 63.5798 1449.24 Q67.2141 1449.24 69.0196 1445.7 Q70.8483 1442.13 70.8483 1435.03 Q70.8483 1427.9 69.0196 1424.35 Q67.2141 1420.79 63.5798 1420.79 M63.5798 1417.09 Q69.39 1417.09 72.4455 1421.69 Q75.5242 1426.28 75.5242 1435.03 Q75.5242 1443.75 72.4455 1448.36 Q69.39 1452.94 63.5798 1452.94 Q57.7697 1452.94 54.691 1448.36 Q51.6354 1443.75 51.6354 1435.03 Q51.6354 1426.28 54.691 1421.69 Q57.7697 1417.09 63.5798 1417.09 Z" fill="#000000" fill-rule="evenodd" fill-opacity="1" /><path clip-path="url(#clip150)" d="M83.7418 1446.39 L88.626 1446.39 L88.626 1452.27 L83.7418 1452.27 L83.7418 1446.39 Z" fill="#000000" fill-rule="evenodd" fill-opacity="1" /><path clip-path="url(#clip150)" d="M102.839 1448.34 L119.158 1448.34 L119.158 1452.27 L97.2139 1452.27 L97.2139 1448.34 Q99.8759 1445.58 104.459 1440.95 Q109.066 1436.3 110.246 1434.96 Q112.492 1432.43 113.371 1430.7 Q114.274 1428.94 114.274 1427.25 Q114.274 1424.49 112.33 1422.76 Q110.408 1421.02 107.306 1421.02 Q105.107 1421.02 102.654 1421.79 Q100.223 1422.55 97.4454 1424.1 L97.4454 1419.38 Q100.269 1418.24 102.723 1417.66 Q105.177 1417.09 107.214 1417.09 Q112.584 1417.09 115.779 1419.77 Q118.973 1422.46 118.973 1426.95 Q118.973 1429.08 118.163 1431 Q117.376 1432.9 115.269 1435.49 Q114.691 1436.16 111.589 1439.38 Q108.487 1442.57 102.839 1448.34 Z" fill="#000000" fill-rule="evenodd" fill-opacity="1" /><path clip-path="url(#clip150)" d="M61.4965 1072.59 Q57.8854 1072.59 56.0567 1076.15 Q54.2512 1079.7 54.2512 1086.83 Q54.2512 1093.93 56.0567 1097.5 Q57.8854 1101.04 61.4965 1101.04 Q65.1307 1101.04 66.9363 1097.5 Q68.765 1093.93 68.765 1086.83 Q68.765 1079.7 66.9363 1076.15 Q65.1307 1072.59 61.4965 1072.59 M61.4965 1068.89 Q67.3067 1068.89 70.3622 1073.49 Q73.4409 1078.08 73.4409 1086.83 Q73.4409 1095.55 70.3622 1100.16 Q67.3067 1104.74 61.4965 1104.74 Q55.6864 1104.74 52.6077 1100.16 Q49.5521 1095.55 49.5521 1086.83 Q49.5521 1078.08 52.6077 1073.49 Q55.6864 1068.89 61.4965 1068.89 Z" fill="#000000" fill-rule="evenodd" fill-opacity="1" /><path clip-path="url(#clip150)" d="M81.6584 1098.19 L86.5427 1098.19 L86.5427 1104.07 L81.6584 1104.07 L81.6584 1098.19 Z" fill="#000000" fill-rule="evenodd" fill-opacity="1" /><path clip-path="url(#clip150)" d="M109.575 1073.59 L97.7695 1092.03 L109.575 1092.03 L109.575 1073.59 M108.348 1069.51 L114.228 1069.51 L114.228 1092.03 L119.158 1092.03 L119.158 1095.92 L114.228 1095.92 L114.228 1104.07 L109.575 1104.07 L109.575 1095.92 L93.9732 1095.92 L93.9732 1091.41 L108.348 1069.51 Z" fill="#000000" fill-rule="evenodd" fill-opacity="1" /><path clip-path="url(#clip150)" d="M61.8206 724.39 Q58.2095 724.39 56.3808 727.954 Q54.5752 731.496 54.5752 738.626 Q54.5752 745.732 56.3808 749.297 Q58.2095 752.838 61.8206 752.838 Q65.4548 752.838 67.2604 749.297 Q69.0891 745.732 69.0891 738.626 Q69.0891 731.496 67.2604 727.954 Q65.4548 724.39 61.8206 724.39 M61.8206 720.686 Q67.6307 720.686 70.6863 725.292 Q73.765 729.876 73.765 738.626 Q73.765 747.352 70.6863 751.959 Q67.6307 756.542 61.8206 756.542 Q56.0104 756.542 52.9317 751.959 Q49.8762 747.352 49.8762 738.626 Q49.8762 729.876 52.9317 725.292 Q56.0104 720.686 61.8206 720.686 Z" fill="#000000" fill-rule="evenodd" fill-opacity="1" /><path clip-path="url(#clip150)" d="M81.9825 749.991 L86.8667 749.991 L86.8667 755.871 L81.9825 755.871 L81.9825 749.991 Z" fill="#000000" fill-rule="evenodd" fill-opacity="1" /><path clip-path="url(#clip150)" d="M107.631 736.727 Q104.482 736.727 102.631 738.88 Q100.802 741.033 100.802 744.783 Q100.802 748.51 102.631 750.686 Q104.482 752.838 107.631 752.838 Q110.779 752.838 112.607 750.686 Q114.459 748.51 114.459 744.783 Q114.459 741.033 112.607 738.88 Q110.779 736.727 107.631 736.727 M116.913 722.075 L116.913 726.334 Q115.154 725.501 113.348 725.061 Q111.566 724.621 109.806 724.621 Q105.177 724.621 102.723 727.746 Q100.293 730.871 99.9454 737.19 Q101.311 735.177 103.371 734.112 Q105.431 733.024 107.908 733.024 Q113.117 733.024 116.126 736.195 Q119.158 739.343 119.158 744.783 Q119.158 750.107 116.01 753.325 Q112.862 756.542 107.631 756.542 Q101.635 756.542 98.4639 751.959 Q95.2926 747.352 95.2926 738.626 Q95.2926 730.431 99.1815 725.57 Q103.07 720.686 109.621 720.686 Q111.38 720.686 113.163 721.033 Q114.968 721.38 116.913 722.075 Z" fill="#000000" fill-rule="evenodd" fill-opacity="1" /><path clip-path="url(#clip150)" d="M62.0752 376.189 Q58.4641 376.189 56.6354 379.754 Q54.8299 383.296 54.8299 390.425 Q54.8299 397.532 56.6354 401.097 Q58.4641 404.638 62.0752 404.638 Q65.7094 404.638 67.515 401.097 Q69.3437 397.532 69.3437 390.425 Q69.3437 383.296 67.515 379.754 Q65.7094 376.189 62.0752 376.189 M62.0752 372.486 Q67.8854 372.486 70.9409 377.092 Q74.0196 381.676 74.0196 390.425 Q74.0196 399.152 70.9409 403.759 Q67.8854 408.342 62.0752 408.342 Q56.2651 408.342 53.1864 403.759 Q50.1308 399.152 50.1308 390.425 Q50.1308 381.676 53.1864 377.092 Q56.2651 372.486 62.0752 372.486 Z" fill="#000000" fill-rule="evenodd" fill-opacity="1" /><path clip-path="url(#clip150)" d="M82.2371 401.791 L87.1214 401.791 L87.1214 407.671 L82.2371 407.671 L82.2371 401.791 Z" fill="#000000" fill-rule="evenodd" fill-opacity="1" /><path clip-path="url(#clip150)" d="M107.306 391.259 Q103.973 391.259 102.052 393.041 Q100.154 394.824 100.154 397.949 Q100.154 401.074 102.052 402.856 Q103.973 404.638 107.306 404.638 Q110.64 404.638 112.561 402.856 Q114.482 401.05 114.482 397.949 Q114.482 394.824 112.561 393.041 Q110.663 391.259 107.306 391.259 M102.631 389.268 Q99.6213 388.527 97.9315 386.467 Q96.2648 384.407 96.2648 381.444 Q96.2648 377.301 99.2046 374.893 Q102.168 372.486 107.306 372.486 Q112.468 372.486 115.408 374.893 Q118.348 377.301 118.348 381.444 Q118.348 384.407 116.658 386.467 Q114.992 388.527 112.005 389.268 Q115.385 390.055 117.26 392.347 Q119.158 394.638 119.158 397.949 Q119.158 402.972 116.08 405.657 Q113.024 408.342 107.306 408.342 Q101.589 408.342 98.5102 405.657 Q95.4547 402.972 95.4547 397.949 Q95.4547 394.638 97.3528 392.347 Q99.2509 390.055 102.631 389.268 M100.918 381.884 Q100.918 384.569 102.584 386.074 Q104.274 387.578 107.306 387.578 Q110.316 387.578 112.005 386.074 Q113.718 384.569 113.718 381.884 Q113.718 379.199 112.005 377.694 Q110.316 376.189 107.306 376.189 Q104.274 376.189 102.584 377.694 Q100.918 379.199 100.918 381.884 Z" fill="#000000" fill-rule="evenodd" fill-opacity="1" /><polyline clip-path="url(#clip152)" style="stroke:#009af9; stroke-linecap:butt; stroke-linejoin:round; stroke-width:4; stroke-opacity:1; fill:none" points="
  2133.19,1415.9 1179.56,1622.41 381.69,539.997 489.597,760.368 1920.5,862.917 752.284,997.08 754.856,346.175 1494.13,1207.74 2338.98,1436.42 1170.06,1749.48 
  2093.12,1718.86 2047.16,375.38 1549.91,269.777 1922.68,1563.67 410.377,1695.23 443.036,1525.37 1307.33,755.058 396.458,529.552 1072.26,739.982 1675.5,1535.09 
  1887.43,201.351 391.35,1604.5 705.216,1274.53 631.24,1458.06 1923.19,297.838 2448.98,533.826 2547.3,1212.67 1779.21,190.967 273.508,1344.92 860.933,125.216 
  945.789,1737.34 2351.31,433.311 2562.99,1170.68 575.373,1687.55 1818.6,370.953 602.086,219.477 236.402,176.067 2445.6,909.643 576.209,670.818 982.374,1007.37 
  2412.95,946.488 2509.86,1415.26 753.989,1045.06 733.046,1532.7 1011.04,1424.37 1979.34,511.35 377.91,169.823 2468.76,1220.98 1358.92,1727.22 1751.3,1252.22 
  229.703,389.389 1167.13,645.579 723.66,1473.63 2488.9,219.239 1091.24,161.941 1157.89,117.48 518.543,1468.68 1116.43,546.421 1660.37,1449.63 1557.04,522.143 
  1282.13,760.362 690.805,1507.46 1352.95,175.972 2529.22,156.512 2057.64,1624.3 1680.23,539.643 2570.53,643.446 1453.36,1085.48 1156.19,1626.25 1791.07,1370.76 
  1743.6,542.431 2288.82,1051.88 2539.49,1749.3 324.366,1052.9 666.025,1487.16 2259.67,96.8724 473.109,367.585 365.761,182.342 590.941,681.373 1680.23,770.939 
  1883.33,320.442 1028.13,162.583 1170.41,1361.14 1609.22,281.31 1292.61,704.715 2568.97,988.079 2189.31,1412.99 236.459,288.363 328.31,1055.95 1338.41,767.241 
  2320.74,653.757 505.056,420.215 978.646,754.622 1350.84,993.598 1531.52,1751.15 267.601,843.882 1624.37,1139.21 2465.82,601.882 670.557,1126.44 2263.56,409.525 
  
  "/>
<path clip-path="url(#clip150)" d="
M2257.49 1742.33 L2558.05 1742.33 L2558.05 1638.65 L2257.49 1638.65  Z
  " fill="#ffffff" fill-rule="evenodd" fill-opacity="1"/>
<polyline clip-path="url(#clip150)" style="stroke:#000000; stroke-linecap:butt; stroke-linejoin:round; stroke-width:4; stroke-opacity:1; fill:none" points="
  2257.49,1742.33 2558.05,1742.33 2558.05,1638.65 2257.49,1638.65 2257.49,1742.33 
  "/>
<polyline clip-path="url(#clip150)" style="stroke:#009af9; stroke-linecap:butt; stroke-linejoin:round; stroke-width:4; stroke-opacity:1; fill:none" points="
  2285.06,1690.49 2450.48,1690.49 
  "/>
<path clip-path="url(#clip150)" d="M2491.89 1710.18 Q2490.08 1714.81 2488.37 1716.22 Q2486.66 1717.63 2483.79 1717.63 L2480.38 1717.63 L2480.38 1714.06 L2482.88 1714.06 Q2484.64 1714.06 2485.62 1713.23 Q2486.59 1712.4 2487.77 1709.3 L2488.53 1707.35 L2478.05 1681.84 L2482.56 1681.84 L2490.66 1702.12 L2498.76 1681.84 L2503.28 1681.84 L2491.89 1710.18 Z" fill="#000000" fill-rule="evenodd" fill-opacity="1" /><path clip-path="url(#clip150)" d="M2510.57 1703.83 L2518.21 1703.83 L2518.21 1677.47 L2509.9 1679.13 L2509.9 1674.87 L2518.16 1673.21 L2522.84 1673.21 L2522.84 1703.83 L2530.48 1703.83 L2530.48 1707.77 L2510.57 1707.77 L2510.57 1703.83 Z" fill="#000000" fill-rule="evenodd" fill-opacity="1" /></svg>
