<?xml version="1.0" encoding="utf-8"?>
<svg xmlns="http://www.w3.org/2000/svg" xmlns:xlink="http://www.w3.org/1999/xlink" width="672" height="480" viewBox="0 0 2688 1920">
<defs>
  <clipPath id="clip120">
    <rect x="0" y="0" width="2688" height="1920"/>
  </clipPath>
</defs>
<path clip-path="url(#clip120)" d="
M0 1920 L2688 1920 L2688 0 L0 0  Z
  " fill="#ffffff" fill-rule="evenodd" fill-opacity="1"/>
<defs>
  <clipPath id="clip121">
    <rect x="537" y="0" width="1883" height="1883"/>
  </clipPath>
</defs>
<path clip-path="url(#clip120)" d="
M189.154 1800.78 L2640.76 1800.78 L2640.76 47.2441 L189.154 47.2441  Z
  " fill="#ffffff" fill-rule="evenodd" fill-opacity="1"/>
<defs>
  <clipPath id="clip122">
    <rect x="189" y="47" width="2453" height="1755"/>
  </clipPath>
</defs>
<polyline clip-path="url(#clip122)" style="stroke:#000000; stroke-linecap:butt; stroke-linejoin:round; stroke-width:2; stroke-opacity:0.1; fill:none" points="
  255.153,1800.78 255.153,47.2441 
  "/>
<polyline clip-path="url(#clip122)" style="stroke:#000000; stroke-linecap:butt; stroke-linejoin:round; stroke-width:2; stroke-opacity:0.1; fill:none" points="
  838.163,1800.78 838.163,47.2441 
  "/>
<polyline clip-path="url(#clip122)" style="stroke:#000000; stroke-linecap:butt; stroke-linejoin:round; stroke-width:2; stroke-opacity:0.1; fill:none" points="
  1421.17,1800.78 1421.17,47.2441 
  "/>
<polyline clip-path="url(#clip122)" style="stroke:#000000; stroke-linecap:butt; stroke-linejoin:round; stroke-width:2; stroke-opacity:0.1; fill:none" points="
  2004.18,1800.78 2004.18,47.2441 
  "/>
<polyline clip-path="url(#clip122)" style="stroke:#000000; stroke-linecap:butt; stroke-linejoin:round; stroke-width:2; stroke-opacity:0.1; fill:none" points="
  2587.19,1800.78 2587.19,47.2441 
  "/>
<polyline clip-path="url(#clip120)" style="stroke:#000000; stroke-linecap:butt; stroke-linejoin:round; stroke-width:4; stroke-opacity:1; fill:none" points="
  189.154,1800.78 2640.76,1800.78 
  "/>
<polyline clip-path="url(#clip120)" style="stroke:#000000; stroke-linecap:butt; stroke-linejoin:round; stroke-width:4; stroke-opacity:1; fill:none" points="
  255.153,1800.78 255.153,1781.88 
  "/>
<polyline clip-path="url(#clip120)" style="stroke:#000000; stroke-linecap:butt; stroke-linejoin:round; stroke-width:4; stroke-opacity:1; fill:none" points="
  838.163,1800.78 838.163,1781.88 
  "/>
<polyline clip-path="url(#clip120)" style="stroke:#000000; stroke-linecap:butt; stroke-linejoin:round; stroke-width:4; stroke-opacity:1; fill:none" points="
  1421.17,1800.78 1421.17,1781.88 
  "/>
<polyline clip-path="url(#clip120)" style="stroke:#000000; stroke-linecap:butt; stroke-linejoin:round; stroke-width:4; stroke-opacity:1; fill:none" points="
  2004.18,1800.78 2004.18,1781.88 
  "/>
<polyline clip-path="url(#clip120)" style="stroke:#000000; stroke-linecap:butt; stroke-linejoin:round; stroke-width:4; stroke-opacity:1; fill:none" points="
  2587.19,1800.78 2587.19,1781.88 
  "/>
<path clip-path="url(#clip120)" d="M217.456 1834 Q213.845 1834 212.016 1837.57 Q210.211 1841.11 210.211 1848.24 Q210.211 1855.34 212.016 1858.91 Q213.845 1862.45 217.456 1862.45 Q221.09 1862.45 222.896 1858.91 Q224.724 1855.34 224.724 1848.24 Q224.724 1841.11 222.896 1837.57 Q221.09 1834 217.456 1834 M217.456 1830.3 Q223.266 1830.3 226.322 1834.9 Q229.4 1839.49 229.4 1848.24 Q229.4 1856.96 226.322 1861.57 Q223.266 1866.15 217.456 1866.15 Q211.646 1866.15 208.567 1861.57 Q205.512 1856.96 205.512 1848.24 Q205.512 1839.49 208.567 1834.9 Q211.646 1830.3 217.456 1830.3 Z" fill="#000000" fill-rule="evenodd" fill-opacity="1" /><path clip-path="url(#clip120)" d="M237.618 1859.6 L242.502 1859.6 L242.502 1865.48 L237.618 1865.48 L237.618 1859.6 Z" fill="#000000" fill-rule="evenodd" fill-opacity="1" /><path clip-path="url(#clip120)" d="M262.687 1834 Q259.076 1834 257.247 1837.57 Q255.442 1841.11 255.442 1848.24 Q255.442 1855.34 257.247 1858.91 Q259.076 1862.45 262.687 1862.45 Q266.321 1862.45 268.127 1858.91 Q269.956 1855.34 269.956 1848.24 Q269.956 1841.11 268.127 1837.57 Q266.321 1834 262.687 1834 M262.687 1830.3 Q268.497 1830.3 271.553 1834.9 Q274.632 1839.49 274.632 1848.24 Q274.632 1856.96 271.553 1861.57 Q268.497 1866.15 262.687 1866.15 Q256.877 1866.15 253.798 1861.57 Q250.743 1856.96 250.743 1848.24 Q250.743 1839.49 253.798 1834.9 Q256.877 1830.3 262.687 1830.3 Z" fill="#000000" fill-rule="evenodd" fill-opacity="1" /><path clip-path="url(#clip120)" d="M292.849 1834 Q289.238 1834 287.409 1837.57 Q285.604 1841.11 285.604 1848.24 Q285.604 1855.34 287.409 1858.91 Q289.238 1862.45 292.849 1862.45 Q296.483 1862.45 298.289 1858.91 Q300.118 1855.34 300.118 1848.24 Q300.118 1841.11 298.289 1837.57 Q296.483 1834 292.849 1834 M292.849 1830.3 Q298.659 1830.3 301.715 1834.9 Q304.793 1839.49 304.793 1848.24 Q304.793 1856.96 301.715 1861.57 Q298.659 1866.15 292.849 1866.15 Q287.039 1866.15 283.96 1861.57 Q280.905 1856.96 280.905 1848.24 Q280.905 1839.49 283.96 1834.9 Q287.039 1830.3 292.849 1830.3 Z" fill="#000000" fill-rule="evenodd" fill-opacity="1" /><path clip-path="url(#clip120)" d="M800.964 1834 Q797.353 1834 795.524 1837.57 Q793.719 1841.11 793.719 1848.24 Q793.719 1855.34 795.524 1858.91 Q797.353 1862.45 800.964 1862.45 Q804.598 1862.45 806.404 1858.91 Q808.232 1855.34 808.232 1848.24 Q808.232 1841.11 806.404 1837.57 Q804.598 1834 800.964 1834 M800.964 1830.3 Q806.774 1830.3 809.83 1834.9 Q812.908 1839.49 812.908 1848.24 Q812.908 1856.96 809.83 1861.57 Q806.774 1866.15 800.964 1866.15 Q795.154 1866.15 792.075 1861.57 Q789.019 1856.96 789.019 1848.24 Q789.019 1839.49 792.075 1834.9 Q795.154 1830.3 800.964 1830.3 Z" fill="#000000" fill-rule="evenodd" fill-opacity="1" /><path clip-path="url(#clip120)" d="M821.126 1859.6 L826.01 1859.6 L826.01 1865.48 L821.126 1865.48 L821.126 1859.6 Z" fill="#000000" fill-rule="evenodd" fill-opacity="1" /><path clip-path="url(#clip120)" d="M840.223 1861.55 L856.542 1861.55 L856.542 1865.48 L834.598 1865.48 L834.598 1861.55 Q837.26 1858.79 841.843 1854.16 Q846.45 1849.51 847.63 1848.17 Q849.876 1845.65 850.755 1843.91 Q851.658 1842.15 851.658 1840.46 Q851.658 1837.71 849.714 1835.97 Q847.792 1834.23 844.69 1834.23 Q842.491 1834.23 840.038 1835 Q837.607 1835.76 834.829 1837.31 L834.829 1832.59 Q837.653 1831.46 840.107 1830.88 Q842.561 1830.3 844.598 1830.3 Q849.968 1830.3 853.163 1832.98 Q856.357 1835.67 856.357 1840.16 Q856.357 1842.29 855.547 1844.21 Q854.76 1846.11 852.653 1848.7 Q852.075 1849.37 848.973 1852.59 Q845.871 1855.78 840.223 1861.55 Z" fill="#000000" fill-rule="evenodd" fill-opacity="1" /><path clip-path="url(#clip120)" d="M866.403 1830.92 L884.76 1830.92 L884.76 1834.86 L870.686 1834.86 L870.686 1843.33 Q871.704 1842.98 872.723 1842.82 Q873.741 1842.64 874.76 1842.64 Q880.547 1842.64 883.926 1845.81 Q887.306 1848.98 887.306 1854.4 Q887.306 1859.97 883.834 1863.08 Q880.362 1866.15 874.042 1866.15 Q871.866 1866.15 869.598 1865.78 Q867.352 1865.41 864.945 1864.67 L864.945 1859.97 Q867.028 1861.11 869.251 1861.66 Q871.473 1862.22 873.95 1862.22 Q877.954 1862.22 880.292 1860.11 Q882.63 1858.01 882.63 1854.4 Q882.63 1850.78 880.292 1848.68 Q877.954 1846.57 873.95 1846.57 Q872.075 1846.57 870.2 1846.99 Q868.348 1847.4 866.403 1848.28 L866.403 1830.92 Z" fill="#000000" fill-rule="evenodd" fill-opacity="1" /><path clip-path="url(#clip120)" d="M1383.48 1834 Q1379.87 1834 1378.04 1837.57 Q1376.23 1841.11 1376.23 1848.24 Q1376.23 1855.34 1378.04 1858.91 Q1379.87 1862.45 1383.48 1862.45 Q1387.11 1862.45 1388.92 1858.91 Q1390.74 1855.34 1390.74 1848.24 Q1390.74 1841.11 1388.92 1837.57 Q1387.11 1834 1383.48 1834 M1383.48 1830.3 Q1389.29 1830.3 1392.34 1834.9 Q1395.42 1839.49 1395.42 1848.24 Q1395.42 1856.96 1392.34 1861.57 Q1389.29 1866.15 1383.48 1866.15 Q1377.67 1866.15 1374.59 1861.57 Q1371.53 1856.96 1371.53 1848.24 Q1371.53 1839.49 1374.59 1834.9 Q1377.67 1830.3 1383.48 1830.3 Z" fill="#000000" fill-rule="evenodd" fill-opacity="1" /><path clip-path="url(#clip120)" d="M1403.64 1859.6 L1408.52 1859.6 L1408.52 1865.48 L1403.64 1865.48 L1403.64 1859.6 Z" fill="#000000" fill-rule="evenodd" fill-opacity="1" /><path clip-path="url(#clip120)" d="M1418.75 1830.92 L1437.11 1830.92 L1437.11 1834.86 L1423.04 1834.86 L1423.04 1843.33 Q1424.05 1842.98 1425.07 1842.82 Q1426.09 1842.64 1427.11 1842.64 Q1432.9 1842.64 1436.28 1845.81 Q1439.66 1848.98 1439.66 1854.4 Q1439.66 1859.97 1436.18 1863.08 Q1432.71 1866.15 1426.39 1866.15 Q1424.22 1866.15 1421.95 1865.78 Q1419.7 1865.41 1417.3 1864.67 L1417.3 1859.97 Q1419.38 1861.11 1421.6 1861.66 Q1423.82 1862.22 1426.3 1862.22 Q1430.3 1862.22 1432.64 1860.11 Q1434.98 1858.01 1434.98 1854.4 Q1434.98 1850.78 1432.64 1848.68 Q1430.3 1846.57 1426.3 1846.57 Q1424.43 1846.57 1422.55 1846.99 Q1420.7 1847.4 1418.75 1848.28 L1418.75 1830.92 Z" fill="#000000" fill-rule="evenodd" fill-opacity="1" /><path clip-path="url(#clip120)" d="M1458.87 1834 Q1455.26 1834 1453.43 1837.57 Q1451.62 1841.11 1451.62 1848.24 Q1451.62 1855.34 1453.43 1858.91 Q1455.26 1862.45 1458.87 1862.45 Q1462.5 1862.45 1464.31 1858.91 Q1466.14 1855.34 1466.14 1848.24 Q1466.14 1841.11 1464.31 1837.57 Q1462.5 1834 1458.87 1834 M1458.87 1830.3 Q1464.68 1830.3 1467.74 1834.9 Q1470.81 1839.49 1470.81 1848.24 Q1470.81 1856.96 1467.74 1861.57 Q1464.68 1866.15 1458.87 1866.15 Q1453.06 1866.15 1449.98 1861.57 Q1446.93 1856.96 1446.93 1848.24 Q1446.93 1839.49 1449.98 1834.9 Q1453.06 1830.3 1458.87 1830.3 Z" fill="#000000" fill-rule="evenodd" fill-opacity="1" /><path clip-path="url(#clip120)" d="M1966.98 1834 Q1963.37 1834 1961.54 1837.57 Q1959.74 1841.11 1959.74 1848.24 Q1959.74 1855.34 1961.54 1858.91 Q1963.37 1862.45 1966.98 1862.45 Q1970.62 1862.45 1972.42 1858.91 Q1974.25 1855.34 1974.25 1848.24 Q1974.25 1841.11 1972.42 1837.57 Q1970.62 1834 1966.98 1834 M1966.98 1830.3 Q1972.79 1830.3 1975.85 1834.9 Q1978.93 1839.49 1978.93 1848.24 Q1978.93 1856.96 1975.85 1861.57 Q1972.79 1866.15 1966.98 1866.15 Q1961.17 1866.15 1958.1 1861.57 Q1955.04 1856.96 1955.04 1848.24 Q1955.04 1839.49 1958.1 1834.9 Q1961.17 1830.3 1966.98 1830.3 Z" fill="#000000" fill-rule="evenodd" fill-opacity="1" /><path clip-path="url(#clip120)" d="M1987.15 1859.6 L1992.03 1859.6 L1992.03 1865.48 L1987.15 1865.48 L1987.15 1859.6 Z" fill="#000000" fill-rule="evenodd" fill-opacity="1" /><path clip-path="url(#clip120)" d="M2001.03 1830.92 L2023.26 1830.92 L2023.26 1832.91 L2010.71 1865.48 L2005.83 1865.48 L2017.63 1834.86 L2001.03 1834.86 L2001.03 1830.92 Z" fill="#000000" fill-rule="evenodd" fill-opacity="1" /><path clip-path="url(#clip120)" d="M2032.42 1830.92 L2050.78 1830.92 L2050.78 1834.86 L2036.71 1834.86 L2036.71 1843.33 Q2037.72 1842.98 2038.74 1842.82 Q2039.76 1842.64 2040.78 1842.64 Q2046.57 1842.64 2049.95 1845.81 Q2053.33 1848.98 2053.33 1854.4 Q2053.33 1859.97 2049.85 1863.08 Q2046.38 1866.15 2040.06 1866.15 Q2037.89 1866.15 2035.62 1865.78 Q2033.37 1865.41 2030.97 1864.67 L2030.97 1859.97 Q2033.05 1861.11 2035.27 1861.66 Q2037.49 1862.22 2039.97 1862.22 Q2043.97 1862.22 2046.31 1860.11 Q2048.65 1858.01 2048.65 1854.4 Q2048.65 1850.78 2046.31 1848.68 Q2043.97 1846.57 2039.97 1846.57 Q2038.09 1846.57 2036.22 1846.99 Q2034.37 1847.4 2032.42 1848.28 L2032.42 1830.92 Z" fill="#000000" fill-rule="evenodd" fill-opacity="1" /><path clip-path="url(#clip120)" d="M2539.27 1861.55 L2546.9 1861.55 L2546.9 1835.18 L2538.59 1836.85 L2538.59 1832.59 L2546.86 1830.92 L2551.53 1830.92 L2551.53 1861.55 L2559.17 1861.55 L2559.17 1865.48 L2539.27 1865.48 L2539.27 1861.55 Z" fill="#000000" fill-rule="evenodd" fill-opacity="1" /><path clip-path="url(#clip120)" d="M2568.62 1859.6 L2573.5 1859.6 L2573.5 1865.48 L2568.62 1865.48 L2568.62 1859.6 Z" fill="#000000" fill-rule="evenodd" fill-opacity="1" /><path clip-path="url(#clip120)" d="M2593.69 1834 Q2590.08 1834 2588.25 1837.57 Q2586.44 1841.11 2586.44 1848.24 Q2586.44 1855.34 2588.25 1858.91 Q2590.08 1862.45 2593.69 1862.45 Q2597.32 1862.45 2599.13 1858.91 Q2600.95 1855.34 2600.95 1848.24 Q2600.95 1841.11 2599.13 1837.57 Q2597.32 1834 2593.69 1834 M2593.69 1830.3 Q2599.5 1830.3 2602.55 1834.9 Q2605.63 1839.49 2605.63 1848.24 Q2605.63 1856.96 2602.55 1861.57 Q2599.5 1866.15 2593.69 1866.15 Q2587.88 1866.15 2584.8 1861.57 Q2581.74 1856.96 2581.74 1848.24 Q2581.74 1839.49 2584.8 1834.9 Q2587.88 1830.3 2593.69 1830.3 Z" fill="#000000" fill-rule="evenodd" fill-opacity="1" /><path clip-path="url(#clip120)" d="M2623.85 1834 Q2620.24 1834 2618.41 1837.57 Q2616.6 1841.11 2616.6 1848.24 Q2616.6 1855.34 2618.41 1858.91 Q2620.24 1862.45 2623.85 1862.45 Q2627.48 1862.45 2629.29 1858.91 Q2631.12 1855.34 2631.12 1848.24 Q2631.12 1841.11 2629.29 1837.57 Q2627.48 1834 2623.85 1834 M2623.85 1830.3 Q2629.66 1830.3 2632.71 1834.9 Q2635.79 1839.49 2635.79 1848.24 Q2635.79 1856.96 2632.71 1861.57 Q2629.66 1866.15 2623.85 1866.15 Q2618.04 1866.15 2614.96 1861.57 Q2611.9 1856.96 2611.9 1848.24 Q2611.9 1839.49 2614.96 1834.9 Q2618.04 1830.3 2623.85 1830.3 Z" fill="#000000" fill-rule="evenodd" fill-opacity="1" /><polyline clip-path="url(#clip122)" style="stroke:#000000; stroke-linecap:butt; stroke-linejoin:round; stroke-width:2; stroke-opacity:0.1; fill:none" points="
  189.154,1755.8 2640.76,1755.8 
  "/>
<polyline clip-path="url(#clip122)" style="stroke:#000000; stroke-linecap:butt; stroke-linejoin:round; stroke-width:2; stroke-opacity:0.1; fill:none" points="
  189.154,1340.59 2640.76,1340.59 
  "/>
<polyline clip-path="url(#clip122)" style="stroke:#000000; stroke-linecap:butt; stroke-linejoin:round; stroke-width:2; stroke-opacity:0.1; fill:none" points="
  189.154,925.376 2640.76,925.376 
  "/>
<polyline clip-path="url(#clip122)" style="stroke:#000000; stroke-linecap:butt; stroke-linejoin:round; stroke-width:2; stroke-opacity:0.1; fill:none" points="
  189.154,510.166 2640.76,510.166 
  "/>
<polyline clip-path="url(#clip122)" style="stroke:#000000; stroke-linecap:butt; stroke-linejoin:round; stroke-width:2; stroke-opacity:0.1; fill:none" points="
  189.154,94.9554 2640.76,94.9554 
  "/>
<polyline clip-path="url(#clip120)" style="stroke:#000000; stroke-linecap:butt; stroke-linejoin:round; stroke-width:4; stroke-opacity:1; fill:none" points="
  189.154,1800.78 189.154,47.2441 
  "/>
<polyline clip-path="url(#clip120)" style="stroke:#000000; stroke-linecap:butt; stroke-linejoin:round; stroke-width:4; stroke-opacity:1; fill:none" points="
  189.154,1755.8 208.052,1755.8 
  "/>
<polyline clip-path="url(#clip120)" style="stroke:#000000; stroke-linecap:butt; stroke-linejoin:round; stroke-width:4; stroke-opacity:1; fill:none" points="
  189.154,1340.59 208.052,1340.59 
  "/>
<polyline clip-path="url(#clip120)" style="stroke:#000000; stroke-linecap:butt; stroke-linejoin:round; stroke-width:4; stroke-opacity:1; fill:none" points="
  189.154,925.376 208.052,925.376 
  "/>
<polyline clip-path="url(#clip120)" style="stroke:#000000; stroke-linecap:butt; stroke-linejoin:round; stroke-width:4; stroke-opacity:1; fill:none" points="
  189.154,510.166 208.052,510.166 
  "/>
<polyline clip-path="url(#clip120)" style="stroke:#000000; stroke-linecap:butt; stroke-linejoin:round; stroke-width:4; stroke-opacity:1; fill:none" points="
  189.154,94.9554 208.052,94.9554 
  "/>
<path clip-path="url(#clip120)" d="M61.4965 1741.6 Q57.8854 1741.6 56.0567 1745.16 Q54.2512 1748.7 54.2512 1755.83 Q54.2512 1762.94 56.0567 1766.5 Q57.8854 1770.04 61.4965 1770.04 Q65.1307 1770.04 66.9363 1766.5 Q68.765 1762.94 68.765 1755.83 Q68.765 1748.7 66.9363 1745.16 Q65.1307 1741.6 61.4965 1741.6 M61.4965 1737.89 Q67.3067 1737.89 70.3622 1742.5 Q73.4409 1747.08 73.4409 1755.83 Q73.4409 1764.56 70.3622 1769.16 Q67.3067 1773.75 61.4965 1773.75 Q55.6864 1773.75 52.6077 1769.16 Q49.5521 1764.56 49.5521 1755.83 Q49.5521 1747.08 52.6077 1742.5 Q55.6864 1737.89 61.4965 1737.89 Z" fill="#000000" fill-rule="evenodd" fill-opacity="1" /><path clip-path="url(#clip120)" d="M81.6584 1767.2 L86.5427 1767.2 L86.5427 1773.08 L81.6584 1773.08 L81.6584 1767.2 Z" fill="#000000" fill-rule="evenodd" fill-opacity="1" /><path clip-path="url(#clip120)" d="M106.728 1741.6 Q103.117 1741.6 101.288 1745.16 Q99.4824 1748.7 99.4824 1755.83 Q99.4824 1762.94 101.288 1766.5 Q103.117 1770.04 106.728 1770.04 Q110.362 1770.04 112.168 1766.5 Q113.996 1762.94 113.996 1755.83 Q113.996 1748.7 112.168 1745.16 Q110.362 1741.6 106.728 1741.6 M106.728 1737.89 Q112.538 1737.89 115.593 1742.5 Q118.672 1747.08 118.672 1755.83 Q118.672 1764.56 115.593 1769.16 Q112.538 1773.75 106.728 1773.75 Q100.918 1773.75 97.8389 1769.16 Q94.7834 1764.56 94.7834 1755.83 Q94.7834 1747.08 97.8389 1742.5 Q100.918 1737.89 106.728 1737.89 Z" fill="#000000" fill-rule="evenodd" fill-opacity="1" /><path clip-path="url(#clip120)" d="M136.89 1741.6 Q133.279 1741.6 131.45 1745.16 Q129.644 1748.7 129.644 1755.83 Q129.644 1762.94 131.45 1766.5 Q133.279 1770.04 136.89 1770.04 Q140.524 1770.04 142.329 1766.5 Q144.158 1762.94 144.158 1755.83 Q144.158 1748.7 142.329 1745.16 Q140.524 1741.6 136.89 1741.6 M136.89 1737.89 Q142.7 1737.89 145.755 1742.5 Q148.834 1747.08 148.834 1755.83 Q148.834 1764.56 145.755 1769.16 Q142.7 1773.75 136.89 1773.75 Q131.079 1773.75 128.001 1769.16 Q124.945 1764.56 124.945 1755.83 Q124.945 1747.08 128.001 1742.5 Q131.079 1737.89 136.89 1737.89 Z" fill="#000000" fill-rule="evenodd" fill-opacity="1" /><path clip-path="url(#clip120)" d="M62.4919 1326.39 Q58.8808 1326.39 57.0521 1329.95 Q55.2465 1333.49 55.2465 1340.62 Q55.2465 1347.73 57.0521 1351.29 Q58.8808 1354.83 62.4919 1354.83 Q66.1261 1354.83 67.9317 1351.29 Q69.7604 1347.73 69.7604 1340.62 Q69.7604 1333.49 67.9317 1329.95 Q66.1261 1326.39 62.4919 1326.39 M62.4919 1322.68 Q68.302 1322.68 71.3576 1327.29 Q74.4363 1331.87 74.4363 1340.62 Q74.4363 1349.35 71.3576 1353.95 Q68.302 1358.54 62.4919 1358.54 Q56.6817 1358.54 53.603 1353.95 Q50.5475 1349.35 50.5475 1340.62 Q50.5475 1331.87 53.603 1327.29 Q56.6817 1322.68 62.4919 1322.68 Z" fill="#000000" fill-rule="evenodd" fill-opacity="1" /><path clip-path="url(#clip120)" d="M82.6538 1351.99 L87.538 1351.99 L87.538 1357.87 L82.6538 1357.87 L82.6538 1351.99 Z" fill="#000000" fill-rule="evenodd" fill-opacity="1" /><path clip-path="url(#clip120)" d="M101.751 1353.93 L118.07 1353.93 L118.07 1357.87 L96.126 1357.87 L96.126 1353.93 Q98.788 1351.18 103.371 1346.55 Q107.978 1341.89 109.158 1340.55 Q111.404 1338.03 112.283 1336.29 Q113.186 1334.53 113.186 1332.84 Q113.186 1330.09 111.242 1328.35 Q109.32 1326.62 106.218 1326.62 Q104.019 1326.62 101.566 1327.38 Q99.1352 1328.14 96.3574 1329.7 L96.3574 1324.97 Q99.1815 1323.84 101.635 1323.26 Q104.089 1322.68 106.126 1322.68 Q111.496 1322.68 114.691 1325.37 Q117.885 1328.05 117.885 1332.54 Q117.885 1334.67 117.075 1336.59 Q116.288 1338.49 114.181 1341.08 Q113.603 1341.76 110.501 1344.97 Q107.399 1348.17 101.751 1353.93 Z" fill="#000000" fill-rule="evenodd" fill-opacity="1" /><path clip-path="url(#clip120)" d="M127.931 1323.31 L146.288 1323.31 L146.288 1327.24 L132.214 1327.24 L132.214 1335.71 Q133.232 1335.37 134.251 1335.2 Q135.269 1335.02 136.288 1335.02 Q142.075 1335.02 145.454 1338.19 Q148.834 1341.36 148.834 1346.78 Q148.834 1352.36 145.362 1355.46 Q141.89 1358.54 135.57 1358.54 Q133.394 1358.54 131.126 1358.17 Q128.88 1357.8 126.473 1357.06 L126.473 1352.36 Q128.556 1353.49 130.779 1354.05 Q133.001 1354.6 135.478 1354.6 Q139.482 1354.6 141.82 1352.5 Q144.158 1350.39 144.158 1346.78 Q144.158 1343.17 141.82 1341.06 Q139.482 1338.95 135.478 1338.95 Q133.603 1338.95 131.728 1339.37 Q129.876 1339.79 127.931 1340.67 L127.931 1323.31 Z" fill="#000000" fill-rule="evenodd" fill-opacity="1" /><path clip-path="url(#clip120)" d="M61.4965 911.175 Q57.8854 911.175 56.0567 914.74 Q54.2512 918.281 54.2512 925.411 Q54.2512 932.517 56.0567 936.082 Q57.8854 939.624 61.4965 939.624 Q65.1307 939.624 66.9363 936.082 Q68.765 932.517 68.765 925.411 Q68.765 918.281 66.9363 914.74 Q65.1307 911.175 61.4965 911.175 M61.4965 907.471 Q67.3067 907.471 70.3622 912.078 Q73.4409 916.661 73.4409 925.411 Q73.4409 934.138 70.3622 938.744 Q67.3067 943.327 61.4965 943.327 Q55.6864 943.327 52.6077 938.744 Q49.5521 934.138 49.5521 925.411 Q49.5521 916.661 52.6077 912.078 Q55.6864 907.471 61.4965 907.471 Z" fill="#000000" fill-rule="evenodd" fill-opacity="1" /><path clip-path="url(#clip120)" d="M81.6584 936.776 L86.5427 936.776 L86.5427 942.656 L81.6584 942.656 L81.6584 936.776 Z" fill="#000000" fill-rule="evenodd" fill-opacity="1" /><path clip-path="url(#clip120)" d="M96.7741 908.096 L115.13 908.096 L115.13 912.031 L101.056 912.031 L101.056 920.503 Q102.075 920.156 103.094 919.994 Q104.112 919.809 105.131 919.809 Q110.918 919.809 114.297 922.98 Q117.677 926.152 117.677 931.568 Q117.677 937.147 114.205 940.249 Q110.732 943.327 104.413 943.327 Q102.237 943.327 99.9685 942.957 Q97.7232 942.587 95.3158 941.846 L95.3158 937.147 Q97.3991 938.281 99.6213 938.837 Q101.844 939.392 104.32 939.392 Q108.325 939.392 110.663 937.286 Q113.001 935.179 113.001 931.568 Q113.001 927.957 110.663 925.851 Q108.325 923.744 104.32 923.744 Q102.445 923.744 100.57 924.161 Q98.7185 924.577 96.7741 925.457 L96.7741 908.096 Z" fill="#000000" fill-rule="evenodd" fill-opacity="1" /><path clip-path="url(#clip120)" d="M136.89 911.175 Q133.279 911.175 131.45 914.74 Q129.644 918.281 129.644 925.411 Q129.644 932.517 131.45 936.082 Q133.279 939.624 136.89 939.624 Q140.524 939.624 142.329 936.082 Q144.158 932.517 144.158 925.411 Q144.158 918.281 142.329 914.74 Q140.524 911.175 136.89 911.175 M136.89 907.471 Q142.7 907.471 145.755 912.078 Q148.834 916.661 148.834 925.411 Q148.834 934.138 145.755 938.744 Q142.7 943.327 136.89 943.327 Q131.079 943.327 128.001 938.744 Q124.945 934.138 124.945 925.411 Q124.945 916.661 128.001 912.078 Q131.079 907.471 136.89 907.471 Z" fill="#000000" fill-rule="evenodd" fill-opacity="1" /><path clip-path="url(#clip120)" d="M62.4919 495.964 Q58.8808 495.964 57.0521 499.529 Q55.2465 503.071 55.2465 510.2 Q55.2465 517.307 57.0521 520.872 Q58.8808 524.413 62.4919 524.413 Q66.1261 524.413 67.9317 520.872 Q69.7604 517.307 69.7604 510.2 Q69.7604 503.071 67.9317 499.529 Q66.1261 495.964 62.4919 495.964 M62.4919 492.261 Q68.302 492.261 71.3576 496.867 Q74.4363 501.45 74.4363 510.2 Q74.4363 518.927 71.3576 523.534 Q68.302 528.117 62.4919 528.117 Q56.6817 528.117 53.603 523.534 Q50.5475 518.927 50.5475 510.2 Q50.5475 501.45 53.603 496.867 Q56.6817 492.261 62.4919 492.261 Z" fill="#000000" fill-rule="evenodd" fill-opacity="1" /><path clip-path="url(#clip120)" d="M82.6538 521.566 L87.538 521.566 L87.538 527.446 L82.6538 527.446 L82.6538 521.566 Z" fill="#000000" fill-rule="evenodd" fill-opacity="1" /><path clip-path="url(#clip120)" d="M96.5426 492.886 L118.765 492.886 L118.765 494.876 L106.218 527.446 L101.334 527.446 L113.14 496.821 L96.5426 496.821 L96.5426 492.886 Z" fill="#000000" fill-rule="evenodd" fill-opacity="1" /><path clip-path="url(#clip120)" d="M127.931 492.886 L146.288 492.886 L146.288 496.821 L132.214 496.821 L132.214 505.293 Q133.232 504.946 134.251 504.784 Q135.269 504.599 136.288 504.599 Q142.075 504.599 145.454 507.77 Q148.834 510.941 148.834 516.358 Q148.834 521.936 145.362 525.038 Q141.89 528.117 135.57 528.117 Q133.394 528.117 131.126 527.747 Q128.88 527.376 126.473 526.636 L126.473 521.936 Q128.556 523.071 130.779 523.626 Q133.001 524.182 135.478 524.182 Q139.482 524.182 141.82 522.075 Q144.158 519.969 144.158 516.358 Q144.158 512.747 141.82 510.64 Q139.482 508.534 135.478 508.534 Q133.603 508.534 131.728 508.95 Q129.876 509.367 127.931 510.247 L127.931 492.886 Z" fill="#000000" fill-rule="evenodd" fill-opacity="1" /><path clip-path="url(#clip120)" d="M52.3067 108.3 L59.9456 108.3 L59.9456 81.9346 L51.6354 83.6013 L51.6354 79.342 L59.8993 77.6754 L64.5752 77.6754 L64.5752 108.3 L72.214 108.3 L72.214 112.235 L52.3067 112.235 L52.3067 108.3 Z" fill="#000000" fill-rule="evenodd" fill-opacity="1" /><path clip-path="url(#clip120)" d="M81.6584 106.356 L86.5427 106.356 L86.5427 112.235 L81.6584 112.235 L81.6584 106.356 Z" fill="#000000" fill-rule="evenodd" fill-opacity="1" /><path clip-path="url(#clip120)" d="M106.728 80.7541 Q103.117 80.7541 101.288 84.3189 Q99.4824 87.8605 99.4824 94.9901 Q99.4824 102.097 101.288 105.661 Q103.117 109.203 106.728 109.203 Q110.362 109.203 112.168 105.661 Q113.996 102.097 113.996 94.9901 Q113.996 87.8605 112.168 84.3189 Q110.362 80.7541 106.728 80.7541 M106.728 77.0504 Q112.538 77.0504 115.593 81.6568 Q118.672 86.2401 118.672 94.9901 Q118.672 103.717 115.593 108.323 Q112.538 112.907 106.728 112.907 Q100.918 112.907 97.8389 108.323 Q94.7834 103.717 94.7834 94.9901 Q94.7834 86.2401 97.8389 81.6568 Q100.918 77.0504 106.728 77.0504 Z" fill="#000000" fill-rule="evenodd" fill-opacity="1" /><path clip-path="url(#clip120)" d="M136.89 80.7541 Q133.279 80.7541 131.45 84.3189 Q129.644 87.8605 129.644 94.9901 Q129.644 102.097 131.45 105.661 Q133.279 109.203 136.89 109.203 Q140.524 109.203 142.329 105.661 Q144.158 102.097 144.158 94.9901 Q144.158 87.8605 142.329 84.3189 Q140.524 80.7541 136.89 80.7541 M136.89 77.0504 Q142.7 77.0504 145.755 81.6568 Q148.834 86.2401 148.834 94.9901 Q148.834 103.717 145.755 108.323 Q142.7 112.907 136.89 112.907 Q131.079 112.907 128.001 108.323 Q124.945 103.717 124.945 94.9901 Q124.945 86.2401 128.001 81.6568 Q131.079 77.0504 136.89 77.0504 Z" fill="#000000" fill-rule="evenodd" fill-opacity="1" /><polyline clip-path="url(#clip122)" style="stroke:#009af9; stroke-linecap:butt; stroke-linejoin:round; stroke-width:4; stroke-opacity:1; fill:none" points="
  2107.47,1574.06 2137.37,1747.53 1002.14,823.484 1616.46,308.439 2368.98,1313.85 2531.19,1442.37 338.065,1164.56 2196.07,1235.91 2315.98,1123.07 565.582,347.702 
  1598.2,1403.33 1326.38,630.32 1383.17,1032.46 1595.77,551.8 996.775,604.348 1153.07,554.5 1730.43,983.522 1042.19,1423.44 1239.24,501.04 617.021,1680.08 
  1316.67,256.823 1786.64,1674.38 1930.31,1105.85 2159.94,1477.45 2464.44,810.624 1770.14,1751.15 277.397,1721.68 614.708,469.482 1592.62,745.603 1585.87,142.27 
  2038.06,1079.14 1223.46,1573.2 780.796,403.393 1922.68,1440.67 2444.08,570.474 1918.19,348.443 2159.8,1552.51 989.859,678.02 805.448,1272.8 1664.97,930.702 
  1275.39,315.557 1480.35,324.479 1515.12,204.511 645.053,1320.49 1274.66,1328.61 2037.57,641.669 1985.9,1749.84 1395.23,407.959 426.719,1172.63 361.587,1258.31 
  1746.58,1425.48 1213.26,1587.91 2190.05,825.927 1667.26,1065.84 1534.44,510.435 340.574,959.887 1867.14,418.076 1023.34,1610.28 1694,1269.76 2213.36,1177.4 
  1688.15,980.842 2063.5,1137.47 1931.87,384.119 1466.62,349.369 2095.84,877.502 1689.75,895.52 2181.41,1044.12 537.817,1116.63 2571.37,435.164 1454.72,790.588 
  288.815,568.852 2003.12,1148.61 2220.88,335.67 623.783,1123.01 1173.35,1642.61 1498.65,181.468 1755.13,1045.21 2317.86,1077.84 1753.48,1001.15 1469.93,1247.06 
  573.289,1545.6 1353.11,1141.81 931.496,723.309 1834.52,1699.48 695.903,96.8724 1169.54,963.353 541.778,1545.36 1750.85,1512.84 2370.74,542.246 515.672,1541.22 
  1147.04,1596.32 1879.86,562.217 2060.67,1380.39 511.92,104.415 678.801,181.638 900.991,811.682 258.539,1054.63 323.364,1713.65 1794.88,1255.52 717.62,1285.16 
  
  "/>
<path clip-path="url(#clip120)" d="
M2261.45 209.375 L2559.04 209.375 L2559.04 105.695 L2261.45 105.695  Z
  " fill="#ffffff" fill-rule="evenodd" fill-opacity="1"/>
<polyline clip-path="url(#clip120)" style="stroke:#000000; stroke-linecap:butt; stroke-linejoin:round; stroke-width:4; stroke-opacity:1; fill:none" points="
  2261.45,209.375 2559.04,209.375 2559.04,105.695 2261.45,105.695 2261.45,209.375 
  "/>
<polyline clip-path="url(#clip120)" style="stroke:#009af9; stroke-linecap:butt; stroke-linejoin:round; stroke-width:4; stroke-opacity:1; fill:none" points="
  2288.69,157.535 2452.13,157.535 
  "/>
<path clip-path="url(#clip120)" d="M2493.21 177.223 Q2491.4 181.852 2489.69 183.264 Q2487.98 184.676 2485.11 184.676 L2481.7 184.676 L2481.7 181.112 L2484.2 181.112 Q2485.96 181.112 2486.93 180.278 Q2487.91 179.445 2489.09 176.343 L2489.85 174.399 L2479.37 148.889 L2483.88 148.889 L2491.98 169.167 L2500.08 148.889 L2504.6 148.889 L2493.21 177.223 Z" fill="#000000" fill-rule="evenodd" fill-opacity="1" /><path clip-path="url(#clip120)" d="M2511.89 170.88 L2519.53 170.88 L2519.53 144.515 L2511.22 146.181 L2511.22 141.922 L2519.48 140.255 L2524.16 140.255 L2524.16 170.88 L2531.8 170.88 L2531.8 174.815 L2511.89 174.815 L2511.89 170.88 Z" fill="#000000" fill-rule="evenodd" fill-opacity="1" /></svg>
