<?xml version="1.0" encoding="utf-8"?>
<svg xmlns="http://www.w3.org/2000/svg" xmlns:xlink="http://www.w3.org/1999/xlink" width="672" height="480" viewBox="0 0 2688 1920">
<defs>
  <clipPath id="clip080">
    <rect x="0" y="0" width="2688" height="1920"/>
  </clipPath>
</defs>
<path clip-path="url(#clip080)" d="
M0 1920 L2688 1920 L2688 0 L0 0  Z
  " fill="#ffffff" fill-rule="evenodd" fill-opacity="1"/>
<defs>
  <clipPath id="clip081">
    <rect x="537" y="0" width="1883" height="1883"/>
  </clipPath>
</defs>
<path clip-path="url(#clip080)" d="
M159.478 1800.78 L2640.76 1800.78 L2640.76 47.2441 L159.478 47.2441  Z
  " fill="#ffffff" fill-rule="evenodd" fill-opacity="1"/>
<defs>
  <clipPath id="clip082">
    <rect x="159" y="47" width="2482" height="1755"/>
  </clipPath>
</defs>
<polyline clip-path="url(#clip082)" style="stroke:#000000; stroke-linecap:butt; stroke-linejoin:round; stroke-width:2; stroke-opacity:0.1; fill:none" points="
  222.874,1800.78 222.874,47.2441 
  "/>
<polyline clip-path="url(#clip082)" style="stroke:#000000; stroke-linecap:butt; stroke-linejoin:round; stroke-width:2; stroke-opacity:0.1; fill:none" points="
  810.784,1800.78 810.784,47.2441 
  "/>
<polyline clip-path="url(#clip082)" style="stroke:#000000; stroke-linecap:butt; stroke-linejoin:round; stroke-width:2; stroke-opacity:0.1; fill:none" points="
  1398.69,1800.78 1398.69,47.2441 
  "/>
<polyline clip-path="url(#clip082)" style="stroke:#000000; stroke-linecap:butt; stroke-linejoin:round; stroke-width:2; stroke-opacity:0.1; fill:none" points="
  1986.6,1800.78 1986.6,47.2441 
  "/>
<polyline clip-path="url(#clip082)" style="stroke:#000000; stroke-linecap:butt; stroke-linejoin:round; stroke-width:2; stroke-opacity:0.1; fill:none" points="
  2574.51,1800.78 2574.51,47.2441 
  "/>
<polyline clip-path="url(#clip080)" style="stroke:#000000; stroke-linecap:butt; stroke-linejoin:round; stroke-width:4; stroke-opacity:1; fill:none" points="
  159.478,1800.78 2640.76,1800.78 
  "/>
<polyline clip-path="url(#clip080)" style="stroke:#000000; stroke-linecap:butt; stroke-linejoin:round; stroke-width:4; stroke-opacity:1; fill:none" points="
  222.874,1800.78 222.874,1781.88 
  "/>
<polyline clip-path="url(#clip080)" style="stroke:#000000; stroke-linecap:butt; stroke-linejoin:round; stroke-width:4; stroke-opacity:1; fill:none" points="
  810.784,1800.78 810.784,1781.88 
  "/>
<polyline clip-path="url(#clip080)" style="stroke:#000000; stroke-linecap:butt; stroke-linejoin:round; stroke-width:4; stroke-opacity:1; fill:none" points="
  1398.69,1800.78 1398.69,1781.88 
  "/>
<polyline clip-path="url(#clip080)" style="stroke:#000000; stroke-linecap:butt; stroke-linejoin:round; stroke-width:4; stroke-opacity:1; fill:none" points="
  1986.6,1800.78 1986.6,1781.88 
  "/>
<polyline clip-path="url(#clip080)" style="stroke:#000000; stroke-linecap:butt; stroke-linejoin:round; stroke-width:4; stroke-opacity:1; fill:none" points="
  2574.51,1800.78 2574.51,1781.88 
  "/>
<path clip-path="url(#clip080)" d="M185.177 1834 Q181.566 1834 179.737 1837.57 Q177.932 1841.11 177.932 1848.24 Q177.932 1855.34 179.737 1858.91 Q181.566 1862.45 185.177 1862.45 Q188.811 1862.45 190.617 1858.91 Q192.446 1855.34 192.446 1848.24 Q192.446 1841.11 190.617 1837.57 Q188.811 1834 185.177 1834 M185.177 1830.3 Q190.987 1830.3 194.043 1834.9 Q197.121 1839.49 197.121 1848.24 Q197.121 1856.96 194.043 1861.57 Q190.987 1866.15 185.177 1866.15 Q179.367 1866.15 176.288 1861.57 Q173.233 1856.96 173.233 1848.24 Q173.233 1839.49 176.288 1834.9 Q179.367 1830.3 185.177 1830.3 Z" fill="#000000" fill-rule="evenodd" fill-opacity="1" /><path clip-path="url(#clip080)" d="M205.339 1859.6 L210.223 1859.6 L210.223 1865.48 L205.339 1865.48 L205.339 1859.6 Z" fill="#000000" fill-rule="evenodd" fill-opacity="1" /><path clip-path="url(#clip080)" d="M230.408 1834 Q226.797 1834 224.969 1837.57 Q223.163 1841.11 223.163 1848.24 Q223.163 1855.34 224.969 1858.91 Q226.797 1862.45 230.408 1862.45 Q234.043 1862.45 235.848 1858.91 Q237.677 1855.34 237.677 1848.24 Q237.677 1841.11 235.848 1837.57 Q234.043 1834 230.408 1834 M230.408 1830.3 Q236.218 1830.3 239.274 1834.9 Q242.353 1839.49 242.353 1848.24 Q242.353 1856.96 239.274 1861.57 Q236.218 1866.15 230.408 1866.15 Q224.598 1866.15 221.519 1861.57 Q218.464 1856.96 218.464 1848.24 Q218.464 1839.49 221.519 1834.9 Q224.598 1830.3 230.408 1830.3 Z" fill="#000000" fill-rule="evenodd" fill-opacity="1" /><path clip-path="url(#clip080)" d="M260.57 1834 Q256.959 1834 255.13 1837.57 Q253.325 1841.11 253.325 1848.24 Q253.325 1855.34 255.13 1858.91 Q256.959 1862.45 260.57 1862.45 Q264.204 1862.45 266.01 1858.91 Q267.839 1855.34 267.839 1848.24 Q267.839 1841.11 266.01 1837.57 Q264.204 1834 260.57 1834 M260.57 1830.3 Q266.38 1830.3 269.436 1834.9 Q272.515 1839.49 272.515 1848.24 Q272.515 1856.96 269.436 1861.57 Q266.38 1866.15 260.57 1866.15 Q254.76 1866.15 251.681 1861.57 Q248.626 1856.96 248.626 1848.24 Q248.626 1839.49 251.681 1834.9 Q254.76 1830.3 260.57 1830.3 Z" fill="#000000" fill-rule="evenodd" fill-opacity="1" /><path clip-path="url(#clip080)" d="M773.585 1834 Q769.974 1834 768.145 1837.57 Q766.339 1841.11 766.339 1848.24 Q766.339 1855.34 768.145 1858.91 Q769.974 1862.45 773.585 1862.45 Q777.219 1862.45 779.025 1858.91 Q780.853 1855.34 780.853 1848.24 Q780.853 1841.11 779.025 1837.57 Q777.219 1834 773.585 1834 M773.585 1830.3 Q779.395 1830.3 782.45 1834.9 Q785.529 1839.49 785.529 1848.24 Q785.529 1856.96 782.45 1861.57 Q779.395 1866.15 773.585 1866.15 Q767.775 1866.15 764.696 1861.57 Q761.64 1856.96 761.64 1848.24 Q761.64 1839.49 764.696 1834.9 Q767.775 1830.3 773.585 1830.3 Z" fill="#000000" fill-rule="evenodd" fill-opacity="1" /><path clip-path="url(#clip080)" d="M793.747 1859.6 L798.631 1859.6 L798.631 1865.48 L793.747 1865.48 L793.747 1859.6 Z" fill="#000000" fill-rule="evenodd" fill-opacity="1" /><path clip-path="url(#clip080)" d="M812.844 1861.55 L829.163 1861.55 L829.163 1865.48 L807.219 1865.48 L807.219 1861.55 Q809.881 1858.79 814.464 1854.16 Q819.071 1849.51 820.251 1848.17 Q822.497 1845.65 823.376 1843.91 Q824.279 1842.15 824.279 1840.46 Q824.279 1837.71 822.335 1835.97 Q820.413 1834.23 817.311 1834.23 Q815.112 1834.23 812.659 1835 Q810.228 1835.76 807.45 1837.31 L807.45 1832.59 Q810.274 1831.46 812.728 1830.88 Q815.182 1830.3 817.219 1830.3 Q822.589 1830.3 825.784 1832.98 Q828.978 1835.67 828.978 1840.16 Q828.978 1842.29 828.168 1844.21 Q827.381 1846.11 825.274 1848.7 Q824.696 1849.37 821.594 1852.59 Q818.492 1855.78 812.844 1861.55 Z" fill="#000000" fill-rule="evenodd" fill-opacity="1" /><path clip-path="url(#clip080)" d="M839.024 1830.92 L857.381 1830.92 L857.381 1834.86 L843.307 1834.86 L843.307 1843.33 Q844.325 1842.98 845.344 1842.82 Q846.362 1842.64 847.381 1842.64 Q853.168 1842.64 856.547 1845.81 Q859.927 1848.98 859.927 1854.4 Q859.927 1859.97 856.455 1863.08 Q852.983 1866.15 846.663 1866.15 Q844.487 1866.15 842.219 1865.78 Q839.973 1865.41 837.566 1864.67 L837.566 1859.97 Q839.649 1861.11 841.871 1861.66 Q844.094 1862.22 846.571 1862.22 Q850.575 1862.22 852.913 1860.11 Q855.251 1858.01 855.251 1854.4 Q855.251 1850.78 852.913 1848.68 Q850.575 1846.57 846.571 1846.57 Q844.696 1846.57 842.821 1846.99 Q840.969 1847.4 839.024 1848.28 L839.024 1830.92 Z" fill="#000000" fill-rule="evenodd" fill-opacity="1" /><path clip-path="url(#clip080)" d="M1361 1834 Q1357.39 1834 1355.56 1837.57 Q1353.75 1841.11 1353.75 1848.24 Q1353.75 1855.34 1355.56 1858.91 Q1357.39 1862.45 1361 1862.45 Q1364.63 1862.45 1366.44 1858.91 Q1368.27 1855.34 1368.27 1848.24 Q1368.27 1841.11 1366.44 1837.57 Q1364.63 1834 1361 1834 M1361 1830.3 Q1366.81 1830.3 1369.86 1834.9 Q1372.94 1839.49 1372.94 1848.24 Q1372.94 1856.96 1369.86 1861.57 Q1366.81 1866.15 1361 1866.15 Q1355.19 1866.15 1352.11 1861.57 Q1349.05 1856.96 1349.05 1848.24 Q1349.05 1839.49 1352.11 1834.9 Q1355.19 1830.3 1361 1830.3 Z" fill="#000000" fill-rule="evenodd" fill-opacity="1" /><path clip-path="url(#clip080)" d="M1381.16 1859.6 L1386.04 1859.6 L1386.04 1865.48 L1381.16 1865.48 L1381.16 1859.6 Z" fill="#000000" fill-rule="evenodd" fill-opacity="1" /><path clip-path="url(#clip080)" d="M1396.27 1830.92 L1414.63 1830.92 L1414.63 1834.86 L1400.56 1834.86 L1400.56 1843.33 Q1401.58 1842.98 1402.59 1842.82 Q1403.61 1842.64 1404.63 1842.64 Q1410.42 1842.64 1413.8 1845.81 Q1417.18 1848.98 1417.18 1854.4 Q1417.18 1859.97 1413.71 1863.08 Q1410.23 1866.15 1403.91 1866.15 Q1401.74 1866.15 1399.47 1865.78 Q1397.22 1865.41 1394.82 1864.67 L1394.82 1859.97 Q1396.9 1861.11 1399.12 1861.66 Q1401.34 1862.22 1403.82 1862.22 Q1407.83 1862.22 1410.16 1860.11 Q1412.5 1858.01 1412.5 1854.4 Q1412.5 1850.78 1410.16 1848.68 Q1407.83 1846.57 1403.82 1846.57 Q1401.95 1846.57 1400.07 1846.99 Q1398.22 1847.4 1396.27 1848.28 L1396.27 1830.92 Z" fill="#000000" fill-rule="evenodd" fill-opacity="1" /><path clip-path="url(#clip080)" d="M1436.39 1834 Q1432.78 1834 1430.95 1837.57 Q1429.14 1841.11 1429.14 1848.24 Q1429.14 1855.34 1430.95 1858.91 Q1432.78 1862.45 1436.39 1862.45 Q1440.02 1862.45 1441.83 1858.91 Q1443.66 1855.34 1443.66 1848.24 Q1443.66 1841.11 1441.83 1837.57 Q1440.02 1834 1436.39 1834 M1436.39 1830.3 Q1442.2 1830.3 1445.26 1834.9 Q1448.33 1839.49 1448.33 1848.24 Q1448.33 1856.96 1445.26 1861.57 Q1442.2 1866.15 1436.39 1866.15 Q1430.58 1866.15 1427.5 1861.57 Q1424.45 1856.96 1424.45 1848.24 Q1424.45 1839.49 1427.5 1834.9 Q1430.58 1830.3 1436.39 1830.3 Z" fill="#000000" fill-rule="evenodd" fill-opacity="1" /><path clip-path="url(#clip080)" d="M1949.4 1834 Q1945.79 1834 1943.97 1837.57 Q1942.16 1841.11 1942.16 1848.24 Q1942.16 1855.34 1943.97 1858.91 Q1945.79 1862.45 1949.4 1862.45 Q1953.04 1862.45 1954.84 1858.91 Q1956.67 1855.34 1956.67 1848.24 Q1956.67 1841.11 1954.84 1837.57 Q1953.04 1834 1949.4 1834 M1949.4 1830.3 Q1955.22 1830.3 1958.27 1834.9 Q1961.35 1839.49 1961.35 1848.24 Q1961.35 1856.96 1958.27 1861.57 Q1955.22 1866.15 1949.4 1866.15 Q1943.59 1866.15 1940.52 1861.57 Q1937.46 1856.96 1937.46 1848.24 Q1937.46 1839.49 1940.52 1834.9 Q1943.59 1830.3 1949.4 1830.3 Z" fill="#000000" fill-rule="evenodd" fill-opacity="1" /><path clip-path="url(#clip080)" d="M1969.57 1859.6 L1974.45 1859.6 L1974.45 1865.48 L1969.57 1865.48 L1969.57 1859.6 Z" fill="#000000" fill-rule="evenodd" fill-opacity="1" /><path clip-path="url(#clip080)" d="M1983.46 1830.92 L2005.68 1830.92 L2005.68 1832.91 L1993.13 1865.48 L1988.25 1865.48 L2000.05 1834.86 L1983.46 1834.86 L1983.46 1830.92 Z" fill="#000000" fill-rule="evenodd" fill-opacity="1" /><path clip-path="url(#clip080)" d="M2014.84 1830.92 L2033.2 1830.92 L2033.2 1834.86 L2019.13 1834.86 L2019.13 1843.33 Q2020.15 1842.98 2021.16 1842.82 Q2022.18 1842.64 2023.2 1842.64 Q2028.99 1842.64 2032.37 1845.81 Q2035.75 1848.98 2035.75 1854.4 Q2035.75 1859.97 2032.27 1863.08 Q2028.8 1866.15 2022.48 1866.15 Q2020.31 1866.15 2018.04 1865.78 Q2015.79 1865.41 2013.39 1864.67 L2013.39 1859.97 Q2015.47 1861.11 2017.69 1861.66 Q2019.91 1862.22 2022.39 1862.22 Q2026.4 1862.22 2028.73 1860.11 Q2031.07 1858.01 2031.07 1854.4 Q2031.07 1850.78 2028.73 1848.68 Q2026.4 1846.57 2022.39 1846.57 Q2020.52 1846.57 2018.64 1846.99 Q2016.79 1847.4 2014.84 1848.28 L2014.84 1830.92 Z" fill="#000000" fill-rule="evenodd" fill-opacity="1" /><path clip-path="url(#clip080)" d="M2526.59 1861.55 L2534.22 1861.55 L2534.22 1835.18 L2525.91 1836.85 L2525.91 1832.59 L2534.18 1830.92 L2538.85 1830.92 L2538.85 1861.55 L2546.49 1861.55 L2546.49 1865.48 L2526.59 1865.48 L2526.59 1861.55 Z" fill="#000000" fill-rule="evenodd" fill-opacity="1" /><path clip-path="url(#clip080)" d="M2555.94 1859.6 L2560.82 1859.6 L2560.82 1865.48 L2555.94 1865.48 L2555.94 1859.6 Z" fill="#000000" fill-rule="evenodd" fill-opacity="1" /><path clip-path="url(#clip080)" d="M2581.01 1834 Q2577.4 1834 2575.57 1837.57 Q2573.76 1841.11 2573.76 1848.24 Q2573.76 1855.34 2575.57 1858.91 Q2577.4 1862.45 2581.01 1862.45 Q2584.64 1862.45 2586.45 1858.91 Q2588.28 1855.34 2588.28 1848.24 Q2588.28 1841.11 2586.45 1837.57 Q2584.64 1834 2581.01 1834 M2581.01 1830.3 Q2586.82 1830.3 2589.87 1834.9 Q2592.95 1839.49 2592.95 1848.24 Q2592.95 1856.96 2589.87 1861.57 Q2586.82 1866.15 2581.01 1866.15 Q2575.2 1866.15 2572.12 1861.57 Q2569.06 1856.96 2569.06 1848.24 Q2569.06 1839.49 2572.12 1834.9 Q2575.2 1830.3 2581.01 1830.3 Z" fill="#000000" fill-rule="evenodd" fill-opacity="1" /><path clip-path="url(#clip080)" d="M2611.17 1834 Q2607.56 1834 2605.73 1837.57 Q2603.92 1841.11 2603.92 1848.24 Q2603.92 1855.34 2605.73 1858.91 Q2607.56 1862.45 2611.17 1862.45 Q2614.8 1862.45 2616.61 1858.91 Q2618.44 1855.34 2618.44 1848.24 Q2618.44 1841.11 2616.61 1837.57 Q2614.8 1834 2611.17 1834 M2611.17 1830.3 Q2616.98 1830.3 2620.03 1834.9 Q2623.11 1839.49 2623.11 1848.24 Q2623.11 1856.96 2620.03 1861.57 Q2616.98 1866.15 2611.17 1866.15 Q2605.36 1866.15 2602.28 1861.57 Q2599.22 1856.96 2599.22 1848.24 Q2599.22 1839.49 2602.28 1834.9 Q2605.36 1830.3 2611.17 1830.3 Z" fill="#000000" fill-rule="evenodd" fill-opacity="1" /><polyline clip-path="url(#clip082)" style="stroke:#000000; stroke-linecap:butt; stroke-linejoin:round; stroke-width:2; stroke-opacity:0.1; fill:none" points="
  159.478,1465.78 2640.76,1465.78 
  "/>
<polyline clip-path="url(#clip082)" style="stroke:#000000; stroke-linecap:butt; stroke-linejoin:round; stroke-width:2; stroke-opacity:0.1; fill:none" points="
  159.478,1120.2 2640.76,1120.2 
  "/>
<polyline clip-path="url(#clip082)" style="stroke:#000000; stroke-linecap:butt; stroke-linejoin:round; stroke-width:2; stroke-opacity:0.1; fill:none" points="
  159.478,774.617 2640.76,774.617 
  "/>
<polyline clip-path="url(#clip082)" style="stroke:#000000; stroke-linecap:butt; stroke-linejoin:round; stroke-width:2; stroke-opacity:0.1; fill:none" points="
  159.478,429.035 2640.76,429.035 
  "/>
<polyline clip-path="url(#clip082)" style="stroke:#000000; stroke-linecap:butt; stroke-linejoin:round; stroke-width:2; stroke-opacity:0.1; fill:none" points="
  159.478,83.4525 2640.76,83.4525 
  "/>
<polyline clip-path="url(#clip080)" style="stroke:#000000; stroke-linecap:butt; stroke-linejoin:round; stroke-width:4; stroke-opacity:1; fill:none" points="
  159.478,1800.78 159.478,47.2441 
  "/>
<polyline clip-path="url(#clip080)" style="stroke:#000000; stroke-linecap:butt; stroke-linejoin:round; stroke-width:4; stroke-opacity:1; fill:none" points="
  159.478,1465.78 178.376,1465.78 
  "/>
<polyline clip-path="url(#clip080)" style="stroke:#000000; stroke-linecap:butt; stroke-linejoin:round; stroke-width:4; stroke-opacity:1; fill:none" points="
  159.478,1120.2 178.376,1120.2 
  "/>
<polyline clip-path="url(#clip080)" style="stroke:#000000; stroke-linecap:butt; stroke-linejoin:round; stroke-width:4; stroke-opacity:1; fill:none" points="
  159.478,774.617 178.376,774.617 
  "/>
<polyline clip-path="url(#clip080)" style="stroke:#000000; stroke-linecap:butt; stroke-linejoin:round; stroke-width:4; stroke-opacity:1; fill:none" points="
  159.478,429.035 178.376,429.035 
  "/>
<polyline clip-path="url(#clip080)" style="stroke:#000000; stroke-linecap:butt; stroke-linejoin:round; stroke-width:4; stroke-opacity:1; fill:none" points="
  159.478,83.4525 178.376,83.4525 
  "/>
<path clip-path="url(#clip080)" d="M63.5798 1451.58 Q59.9687 1451.58 58.14 1455.14 Q56.3345 1458.69 56.3345 1465.82 Q56.3345 1472.92 58.14 1476.49 Q59.9687 1480.03 63.5798 1480.03 Q67.2141 1480.03 69.0196 1476.49 Q70.8483 1472.92 70.8483 1465.82 Q70.8483 1458.69 69.0196 1455.14 Q67.2141 1451.58 63.5798 1451.58 M63.5798 1447.88 Q69.39 1447.88 72.4455 1452.48 Q75.5242 1457.07 75.5242 1465.82 Q75.5242 1474.54 72.4455 1479.15 Q69.39 1483.73 63.5798 1483.73 Q57.7697 1483.73 54.691 1479.15 Q51.6354 1474.54 51.6354 1465.82 Q51.6354 1457.07 54.691 1452.48 Q57.7697 1447.88 63.5798 1447.88 Z" fill="#000000" fill-rule="evenodd" fill-opacity="1" /><path clip-path="url(#clip080)" d="M83.7418 1477.18 L88.626 1477.18 L88.626 1483.06 L83.7418 1483.06 L83.7418 1477.18 Z" fill="#000000" fill-rule="evenodd" fill-opacity="1" /><path clip-path="url(#clip080)" d="M102.839 1479.13 L119.158 1479.13 L119.158 1483.06 L97.2139 1483.06 L97.2139 1479.13 Q99.8759 1476.37 104.459 1471.74 Q109.066 1467.09 110.246 1465.75 Q112.492 1463.22 113.371 1461.49 Q114.274 1459.73 114.274 1458.04 Q114.274 1455.28 112.33 1453.55 Q110.408 1451.81 107.306 1451.81 Q105.107 1451.81 102.654 1452.58 Q100.223 1453.34 97.4454 1454.89 L97.4454 1450.17 Q100.269 1449.03 102.723 1448.46 Q105.177 1447.88 107.214 1447.88 Q112.584 1447.88 115.779 1450.56 Q118.973 1453.25 118.973 1457.74 Q118.973 1459.87 118.163 1461.79 Q117.376 1463.69 115.269 1466.28 Q114.691 1466.95 111.589 1470.17 Q108.487 1473.36 102.839 1479.13 Z" fill="#000000" fill-rule="evenodd" fill-opacity="1" /><path clip-path="url(#clip080)" d="M61.4965 1106 Q57.8854 1106 56.0567 1109.56 Q54.2512 1113.1 54.2512 1120.23 Q54.2512 1127.34 56.0567 1130.91 Q57.8854 1134.45 61.4965 1134.45 Q65.1307 1134.45 66.9363 1130.91 Q68.765 1127.34 68.765 1120.23 Q68.765 1113.1 66.9363 1109.56 Q65.1307 1106 61.4965 1106 M61.4965 1102.29 Q67.3067 1102.29 70.3622 1106.9 Q73.4409 1111.48 73.4409 1120.23 Q73.4409 1128.96 70.3622 1133.57 Q67.3067 1138.15 61.4965 1138.15 Q55.6864 1138.15 52.6077 1133.57 Q49.5521 1128.96 49.5521 1120.23 Q49.5521 1111.48 52.6077 1106.9 Q55.6864 1102.29 61.4965 1102.29 Z" fill="#000000" fill-rule="evenodd" fill-opacity="1" /><path clip-path="url(#clip080)" d="M81.6584 1131.6 L86.5427 1131.6 L86.5427 1137.48 L81.6584 1137.48 L81.6584 1131.6 Z" fill="#000000" fill-rule="evenodd" fill-opacity="1" /><path clip-path="url(#clip080)" d="M109.575 1106.99 L97.7695 1125.44 L109.575 1125.44 L109.575 1106.99 M108.348 1102.92 L114.228 1102.92 L114.228 1125.44 L119.158 1125.44 L119.158 1129.33 L114.228 1129.33 L114.228 1137.48 L109.575 1137.48 L109.575 1129.33 L93.9732 1129.33 L93.9732 1124.82 L108.348 1102.92 Z" fill="#000000" fill-rule="evenodd" fill-opacity="1" /><path clip-path="url(#clip080)" d="M61.8206 760.416 Q58.2095 760.416 56.3808 763.98 Q54.5752 767.522 54.5752 774.652 Q54.5752 781.758 56.3808 785.323 Q58.2095 788.865 61.8206 788.865 Q65.4548 788.865 67.2604 785.323 Q69.0891 781.758 69.0891 774.652 Q69.0891 767.522 67.2604 763.98 Q65.4548 760.416 61.8206 760.416 M61.8206 756.712 Q67.6307 756.712 70.6863 761.318 Q73.765 765.902 73.765 774.652 Q73.765 783.379 70.6863 787.985 Q67.6307 792.568 61.8206 792.568 Q56.0104 792.568 52.9317 787.985 Q49.8762 783.379 49.8762 774.652 Q49.8762 765.902 52.9317 761.318 Q56.0104 756.712 61.8206 756.712 Z" fill="#000000" fill-rule="evenodd" fill-opacity="1" /><path clip-path="url(#clip080)" d="M81.9825 786.017 L86.8667 786.017 L86.8667 791.897 L81.9825 791.897 L81.9825 786.017 Z" fill="#000000" fill-rule="evenodd" fill-opacity="1" /><path clip-path="url(#clip080)" d="M107.631 772.754 Q104.482 772.754 102.631 774.906 Q100.802 777.059 100.802 780.809 Q100.802 784.536 102.631 786.712 Q104.482 788.865 107.631 788.865 Q110.779 788.865 112.607 786.712 Q114.459 784.536 114.459 780.809 Q114.459 777.059 112.607 774.906 Q110.779 772.754 107.631 772.754 M116.913 758.101 L116.913 762.36 Q115.154 761.527 113.348 761.087 Q111.566 760.647 109.806 760.647 Q105.177 760.647 102.723 763.772 Q100.293 766.897 99.9454 773.217 Q101.311 771.203 103.371 770.138 Q105.431 769.05 107.908 769.05 Q113.117 769.05 116.126 772.221 Q119.158 775.369 119.158 780.809 Q119.158 786.133 116.01 789.351 Q112.862 792.568 107.631 792.568 Q101.635 792.568 98.4639 787.985 Q95.2926 783.379 95.2926 774.652 Q95.2926 766.457 99.1815 761.596 Q103.07 756.712 109.621 756.712 Q111.38 756.712 113.163 757.059 Q114.968 757.406 116.913 758.101 Z" fill="#000000" fill-rule="evenodd" fill-opacity="1" /><path clip-path="url(#clip080)" d="M62.0752 414.833 Q58.4641 414.833 56.6354 418.398 Q54.8299 421.94 54.8299 429.069 Q54.8299 436.176 56.6354 439.741 Q58.4641 443.282 62.0752 443.282 Q65.7094 443.282 67.515 439.741 Q69.3437 436.176 69.3437 429.069 Q69.3437 421.94 67.515 418.398 Q65.7094 414.833 62.0752 414.833 M62.0752 411.13 Q67.8854 411.13 70.9409 415.736 Q74.0196 420.32 74.0196 429.069 Q74.0196 437.796 70.9409 442.403 Q67.8854 446.986 62.0752 446.986 Q56.2651 446.986 53.1864 442.403 Q50.1308 437.796 50.1308 429.069 Q50.1308 420.32 53.1864 415.736 Q56.2651 411.13 62.0752 411.13 Z" fill="#000000" fill-rule="evenodd" fill-opacity="1" /><path clip-path="url(#clip080)" d="M82.2371 440.435 L87.1214 440.435 L87.1214 446.315 L82.2371 446.315 L82.2371 440.435 Z" fill="#000000" fill-rule="evenodd" fill-opacity="1" /><path clip-path="url(#clip080)" d="M107.306 429.903 Q103.973 429.903 102.052 431.685 Q100.154 433.468 100.154 436.593 Q100.154 439.718 102.052 441.5 Q103.973 443.282 107.306 443.282 Q110.64 443.282 112.561 441.5 Q114.482 439.694 114.482 436.593 Q114.482 433.468 112.561 431.685 Q110.663 429.903 107.306 429.903 M102.631 427.912 Q99.6213 427.171 97.9315 425.111 Q96.2648 423.051 96.2648 420.088 Q96.2648 415.945 99.2046 413.537 Q102.168 411.13 107.306 411.13 Q112.468 411.13 115.408 413.537 Q118.348 415.945 118.348 420.088 Q118.348 423.051 116.658 425.111 Q114.992 427.171 112.005 427.912 Q115.385 428.699 117.26 430.991 Q119.158 433.282 119.158 436.593 Q119.158 441.616 116.08 444.301 Q113.024 446.986 107.306 446.986 Q101.589 446.986 98.5102 444.301 Q95.4547 441.616 95.4547 436.593 Q95.4547 433.282 97.3528 430.991 Q99.2509 428.699 102.631 427.912 M100.918 420.528 Q100.918 423.213 102.584 424.718 Q104.274 426.222 107.306 426.222 Q110.316 426.222 112.005 424.718 Q113.718 423.213 113.718 420.528 Q113.718 417.843 112.005 416.338 Q110.316 414.833 107.306 414.833 Q104.274 414.833 102.584 416.338 Q100.918 417.843 100.918 420.528 Z" fill="#000000" fill-rule="evenodd" fill-opacity="1" /><path clip-path="url(#clip080)" d="M52.7928 96.7973 L60.4317 96.7973 L60.4317 70.4317 L52.1216 72.0984 L52.1216 67.8392 L60.3854 66.1725 L65.0613 66.1725 L65.0613 96.7973 L72.7002 96.7973 L72.7002 100.733 L52.7928 100.733 L52.7928 96.7973 Z" fill="#000000" fill-rule="evenodd" fill-opacity="1" /><path clip-path="url(#clip080)" d="M82.1445 94.8529 L87.0288 94.8529 L87.0288 100.733 L82.1445 100.733 L82.1445 94.8529 Z" fill="#000000" fill-rule="evenodd" fill-opacity="1" /><path clip-path="url(#clip080)" d="M107.214 69.2512 Q103.603 69.2512 101.774 72.816 Q99.9685 76.3576 99.9685 83.4872 Q99.9685 90.5937 101.774 94.1585 Q103.603 97.7001 107.214 97.7001 Q110.848 97.7001 112.654 94.1585 Q114.482 90.5937 114.482 83.4872 Q114.482 76.3576 112.654 72.816 Q110.848 69.2512 107.214 69.2512 M107.214 65.5475 Q113.024 65.5475 116.08 70.154 Q119.158 74.7373 119.158 83.4872 Q119.158 92.214 116.08 96.8205 Q113.024 101.404 107.214 101.404 Q101.404 101.404 98.325 96.8205 Q95.2695 92.214 95.2695 83.4872 Q95.2695 74.7373 98.325 70.154 Q101.404 65.5475 107.214 65.5475 Z" fill="#000000" fill-rule="evenodd" fill-opacity="1" /><polyline clip-path="url(#clip082)" style="stroke:#009af9; stroke-linecap:butt; stroke-linejoin:round; stroke-width:4; stroke-opacity:1; fill:none" points="
  1395.59,818.014 2313.71,826.239 474.285,1527.16 2115.74,1326.73 1259.78,1229.81 1579.69,1062.79 1992.45,1066.09 1604.55,342.706 2404.57,427.527 2112.75,469.704 
  256.443,616.56 1292.82,628.636 2570.53,927.502 1771.19,1522.71 1781.07,1196.27 823.572,1606.02 1198.82,894.381 583.077,152.445 1786.02,176.784 1066.15,592.067 
  2530.85,962.16 1554.24,825.933 530.253,722.722 392.547,804.796 229.703,1054.13 1626.96,808.604 2180.01,149.358 1298.6,1655.48 1618.41,551.34 1324.42,1614.06 
  901.428,1706.96 1453.44,719.842 372.319,680.78 1461.51,322.22 1374.54,1189.32 2172.19,279.396 2122.04,1738.39 2032.6,1544.08 549.894,916.883 334.623,465.905 
  1935.89,1063.06 2544.39,1226.77 1211.63,1517.88 859.597,1615 1739.69,999.32 310.351,932.631 381.286,1163.66 259.628,1583.21 872.517,409.291 776.627,472.016 
  1088.56,377.63 2132.88,603.237 1260.95,1691.15 2500.69,569.563 788.528,598.898 2037.74,1705.45 485.153,336.556 535.695,1451.77 554.753,246.702 1718,375.351 
  389.6,916.277 732.695,468.185 2358.65,986.808 420.675,1751.15 1567.22,254.79 1451.18,1345.4 994.736,480.341 820.269,287.181 1420.67,817.075 633.43,1531.63 
  888.101,438.024 1792.64,1446.94 1859.49,1135.46 1613.41,96.8724 2215.87,1544.23 1389.95,976.821 1946.82,1640.3 2421.48,765.326 656.336,1185.19 1462.47,1098.84 
  704.159,445.829 1005.42,201.021 1968.42,565.686 610.102,1254.82 1989.65,225.592 1318.22,1088.85 335.445,678.667 972.048,1022.67 796.952,1022.54 2490.84,946.012 
  1140.76,1683.07 1633.08,491.689 1821.41,400.551 2083.84,1060.63 639.824,1562.56 1724.37,649.685 1985.14,687.103 800.369,154.7 1877.8,479.283 2426.32,1466.69 
  
  "/>
<path clip-path="url(#clip080)" d="
M2257.49 209.375 L2558.05 209.375 L2558.05 105.695 L2257.49 105.695  Z
  " fill="#ffffff" fill-rule="evenodd" fill-opacity="1"/>
<polyline clip-path="url(#clip080)" style="stroke:#000000; stroke-linecap:butt; stroke-linejoin:round; stroke-width:4; stroke-opacity:1; fill:none" points="
  2257.49,209.375 2558.05,209.375 2558.05,105.695 2257.49,105.695 2257.49,209.375 
  "/>
<polyline clip-path="url(#clip080)" style="stroke:#009af9; stroke-linecap:butt; stroke-linejoin:round; stroke-width:4; stroke-opacity:1; fill:none" points="
  2285.06,157.535 2450.48,157.535 
  "/>
<path clip-path="url(#clip080)" d="M2491.89 177.223 Q2490.08 181.852 2488.37 183.264 Q2486.66 184.676 2483.79 184.676 L2480.38 184.676 L2480.38 181.112 L2482.88 181.112 Q2484.64 181.112 2485.62 180.278 Q2486.59 179.445 2487.77 176.343 L2488.53 174.399 L2478.05 148.889 L2482.56 148.889 L2490.66 169.167 L2498.76 148.889 L2503.28 148.889 L2491.89 177.223 Z" fill="#000000" fill-rule="evenodd" fill-opacity="1" /><path clip-path="url(#clip080)" d="M2510.57 170.88 L2518.21 170.88 L2518.21 144.515 L2509.9 146.181 L2509.9 141.922 L2518.16 140.255 L2522.84 140.255 L2522.84 170.88 L2530.48 170.88 L2530.48 174.815 L2510.57 174.815 L2510.57 170.88 Z" fill="#000000" fill-rule="evenodd" fill-opacity="1" /></svg>
