<?xml version="1.0" encoding="utf-8"?>
<svg xmlns="http://www.w3.org/2000/svg" xmlns:xlink="http://www.w3.org/1999/xlink" width="672" height="480" viewBox="0 0 2688 1920">
<defs>
  <clipPath id="clip590">
    <rect x="0" y="0" width="2688" height="1920"/>
  </clipPath>
</defs>
<path clip-path="url(#clip590)" d="
M0 1920 L2688 1920 L2688 0 L0 0  Z
  " fill="#ffffff" fill-rule="evenodd" fill-opacity="1"/>
<defs>
  <clipPath id="clip591">
    <rect x="537" y="0" width="1883" height="1883"/>
  </clipPath>
</defs>
<path clip-path="url(#clip590)" d="
M189.154 1800.78 L2640.76 1800.78 L2640.76 47.2441 L189.154 47.2441  Z
  " fill="#ffffff" fill-rule="evenodd" fill-opacity="1"/>
<defs>
  <clipPath id="clip592">
    <rect x="189" y="47" width="2453" height="1755"/>
  </clipPath>
</defs>
<polyline clip-path="url(#clip592)" style="stroke:#000000; stroke-linecap:butt; stroke-linejoin:round; stroke-width:2; stroke-opacity:0.1; fill:none" points="
  255.338,1800.78 255.338,47.2441 
  "/>
<polyline clip-path="url(#clip592)" style="stroke:#000000; stroke-linecap:butt; stroke-linejoin:round; stroke-width:2; stroke-opacity:0.1; fill:none" points="
  836.276,1800.78 836.276,47.2441 
  "/>
<polyline clip-path="url(#clip592)" style="stroke:#000000; stroke-linecap:butt; stroke-linejoin:round; stroke-width:2; stroke-opacity:0.1; fill:none" points="
  1417.21,1800.78 1417.21,47.2441 
  "/>
<polyline clip-path="url(#clip592)" style="stroke:#000000; stroke-linecap:butt; stroke-linejoin:round; stroke-width:2; stroke-opacity:0.1; fill:none" points="
  1998.15,1800.78 1998.15,47.2441 
  "/>
<polyline clip-path="url(#clip592)" style="stroke:#000000; stroke-linecap:butt; stroke-linejoin:round; stroke-width:2; stroke-opacity:0.1; fill:none" points="
  2579.09,1800.78 2579.09,47.2441 
  "/>
<polyline clip-path="url(#clip590)" style="stroke:#000000; stroke-linecap:butt; stroke-linejoin:round; stroke-width:4; stroke-opacity:1; fill:none" points="
  189.154,1800.78 2640.76,1800.78 
  "/>
<polyline clip-path="url(#clip590)" style="stroke:#000000; stroke-linecap:butt; stroke-linejoin:round; stroke-width:4; stroke-opacity:1; fill:none" points="
  255.338,1800.78 255.338,1781.88 
  "/>
<polyline clip-path="url(#clip590)" style="stroke:#000000; stroke-linecap:butt; stroke-linejoin:round; stroke-width:4; stroke-opacity:1; fill:none" points="
  836.276,1800.78 836.276,1781.88 
  "/>
<polyline clip-path="url(#clip590)" style="stroke:#000000; stroke-linecap:butt; stroke-linejoin:round; stroke-width:4; stroke-opacity:1; fill:none" points="
  1417.21,1800.78 1417.21,1781.88 
  "/>
<polyline clip-path="url(#clip590)" style="stroke:#000000; stroke-linecap:butt; stroke-linejoin:round; stroke-width:4; stroke-opacity:1; fill:none" points="
  1998.15,1800.78 1998.15,1781.88 
  "/>
<polyline clip-path="url(#clip590)" style="stroke:#000000; stroke-linecap:butt; stroke-linejoin:round; stroke-width:4; stroke-opacity:1; fill:none" points="
  2579.09,1800.78 2579.09,1781.88 
  "/>
<path clip-path="url(#clip590)" d="M217.642 1834 Q214.031 1834 212.202 1837.57 Q210.396 1841.11 210.396 1848.24 Q210.396 1855.34 212.202 1858.91 Q214.031 1862.45 217.642 1862.45 Q221.276 1862.45 223.082 1858.91 Q224.91 1855.34 224.91 1848.24 Q224.91 1841.11 223.082 1837.57 Q221.276 1834 217.642 1834 M217.642 1830.3 Q223.452 1830.3 226.508 1834.9 Q229.586 1839.49 229.586 1848.24 Q229.586 1856.96 226.508 1861.57 Q223.452 1866.15 217.642 1866.15 Q211.832 1866.15 208.753 1861.57 Q205.697 1856.96 205.697 1848.24 Q205.697 1839.49 208.753 1834.9 Q211.832 1830.3 217.642 1830.3 Z" fill="#000000" fill-rule="evenodd" fill-opacity="1" /><path clip-path="url(#clip590)" d="M237.804 1859.6 L242.688 1859.6 L242.688 1865.48 L237.804 1865.48 L237.804 1859.6 Z" fill="#000000" fill-rule="evenodd" fill-opacity="1" /><path clip-path="url(#clip590)" d="M262.873 1834 Q259.262 1834 257.433 1837.57 Q255.628 1841.11 255.628 1848.24 Q255.628 1855.34 257.433 1858.91 Q259.262 1862.45 262.873 1862.45 Q266.507 1862.45 268.313 1858.91 Q270.142 1855.34 270.142 1848.24 Q270.142 1841.11 268.313 1837.57 Q266.507 1834 262.873 1834 M262.873 1830.3 Q268.683 1830.3 271.739 1834.9 Q274.817 1839.49 274.817 1848.24 Q274.817 1856.96 271.739 1861.57 Q268.683 1866.15 262.873 1866.15 Q257.063 1866.15 253.984 1861.57 Q250.929 1856.96 250.929 1848.24 Q250.929 1839.49 253.984 1834.9 Q257.063 1830.3 262.873 1830.3 Z" fill="#000000" fill-rule="evenodd" fill-opacity="1" /><path clip-path="url(#clip590)" d="M293.035 1834 Q289.424 1834 287.595 1837.57 Q285.79 1841.11 285.79 1848.24 Q285.79 1855.34 287.595 1858.91 Q289.424 1862.45 293.035 1862.45 Q296.669 1862.45 298.475 1858.91 Q300.303 1855.34 300.303 1848.24 Q300.303 1841.11 298.475 1837.57 Q296.669 1834 293.035 1834 M293.035 1830.3 Q298.845 1830.3 301.901 1834.9 Q304.979 1839.49 304.979 1848.24 Q304.979 1856.96 301.901 1861.57 Q298.845 1866.15 293.035 1866.15 Q287.225 1866.15 284.146 1861.57 Q281.091 1856.96 281.091 1848.24 Q281.091 1839.49 284.146 1834.9 Q287.225 1830.3 293.035 1830.3 Z" fill="#000000" fill-rule="evenodd" fill-opacity="1" /><path clip-path="url(#clip590)" d="M799.077 1834 Q795.466 1834 793.637 1837.57 Q791.831 1841.11 791.831 1848.24 Q791.831 1855.34 793.637 1858.91 Q795.466 1862.45 799.077 1862.45 Q802.711 1862.45 804.517 1858.91 Q806.345 1855.34 806.345 1848.24 Q806.345 1841.11 804.517 1837.57 Q802.711 1834 799.077 1834 M799.077 1830.3 Q804.887 1830.3 807.942 1834.9 Q811.021 1839.49 811.021 1848.24 Q811.021 1856.96 807.942 1861.57 Q804.887 1866.15 799.077 1866.15 Q793.267 1866.15 790.188 1861.57 Q787.132 1856.96 787.132 1848.24 Q787.132 1839.49 790.188 1834.9 Q793.267 1830.3 799.077 1830.3 Z" fill="#000000" fill-rule="evenodd" fill-opacity="1" /><path clip-path="url(#clip590)" d="M819.239 1859.6 L824.123 1859.6 L824.123 1865.48 L819.239 1865.48 L819.239 1859.6 Z" fill="#000000" fill-rule="evenodd" fill-opacity="1" /><path clip-path="url(#clip590)" d="M838.336 1861.55 L854.655 1861.55 L854.655 1865.48 L832.711 1865.48 L832.711 1861.55 Q835.373 1858.79 839.956 1854.16 Q844.563 1849.51 845.743 1848.17 Q847.989 1845.65 848.868 1843.91 Q849.771 1842.15 849.771 1840.46 Q849.771 1837.71 847.826 1835.97 Q845.905 1834.23 842.803 1834.23 Q840.604 1834.23 838.151 1835 Q835.72 1835.76 832.942 1837.31 L832.942 1832.59 Q835.766 1831.46 838.22 1830.88 Q840.674 1830.3 842.711 1830.3 Q848.081 1830.3 851.276 1832.98 Q854.47 1835.67 854.47 1840.16 Q854.47 1842.29 853.66 1844.21 Q852.873 1846.11 850.766 1848.7 Q850.188 1849.37 847.086 1852.59 Q843.984 1855.78 838.336 1861.55 Z" fill="#000000" fill-rule="evenodd" fill-opacity="1" /><path clip-path="url(#clip590)" d="M864.516 1830.92 L882.873 1830.92 L882.873 1834.86 L868.799 1834.86 L868.799 1843.33 Q869.817 1842.98 870.836 1842.82 Q871.854 1842.64 872.873 1842.64 Q878.66 1842.64 882.039 1845.81 Q885.419 1848.98 885.419 1854.4 Q885.419 1859.97 881.947 1863.08 Q878.474 1866.15 872.155 1866.15 Q869.979 1866.15 867.711 1865.78 Q865.465 1865.41 863.058 1864.67 L863.058 1859.97 Q865.141 1861.11 867.363 1861.66 Q869.586 1862.22 872.062 1862.22 Q876.067 1862.22 878.405 1860.11 Q880.743 1858.01 880.743 1854.4 Q880.743 1850.78 878.405 1848.68 Q876.067 1846.57 872.062 1846.57 Q870.187 1846.57 868.312 1846.99 Q866.461 1847.4 864.516 1848.28 L864.516 1830.92 Z" fill="#000000" fill-rule="evenodd" fill-opacity="1" /><path clip-path="url(#clip590)" d="M1379.52 1834 Q1375.91 1834 1374.08 1837.57 Q1372.27 1841.11 1372.27 1848.24 Q1372.27 1855.34 1374.08 1858.91 Q1375.91 1862.45 1379.52 1862.45 Q1383.15 1862.45 1384.96 1858.91 Q1386.78 1855.34 1386.78 1848.24 Q1386.78 1841.11 1384.96 1837.57 Q1383.15 1834 1379.52 1834 M1379.52 1830.3 Q1385.33 1830.3 1388.38 1834.9 Q1391.46 1839.49 1391.46 1848.24 Q1391.46 1856.96 1388.38 1861.57 Q1385.33 1866.15 1379.52 1866.15 Q1373.71 1866.15 1370.63 1861.57 Q1367.57 1856.96 1367.57 1848.24 Q1367.57 1839.49 1370.63 1834.9 Q1373.71 1830.3 1379.52 1830.3 Z" fill="#000000" fill-rule="evenodd" fill-opacity="1" /><path clip-path="url(#clip590)" d="M1399.68 1859.6 L1404.56 1859.6 L1404.56 1865.48 L1399.68 1865.48 L1399.68 1859.6 Z" fill="#000000" fill-rule="evenodd" fill-opacity="1" /><path clip-path="url(#clip590)" d="M1414.79 1830.92 L1433.15 1830.92 L1433.15 1834.86 L1419.08 1834.86 L1419.08 1843.33 Q1420.09 1842.98 1421.11 1842.82 Q1422.13 1842.64 1423.15 1842.64 Q1428.94 1842.64 1432.32 1845.81 Q1435.7 1848.98 1435.7 1854.4 Q1435.7 1859.97 1432.22 1863.08 Q1428.75 1866.15 1422.43 1866.15 Q1420.26 1866.15 1417.99 1865.78 Q1415.74 1865.41 1413.34 1864.67 L1413.34 1859.97 Q1415.42 1861.11 1417.64 1861.66 Q1419.86 1862.22 1422.34 1862.22 Q1426.34 1862.22 1428.68 1860.11 Q1431.02 1858.01 1431.02 1854.4 Q1431.02 1850.78 1428.68 1848.68 Q1426.34 1846.57 1422.34 1846.57 Q1420.47 1846.57 1418.59 1846.99 Q1416.74 1847.4 1414.79 1848.28 L1414.79 1830.92 Z" fill="#000000" fill-rule="evenodd" fill-opacity="1" /><path clip-path="url(#clip590)" d="M1454.91 1834 Q1451.3 1834 1449.47 1837.57 Q1447.66 1841.11 1447.66 1848.24 Q1447.66 1855.34 1449.47 1858.91 Q1451.3 1862.45 1454.91 1862.45 Q1458.54 1862.45 1460.35 1858.91 Q1462.18 1855.34 1462.18 1848.24 Q1462.18 1841.11 1460.35 1837.57 Q1458.54 1834 1454.91 1834 M1454.91 1830.3 Q1460.72 1830.3 1463.78 1834.9 Q1466.85 1839.49 1466.85 1848.24 Q1466.85 1856.96 1463.78 1861.57 Q1460.72 1866.15 1454.91 1866.15 Q1449.1 1866.15 1446.02 1861.57 Q1442.97 1856.96 1442.97 1848.24 Q1442.97 1839.49 1446.02 1834.9 Q1449.1 1830.3 1454.91 1830.3 Z" fill="#000000" fill-rule="evenodd" fill-opacity="1" /><path clip-path="url(#clip590)" d="M1960.95 1834 Q1957.34 1834 1955.51 1837.57 Q1953.71 1841.11 1953.71 1848.24 Q1953.71 1855.34 1955.51 1858.91 Q1957.34 1862.45 1960.95 1862.45 Q1964.59 1862.45 1966.39 1858.91 Q1968.22 1855.34 1968.22 1848.24 Q1968.22 1841.11 1966.39 1837.57 Q1964.59 1834 1960.95 1834 M1960.95 1830.3 Q1966.76 1830.3 1969.82 1834.9 Q1972.9 1839.49 1972.9 1848.24 Q1972.9 1856.96 1969.82 1861.57 Q1966.76 1866.15 1960.95 1866.15 Q1955.14 1866.15 1952.06 1861.57 Q1949.01 1856.96 1949.01 1848.24 Q1949.01 1839.49 1952.06 1834.9 Q1955.14 1830.3 1960.95 1830.3 Z" fill="#000000" fill-rule="evenodd" fill-opacity="1" /><path clip-path="url(#clip590)" d="M1981.11 1859.6 L1986 1859.6 L1986 1865.48 L1981.11 1865.48 L1981.11 1859.6 Z" fill="#000000" fill-rule="evenodd" fill-opacity="1" /><path clip-path="url(#clip590)" d="M1995 1830.92 L2017.22 1830.92 L2017.22 1832.91 L2004.68 1865.48 L1999.79 1865.48 L2011.6 1834.86 L1995 1834.86 L1995 1830.92 Z" fill="#000000" fill-rule="evenodd" fill-opacity="1" /><path clip-path="url(#clip590)" d="M2026.39 1830.92 L2044.75 1830.92 L2044.75 1834.86 L2030.67 1834.86 L2030.67 1843.33 Q2031.69 1842.98 2032.71 1842.82 Q2033.73 1842.64 2034.75 1842.64 Q2040.53 1842.64 2043.91 1845.81 Q2047.29 1848.98 2047.29 1854.4 Q2047.29 1859.97 2043.82 1863.08 Q2040.35 1866.15 2034.03 1866.15 Q2031.85 1866.15 2029.59 1865.78 Q2027.34 1865.41 2024.93 1864.67 L2024.93 1859.97 Q2027.02 1861.11 2029.24 1861.66 Q2031.46 1862.22 2033.94 1862.22 Q2037.94 1862.22 2040.28 1860.11 Q2042.62 1858.01 2042.62 1854.4 Q2042.62 1850.78 2040.28 1848.68 Q2037.94 1846.57 2033.94 1846.57 Q2032.06 1846.57 2030.19 1846.99 Q2028.34 1847.4 2026.39 1848.28 L2026.39 1830.92 Z" fill="#000000" fill-rule="evenodd" fill-opacity="1" /><path clip-path="url(#clip590)" d="M2531.16 1861.55 L2538.8 1861.55 L2538.8 1835.18 L2530.49 1836.85 L2530.49 1832.59 L2538.75 1830.92 L2543.43 1830.92 L2543.43 1861.55 L2551.07 1861.55 L2551.07 1865.48 L2531.16 1865.48 L2531.16 1861.55 Z" fill="#000000" fill-rule="evenodd" fill-opacity="1" /><path clip-path="url(#clip590)" d="M2560.51 1859.6 L2565.4 1859.6 L2565.4 1865.48 L2560.51 1865.48 L2560.51 1859.6 Z" fill="#000000" fill-rule="evenodd" fill-opacity="1" /><path clip-path="url(#clip590)" d="M2585.58 1834 Q2581.97 1834 2580.14 1837.57 Q2578.34 1841.11 2578.34 1848.24 Q2578.34 1855.34 2580.14 1858.91 Q2581.97 1862.45 2585.58 1862.45 Q2589.21 1862.45 2591.02 1858.91 Q2592.85 1855.34 2592.85 1848.24 Q2592.85 1841.11 2591.02 1837.57 Q2589.21 1834 2585.58 1834 M2585.58 1830.3 Q2591.39 1830.3 2594.45 1834.9 Q2597.52 1839.49 2597.52 1848.24 Q2597.52 1856.96 2594.45 1861.57 Q2591.39 1866.15 2585.58 1866.15 Q2579.77 1866.15 2576.69 1861.57 Q2573.64 1856.96 2573.64 1848.24 Q2573.64 1839.49 2576.69 1834.9 Q2579.77 1830.3 2585.58 1830.3 Z" fill="#000000" fill-rule="evenodd" fill-opacity="1" /><path clip-path="url(#clip590)" d="M2615.74 1834 Q2612.13 1834 2610.3 1837.57 Q2608.5 1841.11 2608.5 1848.24 Q2608.5 1855.34 2610.3 1858.91 Q2612.13 1862.45 2615.74 1862.45 Q2619.38 1862.45 2621.18 1858.91 Q2623.01 1855.34 2623.01 1848.24 Q2623.01 1841.11 2621.18 1837.57 Q2619.38 1834 2615.74 1834 M2615.74 1830.3 Q2621.55 1830.3 2624.61 1834.9 Q2627.69 1839.49 2627.69 1848.24 Q2627.69 1856.96 2624.61 1861.57 Q2621.55 1866.15 2615.74 1866.15 Q2609.93 1866.15 2606.85 1861.57 Q2603.8 1856.96 2603.8 1848.24 Q2603.8 1839.49 2606.85 1834.9 Q2609.93 1830.3 2615.74 1830.3 Z" fill="#000000" fill-rule="evenodd" fill-opacity="1" /><polyline clip-path="url(#clip592)" style="stroke:#000000; stroke-linecap:butt; stroke-linejoin:round; stroke-width:2; stroke-opacity:0.1; fill:none" points="
  189.154,1786.89 2640.76,1786.89 
  "/>
<polyline clip-path="url(#clip592)" style="stroke:#000000; stroke-linecap:butt; stroke-linejoin:round; stroke-width:2; stroke-opacity:0.1; fill:none" points="
  189.154,1355.62 2640.76,1355.62 
  "/>
<polyline clip-path="url(#clip592)" style="stroke:#000000; stroke-linecap:butt; stroke-linejoin:round; stroke-width:2; stroke-opacity:0.1; fill:none" points="
  189.154,924.345 2640.76,924.345 
  "/>
<polyline clip-path="url(#clip592)" style="stroke:#000000; stroke-linecap:butt; stroke-linejoin:round; stroke-width:2; stroke-opacity:0.1; fill:none" points="
  189.154,493.071 2640.76,493.071 
  "/>
<polyline clip-path="url(#clip592)" style="stroke:#000000; stroke-linecap:butt; stroke-linejoin:round; stroke-width:2; stroke-opacity:0.1; fill:none" points="
  189.154,61.7976 2640.76,61.7976 
  "/>
<polyline clip-path="url(#clip590)" style="stroke:#000000; stroke-linecap:butt; stroke-linejoin:round; stroke-width:4; stroke-opacity:1; fill:none" points="
  189.154,1800.78 189.154,47.2441 
  "/>
<polyline clip-path="url(#clip590)" style="stroke:#000000; stroke-linecap:butt; stroke-linejoin:round; stroke-width:4; stroke-opacity:1; fill:none" points="
  189.154,1786.89 208.052,1786.89 
  "/>
<polyline clip-path="url(#clip590)" style="stroke:#000000; stroke-linecap:butt; stroke-linejoin:round; stroke-width:4; stroke-opacity:1; fill:none" points="
  189.154,1355.62 208.052,1355.62 
  "/>
<polyline clip-path="url(#clip590)" style="stroke:#000000; stroke-linecap:butt; stroke-linejoin:round; stroke-width:4; stroke-opacity:1; fill:none" points="
  189.154,924.345 208.052,924.345 
  "/>
<polyline clip-path="url(#clip590)" style="stroke:#000000; stroke-linecap:butt; stroke-linejoin:round; stroke-width:4; stroke-opacity:1; fill:none" points="
  189.154,493.071 208.052,493.071 
  "/>
<polyline clip-path="url(#clip590)" style="stroke:#000000; stroke-linecap:butt; stroke-linejoin:round; stroke-width:4; stroke-opacity:1; fill:none" points="
  189.154,61.7976 208.052,61.7976 
  "/>
<path clip-path="url(#clip590)" d="M61.4965 1772.69 Q57.8854 1772.69 56.0567 1776.26 Q54.2512 1779.8 54.2512 1786.93 Q54.2512 1794.03 56.0567 1797.6 Q57.8854 1801.14 61.4965 1801.14 Q65.1307 1801.14 66.9363 1797.6 Q68.765 1794.03 68.765 1786.93 Q68.765 1779.8 66.9363 1776.26 Q65.1307 1772.69 61.4965 1772.69 M61.4965 1768.99 Q67.3067 1768.99 70.3622 1773.59 Q73.4409 1778.18 73.4409 1786.93 Q73.4409 1795.65 70.3622 1800.26 Q67.3067 1804.84 61.4965 1804.84 Q55.6864 1804.84 52.6077 1800.26 Q49.5521 1795.65 49.5521 1786.93 Q49.5521 1778.18 52.6077 1773.59 Q55.6864 1768.99 61.4965 1768.99 Z" fill="#000000" fill-rule="evenodd" fill-opacity="1" /><path clip-path="url(#clip590)" d="M81.6584 1798.29 L86.5427 1798.29 L86.5427 1804.17 L81.6584 1804.17 L81.6584 1798.29 Z" fill="#000000" fill-rule="evenodd" fill-opacity="1" /><path clip-path="url(#clip590)" d="M106.728 1772.69 Q103.117 1772.69 101.288 1776.26 Q99.4824 1779.8 99.4824 1786.93 Q99.4824 1794.03 101.288 1797.6 Q103.117 1801.14 106.728 1801.14 Q110.362 1801.14 112.168 1797.6 Q113.996 1794.03 113.996 1786.93 Q113.996 1779.8 112.168 1776.26 Q110.362 1772.69 106.728 1772.69 M106.728 1768.99 Q112.538 1768.99 115.593 1773.59 Q118.672 1778.18 118.672 1786.93 Q118.672 1795.65 115.593 1800.26 Q112.538 1804.84 106.728 1804.84 Q100.918 1804.84 97.8389 1800.26 Q94.7834 1795.65 94.7834 1786.93 Q94.7834 1778.18 97.8389 1773.59 Q100.918 1768.99 106.728 1768.99 Z" fill="#000000" fill-rule="evenodd" fill-opacity="1" /><path clip-path="url(#clip590)" d="M136.89 1772.69 Q133.279 1772.69 131.45 1776.26 Q129.644 1779.8 129.644 1786.93 Q129.644 1794.03 131.45 1797.6 Q133.279 1801.14 136.89 1801.14 Q140.524 1801.14 142.329 1797.6 Q144.158 1794.03 144.158 1786.93 Q144.158 1779.8 142.329 1776.26 Q140.524 1772.69 136.89 1772.69 M136.89 1768.99 Q142.7 1768.99 145.755 1773.59 Q148.834 1778.18 148.834 1786.93 Q148.834 1795.65 145.755 1800.26 Q142.7 1804.84 136.89 1804.84 Q131.079 1804.84 128.001 1800.26 Q124.945 1795.65 124.945 1786.93 Q124.945 1778.18 128.001 1773.59 Q131.079 1768.99 136.89 1768.99 Z" fill="#000000" fill-rule="evenodd" fill-opacity="1" /><path clip-path="url(#clip590)" d="M62.4919 1341.42 Q58.8808 1341.42 57.0521 1344.98 Q55.2465 1348.52 55.2465 1355.65 Q55.2465 1362.76 57.0521 1366.32 Q58.8808 1369.87 62.4919 1369.87 Q66.1261 1369.87 67.9317 1366.32 Q69.7604 1362.76 69.7604 1355.65 Q69.7604 1348.52 67.9317 1344.98 Q66.1261 1341.42 62.4919 1341.42 M62.4919 1337.71 Q68.302 1337.71 71.3576 1342.32 Q74.4363 1346.9 74.4363 1355.65 Q74.4363 1364.38 71.3576 1368.99 Q68.302 1373.57 62.4919 1373.57 Q56.6817 1373.57 53.603 1368.99 Q50.5475 1364.38 50.5475 1355.65 Q50.5475 1346.9 53.603 1342.32 Q56.6817 1337.71 62.4919 1337.71 Z" fill="#000000" fill-rule="evenodd" fill-opacity="1" /><path clip-path="url(#clip590)" d="M82.6538 1367.02 L87.538 1367.02 L87.538 1372.9 L82.6538 1372.9 L82.6538 1367.02 Z" fill="#000000" fill-rule="evenodd" fill-opacity="1" /><path clip-path="url(#clip590)" d="M101.751 1368.96 L118.07 1368.96 L118.07 1372.9 L96.126 1372.9 L96.126 1368.96 Q98.788 1366.21 103.371 1361.58 Q107.978 1356.93 109.158 1355.58 Q111.404 1353.06 112.283 1351.32 Q113.186 1349.57 113.186 1347.88 Q113.186 1345.12 111.242 1343.38 Q109.32 1341.65 106.218 1341.65 Q104.019 1341.65 101.566 1342.41 Q99.1352 1343.18 96.3574 1344.73 L96.3574 1340 Q99.1815 1338.87 101.635 1338.29 Q104.089 1337.71 106.126 1337.71 Q111.496 1337.71 114.691 1340.4 Q117.885 1343.08 117.885 1347.57 Q117.885 1349.7 117.075 1351.63 Q116.288 1353.52 114.181 1356.12 Q113.603 1356.79 110.501 1360 Q107.399 1363.2 101.751 1368.96 Z" fill="#000000" fill-rule="evenodd" fill-opacity="1" /><path clip-path="url(#clip590)" d="M127.931 1338.34 L146.288 1338.34 L146.288 1342.27 L132.214 1342.27 L132.214 1350.75 Q133.232 1350.4 134.251 1350.24 Q135.269 1350.05 136.288 1350.05 Q142.075 1350.05 145.454 1353.22 Q148.834 1356.39 148.834 1361.81 Q148.834 1367.39 145.362 1370.49 Q141.89 1373.57 135.57 1373.57 Q133.394 1373.57 131.126 1373.2 Q128.88 1372.83 126.473 1372.09 L126.473 1367.39 Q128.556 1368.52 130.779 1369.08 Q133.001 1369.63 135.478 1369.63 Q139.482 1369.63 141.82 1367.53 Q144.158 1365.42 144.158 1361.81 Q144.158 1358.2 141.82 1356.09 Q139.482 1353.99 135.478 1353.99 Q133.603 1353.99 131.728 1354.4 Q129.876 1354.82 127.931 1355.7 L127.931 1338.34 Z" fill="#000000" fill-rule="evenodd" fill-opacity="1" /><path clip-path="url(#clip590)" d="M61.4965 910.143 Q57.8854 910.143 56.0567 913.708 Q54.2512 917.25 54.2512 924.379 Q54.2512 931.486 56.0567 935.051 Q57.8854 938.592 61.4965 938.592 Q65.1307 938.592 66.9363 935.051 Q68.765 931.486 68.765 924.379 Q68.765 917.25 66.9363 913.708 Q65.1307 910.143 61.4965 910.143 M61.4965 906.44 Q67.3067 906.44 70.3622 911.046 Q73.4409 915.629 73.4409 924.379 Q73.4409 933.106 70.3622 937.713 Q67.3067 942.296 61.4965 942.296 Q55.6864 942.296 52.6077 937.713 Q49.5521 933.106 49.5521 924.379 Q49.5521 915.629 52.6077 911.046 Q55.6864 906.44 61.4965 906.44 Z" fill="#000000" fill-rule="evenodd" fill-opacity="1" /><path clip-path="url(#clip590)" d="M81.6584 935.745 L86.5427 935.745 L86.5427 941.625 L81.6584 941.625 L81.6584 935.745 Z" fill="#000000" fill-rule="evenodd" fill-opacity="1" /><path clip-path="url(#clip590)" d="M96.7741 907.065 L115.13 907.065 L115.13 911 L101.056 911 L101.056 919.472 Q102.075 919.125 103.094 918.963 Q104.112 918.778 105.131 918.778 Q110.918 918.778 114.297 921.949 Q117.677 925.12 117.677 930.537 Q117.677 936.115 114.205 939.217 Q110.732 942.296 104.413 942.296 Q102.237 942.296 99.9685 941.926 Q97.7232 941.555 95.3158 940.815 L95.3158 936.115 Q97.3991 937.25 99.6213 937.805 Q101.844 938.361 104.32 938.361 Q108.325 938.361 110.663 936.254 Q113.001 934.148 113.001 930.537 Q113.001 926.926 110.663 924.819 Q108.325 922.713 104.32 922.713 Q102.445 922.713 100.57 923.129 Q98.7185 923.546 96.7741 924.426 L96.7741 907.065 Z" fill="#000000" fill-rule="evenodd" fill-opacity="1" /><path clip-path="url(#clip590)" d="M136.89 910.143 Q133.279 910.143 131.45 913.708 Q129.644 917.25 129.644 924.379 Q129.644 931.486 131.45 935.051 Q133.279 938.592 136.89 938.592 Q140.524 938.592 142.329 935.051 Q144.158 931.486 144.158 924.379 Q144.158 917.25 142.329 913.708 Q140.524 910.143 136.89 910.143 M136.89 906.44 Q142.7 906.44 145.755 911.046 Q148.834 915.629 148.834 924.379 Q148.834 933.106 145.755 937.713 Q142.7 942.296 136.89 942.296 Q131.079 942.296 128.001 937.713 Q124.945 933.106 124.945 924.379 Q124.945 915.629 128.001 911.046 Q131.079 906.44 136.89 906.44 Z" fill="#000000" fill-rule="evenodd" fill-opacity="1" /><path clip-path="url(#clip590)" d="M62.4919 478.87 Q58.8808 478.87 57.0521 482.435 Q55.2465 485.976 55.2465 493.106 Q55.2465 500.212 57.0521 503.777 Q58.8808 507.319 62.4919 507.319 Q66.1261 507.319 67.9317 503.777 Q69.7604 500.212 69.7604 493.106 Q69.7604 485.976 67.9317 482.435 Q66.1261 478.87 62.4919 478.87 M62.4919 475.166 Q68.302 475.166 71.3576 479.773 Q74.4363 484.356 74.4363 493.106 Q74.4363 501.833 71.3576 506.439 Q68.302 511.022 62.4919 511.022 Q56.6817 511.022 53.603 506.439 Q50.5475 501.833 50.5475 493.106 Q50.5475 484.356 53.603 479.773 Q56.6817 475.166 62.4919 475.166 Z" fill="#000000" fill-rule="evenodd" fill-opacity="1" /><path clip-path="url(#clip590)" d="M82.6538 504.472 L87.538 504.472 L87.538 510.351 L82.6538 510.351 L82.6538 504.472 Z" fill="#000000" fill-rule="evenodd" fill-opacity="1" /><path clip-path="url(#clip590)" d="M96.5426 475.791 L118.765 475.791 L118.765 477.782 L106.218 510.351 L101.334 510.351 L113.14 479.726 L96.5426 479.726 L96.5426 475.791 Z" fill="#000000" fill-rule="evenodd" fill-opacity="1" /><path clip-path="url(#clip590)" d="M127.931 475.791 L146.288 475.791 L146.288 479.726 L132.214 479.726 L132.214 488.199 Q133.232 487.851 134.251 487.689 Q135.269 487.504 136.288 487.504 Q142.075 487.504 145.454 490.675 Q148.834 493.847 148.834 499.263 Q148.834 504.842 145.362 507.944 Q141.89 511.022 135.57 511.022 Q133.394 511.022 131.126 510.652 Q128.88 510.282 126.473 509.541 L126.473 504.842 Q128.556 505.976 130.779 506.532 Q133.001 507.087 135.478 507.087 Q139.482 507.087 141.82 504.981 Q144.158 502.874 144.158 499.263 Q144.158 495.652 141.82 493.546 Q139.482 491.439 135.478 491.439 Q133.603 491.439 131.728 491.856 Q129.876 492.273 127.931 493.152 L127.931 475.791 Z" fill="#000000" fill-rule="evenodd" fill-opacity="1" /><path clip-path="url(#clip590)" d="M52.3067 75.1424 L59.9456 75.1424 L59.9456 48.7768 L51.6354 50.4435 L51.6354 46.1843 L59.8993 44.5176 L64.5752 44.5176 L64.5752 75.1424 L72.214 75.1424 L72.214 79.0776 L52.3067 79.0776 L52.3067 75.1424 Z" fill="#000000" fill-rule="evenodd" fill-opacity="1" /><path clip-path="url(#clip590)" d="M81.6584 73.198 L86.5427 73.198 L86.5427 79.0776 L81.6584 79.0776 L81.6584 73.198 Z" fill="#000000" fill-rule="evenodd" fill-opacity="1" /><path clip-path="url(#clip590)" d="M106.728 47.5963 Q103.117 47.5963 101.288 51.1611 Q99.4824 54.7027 99.4824 61.8323 Q99.4824 68.9388 101.288 72.5036 Q103.117 76.0452 106.728 76.0452 Q110.362 76.0452 112.168 72.5036 Q113.996 68.9388 113.996 61.8323 Q113.996 54.7027 112.168 51.1611 Q110.362 47.5963 106.728 47.5963 M106.728 43.8926 Q112.538 43.8926 115.593 48.4991 Q118.672 53.0824 118.672 61.8323 Q118.672 70.5591 115.593 75.1656 Q112.538 79.7489 106.728 79.7489 Q100.918 79.7489 97.8389 75.1656 Q94.7834 70.5591 94.7834 61.8323 Q94.7834 53.0824 97.8389 48.4991 Q100.918 43.8926 106.728 43.8926 Z" fill="#000000" fill-rule="evenodd" fill-opacity="1" /><path clip-path="url(#clip590)" d="M136.89 47.5963 Q133.279 47.5963 131.45 51.1611 Q129.644 54.7027 129.644 61.8323 Q129.644 68.9388 131.45 72.5036 Q133.279 76.0452 136.89 76.0452 Q140.524 76.0452 142.329 72.5036 Q144.158 68.9388 144.158 61.8323 Q144.158 54.7027 142.329 51.1611 Q140.524 47.5963 136.89 47.5963 M136.89 43.8926 Q142.7 43.8926 145.755 48.4991 Q148.834 53.0824 148.834 61.8323 Q148.834 70.5591 145.755 75.1656 Q142.7 79.7489 136.89 79.7489 Q131.079 79.7489 128.001 75.1656 Q124.945 70.5591 124.945 61.8323 Q124.945 53.0824 128.001 48.4991 Q131.079 43.8926 136.89 43.8926 Z" fill="#000000" fill-rule="evenodd" fill-opacity="1" /><polyline clip-path="url(#clip592)" style="stroke:#009af9; stroke-linecap:butt; stroke-linejoin:round; stroke-width:4; stroke-opacity:1; fill:none" points="
  1773.56,384.659 1269.13,600.01 944.354,1095.91 498.754,121.128 2320.61,1155.05 406.359,745.929 1743.82,1173.32 2014.53,1625.07 1196.19,1060.32 1847.09,207.856 
  1399.19,560.689 1087.19,1639.92 604.664,993.157 367.341,1734.59 309.749,153.237 607.81,1015.99 712.475,631.02 1608.94,1699.45 2363.62,292.871 473.751,1159.42 
  1446.08,1324.98 1344.11,506.14 816.176,1751.15 1349.27,1126.4 2571.37,494.523 935.992,622.186 2190.32,734.519 1783.6,1259.12 1008.85,662.035 1403.74,1329.45 
  331.027,1091.71 709.058,1269.28 1562.05,911.712 1838.85,204.67 2287.16,763.745 1493.51,1491.47 1873.27,382.045 317.488,726.699 1381.84,196.369 2331.97,702.48 
  1023.32,1668.13 2525.2,1702.56 533.082,475.735 1469.42,622.32 1978.1,902.766 258.539,300.172 376.055,1668.58 1043.3,96.8724 2037.29,1046.59 631.223,323.961 
  462.128,547.349 1188.21,1214.1 2355.4,942.022 1836.13,1172.67 2052.33,1115.97 2518.97,1174 514.652,1014.47 908.596,1247.62 1636.62,433.454 1105.63,758.771 
  610.124,1640.09 2545.69,990.938 1010.37,1110.98 1751.59,381.766 2102.92,612.167 595.846,278.282 1572.81,1432.96 508.721,691.719 352.324,104.771 1291.75,1720.06 
  629.882,1048.16 1759.84,997.636 1055.74,857.29 2205.07,1537.28 1837.68,1302.5 2181.72,1478.05 1332.69,694.735 559.075,526.701 872.838,176.568 1140.82,141.653 
  1109.19,1630.68 2372.15,933.227 1072.54,314.449 2277,1453.49 800.07,1057.36 813.275,192.954 351.521,764.974 380.169,1031.73 1373.19,734.435 2196.28,1207.42 
  750.824,623.919 1668.16,477.123 1987.04,1695.68 1462.26,1287.43 1989.45,1603.13 2335.68,702.358 1241.82,1508.46 2252.05,1333.34 876.133,227.381 1699.3,1422.08 
  
  "/>
<path clip-path="url(#clip590)" d="
M2261.45 209.375 L2559.04 209.375 L2559.04 105.695 L2261.45 105.695  Z
  " fill="#ffffff" fill-rule="evenodd" fill-opacity="1"/>
<polyline clip-path="url(#clip590)" style="stroke:#000000; stroke-linecap:butt; stroke-linejoin:round; stroke-width:4; stroke-opacity:1; fill:none" points="
  2261.45,209.375 2559.04,209.375 2559.04,105.695 2261.45,105.695 2261.45,209.375 
  "/>
<polyline clip-path="url(#clip590)" style="stroke:#009af9; stroke-linecap:butt; stroke-linejoin:round; stroke-width:4; stroke-opacity:1; fill:none" points="
  2288.69,157.535 2452.13,157.535 
  "/>
<path clip-path="url(#clip590)" d="M2493.21 177.223 Q2491.4 181.852 2489.69 183.264 Q2487.98 184.676 2485.11 184.676 L2481.7 184.676 L2481.7 181.112 L2484.2 181.112 Q2485.96 181.112 2486.93 180.278 Q2487.91 179.445 2489.09 176.343 L2489.85 174.399 L2479.37 148.889 L2483.88 148.889 L2491.98 169.167 L2500.08 148.889 L2504.6 148.889 L2493.21 177.223 Z" fill="#000000" fill-rule="evenodd" fill-opacity="1" /><path clip-path="url(#clip590)" d="M2511.89 170.88 L2519.53 170.88 L2519.53 144.515 L2511.22 146.181 L2511.22 141.922 L2519.48 140.255 L2524.16 140.255 L2524.16 170.88 L2531.8 170.88 L2531.8 174.815 L2511.89 174.815 L2511.89 170.88 Z" fill="#000000" fill-rule="evenodd" fill-opacity="1" /></svg>
