<?xml version="1.0" encoding="utf-8"?>
<svg xmlns="http://www.w3.org/2000/svg" xmlns:xlink="http://www.w3.org/1999/xlink" width="672" height="480" viewBox="0 0 2688 1920">
<defs>
  <clipPath id="clip620">
    <rect x="0" y="0" width="2688" height="1920"/>
  </clipPath>
</defs>
<path clip-path="url(#clip620)" d="
M0 1920 L2688 1920 L2688 0 L0 0  Z
  " fill="#ffffff" fill-rule="evenodd" fill-opacity="1"/>
<defs>
  <clipPath id="clip621">
    <rect x="537" y="0" width="1883" height="1883"/>
  </clipPath>
</defs>
<path clip-path="url(#clip620)" d="
M189.154 1800.78 L2640.76 1800.78 L2640.76 47.2441 L189.154 47.2441  Z
  " fill="#ffffff" fill-rule="evenodd" fill-opacity="1"/>
<defs>
  <clipPath id="clip622">
    <rect x="189" y="47" width="2453" height="1755"/>
  </clipPath>
</defs>
<polyline clip-path="url(#clip622)" style="stroke:#000000; stroke-linecap:butt; stroke-linejoin:round; stroke-width:2; stroke-opacity:0.1; fill:none" points="
  647.639,1800.78 647.639,47.2441 
  "/>
<polyline clip-path="url(#clip622)" style="stroke:#000000; stroke-linecap:butt; stroke-linejoin:round; stroke-width:2; stroke-opacity:0.1; fill:none" points="
  1128.75,1800.78 1128.75,47.2441 
  "/>
<polyline clip-path="url(#clip622)" style="stroke:#000000; stroke-linecap:butt; stroke-linejoin:round; stroke-width:2; stroke-opacity:0.1; fill:none" points="
  1609.85,1800.78 1609.85,47.2441 
  "/>
<polyline clip-path="url(#clip622)" style="stroke:#000000; stroke-linecap:butt; stroke-linejoin:round; stroke-width:2; stroke-opacity:0.1; fill:none" points="
  2090.96,1800.78 2090.96,47.2441 
  "/>
<polyline clip-path="url(#clip622)" style="stroke:#000000; stroke-linecap:butt; stroke-linejoin:round; stroke-width:2; stroke-opacity:0.1; fill:none" points="
  2572.07,1800.78 2572.07,47.2441 
  "/>
<polyline clip-path="url(#clip620)" style="stroke:#000000; stroke-linecap:butt; stroke-linejoin:round; stroke-width:4; stroke-opacity:1; fill:none" points="
  189.154,1800.78 2640.76,1800.78 
  "/>
<polyline clip-path="url(#clip620)" style="stroke:#000000; stroke-linecap:butt; stroke-linejoin:round; stroke-width:4; stroke-opacity:1; fill:none" points="
  647.639,1800.78 647.639,1781.88 
  "/>
<polyline clip-path="url(#clip620)" style="stroke:#000000; stroke-linecap:butt; stroke-linejoin:round; stroke-width:4; stroke-opacity:1; fill:none" points="
  1128.75,1800.78 1128.75,1781.88 
  "/>
<polyline clip-path="url(#clip620)" style="stroke:#000000; stroke-linecap:butt; stroke-linejoin:round; stroke-width:4; stroke-opacity:1; fill:none" points="
  1609.85,1800.78 1609.85,1781.88 
  "/>
<polyline clip-path="url(#clip620)" style="stroke:#000000; stroke-linecap:butt; stroke-linejoin:round; stroke-width:4; stroke-opacity:1; fill:none" points="
  2090.96,1800.78 2090.96,1781.88 
  "/>
<polyline clip-path="url(#clip620)" style="stroke:#000000; stroke-linecap:butt; stroke-linejoin:round; stroke-width:4; stroke-opacity:1; fill:none" points="
  2572.07,1800.78 2572.07,1781.88 
  "/>
<path clip-path="url(#clip620)" d="M625.822 1834 Q622.211 1834 620.382 1837.57 Q618.577 1841.11 618.577 1848.24 Q618.577 1855.34 620.382 1858.91 Q622.211 1862.45 625.822 1862.45 Q629.456 1862.45 631.262 1858.91 Q633.091 1855.34 633.091 1848.24 Q633.091 1841.11 631.262 1837.57 Q629.456 1834 625.822 1834 M625.822 1830.3 Q631.632 1830.3 634.688 1834.9 Q637.767 1839.49 637.767 1848.24 Q637.767 1856.96 634.688 1861.57 Q631.632 1866.15 625.822 1866.15 Q620.012 1866.15 616.933 1861.57 Q613.878 1856.96 613.878 1848.24 Q613.878 1839.49 616.933 1834.9 Q620.012 1830.3 625.822 1830.3 Z" fill="#000000" fill-rule="evenodd" fill-opacity="1" /><path clip-path="url(#clip620)" d="M645.984 1859.6 L650.868 1859.6 L650.868 1865.48 L645.984 1865.48 L645.984 1859.6 Z" fill="#000000" fill-rule="evenodd" fill-opacity="1" /><path clip-path="url(#clip620)" d="M665.081 1861.55 L681.401 1861.55 L681.401 1865.48 L659.456 1865.48 L659.456 1861.55 Q662.118 1858.79 666.702 1854.16 Q671.308 1849.51 672.489 1848.17 Q674.734 1845.65 675.614 1843.91 Q676.516 1842.15 676.516 1840.46 Q676.516 1837.71 674.572 1835.97 Q672.651 1834.23 669.549 1834.23 Q667.35 1834.23 664.896 1835 Q662.465 1835.76 659.688 1837.31 L659.688 1832.59 Q662.512 1831.46 664.965 1830.88 Q667.419 1830.3 669.456 1830.3 Q674.827 1830.3 678.021 1832.98 Q681.215 1835.67 681.215 1840.16 Q681.215 1842.29 680.405 1844.21 Q679.618 1846.11 677.512 1848.7 Q676.933 1849.37 673.831 1852.59 Q670.729 1855.78 665.081 1861.55 Z" fill="#000000" fill-rule="evenodd" fill-opacity="1" /><path clip-path="url(#clip620)" d="M1105.89 1834 Q1102.28 1834 1100.45 1837.57 Q1098.64 1841.11 1098.64 1848.24 Q1098.64 1855.34 1100.45 1858.91 Q1102.28 1862.45 1105.89 1862.45 Q1109.52 1862.45 1111.33 1858.91 Q1113.16 1855.34 1113.16 1848.24 Q1113.16 1841.11 1111.33 1837.57 Q1109.52 1834 1105.89 1834 M1105.89 1830.3 Q1111.7 1830.3 1114.75 1834.9 Q1117.83 1839.49 1117.83 1848.24 Q1117.83 1856.96 1114.75 1861.57 Q1111.7 1866.15 1105.89 1866.15 Q1100.08 1866.15 1097 1861.57 Q1093.94 1856.96 1093.94 1848.24 Q1093.94 1839.49 1097 1834.9 Q1100.08 1830.3 1105.89 1830.3 Z" fill="#000000" fill-rule="evenodd" fill-opacity="1" /><path clip-path="url(#clip620)" d="M1126.05 1859.6 L1130.93 1859.6 L1130.93 1865.48 L1126.05 1865.48 L1126.05 1859.6 Z" fill="#000000" fill-rule="evenodd" fill-opacity="1" /><path clip-path="url(#clip620)" d="M1153.97 1835 L1142.16 1853.45 L1153.97 1853.45 L1153.97 1835 M1152.74 1830.92 L1158.62 1830.92 L1158.62 1853.45 L1163.55 1853.45 L1163.55 1857.34 L1158.62 1857.34 L1158.62 1865.48 L1153.97 1865.48 L1153.97 1857.34 L1138.36 1857.34 L1138.36 1852.82 L1152.74 1830.92 Z" fill="#000000" fill-rule="evenodd" fill-opacity="1" /><path clip-path="url(#clip620)" d="M1587.16 1834 Q1583.54 1834 1581.72 1837.57 Q1579.91 1841.11 1579.91 1848.24 Q1579.91 1855.34 1581.72 1858.91 Q1583.54 1862.45 1587.16 1862.45 Q1590.79 1862.45 1592.6 1858.91 Q1594.42 1855.34 1594.42 1848.24 Q1594.42 1841.11 1592.6 1837.57 Q1590.79 1834 1587.16 1834 M1587.16 1830.3 Q1592.97 1830.3 1596.02 1834.9 Q1599.1 1839.49 1599.1 1848.24 Q1599.1 1856.96 1596.02 1861.57 Q1592.97 1866.15 1587.16 1866.15 Q1581.35 1866.15 1578.27 1861.57 Q1575.21 1856.96 1575.21 1848.24 Q1575.21 1839.49 1578.27 1834.9 Q1581.35 1830.3 1587.16 1830.3 Z" fill="#000000" fill-rule="evenodd" fill-opacity="1" /><path clip-path="url(#clip620)" d="M1607.32 1859.6 L1612.2 1859.6 L1612.2 1865.48 L1607.32 1865.48 L1607.32 1859.6 Z" fill="#000000" fill-rule="evenodd" fill-opacity="1" /><path clip-path="url(#clip620)" d="M1632.97 1846.34 Q1629.82 1846.34 1627.97 1848.49 Q1626.14 1850.65 1626.14 1854.4 Q1626.14 1858.12 1627.97 1860.3 Q1629.82 1862.45 1632.97 1862.45 Q1636.11 1862.45 1637.94 1860.3 Q1639.79 1858.12 1639.79 1854.4 Q1639.79 1850.65 1637.94 1848.49 Q1636.11 1846.34 1632.97 1846.34 M1642.25 1831.69 L1642.25 1835.95 Q1640.49 1835.11 1638.68 1834.67 Q1636.9 1834.23 1635.14 1834.23 Q1630.51 1834.23 1628.06 1837.36 Q1625.63 1840.48 1625.28 1846.8 Q1626.65 1844.79 1628.71 1843.72 Q1630.77 1842.64 1633.24 1842.64 Q1638.45 1842.64 1641.46 1845.81 Q1644.49 1848.96 1644.49 1854.4 Q1644.49 1859.72 1641.35 1862.94 Q1638.2 1866.15 1632.97 1866.15 Q1626.97 1866.15 1623.8 1861.57 Q1620.63 1856.96 1620.63 1848.24 Q1620.63 1840.04 1624.52 1835.18 Q1628.41 1830.3 1634.96 1830.3 Q1636.72 1830.3 1638.5 1830.65 Q1640.3 1830.99 1642.25 1831.69 Z" fill="#000000" fill-rule="evenodd" fill-opacity="1" /><path clip-path="url(#clip620)" d="M2068.39 1834 Q2064.78 1834 2062.95 1837.57 Q2061.14 1841.11 2061.14 1848.24 Q2061.14 1855.34 2062.95 1858.91 Q2064.78 1862.45 2068.39 1862.45 Q2072.02 1862.45 2073.83 1858.91 Q2075.66 1855.34 2075.66 1848.24 Q2075.66 1841.11 2073.83 1837.57 Q2072.02 1834 2068.39 1834 M2068.39 1830.3 Q2074.2 1830.3 2077.26 1834.9 Q2080.33 1839.49 2080.33 1848.24 Q2080.33 1856.96 2077.26 1861.57 Q2074.2 1866.15 2068.39 1866.15 Q2062.58 1866.15 2059.5 1861.57 Q2056.45 1856.96 2056.45 1848.24 Q2056.45 1839.49 2059.5 1834.9 Q2062.58 1830.3 2068.39 1830.3 Z" fill="#000000" fill-rule="evenodd" fill-opacity="1" /><path clip-path="url(#clip620)" d="M2088.55 1859.6 L2093.44 1859.6 L2093.44 1865.48 L2088.55 1865.48 L2088.55 1859.6 Z" fill="#000000" fill-rule="evenodd" fill-opacity="1" /><path clip-path="url(#clip620)" d="M2113.62 1849.07 Q2110.29 1849.07 2108.37 1850.85 Q2106.47 1852.64 2106.47 1855.76 Q2106.47 1858.89 2108.37 1860.67 Q2110.29 1862.45 2113.62 1862.45 Q2116.95 1862.45 2118.88 1860.67 Q2120.8 1858.86 2120.8 1855.76 Q2120.8 1852.64 2118.88 1850.85 Q2116.98 1849.07 2113.62 1849.07 M2108.95 1847.08 Q2105.94 1846.34 2104.25 1844.28 Q2102.58 1842.22 2102.58 1839.26 Q2102.58 1835.11 2105.52 1832.71 Q2108.48 1830.3 2113.62 1830.3 Q2118.78 1830.3 2121.72 1832.71 Q2124.66 1835.11 2124.66 1839.26 Q2124.66 1842.22 2122.97 1844.28 Q2121.31 1846.34 2118.32 1847.08 Q2121.7 1847.87 2123.58 1850.16 Q2125.47 1852.45 2125.47 1855.76 Q2125.47 1860.78 2122.39 1863.47 Q2119.34 1866.15 2113.62 1866.15 Q2107.9 1866.15 2104.83 1863.47 Q2101.77 1860.78 2101.77 1855.76 Q2101.77 1852.45 2103.67 1850.16 Q2105.57 1847.87 2108.95 1847.08 M2107.23 1839.7 Q2107.23 1842.38 2108.9 1843.89 Q2110.59 1845.39 2113.62 1845.39 Q2116.63 1845.39 2118.32 1843.89 Q2120.03 1842.38 2120.03 1839.7 Q2120.03 1837.01 2118.32 1835.51 Q2116.63 1834 2113.62 1834 Q2110.59 1834 2108.9 1835.51 Q2107.23 1837.01 2107.23 1839.7 Z" fill="#000000" fill-rule="evenodd" fill-opacity="1" /><path clip-path="url(#clip620)" d="M2539.22 1861.55 L2546.86 1861.55 L2546.86 1835.18 L2538.55 1836.85 L2538.55 1832.59 L2546.81 1830.92 L2551.49 1830.92 L2551.49 1861.55 L2559.13 1861.55 L2559.13 1865.48 L2539.22 1865.48 L2539.22 1861.55 Z" fill="#000000" fill-rule="evenodd" fill-opacity="1" /><path clip-path="url(#clip620)" d="M2568.57 1859.6 L2573.46 1859.6 L2573.46 1865.48 L2568.57 1865.48 L2568.57 1859.6 Z" fill="#000000" fill-rule="evenodd" fill-opacity="1" /><path clip-path="url(#clip620)" d="M2593.64 1834 Q2590.03 1834 2588.2 1837.57 Q2586.39 1841.11 2586.39 1848.24 Q2586.39 1855.34 2588.2 1858.91 Q2590.03 1862.45 2593.64 1862.45 Q2597.27 1862.45 2599.08 1858.91 Q2600.91 1855.34 2600.91 1848.24 Q2600.91 1841.11 2599.08 1837.57 Q2597.27 1834 2593.64 1834 M2593.64 1830.3 Q2599.45 1830.3 2602.51 1834.9 Q2605.58 1839.49 2605.58 1848.24 Q2605.58 1856.96 2602.51 1861.57 Q2599.45 1866.15 2593.64 1866.15 Q2587.83 1866.15 2584.75 1861.57 Q2581.7 1856.96 2581.7 1848.24 Q2581.7 1839.49 2584.75 1834.9 Q2587.83 1830.3 2593.64 1830.3 Z" fill="#000000" fill-rule="evenodd" fill-opacity="1" /><polyline clip-path="url(#clip622)" style="stroke:#000000; stroke-linecap:butt; stroke-linejoin:round; stroke-width:2; stroke-opacity:0.1; fill:none" points="
  189.154,1752.88 2640.76,1752.88 
  "/>
<polyline clip-path="url(#clip622)" style="stroke:#000000; stroke-linecap:butt; stroke-linejoin:round; stroke-width:2; stroke-opacity:0.1; fill:none" points="
  189.154,1338.46 2640.76,1338.46 
  "/>
<polyline clip-path="url(#clip622)" style="stroke:#000000; stroke-linecap:butt; stroke-linejoin:round; stroke-width:2; stroke-opacity:0.1; fill:none" points="
  189.154,924.039 2640.76,924.039 
  "/>
<polyline clip-path="url(#clip622)" style="stroke:#000000; stroke-linecap:butt; stroke-linejoin:round; stroke-width:2; stroke-opacity:0.1; fill:none" points="
  189.154,509.621 2640.76,509.621 
  "/>
<polyline clip-path="url(#clip622)" style="stroke:#000000; stroke-linecap:butt; stroke-linejoin:round; stroke-width:2; stroke-opacity:0.1; fill:none" points="
  189.154,95.2023 2640.76,95.2023 
  "/>
<polyline clip-path="url(#clip620)" style="stroke:#000000; stroke-linecap:butt; stroke-linejoin:round; stroke-width:4; stroke-opacity:1; fill:none" points="
  189.154,1800.78 189.154,47.2441 
  "/>
<polyline clip-path="url(#clip620)" style="stroke:#000000; stroke-linecap:butt; stroke-linejoin:round; stroke-width:4; stroke-opacity:1; fill:none" points="
  189.154,1752.88 208.052,1752.88 
  "/>
<polyline clip-path="url(#clip620)" style="stroke:#000000; stroke-linecap:butt; stroke-linejoin:round; stroke-width:4; stroke-opacity:1; fill:none" points="
  189.154,1338.46 208.052,1338.46 
  "/>
<polyline clip-path="url(#clip620)" style="stroke:#000000; stroke-linecap:butt; stroke-linejoin:round; stroke-width:4; stroke-opacity:1; fill:none" points="
  189.154,924.039 208.052,924.039 
  "/>
<polyline clip-path="url(#clip620)" style="stroke:#000000; stroke-linecap:butt; stroke-linejoin:round; stroke-width:4; stroke-opacity:1; fill:none" points="
  189.154,509.621 208.052,509.621 
  "/>
<polyline clip-path="url(#clip620)" style="stroke:#000000; stroke-linecap:butt; stroke-linejoin:round; stroke-width:4; stroke-opacity:1; fill:none" points="
  189.154,95.2023 208.052,95.2023 
  "/>
<path clip-path="url(#clip620)" d="M61.4965 1738.67 Q57.8854 1738.67 56.0567 1742.24 Q54.2512 1745.78 54.2512 1752.91 Q54.2512 1760.02 56.0567 1763.58 Q57.8854 1767.12 61.4965 1767.12 Q65.1307 1767.12 66.9363 1763.58 Q68.765 1760.02 68.765 1752.91 Q68.765 1745.78 66.9363 1742.24 Q65.1307 1738.67 61.4965 1738.67 M61.4965 1734.97 Q67.3067 1734.97 70.3622 1739.58 Q73.4409 1744.16 73.4409 1752.91 Q73.4409 1761.64 70.3622 1766.24 Q67.3067 1770.83 61.4965 1770.83 Q55.6864 1770.83 52.6077 1766.24 Q49.5521 1761.64 49.5521 1752.91 Q49.5521 1744.16 52.6077 1739.58 Q55.6864 1734.97 61.4965 1734.97 Z" fill="#000000" fill-rule="evenodd" fill-opacity="1" /><path clip-path="url(#clip620)" d="M81.6584 1764.28 L86.5427 1764.28 L86.5427 1770.16 L81.6584 1770.16 L81.6584 1764.28 Z" fill="#000000" fill-rule="evenodd" fill-opacity="1" /><path clip-path="url(#clip620)" d="M106.728 1738.67 Q103.117 1738.67 101.288 1742.24 Q99.4824 1745.78 99.4824 1752.91 Q99.4824 1760.02 101.288 1763.58 Q103.117 1767.12 106.728 1767.12 Q110.362 1767.12 112.168 1763.58 Q113.996 1760.02 113.996 1752.91 Q113.996 1745.78 112.168 1742.24 Q110.362 1738.67 106.728 1738.67 M106.728 1734.97 Q112.538 1734.97 115.593 1739.58 Q118.672 1744.16 118.672 1752.91 Q118.672 1761.64 115.593 1766.24 Q112.538 1770.83 106.728 1770.83 Q100.918 1770.83 97.8389 1766.24 Q94.7834 1761.64 94.7834 1752.91 Q94.7834 1744.16 97.8389 1739.58 Q100.918 1734.97 106.728 1734.97 Z" fill="#000000" fill-rule="evenodd" fill-opacity="1" /><path clip-path="url(#clip620)" d="M136.89 1738.67 Q133.279 1738.67 131.45 1742.24 Q129.644 1745.78 129.644 1752.91 Q129.644 1760.02 131.45 1763.58 Q133.279 1767.12 136.89 1767.12 Q140.524 1767.12 142.329 1763.58 Q144.158 1760.02 144.158 1752.91 Q144.158 1745.78 142.329 1742.24 Q140.524 1738.67 136.89 1738.67 M136.89 1734.97 Q142.7 1734.97 145.755 1739.58 Q148.834 1744.16 148.834 1752.91 Q148.834 1761.64 145.755 1766.24 Q142.7 1770.83 136.89 1770.83 Q131.079 1770.83 128.001 1766.24 Q124.945 1761.64 124.945 1752.91 Q124.945 1744.16 128.001 1739.58 Q131.079 1734.97 136.89 1734.97 Z" fill="#000000" fill-rule="evenodd" fill-opacity="1" /><path clip-path="url(#clip620)" d="M62.4919 1324.26 Q58.8808 1324.26 57.0521 1327.82 Q55.2465 1331.36 55.2465 1338.49 Q55.2465 1345.6 57.0521 1349.16 Q58.8808 1352.7 62.4919 1352.7 Q66.1261 1352.7 67.9317 1349.16 Q69.7604 1345.6 69.7604 1338.49 Q69.7604 1331.36 67.9317 1327.82 Q66.1261 1324.26 62.4919 1324.26 M62.4919 1320.55 Q68.302 1320.55 71.3576 1325.16 Q74.4363 1329.74 74.4363 1338.49 Q74.4363 1347.22 71.3576 1351.83 Q68.302 1356.41 62.4919 1356.41 Q56.6817 1356.41 53.603 1351.83 Q50.5475 1347.22 50.5475 1338.49 Q50.5475 1329.74 53.603 1325.16 Q56.6817 1320.55 62.4919 1320.55 Z" fill="#000000" fill-rule="evenodd" fill-opacity="1" /><path clip-path="url(#clip620)" d="M82.6538 1349.86 L87.538 1349.86 L87.538 1355.74 L82.6538 1355.74 L82.6538 1349.86 Z" fill="#000000" fill-rule="evenodd" fill-opacity="1" /><path clip-path="url(#clip620)" d="M101.751 1351.8 L118.07 1351.8 L118.07 1355.74 L96.126 1355.74 L96.126 1351.8 Q98.788 1349.05 103.371 1344.42 Q107.978 1339.77 109.158 1338.42 Q111.404 1335.9 112.283 1334.16 Q113.186 1332.4 113.186 1330.71 Q113.186 1327.96 111.242 1326.22 Q109.32 1324.49 106.218 1324.49 Q104.019 1324.49 101.566 1325.25 Q99.1352 1326.02 96.3574 1327.57 L96.3574 1322.84 Q99.1815 1321.71 101.635 1321.13 Q104.089 1320.55 106.126 1320.55 Q111.496 1320.55 114.691 1323.24 Q117.885 1325.92 117.885 1330.41 Q117.885 1332.54 117.075 1334.46 Q116.288 1336.36 114.181 1338.95 Q113.603 1339.63 110.501 1342.84 Q107.399 1346.04 101.751 1351.8 Z" fill="#000000" fill-rule="evenodd" fill-opacity="1" /><path clip-path="url(#clip620)" d="M127.931 1321.18 L146.288 1321.18 L146.288 1325.11 L132.214 1325.11 L132.214 1333.58 Q133.232 1333.24 134.251 1333.08 Q135.269 1332.89 136.288 1332.89 Q142.075 1332.89 145.454 1336.06 Q148.834 1339.23 148.834 1344.65 Q148.834 1350.23 145.362 1353.33 Q141.89 1356.41 135.57 1356.41 Q133.394 1356.41 131.126 1356.04 Q128.88 1355.67 126.473 1354.93 L126.473 1350.23 Q128.556 1351.36 130.779 1351.92 Q133.001 1352.47 135.478 1352.47 Q139.482 1352.47 141.82 1350.37 Q144.158 1348.26 144.158 1344.65 Q144.158 1341.04 141.82 1338.93 Q139.482 1336.83 135.478 1336.83 Q133.603 1336.83 131.728 1337.24 Q129.876 1337.66 127.931 1338.54 L127.931 1321.18 Z" fill="#000000" fill-rule="evenodd" fill-opacity="1" /><path clip-path="url(#clip620)" d="M61.4965 909.838 Q57.8854 909.838 56.0567 913.402 Q54.2512 916.944 54.2512 924.074 Q54.2512 931.18 56.0567 934.745 Q57.8854 938.286 61.4965 938.286 Q65.1307 938.286 66.9363 934.745 Q68.765 931.18 68.765 924.074 Q68.765 916.944 66.9363 913.402 Q65.1307 909.838 61.4965 909.838 M61.4965 906.134 Q67.3067 906.134 70.3622 910.74 Q73.4409 915.324 73.4409 924.074 Q73.4409 932.8 70.3622 937.407 Q67.3067 941.99 61.4965 941.99 Q55.6864 941.99 52.6077 937.407 Q49.5521 932.8 49.5521 924.074 Q49.5521 915.324 52.6077 910.74 Q55.6864 906.134 61.4965 906.134 Z" fill="#000000" fill-rule="evenodd" fill-opacity="1" /><path clip-path="url(#clip620)" d="M81.6584 935.439 L86.5427 935.439 L86.5427 941.319 L81.6584 941.319 L81.6584 935.439 Z" fill="#000000" fill-rule="evenodd" fill-opacity="1" /><path clip-path="url(#clip620)" d="M96.7741 906.759 L115.13 906.759 L115.13 910.694 L101.056 910.694 L101.056 919.166 Q102.075 918.819 103.094 918.657 Q104.112 918.472 105.131 918.472 Q110.918 918.472 114.297 921.643 Q117.677 924.814 117.677 930.231 Q117.677 935.81 114.205 938.911 Q110.732 941.99 104.413 941.99 Q102.237 941.99 99.9685 941.62 Q97.7232 941.249 95.3158 940.509 L95.3158 935.81 Q97.3991 936.944 99.6213 937.499 Q101.844 938.055 104.32 938.055 Q108.325 938.055 110.663 935.949 Q113.001 933.842 113.001 930.231 Q113.001 926.62 110.663 924.513 Q108.325 922.407 104.32 922.407 Q102.445 922.407 100.57 922.824 Q98.7185 923.24 96.7741 924.12 L96.7741 906.759 Z" fill="#000000" fill-rule="evenodd" fill-opacity="1" /><path clip-path="url(#clip620)" d="M136.89 909.838 Q133.279 909.838 131.45 913.402 Q129.644 916.944 129.644 924.074 Q129.644 931.18 131.45 934.745 Q133.279 938.286 136.89 938.286 Q140.524 938.286 142.329 934.745 Q144.158 931.18 144.158 924.074 Q144.158 916.944 142.329 913.402 Q140.524 909.838 136.89 909.838 M136.89 906.134 Q142.7 906.134 145.755 910.74 Q148.834 915.324 148.834 924.074 Q148.834 932.8 145.755 937.407 Q142.7 941.99 136.89 941.99 Q131.079 941.99 128.001 937.407 Q124.945 932.8 124.945 924.074 Q124.945 915.324 128.001 910.74 Q131.079 906.134 136.89 906.134 Z" fill="#000000" fill-rule="evenodd" fill-opacity="1" /><path clip-path="url(#clip620)" d="M62.4919 495.419 Q58.8808 495.419 57.0521 498.984 Q55.2465 502.526 55.2465 509.655 Q55.2465 516.762 57.0521 520.327 Q58.8808 523.868 62.4919 523.868 Q66.1261 523.868 67.9317 520.327 Q69.7604 516.762 69.7604 509.655 Q69.7604 502.526 67.9317 498.984 Q66.1261 495.419 62.4919 495.419 M62.4919 491.716 Q68.302 491.716 71.3576 496.322 Q74.4363 500.905 74.4363 509.655 Q74.4363 518.382 71.3576 522.989 Q68.302 527.572 62.4919 527.572 Q56.6817 527.572 53.603 522.989 Q50.5475 518.382 50.5475 509.655 Q50.5475 500.905 53.603 496.322 Q56.6817 491.716 62.4919 491.716 Z" fill="#000000" fill-rule="evenodd" fill-opacity="1" /><path clip-path="url(#clip620)" d="M82.6538 521.021 L87.538 521.021 L87.538 526.901 L82.6538 526.901 L82.6538 521.021 Z" fill="#000000" fill-rule="evenodd" fill-opacity="1" /><path clip-path="url(#clip620)" d="M96.5426 492.341 L118.765 492.341 L118.765 494.331 L106.218 526.901 L101.334 526.901 L113.14 496.276 L96.5426 496.276 L96.5426 492.341 Z" fill="#000000" fill-rule="evenodd" fill-opacity="1" /><path clip-path="url(#clip620)" d="M127.931 492.341 L146.288 492.341 L146.288 496.276 L132.214 496.276 L132.214 504.748 Q133.232 504.401 134.251 504.239 Q135.269 504.053 136.288 504.053 Q142.075 504.053 145.454 507.225 Q148.834 510.396 148.834 515.813 Q148.834 521.391 145.362 524.493 Q141.89 527.572 135.57 527.572 Q133.394 527.572 131.126 527.201 Q128.88 526.831 126.473 526.09 L126.473 521.391 Q128.556 522.526 130.779 523.081 Q133.001 523.637 135.478 523.637 Q139.482 523.637 141.82 521.53 Q144.158 519.424 144.158 515.813 Q144.158 512.202 141.82 510.095 Q139.482 507.989 135.478 507.989 Q133.603 507.989 131.728 508.405 Q129.876 508.822 127.931 509.702 L127.931 492.341 Z" fill="#000000" fill-rule="evenodd" fill-opacity="1" /><path clip-path="url(#clip620)" d="M52.3067 108.547 L59.9456 108.547 L59.9456 82.1815 L51.6354 83.8481 L51.6354 79.5889 L59.8993 77.9223 L64.5752 77.9223 L64.5752 108.547 L72.214 108.547 L72.214 112.482 L52.3067 112.482 L52.3067 108.547 Z" fill="#000000" fill-rule="evenodd" fill-opacity="1" /><path clip-path="url(#clip620)" d="M81.6584 106.603 L86.5427 106.603 L86.5427 112.482 L81.6584 112.482 L81.6584 106.603 Z" fill="#000000" fill-rule="evenodd" fill-opacity="1" /><path clip-path="url(#clip620)" d="M106.728 81.0009 Q103.117 81.0009 101.288 84.5657 Q99.4824 88.1074 99.4824 95.237 Q99.4824 102.343 101.288 105.908 Q103.117 109.45 106.728 109.45 Q110.362 109.45 112.168 105.908 Q113.996 102.343 113.996 95.237 Q113.996 88.1074 112.168 84.5657 Q110.362 81.0009 106.728 81.0009 M106.728 77.2973 Q112.538 77.2973 115.593 81.9037 Q118.672 86.487 118.672 95.237 Q118.672 103.964 115.593 108.57 Q112.538 113.154 106.728 113.154 Q100.918 113.154 97.8389 108.57 Q94.7834 103.964 94.7834 95.237 Q94.7834 86.487 97.8389 81.9037 Q100.918 77.2973 106.728 77.2973 Z" fill="#000000" fill-rule="evenodd" fill-opacity="1" /><path clip-path="url(#clip620)" d="M136.89 81.0009 Q133.279 81.0009 131.45 84.5657 Q129.644 88.1074 129.644 95.237 Q129.644 102.343 131.45 105.908 Q133.279 109.45 136.89 109.45 Q140.524 109.45 142.329 105.908 Q144.158 102.343 144.158 95.237 Q144.158 88.1074 142.329 84.5657 Q140.524 81.0009 136.89 81.0009 M136.89 77.2973 Q142.7 77.2973 145.755 81.9037 Q148.834 86.487 148.834 95.237 Q148.834 103.964 145.755 108.57 Q142.7 113.154 136.89 113.154 Q131.079 113.154 128.001 108.57 Q124.945 103.964 124.945 95.237 Q124.945 86.487 128.001 81.9037 Q131.079 77.2973 136.89 77.2973 Z" fill="#000000" fill-rule="evenodd" fill-opacity="1" /><polyline clip-path="url(#clip622)" style="stroke:#009af9; stroke-linecap:butt; stroke-linejoin:round; stroke-width:4; stroke-opacity:1; fill:none" points="
  1610.8,259.043 1760.54,557.553 1393.79,697.537 573.569,1510.84 2552.04,1645.7 1750.57,625.692 1697.07,186.522 1467.61,1289.06 2023.15,1678.8 1000.3,1659.25 
  1950.33,1196.97 2337.74,969.965 2160.94,420.836 494.583,1533.19 2099.37,1262.04 1028.84,1048.58 626.686,895.6 883.202,96.8724 1817.95,651.04 779.563,1362.56 
  370.191,1546.11 1278.29,548.3 2301.09,1223.69 424.743,1540.19 1080.87,803.061 498.44,934.567 2362.05,1685.4 1953.26,1258.83 1368.4,1663.11 1345.32,1105.59 
  1389.36,1647.51 2454.75,1419.04 2523.47,511.759 288.411,1174.2 1299.22,1153.46 1041.18,1163.99 1614.33,398.05 1093.3,296.438 1582.26,1703.49 611.097,1201.2 
  327.012,862.207 1076.06,529.024 641.226,649.836 403.792,380.653 1404.73,240.965 258.796,386.906 871.756,526.326 1188.27,396.346 288.033,437.848 2453.78,1167.62 
  1403.58,1085.03 1334.6,305.022 495.761,368.811 498.218,1213.42 1571.17,1751.15 1007.45,1076.01 2203.78,474.316 2098.14,1265.62 1880.53,128.785 2453.2,1427.24 
  1081.04,1153.25 381.954,1647.54 967.977,555.088 703.141,453.571 1385.24,1209.8 1384.74,1196.51 657.211,266.409 839.273,286.303 2571.37,272.687 2049.39,945.03 
  1882.53,847.593 1483.31,546.662 1962.67,1507.09 2430.23,727.63 258.539,582.683 2219.9,1053.88 989.503,894.556 1065.92,902.847 2033.16,1370.07 1499.89,645.561 
  1127.61,1131.98 2100.1,424.03 1120.76,487.051 848.576,1489.57 1962.28,472.237 639.46,617.906 2137.7,908.145 1138.12,1663.11 1478.35,853.995 1802.85,1699.02 
  1396.56,1087.6 1702.75,761.922 627.866,1133.35 283.067,1629.04 302.792,1022.41 698.534,160.969 638.71,1335.52 647.286,1722.1 341.845,339.776 1955.66,1071.38 
  
  "/>
<path clip-path="url(#clip620)" d="
M2261.45 209.375 L2559.04 209.375 L2559.04 105.695 L2261.45 105.695  Z
  " fill="#ffffff" fill-rule="evenodd" fill-opacity="1"/>
<polyline clip-path="url(#clip620)" style="stroke:#000000; stroke-linecap:butt; stroke-linejoin:round; stroke-width:4; stroke-opacity:1; fill:none" points="
  2261.45,209.375 2559.04,209.375 2559.04,105.695 2261.45,105.695 2261.45,209.375 
  "/>
<polyline clip-path="url(#clip620)" style="stroke:#009af9; stroke-linecap:butt; stroke-linejoin:round; stroke-width:4; stroke-opacity:1; fill:none" points="
  2288.69,157.535 2452.13,157.535 
  "/>
<path clip-path="url(#clip620)" d="M2493.21 177.223 Q2491.4 181.852 2489.69 183.264 Q2487.98 184.676 2485.11 184.676 L2481.7 184.676 L2481.7 181.112 L2484.2 181.112 Q2485.96 181.112 2486.93 180.278 Q2487.91 179.445 2489.09 176.343 L2489.85 174.399 L2479.37 148.889 L2483.88 148.889 L2491.98 169.167 L2500.08 148.889 L2504.6 148.889 L2493.21 177.223 Z" fill="#000000" fill-rule="evenodd" fill-opacity="1" /><path clip-path="url(#clip620)" d="M2511.89 170.88 L2519.53 170.88 L2519.53 144.515 L2511.22 146.181 L2511.22 141.922 L2519.48 140.255 L2524.16 140.255 L2524.16 170.88 L2531.8 170.88 L2531.8 174.815 L2511.89 174.815 L2511.89 170.88 Z" fill="#000000" fill-rule="evenodd" fill-opacity="1" /></svg>
