<?xml version="1.0" encoding="utf-8"?>
<svg xmlns="http://www.w3.org/2000/svg" xmlns:xlink="http://www.w3.org/1999/xlink" width="672" height="480" viewBox="0 0 2688 1920">
<defs>
  <clipPath id="clip320">
    <rect x="0" y="0" width="2688" height="1920"/>
  </clipPath>
</defs>
<path clip-path="url(#clip320)" d="
M0 1920 L2688 1920 L2688 0 L0 0  Z
  " fill="#ffffff" fill-rule="evenodd" fill-opacity="1"/>
<defs>
  <clipPath id="clip321">
    <rect x="537" y="0" width="1883" height="1883"/>
  </clipPath>
</defs>
<path clip-path="url(#clip320)" d="
M189.154 1800.78 L2640.76 1800.78 L2640.76 47.2441 L189.154 47.2441  Z
  " fill="#ffffff" fill-rule="evenodd" fill-opacity="1"/>
<defs>
  <clipPath id="clip322">
    <rect x="189" y="47" width="2453" height="1755"/>
  </clipPath>
</defs>
<polyline clip-path="url(#clip322)" style="stroke:#000000; stroke-linecap:butt; stroke-linejoin:round; stroke-width:2; stroke-opacity:0.1; fill:none" points="
  233.922,1800.78 233.922,47.2441 
  "/>
<polyline clip-path="url(#clip322)" style="stroke:#000000; stroke-linecap:butt; stroke-linejoin:round; stroke-width:2; stroke-opacity:0.1; fill:none" points="
  825.44,1800.78 825.44,47.2441 
  "/>
<polyline clip-path="url(#clip322)" style="stroke:#000000; stroke-linecap:butt; stroke-linejoin:round; stroke-width:2; stroke-opacity:0.1; fill:none" points="
  1416.96,1800.78 1416.96,47.2441 
  "/>
<polyline clip-path="url(#clip322)" style="stroke:#000000; stroke-linecap:butt; stroke-linejoin:round; stroke-width:2; stroke-opacity:0.1; fill:none" points="
  2008.48,1800.78 2008.48,47.2441 
  "/>
<polyline clip-path="url(#clip322)" style="stroke:#000000; stroke-linecap:butt; stroke-linejoin:round; stroke-width:2; stroke-opacity:0.1; fill:none" points="
  2600,1800.78 2600,47.2441 
  "/>
<polyline clip-path="url(#clip320)" style="stroke:#000000; stroke-linecap:butt; stroke-linejoin:round; stroke-width:4; stroke-opacity:1; fill:none" points="
  189.154,1800.78 2640.76,1800.78 
  "/>
<polyline clip-path="url(#clip320)" style="stroke:#000000; stroke-linecap:butt; stroke-linejoin:round; stroke-width:4; stroke-opacity:1; fill:none" points="
  233.922,1800.78 233.922,1781.88 
  "/>
<polyline clip-path="url(#clip320)" style="stroke:#000000; stroke-linecap:butt; stroke-linejoin:round; stroke-width:4; stroke-opacity:1; fill:none" points="
  825.44,1800.78 825.44,1781.88 
  "/>
<polyline clip-path="url(#clip320)" style="stroke:#000000; stroke-linecap:butt; stroke-linejoin:round; stroke-width:4; stroke-opacity:1; fill:none" points="
  1416.96,1800.78 1416.96,1781.88 
  "/>
<polyline clip-path="url(#clip320)" style="stroke:#000000; stroke-linecap:butt; stroke-linejoin:round; stroke-width:4; stroke-opacity:1; fill:none" points="
  2008.48,1800.78 2008.48,1781.88 
  "/>
<polyline clip-path="url(#clip320)" style="stroke:#000000; stroke-linecap:butt; stroke-linejoin:round; stroke-width:4; stroke-opacity:1; fill:none" points="
  2600,1800.78 2600,1781.88 
  "/>
<path clip-path="url(#clip320)" d="M196.225 1834 Q192.614 1834 190.786 1837.57 Q188.98 1841.11 188.98 1848.24 Q188.98 1855.34 190.786 1858.91 Q192.614 1862.45 196.225 1862.45 Q199.86 1862.45 201.665 1858.91 Q203.494 1855.34 203.494 1848.24 Q203.494 1841.11 201.665 1837.57 Q199.86 1834 196.225 1834 M196.225 1830.3 Q202.036 1830.3 205.091 1834.9 Q208.17 1839.49 208.17 1848.24 Q208.17 1856.96 205.091 1861.57 Q202.036 1866.15 196.225 1866.15 Q190.415 1866.15 187.337 1861.57 Q184.281 1856.96 184.281 1848.24 Q184.281 1839.49 187.337 1834.9 Q190.415 1830.3 196.225 1830.3 Z" fill="#000000" fill-rule="evenodd" fill-opacity="1" /><path clip-path="url(#clip320)" d="M216.387 1859.6 L221.272 1859.6 L221.272 1865.48 L216.387 1865.48 L216.387 1859.6 Z" fill="#000000" fill-rule="evenodd" fill-opacity="1" /><path clip-path="url(#clip320)" d="M241.457 1834 Q237.846 1834 236.017 1837.57 Q234.211 1841.11 234.211 1848.24 Q234.211 1855.34 236.017 1858.91 Q237.846 1862.45 241.457 1862.45 Q245.091 1862.45 246.896 1858.91 Q248.725 1855.34 248.725 1848.24 Q248.725 1841.11 246.896 1837.57 Q245.091 1834 241.457 1834 M241.457 1830.3 Q247.267 1830.3 250.322 1834.9 Q253.401 1839.49 253.401 1848.24 Q253.401 1856.96 250.322 1861.57 Q247.267 1866.15 241.457 1866.15 Q235.647 1866.15 232.568 1861.57 Q229.512 1856.96 229.512 1848.24 Q229.512 1839.49 232.568 1834.9 Q235.647 1830.3 241.457 1830.3 Z" fill="#000000" fill-rule="evenodd" fill-opacity="1" /><path clip-path="url(#clip320)" d="M271.619 1834 Q268.007 1834 266.179 1837.57 Q264.373 1841.11 264.373 1848.24 Q264.373 1855.34 266.179 1858.91 Q268.007 1862.45 271.619 1862.45 Q275.253 1862.45 277.058 1858.91 Q278.887 1855.34 278.887 1848.24 Q278.887 1841.11 277.058 1837.57 Q275.253 1834 271.619 1834 M271.619 1830.3 Q277.429 1830.3 280.484 1834.9 Q283.563 1839.49 283.563 1848.24 Q283.563 1856.96 280.484 1861.57 Q277.429 1866.15 271.619 1866.15 Q265.808 1866.15 262.73 1861.57 Q259.674 1856.96 259.674 1848.24 Q259.674 1839.49 262.73 1834.9 Q265.808 1830.3 271.619 1830.3 Z" fill="#000000" fill-rule="evenodd" fill-opacity="1" /><path clip-path="url(#clip320)" d="M788.242 1834 Q784.63 1834 782.802 1837.57 Q780.996 1841.11 780.996 1848.24 Q780.996 1855.34 782.802 1858.91 Q784.63 1862.45 788.242 1862.45 Q791.876 1862.45 793.681 1858.91 Q795.51 1855.34 795.51 1848.24 Q795.51 1841.11 793.681 1837.57 Q791.876 1834 788.242 1834 M788.242 1830.3 Q794.052 1830.3 797.107 1834.9 Q800.186 1839.49 800.186 1848.24 Q800.186 1856.96 797.107 1861.57 Q794.052 1866.15 788.242 1866.15 Q782.431 1866.15 779.353 1861.57 Q776.297 1856.96 776.297 1848.24 Q776.297 1839.49 779.353 1834.9 Q782.431 1830.3 788.242 1830.3 Z" fill="#000000" fill-rule="evenodd" fill-opacity="1" /><path clip-path="url(#clip320)" d="M808.403 1859.6 L813.288 1859.6 L813.288 1865.48 L808.403 1865.48 L808.403 1859.6 Z" fill="#000000" fill-rule="evenodd" fill-opacity="1" /><path clip-path="url(#clip320)" d="M827.501 1861.55 L843.82 1861.55 L843.82 1865.48 L821.876 1865.48 L821.876 1861.55 Q824.538 1858.79 829.121 1854.16 Q833.727 1849.51 834.908 1848.17 Q837.153 1845.65 838.033 1843.91 Q838.936 1842.15 838.936 1840.46 Q838.936 1837.71 836.991 1835.97 Q835.07 1834.23 831.968 1834.23 Q829.769 1834.23 827.315 1835 Q824.885 1835.76 822.107 1837.31 L822.107 1832.59 Q824.931 1831.46 827.385 1830.88 Q829.839 1830.3 831.876 1830.3 Q837.246 1830.3 840.44 1832.98 Q843.635 1835.67 843.635 1840.16 Q843.635 1842.29 842.825 1844.21 Q842.038 1846.11 839.931 1848.7 Q839.352 1849.37 836.251 1852.59 Q833.149 1855.78 827.501 1861.55 Z" fill="#000000" fill-rule="evenodd" fill-opacity="1" /><path clip-path="url(#clip320)" d="M853.681 1830.92 L872.037 1830.92 L872.037 1834.86 L857.963 1834.86 L857.963 1843.33 Q858.982 1842.98 860 1842.82 Q861.019 1842.64 862.037 1842.64 Q867.824 1842.64 871.204 1845.81 Q874.584 1848.98 874.584 1854.4 Q874.584 1859.97 871.111 1863.08 Q867.639 1866.15 861.32 1866.15 Q859.144 1866.15 856.875 1865.78 Q854.63 1865.41 852.223 1864.67 L852.223 1859.97 Q854.306 1861.11 856.528 1861.66 Q858.75 1862.22 861.227 1862.22 Q865.232 1862.22 867.57 1860.11 Q869.908 1858.01 869.908 1854.4 Q869.908 1850.78 867.57 1848.68 Q865.232 1846.57 861.227 1846.57 Q859.352 1846.57 857.477 1846.99 Q855.625 1847.4 853.681 1848.28 L853.681 1830.92 Z" fill="#000000" fill-rule="evenodd" fill-opacity="1" /><path clip-path="url(#clip320)" d="M1379.26 1834 Q1375.65 1834 1373.82 1837.57 Q1372.02 1841.11 1372.02 1848.24 Q1372.02 1855.34 1373.82 1858.91 Q1375.65 1862.45 1379.26 1862.45 Q1382.9 1862.45 1384.7 1858.91 Q1386.53 1855.34 1386.53 1848.24 Q1386.53 1841.11 1384.7 1837.57 Q1382.9 1834 1379.26 1834 M1379.26 1830.3 Q1385.07 1830.3 1388.13 1834.9 Q1391.21 1839.49 1391.21 1848.24 Q1391.21 1856.96 1388.13 1861.57 Q1385.07 1866.15 1379.26 1866.15 Q1373.45 1866.15 1370.37 1861.57 Q1367.32 1856.96 1367.32 1848.24 Q1367.32 1839.49 1370.37 1834.9 Q1373.45 1830.3 1379.26 1830.3 Z" fill="#000000" fill-rule="evenodd" fill-opacity="1" /><path clip-path="url(#clip320)" d="M1399.42 1859.6 L1404.31 1859.6 L1404.31 1865.48 L1399.42 1865.48 L1399.42 1859.6 Z" fill="#000000" fill-rule="evenodd" fill-opacity="1" /><path clip-path="url(#clip320)" d="M1414.54 1830.92 L1432.9 1830.92 L1432.9 1834.86 L1418.82 1834.86 L1418.82 1843.33 Q1419.84 1842.98 1420.86 1842.82 Q1421.88 1842.64 1422.9 1842.64 Q1428.68 1842.64 1432.06 1845.81 Q1435.44 1848.98 1435.44 1854.4 Q1435.44 1859.97 1431.97 1863.08 Q1428.5 1866.15 1422.18 1866.15 Q1420 1866.15 1417.73 1865.78 Q1415.49 1865.41 1413.08 1864.67 L1413.08 1859.97 Q1415.16 1861.11 1417.39 1861.66 Q1419.61 1862.22 1422.09 1862.22 Q1426.09 1862.22 1428.43 1860.11 Q1430.77 1858.01 1430.77 1854.4 Q1430.77 1850.78 1428.43 1848.68 Q1426.09 1846.57 1422.09 1846.57 Q1420.21 1846.57 1418.34 1846.99 Q1416.48 1847.4 1414.54 1848.28 L1414.54 1830.92 Z" fill="#000000" fill-rule="evenodd" fill-opacity="1" /><path clip-path="url(#clip320)" d="M1454.66 1834 Q1451.04 1834 1449.22 1837.57 Q1447.41 1841.11 1447.41 1848.24 Q1447.41 1855.34 1449.22 1858.91 Q1451.04 1862.45 1454.66 1862.45 Q1458.29 1862.45 1460.1 1858.91 Q1461.92 1855.34 1461.92 1848.24 Q1461.92 1841.11 1460.1 1837.57 Q1458.29 1834 1454.66 1834 M1454.66 1830.3 Q1460.47 1830.3 1463.52 1834.9 Q1466.6 1839.49 1466.6 1848.24 Q1466.6 1856.96 1463.52 1861.57 Q1460.47 1866.15 1454.66 1866.15 Q1448.85 1866.15 1445.77 1861.57 Q1442.71 1856.96 1442.71 1848.24 Q1442.71 1839.49 1445.77 1834.9 Q1448.85 1830.3 1454.66 1830.3 Z" fill="#000000" fill-rule="evenodd" fill-opacity="1" /><path clip-path="url(#clip320)" d="M1971.28 1834 Q1967.67 1834 1965.84 1837.57 Q1964.03 1841.11 1964.03 1848.24 Q1964.03 1855.34 1965.84 1858.91 Q1967.67 1862.45 1971.28 1862.45 Q1974.91 1862.45 1976.72 1858.91 Q1978.55 1855.34 1978.55 1848.24 Q1978.55 1841.11 1976.72 1837.57 Q1974.91 1834 1971.28 1834 M1971.28 1830.3 Q1977.09 1830.3 1980.14 1834.9 Q1983.22 1839.49 1983.22 1848.24 Q1983.22 1856.96 1980.14 1861.57 Q1977.09 1866.15 1971.28 1866.15 Q1965.47 1866.15 1962.39 1861.57 Q1959.33 1856.96 1959.33 1848.24 Q1959.33 1839.49 1962.39 1834.9 Q1965.47 1830.3 1971.28 1830.3 Z" fill="#000000" fill-rule="evenodd" fill-opacity="1" /><path clip-path="url(#clip320)" d="M1991.44 1859.6 L1996.32 1859.6 L1996.32 1865.48 L1991.44 1865.48 L1991.44 1859.6 Z" fill="#000000" fill-rule="evenodd" fill-opacity="1" /><path clip-path="url(#clip320)" d="M2005.33 1830.92 L2027.55 1830.92 L2027.55 1832.91 L2015.01 1865.48 L2010.12 1865.48 L2021.93 1834.86 L2005.33 1834.86 L2005.33 1830.92 Z" fill="#000000" fill-rule="evenodd" fill-opacity="1" /><path clip-path="url(#clip320)" d="M2036.72 1830.92 L2055.07 1830.92 L2055.07 1834.86 L2041 1834.86 L2041 1843.33 Q2042.02 1842.98 2043.04 1842.82 Q2044.06 1842.64 2045.07 1842.64 Q2050.86 1842.64 2054.24 1845.81 Q2057.62 1848.98 2057.62 1854.4 Q2057.62 1859.97 2054.15 1863.08 Q2050.68 1866.15 2044.36 1866.15 Q2042.18 1866.15 2039.91 1865.78 Q2037.67 1865.41 2035.26 1864.67 L2035.26 1859.97 Q2037.34 1861.11 2039.57 1861.66 Q2041.79 1862.22 2044.26 1862.22 Q2048.27 1862.22 2050.61 1860.11 Q2052.94 1858.01 2052.94 1854.4 Q2052.94 1850.78 2050.61 1848.68 Q2048.27 1846.57 2044.26 1846.57 Q2042.39 1846.57 2040.51 1846.99 Q2038.66 1847.4 2036.72 1848.28 L2036.72 1830.92 Z" fill="#000000" fill-rule="evenodd" fill-opacity="1" /><path clip-path="url(#clip320)" d="M2552.07 1861.55 L2559.71 1861.55 L2559.71 1835.18 L2551.4 1836.85 L2551.4 1832.59 L2559.66 1830.92 L2564.34 1830.92 L2564.34 1861.55 L2571.98 1861.55 L2571.98 1865.48 L2552.07 1865.48 L2552.07 1861.55 Z" fill="#000000" fill-rule="evenodd" fill-opacity="1" /><path clip-path="url(#clip320)" d="M2581.42 1859.6 L2586.3 1859.6 L2586.3 1865.48 L2581.42 1865.48 L2581.42 1859.6 Z" fill="#000000" fill-rule="evenodd" fill-opacity="1" /><path clip-path="url(#clip320)" d="M2606.49 1834 Q2602.88 1834 2601.05 1837.57 Q2599.24 1841.11 2599.24 1848.24 Q2599.24 1855.34 2601.05 1858.91 Q2602.88 1862.45 2606.49 1862.45 Q2610.12 1862.45 2611.93 1858.91 Q2613.76 1855.34 2613.76 1848.24 Q2613.76 1841.11 2611.93 1837.57 Q2610.12 1834 2606.49 1834 M2606.49 1830.3 Q2612.3 1830.3 2615.35 1834.9 Q2618.43 1839.49 2618.43 1848.24 Q2618.43 1856.96 2615.35 1861.57 Q2612.3 1866.15 2606.49 1866.15 Q2600.68 1866.15 2597.6 1861.57 Q2594.54 1856.96 2594.54 1848.24 Q2594.54 1839.49 2597.6 1834.9 Q2600.68 1830.3 2606.49 1830.3 Z" fill="#000000" fill-rule="evenodd" fill-opacity="1" /><path clip-path="url(#clip320)" d="M2636.65 1834 Q2633.04 1834 2631.21 1837.57 Q2629.41 1841.11 2629.41 1848.24 Q2629.41 1855.34 2631.21 1858.91 Q2633.04 1862.45 2636.65 1862.45 Q2640.28 1862.45 2642.09 1858.91 Q2643.92 1855.34 2643.92 1848.24 Q2643.92 1841.11 2642.09 1837.57 Q2640.28 1834 2636.65 1834 M2636.65 1830.3 Q2642.46 1830.3 2645.52 1834.9 Q2648.59 1839.49 2648.59 1848.24 Q2648.59 1856.96 2645.52 1861.57 Q2642.46 1866.15 2636.65 1866.15 Q2630.84 1866.15 2627.76 1861.57 Q2624.71 1856.96 2624.71 1848.24 Q2624.71 1839.49 2627.76 1834.9 Q2630.84 1830.3 2636.65 1830.3 Z" fill="#000000" fill-rule="evenodd" fill-opacity="1" /><polyline clip-path="url(#clip322)" style="stroke:#000000; stroke-linecap:butt; stroke-linejoin:round; stroke-width:2; stroke-opacity:0.1; fill:none" points="
  189.154,1752.3 2640.76,1752.3 
  "/>
<polyline clip-path="url(#clip322)" style="stroke:#000000; stroke-linecap:butt; stroke-linejoin:round; stroke-width:2; stroke-opacity:0.1; fill:none" points="
  189.154,1331.48 2640.76,1331.48 
  "/>
<polyline clip-path="url(#clip322)" style="stroke:#000000; stroke-linecap:butt; stroke-linejoin:round; stroke-width:2; stroke-opacity:0.1; fill:none" points="
  189.154,910.646 2640.76,910.646 
  "/>
<polyline clip-path="url(#clip322)" style="stroke:#000000; stroke-linecap:butt; stroke-linejoin:round; stroke-width:2; stroke-opacity:0.1; fill:none" points="
  189.154,489.817 2640.76,489.817 
  "/>
<polyline clip-path="url(#clip322)" style="stroke:#000000; stroke-linecap:butt; stroke-linejoin:round; stroke-width:2; stroke-opacity:0.1; fill:none" points="
  189.154,68.988 2640.76,68.988 
  "/>
<polyline clip-path="url(#clip320)" style="stroke:#000000; stroke-linecap:butt; stroke-linejoin:round; stroke-width:4; stroke-opacity:1; fill:none" points="
  189.154,1800.78 189.154,47.2441 
  "/>
<polyline clip-path="url(#clip320)" style="stroke:#000000; stroke-linecap:butt; stroke-linejoin:round; stroke-width:4; stroke-opacity:1; fill:none" points="
  189.154,1752.3 208.052,1752.3 
  "/>
<polyline clip-path="url(#clip320)" style="stroke:#000000; stroke-linecap:butt; stroke-linejoin:round; stroke-width:4; stroke-opacity:1; fill:none" points="
  189.154,1331.48 208.052,1331.48 
  "/>
<polyline clip-path="url(#clip320)" style="stroke:#000000; stroke-linecap:butt; stroke-linejoin:round; stroke-width:4; stroke-opacity:1; fill:none" points="
  189.154,910.646 208.052,910.646 
  "/>
<polyline clip-path="url(#clip320)" style="stroke:#000000; stroke-linecap:butt; stroke-linejoin:round; stroke-width:4; stroke-opacity:1; fill:none" points="
  189.154,489.817 208.052,489.817 
  "/>
<polyline clip-path="url(#clip320)" style="stroke:#000000; stroke-linecap:butt; stroke-linejoin:round; stroke-width:4; stroke-opacity:1; fill:none" points="
  189.154,68.988 208.052,68.988 
  "/>
<path clip-path="url(#clip320)" d="M61.4965 1738.1 Q57.8854 1738.1 56.0567 1741.67 Q54.2512 1745.21 54.2512 1752.34 Q54.2512 1759.45 56.0567 1763.01 Q57.8854 1766.55 61.4965 1766.55 Q65.1307 1766.55 66.9363 1763.01 Q68.765 1759.45 68.765 1752.34 Q68.765 1745.21 66.9363 1741.67 Q65.1307 1738.1 61.4965 1738.1 M61.4965 1734.4 Q67.3067 1734.4 70.3622 1739.01 Q73.4409 1743.59 73.4409 1752.34 Q73.4409 1761.07 70.3622 1765.67 Q67.3067 1770.26 61.4965 1770.26 Q55.6864 1770.26 52.6077 1765.67 Q49.5521 1761.07 49.5521 1752.34 Q49.5521 1743.59 52.6077 1739.01 Q55.6864 1734.4 61.4965 1734.4 Z" fill="#000000" fill-rule="evenodd" fill-opacity="1" /><path clip-path="url(#clip320)" d="M81.6584 1763.71 L86.5427 1763.71 L86.5427 1769.58 L81.6584 1769.58 L81.6584 1763.71 Z" fill="#000000" fill-rule="evenodd" fill-opacity="1" /><path clip-path="url(#clip320)" d="M106.728 1738.1 Q103.117 1738.1 101.288 1741.67 Q99.4824 1745.21 99.4824 1752.34 Q99.4824 1759.45 101.288 1763.01 Q103.117 1766.55 106.728 1766.55 Q110.362 1766.55 112.168 1763.01 Q113.996 1759.45 113.996 1752.34 Q113.996 1745.21 112.168 1741.67 Q110.362 1738.1 106.728 1738.1 M106.728 1734.4 Q112.538 1734.4 115.593 1739.01 Q118.672 1743.59 118.672 1752.34 Q118.672 1761.07 115.593 1765.67 Q112.538 1770.26 106.728 1770.26 Q100.918 1770.26 97.8389 1765.67 Q94.7834 1761.07 94.7834 1752.34 Q94.7834 1743.59 97.8389 1739.01 Q100.918 1734.4 106.728 1734.4 Z" fill="#000000" fill-rule="evenodd" fill-opacity="1" /><path clip-path="url(#clip320)" d="M136.89 1738.1 Q133.279 1738.1 131.45 1741.67 Q129.644 1745.21 129.644 1752.34 Q129.644 1759.45 131.45 1763.01 Q133.279 1766.55 136.89 1766.55 Q140.524 1766.55 142.329 1763.01 Q144.158 1759.45 144.158 1752.34 Q144.158 1745.21 142.329 1741.67 Q140.524 1738.1 136.89 1738.1 M136.89 1734.4 Q142.7 1734.4 145.755 1739.01 Q148.834 1743.59 148.834 1752.34 Q148.834 1761.07 145.755 1765.67 Q142.7 1770.26 136.89 1770.26 Q131.079 1770.26 128.001 1765.67 Q124.945 1761.07 124.945 1752.34 Q124.945 1743.59 128.001 1739.01 Q131.079 1734.4 136.89 1734.4 Z" fill="#000000" fill-rule="evenodd" fill-opacity="1" /><path clip-path="url(#clip320)" d="M62.4919 1317.27 Q58.8808 1317.27 57.0521 1320.84 Q55.2465 1324.38 55.2465 1331.51 Q55.2465 1338.62 57.0521 1342.18 Q58.8808 1345.72 62.4919 1345.72 Q66.1261 1345.72 67.9317 1342.18 Q69.7604 1338.62 69.7604 1331.51 Q69.7604 1324.38 67.9317 1320.84 Q66.1261 1317.27 62.4919 1317.27 M62.4919 1313.57 Q68.302 1313.57 71.3576 1318.18 Q74.4363 1322.76 74.4363 1331.51 Q74.4363 1340.24 71.3576 1344.84 Q68.302 1349.43 62.4919 1349.43 Q56.6817 1349.43 53.603 1344.84 Q50.5475 1340.24 50.5475 1331.51 Q50.5475 1322.76 53.603 1318.18 Q56.6817 1313.57 62.4919 1313.57 Z" fill="#000000" fill-rule="evenodd" fill-opacity="1" /><path clip-path="url(#clip320)" d="M82.6538 1342.88 L87.538 1342.88 L87.538 1348.76 L82.6538 1348.76 L82.6538 1342.88 Z" fill="#000000" fill-rule="evenodd" fill-opacity="1" /><path clip-path="url(#clip320)" d="M101.751 1344.82 L118.07 1344.82 L118.07 1348.76 L96.126 1348.76 L96.126 1344.82 Q98.788 1342.07 103.371 1337.44 Q107.978 1332.78 109.158 1331.44 Q111.404 1328.92 112.283 1327.18 Q113.186 1325.42 113.186 1323.73 Q113.186 1320.98 111.242 1319.24 Q109.32 1317.51 106.218 1317.51 Q104.019 1317.51 101.566 1318.27 Q99.1352 1319.03 96.3574 1320.58 L96.3574 1315.86 Q99.1815 1314.73 101.635 1314.15 Q104.089 1313.57 106.126 1313.57 Q111.496 1313.57 114.691 1316.26 Q117.885 1318.94 117.885 1323.43 Q117.885 1325.56 117.075 1327.48 Q116.288 1329.38 114.181 1331.97 Q113.603 1332.64 110.501 1335.86 Q107.399 1339.06 101.751 1344.82 Z" fill="#000000" fill-rule="evenodd" fill-opacity="1" /><path clip-path="url(#clip320)" d="M127.931 1314.2 L146.288 1314.2 L146.288 1318.13 L132.214 1318.13 L132.214 1326.6 Q133.232 1326.26 134.251 1326.09 Q135.269 1325.91 136.288 1325.91 Q142.075 1325.91 145.454 1329.08 Q148.834 1332.25 148.834 1337.67 Q148.834 1343.25 145.362 1346.35 Q141.89 1349.43 135.57 1349.43 Q133.394 1349.43 131.126 1349.06 Q128.88 1348.69 126.473 1347.95 L126.473 1343.25 Q128.556 1344.38 130.779 1344.94 Q133.001 1345.49 135.478 1345.49 Q139.482 1345.49 141.82 1343.39 Q144.158 1341.28 144.158 1337.67 Q144.158 1334.06 141.82 1331.95 Q139.482 1329.84 135.478 1329.84 Q133.603 1329.84 131.728 1330.26 Q129.876 1330.68 127.931 1331.56 L127.931 1314.2 Z" fill="#000000" fill-rule="evenodd" fill-opacity="1" /><path clip-path="url(#clip320)" d="M61.4965 896.445 Q57.8854 896.445 56.0567 900.01 Q54.2512 903.552 54.2512 910.681 Q54.2512 917.788 56.0567 921.352 Q57.8854 924.894 61.4965 924.894 Q65.1307 924.894 66.9363 921.352 Q68.765 917.788 68.765 910.681 Q68.765 903.552 66.9363 900.01 Q65.1307 896.445 61.4965 896.445 M61.4965 892.741 Q67.3067 892.741 70.3622 897.348 Q73.4409 901.931 73.4409 910.681 Q73.4409 919.408 70.3622 924.014 Q67.3067 928.598 61.4965 928.598 Q55.6864 928.598 52.6077 924.014 Q49.5521 919.408 49.5521 910.681 Q49.5521 901.931 52.6077 897.348 Q55.6864 892.741 61.4965 892.741 Z" fill="#000000" fill-rule="evenodd" fill-opacity="1" /><path clip-path="url(#clip320)" d="M81.6584 922.047 L86.5427 922.047 L86.5427 927.926 L81.6584 927.926 L81.6584 922.047 Z" fill="#000000" fill-rule="evenodd" fill-opacity="1" /><path clip-path="url(#clip320)" d="M96.7741 893.366 L115.13 893.366 L115.13 897.302 L101.056 897.302 L101.056 905.774 Q102.075 905.427 103.094 905.265 Q104.112 905.079 105.131 905.079 Q110.918 905.079 114.297 908.251 Q117.677 911.422 117.677 916.839 Q117.677 922.417 114.205 925.519 Q110.732 928.598 104.413 928.598 Q102.237 928.598 99.9685 928.227 Q97.7232 927.857 95.3158 927.116 L95.3158 922.417 Q97.3991 923.552 99.6213 924.107 Q101.844 924.663 104.32 924.663 Q108.325 924.663 110.663 922.556 Q113.001 920.45 113.001 916.839 Q113.001 913.227 110.663 911.121 Q108.325 909.015 104.32 909.015 Q102.445 909.015 100.57 909.431 Q98.7185 909.848 96.7741 910.728 L96.7741 893.366 Z" fill="#000000" fill-rule="evenodd" fill-opacity="1" /><path clip-path="url(#clip320)" d="M136.89 896.445 Q133.279 896.445 131.45 900.01 Q129.644 903.552 129.644 910.681 Q129.644 917.788 131.45 921.352 Q133.279 924.894 136.89 924.894 Q140.524 924.894 142.329 921.352 Q144.158 917.788 144.158 910.681 Q144.158 903.552 142.329 900.01 Q140.524 896.445 136.89 896.445 M136.89 892.741 Q142.7 892.741 145.755 897.348 Q148.834 901.931 148.834 910.681 Q148.834 919.408 145.755 924.014 Q142.7 928.598 136.89 928.598 Q131.079 928.598 128.001 924.014 Q124.945 919.408 124.945 910.681 Q124.945 901.931 128.001 897.348 Q131.079 892.741 136.89 892.741 Z" fill="#000000" fill-rule="evenodd" fill-opacity="1" /><path clip-path="url(#clip320)" d="M62.4919 475.616 Q58.8808 475.616 57.0521 479.181 Q55.2465 482.722 55.2465 489.852 Q55.2465 496.958 57.0521 500.523 Q58.8808 504.065 62.4919 504.065 Q66.1261 504.065 67.9317 500.523 Q69.7604 496.958 69.7604 489.852 Q69.7604 482.722 67.9317 479.181 Q66.1261 475.616 62.4919 475.616 M62.4919 471.912 Q68.302 471.912 71.3576 476.519 Q74.4363 481.102 74.4363 489.852 Q74.4363 498.579 71.3576 503.185 Q68.302 507.769 62.4919 507.769 Q56.6817 507.769 53.603 503.185 Q50.5475 498.579 50.5475 489.852 Q50.5475 481.102 53.603 476.519 Q56.6817 471.912 62.4919 471.912 Z" fill="#000000" fill-rule="evenodd" fill-opacity="1" /><path clip-path="url(#clip320)" d="M82.6538 501.218 L87.538 501.218 L87.538 507.097 L82.6538 507.097 L82.6538 501.218 Z" fill="#000000" fill-rule="evenodd" fill-opacity="1" /><path clip-path="url(#clip320)" d="M96.5426 472.537 L118.765 472.537 L118.765 474.528 L106.218 507.097 L101.334 507.097 L113.14 476.472 L96.5426 476.472 L96.5426 472.537 Z" fill="#000000" fill-rule="evenodd" fill-opacity="1" /><path clip-path="url(#clip320)" d="M127.931 472.537 L146.288 472.537 L146.288 476.472 L132.214 476.472 L132.214 484.945 Q133.232 484.597 134.251 484.435 Q135.269 484.25 136.288 484.25 Q142.075 484.25 145.454 487.421 Q148.834 490.593 148.834 496.009 Q148.834 501.588 145.362 504.69 Q141.89 507.769 135.57 507.769 Q133.394 507.769 131.126 507.398 Q128.88 507.028 126.473 506.287 L126.473 501.588 Q128.556 502.722 130.779 503.278 Q133.001 503.833 135.478 503.833 Q139.482 503.833 141.82 501.727 Q144.158 499.62 144.158 496.009 Q144.158 492.398 141.82 490.292 Q139.482 488.185 135.478 488.185 Q133.603 488.185 131.728 488.602 Q129.876 489.019 127.931 489.898 L127.931 472.537 Z" fill="#000000" fill-rule="evenodd" fill-opacity="1" /><path clip-path="url(#clip320)" d="M52.3067 82.3328 L59.9456 82.3328 L59.9456 55.9672 L51.6354 57.6339 L51.6354 53.3747 L59.8993 51.708 L64.5752 51.708 L64.5752 82.3328 L72.214 82.3328 L72.214 86.268 L52.3067 86.268 L52.3067 82.3328 Z" fill="#000000" fill-rule="evenodd" fill-opacity="1" /><path clip-path="url(#clip320)" d="M81.6584 80.3884 L86.5427 80.3884 L86.5427 86.268 L81.6584 86.268 L81.6584 80.3884 Z" fill="#000000" fill-rule="evenodd" fill-opacity="1" /><path clip-path="url(#clip320)" d="M106.728 54.7867 Q103.117 54.7867 101.288 58.3515 Q99.4824 61.8931 99.4824 69.0227 Q99.4824 76.1292 101.288 79.694 Q103.117 83.2356 106.728 83.2356 Q110.362 83.2356 112.168 79.694 Q113.996 76.1292 113.996 69.0227 Q113.996 61.8931 112.168 58.3515 Q110.362 54.7867 106.728 54.7867 M106.728 51.083 Q112.538 51.083 115.593 55.6895 Q118.672 60.2728 118.672 69.0227 Q118.672 77.7495 115.593 82.356 Q112.538 86.9393 106.728 86.9393 Q100.918 86.9393 97.8389 82.356 Q94.7834 77.7495 94.7834 69.0227 Q94.7834 60.2728 97.8389 55.6895 Q100.918 51.083 106.728 51.083 Z" fill="#000000" fill-rule="evenodd" fill-opacity="1" /><path clip-path="url(#clip320)" d="M136.89 54.7867 Q133.279 54.7867 131.45 58.3515 Q129.644 61.8931 129.644 69.0227 Q129.644 76.1292 131.45 79.694 Q133.279 83.2356 136.89 83.2356 Q140.524 83.2356 142.329 79.694 Q144.158 76.1292 144.158 69.0227 Q144.158 61.8931 142.329 58.3515 Q140.524 54.7867 136.89 54.7867 M136.89 51.083 Q142.7 51.083 145.755 55.6895 Q148.834 60.2728 148.834 69.0227 Q148.834 77.7495 145.755 82.356 Q142.7 86.9393 136.89 86.9393 Q131.079 86.9393 128.001 82.356 Q124.945 77.7495 124.945 69.0227 Q124.945 60.2728 128.001 55.6895 Q131.079 51.083 136.89 51.083 Z" fill="#000000" fill-rule="evenodd" fill-opacity="1" /><polyline clip-path="url(#clip322)" style="stroke:#009af9; stroke-linecap:butt; stroke-linejoin:round; stroke-width:4; stroke-opacity:1; fill:none" points="
  1972.95,1285.72 801.827,323.495 1080.06,871.018 313.937,1282.94 688.543,1528.62 281.093,165.826 615.699,1751.15 1744.51,465.695 1480.14,1049.41 1070.38,515.152 
  308.217,1164.53 1772.85,1648.99 1759.89,1210.42 285.775,676.392 679.918,307.717 1503,426.959 2220.15,1259.96 1317.13,190.355 1648,1694.94 1823.22,1363.52 
  1959.59,1256.75 2188.48,1407.31 918.808,1211.11 696.776,1558.32 2350.21,195.659 884.977,1402.49 1581.02,897.756 801.888,1082.39 1355.01,1419.77 2528.82,687.78 
  1994.59,407.124 409.849,1438.04 648.423,599.805 1516.16,1397.6 2134.35,157.698 2131.87,664.661 259.327,865.699 1100.24,591.187 2449.22,678.895 730.647,589.22 
  2213.82,483.044 2073.72,710.475 1704.46,402.184 348.154,591.511 590.277,339.187 1085.98,181.143 2344.6,908.933 1559.19,162.464 812.375,423.481 765.27,587.395 
  2496.37,1170.16 258.539,1420.44 1596.97,427.282 2123.74,867.879 1779.85,999.641 1756,794.551 2379.59,1584.35 1761.96,1348.47 2470.96,221.928 260.103,983.197 
  2571.37,421.001 1006.82,1156.08 1273.78,430.028 752.2,571.675 2049.88,788.27 1097.61,1280.46 832.318,874.125 2276.41,444.344 1719.3,1568.07 1144.17,393.573 
  1402.62,1255.78 1799.51,655.166 871.119,1269.54 1323.86,1611.57 2037.73,1072.23 903.95,235.712 1750.27,797.349 1450.97,96.8724 264.458,1086.8 1697.8,111.215 
  2096.48,1389.01 367.629,1591.08 391.119,1182.89 1107.84,926.91 1164.44,956.124 386.371,713.637 1552.44,142.375 1075.48,892.535 1286.09,507.303 1766.68,576.79 
  1478.66,746.594 822.391,1370.18 2283.86,197.323 707.499,1678.2 888.787,290.304 1297.89,1296.02 1404.17,1489.21 1325.77,1661.72 1432.79,444.824 916.762,1633.5 
  
  "/>
<path clip-path="url(#clip320)" d="
M2261.45 1742.33 L2559.04 1742.33 L2559.04 1638.65 L2261.45 1638.65  Z
  " fill="#ffffff" fill-rule="evenodd" fill-opacity="1"/>
<polyline clip-path="url(#clip320)" style="stroke:#000000; stroke-linecap:butt; stroke-linejoin:round; stroke-width:4; stroke-opacity:1; fill:none" points="
  2261.45,1742.33 2559.04,1742.33 2559.04,1638.65 2261.45,1638.65 2261.45,1742.33 
  "/>
<polyline clip-path="url(#clip320)" style="stroke:#009af9; stroke-linecap:butt; stroke-linejoin:round; stroke-width:4; stroke-opacity:1; fill:none" points="
  2288.69,1690.49 2452.13,1690.49 
  "/>
<path clip-path="url(#clip320)" d="M2493.21 1710.18 Q2491.4 1714.81 2489.69 1716.22 Q2487.98 1717.63 2485.11 1717.63 L2481.7 1717.63 L2481.7 1714.06 L2484.2 1714.06 Q2485.96 1714.06 2486.93 1713.23 Q2487.91 1712.4 2489.09 1709.3 L2489.85 1707.35 L2479.37 1681.84 L2483.88 1681.84 L2491.98 1702.12 L2500.08 1681.84 L2504.6 1681.84 L2493.21 1710.18 Z" fill="#000000" fill-rule="evenodd" fill-opacity="1" /><path clip-path="url(#clip320)" d="M2511.89 1703.83 L2519.53 1703.83 L2519.53 1677.47 L2511.22 1679.13 L2511.22 1674.87 L2519.48 1673.21 L2524.16 1673.21 L2524.16 1703.83 L2531.8 1703.83 L2531.8 1707.77 L2511.89 1707.77 L2511.89 1703.83 Z" fill="#000000" fill-rule="evenodd" fill-opacity="1" /></svg>
