<?xml version="1.0" encoding="utf-8"?>
<svg xmlns="http://www.w3.org/2000/svg" xmlns:xlink="http://www.w3.org/1999/xlink" width="672" height="480" viewBox="0 0 2688 1920">
<defs>
  <clipPath id="clip160">
    <rect x="0" y="0" width="2688" height="1920"/>
  </clipPath>
</defs>
<path clip-path="url(#clip160)" d="
M0 1920 L2688 1920 L2688 0 L0 0  Z
  " fill="#ffffff" fill-rule="evenodd" fill-opacity="1"/>
<defs>
  <clipPath id="clip161">
    <rect x="537" y="0" width="1883" height="1883"/>
  </clipPath>
</defs>
<path clip-path="url(#clip160)" d="
M189.154 1800.78 L2640.76 1800.78 L2640.76 47.2441 L189.154 47.2441  Z
  " fill="#ffffff" fill-rule="evenodd" fill-opacity="1"/>
<defs>
  <clipPath id="clip162">
    <rect x="189" y="47" width="2453" height="1755"/>
  </clipPath>
</defs>
<polyline clip-path="url(#clip162)" style="stroke:#000000; stroke-linecap:butt; stroke-linejoin:round; stroke-width:2; stroke-opacity:0.1; fill:none" points="
  229.83,1800.78 229.83,47.2441 
  "/>
<polyline clip-path="url(#clip162)" style="stroke:#000000; stroke-linecap:butt; stroke-linejoin:round; stroke-width:2; stroke-opacity:0.1; fill:none" points="
  817.066,1800.78 817.066,47.2441 
  "/>
<polyline clip-path="url(#clip162)" style="stroke:#000000; stroke-linecap:butt; stroke-linejoin:round; stroke-width:2; stroke-opacity:0.1; fill:none" points="
  1404.3,1800.78 1404.3,47.2441 
  "/>
<polyline clip-path="url(#clip162)" style="stroke:#000000; stroke-linecap:butt; stroke-linejoin:round; stroke-width:2; stroke-opacity:0.1; fill:none" points="
  1991.54,1800.78 1991.54,47.2441 
  "/>
<polyline clip-path="url(#clip162)" style="stroke:#000000; stroke-linecap:butt; stroke-linejoin:round; stroke-width:2; stroke-opacity:0.1; fill:none" points="
  2578.78,1800.78 2578.78,47.2441 
  "/>
<polyline clip-path="url(#clip160)" style="stroke:#000000; stroke-linecap:butt; stroke-linejoin:round; stroke-width:4; stroke-opacity:1; fill:none" points="
  189.154,1800.78 2640.76,1800.78 
  "/>
<polyline clip-path="url(#clip160)" style="stroke:#000000; stroke-linecap:butt; stroke-linejoin:round; stroke-width:4; stroke-opacity:1; fill:none" points="
  229.83,1800.78 229.83,1781.88 
  "/>
<polyline clip-path="url(#clip160)" style="stroke:#000000; stroke-linecap:butt; stroke-linejoin:round; stroke-width:4; stroke-opacity:1; fill:none" points="
  817.066,1800.78 817.066,1781.88 
  "/>
<polyline clip-path="url(#clip160)" style="stroke:#000000; stroke-linecap:butt; stroke-linejoin:round; stroke-width:4; stroke-opacity:1; fill:none" points="
  1404.3,1800.78 1404.3,1781.88 
  "/>
<polyline clip-path="url(#clip160)" style="stroke:#000000; stroke-linecap:butt; stroke-linejoin:round; stroke-width:4; stroke-opacity:1; fill:none" points="
  1991.54,1800.78 1991.54,1781.88 
  "/>
<polyline clip-path="url(#clip160)" style="stroke:#000000; stroke-linecap:butt; stroke-linejoin:round; stroke-width:4; stroke-opacity:1; fill:none" points="
  2578.78,1800.78 2578.78,1781.88 
  "/>
<path clip-path="url(#clip160)" d="M192.133 1834 Q188.522 1834 186.694 1837.57 Q184.888 1841.11 184.888 1848.24 Q184.888 1855.34 186.694 1858.91 Q188.522 1862.45 192.133 1862.45 Q195.768 1862.45 197.573 1858.91 Q199.402 1855.34 199.402 1848.24 Q199.402 1841.11 197.573 1837.57 Q195.768 1834 192.133 1834 M192.133 1830.3 Q197.943 1830.3 200.999 1834.9 Q204.078 1839.49 204.078 1848.24 Q204.078 1856.96 200.999 1861.57 Q197.943 1866.15 192.133 1866.15 Q186.323 1866.15 183.244 1861.57 Q180.189 1856.96 180.189 1848.24 Q180.189 1839.49 183.244 1834.9 Q186.323 1830.3 192.133 1830.3 Z" fill="#000000" fill-rule="evenodd" fill-opacity="1" /><path clip-path="url(#clip160)" d="M212.295 1859.6 L217.179 1859.6 L217.179 1865.48 L212.295 1865.48 L212.295 1859.6 Z" fill="#000000" fill-rule="evenodd" fill-opacity="1" /><path clip-path="url(#clip160)" d="M237.365 1834 Q233.753 1834 231.925 1837.57 Q230.119 1841.11 230.119 1848.24 Q230.119 1855.34 231.925 1858.91 Q233.753 1862.45 237.365 1862.45 Q240.999 1862.45 242.804 1858.91 Q244.633 1855.34 244.633 1848.24 Q244.633 1841.11 242.804 1837.57 Q240.999 1834 237.365 1834 M237.365 1830.3 Q243.175 1830.3 246.23 1834.9 Q249.309 1839.49 249.309 1848.24 Q249.309 1856.96 246.23 1861.57 Q243.175 1866.15 237.365 1866.15 Q231.554 1866.15 228.476 1861.57 Q225.42 1856.96 225.42 1848.24 Q225.42 1839.49 228.476 1834.9 Q231.554 1830.3 237.365 1830.3 Z" fill="#000000" fill-rule="evenodd" fill-opacity="1" /><path clip-path="url(#clip160)" d="M267.526 1834 Q263.915 1834 262.087 1837.57 Q260.281 1841.11 260.281 1848.24 Q260.281 1855.34 262.087 1858.91 Q263.915 1862.45 267.526 1862.45 Q271.161 1862.45 272.966 1858.91 Q274.795 1855.34 274.795 1848.24 Q274.795 1841.11 272.966 1837.57 Q271.161 1834 267.526 1834 M267.526 1830.3 Q273.337 1830.3 276.392 1834.9 Q279.471 1839.49 279.471 1848.24 Q279.471 1856.96 276.392 1861.57 Q273.337 1866.15 267.526 1866.15 Q261.716 1866.15 258.638 1861.57 Q255.582 1856.96 255.582 1848.24 Q255.582 1839.49 258.638 1834.9 Q261.716 1830.3 267.526 1830.3 Z" fill="#000000" fill-rule="evenodd" fill-opacity="1" /><path clip-path="url(#clip160)" d="M779.867 1834 Q776.256 1834 774.428 1837.57 Q772.622 1841.11 772.622 1848.24 Q772.622 1855.34 774.428 1858.91 Q776.256 1862.45 779.867 1862.45 Q783.502 1862.45 785.307 1858.91 Q787.136 1855.34 787.136 1848.24 Q787.136 1841.11 785.307 1837.57 Q783.502 1834 779.867 1834 M779.867 1830.3 Q785.677 1830.3 788.733 1834.9 Q791.812 1839.49 791.812 1848.24 Q791.812 1856.96 788.733 1861.57 Q785.677 1866.15 779.867 1866.15 Q774.057 1866.15 770.978 1861.57 Q767.923 1856.96 767.923 1848.24 Q767.923 1839.49 770.978 1834.9 Q774.057 1830.3 779.867 1830.3 Z" fill="#000000" fill-rule="evenodd" fill-opacity="1" /><path clip-path="url(#clip160)" d="M800.029 1859.6 L804.913 1859.6 L804.913 1865.48 L800.029 1865.48 L800.029 1859.6 Z" fill="#000000" fill-rule="evenodd" fill-opacity="1" /><path clip-path="url(#clip160)" d="M819.126 1861.55 L835.446 1861.55 L835.446 1865.48 L813.501 1865.48 L813.501 1861.55 Q816.163 1858.79 820.747 1854.16 Q825.353 1849.51 826.534 1848.17 Q828.779 1845.65 829.659 1843.91 Q830.561 1842.15 830.561 1840.46 Q830.561 1837.71 828.617 1835.97 Q826.696 1834.23 823.594 1834.23 Q821.395 1834.23 818.941 1835 Q816.511 1835.76 813.733 1837.31 L813.733 1832.59 Q816.557 1831.46 819.011 1830.88 Q821.464 1830.3 823.501 1830.3 Q828.872 1830.3 832.066 1832.98 Q835.261 1835.67 835.261 1840.16 Q835.261 1842.29 834.45 1844.21 Q833.663 1846.11 831.557 1848.7 Q830.978 1849.37 827.876 1852.59 Q824.774 1855.78 819.126 1861.55 Z" fill="#000000" fill-rule="evenodd" fill-opacity="1" /><path clip-path="url(#clip160)" d="M845.307 1830.92 L863.663 1830.92 L863.663 1834.86 L849.589 1834.86 L849.589 1843.33 Q850.608 1842.98 851.626 1842.82 Q852.645 1842.64 853.663 1842.64 Q859.45 1842.64 862.83 1845.81 Q866.209 1848.98 866.209 1854.4 Q866.209 1859.97 862.737 1863.08 Q859.265 1866.15 852.946 1866.15 Q850.77 1866.15 848.501 1865.78 Q846.256 1865.41 843.848 1864.67 L843.848 1859.97 Q845.932 1861.11 848.154 1861.66 Q850.376 1862.22 852.853 1862.22 Q856.858 1862.22 859.196 1860.11 Q861.534 1858.01 861.534 1854.4 Q861.534 1850.78 859.196 1848.68 Q856.858 1846.57 852.853 1846.57 Q850.978 1846.57 849.103 1846.99 Q847.251 1847.4 845.307 1848.28 L845.307 1830.92 Z" fill="#000000" fill-rule="evenodd" fill-opacity="1" /><path clip-path="url(#clip160)" d="M1366.61 1834 Q1362.99 1834 1361.17 1837.57 Q1359.36 1841.11 1359.36 1848.24 Q1359.36 1855.34 1361.17 1858.91 Q1362.99 1862.45 1366.61 1862.45 Q1370.24 1862.45 1372.05 1858.91 Q1373.87 1855.34 1373.87 1848.24 Q1373.87 1841.11 1372.05 1837.57 Q1370.24 1834 1366.61 1834 M1366.61 1830.3 Q1372.42 1830.3 1375.47 1834.9 Q1378.55 1839.49 1378.55 1848.24 Q1378.55 1856.96 1375.47 1861.57 Q1372.42 1866.15 1366.61 1866.15 Q1360.8 1866.15 1357.72 1861.57 Q1354.66 1856.96 1354.66 1848.24 Q1354.66 1839.49 1357.72 1834.9 Q1360.8 1830.3 1366.61 1830.3 Z" fill="#000000" fill-rule="evenodd" fill-opacity="1" /><path clip-path="url(#clip160)" d="M1386.77 1859.6 L1391.65 1859.6 L1391.65 1865.48 L1386.77 1865.48 L1386.77 1859.6 Z" fill="#000000" fill-rule="evenodd" fill-opacity="1" /><path clip-path="url(#clip160)" d="M1401.88 1830.92 L1420.24 1830.92 L1420.24 1834.86 L1406.17 1834.86 L1406.17 1843.33 Q1407.18 1842.98 1408.2 1842.82 Q1409.22 1842.64 1410.24 1842.64 Q1416.03 1842.64 1419.41 1845.81 Q1422.79 1848.98 1422.79 1854.4 Q1422.79 1859.97 1419.31 1863.08 Q1415.84 1866.15 1409.52 1866.15 Q1407.35 1866.15 1405.08 1865.78 Q1402.83 1865.41 1400.43 1864.67 L1400.43 1859.97 Q1402.51 1861.11 1404.73 1861.66 Q1406.95 1862.22 1409.43 1862.22 Q1413.43 1862.22 1415.77 1860.11 Q1418.11 1858.01 1418.11 1854.4 Q1418.11 1850.78 1415.77 1848.68 Q1413.43 1846.57 1409.43 1846.57 Q1407.55 1846.57 1405.68 1846.99 Q1403.83 1847.4 1401.88 1848.28 L1401.88 1830.92 Z" fill="#000000" fill-rule="evenodd" fill-opacity="1" /><path clip-path="url(#clip160)" d="M1442 1834 Q1438.39 1834 1436.56 1837.57 Q1434.75 1841.11 1434.75 1848.24 Q1434.75 1855.34 1436.56 1858.91 Q1438.39 1862.45 1442 1862.45 Q1445.63 1862.45 1447.44 1858.91 Q1449.27 1855.34 1449.27 1848.24 Q1449.27 1841.11 1447.44 1837.57 Q1445.63 1834 1442 1834 M1442 1830.3 Q1447.81 1830.3 1450.86 1834.9 Q1453.94 1839.49 1453.94 1848.24 Q1453.94 1856.96 1450.86 1861.57 Q1447.81 1866.15 1442 1866.15 Q1436.19 1866.15 1433.11 1861.57 Q1430.05 1856.96 1430.05 1848.24 Q1430.05 1839.49 1433.11 1834.9 Q1436.19 1830.3 1442 1830.3 Z" fill="#000000" fill-rule="evenodd" fill-opacity="1" /><path clip-path="url(#clip160)" d="M1954.34 1834 Q1950.73 1834 1948.9 1837.57 Q1947.09 1841.11 1947.09 1848.24 Q1947.09 1855.34 1948.9 1858.91 Q1950.73 1862.45 1954.34 1862.45 Q1957.97 1862.45 1959.78 1858.91 Q1961.61 1855.34 1961.61 1848.24 Q1961.61 1841.11 1959.78 1837.57 Q1957.97 1834 1954.34 1834 M1954.34 1830.3 Q1960.15 1830.3 1963.21 1834.9 Q1966.28 1839.49 1966.28 1848.24 Q1966.28 1856.96 1963.21 1861.57 Q1960.15 1866.15 1954.34 1866.15 Q1948.53 1866.15 1945.45 1861.57 Q1942.4 1856.96 1942.4 1848.24 Q1942.4 1839.49 1945.45 1834.9 Q1948.53 1830.3 1954.34 1830.3 Z" fill="#000000" fill-rule="evenodd" fill-opacity="1" /><path clip-path="url(#clip160)" d="M1974.5 1859.6 L1979.39 1859.6 L1979.39 1865.48 L1974.5 1865.48 L1974.5 1859.6 Z" fill="#000000" fill-rule="evenodd" fill-opacity="1" /><path clip-path="url(#clip160)" d="M1988.39 1830.92 L2010.61 1830.92 L2010.61 1832.91 L1998.07 1865.48 L1993.18 1865.48 L2004.99 1834.86 L1988.39 1834.86 L1988.39 1830.92 Z" fill="#000000" fill-rule="evenodd" fill-opacity="1" /><path clip-path="url(#clip160)" d="M2019.78 1830.92 L2038.14 1830.92 L2038.14 1834.86 L2024.06 1834.86 L2024.06 1843.33 Q2025.08 1842.98 2026.1 1842.82 Q2027.12 1842.64 2028.14 1842.64 Q2033.92 1842.64 2037.3 1845.81 Q2040.68 1848.98 2040.68 1854.4 Q2040.68 1859.97 2037.21 1863.08 Q2033.74 1866.15 2027.42 1866.15 Q2025.24 1866.15 2022.97 1865.78 Q2020.73 1865.41 2018.32 1864.67 L2018.32 1859.97 Q2020.4 1861.11 2022.63 1861.66 Q2024.85 1862.22 2027.33 1862.22 Q2031.33 1862.22 2033.67 1860.11 Q2036.01 1858.01 2036.01 1854.4 Q2036.01 1850.78 2033.67 1848.68 Q2031.33 1846.57 2027.33 1846.57 Q2025.45 1846.57 2023.58 1846.99 Q2021.72 1847.4 2019.78 1848.28 L2019.78 1830.92 Z" fill="#000000" fill-rule="evenodd" fill-opacity="1" /><path clip-path="url(#clip160)" d="M2530.85 1861.55 L2538.49 1861.55 L2538.49 1835.18 L2530.18 1836.85 L2530.18 1832.59 L2538.44 1830.92 L2543.12 1830.92 L2543.12 1861.55 L2550.75 1861.55 L2550.75 1865.48 L2530.85 1865.48 L2530.85 1861.55 Z" fill="#000000" fill-rule="evenodd" fill-opacity="1" /><path clip-path="url(#clip160)" d="M2560.2 1859.6 L2565.08 1859.6 L2565.08 1865.48 L2560.2 1865.48 L2560.2 1859.6 Z" fill="#000000" fill-rule="evenodd" fill-opacity="1" /><path clip-path="url(#clip160)" d="M2585.27 1834 Q2581.66 1834 2579.83 1837.57 Q2578.02 1841.11 2578.02 1848.24 Q2578.02 1855.34 2579.83 1858.91 Q2581.66 1862.45 2585.27 1862.45 Q2588.9 1862.45 2590.71 1858.91 Q2592.54 1855.34 2592.54 1848.24 Q2592.54 1841.11 2590.71 1837.57 Q2588.9 1834 2585.27 1834 M2585.27 1830.3 Q2591.08 1830.3 2594.13 1834.9 Q2597.21 1839.49 2597.21 1848.24 Q2597.21 1856.96 2594.13 1861.57 Q2591.08 1866.15 2585.27 1866.15 Q2579.46 1866.15 2576.38 1861.57 Q2573.32 1856.96 2573.32 1848.24 Q2573.32 1839.49 2576.38 1834.9 Q2579.46 1830.3 2585.27 1830.3 Z" fill="#000000" fill-rule="evenodd" fill-opacity="1" /><path clip-path="url(#clip160)" d="M2615.43 1834 Q2611.82 1834 2609.99 1837.57 Q2608.18 1841.11 2608.18 1848.24 Q2608.18 1855.34 2609.99 1858.91 Q2611.82 1862.45 2615.43 1862.45 Q2619.06 1862.45 2620.87 1858.91 Q2622.7 1855.34 2622.7 1848.24 Q2622.7 1841.11 2620.87 1837.57 Q2619.06 1834 2615.43 1834 M2615.43 1830.3 Q2621.24 1830.3 2624.3 1834.9 Q2627.37 1839.49 2627.37 1848.24 Q2627.37 1856.96 2624.3 1861.57 Q2621.24 1866.15 2615.43 1866.15 Q2609.62 1866.15 2606.54 1861.57 Q2603.49 1856.96 2603.49 1848.24 Q2603.49 1839.49 2606.54 1834.9 Q2609.62 1830.3 2615.43 1830.3 Z" fill="#000000" fill-rule="evenodd" fill-opacity="1" /><polyline clip-path="url(#clip162)" style="stroke:#000000; stroke-linecap:butt; stroke-linejoin:round; stroke-width:2; stroke-opacity:0.1; fill:none" points="
  189.154,1751.54 2640.76,1751.54 
  "/>
<polyline clip-path="url(#clip162)" style="stroke:#000000; stroke-linecap:butt; stroke-linejoin:round; stroke-width:2; stroke-opacity:0.1; fill:none" points="
  189.154,1329.37 2640.76,1329.37 
  "/>
<polyline clip-path="url(#clip162)" style="stroke:#000000; stroke-linecap:butt; stroke-linejoin:round; stroke-width:2; stroke-opacity:0.1; fill:none" points="
  189.154,907.194 2640.76,907.194 
  "/>
<polyline clip-path="url(#clip162)" style="stroke:#000000; stroke-linecap:butt; stroke-linejoin:round; stroke-width:2; stroke-opacity:0.1; fill:none" points="
  189.154,485.02 2640.76,485.02 
  "/>
<polyline clip-path="url(#clip162)" style="stroke:#000000; stroke-linecap:butt; stroke-linejoin:round; stroke-width:2; stroke-opacity:0.1; fill:none" points="
  189.154,62.8465 2640.76,62.8465 
  "/>
<polyline clip-path="url(#clip160)" style="stroke:#000000; stroke-linecap:butt; stroke-linejoin:round; stroke-width:4; stroke-opacity:1; fill:none" points="
  189.154,1800.78 189.154,47.2441 
  "/>
<polyline clip-path="url(#clip160)" style="stroke:#000000; stroke-linecap:butt; stroke-linejoin:round; stroke-width:4; stroke-opacity:1; fill:none" points="
  189.154,1751.54 208.052,1751.54 
  "/>
<polyline clip-path="url(#clip160)" style="stroke:#000000; stroke-linecap:butt; stroke-linejoin:round; stroke-width:4; stroke-opacity:1; fill:none" points="
  189.154,1329.37 208.052,1329.37 
  "/>
<polyline clip-path="url(#clip160)" style="stroke:#000000; stroke-linecap:butt; stroke-linejoin:round; stroke-width:4; stroke-opacity:1; fill:none" points="
  189.154,907.194 208.052,907.194 
  "/>
<polyline clip-path="url(#clip160)" style="stroke:#000000; stroke-linecap:butt; stroke-linejoin:round; stroke-width:4; stroke-opacity:1; fill:none" points="
  189.154,485.02 208.052,485.02 
  "/>
<polyline clip-path="url(#clip160)" style="stroke:#000000; stroke-linecap:butt; stroke-linejoin:round; stroke-width:4; stroke-opacity:1; fill:none" points="
  189.154,62.8465 208.052,62.8465 
  "/>
<path clip-path="url(#clip160)" d="M61.4965 1737.34 Q57.8854 1737.34 56.0567 1740.9 Q54.2512 1744.45 54.2512 1751.58 Q54.2512 1758.68 56.0567 1762.25 Q57.8854 1765.79 61.4965 1765.79 Q65.1307 1765.79 66.9363 1762.25 Q68.765 1758.68 68.765 1751.58 Q68.765 1744.45 66.9363 1740.9 Q65.1307 1737.34 61.4965 1737.34 M61.4965 1733.64 Q67.3067 1733.64 70.3622 1738.24 Q73.4409 1742.83 73.4409 1751.58 Q73.4409 1760.3 70.3622 1764.91 Q67.3067 1769.49 61.4965 1769.49 Q55.6864 1769.49 52.6077 1764.91 Q49.5521 1760.3 49.5521 1751.58 Q49.5521 1742.83 52.6077 1738.24 Q55.6864 1733.64 61.4965 1733.64 Z" fill="#000000" fill-rule="evenodd" fill-opacity="1" /><path clip-path="url(#clip160)" d="M81.6584 1762.94 L86.5427 1762.94 L86.5427 1768.82 L81.6584 1768.82 L81.6584 1762.94 Z" fill="#000000" fill-rule="evenodd" fill-opacity="1" /><path clip-path="url(#clip160)" d="M106.728 1737.34 Q103.117 1737.34 101.288 1740.9 Q99.4824 1744.45 99.4824 1751.58 Q99.4824 1758.68 101.288 1762.25 Q103.117 1765.79 106.728 1765.79 Q110.362 1765.79 112.168 1762.25 Q113.996 1758.68 113.996 1751.58 Q113.996 1744.45 112.168 1740.9 Q110.362 1737.34 106.728 1737.34 M106.728 1733.64 Q112.538 1733.64 115.593 1738.24 Q118.672 1742.83 118.672 1751.58 Q118.672 1760.3 115.593 1764.91 Q112.538 1769.49 106.728 1769.49 Q100.918 1769.49 97.8389 1764.91 Q94.7834 1760.3 94.7834 1751.58 Q94.7834 1742.83 97.8389 1738.24 Q100.918 1733.64 106.728 1733.64 Z" fill="#000000" fill-rule="evenodd" fill-opacity="1" /><path clip-path="url(#clip160)" d="M136.89 1737.34 Q133.279 1737.34 131.45 1740.9 Q129.644 1744.45 129.644 1751.58 Q129.644 1758.68 131.45 1762.25 Q133.279 1765.79 136.89 1765.79 Q140.524 1765.79 142.329 1762.25 Q144.158 1758.68 144.158 1751.58 Q144.158 1744.45 142.329 1740.9 Q140.524 1737.34 136.89 1737.34 M136.89 1733.64 Q142.7 1733.64 145.755 1738.24 Q148.834 1742.83 148.834 1751.58 Q148.834 1760.3 145.755 1764.91 Q142.7 1769.49 136.89 1769.49 Q131.079 1769.49 128.001 1764.91 Q124.945 1760.3 124.945 1751.58 Q124.945 1742.83 128.001 1738.24 Q131.079 1733.64 136.89 1733.64 Z" fill="#000000" fill-rule="evenodd" fill-opacity="1" /><path clip-path="url(#clip160)" d="M62.4919 1315.17 Q58.8808 1315.17 57.0521 1318.73 Q55.2465 1322.27 55.2465 1329.4 Q55.2465 1336.51 57.0521 1340.07 Q58.8808 1343.61 62.4919 1343.61 Q66.1261 1343.61 67.9317 1340.07 Q69.7604 1336.51 69.7604 1329.4 Q69.7604 1322.27 67.9317 1318.73 Q66.1261 1315.17 62.4919 1315.17 M62.4919 1311.46 Q68.302 1311.46 71.3576 1316.07 Q74.4363 1320.65 74.4363 1329.4 Q74.4363 1338.13 71.3576 1342.74 Q68.302 1347.32 62.4919 1347.32 Q56.6817 1347.32 53.603 1342.74 Q50.5475 1338.13 50.5475 1329.4 Q50.5475 1320.65 53.603 1316.07 Q56.6817 1311.46 62.4919 1311.46 Z" fill="#000000" fill-rule="evenodd" fill-opacity="1" /><path clip-path="url(#clip160)" d="M82.6538 1340.77 L87.538 1340.77 L87.538 1346.65 L82.6538 1346.65 L82.6538 1340.77 Z" fill="#000000" fill-rule="evenodd" fill-opacity="1" /><path clip-path="url(#clip160)" d="M101.751 1342.71 L118.07 1342.71 L118.07 1346.65 L96.126 1346.65 L96.126 1342.71 Q98.788 1339.96 103.371 1335.33 Q107.978 1330.67 109.158 1329.33 Q111.404 1326.81 112.283 1325.07 Q113.186 1323.31 113.186 1321.62 Q113.186 1318.87 111.242 1317.13 Q109.32 1315.4 106.218 1315.4 Q104.019 1315.4 101.566 1316.16 Q99.1352 1316.93 96.3574 1318.48 L96.3574 1313.75 Q99.1815 1312.62 101.635 1312.04 Q104.089 1311.46 106.126 1311.46 Q111.496 1311.46 114.691 1314.15 Q117.885 1316.83 117.885 1321.32 Q117.885 1323.45 117.075 1325.37 Q116.288 1327.27 114.181 1329.86 Q113.603 1330.54 110.501 1333.75 Q107.399 1336.95 101.751 1342.71 Z" fill="#000000" fill-rule="evenodd" fill-opacity="1" /><path clip-path="url(#clip160)" d="M127.931 1312.09 L146.288 1312.09 L146.288 1316.02 L132.214 1316.02 L132.214 1324.49 Q133.232 1324.15 134.251 1323.99 Q135.269 1323.8 136.288 1323.8 Q142.075 1323.8 145.454 1326.97 Q148.834 1330.14 148.834 1335.56 Q148.834 1341.14 145.362 1344.24 Q141.89 1347.32 135.57 1347.32 Q133.394 1347.32 131.126 1346.95 Q128.88 1346.58 126.473 1345.84 L126.473 1341.14 Q128.556 1342.27 130.779 1342.83 Q133.001 1343.38 135.478 1343.38 Q139.482 1343.38 141.82 1341.28 Q144.158 1339.17 144.158 1335.56 Q144.158 1331.95 141.82 1329.84 Q139.482 1327.74 135.478 1327.74 Q133.603 1327.74 131.728 1328.15 Q129.876 1328.57 127.931 1329.45 L127.931 1312.09 Z" fill="#000000" fill-rule="evenodd" fill-opacity="1" /><path clip-path="url(#clip160)" d="M61.4965 892.992 Q57.8854 892.992 56.0567 896.557 Q54.2512 900.099 54.2512 907.228 Q54.2512 914.335 56.0567 917.9 Q57.8854 921.441 61.4965 921.441 Q65.1307 921.441 66.9363 917.9 Q68.765 914.335 68.765 907.228 Q68.765 900.099 66.9363 896.557 Q65.1307 892.992 61.4965 892.992 M61.4965 889.289 Q67.3067 889.289 70.3622 893.895 Q73.4409 898.478 73.4409 907.228 Q73.4409 915.955 70.3622 920.562 Q67.3067 925.145 61.4965 925.145 Q55.6864 925.145 52.6077 920.562 Q49.5521 915.955 49.5521 907.228 Q49.5521 898.478 52.6077 893.895 Q55.6864 889.289 61.4965 889.289 Z" fill="#000000" fill-rule="evenodd" fill-opacity="1" /><path clip-path="url(#clip160)" d="M81.6584 918.594 L86.5427 918.594 L86.5427 924.474 L81.6584 924.474 L81.6584 918.594 Z" fill="#000000" fill-rule="evenodd" fill-opacity="1" /><path clip-path="url(#clip160)" d="M96.7741 889.914 L115.13 889.914 L115.13 893.849 L101.056 893.849 L101.056 902.321 Q102.075 901.974 103.094 901.812 Q104.112 901.626 105.131 901.626 Q110.918 901.626 114.297 904.798 Q117.677 907.969 117.677 913.386 Q117.677 918.964 114.205 922.066 Q110.732 925.145 104.413 925.145 Q102.237 925.145 99.9685 924.775 Q97.7232 924.404 95.3158 923.663 L95.3158 918.964 Q97.3991 920.099 99.6213 920.654 Q101.844 921.21 104.32 921.21 Q108.325 921.21 110.663 919.103 Q113.001 916.997 113.001 913.386 Q113.001 909.775 110.663 907.668 Q108.325 905.562 104.32 905.562 Q102.445 905.562 100.57 905.978 Q98.7185 906.395 96.7741 907.275 L96.7741 889.914 Z" fill="#000000" fill-rule="evenodd" fill-opacity="1" /><path clip-path="url(#clip160)" d="M136.89 892.992 Q133.279 892.992 131.45 896.557 Q129.644 900.099 129.644 907.228 Q129.644 914.335 131.45 917.9 Q133.279 921.441 136.89 921.441 Q140.524 921.441 142.329 917.9 Q144.158 914.335 144.158 907.228 Q144.158 900.099 142.329 896.557 Q140.524 892.992 136.89 892.992 M136.89 889.289 Q142.7 889.289 145.755 893.895 Q148.834 898.478 148.834 907.228 Q148.834 915.955 145.755 920.562 Q142.7 925.145 136.89 925.145 Q131.079 925.145 128.001 920.562 Q124.945 915.955 124.945 907.228 Q124.945 898.478 128.001 893.895 Q131.079 889.289 136.89 889.289 Z" fill="#000000" fill-rule="evenodd" fill-opacity="1" /><path clip-path="url(#clip160)" d="M62.4919 470.819 Q58.8808 470.819 57.0521 474.384 Q55.2465 477.925 55.2465 485.055 Q55.2465 492.161 57.0521 495.726 Q58.8808 499.268 62.4919 499.268 Q66.1261 499.268 67.9317 495.726 Q69.7604 492.161 69.7604 485.055 Q69.7604 477.925 67.9317 474.384 Q66.1261 470.819 62.4919 470.819 M62.4919 467.115 Q68.302 467.115 71.3576 471.722 Q74.4363 476.305 74.4363 485.055 Q74.4363 493.782 71.3576 498.388 Q68.302 502.971 62.4919 502.971 Q56.6817 502.971 53.603 498.388 Q50.5475 493.782 50.5475 485.055 Q50.5475 476.305 53.603 471.722 Q56.6817 467.115 62.4919 467.115 Z" fill="#000000" fill-rule="evenodd" fill-opacity="1" /><path clip-path="url(#clip160)" d="M82.6538 496.42 L87.538 496.42 L87.538 502.3 L82.6538 502.3 L82.6538 496.42 Z" fill="#000000" fill-rule="evenodd" fill-opacity="1" /><path clip-path="url(#clip160)" d="M96.5426 467.74 L118.765 467.74 L118.765 469.731 L106.218 502.3 L101.334 502.3 L113.14 471.675 L96.5426 471.675 L96.5426 467.74 Z" fill="#000000" fill-rule="evenodd" fill-opacity="1" /><path clip-path="url(#clip160)" d="M127.931 467.74 L146.288 467.74 L146.288 471.675 L132.214 471.675 L132.214 480.147 Q133.232 479.8 134.251 479.638 Q135.269 479.453 136.288 479.453 Q142.075 479.453 145.454 482.624 Q148.834 485.796 148.834 491.212 Q148.834 496.791 145.362 499.893 Q141.89 502.971 135.57 502.971 Q133.394 502.971 131.126 502.601 Q128.88 502.231 126.473 501.49 L126.473 496.791 Q128.556 497.925 130.779 498.481 Q133.001 499.036 135.478 499.036 Q139.482 499.036 141.82 496.93 Q144.158 494.823 144.158 491.212 Q144.158 487.601 141.82 485.495 Q139.482 483.388 135.478 483.388 Q133.603 483.388 131.728 483.805 Q129.876 484.221 127.931 485.101 L127.931 467.74 Z" fill="#000000" fill-rule="evenodd" fill-opacity="1" /><path clip-path="url(#clip160)" d="M52.3067 76.1914 L59.9456 76.1914 L59.9456 49.8258 L51.6354 51.4924 L51.6354 47.2332 L59.8993 45.5665 L64.5752 45.5665 L64.5752 76.1914 L72.214 76.1914 L72.214 80.1265 L52.3067 80.1265 L52.3067 76.1914 Z" fill="#000000" fill-rule="evenodd" fill-opacity="1" /><path clip-path="url(#clip160)" d="M81.6584 74.2469 L86.5427 74.2469 L86.5427 80.1265 L81.6584 80.1265 L81.6584 74.2469 Z" fill="#000000" fill-rule="evenodd" fill-opacity="1" /><path clip-path="url(#clip160)" d="M106.728 48.6452 Q103.117 48.6452 101.288 52.21 Q99.4824 55.7516 99.4824 62.8812 Q99.4824 69.9877 101.288 73.5525 Q103.117 77.0941 106.728 77.0941 Q110.362 77.0941 112.168 73.5525 Q113.996 69.9877 113.996 62.8812 Q113.996 55.7516 112.168 52.21 Q110.362 48.6452 106.728 48.6452 M106.728 44.9415 Q112.538 44.9415 115.593 49.548 Q118.672 54.1313 118.672 62.8812 Q118.672 71.608 115.593 76.2145 Q112.538 80.7978 106.728 80.7978 Q100.918 80.7978 97.8389 76.2145 Q94.7834 71.608 94.7834 62.8812 Q94.7834 54.1313 97.8389 49.548 Q100.918 44.9415 106.728 44.9415 Z" fill="#000000" fill-rule="evenodd" fill-opacity="1" /><path clip-path="url(#clip160)" d="M136.89 48.6452 Q133.279 48.6452 131.45 52.21 Q129.644 55.7516 129.644 62.8812 Q129.644 69.9877 131.45 73.5525 Q133.279 77.0941 136.89 77.0941 Q140.524 77.0941 142.329 73.5525 Q144.158 69.9877 144.158 62.8812 Q144.158 55.7516 142.329 52.21 Q140.524 48.6452 136.89 48.6452 M136.89 44.9415 Q142.7 44.9415 145.755 49.548 Q148.834 54.1313 148.834 62.8812 Q148.834 71.608 145.755 76.2145 Q142.7 80.7978 136.89 80.7978 Q131.079 80.7978 128.001 76.2145 Q124.945 71.608 124.945 62.8812 Q124.945 54.1313 128.001 49.548 Q131.079 44.9415 136.89 44.9415 Z" fill="#000000" fill-rule="evenodd" fill-opacity="1" /><polyline clip-path="url(#clip162)" style="stroke:#009af9; stroke-linecap:butt; stroke-linejoin:round; stroke-width:4; stroke-opacity:1; fill:none" points="
  2274.09,1318.94 2296.2,654.25 1523.79,940.304 2426.42,782.177 1010.54,275.057 824.679,1531.42 790.553,1578.8 304.591,894.227 959.976,1219.99 1065.63,834.835 
  1055.6,1312.02 2190.6,1224.9 947.12,135.744 2019.42,1399.77 2064.75,1533.74 2571.37,506.48 1178.67,474.224 1789.56,388.091 2249.16,234.521 1547.1,1425.38 
  745.28,1030.48 1354.27,926.664 258.539,1751.15 1217.85,958.173 1896.49,758.574 1680.89,771.198 1192.27,289.863 1273.53,1230.74 298.801,1717.73 299.351,586.048 
  1136.21,405.094 1581.08,249.65 534.943,175.963 981.64,788.346 1614.29,416.47 1695.97,755.668 680.821,1233.18 2275.13,587.974 377.392,327.323 1067.49,1149.8 
  2381.59,161.983 1630.04,1548.99 1289.98,967.299 2213.67,720.913 1905.7,396.008 1121.25,201.93 379.072,1011.34 412.107,759.643 1109.65,1551.99 324.528,1537.24 
  1327.27,1164.31 2120.82,1190.62 2287.81,275.259 796.888,1481.97 418.696,296.409 852.674,993.246 2146.64,749.474 2365.2,733.197 1580.42,1420.57 1152.34,591.811 
  1758.02,1530.4 2264.07,840.534 1837.25,1618.69 931.614,1007.82 1354.3,908.231 2516.46,1308.91 1264.21,1525.28 414.762,287.947 1274.37,1243.29 1830.19,738.71 
  866.151,1447.44 609.339,1297.89 578.651,1415.36 416.474,190.853 2265.46,1518 2010.57,96.8724 1495.34,442.443 1659.28,1688.05 1298.62,308.327 2250.01,851.365 
  2381.66,1145.11 744.792,1485.74 1086.58,738.29 727.438,723.174 1672.34,1347.54 1194.38,1620.58 2223.58,1064.61 790.623,484.604 1105.08,133.947 1238.47,1019.59 
  942.649,1433 355.2,388.056 436.535,1498.1 357.109,861.221 2309.87,649.147 2532.67,899.386 410.731,527.683 1692.28,1185.25 998.637,1015.05 1470.26,865.748 
  
  "/>
<path clip-path="url(#clip160)" d="
M2261.45 1742.33 L2559.04 1742.33 L2559.04 1638.65 L2261.45 1638.65  Z
  " fill="#ffffff" fill-rule="evenodd" fill-opacity="1"/>
<polyline clip-path="url(#clip160)" style="stroke:#000000; stroke-linecap:butt; stroke-linejoin:round; stroke-width:4; stroke-opacity:1; fill:none" points="
  2261.45,1742.33 2559.04,1742.33 2559.04,1638.65 2261.45,1638.65 2261.45,1742.33 
  "/>
<polyline clip-path="url(#clip160)" style="stroke:#009af9; stroke-linecap:butt; stroke-linejoin:round; stroke-width:4; stroke-opacity:1; fill:none" points="
  2288.69,1690.49 2452.13,1690.49 
  "/>
<path clip-path="url(#clip160)" d="M2493.21 1710.18 Q2491.4 1714.81 2489.69 1716.22 Q2487.98 1717.63 2485.11 1717.63 L2481.7 1717.63 L2481.7 1714.06 L2484.2 1714.06 Q2485.96 1714.06 2486.93 1713.23 Q2487.91 1712.4 2489.09 1709.3 L2489.85 1707.35 L2479.37 1681.84 L2483.88 1681.84 L2491.98 1702.12 L2500.08 1681.84 L2504.6 1681.84 L2493.21 1710.18 Z" fill="#000000" fill-rule="evenodd" fill-opacity="1" /><path clip-path="url(#clip160)" d="M2511.89 1703.83 L2519.53 1703.83 L2519.53 1677.47 L2511.22 1679.13 L2511.22 1674.87 L2519.48 1673.21 L2524.16 1673.21 L2524.16 1703.83 L2531.8 1703.83 L2531.8 1707.77 L2511.89 1707.77 L2511.89 1703.83 Z" fill="#000000" fill-rule="evenodd" fill-opacity="1" /></svg>
