<?xml version="1.0" encoding="utf-8"?>
<svg xmlns="http://www.w3.org/2000/svg" xmlns:xlink="http://www.w3.org/1999/xlink" width="672" height="480" viewBox="0 0 2688 1920">
<defs>
  <clipPath id="clip730">
    <rect x="0" y="0" width="2688" height="1920"/>
  </clipPath>
</defs>
<path clip-path="url(#clip730)" d="
M0 1920 L2688 1920 L2688 0 L0 0  Z
  " fill="#ffffff" fill-rule="evenodd" fill-opacity="1"/>
<defs>
  <clipPath id="clip731">
    <rect x="537" y="0" width="1883" height="1883"/>
  </clipPath>
</defs>
<path clip-path="url(#clip730)" d="
M189.154 1800.78 L2640.76 1800.78 L2640.76 47.2441 L189.154 47.2441  Z
  " fill="#ffffff" fill-rule="evenodd" fill-opacity="1"/>
<defs>
  <clipPath id="clip732">
    <rect x="189" y="47" width="2453" height="1755"/>
  </clipPath>
</defs>
<polyline clip-path="url(#clip732)" style="stroke:#000000; stroke-linecap:butt; stroke-linejoin:round; stroke-width:2; stroke-opacity:0.1; fill:none" points="
  236.462,1800.78 236.462,47.2441 
  "/>
<polyline clip-path="url(#clip732)" style="stroke:#000000; stroke-linecap:butt; stroke-linejoin:round; stroke-width:2; stroke-opacity:0.1; fill:none" points="
  825.767,1800.78 825.767,47.2441 
  "/>
<polyline clip-path="url(#clip732)" style="stroke:#000000; stroke-linecap:butt; stroke-linejoin:round; stroke-width:2; stroke-opacity:0.1; fill:none" points="
  1415.07,1800.78 1415.07,47.2441 
  "/>
<polyline clip-path="url(#clip732)" style="stroke:#000000; stroke-linecap:butt; stroke-linejoin:round; stroke-width:2; stroke-opacity:0.1; fill:none" points="
  2004.38,1800.78 2004.38,47.2441 
  "/>
<polyline clip-path="url(#clip732)" style="stroke:#000000; stroke-linecap:butt; stroke-linejoin:round; stroke-width:2; stroke-opacity:0.1; fill:none" points="
  2593.68,1800.78 2593.68,47.2441 
  "/>
<polyline clip-path="url(#clip730)" style="stroke:#000000; stroke-linecap:butt; stroke-linejoin:round; stroke-width:4; stroke-opacity:1; fill:none" points="
  189.154,1800.78 2640.76,1800.78 
  "/>
<polyline clip-path="url(#clip730)" style="stroke:#000000; stroke-linecap:butt; stroke-linejoin:round; stroke-width:4; stroke-opacity:1; fill:none" points="
  236.462,1800.78 236.462,1781.88 
  "/>
<polyline clip-path="url(#clip730)" style="stroke:#000000; stroke-linecap:butt; stroke-linejoin:round; stroke-width:4; stroke-opacity:1; fill:none" points="
  825.767,1800.78 825.767,1781.88 
  "/>
<polyline clip-path="url(#clip730)" style="stroke:#000000; stroke-linecap:butt; stroke-linejoin:round; stroke-width:4; stroke-opacity:1; fill:none" points="
  1415.07,1800.78 1415.07,1781.88 
  "/>
<polyline clip-path="url(#clip730)" style="stroke:#000000; stroke-linecap:butt; stroke-linejoin:round; stroke-width:4; stroke-opacity:1; fill:none" points="
  2004.38,1800.78 2004.38,1781.88 
  "/>
<polyline clip-path="url(#clip730)" style="stroke:#000000; stroke-linecap:butt; stroke-linejoin:round; stroke-width:4; stroke-opacity:1; fill:none" points="
  2593.68,1800.78 2593.68,1781.88 
  "/>
<path clip-path="url(#clip730)" d="M198.765 1834 Q195.154 1834 193.325 1837.57 Q191.52 1841.11 191.52 1848.24 Q191.52 1855.34 193.325 1858.91 Q195.154 1862.45 198.765 1862.45 Q202.399 1862.45 204.205 1858.91 Q206.034 1855.34 206.034 1848.24 Q206.034 1841.11 204.205 1837.57 Q202.399 1834 198.765 1834 M198.765 1830.3 Q204.575 1830.3 207.631 1834.9 Q210.709 1839.49 210.709 1848.24 Q210.709 1856.96 207.631 1861.57 Q204.575 1866.15 198.765 1866.15 Q192.955 1866.15 189.876 1861.57 Q186.821 1856.96 186.821 1848.24 Q186.821 1839.49 189.876 1834.9 Q192.955 1830.3 198.765 1830.3 Z" fill="#000000" fill-rule="evenodd" fill-opacity="1" /><path clip-path="url(#clip730)" d="M218.927 1859.6 L223.811 1859.6 L223.811 1865.48 L218.927 1865.48 L218.927 1859.6 Z" fill="#000000" fill-rule="evenodd" fill-opacity="1" /><path clip-path="url(#clip730)" d="M243.996 1834 Q240.385 1834 238.556 1837.57 Q236.751 1841.11 236.751 1848.24 Q236.751 1855.34 238.556 1858.91 Q240.385 1862.45 243.996 1862.45 Q247.631 1862.45 249.436 1858.91 Q251.265 1855.34 251.265 1848.24 Q251.265 1841.11 249.436 1837.57 Q247.631 1834 243.996 1834 M243.996 1830.3 Q249.806 1830.3 252.862 1834.9 Q255.941 1839.49 255.941 1848.24 Q255.941 1856.96 252.862 1861.57 Q249.806 1866.15 243.996 1866.15 Q238.186 1866.15 235.107 1861.57 Q232.052 1856.96 232.052 1848.24 Q232.052 1839.49 235.107 1834.9 Q238.186 1830.3 243.996 1830.3 Z" fill="#000000" fill-rule="evenodd" fill-opacity="1" /><path clip-path="url(#clip730)" d="M274.158 1834 Q270.547 1834 268.718 1837.57 Q266.913 1841.11 266.913 1848.24 Q266.913 1855.34 268.718 1858.91 Q270.547 1862.45 274.158 1862.45 Q277.792 1862.45 279.598 1858.91 Q281.427 1855.34 281.427 1848.24 Q281.427 1841.11 279.598 1837.57 Q277.792 1834 274.158 1834 M274.158 1830.3 Q279.968 1830.3 283.024 1834.9 Q286.103 1839.49 286.103 1848.24 Q286.103 1856.96 283.024 1861.57 Q279.968 1866.15 274.158 1866.15 Q268.348 1866.15 265.269 1861.57 Q262.214 1856.96 262.214 1848.24 Q262.214 1839.49 265.269 1834.9 Q268.348 1830.3 274.158 1830.3 Z" fill="#000000" fill-rule="evenodd" fill-opacity="1" /><path clip-path="url(#clip730)" d="M788.568 1834 Q784.957 1834 783.128 1837.57 Q781.323 1841.11 781.323 1848.24 Q781.323 1855.34 783.128 1858.91 Q784.957 1862.45 788.568 1862.45 Q792.202 1862.45 794.008 1858.91 Q795.836 1855.34 795.836 1848.24 Q795.836 1841.11 794.008 1837.57 Q792.202 1834 788.568 1834 M788.568 1830.3 Q794.378 1830.3 797.434 1834.9 Q800.512 1839.49 800.512 1848.24 Q800.512 1856.96 797.434 1861.57 Q794.378 1866.15 788.568 1866.15 Q782.758 1866.15 779.679 1861.57 Q776.624 1856.96 776.624 1848.24 Q776.624 1839.49 779.679 1834.9 Q782.758 1830.3 788.568 1830.3 Z" fill="#000000" fill-rule="evenodd" fill-opacity="1" /><path clip-path="url(#clip730)" d="M808.73 1859.6 L813.614 1859.6 L813.614 1865.48 L808.73 1865.48 L808.73 1859.6 Z" fill="#000000" fill-rule="evenodd" fill-opacity="1" /><path clip-path="url(#clip730)" d="M827.827 1861.55 L844.146 1861.55 L844.146 1865.48 L822.202 1865.48 L822.202 1861.55 Q824.864 1858.79 829.447 1854.16 Q834.054 1849.51 835.234 1848.17 Q837.48 1845.65 838.359 1843.91 Q839.262 1842.15 839.262 1840.46 Q839.262 1837.71 837.318 1835.97 Q835.396 1834.23 832.294 1834.23 Q830.095 1834.23 827.642 1835 Q825.211 1835.76 822.433 1837.31 L822.433 1832.59 Q825.258 1831.46 827.711 1830.88 Q830.165 1830.3 832.202 1830.3 Q837.572 1830.3 840.767 1832.98 Q843.961 1835.67 843.961 1840.16 Q843.961 1842.29 843.151 1844.21 Q842.364 1846.11 840.257 1848.7 Q839.679 1849.37 836.577 1852.59 Q833.475 1855.78 827.827 1861.55 Z" fill="#000000" fill-rule="evenodd" fill-opacity="1" /><path clip-path="url(#clip730)" d="M854.007 1830.92 L872.364 1830.92 L872.364 1834.86 L858.29 1834.86 L858.29 1843.33 Q859.308 1842.98 860.327 1842.82 Q861.345 1842.64 862.364 1842.64 Q868.151 1842.64 871.53 1845.81 Q874.91 1848.98 874.91 1854.4 Q874.91 1859.97 871.438 1863.08 Q867.966 1866.15 861.646 1866.15 Q859.47 1866.15 857.202 1865.78 Q854.956 1865.41 852.549 1864.67 L852.549 1859.97 Q854.632 1861.11 856.855 1861.66 Q859.077 1862.22 861.554 1862.22 Q865.558 1862.22 867.896 1860.11 Q870.234 1858.01 870.234 1854.4 Q870.234 1850.78 867.896 1848.68 Q865.558 1846.57 861.554 1846.57 Q859.679 1846.57 857.804 1846.99 Q855.952 1847.4 854.007 1848.28 L854.007 1830.92 Z" fill="#000000" fill-rule="evenodd" fill-opacity="1" /><path clip-path="url(#clip730)" d="M1377.38 1834 Q1373.76 1834 1371.94 1837.57 Q1370.13 1841.11 1370.13 1848.24 Q1370.13 1855.34 1371.94 1858.91 Q1373.76 1862.45 1377.38 1862.45 Q1381.01 1862.45 1382.82 1858.91 Q1384.64 1855.34 1384.64 1848.24 Q1384.64 1841.11 1382.82 1837.57 Q1381.01 1834 1377.38 1834 M1377.38 1830.3 Q1383.19 1830.3 1386.24 1834.9 Q1389.32 1839.49 1389.32 1848.24 Q1389.32 1856.96 1386.24 1861.57 Q1383.19 1866.15 1377.38 1866.15 Q1371.57 1866.15 1368.49 1861.57 Q1365.43 1856.96 1365.43 1848.24 Q1365.43 1839.49 1368.49 1834.9 Q1371.57 1830.3 1377.38 1830.3 Z" fill="#000000" fill-rule="evenodd" fill-opacity="1" /><path clip-path="url(#clip730)" d="M1397.54 1859.6 L1402.42 1859.6 L1402.42 1865.48 L1397.54 1865.48 L1397.54 1859.6 Z" fill="#000000" fill-rule="evenodd" fill-opacity="1" /><path clip-path="url(#clip730)" d="M1412.65 1830.92 L1431.01 1830.92 L1431.01 1834.86 L1416.94 1834.86 L1416.94 1843.33 Q1417.95 1842.98 1418.97 1842.82 Q1419.99 1842.64 1421.01 1842.64 Q1426.8 1842.64 1430.18 1845.81 Q1433.56 1848.98 1433.56 1854.4 Q1433.56 1859.97 1430.08 1863.08 Q1426.61 1866.15 1420.29 1866.15 Q1418.12 1866.15 1415.85 1865.78 Q1413.6 1865.41 1411.19 1864.67 L1411.19 1859.97 Q1413.28 1861.11 1415.5 1861.66 Q1417.72 1862.22 1420.2 1862.22 Q1424.2 1862.22 1426.54 1860.11 Q1428.88 1858.01 1428.88 1854.4 Q1428.88 1850.78 1426.54 1848.68 Q1424.2 1846.57 1420.2 1846.57 Q1418.32 1846.57 1416.45 1846.99 Q1414.6 1847.4 1412.65 1848.28 L1412.65 1830.92 Z" fill="#000000" fill-rule="evenodd" fill-opacity="1" /><path clip-path="url(#clip730)" d="M1452.77 1834 Q1449.16 1834 1447.33 1837.57 Q1445.52 1841.11 1445.52 1848.24 Q1445.52 1855.34 1447.33 1858.91 Q1449.16 1862.45 1452.77 1862.45 Q1456.4 1862.45 1458.21 1858.91 Q1460.04 1855.34 1460.04 1848.24 Q1460.04 1841.11 1458.21 1837.57 Q1456.4 1834 1452.77 1834 M1452.77 1830.3 Q1458.58 1830.3 1461.63 1834.9 Q1464.71 1839.49 1464.71 1848.24 Q1464.71 1856.96 1461.63 1861.57 Q1458.58 1866.15 1452.77 1866.15 Q1446.96 1866.15 1443.88 1861.57 Q1440.82 1856.96 1440.82 1848.24 Q1440.82 1839.49 1443.88 1834.9 Q1446.96 1830.3 1452.77 1830.3 Z" fill="#000000" fill-rule="evenodd" fill-opacity="1" /><path clip-path="url(#clip730)" d="M1967.18 1834 Q1963.57 1834 1961.74 1837.57 Q1959.93 1841.11 1959.93 1848.24 Q1959.93 1855.34 1961.74 1858.91 Q1963.57 1862.45 1967.18 1862.45 Q1970.81 1862.45 1972.62 1858.91 Q1974.45 1855.34 1974.45 1848.24 Q1974.45 1841.11 1972.62 1837.57 Q1970.81 1834 1967.18 1834 M1967.18 1830.3 Q1972.99 1830.3 1976.04 1834.9 Q1979.12 1839.49 1979.12 1848.24 Q1979.12 1856.96 1976.04 1861.57 Q1972.99 1866.15 1967.18 1866.15 Q1961.37 1866.15 1958.29 1861.57 Q1955.23 1856.96 1955.23 1848.24 Q1955.23 1839.49 1958.29 1834.9 Q1961.37 1830.3 1967.18 1830.3 Z" fill="#000000" fill-rule="evenodd" fill-opacity="1" /><path clip-path="url(#clip730)" d="M1987.34 1859.6 L1992.22 1859.6 L1992.22 1865.48 L1987.34 1865.48 L1987.34 1859.6 Z" fill="#000000" fill-rule="evenodd" fill-opacity="1" /><path clip-path="url(#clip730)" d="M2001.23 1830.92 L2023.45 1830.92 L2023.45 1832.91 L2010.9 1865.48 L2006.02 1865.48 L2017.83 1834.86 L2001.23 1834.86 L2001.23 1830.92 Z" fill="#000000" fill-rule="evenodd" fill-opacity="1" /><path clip-path="url(#clip730)" d="M2032.62 1830.92 L2050.97 1830.92 L2050.97 1834.86 L2036.9 1834.86 L2036.9 1843.33 Q2037.92 1842.98 2038.94 1842.82 Q2039.96 1842.64 2040.97 1842.64 Q2046.76 1842.64 2050.14 1845.81 Q2053.52 1848.98 2053.52 1854.4 Q2053.52 1859.97 2050.05 1863.08 Q2046.58 1866.15 2040.26 1866.15 Q2038.08 1866.15 2035.81 1865.78 Q2033.57 1865.41 2031.16 1864.67 L2031.16 1859.97 Q2033.24 1861.11 2035.46 1861.66 Q2037.69 1862.22 2040.16 1862.22 Q2044.17 1862.22 2046.51 1860.11 Q2048.84 1858.01 2048.84 1854.4 Q2048.84 1850.78 2046.51 1848.68 Q2044.17 1846.57 2040.16 1846.57 Q2038.29 1846.57 2036.41 1846.99 Q2034.56 1847.4 2032.62 1848.28 L2032.62 1830.92 Z" fill="#000000" fill-rule="evenodd" fill-opacity="1" /><path clip-path="url(#clip730)" d="M2545.75 1861.55 L2553.39 1861.55 L2553.39 1835.18 L2545.08 1836.85 L2545.08 1832.59 L2553.35 1830.92 L2558.02 1830.92 L2558.02 1861.55 L2565.66 1861.55 L2565.66 1865.48 L2545.75 1865.48 L2545.75 1861.55 Z" fill="#000000" fill-rule="evenodd" fill-opacity="1" /><path clip-path="url(#clip730)" d="M2575.11 1859.6 L2579.99 1859.6 L2579.99 1865.48 L2575.11 1865.48 L2575.11 1859.6 Z" fill="#000000" fill-rule="evenodd" fill-opacity="1" /><path clip-path="url(#clip730)" d="M2600.18 1834 Q2596.56 1834 2594.74 1837.57 Q2592.93 1841.11 2592.93 1848.24 Q2592.93 1855.34 2594.74 1858.91 Q2596.56 1862.45 2600.18 1862.45 Q2603.81 1862.45 2605.62 1858.91 Q2607.44 1855.34 2607.44 1848.24 Q2607.44 1841.11 2605.62 1837.57 Q2603.81 1834 2600.18 1834 M2600.18 1830.3 Q2605.99 1830.3 2609.04 1834.9 Q2612.12 1839.49 2612.12 1848.24 Q2612.12 1856.96 2609.04 1861.57 Q2605.99 1866.15 2600.18 1866.15 Q2594.37 1866.15 2591.29 1861.57 Q2588.23 1856.96 2588.23 1848.24 Q2588.23 1839.49 2591.29 1834.9 Q2594.37 1830.3 2600.18 1830.3 Z" fill="#000000" fill-rule="evenodd" fill-opacity="1" /><path clip-path="url(#clip730)" d="M2630.34 1834 Q2626.73 1834 2624.9 1837.57 Q2623.09 1841.11 2623.09 1848.24 Q2623.09 1855.34 2624.9 1858.91 Q2626.73 1862.45 2630.34 1862.45 Q2633.97 1862.45 2635.78 1858.91 Q2637.61 1855.34 2637.61 1848.24 Q2637.61 1841.11 2635.78 1837.57 Q2633.97 1834 2630.34 1834 M2630.34 1830.3 Q2636.15 1830.3 2639.2 1834.9 Q2642.28 1839.49 2642.28 1848.24 Q2642.28 1856.96 2639.2 1861.57 Q2636.15 1866.15 2630.34 1866.15 Q2624.53 1866.15 2621.45 1861.57 Q2618.39 1856.96 2618.39 1848.24 Q2618.39 1839.49 2621.45 1834.9 Q2624.53 1830.3 2630.34 1830.3 Z" fill="#000000" fill-rule="evenodd" fill-opacity="1" /><polyline clip-path="url(#clip732)" style="stroke:#000000; stroke-linecap:butt; stroke-linejoin:round; stroke-width:2; stroke-opacity:0.1; fill:none" points="
  189.154,1770.27 2640.76,1770.27 
  "/>
<polyline clip-path="url(#clip732)" style="stroke:#000000; stroke-linecap:butt; stroke-linejoin:round; stroke-width:2; stroke-opacity:0.1; fill:none" points="
  189.154,1350.21 2640.76,1350.21 
  "/>
<polyline clip-path="url(#clip732)" style="stroke:#000000; stroke-linecap:butt; stroke-linejoin:round; stroke-width:2; stroke-opacity:0.1; fill:none" points="
  189.154,930.138 2640.76,930.138 
  "/>
<polyline clip-path="url(#clip732)" style="stroke:#000000; stroke-linecap:butt; stroke-linejoin:round; stroke-width:2; stroke-opacity:0.1; fill:none" points="
  189.154,510.07 2640.76,510.07 
  "/>
<polyline clip-path="url(#clip732)" style="stroke:#000000; stroke-linecap:butt; stroke-linejoin:round; stroke-width:2; stroke-opacity:0.1; fill:none" points="
  189.154,90.0024 2640.76,90.0024 
  "/>
<polyline clip-path="url(#clip730)" style="stroke:#000000; stroke-linecap:butt; stroke-linejoin:round; stroke-width:4; stroke-opacity:1; fill:none" points="
  189.154,1800.78 189.154,47.2441 
  "/>
<polyline clip-path="url(#clip730)" style="stroke:#000000; stroke-linecap:butt; stroke-linejoin:round; stroke-width:4; stroke-opacity:1; fill:none" points="
  189.154,1770.27 208.052,1770.27 
  "/>
<polyline clip-path="url(#clip730)" style="stroke:#000000; stroke-linecap:butt; stroke-linejoin:round; stroke-width:4; stroke-opacity:1; fill:none" points="
  189.154,1350.21 208.052,1350.21 
  "/>
<polyline clip-path="url(#clip730)" style="stroke:#000000; stroke-linecap:butt; stroke-linejoin:round; stroke-width:4; stroke-opacity:1; fill:none" points="
  189.154,930.138 208.052,930.138 
  "/>
<polyline clip-path="url(#clip730)" style="stroke:#000000; stroke-linecap:butt; stroke-linejoin:round; stroke-width:4; stroke-opacity:1; fill:none" points="
  189.154,510.07 208.052,510.07 
  "/>
<polyline clip-path="url(#clip730)" style="stroke:#000000; stroke-linecap:butt; stroke-linejoin:round; stroke-width:4; stroke-opacity:1; fill:none" points="
  189.154,90.0024 208.052,90.0024 
  "/>
<path clip-path="url(#clip730)" d="M61.4965 1756.07 Q57.8854 1756.07 56.0567 1759.64 Q54.2512 1763.18 54.2512 1770.31 Q54.2512 1777.42 56.0567 1780.98 Q57.8854 1784.52 61.4965 1784.52 Q65.1307 1784.52 66.9363 1780.98 Q68.765 1777.42 68.765 1770.31 Q68.765 1763.18 66.9363 1759.64 Q65.1307 1756.07 61.4965 1756.07 M61.4965 1752.37 Q67.3067 1752.37 70.3622 1756.98 Q73.4409 1761.56 73.4409 1770.31 Q73.4409 1779.04 70.3622 1783.64 Q67.3067 1788.23 61.4965 1788.23 Q55.6864 1788.23 52.6077 1783.64 Q49.5521 1779.04 49.5521 1770.31 Q49.5521 1761.56 52.6077 1756.98 Q55.6864 1752.37 61.4965 1752.37 Z" fill="#000000" fill-rule="evenodd" fill-opacity="1" /><path clip-path="url(#clip730)" d="M81.6584 1781.67 L86.5427 1781.67 L86.5427 1787.55 L81.6584 1787.55 L81.6584 1781.67 Z" fill="#000000" fill-rule="evenodd" fill-opacity="1" /><path clip-path="url(#clip730)" d="M106.728 1756.07 Q103.117 1756.07 101.288 1759.64 Q99.4824 1763.18 99.4824 1770.31 Q99.4824 1777.42 101.288 1780.98 Q103.117 1784.52 106.728 1784.52 Q110.362 1784.52 112.168 1780.98 Q113.996 1777.42 113.996 1770.31 Q113.996 1763.18 112.168 1759.64 Q110.362 1756.07 106.728 1756.07 M106.728 1752.37 Q112.538 1752.37 115.593 1756.98 Q118.672 1761.56 118.672 1770.31 Q118.672 1779.04 115.593 1783.64 Q112.538 1788.23 106.728 1788.23 Q100.918 1788.23 97.8389 1783.64 Q94.7834 1779.04 94.7834 1770.31 Q94.7834 1761.56 97.8389 1756.98 Q100.918 1752.37 106.728 1752.37 Z" fill="#000000" fill-rule="evenodd" fill-opacity="1" /><path clip-path="url(#clip730)" d="M136.89 1756.07 Q133.279 1756.07 131.45 1759.64 Q129.644 1763.18 129.644 1770.31 Q129.644 1777.42 131.45 1780.98 Q133.279 1784.52 136.89 1784.52 Q140.524 1784.52 142.329 1780.98 Q144.158 1777.42 144.158 1770.31 Q144.158 1763.18 142.329 1759.64 Q140.524 1756.07 136.89 1756.07 M136.89 1752.37 Q142.7 1752.37 145.755 1756.98 Q148.834 1761.56 148.834 1770.31 Q148.834 1779.04 145.755 1783.64 Q142.7 1788.23 136.89 1788.23 Q131.079 1788.23 128.001 1783.64 Q124.945 1779.04 124.945 1770.31 Q124.945 1761.56 128.001 1756.98 Q131.079 1752.37 136.89 1752.37 Z" fill="#000000" fill-rule="evenodd" fill-opacity="1" /><path clip-path="url(#clip730)" d="M62.4919 1336.01 Q58.8808 1336.01 57.0521 1339.57 Q55.2465 1343.11 55.2465 1350.24 Q55.2465 1357.35 57.0521 1360.91 Q58.8808 1364.45 62.4919 1364.45 Q66.1261 1364.45 67.9317 1360.91 Q69.7604 1357.35 69.7604 1350.24 Q69.7604 1343.11 67.9317 1339.57 Q66.1261 1336.01 62.4919 1336.01 M62.4919 1332.3 Q68.302 1332.3 71.3576 1336.91 Q74.4363 1341.49 74.4363 1350.24 Q74.4363 1358.97 71.3576 1363.57 Q68.302 1368.16 62.4919 1368.16 Q56.6817 1368.16 53.603 1363.57 Q50.5475 1358.97 50.5475 1350.24 Q50.5475 1341.49 53.603 1336.91 Q56.6817 1332.3 62.4919 1332.3 Z" fill="#000000" fill-rule="evenodd" fill-opacity="1" /><path clip-path="url(#clip730)" d="M82.6538 1361.61 L87.538 1361.61 L87.538 1367.49 L82.6538 1367.49 L82.6538 1361.61 Z" fill="#000000" fill-rule="evenodd" fill-opacity="1" /><path clip-path="url(#clip730)" d="M101.751 1363.55 L118.07 1363.55 L118.07 1367.49 L96.126 1367.49 L96.126 1363.55 Q98.788 1360.8 103.371 1356.17 Q107.978 1351.51 109.158 1350.17 Q111.404 1347.65 112.283 1345.91 Q113.186 1344.15 113.186 1342.46 Q113.186 1339.71 111.242 1337.97 Q109.32 1336.24 106.218 1336.24 Q104.019 1336.24 101.566 1337 Q99.1352 1337.76 96.3574 1339.32 L96.3574 1334.59 Q99.1815 1333.46 101.635 1332.88 Q104.089 1332.3 106.126 1332.3 Q111.496 1332.3 114.691 1334.99 Q117.885 1337.67 117.885 1342.16 Q117.885 1344.29 117.075 1346.21 Q116.288 1348.11 114.181 1350.7 Q113.603 1351.38 110.501 1354.59 Q107.399 1357.79 101.751 1363.55 Z" fill="#000000" fill-rule="evenodd" fill-opacity="1" /><path clip-path="url(#clip730)" d="M127.931 1332.93 L146.288 1332.93 L146.288 1336.86 L132.214 1336.86 L132.214 1345.33 Q133.232 1344.99 134.251 1344.82 Q135.269 1344.64 136.288 1344.64 Q142.075 1344.64 145.454 1347.81 Q148.834 1350.98 148.834 1356.4 Q148.834 1361.98 145.362 1365.08 Q141.89 1368.16 135.57 1368.16 Q133.394 1368.16 131.126 1367.79 Q128.88 1367.42 126.473 1366.68 L126.473 1361.98 Q128.556 1363.11 130.779 1363.67 Q133.001 1364.22 135.478 1364.22 Q139.482 1364.22 141.82 1362.12 Q144.158 1360.01 144.158 1356.4 Q144.158 1352.79 141.82 1350.68 Q139.482 1348.57 135.478 1348.57 Q133.603 1348.57 131.728 1348.99 Q129.876 1349.41 127.931 1350.29 L127.931 1332.93 Z" fill="#000000" fill-rule="evenodd" fill-opacity="1" /><path clip-path="url(#clip730)" d="M61.4965 915.937 Q57.8854 915.937 56.0567 919.502 Q54.2512 923.044 54.2512 930.173 Q54.2512 937.28 56.0567 940.844 Q57.8854 944.386 61.4965 944.386 Q65.1307 944.386 66.9363 940.844 Q68.765 937.28 68.765 930.173 Q68.765 923.044 66.9363 919.502 Q65.1307 915.937 61.4965 915.937 M61.4965 912.233 Q67.3067 912.233 70.3622 916.84 Q73.4409 921.423 73.4409 930.173 Q73.4409 938.9 70.3622 943.506 Q67.3067 948.09 61.4965 948.09 Q55.6864 948.09 52.6077 943.506 Q49.5521 938.9 49.5521 930.173 Q49.5521 921.423 52.6077 916.84 Q55.6864 912.233 61.4965 912.233 Z" fill="#000000" fill-rule="evenodd" fill-opacity="1" /><path clip-path="url(#clip730)" d="M81.6584 941.539 L86.5427 941.539 L86.5427 947.418 L81.6584 947.418 L81.6584 941.539 Z" fill="#000000" fill-rule="evenodd" fill-opacity="1" /><path clip-path="url(#clip730)" d="M96.7741 912.858 L115.13 912.858 L115.13 916.794 L101.056 916.794 L101.056 925.266 Q102.075 924.919 103.094 924.757 Q104.112 924.571 105.131 924.571 Q110.918 924.571 114.297 927.743 Q117.677 930.914 117.677 936.331 Q117.677 941.909 114.205 945.011 Q110.732 948.09 104.413 948.09 Q102.237 948.09 99.9685 947.719 Q97.7232 947.349 95.3158 946.608 L95.3158 941.909 Q97.3991 943.043 99.6213 943.599 Q101.844 944.155 104.32 944.155 Q108.325 944.155 110.663 942.048 Q113.001 939.942 113.001 936.331 Q113.001 932.719 110.663 930.613 Q108.325 928.507 104.32 928.507 Q102.445 928.507 100.57 928.923 Q98.7185 929.34 96.7741 930.219 L96.7741 912.858 Z" fill="#000000" fill-rule="evenodd" fill-opacity="1" /><path clip-path="url(#clip730)" d="M136.89 915.937 Q133.279 915.937 131.45 919.502 Q129.644 923.044 129.644 930.173 Q129.644 937.28 131.45 940.844 Q133.279 944.386 136.89 944.386 Q140.524 944.386 142.329 940.844 Q144.158 937.28 144.158 930.173 Q144.158 923.044 142.329 919.502 Q140.524 915.937 136.89 915.937 M136.89 912.233 Q142.7 912.233 145.755 916.84 Q148.834 921.423 148.834 930.173 Q148.834 938.9 145.755 943.506 Q142.7 948.09 136.89 948.09 Q131.079 948.09 128.001 943.506 Q124.945 938.9 124.945 930.173 Q124.945 921.423 128.001 916.84 Q131.079 912.233 136.89 912.233 Z" fill="#000000" fill-rule="evenodd" fill-opacity="1" /><path clip-path="url(#clip730)" d="M62.4919 495.869 Q58.8808 495.869 57.0521 499.434 Q55.2465 502.976 55.2465 510.105 Q55.2465 517.212 57.0521 520.776 Q58.8808 524.318 62.4919 524.318 Q66.1261 524.318 67.9317 520.776 Q69.7604 517.212 69.7604 510.105 Q69.7604 502.976 67.9317 499.434 Q66.1261 495.869 62.4919 495.869 M62.4919 492.165 Q68.302 492.165 71.3576 496.772 Q74.4363 501.355 74.4363 510.105 Q74.4363 518.832 71.3576 523.438 Q68.302 528.022 62.4919 528.022 Q56.6817 528.022 53.603 523.438 Q50.5475 518.832 50.5475 510.105 Q50.5475 501.355 53.603 496.772 Q56.6817 492.165 62.4919 492.165 Z" fill="#000000" fill-rule="evenodd" fill-opacity="1" /><path clip-path="url(#clip730)" d="M82.6538 521.471 L87.538 521.471 L87.538 527.35 L82.6538 527.35 L82.6538 521.471 Z" fill="#000000" fill-rule="evenodd" fill-opacity="1" /><path clip-path="url(#clip730)" d="M96.5426 492.79 L118.765 492.79 L118.765 494.781 L106.218 527.35 L101.334 527.35 L113.14 496.726 L96.5426 496.726 L96.5426 492.79 Z" fill="#000000" fill-rule="evenodd" fill-opacity="1" /><path clip-path="url(#clip730)" d="M127.931 492.79 L146.288 492.79 L146.288 496.726 L132.214 496.726 L132.214 505.198 Q133.232 504.851 134.251 504.689 Q135.269 504.503 136.288 504.503 Q142.075 504.503 145.454 507.675 Q148.834 510.846 148.834 516.263 Q148.834 521.841 145.362 524.943 Q141.89 528.022 135.57 528.022 Q133.394 528.022 131.126 527.651 Q128.88 527.281 126.473 526.54 L126.473 521.841 Q128.556 522.975 130.779 523.531 Q133.001 524.087 135.478 524.087 Q139.482 524.087 141.82 521.98 Q144.158 519.874 144.158 516.263 Q144.158 512.651 141.82 510.545 Q139.482 508.438 135.478 508.438 Q133.603 508.438 131.728 508.855 Q129.876 509.272 127.931 510.151 L127.931 492.79 Z" fill="#000000" fill-rule="evenodd" fill-opacity="1" /><path clip-path="url(#clip730)" d="M52.3067 103.347 L59.9456 103.347 L59.9456 76.9816 L51.6354 78.6483 L51.6354 74.3891 L59.8993 72.7224 L64.5752 72.7224 L64.5752 103.347 L72.214 103.347 L72.214 107.282 L52.3067 107.282 L52.3067 103.347 Z" fill="#000000" fill-rule="evenodd" fill-opacity="1" /><path clip-path="url(#clip730)" d="M81.6584 101.403 L86.5427 101.403 L86.5427 107.282 L81.6584 107.282 L81.6584 101.403 Z" fill="#000000" fill-rule="evenodd" fill-opacity="1" /><path clip-path="url(#clip730)" d="M106.728 75.8011 Q103.117 75.8011 101.288 79.3659 Q99.4824 82.9075 99.4824 90.0371 Q99.4824 97.1436 101.288 100.708 Q103.117 104.25 106.728 104.25 Q110.362 104.25 112.168 100.708 Q113.996 97.1436 113.996 90.0371 Q113.996 82.9075 112.168 79.3659 Q110.362 75.8011 106.728 75.8011 M106.728 72.0974 Q112.538 72.0974 115.593 76.7039 Q118.672 81.2872 118.672 90.0371 Q118.672 98.7639 115.593 103.37 Q112.538 107.954 106.728 107.954 Q100.918 107.954 97.8389 103.37 Q94.7834 98.7639 94.7834 90.0371 Q94.7834 81.2872 97.8389 76.7039 Q100.918 72.0974 106.728 72.0974 Z" fill="#000000" fill-rule="evenodd" fill-opacity="1" /><path clip-path="url(#clip730)" d="M136.89 75.8011 Q133.279 75.8011 131.45 79.3659 Q129.644 82.9075 129.644 90.0371 Q129.644 97.1436 131.45 100.708 Q133.279 104.25 136.89 104.25 Q140.524 104.25 142.329 100.708 Q144.158 97.1436 144.158 90.0371 Q144.158 82.9075 142.329 79.3659 Q140.524 75.8011 136.89 75.8011 M136.89 72.0974 Q142.7 72.0974 145.755 76.7039 Q148.834 81.2872 148.834 90.0371 Q148.834 98.7639 145.755 103.37 Q142.7 107.954 136.89 107.954 Q131.079 107.954 128.001 103.37 Q124.945 98.7639 124.945 90.0371 Q124.945 81.2872 128.001 76.7039 Q131.079 72.0974 136.89 72.0974 Z" fill="#000000" fill-rule="evenodd" fill-opacity="1" /><polyline clip-path="url(#clip732)" style="stroke:#009af9; stroke-linecap:butt; stroke-linejoin:round; stroke-width:4; stroke-opacity:1; fill:none" points="
  1140.27,1444.15 1746,945.727 1732.08,1590.78 674.963,1204.46 1738.44,1480.96 2067.16,1638.43 1121.36,1005.11 817.833,290.104 2375.43,306.603 1382.02,1172.55 
  1343.89,1577.79 868.332,538.937 2509.36,1051.87 2510.04,1644.02 2131.56,689.798 1522.62,1573.72 1627.32,1646.04 427.125,1751.15 1410.11,1042.29 414.445,1538.39 
  647.835,677.8 1428.06,1704.21 2042.99,602.27 2064.23,1075.9 1132.06,593.212 1676.84,1592.68 1981.55,415.963 1221.93,685.356 1700.28,320.097 2352.32,609.157 
  1979.62,811.451 1086.54,410.851 814.273,537.391 1607.17,214.493 1476.28,735.374 575.15,1492.85 1097.22,668.338 1245.47,1393.91 2551.88,384.858 1629.19,1237.23 
  1431.62,208.252 2515.46,96.8724 2419.06,1596.94 298.715,1530.58 2357.94,1284.03 939.748,1102.11 1600.27,1718.05 589.941,948.647 258.539,556.502 820.51,1570.76 
  1342.13,515.156 1608.65,883.537 513.852,1537.89 2169.88,265.028 488.264,995.794 643.07,1540.94 654.501,1335.18 2571.37,1643.81 609.965,952.791 1611.93,1297.29 
  683.022,1089.46 2257.31,1317.55 803.653,1027.22 804.994,1489.87 1741.56,578.497 258.644,875.974 833.991,834.782 2532.86,1187.47 497.616,1195.63 294.631,143.198 
  2377.93,324.423 1677.3,678.881 2483.36,1450.05 2347.91,1605.49 644.597,1692.43 689.78,1198.25 1473.18,1156.34 655.054,276.418 1196.02,1131.18 282.833,599.725 
  294.522,967.068 2103.27,361.716 1572.6,635.782 1355.54,1739.83 2276.54,967.075 1747.7,1592.15 520.86,619.075 2241.22,1403.62 1598.46,910.968 1623.65,1443.45 
  934.537,510.795 2141.16,1367.62 1604.63,1710.32 1268.44,1299.27 600.849,1316.24 740.461,1711.74 2347.96,643.904 2456.78,1701.92 1404.72,1096.15 1197.79,1068.56 
  
  "/>
<path clip-path="url(#clip730)" d="
M270.874 209.375 L568.465 209.375 L568.465 105.695 L270.874 105.695  Z
  " fill="#ffffff" fill-rule="evenodd" fill-opacity="1"/>
<polyline clip-path="url(#clip730)" style="stroke:#000000; stroke-linecap:butt; stroke-linejoin:round; stroke-width:4; stroke-opacity:1; fill:none" points="
  270.874,209.375 568.465,209.375 568.465,105.695 270.874,105.695 270.874,209.375 
  "/>
<polyline clip-path="url(#clip730)" style="stroke:#009af9; stroke-linecap:butt; stroke-linejoin:round; stroke-width:4; stroke-opacity:1; fill:none" points="
  298.114,157.535 461.554,157.535 
  "/>
<path clip-path="url(#clip730)" d="M502.637 177.223 Q500.831 181.852 499.118 183.264 Q497.405 184.676 494.535 184.676 L491.132 184.676 L491.132 181.112 L493.632 181.112 Q495.391 181.112 496.364 180.278 Q497.336 179.445 498.516 176.343 L499.28 174.399 L488.794 148.889 L493.308 148.889 L501.41 169.167 L509.512 148.889 L514.026 148.889 L502.637 177.223 Z" fill="#000000" fill-rule="evenodd" fill-opacity="1" /><path clip-path="url(#clip730)" d="M521.317 170.88 L528.956 170.88 L528.956 144.515 L520.646 146.181 L520.646 141.922 L528.91 140.255 L533.586 140.255 L533.586 170.88 L541.225 170.88 L541.225 174.815 L521.317 174.815 L521.317 170.88 Z" fill="#000000" fill-rule="evenodd" fill-opacity="1" /></svg>
