<?xml version="1.0" encoding="utf-8"?>
<svg xmlns="http://www.w3.org/2000/svg" xmlns:xlink="http://www.w3.org/1999/xlink" width="672" height="480" viewBox="0 0 2688 1920">
<defs>
  <clipPath id="clip120">
    <rect x="0" y="0" width="2688" height="1920"/>
  </clipPath>
</defs>
<path clip-path="url(#clip120)" d="
M0 1920 L2688 1920 L2688 0 L0 0  Z
  " fill="#ffffff" fill-rule="evenodd" fill-opacity="1"/>
<defs>
  <clipPath id="clip121">
    <rect x="537" y="0" width="1883" height="1883"/>
  </clipPath>
</defs>
<path clip-path="url(#clip120)" d="
M189.154 1800.78 L2640.76 1800.78 L2640.76 47.2441 L189.154 47.2441  Z
  " fill="#ffffff" fill-rule="evenodd" fill-opacity="1"/>
<defs>
  <clipPath id="clip122">
    <rect x="189" y="47" width="2453" height="1755"/>
  </clipPath>
</defs>
<polyline clip-path="url(#clip122)" style="stroke:#000000; stroke-linecap:butt; stroke-linejoin:round; stroke-width:2; stroke-opacity:0.1; fill:none" points="
  227.72,1800.78 227.72,47.2441 
  "/>
<polyline clip-path="url(#clip122)" style="stroke:#000000; stroke-linecap:butt; stroke-linejoin:round; stroke-width:2; stroke-opacity:0.1; fill:none" points="
  815.614,1800.78 815.614,47.2441 
  "/>
<polyline clip-path="url(#clip122)" style="stroke:#000000; stroke-linecap:butt; stroke-linejoin:round; stroke-width:2; stroke-opacity:0.1; fill:none" points="
  1403.51,1800.78 1403.51,47.2441 
  "/>
<polyline clip-path="url(#clip122)" style="stroke:#000000; stroke-linecap:butt; stroke-linejoin:round; stroke-width:2; stroke-opacity:0.1; fill:none" points="
  1991.4,1800.78 1991.4,47.2441 
  "/>
<polyline clip-path="url(#clip122)" style="stroke:#000000; stroke-linecap:butt; stroke-linejoin:round; stroke-width:2; stroke-opacity:0.1; fill:none" points="
  2579.29,1800.78 2579.29,47.2441 
  "/>
<polyline clip-path="url(#clip120)" style="stroke:#000000; stroke-linecap:butt; stroke-linejoin:round; stroke-width:4; stroke-opacity:1; fill:none" points="
  189.154,1800.78 2640.76,1800.78 
  "/>
<polyline clip-path="url(#clip120)" style="stroke:#000000; stroke-linecap:butt; stroke-linejoin:round; stroke-width:4; stroke-opacity:1; fill:none" points="
  227.72,1800.78 227.72,1781.88 
  "/>
<polyline clip-path="url(#clip120)" style="stroke:#000000; stroke-linecap:butt; stroke-linejoin:round; stroke-width:4; stroke-opacity:1; fill:none" points="
  815.614,1800.78 815.614,1781.88 
  "/>
<polyline clip-path="url(#clip120)" style="stroke:#000000; stroke-linecap:butt; stroke-linejoin:round; stroke-width:4; stroke-opacity:1; fill:none" points="
  1403.51,1800.78 1403.51,1781.88 
  "/>
<polyline clip-path="url(#clip120)" style="stroke:#000000; stroke-linecap:butt; stroke-linejoin:round; stroke-width:4; stroke-opacity:1; fill:none" points="
  1991.4,1800.78 1991.4,1781.88 
  "/>
<polyline clip-path="url(#clip120)" style="stroke:#000000; stroke-linecap:butt; stroke-linejoin:round; stroke-width:4; stroke-opacity:1; fill:none" points="
  2579.29,1800.78 2579.29,1781.88 
  "/>
<path clip-path="url(#clip120)" d="M190.024 1834 Q186.412 1834 184.584 1837.57 Q182.778 1841.11 182.778 1848.24 Q182.778 1855.34 184.584 1858.91 Q186.412 1862.45 190.024 1862.45 Q193.658 1862.45 195.463 1858.91 Q197.292 1855.34 197.292 1848.24 Q197.292 1841.11 195.463 1837.57 Q193.658 1834 190.024 1834 M190.024 1830.3 Q195.834 1830.3 198.889 1834.9 Q201.968 1839.49 201.968 1848.24 Q201.968 1856.96 198.889 1861.57 Q195.834 1866.15 190.024 1866.15 Q184.213 1866.15 181.135 1861.57 Q178.079 1856.96 178.079 1848.24 Q178.079 1839.49 181.135 1834.9 Q184.213 1830.3 190.024 1830.3 Z" fill="#000000" fill-rule="evenodd" fill-opacity="1" /><path clip-path="url(#clip120)" d="M210.185 1859.6 L215.07 1859.6 L215.07 1865.48 L210.185 1865.48 L210.185 1859.6 Z" fill="#000000" fill-rule="evenodd" fill-opacity="1" /><path clip-path="url(#clip120)" d="M235.255 1834 Q231.644 1834 229.815 1837.57 Q228.009 1841.11 228.009 1848.24 Q228.009 1855.34 229.815 1858.91 Q231.644 1862.45 235.255 1862.45 Q238.889 1862.45 240.695 1858.91 Q242.523 1855.34 242.523 1848.24 Q242.523 1841.11 240.695 1837.57 Q238.889 1834 235.255 1834 M235.255 1830.3 Q241.065 1830.3 244.12 1834.9 Q247.199 1839.49 247.199 1848.24 Q247.199 1856.96 244.12 1861.57 Q241.065 1866.15 235.255 1866.15 Q229.445 1866.15 226.366 1861.57 Q223.31 1856.96 223.31 1848.24 Q223.31 1839.49 226.366 1834.9 Q229.445 1830.3 235.255 1830.3 Z" fill="#000000" fill-rule="evenodd" fill-opacity="1" /><path clip-path="url(#clip120)" d="M265.417 1834 Q261.806 1834 259.977 1837.57 Q258.171 1841.11 258.171 1848.24 Q258.171 1855.34 259.977 1858.91 Q261.806 1862.45 265.417 1862.45 Q269.051 1862.45 270.856 1858.91 Q272.685 1855.34 272.685 1848.24 Q272.685 1841.11 270.856 1837.57 Q269.051 1834 265.417 1834 M265.417 1830.3 Q271.227 1830.3 274.282 1834.9 Q277.361 1839.49 277.361 1848.24 Q277.361 1856.96 274.282 1861.57 Q271.227 1866.15 265.417 1866.15 Q259.606 1866.15 256.528 1861.57 Q253.472 1856.96 253.472 1848.24 Q253.472 1839.49 256.528 1834.9 Q259.606 1830.3 265.417 1830.3 Z" fill="#000000" fill-rule="evenodd" fill-opacity="1" /><path clip-path="url(#clip120)" d="M778.415 1834 Q774.804 1834 772.975 1837.57 Q771.169 1841.11 771.169 1848.24 Q771.169 1855.34 772.975 1858.91 Q774.804 1862.45 778.415 1862.45 Q782.049 1862.45 783.854 1858.91 Q785.683 1855.34 785.683 1848.24 Q785.683 1841.11 783.854 1837.57 Q782.049 1834 778.415 1834 M778.415 1830.3 Q784.225 1830.3 787.28 1834.9 Q790.359 1839.49 790.359 1848.24 Q790.359 1856.96 787.28 1861.57 Q784.225 1866.15 778.415 1866.15 Q772.604 1866.15 769.526 1861.57 Q766.47 1856.96 766.47 1848.24 Q766.47 1839.49 769.526 1834.9 Q772.604 1830.3 778.415 1830.3 Z" fill="#000000" fill-rule="evenodd" fill-opacity="1" /><path clip-path="url(#clip120)" d="M798.577 1859.6 L803.461 1859.6 L803.461 1865.48 L798.577 1865.48 L798.577 1859.6 Z" fill="#000000" fill-rule="evenodd" fill-opacity="1" /><path clip-path="url(#clip120)" d="M817.674 1861.55 L833.993 1861.55 L833.993 1865.48 L812.049 1865.48 L812.049 1861.55 Q814.711 1858.79 819.294 1854.16 Q823.901 1849.51 825.081 1848.17 Q827.326 1845.65 828.206 1843.91 Q829.109 1842.15 829.109 1840.46 Q829.109 1837.71 827.164 1835.97 Q825.243 1834.23 822.141 1834.23 Q819.942 1834.23 817.489 1835 Q815.058 1835.76 812.28 1837.31 L812.28 1832.59 Q815.104 1831.46 817.558 1830.88 Q820.012 1830.3 822.049 1830.3 Q827.419 1830.3 830.613 1832.98 Q833.808 1835.67 833.808 1840.16 Q833.808 1842.29 832.998 1844.21 Q832.211 1846.11 830.104 1848.7 Q829.525 1849.37 826.424 1852.59 Q823.322 1855.78 817.674 1861.55 Z" fill="#000000" fill-rule="evenodd" fill-opacity="1" /><path clip-path="url(#clip120)" d="M843.854 1830.92 L862.21 1830.92 L862.21 1834.86 L848.136 1834.86 L848.136 1843.33 Q849.155 1842.98 850.174 1842.82 Q851.192 1842.64 852.211 1842.64 Q857.998 1842.64 861.377 1845.81 Q864.757 1848.98 864.757 1854.4 Q864.757 1859.97 861.285 1863.08 Q857.812 1866.15 851.493 1866.15 Q849.317 1866.15 847.049 1865.78 Q844.803 1865.41 842.396 1864.67 L842.396 1859.97 Q844.479 1861.11 846.701 1861.66 Q848.924 1862.22 851.4 1862.22 Q855.405 1862.22 857.743 1860.11 Q860.081 1858.01 860.081 1854.4 Q860.081 1850.78 857.743 1848.68 Q855.405 1846.57 851.4 1846.57 Q849.525 1846.57 847.65 1846.99 Q845.799 1847.4 843.854 1848.28 L843.854 1830.92 Z" fill="#000000" fill-rule="evenodd" fill-opacity="1" /><path clip-path="url(#clip120)" d="M1365.81 1834 Q1362.2 1834 1360.37 1837.57 Q1358.57 1841.11 1358.57 1848.24 Q1358.57 1855.34 1360.37 1858.91 Q1362.2 1862.45 1365.81 1862.45 Q1369.44 1862.45 1371.25 1858.91 Q1373.08 1855.34 1373.08 1848.24 Q1373.08 1841.11 1371.25 1837.57 Q1369.44 1834 1365.81 1834 M1365.81 1830.3 Q1371.62 1830.3 1374.68 1834.9 Q1377.75 1839.49 1377.75 1848.24 Q1377.75 1856.96 1374.68 1861.57 Q1371.62 1866.15 1365.81 1866.15 Q1360 1866.15 1356.92 1861.57 Q1353.87 1856.96 1353.87 1848.24 Q1353.87 1839.49 1356.92 1834.9 Q1360 1830.3 1365.81 1830.3 Z" fill="#000000" fill-rule="evenodd" fill-opacity="1" /><path clip-path="url(#clip120)" d="M1385.97 1859.6 L1390.86 1859.6 L1390.86 1865.48 L1385.97 1865.48 L1385.97 1859.6 Z" fill="#000000" fill-rule="evenodd" fill-opacity="1" /><path clip-path="url(#clip120)" d="M1401.09 1830.92 L1419.44 1830.92 L1419.44 1834.86 L1405.37 1834.86 L1405.37 1843.33 Q1406.39 1842.98 1407.41 1842.82 Q1408.43 1842.64 1409.44 1842.64 Q1415.23 1842.64 1418.61 1845.81 Q1421.99 1848.98 1421.99 1854.4 Q1421.99 1859.97 1418.52 1863.08 Q1415.05 1866.15 1408.73 1866.15 Q1406.55 1866.15 1404.28 1865.78 Q1402.04 1865.41 1399.63 1864.67 L1399.63 1859.97 Q1401.71 1861.11 1403.94 1861.66 Q1406.16 1862.22 1408.63 1862.22 Q1412.64 1862.22 1414.98 1860.11 Q1417.31 1858.01 1417.31 1854.4 Q1417.31 1850.78 1414.98 1848.68 Q1412.64 1846.57 1408.63 1846.57 Q1406.76 1846.57 1404.88 1846.99 Q1403.03 1847.4 1401.09 1848.28 L1401.09 1830.92 Z" fill="#000000" fill-rule="evenodd" fill-opacity="1" /><path clip-path="url(#clip120)" d="M1441.2 1834 Q1437.59 1834 1435.76 1837.57 Q1433.96 1841.11 1433.96 1848.24 Q1433.96 1855.34 1435.76 1858.91 Q1437.59 1862.45 1441.2 1862.45 Q1444.84 1862.45 1446.64 1858.91 Q1448.47 1855.34 1448.47 1848.24 Q1448.47 1841.11 1446.64 1837.57 Q1444.84 1834 1441.2 1834 M1441.2 1830.3 Q1447.01 1830.3 1450.07 1834.9 Q1453.15 1839.49 1453.15 1848.24 Q1453.15 1856.96 1450.07 1861.57 Q1447.01 1866.15 1441.2 1866.15 Q1435.39 1866.15 1432.31 1861.57 Q1429.26 1856.96 1429.26 1848.24 Q1429.26 1839.49 1432.31 1834.9 Q1435.39 1830.3 1441.2 1830.3 Z" fill="#000000" fill-rule="evenodd" fill-opacity="1" /><path clip-path="url(#clip120)" d="M1954.2 1834 Q1950.59 1834 1948.76 1837.57 Q1946.96 1841.11 1946.96 1848.24 Q1946.96 1855.34 1948.76 1858.91 Q1950.59 1862.45 1954.2 1862.45 Q1957.84 1862.45 1959.64 1858.91 Q1961.47 1855.34 1961.47 1848.24 Q1961.47 1841.11 1959.64 1837.57 Q1957.84 1834 1954.2 1834 M1954.2 1830.3 Q1960.01 1830.3 1963.07 1834.9 Q1966.15 1839.49 1966.15 1848.24 Q1966.15 1856.96 1963.07 1861.57 Q1960.01 1866.15 1954.2 1866.15 Q1948.39 1866.15 1945.31 1861.57 Q1942.26 1856.96 1942.26 1848.24 Q1942.26 1839.49 1945.31 1834.9 Q1948.39 1830.3 1954.2 1830.3 Z" fill="#000000" fill-rule="evenodd" fill-opacity="1" /><path clip-path="url(#clip120)" d="M1974.36 1859.6 L1979.25 1859.6 L1979.25 1865.48 L1974.36 1865.48 L1974.36 1859.6 Z" fill="#000000" fill-rule="evenodd" fill-opacity="1" /><path clip-path="url(#clip120)" d="M1988.25 1830.92 L2010.47 1830.92 L2010.47 1832.91 L1997.93 1865.48 L1993.04 1865.48 L2004.85 1834.86 L1988.25 1834.86 L1988.25 1830.92 Z" fill="#000000" fill-rule="evenodd" fill-opacity="1" /><path clip-path="url(#clip120)" d="M2019.64 1830.92 L2038 1830.92 L2038 1834.86 L2023.92 1834.86 L2023.92 1843.33 Q2024.94 1842.98 2025.96 1842.82 Q2026.98 1842.64 2028 1842.64 Q2033.78 1842.64 2037.16 1845.81 Q2040.54 1848.98 2040.54 1854.4 Q2040.54 1859.97 2037.07 1863.08 Q2033.6 1866.15 2027.28 1866.15 Q2025.1 1866.15 2022.84 1865.78 Q2020.59 1865.41 2018.18 1864.67 L2018.18 1859.97 Q2020.27 1861.11 2022.49 1861.66 Q2024.71 1862.22 2027.19 1862.22 Q2031.19 1862.22 2033.53 1860.11 Q2035.87 1858.01 2035.87 1854.4 Q2035.87 1850.78 2033.53 1848.68 Q2031.19 1846.57 2027.19 1846.57 Q2025.31 1846.57 2023.44 1846.99 Q2021.59 1847.4 2019.64 1848.28 L2019.64 1830.92 Z" fill="#000000" fill-rule="evenodd" fill-opacity="1" /><path clip-path="url(#clip120)" d="M2531.37 1861.55 L2539 1861.55 L2539 1835.18 L2530.69 1836.85 L2530.69 1832.59 L2538.96 1830.92 L2543.63 1830.92 L2543.63 1861.55 L2551.27 1861.55 L2551.27 1865.48 L2531.37 1865.48 L2531.37 1861.55 Z" fill="#000000" fill-rule="evenodd" fill-opacity="1" /><path clip-path="url(#clip120)" d="M2560.72 1859.6 L2565.6 1859.6 L2565.6 1865.48 L2560.72 1865.48 L2560.72 1859.6 Z" fill="#000000" fill-rule="evenodd" fill-opacity="1" /><path clip-path="url(#clip120)" d="M2585.79 1834 Q2582.18 1834 2580.35 1837.57 Q2578.54 1841.11 2578.54 1848.24 Q2578.54 1855.34 2580.35 1858.91 Q2582.18 1862.45 2585.79 1862.45 Q2589.42 1862.45 2591.23 1858.91 Q2593.06 1855.34 2593.06 1848.24 Q2593.06 1841.11 2591.23 1837.57 Q2589.42 1834 2585.79 1834 M2585.79 1830.3 Q2591.6 1830.3 2594.65 1834.9 Q2597.73 1839.49 2597.73 1848.24 Q2597.73 1856.96 2594.65 1861.57 Q2591.6 1866.15 2585.79 1866.15 Q2579.98 1866.15 2576.9 1861.57 Q2573.84 1856.96 2573.84 1848.24 Q2573.84 1839.49 2576.9 1834.9 Q2579.98 1830.3 2585.79 1830.3 Z" fill="#000000" fill-rule="evenodd" fill-opacity="1" /><path clip-path="url(#clip120)" d="M2615.95 1834 Q2612.34 1834 2610.51 1837.57 Q2608.7 1841.11 2608.7 1848.24 Q2608.7 1855.34 2610.51 1858.91 Q2612.34 1862.45 2615.95 1862.45 Q2619.58 1862.45 2621.39 1858.91 Q2623.22 1855.34 2623.22 1848.24 Q2623.22 1841.11 2621.39 1837.57 Q2619.58 1834 2615.95 1834 M2615.95 1830.3 Q2621.76 1830.3 2624.81 1834.9 Q2627.89 1839.49 2627.89 1848.24 Q2627.89 1856.96 2624.81 1861.57 Q2621.76 1866.15 2615.95 1866.15 Q2610.14 1866.15 2607.06 1861.57 Q2604 1856.96 2604 1848.24 Q2604 1839.49 2607.06 1834.9 Q2610.14 1830.3 2615.95 1830.3 Z" fill="#000000" fill-rule="evenodd" fill-opacity="1" /><polyline clip-path="url(#clip122)" style="stroke:#000000; stroke-linecap:butt; stroke-linejoin:round; stroke-width:2; stroke-opacity:0.1; fill:none" points="
  189.154,1774.3 2640.76,1774.3 
  "/>
<polyline clip-path="url(#clip122)" style="stroke:#000000; stroke-linecap:butt; stroke-linejoin:round; stroke-width:2; stroke-opacity:0.1; fill:none" points="
  189.154,1354.6 2640.76,1354.6 
  "/>
<polyline clip-path="url(#clip122)" style="stroke:#000000; stroke-linecap:butt; stroke-linejoin:round; stroke-width:2; stroke-opacity:0.1; fill:none" points="
  189.154,934.91 2640.76,934.91 
  "/>
<polyline clip-path="url(#clip122)" style="stroke:#000000; stroke-linecap:butt; stroke-linejoin:round; stroke-width:2; stroke-opacity:0.1; fill:none" points="
  189.154,515.217 2640.76,515.217 
  "/>
<polyline clip-path="url(#clip122)" style="stroke:#000000; stroke-linecap:butt; stroke-linejoin:round; stroke-width:2; stroke-opacity:0.1; fill:none" points="
  189.154,95.5241 2640.76,95.5241 
  "/>
<polyline clip-path="url(#clip120)" style="stroke:#000000; stroke-linecap:butt; stroke-linejoin:round; stroke-width:4; stroke-opacity:1; fill:none" points="
  189.154,1800.78 189.154,47.2441 
  "/>
<polyline clip-path="url(#clip120)" style="stroke:#000000; stroke-linecap:butt; stroke-linejoin:round; stroke-width:4; stroke-opacity:1; fill:none" points="
  189.154,1774.3 208.052,1774.3 
  "/>
<polyline clip-path="url(#clip120)" style="stroke:#000000; stroke-linecap:butt; stroke-linejoin:round; stroke-width:4; stroke-opacity:1; fill:none" points="
  189.154,1354.6 208.052,1354.6 
  "/>
<polyline clip-path="url(#clip120)" style="stroke:#000000; stroke-linecap:butt; stroke-linejoin:round; stroke-width:4; stroke-opacity:1; fill:none" points="
  189.154,934.91 208.052,934.91 
  "/>
<polyline clip-path="url(#clip120)" style="stroke:#000000; stroke-linecap:butt; stroke-linejoin:round; stroke-width:4; stroke-opacity:1; fill:none" points="
  189.154,515.217 208.052,515.217 
  "/>
<polyline clip-path="url(#clip120)" style="stroke:#000000; stroke-linecap:butt; stroke-linejoin:round; stroke-width:4; stroke-opacity:1; fill:none" points="
  189.154,95.5241 208.052,95.5241 
  "/>
<path clip-path="url(#clip120)" d="M61.4965 1760.09 Q57.8854 1760.09 56.0567 1763.66 Q54.2512 1767.2 54.2512 1774.33 Q54.2512 1781.44 56.0567 1785 Q57.8854 1788.54 61.4965 1788.54 Q65.1307 1788.54 66.9363 1785 Q68.765 1781.44 68.765 1774.33 Q68.765 1767.2 66.9363 1763.66 Q65.1307 1760.09 61.4965 1760.09 M61.4965 1756.39 Q67.3067 1756.39 70.3622 1761 Q73.4409 1765.58 73.4409 1774.33 Q73.4409 1783.06 70.3622 1787.66 Q67.3067 1792.25 61.4965 1792.25 Q55.6864 1792.25 52.6077 1787.66 Q49.5521 1783.06 49.5521 1774.33 Q49.5521 1765.58 52.6077 1761 Q55.6864 1756.39 61.4965 1756.39 Z" fill="#000000" fill-rule="evenodd" fill-opacity="1" /><path clip-path="url(#clip120)" d="M81.6584 1785.7 L86.5427 1785.7 L86.5427 1791.58 L81.6584 1791.58 L81.6584 1785.7 Z" fill="#000000" fill-rule="evenodd" fill-opacity="1" /><path clip-path="url(#clip120)" d="M106.728 1760.09 Q103.117 1760.09 101.288 1763.66 Q99.4824 1767.2 99.4824 1774.33 Q99.4824 1781.44 101.288 1785 Q103.117 1788.54 106.728 1788.54 Q110.362 1788.54 112.168 1785 Q113.996 1781.44 113.996 1774.33 Q113.996 1767.2 112.168 1763.66 Q110.362 1760.09 106.728 1760.09 M106.728 1756.39 Q112.538 1756.39 115.593 1761 Q118.672 1765.58 118.672 1774.33 Q118.672 1783.06 115.593 1787.66 Q112.538 1792.25 106.728 1792.25 Q100.918 1792.25 97.8389 1787.66 Q94.7834 1783.06 94.7834 1774.33 Q94.7834 1765.58 97.8389 1761 Q100.918 1756.39 106.728 1756.39 Z" fill="#000000" fill-rule="evenodd" fill-opacity="1" /><path clip-path="url(#clip120)" d="M136.89 1760.09 Q133.279 1760.09 131.45 1763.66 Q129.644 1767.2 129.644 1774.33 Q129.644 1781.44 131.45 1785 Q133.279 1788.54 136.89 1788.54 Q140.524 1788.54 142.329 1785 Q144.158 1781.44 144.158 1774.33 Q144.158 1767.2 142.329 1763.66 Q140.524 1760.09 136.89 1760.09 M136.89 1756.39 Q142.7 1756.39 145.755 1761 Q148.834 1765.58 148.834 1774.33 Q148.834 1783.06 145.755 1787.66 Q142.7 1792.25 136.89 1792.25 Q131.079 1792.25 128.001 1787.66 Q124.945 1783.06 124.945 1774.33 Q124.945 1765.58 128.001 1761 Q131.079 1756.39 136.89 1756.39 Z" fill="#000000" fill-rule="evenodd" fill-opacity="1" /><path clip-path="url(#clip120)" d="M62.4919 1340.4 Q58.8808 1340.4 57.0521 1343.97 Q55.2465 1347.51 55.2465 1354.64 Q55.2465 1361.74 57.0521 1365.31 Q58.8808 1368.85 62.4919 1368.85 Q66.1261 1368.85 67.9317 1365.31 Q69.7604 1361.74 69.7604 1354.64 Q69.7604 1347.51 67.9317 1343.97 Q66.1261 1340.4 62.4919 1340.4 M62.4919 1336.7 Q68.302 1336.7 71.3576 1341.3 Q74.4363 1345.89 74.4363 1354.64 Q74.4363 1363.36 71.3576 1367.97 Q68.302 1372.55 62.4919 1372.55 Q56.6817 1372.55 53.603 1367.97 Q50.5475 1363.36 50.5475 1354.64 Q50.5475 1345.89 53.603 1341.3 Q56.6817 1336.7 62.4919 1336.7 Z" fill="#000000" fill-rule="evenodd" fill-opacity="1" /><path clip-path="url(#clip120)" d="M82.6538 1366 L87.538 1366 L87.538 1371.88 L82.6538 1371.88 L82.6538 1366 Z" fill="#000000" fill-rule="evenodd" fill-opacity="1" /><path clip-path="url(#clip120)" d="M101.751 1367.95 L118.07 1367.95 L118.07 1371.88 L96.126 1371.88 L96.126 1367.95 Q98.788 1365.19 103.371 1360.56 Q107.978 1355.91 109.158 1354.57 Q111.404 1352.05 112.283 1350.31 Q113.186 1348.55 113.186 1346.86 Q113.186 1344.11 111.242 1342.37 Q109.32 1340.63 106.218 1340.63 Q104.019 1340.63 101.566 1341.4 Q99.1352 1342.16 96.3574 1343.71 L96.3574 1338.99 Q99.1815 1337.86 101.635 1337.28 Q104.089 1336.7 106.126 1336.7 Q111.496 1336.7 114.691 1339.38 Q117.885 1342.07 117.885 1346.56 Q117.885 1348.69 117.075 1350.61 Q116.288 1352.51 114.181 1355.1 Q113.603 1355.77 110.501 1358.99 Q107.399 1362.18 101.751 1367.95 Z" fill="#000000" fill-rule="evenodd" fill-opacity="1" /><path clip-path="url(#clip120)" d="M127.931 1337.32 L146.288 1337.32 L146.288 1341.26 L132.214 1341.26 L132.214 1349.73 Q133.232 1349.38 134.251 1349.22 Q135.269 1349.04 136.288 1349.04 Q142.075 1349.04 145.454 1352.21 Q148.834 1355.38 148.834 1360.79 Q148.834 1366.37 145.362 1369.48 Q141.89 1372.55 135.57 1372.55 Q133.394 1372.55 131.126 1372.18 Q128.88 1371.81 126.473 1371.07 L126.473 1366.37 Q128.556 1367.51 130.779 1368.06 Q133.001 1368.62 135.478 1368.62 Q139.482 1368.62 141.82 1366.51 Q144.158 1364.41 144.158 1360.79 Q144.158 1357.18 141.82 1355.08 Q139.482 1352.97 135.478 1352.97 Q133.603 1352.97 131.728 1353.39 Q129.876 1353.8 127.931 1354.68 L127.931 1337.32 Z" fill="#000000" fill-rule="evenodd" fill-opacity="1" /><path clip-path="url(#clip120)" d="M61.4965 920.709 Q57.8854 920.709 56.0567 924.273 Q54.2512 927.815 54.2512 934.945 Q54.2512 942.051 56.0567 945.616 Q57.8854 949.158 61.4965 949.158 Q65.1307 949.158 66.9363 945.616 Q68.765 942.051 68.765 934.945 Q68.765 927.815 66.9363 924.273 Q65.1307 920.709 61.4965 920.709 M61.4965 917.005 Q67.3067 917.005 70.3622 921.611 Q73.4409 926.195 73.4409 934.945 Q73.4409 943.671 70.3622 948.278 Q67.3067 952.861 61.4965 952.861 Q55.6864 952.861 52.6077 948.278 Q49.5521 943.671 49.5521 934.945 Q49.5521 926.195 52.6077 921.611 Q55.6864 917.005 61.4965 917.005 Z" fill="#000000" fill-rule="evenodd" fill-opacity="1" /><path clip-path="url(#clip120)" d="M81.6584 946.31 L86.5427 946.31 L86.5427 952.19 L81.6584 952.19 L81.6584 946.31 Z" fill="#000000" fill-rule="evenodd" fill-opacity="1" /><path clip-path="url(#clip120)" d="M96.7741 917.63 L115.13 917.63 L115.13 921.565 L101.056 921.565 L101.056 930.037 Q102.075 929.69 103.094 929.528 Q104.112 929.343 105.131 929.343 Q110.918 929.343 114.297 932.514 Q117.677 935.685 117.677 941.102 Q117.677 946.681 114.205 949.783 Q110.732 952.861 104.413 952.861 Q102.237 952.861 99.9685 952.491 Q97.7232 952.121 95.3158 951.38 L95.3158 946.681 Q97.3991 947.815 99.6213 948.371 Q101.844 948.926 104.32 948.926 Q108.325 948.926 110.663 946.82 Q113.001 944.713 113.001 941.102 Q113.001 937.491 110.663 935.384 Q108.325 933.278 104.32 933.278 Q102.445 933.278 100.57 933.695 Q98.7185 934.111 96.7741 934.991 L96.7741 917.63 Z" fill="#000000" fill-rule="evenodd" fill-opacity="1" /><path clip-path="url(#clip120)" d="M136.89 920.709 Q133.279 920.709 131.45 924.273 Q129.644 927.815 129.644 934.945 Q129.644 942.051 131.45 945.616 Q133.279 949.158 136.89 949.158 Q140.524 949.158 142.329 945.616 Q144.158 942.051 144.158 934.945 Q144.158 927.815 142.329 924.273 Q140.524 920.709 136.89 920.709 M136.89 917.005 Q142.7 917.005 145.755 921.611 Q148.834 926.195 148.834 934.945 Q148.834 943.671 145.755 948.278 Q142.7 952.861 136.89 952.861 Q131.079 952.861 128.001 948.278 Q124.945 943.671 124.945 934.945 Q124.945 926.195 128.001 921.611 Q131.079 917.005 136.89 917.005 Z" fill="#000000" fill-rule="evenodd" fill-opacity="1" /><path clip-path="url(#clip120)" d="M62.4919 501.016 Q58.8808 501.016 57.0521 504.581 Q55.2465 508.122 55.2465 515.252 Q55.2465 522.358 57.0521 525.923 Q58.8808 529.465 62.4919 529.465 Q66.1261 529.465 67.9317 525.923 Q69.7604 522.358 69.7604 515.252 Q69.7604 508.122 67.9317 504.581 Q66.1261 501.016 62.4919 501.016 M62.4919 497.312 Q68.302 497.312 71.3576 501.919 Q74.4363 506.502 74.4363 515.252 Q74.4363 523.979 71.3576 528.585 Q68.302 533.168 62.4919 533.168 Q56.6817 533.168 53.603 528.585 Q50.5475 523.979 50.5475 515.252 Q50.5475 506.502 53.603 501.919 Q56.6817 497.312 62.4919 497.312 Z" fill="#000000" fill-rule="evenodd" fill-opacity="1" /><path clip-path="url(#clip120)" d="M82.6538 526.617 L87.538 526.617 L87.538 532.497 L82.6538 532.497 L82.6538 526.617 Z" fill="#000000" fill-rule="evenodd" fill-opacity="1" /><path clip-path="url(#clip120)" d="M96.5426 497.937 L118.765 497.937 L118.765 499.928 L106.218 532.497 L101.334 532.497 L113.14 501.872 L96.5426 501.872 L96.5426 497.937 Z" fill="#000000" fill-rule="evenodd" fill-opacity="1" /><path clip-path="url(#clip120)" d="M127.931 497.937 L146.288 497.937 L146.288 501.872 L132.214 501.872 L132.214 510.344 Q133.232 509.997 134.251 509.835 Q135.269 509.65 136.288 509.65 Q142.075 509.65 145.454 512.821 Q148.834 515.993 148.834 521.409 Q148.834 526.988 145.362 530.09 Q141.89 533.168 135.57 533.168 Q133.394 533.168 131.126 532.798 Q128.88 532.428 126.473 531.687 L126.473 526.988 Q128.556 528.122 130.779 528.678 Q133.001 529.233 135.478 529.233 Q139.482 529.233 141.82 527.127 Q144.158 525.02 144.158 521.409 Q144.158 517.798 141.82 515.692 Q139.482 513.585 135.478 513.585 Q133.603 513.585 131.728 514.002 Q129.876 514.418 127.931 515.298 L127.931 497.937 Z" fill="#000000" fill-rule="evenodd" fill-opacity="1" /><path clip-path="url(#clip120)" d="M52.3067 108.869 L59.9456 108.869 L59.9456 82.5034 L51.6354 84.17 L51.6354 79.9108 L59.8993 78.2441 L64.5752 78.2441 L64.5752 108.869 L72.214 108.869 L72.214 112.804 L52.3067 112.804 L52.3067 108.869 Z" fill="#000000" fill-rule="evenodd" fill-opacity="1" /><path clip-path="url(#clip120)" d="M81.6584 106.925 L86.5427 106.925 L86.5427 112.804 L81.6584 112.804 L81.6584 106.925 Z" fill="#000000" fill-rule="evenodd" fill-opacity="1" /><path clip-path="url(#clip120)" d="M106.728 81.3228 Q103.117 81.3228 101.288 84.8876 Q99.4824 88.4293 99.4824 95.5588 Q99.4824 102.665 101.288 106.23 Q103.117 109.772 106.728 109.772 Q110.362 109.772 112.168 106.23 Q113.996 102.665 113.996 95.5588 Q113.996 88.4293 112.168 84.8876 Q110.362 81.3228 106.728 81.3228 M106.728 77.6191 Q112.538 77.6191 115.593 82.2256 Q118.672 86.8089 118.672 95.5588 Q118.672 104.286 115.593 108.892 Q112.538 113.475 106.728 113.475 Q100.918 113.475 97.8389 108.892 Q94.7834 104.286 94.7834 95.5588 Q94.7834 86.8089 97.8389 82.2256 Q100.918 77.6191 106.728 77.6191 Z" fill="#000000" fill-rule="evenodd" fill-opacity="1" /><path clip-path="url(#clip120)" d="M136.89 81.3228 Q133.279 81.3228 131.45 84.8876 Q129.644 88.4293 129.644 95.5588 Q129.644 102.665 131.45 106.23 Q133.279 109.772 136.89 109.772 Q140.524 109.772 142.329 106.23 Q144.158 102.665 144.158 95.5588 Q144.158 88.4293 142.329 84.8876 Q140.524 81.3228 136.89 81.3228 M136.89 77.6191 Q142.7 77.6191 145.755 82.2256 Q148.834 86.8089 148.834 95.5588 Q148.834 104.286 145.755 108.892 Q142.7 113.475 136.89 113.475 Q131.079 113.475 128.001 108.892 Q124.945 104.286 124.945 95.5588 Q124.945 86.8089 128.001 82.2256 Q131.079 77.6191 136.89 77.6191 Z" fill="#000000" fill-rule="evenodd" fill-opacity="1" /><polyline clip-path="url(#clip122)" style="stroke:#009af9; stroke-linecap:butt; stroke-linejoin:round; stroke-width:4; stroke-opacity:1; fill:none" points="
  1699.45,597.71 1715.32,1056.01 2277.26,1613.62 2013.49,629.341 1500.38,179.962 942.094,1154.93 979.404,1355.16 381.867,1376.69 1260.71,795.443 629.294,1512.86 
  1543.49,442.277 520.681,311.575 1712.57,1420.98 1439.04,1553.04 722.38,201.195 491.05,1317.71 358.337,417.891 1005.62,1480.1 1185.82,1729.99 860.108,877.858 
  980.534,1584.24 2238.01,1385.17 1234.19,1105.72 1020.71,1274.08 2065.54,1570.4 2103.55,333.024 636.176,960.206 1844.69,621.103 1953.31,1707.56 873.902,1072.56 
  911.786,355.349 1572.72,1018.4 1686.43,680.818 455.055,721.692 2010.59,1681.52 1198.96,1676.68 811.478,1076.25 2156.14,444.039 323.15,599.38 1688.99,739.006 
  1785.5,1252.78 2066.37,1630.58 531.567,840.956 1011.2,220.937 2381.47,326.43 1303.09,1391.12 2432.93,439.705 1942.8,449.869 1666.87,813.819 2240.87,1569.17 
  991.808,531.177 747.707,1456.97 2527.06,1232.06 1851.07,794.864 1547.34,1092.79 1921.9,1432.13 1592.7,894.932 1073.38,790.171 574.848,209.306 416.922,788.271 
  1370.18,1728.79 718.737,866.072 1994.13,884.146 1717.82,330.534 1190.95,1253.5 1851.85,129.258 1761.33,905.577 1451.93,113.381 566.464,959.732 909.234,1224.05 
  339.558,1129.51 582.273,1432.11 1757.02,1029.13 601.619,834.462 1753.59,379.265 2448.85,623.069 1274.42,1751.15 1094.31,539.748 2270.11,1232.06 1996.04,618.342 
  1738.73,634.47 1011.9,1471.8 299.257,749.866 636.862,490.256 555.741,724.057 389.999,913.399 2571.37,1626.59 2088.97,880.578 2484.28,96.8724 1840.99,1424.39 
  877.596,1728.05 2253.82,1091.99 2136.11,732.979 884.018,1423.44 1472.74,1147.59 301.953,492.773 921.273,345.722 1483.05,1559.61 1044.52,240.505 258.539,690.324 
  
  "/>
<path clip-path="url(#clip120)" d="
M270.874 1742.33 L568.465 1742.33 L568.465 1638.65 L270.874 1638.65  Z
  " fill="#ffffff" fill-rule="evenodd" fill-opacity="1"/>
<polyline clip-path="url(#clip120)" style="stroke:#000000; stroke-linecap:butt; stroke-linejoin:round; stroke-width:4; stroke-opacity:1; fill:none" points="
  270.874,1742.33 568.465,1742.33 568.465,1638.65 270.874,1638.65 270.874,1742.33 
  "/>
<polyline clip-path="url(#clip120)" style="stroke:#009af9; stroke-linecap:butt; stroke-linejoin:round; stroke-width:4; stroke-opacity:1; fill:none" points="
  298.114,1690.49 461.554,1690.49 
  "/>
<path clip-path="url(#clip120)" d="M502.637 1710.18 Q500.831 1714.81 499.118 1716.22 Q497.405 1717.63 494.535 1717.63 L491.132 1717.63 L491.132 1714.06 L493.632 1714.06 Q495.391 1714.06 496.364 1713.23 Q497.336 1712.4 498.516 1709.3 L499.28 1707.35 L488.794 1681.84 L493.308 1681.84 L501.41 1702.12 L509.512 1681.84 L514.026 1681.84 L502.637 1710.18 Z" fill="#000000" fill-rule="evenodd" fill-opacity="1" /><path clip-path="url(#clip120)" d="M521.317 1703.83 L528.956 1703.83 L528.956 1677.47 L520.646 1679.13 L520.646 1674.87 L528.91 1673.21 L533.586 1673.21 L533.586 1703.83 L541.225 1703.83 L541.225 1707.77 L521.317 1707.77 L521.317 1703.83 Z" fill="#000000" fill-rule="evenodd" fill-opacity="1" /></svg>
