<?xml version="1.0" encoding="utf-8"?>
<svg xmlns="http://www.w3.org/2000/svg" xmlns:xlink="http://www.w3.org/1999/xlink" width="672" height="480" viewBox="0 0 2688 1920">
<defs>
  <clipPath id="clip940">
    <rect x="0" y="0" width="2688" height="1920"/>
  </clipPath>
</defs>
<path clip-path="url(#clip940)" d="
M0 1920 L2688 1920 L2688 0 L0 0  Z
  " fill="#ffffff" fill-rule="evenodd" fill-opacity="1"/>
<defs>
  <clipPath id="clip941">
    <rect x="537" y="0" width="1883" height="1883"/>
  </clipPath>
</defs>
<path clip-path="url(#clip940)" d="
M189.154 1800.78 L2640.76 1800.78 L2640.76 47.2441 L189.154 47.2441  Z
  " fill="#ffffff" fill-rule="evenodd" fill-opacity="1"/>
<defs>
  <clipPath id="clip942">
    <rect x="189" y="47" width="2453" height="1755"/>
  </clipPath>
</defs>
<polyline clip-path="url(#clip942)" style="stroke:#000000; stroke-linecap:butt; stroke-linejoin:round; stroke-width:2; stroke-opacity:0.1; fill:none" points="
  257.853,1800.78 257.853,47.2441 
  "/>
<polyline clip-path="url(#clip942)" style="stroke:#000000; stroke-linecap:butt; stroke-linejoin:round; stroke-width:2; stroke-opacity:0.1; fill:none" points="
  843.915,1800.78 843.915,47.2441 
  "/>
<polyline clip-path="url(#clip942)" style="stroke:#000000; stroke-linecap:butt; stroke-linejoin:round; stroke-width:2; stroke-opacity:0.1; fill:none" points="
  1429.98,1800.78 1429.98,47.2441 
  "/>
<polyline clip-path="url(#clip942)" style="stroke:#000000; stroke-linecap:butt; stroke-linejoin:round; stroke-width:2; stroke-opacity:0.1; fill:none" points="
  2016.04,1800.78 2016.04,47.2441 
  "/>
<polyline clip-path="url(#clip942)" style="stroke:#000000; stroke-linecap:butt; stroke-linejoin:round; stroke-width:2; stroke-opacity:0.1; fill:none" points="
  2602.1,1800.78 2602.1,47.2441 
  "/>
<polyline clip-path="url(#clip940)" style="stroke:#000000; stroke-linecap:butt; stroke-linejoin:round; stroke-width:4; stroke-opacity:1; fill:none" points="
  189.154,1800.78 2640.76,1800.78 
  "/>
<polyline clip-path="url(#clip940)" style="stroke:#000000; stroke-linecap:butt; stroke-linejoin:round; stroke-width:4; stroke-opacity:1; fill:none" points="
  257.853,1800.78 257.853,1781.88 
  "/>
<polyline clip-path="url(#clip940)" style="stroke:#000000; stroke-linecap:butt; stroke-linejoin:round; stroke-width:4; stroke-opacity:1; fill:none" points="
  843.915,1800.78 843.915,1781.88 
  "/>
<polyline clip-path="url(#clip940)" style="stroke:#000000; stroke-linecap:butt; stroke-linejoin:round; stroke-width:4; stroke-opacity:1; fill:none" points="
  1429.98,1800.78 1429.98,1781.88 
  "/>
<polyline clip-path="url(#clip940)" style="stroke:#000000; stroke-linecap:butt; stroke-linejoin:round; stroke-width:4; stroke-opacity:1; fill:none" points="
  2016.04,1800.78 2016.04,1781.88 
  "/>
<polyline clip-path="url(#clip940)" style="stroke:#000000; stroke-linecap:butt; stroke-linejoin:round; stroke-width:4; stroke-opacity:1; fill:none" points="
  2602.1,1800.78 2602.1,1781.88 
  "/>
<path clip-path="url(#clip940)" d="M220.157 1834 Q216.546 1834 214.717 1837.57 Q212.912 1841.11 212.912 1848.24 Q212.912 1855.34 214.717 1858.91 Q216.546 1862.45 220.157 1862.45 Q223.791 1862.45 225.597 1858.91 Q227.425 1855.34 227.425 1848.24 Q227.425 1841.11 225.597 1837.57 Q223.791 1834 220.157 1834 M220.157 1830.3 Q225.967 1830.3 229.023 1834.9 Q232.101 1839.49 232.101 1848.24 Q232.101 1856.96 229.023 1861.57 Q225.967 1866.15 220.157 1866.15 Q214.347 1866.15 211.268 1861.57 Q208.213 1856.96 208.213 1848.24 Q208.213 1839.49 211.268 1834.9 Q214.347 1830.3 220.157 1830.3 Z" fill="#000000" fill-rule="evenodd" fill-opacity="1" /><path clip-path="url(#clip940)" d="M240.319 1859.6 L245.203 1859.6 L245.203 1865.48 L240.319 1865.48 L240.319 1859.6 Z" fill="#000000" fill-rule="evenodd" fill-opacity="1" /><path clip-path="url(#clip940)" d="M265.388 1834 Q261.777 1834 259.948 1837.57 Q258.143 1841.11 258.143 1848.24 Q258.143 1855.34 259.948 1858.91 Q261.777 1862.45 265.388 1862.45 Q269.022 1862.45 270.828 1858.91 Q272.657 1855.34 272.657 1848.24 Q272.657 1841.11 270.828 1837.57 Q269.022 1834 265.388 1834 M265.388 1830.3 Q271.198 1830.3 274.254 1834.9 Q277.333 1839.49 277.333 1848.24 Q277.333 1856.96 274.254 1861.57 Q271.198 1866.15 265.388 1866.15 Q259.578 1866.15 256.499 1861.57 Q253.444 1856.96 253.444 1848.24 Q253.444 1839.49 256.499 1834.9 Q259.578 1830.3 265.388 1830.3 Z" fill="#000000" fill-rule="evenodd" fill-opacity="1" /><path clip-path="url(#clip940)" d="M295.55 1834 Q291.939 1834 290.11 1837.57 Q288.305 1841.11 288.305 1848.24 Q288.305 1855.34 290.11 1858.91 Q291.939 1862.45 295.55 1862.45 Q299.184 1862.45 300.99 1858.91 Q302.819 1855.34 302.819 1848.24 Q302.819 1841.11 300.99 1837.57 Q299.184 1834 295.55 1834 M295.55 1830.3 Q301.36 1830.3 304.416 1834.9 Q307.494 1839.49 307.494 1848.24 Q307.494 1856.96 304.416 1861.57 Q301.36 1866.15 295.55 1866.15 Q289.74 1866.15 286.661 1861.57 Q283.606 1856.96 283.606 1848.24 Q283.606 1839.49 286.661 1834.9 Q289.74 1830.3 295.55 1830.3 Z" fill="#000000" fill-rule="evenodd" fill-opacity="1" /><path clip-path="url(#clip940)" d="M806.716 1834 Q803.105 1834 801.276 1837.57 Q799.471 1841.11 799.471 1848.24 Q799.471 1855.34 801.276 1858.91 Q803.105 1862.45 806.716 1862.45 Q810.35 1862.45 812.156 1858.91 Q813.985 1855.34 813.985 1848.24 Q813.985 1841.11 812.156 1837.57 Q810.35 1834 806.716 1834 M806.716 1830.3 Q812.526 1830.3 815.582 1834.9 Q818.661 1839.49 818.661 1848.24 Q818.661 1856.96 815.582 1861.57 Q812.526 1866.15 806.716 1866.15 Q800.906 1866.15 797.827 1861.57 Q794.772 1856.96 794.772 1848.24 Q794.772 1839.49 797.827 1834.9 Q800.906 1830.3 806.716 1830.3 Z" fill="#000000" fill-rule="evenodd" fill-opacity="1" /><path clip-path="url(#clip940)" d="M826.878 1859.6 L831.762 1859.6 L831.762 1865.48 L826.878 1865.48 L826.878 1859.6 Z" fill="#000000" fill-rule="evenodd" fill-opacity="1" /><path clip-path="url(#clip940)" d="M845.975 1861.55 L862.295 1861.55 L862.295 1865.48 L840.35 1865.48 L840.35 1861.55 Q843.012 1858.79 847.596 1854.16 Q852.202 1849.51 853.383 1848.17 Q855.628 1845.65 856.508 1843.91 Q857.41 1842.15 857.41 1840.46 Q857.41 1837.71 855.466 1835.97 Q853.545 1834.23 850.443 1834.23 Q848.244 1834.23 845.79 1835 Q843.359 1835.76 840.582 1837.31 L840.582 1832.59 Q843.406 1831.46 845.859 1830.88 Q848.313 1830.3 850.35 1830.3 Q855.721 1830.3 858.915 1832.98 Q862.109 1835.67 862.109 1840.16 Q862.109 1842.29 861.299 1844.21 Q860.512 1846.11 858.406 1848.7 Q857.827 1849.37 854.725 1852.59 Q851.623 1855.78 845.975 1861.55 Z" fill="#000000" fill-rule="evenodd" fill-opacity="1" /><path clip-path="url(#clip940)" d="M872.156 1830.92 L890.512 1830.92 L890.512 1834.86 L876.438 1834.86 L876.438 1843.33 Q877.457 1842.98 878.475 1842.82 Q879.494 1842.64 880.512 1842.64 Q886.299 1842.64 889.679 1845.81 Q893.058 1848.98 893.058 1854.4 Q893.058 1859.97 889.586 1863.08 Q886.114 1866.15 879.794 1866.15 Q877.619 1866.15 875.35 1865.78 Q873.105 1865.41 870.697 1864.67 L870.697 1859.97 Q872.781 1861.11 875.003 1861.66 Q877.225 1862.22 879.702 1862.22 Q883.706 1862.22 886.044 1860.11 Q888.382 1858.01 888.382 1854.4 Q888.382 1850.78 886.044 1848.68 Q883.706 1846.57 879.702 1846.57 Q877.827 1846.57 875.952 1846.99 Q874.1 1847.4 872.156 1848.28 L872.156 1830.92 Z" fill="#000000" fill-rule="evenodd" fill-opacity="1" /><path clip-path="url(#clip940)" d="M1392.28 1834 Q1388.67 1834 1386.84 1837.57 Q1385.03 1841.11 1385.03 1848.24 Q1385.03 1855.34 1386.84 1858.91 Q1388.67 1862.45 1392.28 1862.45 Q1395.91 1862.45 1397.72 1858.91 Q1399.55 1855.34 1399.55 1848.24 Q1399.55 1841.11 1397.72 1837.57 Q1395.91 1834 1392.28 1834 M1392.28 1830.3 Q1398.09 1830.3 1401.15 1834.9 Q1404.22 1839.49 1404.22 1848.24 Q1404.22 1856.96 1401.15 1861.57 Q1398.09 1866.15 1392.28 1866.15 Q1386.47 1866.15 1383.39 1861.57 Q1380.34 1856.96 1380.34 1848.24 Q1380.34 1839.49 1383.39 1834.9 Q1386.47 1830.3 1392.28 1830.3 Z" fill="#000000" fill-rule="evenodd" fill-opacity="1" /><path clip-path="url(#clip940)" d="M1412.44 1859.6 L1417.33 1859.6 L1417.33 1865.48 L1412.44 1865.48 L1412.44 1859.6 Z" fill="#000000" fill-rule="evenodd" fill-opacity="1" /><path clip-path="url(#clip940)" d="M1427.56 1830.92 L1445.91 1830.92 L1445.91 1834.86 L1431.84 1834.86 L1431.84 1843.33 Q1432.86 1842.98 1433.88 1842.82 Q1434.9 1842.64 1435.91 1842.64 Q1441.7 1842.64 1445.08 1845.81 Q1448.46 1848.98 1448.46 1854.4 Q1448.46 1859.97 1444.99 1863.08 Q1441.52 1866.15 1435.2 1866.15 Q1433.02 1866.15 1430.75 1865.78 Q1428.51 1865.41 1426.1 1864.67 L1426.1 1859.97 Q1428.18 1861.11 1430.4 1861.66 Q1432.63 1862.22 1435.1 1862.22 Q1439.11 1862.22 1441.45 1860.11 Q1443.78 1858.01 1443.78 1854.4 Q1443.78 1850.78 1441.45 1848.68 Q1439.11 1846.57 1435.1 1846.57 Q1433.23 1846.57 1431.35 1846.99 Q1429.5 1847.4 1427.56 1848.28 L1427.56 1830.92 Z" fill="#000000" fill-rule="evenodd" fill-opacity="1" /><path clip-path="url(#clip940)" d="M1467.67 1834 Q1464.06 1834 1462.23 1837.57 Q1460.43 1841.11 1460.43 1848.24 Q1460.43 1855.34 1462.23 1858.91 Q1464.06 1862.45 1467.67 1862.45 Q1471.31 1862.45 1473.11 1858.91 Q1474.94 1855.34 1474.94 1848.24 Q1474.94 1841.11 1473.11 1837.57 Q1471.31 1834 1467.67 1834 M1467.67 1830.3 Q1473.48 1830.3 1476.54 1834.9 Q1479.62 1839.49 1479.62 1848.24 Q1479.62 1856.96 1476.54 1861.57 Q1473.48 1866.15 1467.67 1866.15 Q1461.86 1866.15 1458.78 1861.57 Q1455.73 1856.96 1455.73 1848.24 Q1455.73 1839.49 1458.78 1834.9 Q1461.86 1830.3 1467.67 1830.3 Z" fill="#000000" fill-rule="evenodd" fill-opacity="1" /><path clip-path="url(#clip940)" d="M1978.84 1834 Q1975.23 1834 1973.4 1837.57 Q1971.59 1841.11 1971.59 1848.24 Q1971.59 1855.34 1973.4 1858.91 Q1975.23 1862.45 1978.84 1862.45 Q1982.47 1862.45 1984.28 1858.91 Q1986.11 1855.34 1986.11 1848.24 Q1986.11 1841.11 1984.28 1837.57 Q1982.47 1834 1978.84 1834 M1978.84 1830.3 Q1984.65 1830.3 1987.7 1834.9 Q1990.78 1839.49 1990.78 1848.24 Q1990.78 1856.96 1987.7 1861.57 Q1984.65 1866.15 1978.84 1866.15 Q1973.03 1866.15 1969.95 1861.57 Q1966.89 1856.96 1966.89 1848.24 Q1966.89 1839.49 1969.95 1834.9 Q1973.03 1830.3 1978.84 1830.3 Z" fill="#000000" fill-rule="evenodd" fill-opacity="1" /><path clip-path="url(#clip940)" d="M1999 1859.6 L2003.89 1859.6 L2003.89 1865.48 L1999 1865.48 L1999 1859.6 Z" fill="#000000" fill-rule="evenodd" fill-opacity="1" /><path clip-path="url(#clip940)" d="M2012.89 1830.92 L2035.11 1830.92 L2035.11 1832.91 L2022.57 1865.48 L2017.68 1865.48 L2029.49 1834.86 L2012.89 1834.86 L2012.89 1830.92 Z" fill="#000000" fill-rule="evenodd" fill-opacity="1" /><path clip-path="url(#clip940)" d="M2044.28 1830.92 L2062.64 1830.92 L2062.64 1834.86 L2048.56 1834.86 L2048.56 1843.33 Q2049.58 1842.98 2050.6 1842.82 Q2051.62 1842.64 2052.64 1842.64 Q2058.42 1842.64 2061.8 1845.81 Q2065.18 1848.98 2065.18 1854.4 Q2065.18 1859.97 2061.71 1863.08 Q2058.24 1866.15 2051.92 1866.15 Q2049.74 1866.15 2047.47 1865.78 Q2045.23 1865.41 2042.82 1864.67 L2042.82 1859.97 Q2044.9 1861.11 2047.13 1861.66 Q2049.35 1862.22 2051.82 1862.22 Q2055.83 1862.22 2058.17 1860.11 Q2060.51 1858.01 2060.51 1854.4 Q2060.51 1850.78 2058.17 1848.68 Q2055.83 1846.57 2051.82 1846.57 Q2049.95 1846.57 2048.07 1846.99 Q2046.22 1847.4 2044.28 1848.28 L2044.28 1830.92 Z" fill="#000000" fill-rule="evenodd" fill-opacity="1" /><path clip-path="url(#clip940)" d="M2554.17 1861.55 L2561.81 1861.55 L2561.81 1835.18 L2553.5 1836.85 L2553.5 1832.59 L2561.76 1830.92 L2566.44 1830.92 L2566.44 1861.55 L2574.08 1861.55 L2574.08 1865.48 L2554.17 1865.48 L2554.17 1861.55 Z" fill="#000000" fill-rule="evenodd" fill-opacity="1" /><path clip-path="url(#clip940)" d="M2583.52 1859.6 L2588.41 1859.6 L2588.41 1865.48 L2583.52 1865.48 L2583.52 1859.6 Z" fill="#000000" fill-rule="evenodd" fill-opacity="1" /><path clip-path="url(#clip940)" d="M2608.59 1834 Q2604.98 1834 2603.15 1837.57 Q2601.35 1841.11 2601.35 1848.24 Q2601.35 1855.34 2603.15 1858.91 Q2604.98 1862.45 2608.59 1862.45 Q2612.23 1862.45 2614.03 1858.91 Q2615.86 1855.34 2615.86 1848.24 Q2615.86 1841.11 2614.03 1837.57 Q2612.23 1834 2608.59 1834 M2608.59 1830.3 Q2614.4 1830.3 2617.46 1834.9 Q2620.54 1839.49 2620.54 1848.24 Q2620.54 1856.96 2617.46 1861.57 Q2614.4 1866.15 2608.59 1866.15 Q2602.78 1866.15 2599.7 1861.57 Q2596.65 1856.96 2596.65 1848.24 Q2596.65 1839.49 2599.7 1834.9 Q2602.78 1830.3 2608.59 1830.3 Z" fill="#000000" fill-rule="evenodd" fill-opacity="1" /><path clip-path="url(#clip940)" d="M2638.75 1834 Q2635.14 1834 2633.31 1837.57 Q2631.51 1841.11 2631.51 1848.24 Q2631.51 1855.34 2633.31 1858.91 Q2635.14 1862.45 2638.75 1862.45 Q2642.39 1862.45 2644.19 1858.91 Q2646.02 1855.34 2646.02 1848.24 Q2646.02 1841.11 2644.19 1837.57 Q2642.39 1834 2638.75 1834 M2638.75 1830.3 Q2644.56 1830.3 2647.62 1834.9 Q2650.7 1839.49 2650.7 1848.24 Q2650.7 1856.96 2647.62 1861.57 Q2644.56 1866.15 2638.75 1866.15 Q2632.94 1866.15 2629.87 1861.57 Q2626.81 1856.96 2626.81 1848.24 Q2626.81 1839.49 2629.87 1834.9 Q2632.94 1830.3 2638.75 1830.3 Z" fill="#000000" fill-rule="evenodd" fill-opacity="1" /><polyline clip-path="url(#clip942)" style="stroke:#000000; stroke-linecap:butt; stroke-linejoin:round; stroke-width:2; stroke-opacity:0.1; fill:none" points="
  189.154,1752.45 2640.76,1752.45 
  "/>
<polyline clip-path="url(#clip942)" style="stroke:#000000; stroke-linecap:butt; stroke-linejoin:round; stroke-width:2; stroke-opacity:0.1; fill:none" points="
  189.154,1336.37 2640.76,1336.37 
  "/>
<polyline clip-path="url(#clip942)" style="stroke:#000000; stroke-linecap:butt; stroke-linejoin:round; stroke-width:2; stroke-opacity:0.1; fill:none" points="
  189.154,920.291 2640.76,920.291 
  "/>
<polyline clip-path="url(#clip942)" style="stroke:#000000; stroke-linecap:butt; stroke-linejoin:round; stroke-width:2; stroke-opacity:0.1; fill:none" points="
  189.154,504.211 2640.76,504.211 
  "/>
<polyline clip-path="url(#clip942)" style="stroke:#000000; stroke-linecap:butt; stroke-linejoin:round; stroke-width:2; stroke-opacity:0.1; fill:none" points="
  189.154,88.1314 2640.76,88.1314 
  "/>
<polyline clip-path="url(#clip940)" style="stroke:#000000; stroke-linecap:butt; stroke-linejoin:round; stroke-width:4; stroke-opacity:1; fill:none" points="
  189.154,1800.78 189.154,47.2441 
  "/>
<polyline clip-path="url(#clip940)" style="stroke:#000000; stroke-linecap:butt; stroke-linejoin:round; stroke-width:4; stroke-opacity:1; fill:none" points="
  189.154,1752.45 208.052,1752.45 
  "/>
<polyline clip-path="url(#clip940)" style="stroke:#000000; stroke-linecap:butt; stroke-linejoin:round; stroke-width:4; stroke-opacity:1; fill:none" points="
  189.154,1336.37 208.052,1336.37 
  "/>
<polyline clip-path="url(#clip940)" style="stroke:#000000; stroke-linecap:butt; stroke-linejoin:round; stroke-width:4; stroke-opacity:1; fill:none" points="
  189.154,920.291 208.052,920.291 
  "/>
<polyline clip-path="url(#clip940)" style="stroke:#000000; stroke-linecap:butt; stroke-linejoin:round; stroke-width:4; stroke-opacity:1; fill:none" points="
  189.154,504.211 208.052,504.211 
  "/>
<polyline clip-path="url(#clip940)" style="stroke:#000000; stroke-linecap:butt; stroke-linejoin:round; stroke-width:4; stroke-opacity:1; fill:none" points="
  189.154,88.1314 208.052,88.1314 
  "/>
<path clip-path="url(#clip940)" d="M61.4965 1738.25 Q57.8854 1738.25 56.0567 1741.81 Q54.2512 1745.36 54.2512 1752.49 Q54.2512 1759.59 56.0567 1763.16 Q57.8854 1766.7 61.4965 1766.7 Q65.1307 1766.7 66.9363 1763.16 Q68.765 1759.59 68.765 1752.49 Q68.765 1745.36 66.9363 1741.81 Q65.1307 1738.25 61.4965 1738.25 M61.4965 1734.55 Q67.3067 1734.55 70.3622 1739.15 Q73.4409 1743.74 73.4409 1752.49 Q73.4409 1761.21 70.3622 1765.82 Q67.3067 1770.4 61.4965 1770.4 Q55.6864 1770.4 52.6077 1765.82 Q49.5521 1761.21 49.5521 1752.49 Q49.5521 1743.74 52.6077 1739.15 Q55.6864 1734.55 61.4965 1734.55 Z" fill="#000000" fill-rule="evenodd" fill-opacity="1" /><path clip-path="url(#clip940)" d="M81.6584 1763.85 L86.5427 1763.85 L86.5427 1769.73 L81.6584 1769.73 L81.6584 1763.85 Z" fill="#000000" fill-rule="evenodd" fill-opacity="1" /><path clip-path="url(#clip940)" d="M106.728 1738.25 Q103.117 1738.25 101.288 1741.81 Q99.4824 1745.36 99.4824 1752.49 Q99.4824 1759.59 101.288 1763.16 Q103.117 1766.7 106.728 1766.7 Q110.362 1766.7 112.168 1763.16 Q113.996 1759.59 113.996 1752.49 Q113.996 1745.36 112.168 1741.81 Q110.362 1738.25 106.728 1738.25 M106.728 1734.55 Q112.538 1734.55 115.593 1739.15 Q118.672 1743.74 118.672 1752.49 Q118.672 1761.21 115.593 1765.82 Q112.538 1770.4 106.728 1770.4 Q100.918 1770.4 97.8389 1765.82 Q94.7834 1761.21 94.7834 1752.49 Q94.7834 1743.74 97.8389 1739.15 Q100.918 1734.55 106.728 1734.55 Z" fill="#000000" fill-rule="evenodd" fill-opacity="1" /><path clip-path="url(#clip940)" d="M136.89 1738.25 Q133.279 1738.25 131.45 1741.81 Q129.644 1745.36 129.644 1752.49 Q129.644 1759.59 131.45 1763.16 Q133.279 1766.7 136.89 1766.7 Q140.524 1766.7 142.329 1763.16 Q144.158 1759.59 144.158 1752.49 Q144.158 1745.36 142.329 1741.81 Q140.524 1738.25 136.89 1738.25 M136.89 1734.55 Q142.7 1734.55 145.755 1739.15 Q148.834 1743.74 148.834 1752.49 Q148.834 1761.21 145.755 1765.82 Q142.7 1770.4 136.89 1770.4 Q131.079 1770.4 128.001 1765.82 Q124.945 1761.21 124.945 1752.49 Q124.945 1743.74 128.001 1739.15 Q131.079 1734.55 136.89 1734.55 Z" fill="#000000" fill-rule="evenodd" fill-opacity="1" /><path clip-path="url(#clip940)" d="M62.4919 1322.17 Q58.8808 1322.17 57.0521 1325.73 Q55.2465 1329.28 55.2465 1336.41 Q55.2465 1343.51 57.0521 1347.08 Q58.8808 1350.62 62.4919 1350.62 Q66.1261 1350.62 67.9317 1347.08 Q69.7604 1343.51 69.7604 1336.41 Q69.7604 1329.28 67.9317 1325.73 Q66.1261 1322.17 62.4919 1322.17 M62.4919 1318.47 Q68.302 1318.47 71.3576 1323.07 Q74.4363 1327.66 74.4363 1336.41 Q74.4363 1345.13 71.3576 1349.74 Q68.302 1354.32 62.4919 1354.32 Q56.6817 1354.32 53.603 1349.74 Q50.5475 1345.13 50.5475 1336.41 Q50.5475 1327.66 53.603 1323.07 Q56.6817 1318.47 62.4919 1318.47 Z" fill="#000000" fill-rule="evenodd" fill-opacity="1" /><path clip-path="url(#clip940)" d="M82.6538 1347.77 L87.538 1347.77 L87.538 1353.65 L82.6538 1353.65 L82.6538 1347.77 Z" fill="#000000" fill-rule="evenodd" fill-opacity="1" /><path clip-path="url(#clip940)" d="M101.751 1349.72 L118.07 1349.72 L118.07 1353.65 L96.126 1353.65 L96.126 1349.72 Q98.788 1346.96 103.371 1342.33 Q107.978 1337.68 109.158 1336.34 Q111.404 1333.81 112.283 1332.08 Q113.186 1330.32 113.186 1328.63 Q113.186 1325.87 111.242 1324.14 Q109.32 1322.4 106.218 1322.4 Q104.019 1322.4 101.566 1323.17 Q99.1352 1323.93 96.3574 1325.48 L96.3574 1320.76 Q99.1815 1319.62 101.635 1319.04 Q104.089 1318.47 106.126 1318.47 Q111.496 1318.47 114.691 1321.15 Q117.885 1323.84 117.885 1328.33 Q117.885 1330.46 117.075 1332.38 Q116.288 1334.28 114.181 1336.87 Q113.603 1337.54 110.501 1340.76 Q107.399 1343.95 101.751 1349.72 Z" fill="#000000" fill-rule="evenodd" fill-opacity="1" /><path clip-path="url(#clip940)" d="M127.931 1319.09 L146.288 1319.09 L146.288 1323.03 L132.214 1323.03 L132.214 1331.5 Q133.232 1331.15 134.251 1330.99 Q135.269 1330.8 136.288 1330.8 Q142.075 1330.8 145.454 1333.98 Q148.834 1337.15 148.834 1342.56 Q148.834 1348.14 145.362 1351.24 Q141.89 1354.32 135.57 1354.32 Q133.394 1354.32 131.126 1353.95 Q128.88 1353.58 126.473 1352.84 L126.473 1348.14 Q128.556 1349.28 130.779 1349.83 Q133.001 1350.39 135.478 1350.39 Q139.482 1350.39 141.82 1348.28 Q144.158 1346.17 144.158 1342.56 Q144.158 1338.95 141.82 1336.85 Q139.482 1334.74 135.478 1334.74 Q133.603 1334.74 131.728 1335.16 Q129.876 1335.57 127.931 1336.45 L127.931 1319.09 Z" fill="#000000" fill-rule="evenodd" fill-opacity="1" /><path clip-path="url(#clip940)" d="M61.4965 906.09 Q57.8854 906.09 56.0567 909.655 Q54.2512 913.196 54.2512 920.326 Q54.2512 927.432 56.0567 930.997 Q57.8854 934.539 61.4965 934.539 Q65.1307 934.539 66.9363 930.997 Q68.765 927.432 68.765 920.326 Q68.765 913.196 66.9363 909.655 Q65.1307 906.09 61.4965 906.09 M61.4965 902.386 Q67.3067 902.386 70.3622 906.993 Q73.4409 911.576 73.4409 920.326 Q73.4409 929.053 70.3622 933.659 Q67.3067 938.242 61.4965 938.242 Q55.6864 938.242 52.6077 933.659 Q49.5521 929.053 49.5521 920.326 Q49.5521 911.576 52.6077 906.993 Q55.6864 902.386 61.4965 902.386 Z" fill="#000000" fill-rule="evenodd" fill-opacity="1" /><path clip-path="url(#clip940)" d="M81.6584 931.692 L86.5427 931.692 L86.5427 937.571 L81.6584 937.571 L81.6584 931.692 Z" fill="#000000" fill-rule="evenodd" fill-opacity="1" /><path clip-path="url(#clip940)" d="M96.7741 903.011 L115.13 903.011 L115.13 906.946 L101.056 906.946 L101.056 915.418 Q102.075 915.071 103.094 914.909 Q104.112 914.724 105.131 914.724 Q110.918 914.724 114.297 917.895 Q117.677 921.067 117.677 926.483 Q117.677 932.062 114.205 935.164 Q110.732 938.242 104.413 938.242 Q102.237 938.242 99.9685 937.872 Q97.7232 937.502 95.3158 936.761 L95.3158 932.062 Q97.3991 933.196 99.6213 933.752 Q101.844 934.307 104.32 934.307 Q108.325 934.307 110.663 932.201 Q113.001 930.094 113.001 926.483 Q113.001 922.872 110.663 920.766 Q108.325 918.659 104.32 918.659 Q102.445 918.659 100.57 919.076 Q98.7185 919.493 96.7741 920.372 L96.7741 903.011 Z" fill="#000000" fill-rule="evenodd" fill-opacity="1" /><path clip-path="url(#clip940)" d="M136.89 906.09 Q133.279 906.09 131.45 909.655 Q129.644 913.196 129.644 920.326 Q129.644 927.432 131.45 930.997 Q133.279 934.539 136.89 934.539 Q140.524 934.539 142.329 930.997 Q144.158 927.432 144.158 920.326 Q144.158 913.196 142.329 909.655 Q140.524 906.09 136.89 906.09 M136.89 902.386 Q142.7 902.386 145.755 906.993 Q148.834 911.576 148.834 920.326 Q148.834 929.053 145.755 933.659 Q142.7 938.242 136.89 938.242 Q131.079 938.242 128.001 933.659 Q124.945 929.053 124.945 920.326 Q124.945 911.576 128.001 906.993 Q131.079 902.386 136.89 902.386 Z" fill="#000000" fill-rule="evenodd" fill-opacity="1" /><path clip-path="url(#clip940)" d="M62.4919 490.01 Q58.8808 490.01 57.0521 493.575 Q55.2465 497.116 55.2465 504.246 Q55.2465 511.352 57.0521 514.917 Q58.8808 518.459 62.4919 518.459 Q66.1261 518.459 67.9317 514.917 Q69.7604 511.352 69.7604 504.246 Q69.7604 497.116 67.9317 493.575 Q66.1261 490.01 62.4919 490.01 M62.4919 486.306 Q68.302 486.306 71.3576 490.913 Q74.4363 495.496 74.4363 504.246 Q74.4363 512.973 71.3576 517.579 Q68.302 522.163 62.4919 522.163 Q56.6817 522.163 53.603 517.579 Q50.5475 512.973 50.5475 504.246 Q50.5475 495.496 53.603 490.913 Q56.6817 486.306 62.4919 486.306 Z" fill="#000000" fill-rule="evenodd" fill-opacity="1" /><path clip-path="url(#clip940)" d="M82.6538 515.612 L87.538 515.612 L87.538 521.491 L82.6538 521.491 L82.6538 515.612 Z" fill="#000000" fill-rule="evenodd" fill-opacity="1" /><path clip-path="url(#clip940)" d="M96.5426 486.931 L118.765 486.931 L118.765 488.922 L106.218 521.491 L101.334 521.491 L113.14 490.866 L96.5426 490.866 L96.5426 486.931 Z" fill="#000000" fill-rule="evenodd" fill-opacity="1" /><path clip-path="url(#clip940)" d="M127.931 486.931 L146.288 486.931 L146.288 490.866 L132.214 490.866 L132.214 499.339 Q133.232 498.991 134.251 498.829 Q135.269 498.644 136.288 498.644 Q142.075 498.644 145.454 501.815 Q148.834 504.987 148.834 510.403 Q148.834 515.982 145.362 519.084 Q141.89 522.163 135.57 522.163 Q133.394 522.163 131.126 521.792 Q128.88 521.422 126.473 520.681 L126.473 515.982 Q128.556 517.116 130.779 517.672 Q133.001 518.227 135.478 518.227 Q139.482 518.227 141.82 516.121 Q144.158 514.014 144.158 510.403 Q144.158 506.792 141.82 504.686 Q139.482 502.579 135.478 502.579 Q133.603 502.579 131.728 502.996 Q129.876 503.413 127.931 504.292 L127.931 486.931 Z" fill="#000000" fill-rule="evenodd" fill-opacity="1" /><path clip-path="url(#clip940)" d="M52.3067 101.476 L59.9456 101.476 L59.9456 75.1106 L51.6354 76.7773 L51.6354 72.5181 L59.8993 70.8514 L64.5752 70.8514 L64.5752 101.476 L72.214 101.476 L72.214 105.411 L52.3067 105.411 L52.3067 101.476 Z" fill="#000000" fill-rule="evenodd" fill-opacity="1" /><path clip-path="url(#clip940)" d="M81.6584 99.5318 L86.5427 99.5318 L86.5427 105.411 L81.6584 105.411 L81.6584 99.5318 Z" fill="#000000" fill-rule="evenodd" fill-opacity="1" /><path clip-path="url(#clip940)" d="M106.728 73.9301 Q103.117 73.9301 101.288 77.4949 Q99.4824 81.0365 99.4824 88.1661 Q99.4824 95.2726 101.288 98.8374 Q103.117 102.379 106.728 102.379 Q110.362 102.379 112.168 98.8374 Q113.996 95.2726 113.996 88.1661 Q113.996 81.0365 112.168 77.4949 Q110.362 73.9301 106.728 73.9301 M106.728 70.2264 Q112.538 70.2264 115.593 74.8329 Q118.672 79.4162 118.672 88.1661 Q118.672 96.8929 115.593 101.499 Q112.538 106.083 106.728 106.083 Q100.918 106.083 97.8389 101.499 Q94.7834 96.8929 94.7834 88.1661 Q94.7834 79.4162 97.8389 74.8329 Q100.918 70.2264 106.728 70.2264 Z" fill="#000000" fill-rule="evenodd" fill-opacity="1" /><path clip-path="url(#clip940)" d="M136.89 73.9301 Q133.279 73.9301 131.45 77.4949 Q129.644 81.0365 129.644 88.1661 Q129.644 95.2726 131.45 98.8374 Q133.279 102.379 136.89 102.379 Q140.524 102.379 142.329 98.8374 Q144.158 95.2726 144.158 88.1661 Q144.158 81.0365 142.329 77.4949 Q140.524 73.9301 136.89 73.9301 M136.89 70.2264 Q142.7 70.2264 145.755 74.8329 Q148.834 79.4162 148.834 88.1661 Q148.834 96.8929 145.755 101.499 Q142.7 106.083 136.89 106.083 Q131.079 106.083 128.001 101.499 Q124.945 96.8929 124.945 88.1661 Q124.945 79.4162 128.001 74.8329 Q131.079 70.2264 136.89 70.2264 Z" fill="#000000" fill-rule="evenodd" fill-opacity="1" /><polyline clip-path="url(#clip942)" style="stroke:#009af9; stroke-linecap:butt; stroke-linejoin:round; stroke-width:4; stroke-opacity:1; fill:none" points="
  1962.08,1567.97 875.669,1636.67 599.751,977.739 2175.31,600.243 1528.78,999.58 543.219,111.915 1418.29,1555.44 1734.82,933.339 1120.46,1705.99 339.205,940.592 
  1297.48,356.977 636.451,1281.57 1444.31,964.038 1235.03,1628.73 2406.93,830.951 589.576,437.409 1917.55,123.77 619.08,699.309 2392.56,1304.39 767.971,556.998 
  750.914,1255.54 1472.1,631.637 549.184,1449.01 1490.55,455.875 1328.25,1512.97 637.335,331.828 1957.39,653.722 1323.24,1447.53 1716.53,115.208 2479.65,238.418 
  2041.39,400.387 406.747,1074.04 453.203,1196.8 1693.15,725.324 716.277,109.102 1699.75,903.141 1601.89,1117.33 1219.34,1269.16 2473.77,1088.18 1386.8,309.451 
  2450.48,1432.56 1389.36,1497.77 2157.52,1206.67 1860.83,1416.08 348.342,191.013 712.211,1388.87 473.362,1557.74 1604.09,1006.38 479.533,96.8724 1076.8,901.201 
  1233.75,1743.2 1248.94,1221.4 1755.67,236.386 1878.14,1733.8 2215.54,608.553 1895.07,1239.58 779.585,769.017 2078.61,799.391 1946.72,835.898 972.833,1341.01 
  1506.68,223.233 1731.6,610.355 1633.95,254.45 1213.75,498.29 2053.75,742.008 2571.37,1415.64 532.028,1586.12 807.653,315.573 805.045,1264.48 2331.43,1662.26 
  1672.71,1256.69 2419.47,1256.54 1694.6,1117.76 1099.06,632.798 715.075,1095.78 2072.47,1005.8 1776.83,994.794 920.857,1306.23 842.254,1751.15 865.816,406.465 
  258.539,694.178 1053.12,1612.77 1091.84,583.407 768.117,1519.76 2184.68,458.645 520.633,1723 1935.24,1413.94 1423.47,652.891 2020.52,1227.5 407.763,287.222 
  1288.26,1313.71 789.378,1050.78 2277.03,886.299 1785.48,956.935 2109.53,1130.06 856.085,1618.4 717.29,1270.61 430.021,443.453 1106.38,1376.34 801.372,122.442 
  
  "/>
<path clip-path="url(#clip940)" d="
M2261.45 209.375 L2559.04 209.375 L2559.04 105.695 L2261.45 105.695  Z
  " fill="#ffffff" fill-rule="evenodd" fill-opacity="1"/>
<polyline clip-path="url(#clip940)" style="stroke:#000000; stroke-linecap:butt; stroke-linejoin:round; stroke-width:4; stroke-opacity:1; fill:none" points="
  2261.45,209.375 2559.04,209.375 2559.04,105.695 2261.45,105.695 2261.45,209.375 
  "/>
<polyline clip-path="url(#clip940)" style="stroke:#009af9; stroke-linecap:butt; stroke-linejoin:round; stroke-width:4; stroke-opacity:1; fill:none" points="
  2288.69,157.535 2452.13,157.535 
  "/>
<path clip-path="url(#clip940)" d="M2493.21 177.223 Q2491.4 181.852 2489.69 183.264 Q2487.98 184.676 2485.11 184.676 L2481.7 184.676 L2481.7 181.112 L2484.2 181.112 Q2485.96 181.112 2486.93 180.278 Q2487.91 179.445 2489.09 176.343 L2489.85 174.399 L2479.37 148.889 L2483.88 148.889 L2491.98 169.167 L2500.08 148.889 L2504.6 148.889 L2493.21 177.223 Z" fill="#000000" fill-rule="evenodd" fill-opacity="1" /><path clip-path="url(#clip940)" d="M2511.89 170.88 L2519.53 170.88 L2519.53 144.515 L2511.22 146.181 L2511.22 141.922 L2519.48 140.255 L2524.16 140.255 L2524.16 170.88 L2531.8 170.88 L2531.8 174.815 L2511.89 174.815 L2511.89 170.88 Z" fill="#000000" fill-rule="evenodd" fill-opacity="1" /></svg>
