<?xml version="1.0" encoding="utf-8"?>
<svg xmlns="http://www.w3.org/2000/svg" xmlns:xlink="http://www.w3.org/1999/xlink" width="672" height="480" viewBox="0 0 2688 1920">
<defs>
  <clipPath id="clip600">
    <rect x="0" y="0" width="2688" height="1920"/>
  </clipPath>
</defs>
<path clip-path="url(#clip600)" d="
M0 1920 L2688 1920 L2688 0 L0 0  Z
  " fill="#ffffff" fill-rule="evenodd" fill-opacity="1"/>
<defs>
  <clipPath id="clip601">
    <rect x="537" y="0" width="1883" height="1883"/>
  </clipPath>
</defs>
<path clip-path="url(#clip600)" d="
M189.154 1800.78 L2640.76 1800.78 L2640.76 47.2441 L189.154 47.2441  Z
  " fill="#ffffff" fill-rule="evenodd" fill-opacity="1"/>
<defs>
  <clipPath id="clip602">
    <rect x="189" y="47" width="2453" height="1755"/>
  </clipPath>
</defs>
<polyline clip-path="url(#clip602)" style="stroke:#000000; stroke-linecap:butt; stroke-linejoin:round; stroke-width:2; stroke-opacity:0.1; fill:none" points="
  227.386,1800.78 227.386,47.2441 
  "/>
<polyline clip-path="url(#clip602)" style="stroke:#000000; stroke-linecap:butt; stroke-linejoin:round; stroke-width:2; stroke-opacity:0.1; fill:none" points="
  815.827,1800.78 815.827,47.2441 
  "/>
<polyline clip-path="url(#clip602)" style="stroke:#000000; stroke-linecap:butt; stroke-linejoin:round; stroke-width:2; stroke-opacity:0.1; fill:none" points="
  1404.27,1800.78 1404.27,47.2441 
  "/>
<polyline clip-path="url(#clip602)" style="stroke:#000000; stroke-linecap:butt; stroke-linejoin:round; stroke-width:2; stroke-opacity:0.1; fill:none" points="
  1992.71,1800.78 1992.71,47.2441 
  "/>
<polyline clip-path="url(#clip602)" style="stroke:#000000; stroke-linecap:butt; stroke-linejoin:round; stroke-width:2; stroke-opacity:0.1; fill:none" points="
  2581.15,1800.78 2581.15,47.2441 
  "/>
<polyline clip-path="url(#clip600)" style="stroke:#000000; stroke-linecap:butt; stroke-linejoin:round; stroke-width:4; stroke-opacity:1; fill:none" points="
  189.154,1800.78 2640.76,1800.78 
  "/>
<polyline clip-path="url(#clip600)" style="stroke:#000000; stroke-linecap:butt; stroke-linejoin:round; stroke-width:4; stroke-opacity:1; fill:none" points="
  227.386,1800.78 227.386,1781.88 
  "/>
<polyline clip-path="url(#clip600)" style="stroke:#000000; stroke-linecap:butt; stroke-linejoin:round; stroke-width:4; stroke-opacity:1; fill:none" points="
  815.827,1800.78 815.827,1781.88 
  "/>
<polyline clip-path="url(#clip600)" style="stroke:#000000; stroke-linecap:butt; stroke-linejoin:round; stroke-width:4; stroke-opacity:1; fill:none" points="
  1404.27,1800.78 1404.27,1781.88 
  "/>
<polyline clip-path="url(#clip600)" style="stroke:#000000; stroke-linecap:butt; stroke-linejoin:round; stroke-width:4; stroke-opacity:1; fill:none" points="
  1992.71,1800.78 1992.71,1781.88 
  "/>
<polyline clip-path="url(#clip600)" style="stroke:#000000; stroke-linecap:butt; stroke-linejoin:round; stroke-width:4; stroke-opacity:1; fill:none" points="
  2581.15,1800.78 2581.15,1781.88 
  "/>
<path clip-path="url(#clip600)" d="M189.689 1834 Q186.078 1834 184.249 1837.57 Q182.444 1841.11 182.444 1848.24 Q182.444 1855.34 184.249 1858.91 Q186.078 1862.45 189.689 1862.45 Q193.323 1862.45 195.129 1858.91 Q196.958 1855.34 196.958 1848.24 Q196.958 1841.11 195.129 1837.57 Q193.323 1834 189.689 1834 M189.689 1830.3 Q195.499 1830.3 198.555 1834.9 Q201.634 1839.49 201.634 1848.24 Q201.634 1856.96 198.555 1861.57 Q195.499 1866.15 189.689 1866.15 Q183.879 1866.15 180.8 1861.57 Q177.745 1856.96 177.745 1848.24 Q177.745 1839.49 180.8 1834.9 Q183.879 1830.3 189.689 1830.3 Z" fill="#000000" fill-rule="evenodd" fill-opacity="1" /><path clip-path="url(#clip600)" d="M209.851 1859.6 L214.735 1859.6 L214.735 1865.48 L209.851 1865.48 L209.851 1859.6 Z" fill="#000000" fill-rule="evenodd" fill-opacity="1" /><path clip-path="url(#clip600)" d="M234.92 1834 Q231.309 1834 229.481 1837.57 Q227.675 1841.11 227.675 1848.24 Q227.675 1855.34 229.481 1858.91 Q231.309 1862.45 234.92 1862.45 Q238.555 1862.45 240.36 1858.91 Q242.189 1855.34 242.189 1848.24 Q242.189 1841.11 240.36 1837.57 Q238.555 1834 234.92 1834 M234.92 1830.3 Q240.731 1830.3 243.786 1834.9 Q246.865 1839.49 246.865 1848.24 Q246.865 1856.96 243.786 1861.57 Q240.731 1866.15 234.92 1866.15 Q229.11 1866.15 226.032 1861.57 Q222.976 1856.96 222.976 1848.24 Q222.976 1839.49 226.032 1834.9 Q229.11 1830.3 234.92 1830.3 Z" fill="#000000" fill-rule="evenodd" fill-opacity="1" /><path clip-path="url(#clip600)" d="M265.082 1834 Q261.471 1834 259.643 1837.57 Q257.837 1841.11 257.837 1848.24 Q257.837 1855.34 259.643 1858.91 Q261.471 1862.45 265.082 1862.45 Q268.717 1862.45 270.522 1858.91 Q272.351 1855.34 272.351 1848.24 Q272.351 1841.11 270.522 1837.57 Q268.717 1834 265.082 1834 M265.082 1830.3 Q270.892 1830.3 273.948 1834.9 Q277.027 1839.49 277.027 1848.24 Q277.027 1856.96 273.948 1861.57 Q270.892 1866.15 265.082 1866.15 Q259.272 1866.15 256.193 1861.57 Q253.138 1856.96 253.138 1848.24 Q253.138 1839.49 256.193 1834.9 Q259.272 1830.3 265.082 1830.3 Z" fill="#000000" fill-rule="evenodd" fill-opacity="1" /><path clip-path="url(#clip600)" d="M778.628 1834 Q775.017 1834 773.188 1837.57 Q771.382 1841.11 771.382 1848.24 Q771.382 1855.34 773.188 1858.91 Q775.017 1862.45 778.628 1862.45 Q782.262 1862.45 784.068 1858.91 Q785.896 1855.34 785.896 1848.24 Q785.896 1841.11 784.068 1837.57 Q782.262 1834 778.628 1834 M778.628 1830.3 Q784.438 1830.3 787.493 1834.9 Q790.572 1839.49 790.572 1848.24 Q790.572 1856.96 787.493 1861.57 Q784.438 1866.15 778.628 1866.15 Q772.818 1866.15 769.739 1861.57 Q766.683 1856.96 766.683 1848.24 Q766.683 1839.49 769.739 1834.9 Q772.818 1830.3 778.628 1830.3 Z" fill="#000000" fill-rule="evenodd" fill-opacity="1" /><path clip-path="url(#clip600)" d="M798.79 1859.6 L803.674 1859.6 L803.674 1865.48 L798.79 1865.48 L798.79 1859.6 Z" fill="#000000" fill-rule="evenodd" fill-opacity="1" /><path clip-path="url(#clip600)" d="M817.887 1861.55 L834.206 1861.55 L834.206 1865.48 L812.262 1865.48 L812.262 1861.55 Q814.924 1858.79 819.507 1854.16 Q824.114 1849.51 825.294 1848.17 Q827.54 1845.65 828.419 1843.91 Q829.322 1842.15 829.322 1840.46 Q829.322 1837.71 827.378 1835.97 Q825.456 1834.23 822.354 1834.23 Q820.155 1834.23 817.702 1835 Q815.271 1835.76 812.493 1837.31 L812.493 1832.59 Q815.317 1831.46 817.771 1830.88 Q820.225 1830.3 822.262 1830.3 Q827.632 1830.3 830.827 1832.98 Q834.021 1835.67 834.021 1840.16 Q834.021 1842.29 833.211 1844.21 Q832.424 1846.11 830.317 1848.7 Q829.739 1849.37 826.637 1852.59 Q823.535 1855.78 817.887 1861.55 Z" fill="#000000" fill-rule="evenodd" fill-opacity="1" /><path clip-path="url(#clip600)" d="M844.067 1830.92 L862.424 1830.92 L862.424 1834.86 L848.35 1834.86 L848.35 1843.33 Q849.368 1842.98 850.387 1842.82 Q851.405 1842.64 852.424 1842.64 Q858.211 1842.64 861.59 1845.81 Q864.97 1848.98 864.97 1854.4 Q864.97 1859.97 861.498 1863.08 Q858.026 1866.15 851.706 1866.15 Q849.53 1866.15 847.262 1865.78 Q845.016 1865.41 842.609 1864.67 L842.609 1859.97 Q844.692 1861.11 846.914 1861.66 Q849.137 1862.22 851.614 1862.22 Q855.618 1862.22 857.956 1860.11 Q860.294 1858.01 860.294 1854.4 Q860.294 1850.78 857.956 1848.68 Q855.618 1846.57 851.614 1846.57 Q849.739 1846.57 847.864 1846.99 Q846.012 1847.4 844.067 1848.28 L844.067 1830.92 Z" fill="#000000" fill-rule="evenodd" fill-opacity="1" /><path clip-path="url(#clip600)" d="M1366.57 1834 Q1362.96 1834 1361.13 1837.57 Q1359.33 1841.11 1359.33 1848.24 Q1359.33 1855.34 1361.13 1858.91 Q1362.96 1862.45 1366.57 1862.45 Q1370.21 1862.45 1372.01 1858.91 Q1373.84 1855.34 1373.84 1848.24 Q1373.84 1841.11 1372.01 1837.57 Q1370.21 1834 1366.57 1834 M1366.57 1830.3 Q1372.38 1830.3 1375.44 1834.9 Q1378.52 1839.49 1378.52 1848.24 Q1378.52 1856.96 1375.44 1861.57 Q1372.38 1866.15 1366.57 1866.15 Q1360.76 1866.15 1357.68 1861.57 Q1354.63 1856.96 1354.63 1848.24 Q1354.63 1839.49 1357.68 1834.9 Q1360.76 1830.3 1366.57 1830.3 Z" fill="#000000" fill-rule="evenodd" fill-opacity="1" /><path clip-path="url(#clip600)" d="M1386.73 1859.6 L1391.62 1859.6 L1391.62 1865.48 L1386.73 1865.48 L1386.73 1859.6 Z" fill="#000000" fill-rule="evenodd" fill-opacity="1" /><path clip-path="url(#clip600)" d="M1401.85 1830.92 L1420.21 1830.92 L1420.21 1834.86 L1406.13 1834.86 L1406.13 1843.33 Q1407.15 1842.98 1408.17 1842.82 Q1409.19 1842.64 1410.21 1842.64 Q1415.99 1842.64 1419.37 1845.81 Q1422.75 1848.98 1422.75 1854.4 Q1422.75 1859.97 1419.28 1863.08 Q1415.81 1866.15 1409.49 1866.15 Q1407.31 1866.15 1405.04 1865.78 Q1402.8 1865.41 1400.39 1864.67 L1400.39 1859.97 Q1402.47 1861.11 1404.7 1861.66 Q1406.92 1862.22 1409.39 1862.22 Q1413.4 1862.22 1415.74 1860.11 Q1418.08 1858.01 1418.08 1854.4 Q1418.08 1850.78 1415.74 1848.68 Q1413.4 1846.57 1409.39 1846.57 Q1407.52 1846.57 1405.64 1846.99 Q1403.79 1847.4 1401.85 1848.28 L1401.85 1830.92 Z" fill="#000000" fill-rule="evenodd" fill-opacity="1" /><path clip-path="url(#clip600)" d="M1441.96 1834 Q1438.35 1834 1436.52 1837.57 Q1434.72 1841.11 1434.72 1848.24 Q1434.72 1855.34 1436.52 1858.91 Q1438.35 1862.45 1441.96 1862.45 Q1445.6 1862.45 1447.4 1858.91 Q1449.23 1855.34 1449.23 1848.24 Q1449.23 1841.11 1447.4 1837.57 Q1445.6 1834 1441.96 1834 M1441.96 1830.3 Q1447.77 1830.3 1450.83 1834.9 Q1453.91 1839.49 1453.91 1848.24 Q1453.91 1856.96 1450.83 1861.57 Q1447.77 1866.15 1441.96 1866.15 Q1436.15 1866.15 1433.08 1861.57 Q1430.02 1856.96 1430.02 1848.24 Q1430.02 1839.49 1433.08 1834.9 Q1436.15 1830.3 1441.96 1830.3 Z" fill="#000000" fill-rule="evenodd" fill-opacity="1" /><path clip-path="url(#clip600)" d="M1955.51 1834 Q1951.9 1834 1950.07 1837.57 Q1948.26 1841.11 1948.26 1848.24 Q1948.26 1855.34 1950.07 1858.91 Q1951.9 1862.45 1955.51 1862.45 Q1959.14 1862.45 1960.95 1858.91 Q1962.78 1855.34 1962.78 1848.24 Q1962.78 1841.11 1960.95 1837.57 Q1959.14 1834 1955.51 1834 M1955.51 1830.3 Q1961.32 1830.3 1964.38 1834.9 Q1967.45 1839.49 1967.45 1848.24 Q1967.45 1856.96 1964.38 1861.57 Q1961.32 1866.15 1955.51 1866.15 Q1949.7 1866.15 1946.62 1861.57 Q1943.57 1856.96 1943.57 1848.24 Q1943.57 1839.49 1946.62 1834.9 Q1949.7 1830.3 1955.51 1830.3 Z" fill="#000000" fill-rule="evenodd" fill-opacity="1" /><path clip-path="url(#clip600)" d="M1975.67 1859.6 L1980.56 1859.6 L1980.56 1865.48 L1975.67 1865.48 L1975.67 1859.6 Z" fill="#000000" fill-rule="evenodd" fill-opacity="1" /><path clip-path="url(#clip600)" d="M1989.56 1830.92 L2011.78 1830.92 L2011.78 1832.91 L1999.24 1865.48 L1994.35 1865.48 L2006.16 1834.86 L1989.56 1834.86 L1989.56 1830.92 Z" fill="#000000" fill-rule="evenodd" fill-opacity="1" /><path clip-path="url(#clip600)" d="M2020.95 1830.92 L2039.31 1830.92 L2039.31 1834.86 L2025.23 1834.86 L2025.23 1843.33 Q2026.25 1842.98 2027.27 1842.82 Q2028.29 1842.64 2029.31 1842.64 Q2035.09 1842.64 2038.47 1845.81 Q2041.85 1848.98 2041.85 1854.4 Q2041.85 1859.97 2038.38 1863.08 Q2034.91 1866.15 2028.59 1866.15 Q2026.41 1866.15 2024.14 1865.78 Q2021.9 1865.41 2019.49 1864.67 L2019.49 1859.97 Q2021.57 1861.11 2023.8 1861.66 Q2026.02 1862.22 2028.5 1862.22 Q2032.5 1862.22 2034.84 1860.11 Q2037.18 1858.01 2037.18 1854.4 Q2037.18 1850.78 2034.84 1848.68 Q2032.5 1846.57 2028.5 1846.57 Q2026.62 1846.57 2024.75 1846.99 Q2022.89 1847.4 2020.95 1848.28 L2020.95 1830.92 Z" fill="#000000" fill-rule="evenodd" fill-opacity="1" /><path clip-path="url(#clip600)" d="M2533.22 1861.55 L2540.86 1861.55 L2540.86 1835.18 L2532.55 1836.85 L2532.55 1832.59 L2540.81 1830.92 L2545.49 1830.92 L2545.49 1861.55 L2553.13 1861.55 L2553.13 1865.48 L2533.22 1865.48 L2533.22 1861.55 Z" fill="#000000" fill-rule="evenodd" fill-opacity="1" /><path clip-path="url(#clip600)" d="M2562.57 1859.6 L2567.46 1859.6 L2567.46 1865.48 L2562.57 1865.48 L2562.57 1859.6 Z" fill="#000000" fill-rule="evenodd" fill-opacity="1" /><path clip-path="url(#clip600)" d="M2587.64 1834 Q2584.03 1834 2582.2 1837.57 Q2580.4 1841.11 2580.4 1848.24 Q2580.4 1855.34 2582.2 1858.91 Q2584.03 1862.45 2587.64 1862.45 Q2591.28 1862.45 2593.08 1858.91 Q2594.91 1855.34 2594.91 1848.24 Q2594.91 1841.11 2593.08 1837.57 Q2591.28 1834 2587.64 1834 M2587.64 1830.3 Q2593.45 1830.3 2596.51 1834.9 Q2599.59 1839.49 2599.59 1848.24 Q2599.59 1856.96 2596.51 1861.57 Q2593.45 1866.15 2587.64 1866.15 Q2581.83 1866.15 2578.75 1861.57 Q2575.7 1856.96 2575.7 1848.24 Q2575.7 1839.49 2578.75 1834.9 Q2581.83 1830.3 2587.64 1830.3 Z" fill="#000000" fill-rule="evenodd" fill-opacity="1" /><path clip-path="url(#clip600)" d="M2617.8 1834 Q2614.19 1834 2612.36 1837.57 Q2610.56 1841.11 2610.56 1848.24 Q2610.56 1855.34 2612.36 1858.91 Q2614.19 1862.45 2617.8 1862.45 Q2621.44 1862.45 2623.24 1858.91 Q2625.07 1855.34 2625.07 1848.24 Q2625.07 1841.11 2623.24 1837.57 Q2621.44 1834 2617.8 1834 M2617.8 1830.3 Q2623.61 1830.3 2626.67 1834.9 Q2629.75 1839.49 2629.75 1848.24 Q2629.75 1856.96 2626.67 1861.57 Q2623.61 1866.15 2617.8 1866.15 Q2611.99 1866.15 2608.92 1861.57 Q2605.86 1856.96 2605.86 1848.24 Q2605.86 1839.49 2608.92 1834.9 Q2611.99 1830.3 2617.8 1830.3 Z" fill="#000000" fill-rule="evenodd" fill-opacity="1" /><polyline clip-path="url(#clip602)" style="stroke:#000000; stroke-linecap:butt; stroke-linejoin:round; stroke-width:2; stroke-opacity:0.1; fill:none" points="
  189.154,1758.07 2640.76,1758.07 
  "/>
<polyline clip-path="url(#clip602)" style="stroke:#000000; stroke-linecap:butt; stroke-linejoin:round; stroke-width:2; stroke-opacity:0.1; fill:none" points="
  189.154,1337.29 2640.76,1337.29 
  "/>
<polyline clip-path="url(#clip602)" style="stroke:#000000; stroke-linecap:butt; stroke-linejoin:round; stroke-width:2; stroke-opacity:0.1; fill:none" points="
  189.154,916.51 2640.76,916.51 
  "/>
<polyline clip-path="url(#clip602)" style="stroke:#000000; stroke-linecap:butt; stroke-linejoin:round; stroke-width:2; stroke-opacity:0.1; fill:none" points="
  189.154,495.728 2640.76,495.728 
  "/>
<polyline clip-path="url(#clip602)" style="stroke:#000000; stroke-linecap:butt; stroke-linejoin:round; stroke-width:2; stroke-opacity:0.1; fill:none" points="
  189.154,74.9457 2640.76,74.9457 
  "/>
<polyline clip-path="url(#clip600)" style="stroke:#000000; stroke-linecap:butt; stroke-linejoin:round; stroke-width:4; stroke-opacity:1; fill:none" points="
  189.154,1800.78 189.154,47.2441 
  "/>
<polyline clip-path="url(#clip600)" style="stroke:#000000; stroke-linecap:butt; stroke-linejoin:round; stroke-width:4; stroke-opacity:1; fill:none" points="
  189.154,1758.07 208.052,1758.07 
  "/>
<polyline clip-path="url(#clip600)" style="stroke:#000000; stroke-linecap:butt; stroke-linejoin:round; stroke-width:4; stroke-opacity:1; fill:none" points="
  189.154,1337.29 208.052,1337.29 
  "/>
<polyline clip-path="url(#clip600)" style="stroke:#000000; stroke-linecap:butt; stroke-linejoin:round; stroke-width:4; stroke-opacity:1; fill:none" points="
  189.154,916.51 208.052,916.51 
  "/>
<polyline clip-path="url(#clip600)" style="stroke:#000000; stroke-linecap:butt; stroke-linejoin:round; stroke-width:4; stroke-opacity:1; fill:none" points="
  189.154,495.728 208.052,495.728 
  "/>
<polyline clip-path="url(#clip600)" style="stroke:#000000; stroke-linecap:butt; stroke-linejoin:round; stroke-width:4; stroke-opacity:1; fill:none" points="
  189.154,74.9457 208.052,74.9457 
  "/>
<path clip-path="url(#clip600)" d="M61.4965 1743.87 Q57.8854 1743.87 56.0567 1747.44 Q54.2512 1750.98 54.2512 1758.11 Q54.2512 1765.22 56.0567 1768.78 Q57.8854 1772.32 61.4965 1772.32 Q65.1307 1772.32 66.9363 1768.78 Q68.765 1765.22 68.765 1758.11 Q68.765 1750.98 66.9363 1747.44 Q65.1307 1743.87 61.4965 1743.87 M61.4965 1740.17 Q67.3067 1740.17 70.3622 1744.78 Q73.4409 1749.36 73.4409 1758.11 Q73.4409 1766.84 70.3622 1771.44 Q67.3067 1776.03 61.4965 1776.03 Q55.6864 1776.03 52.6077 1771.44 Q49.5521 1766.84 49.5521 1758.11 Q49.5521 1749.36 52.6077 1744.78 Q55.6864 1740.17 61.4965 1740.17 Z" fill="#000000" fill-rule="evenodd" fill-opacity="1" /><path clip-path="url(#clip600)" d="M81.6584 1769.47 L86.5427 1769.47 L86.5427 1775.35 L81.6584 1775.35 L81.6584 1769.47 Z" fill="#000000" fill-rule="evenodd" fill-opacity="1" /><path clip-path="url(#clip600)" d="M106.728 1743.87 Q103.117 1743.87 101.288 1747.44 Q99.4824 1750.98 99.4824 1758.11 Q99.4824 1765.22 101.288 1768.78 Q103.117 1772.32 106.728 1772.32 Q110.362 1772.32 112.168 1768.78 Q113.996 1765.22 113.996 1758.11 Q113.996 1750.98 112.168 1747.44 Q110.362 1743.87 106.728 1743.87 M106.728 1740.17 Q112.538 1740.17 115.593 1744.78 Q118.672 1749.36 118.672 1758.11 Q118.672 1766.84 115.593 1771.44 Q112.538 1776.03 106.728 1776.03 Q100.918 1776.03 97.8389 1771.44 Q94.7834 1766.84 94.7834 1758.11 Q94.7834 1749.36 97.8389 1744.78 Q100.918 1740.17 106.728 1740.17 Z" fill="#000000" fill-rule="evenodd" fill-opacity="1" /><path clip-path="url(#clip600)" d="M136.89 1743.87 Q133.279 1743.87 131.45 1747.44 Q129.644 1750.98 129.644 1758.11 Q129.644 1765.22 131.45 1768.78 Q133.279 1772.32 136.89 1772.32 Q140.524 1772.32 142.329 1768.78 Q144.158 1765.22 144.158 1758.11 Q144.158 1750.98 142.329 1747.44 Q140.524 1743.87 136.89 1743.87 M136.89 1740.17 Q142.7 1740.17 145.755 1744.78 Q148.834 1749.36 148.834 1758.11 Q148.834 1766.84 145.755 1771.44 Q142.7 1776.03 136.89 1776.03 Q131.079 1776.03 128.001 1771.44 Q124.945 1766.84 124.945 1758.11 Q124.945 1749.36 128.001 1744.78 Q131.079 1740.17 136.89 1740.17 Z" fill="#000000" fill-rule="evenodd" fill-opacity="1" /><path clip-path="url(#clip600)" d="M62.4919 1323.09 Q58.8808 1323.09 57.0521 1326.66 Q55.2465 1330.2 55.2465 1337.33 Q55.2465 1344.43 57.0521 1348 Q58.8808 1351.54 62.4919 1351.54 Q66.1261 1351.54 67.9317 1348 Q69.7604 1344.43 69.7604 1337.33 Q69.7604 1330.2 67.9317 1326.66 Q66.1261 1323.09 62.4919 1323.09 M62.4919 1319.39 Q68.302 1319.39 71.3576 1323.99 Q74.4363 1328.58 74.4363 1337.33 Q74.4363 1346.05 71.3576 1350.66 Q68.302 1355.24 62.4919 1355.24 Q56.6817 1355.24 53.603 1350.66 Q50.5475 1346.05 50.5475 1337.33 Q50.5475 1328.58 53.603 1323.99 Q56.6817 1319.39 62.4919 1319.39 Z" fill="#000000" fill-rule="evenodd" fill-opacity="1" /><path clip-path="url(#clip600)" d="M82.6538 1348.69 L87.538 1348.69 L87.538 1354.57 L82.6538 1354.57 L82.6538 1348.69 Z" fill="#000000" fill-rule="evenodd" fill-opacity="1" /><path clip-path="url(#clip600)" d="M101.751 1350.64 L118.07 1350.64 L118.07 1354.57 L96.126 1354.57 L96.126 1350.64 Q98.788 1347.88 103.371 1343.25 Q107.978 1338.6 109.158 1337.26 Q111.404 1334.73 112.283 1333 Q113.186 1331.24 113.186 1329.55 Q113.186 1326.79 111.242 1325.06 Q109.32 1323.32 106.218 1323.32 Q104.019 1323.32 101.566 1324.09 Q99.1352 1324.85 96.3574 1326.4 L96.3574 1321.68 Q99.1815 1320.54 101.635 1319.97 Q104.089 1319.39 106.126 1319.39 Q111.496 1319.39 114.691 1322.07 Q117.885 1324.76 117.885 1329.25 Q117.885 1331.38 117.075 1333.3 Q116.288 1335.2 114.181 1337.79 Q113.603 1338.46 110.501 1341.68 Q107.399 1344.87 101.751 1350.64 Z" fill="#000000" fill-rule="evenodd" fill-opacity="1" /><path clip-path="url(#clip600)" d="M127.931 1320.01 L146.288 1320.01 L146.288 1323.95 L132.214 1323.95 L132.214 1332.42 Q133.232 1332.07 134.251 1331.91 Q135.269 1331.72 136.288 1331.72 Q142.075 1331.72 145.454 1334.9 Q148.834 1338.07 148.834 1343.48 Q148.834 1349.06 145.362 1352.16 Q141.89 1355.24 135.57 1355.24 Q133.394 1355.24 131.126 1354.87 Q128.88 1354.5 126.473 1353.76 L126.473 1349.06 Q128.556 1350.2 130.779 1350.75 Q133.001 1351.31 135.478 1351.31 Q139.482 1351.31 141.82 1349.2 Q144.158 1347.09 144.158 1343.48 Q144.158 1339.87 141.82 1337.77 Q139.482 1335.66 135.478 1335.66 Q133.603 1335.66 131.728 1336.08 Q129.876 1336.49 127.931 1337.37 L127.931 1320.01 Z" fill="#000000" fill-rule="evenodd" fill-opacity="1" /><path clip-path="url(#clip600)" d="M61.4965 902.308 Q57.8854 902.308 56.0567 905.873 Q54.2512 909.415 54.2512 916.544 Q54.2512 923.651 56.0567 927.216 Q57.8854 930.757 61.4965 930.757 Q65.1307 930.757 66.9363 927.216 Q68.765 923.651 68.765 916.544 Q68.765 909.415 66.9363 905.873 Q65.1307 902.308 61.4965 902.308 M61.4965 898.605 Q67.3067 898.605 70.3622 903.211 Q73.4409 907.795 73.4409 916.544 Q73.4409 925.271 70.3622 929.878 Q67.3067 934.461 61.4965 934.461 Q55.6864 934.461 52.6077 929.878 Q49.5521 925.271 49.5521 916.544 Q49.5521 907.795 52.6077 903.211 Q55.6864 898.605 61.4965 898.605 Z" fill="#000000" fill-rule="evenodd" fill-opacity="1" /><path clip-path="url(#clip600)" d="M81.6584 927.91 L86.5427 927.91 L86.5427 933.79 L81.6584 933.79 L81.6584 927.91 Z" fill="#000000" fill-rule="evenodd" fill-opacity="1" /><path clip-path="url(#clip600)" d="M96.7741 899.23 L115.13 899.23 L115.13 903.165 L101.056 903.165 L101.056 911.637 Q102.075 911.29 103.094 911.128 Q104.112 910.943 105.131 910.943 Q110.918 910.943 114.297 914.114 Q117.677 917.285 117.677 922.702 Q117.677 928.281 114.205 931.382 Q110.732 934.461 104.413 934.461 Q102.237 934.461 99.9685 934.091 Q97.7232 933.72 95.3158 932.98 L95.3158 928.281 Q97.3991 929.415 99.6213 929.97 Q101.844 930.526 104.32 930.526 Q108.325 930.526 110.663 928.419 Q113.001 926.313 113.001 922.702 Q113.001 919.091 110.663 916.984 Q108.325 914.878 104.32 914.878 Q102.445 914.878 100.57 915.294 Q98.7185 915.711 96.7741 916.591 L96.7741 899.23 Z" fill="#000000" fill-rule="evenodd" fill-opacity="1" /><path clip-path="url(#clip600)" d="M136.89 902.308 Q133.279 902.308 131.45 905.873 Q129.644 909.415 129.644 916.544 Q129.644 923.651 131.45 927.216 Q133.279 930.757 136.89 930.757 Q140.524 930.757 142.329 927.216 Q144.158 923.651 144.158 916.544 Q144.158 909.415 142.329 905.873 Q140.524 902.308 136.89 902.308 M136.89 898.605 Q142.7 898.605 145.755 903.211 Q148.834 907.795 148.834 916.544 Q148.834 925.271 145.755 929.878 Q142.7 934.461 136.89 934.461 Q131.079 934.461 128.001 929.878 Q124.945 925.271 124.945 916.544 Q124.945 907.795 128.001 903.211 Q131.079 898.605 136.89 898.605 Z" fill="#000000" fill-rule="evenodd" fill-opacity="1" /><path clip-path="url(#clip600)" d="M62.4919 481.526 Q58.8808 481.526 57.0521 485.091 Q55.2465 488.633 55.2465 495.762 Q55.2465 502.869 57.0521 506.434 Q58.8808 509.975 62.4919 509.975 Q66.1261 509.975 67.9317 506.434 Q69.7604 502.869 69.7604 495.762 Q69.7604 488.633 67.9317 485.091 Q66.1261 481.526 62.4919 481.526 M62.4919 477.823 Q68.302 477.823 71.3576 482.429 Q74.4363 487.012 74.4363 495.762 Q74.4363 504.489 71.3576 509.096 Q68.302 513.679 62.4919 513.679 Q56.6817 513.679 53.603 509.096 Q50.5475 504.489 50.5475 495.762 Q50.5475 487.012 53.603 482.429 Q56.6817 477.823 62.4919 477.823 Z" fill="#000000" fill-rule="evenodd" fill-opacity="1" /><path clip-path="url(#clip600)" d="M82.6538 507.128 L87.538 507.128 L87.538 513.008 L82.6538 513.008 L82.6538 507.128 Z" fill="#000000" fill-rule="evenodd" fill-opacity="1" /><path clip-path="url(#clip600)" d="M96.5426 478.448 L118.765 478.448 L118.765 480.438 L106.218 513.008 L101.334 513.008 L113.14 482.383 L96.5426 482.383 L96.5426 478.448 Z" fill="#000000" fill-rule="evenodd" fill-opacity="1" /><path clip-path="url(#clip600)" d="M127.931 478.448 L146.288 478.448 L146.288 482.383 L132.214 482.383 L132.214 490.855 Q133.232 490.508 134.251 490.346 Q135.269 490.161 136.288 490.161 Q142.075 490.161 145.454 493.332 Q148.834 496.503 148.834 501.92 Q148.834 507.498 145.362 510.6 Q141.89 513.679 135.57 513.679 Q133.394 513.679 131.126 513.309 Q128.88 512.938 126.473 512.198 L126.473 507.498 Q128.556 508.633 130.779 509.188 Q133.001 509.744 135.478 509.744 Q139.482 509.744 141.82 507.637 Q144.158 505.531 144.158 501.92 Q144.158 498.309 141.82 496.202 Q139.482 494.096 135.478 494.096 Q133.603 494.096 131.728 494.512 Q129.876 494.929 127.931 495.809 L127.931 478.448 Z" fill="#000000" fill-rule="evenodd" fill-opacity="1" /><path clip-path="url(#clip600)" d="M52.3067 88.2905 L59.9456 88.2905 L59.9456 61.9249 L51.6354 63.5916 L51.6354 59.3323 L59.8993 57.6657 L64.5752 57.6657 L64.5752 88.2905 L72.214 88.2905 L72.214 92.2257 L52.3067 92.2257 L52.3067 88.2905 Z" fill="#000000" fill-rule="evenodd" fill-opacity="1" /><path clip-path="url(#clip600)" d="M81.6584 86.3461 L86.5427 86.3461 L86.5427 92.2257 L81.6584 92.2257 L81.6584 86.3461 Z" fill="#000000" fill-rule="evenodd" fill-opacity="1" /><path clip-path="url(#clip600)" d="M106.728 60.7444 Q103.117 60.7444 101.288 64.3092 Q99.4824 67.8508 99.4824 74.9804 Q99.4824 82.0869 101.288 85.6516 Q103.117 89.1933 106.728 89.1933 Q110.362 89.1933 112.168 85.6516 Q113.996 82.0869 113.996 74.9804 Q113.996 67.8508 112.168 64.3092 Q110.362 60.7444 106.728 60.7444 M106.728 57.0407 Q112.538 57.0407 115.593 61.6471 Q118.672 66.2305 118.672 74.9804 Q118.672 83.7072 115.593 88.3137 Q112.538 92.897 106.728 92.897 Q100.918 92.897 97.8389 88.3137 Q94.7834 83.7072 94.7834 74.9804 Q94.7834 66.2305 97.8389 61.6471 Q100.918 57.0407 106.728 57.0407 Z" fill="#000000" fill-rule="evenodd" fill-opacity="1" /><path clip-path="url(#clip600)" d="M136.89 60.7444 Q133.279 60.7444 131.45 64.3092 Q129.644 67.8508 129.644 74.9804 Q129.644 82.0869 131.45 85.6516 Q133.279 89.1933 136.89 89.1933 Q140.524 89.1933 142.329 85.6516 Q144.158 82.0869 144.158 74.9804 Q144.158 67.8508 142.329 64.3092 Q140.524 60.7444 136.89 60.7444 M136.89 57.0407 Q142.7 57.0407 145.755 61.6471 Q148.834 66.2305 148.834 74.9804 Q148.834 83.7072 145.755 88.3137 Q142.7 92.897 136.89 92.897 Q131.079 92.897 128.001 88.3137 Q124.945 83.7072 124.945 74.9804 Q124.945 66.2305 128.001 61.6471 Q131.079 57.0407 136.89 57.0407 Z" fill="#000000" fill-rule="evenodd" fill-opacity="1" /><polyline clip-path="url(#clip602)" style="stroke:#009af9; stroke-linecap:butt; stroke-linejoin:round; stroke-width:4; stroke-opacity:1; fill:none" points="
  830.175,96.8724 781.276,1161.06 552.266,904.623 433.718,1248.36 633.32,245.042 1342.62,1017.42 2159.75,1362.23 1429.76,1068.42 1627.27,925.912 1795.56,1342.53 
  415.578,235.715 1956.84,1032.82 1964.71,1576.32 565.379,267.425 1700.38,1098.44 1964.22,1385.43 1001.23,606.192 1898.84,1249.61 856.699,1241.41 1867.73,222.907 
  1617.34,1266.47 775.486,1508.29 1592.19,936.733 1280.75,1519.01 1019.92,220.328 1921.79,807.792 1482.77,313.533 374.29,1724.71 839.78,1478.8 2116.61,1693.01 
  478.51,1177.12 477.923,215.759 988.359,1451.8 1538.68,489.311 2571.37,1336.99 2479.29,886.648 2201.89,1079.16 1887.54,519.107 1158.51,1122.36 1961.99,950.93 
  538.392,411.022 1292.7,152.57 1143.08,407.778 1571.75,279.285 1492.4,1645.64 1712.1,986.66 2319.95,1579.58 640.031,349.302 1569.78,1574.6 497.439,402.102 
  1930.58,183.484 868.016,526.223 1778.53,1521.29 2511.41,446.527 1781.43,1594.86 1192.77,422.375 261.267,1631.29 548.049,833.569 441.478,1007.11 284.611,314.428 
  603.707,643.34 1234.53,555.466 1078.68,270.014 372.211,550.197 309.351,1083.41 1269.73,808.94 526.731,1751.15 2563.28,715.375 1961.59,1188.04 1904.3,235.544 
  2370.41,234.449 1846.51,144.583 1396.34,900.037 1221.87,907.514 476.697,1268.74 1806.93,99.2495 1586.81,1745.35 258.539,742.931 640.757,294.239 688.217,867.165 
  1273.94,638.303 1012.64,222.322 2160.6,1503.22 545.321,918.744 1439.54,1745.47 2211.32,1265.77 1436.82,860.449 2321.27,1017.04 468.412,701.675 656.898,767.01 
  1485.06,512.569 2037.64,982.054 1481.7,849.848 2259.18,764.37 546.474,513.243 920.155,223.226 645.193,693.225 507.635,371.121 2342.75,1573.25 1006.76,968.391 
  
  "/>
<path clip-path="url(#clip600)" d="
M2261.45 209.375 L2559.04 209.375 L2559.04 105.695 L2261.45 105.695  Z
  " fill="#ffffff" fill-rule="evenodd" fill-opacity="1"/>
<polyline clip-path="url(#clip600)" style="stroke:#000000; stroke-linecap:butt; stroke-linejoin:round; stroke-width:4; stroke-opacity:1; fill:none" points="
  2261.45,209.375 2559.04,209.375 2559.04,105.695 2261.45,105.695 2261.45,209.375 
  "/>
<polyline clip-path="url(#clip600)" style="stroke:#009af9; stroke-linecap:butt; stroke-linejoin:round; stroke-width:4; stroke-opacity:1; fill:none" points="
  2288.69,157.535 2452.13,157.535 
  "/>
<path clip-path="url(#clip600)" d="M2493.21 177.223 Q2491.4 181.852 2489.69 183.264 Q2487.98 184.676 2485.11 184.676 L2481.7 184.676 L2481.7 181.112 L2484.2 181.112 Q2485.96 181.112 2486.93 180.278 Q2487.91 179.445 2489.09 176.343 L2489.85 174.399 L2479.37 148.889 L2483.88 148.889 L2491.98 169.167 L2500.08 148.889 L2504.6 148.889 L2493.21 177.223 Z" fill="#000000" fill-rule="evenodd" fill-opacity="1" /><path clip-path="url(#clip600)" d="M2511.89 170.88 L2519.53 170.88 L2519.53 144.515 L2511.22 146.181 L2511.22 141.922 L2519.48 140.255 L2524.16 140.255 L2524.16 170.88 L2531.8 170.88 L2531.8 174.815 L2511.89 174.815 L2511.89 170.88 Z" fill="#000000" fill-rule="evenodd" fill-opacity="1" /></svg>
