<?xml version="1.0" encoding="utf-8"?>
<svg xmlns="http://www.w3.org/2000/svg" xmlns:xlink="http://www.w3.org/1999/xlink" width="672" height="480" viewBox="0 0 2688 1920">
<defs>
  <clipPath id="clip640">
    <rect x="0" y="0" width="2688" height="1920"/>
  </clipPath>
</defs>
<path clip-path="url(#clip640)" d="
M0 1920 L2688 1920 L2688 0 L0 0  Z
  " fill="#ffffff" fill-rule="evenodd" fill-opacity="1"/>
<defs>
  <clipPath id="clip641">
    <rect x="537" y="0" width="1883" height="1883"/>
  </clipPath>
</defs>
<path clip-path="url(#clip640)" d="
M189.154 1800.78 L2640.76 1800.78 L2640.76 47.2441 L189.154 47.2441  Z
  " fill="#ffffff" fill-rule="evenodd" fill-opacity="1"/>
<defs>
  <clipPath id="clip642">
    <rect x="189" y="47" width="2453" height="1755"/>
  </clipPath>
</defs>
<polyline clip-path="url(#clip642)" style="stroke:#000000; stroke-linecap:butt; stroke-linejoin:round; stroke-width:2; stroke-opacity:0.1; fill:none" points="
  257.114,1800.78 257.114,47.2441 
  "/>
<polyline clip-path="url(#clip642)" style="stroke:#000000; stroke-linecap:butt; stroke-linejoin:round; stroke-width:2; stroke-opacity:0.1; fill:none" points="
  838.966,1800.78 838.966,47.2441 
  "/>
<polyline clip-path="url(#clip642)" style="stroke:#000000; stroke-linecap:butt; stroke-linejoin:round; stroke-width:2; stroke-opacity:0.1; fill:none" points="
  1420.82,1800.78 1420.82,47.2441 
  "/>
<polyline clip-path="url(#clip642)" style="stroke:#000000; stroke-linecap:butt; stroke-linejoin:round; stroke-width:2; stroke-opacity:0.1; fill:none" points="
  2002.67,1800.78 2002.67,47.2441 
  "/>
<polyline clip-path="url(#clip642)" style="stroke:#000000; stroke-linecap:butt; stroke-linejoin:round; stroke-width:2; stroke-opacity:0.1; fill:none" points="
  2584.52,1800.78 2584.52,47.2441 
  "/>
<polyline clip-path="url(#clip640)" style="stroke:#000000; stroke-linecap:butt; stroke-linejoin:round; stroke-width:4; stroke-opacity:1; fill:none" points="
  189.154,1800.78 2640.76,1800.78 
  "/>
<polyline clip-path="url(#clip640)" style="stroke:#000000; stroke-linecap:butt; stroke-linejoin:round; stroke-width:4; stroke-opacity:1; fill:none" points="
  257.114,1800.78 257.114,1781.88 
  "/>
<polyline clip-path="url(#clip640)" style="stroke:#000000; stroke-linecap:butt; stroke-linejoin:round; stroke-width:4; stroke-opacity:1; fill:none" points="
  838.966,1800.78 838.966,1781.88 
  "/>
<polyline clip-path="url(#clip640)" style="stroke:#000000; stroke-linecap:butt; stroke-linejoin:round; stroke-width:4; stroke-opacity:1; fill:none" points="
  1420.82,1800.78 1420.82,1781.88 
  "/>
<polyline clip-path="url(#clip640)" style="stroke:#000000; stroke-linecap:butt; stroke-linejoin:round; stroke-width:4; stroke-opacity:1; fill:none" points="
  2002.67,1800.78 2002.67,1781.88 
  "/>
<polyline clip-path="url(#clip640)" style="stroke:#000000; stroke-linecap:butt; stroke-linejoin:round; stroke-width:4; stroke-opacity:1; fill:none" points="
  2584.52,1800.78 2584.52,1781.88 
  "/>
<path clip-path="url(#clip640)" d="M219.417 1834 Q215.806 1834 213.977 1837.57 Q212.172 1841.11 212.172 1848.24 Q212.172 1855.34 213.977 1858.91 Q215.806 1862.45 219.417 1862.45 Q223.051 1862.45 224.857 1858.91 Q226.686 1855.34 226.686 1848.24 Q226.686 1841.11 224.857 1837.57 Q223.051 1834 219.417 1834 M219.417 1830.3 Q225.227 1830.3 228.283 1834.9 Q231.361 1839.49 231.361 1848.24 Q231.361 1856.96 228.283 1861.57 Q225.227 1866.15 219.417 1866.15 Q213.607 1866.15 210.528 1861.57 Q207.473 1856.96 207.473 1848.24 Q207.473 1839.49 210.528 1834.9 Q213.607 1830.3 219.417 1830.3 Z" fill="#000000" fill-rule="evenodd" fill-opacity="1" /><path clip-path="url(#clip640)" d="M239.579 1859.6 L244.463 1859.6 L244.463 1865.48 L239.579 1865.48 L239.579 1859.6 Z" fill="#000000" fill-rule="evenodd" fill-opacity="1" /><path clip-path="url(#clip640)" d="M264.648 1834 Q261.037 1834 259.208 1837.57 Q257.403 1841.11 257.403 1848.24 Q257.403 1855.34 259.208 1858.91 Q261.037 1862.45 264.648 1862.45 Q268.283 1862.45 270.088 1858.91 Q271.917 1855.34 271.917 1848.24 Q271.917 1841.11 270.088 1837.57 Q268.283 1834 264.648 1834 M264.648 1830.3 Q270.458 1830.3 273.514 1834.9 Q276.593 1839.49 276.593 1848.24 Q276.593 1856.96 273.514 1861.57 Q270.458 1866.15 264.648 1866.15 Q258.838 1866.15 255.759 1861.57 Q252.704 1856.96 252.704 1848.24 Q252.704 1839.49 255.759 1834.9 Q258.838 1830.3 264.648 1830.3 Z" fill="#000000" fill-rule="evenodd" fill-opacity="1" /><path clip-path="url(#clip640)" d="M294.81 1834 Q291.199 1834 289.37 1837.57 Q287.565 1841.11 287.565 1848.24 Q287.565 1855.34 289.37 1858.91 Q291.199 1862.45 294.81 1862.45 Q298.444 1862.45 300.25 1858.91 Q302.079 1855.34 302.079 1848.24 Q302.079 1841.11 300.25 1837.57 Q298.444 1834 294.81 1834 M294.81 1830.3 Q300.62 1830.3 303.676 1834.9 Q306.755 1839.49 306.755 1848.24 Q306.755 1856.96 303.676 1861.57 Q300.62 1866.15 294.81 1866.15 Q289 1866.15 285.921 1861.57 Q282.866 1856.96 282.866 1848.24 Q282.866 1839.49 285.921 1834.9 Q289 1830.3 294.81 1830.3 Z" fill="#000000" fill-rule="evenodd" fill-opacity="1" /><path clip-path="url(#clip640)" d="M801.767 1834 Q798.156 1834 796.327 1837.57 Q794.522 1841.11 794.522 1848.24 Q794.522 1855.34 796.327 1858.91 Q798.156 1862.45 801.767 1862.45 Q805.401 1862.45 807.207 1858.91 Q809.036 1855.34 809.036 1848.24 Q809.036 1841.11 807.207 1837.57 Q805.401 1834 801.767 1834 M801.767 1830.3 Q807.577 1830.3 810.633 1834.9 Q813.711 1839.49 813.711 1848.24 Q813.711 1856.96 810.633 1861.57 Q807.577 1866.15 801.767 1866.15 Q795.957 1866.15 792.878 1861.57 Q789.823 1856.96 789.823 1848.24 Q789.823 1839.49 792.878 1834.9 Q795.957 1830.3 801.767 1830.3 Z" fill="#000000" fill-rule="evenodd" fill-opacity="1" /><path clip-path="url(#clip640)" d="M821.929 1859.6 L826.813 1859.6 L826.813 1865.48 L821.929 1865.48 L821.929 1859.6 Z" fill="#000000" fill-rule="evenodd" fill-opacity="1" /><path clip-path="url(#clip640)" d="M841.026 1861.55 L857.345 1861.55 L857.345 1865.48 L835.401 1865.48 L835.401 1861.55 Q838.063 1858.79 842.646 1854.16 Q847.253 1849.51 848.433 1848.17 Q850.679 1845.65 851.558 1843.91 Q852.461 1842.15 852.461 1840.46 Q852.461 1837.71 850.517 1835.97 Q848.596 1834.23 845.494 1834.23 Q843.295 1834.23 840.841 1835 Q838.41 1835.76 835.633 1837.31 L835.633 1832.59 Q838.457 1831.46 840.91 1830.88 Q843.364 1830.3 845.401 1830.3 Q850.771 1830.3 853.966 1832.98 Q857.16 1835.67 857.16 1840.16 Q857.16 1842.29 856.35 1844.21 Q855.563 1846.11 853.457 1848.7 Q852.878 1849.37 849.776 1852.59 Q846.674 1855.78 841.026 1861.55 Z" fill="#000000" fill-rule="evenodd" fill-opacity="1" /><path clip-path="url(#clip640)" d="M867.207 1830.92 L885.563 1830.92 L885.563 1834.86 L871.489 1834.86 L871.489 1843.33 Q872.507 1842.98 873.526 1842.82 Q874.544 1842.64 875.563 1842.64 Q881.35 1842.64 884.73 1845.81 Q888.109 1848.98 888.109 1854.4 Q888.109 1859.97 884.637 1863.08 Q881.165 1866.15 874.845 1866.15 Q872.669 1866.15 870.401 1865.78 Q868.156 1865.41 865.748 1864.67 L865.748 1859.97 Q867.832 1861.11 870.054 1861.66 Q872.276 1862.22 874.753 1862.22 Q878.757 1862.22 881.095 1860.11 Q883.433 1858.01 883.433 1854.4 Q883.433 1850.78 881.095 1848.68 Q878.757 1846.57 874.753 1846.57 Q872.878 1846.57 871.003 1846.99 Q869.151 1847.4 867.207 1848.28 L867.207 1830.92 Z" fill="#000000" fill-rule="evenodd" fill-opacity="1" /><path clip-path="url(#clip640)" d="M1383.12 1834 Q1379.51 1834 1377.68 1837.57 Q1375.88 1841.11 1375.88 1848.24 Q1375.88 1855.34 1377.68 1858.91 Q1379.51 1862.45 1383.12 1862.45 Q1386.76 1862.45 1388.56 1858.91 Q1390.39 1855.34 1390.39 1848.24 Q1390.39 1841.11 1388.56 1837.57 Q1386.76 1834 1383.12 1834 M1383.12 1830.3 Q1388.93 1830.3 1391.99 1834.9 Q1395.07 1839.49 1395.07 1848.24 Q1395.07 1856.96 1391.99 1861.57 Q1388.93 1866.15 1383.12 1866.15 Q1377.31 1866.15 1374.23 1861.57 Q1371.18 1856.96 1371.18 1848.24 Q1371.18 1839.49 1374.23 1834.9 Q1377.31 1830.3 1383.12 1830.3 Z" fill="#000000" fill-rule="evenodd" fill-opacity="1" /><path clip-path="url(#clip640)" d="M1403.28 1859.6 L1408.17 1859.6 L1408.17 1865.48 L1403.28 1865.48 L1403.28 1859.6 Z" fill="#000000" fill-rule="evenodd" fill-opacity="1" /><path clip-path="url(#clip640)" d="M1418.4 1830.92 L1436.76 1830.92 L1436.76 1834.86 L1422.68 1834.86 L1422.68 1843.33 Q1423.7 1842.98 1424.72 1842.82 Q1425.74 1842.64 1426.76 1842.64 Q1432.54 1842.64 1435.92 1845.81 Q1439.3 1848.98 1439.3 1854.4 Q1439.3 1859.97 1435.83 1863.08 Q1432.36 1866.15 1426.04 1866.15 Q1423.86 1866.15 1421.59 1865.78 Q1419.35 1865.41 1416.94 1864.67 L1416.94 1859.97 Q1419.02 1861.11 1421.25 1861.66 Q1423.47 1862.22 1425.95 1862.22 Q1429.95 1862.22 1432.29 1860.11 Q1434.63 1858.01 1434.63 1854.4 Q1434.63 1850.78 1432.29 1848.68 Q1429.95 1846.57 1425.95 1846.57 Q1424.07 1846.57 1422.2 1846.99 Q1420.34 1847.4 1418.4 1848.28 L1418.4 1830.92 Z" fill="#000000" fill-rule="evenodd" fill-opacity="1" /><path clip-path="url(#clip640)" d="M1458.51 1834 Q1454.9 1834 1453.08 1837.57 Q1451.27 1841.11 1451.27 1848.24 Q1451.27 1855.34 1453.08 1858.91 Q1454.9 1862.45 1458.51 1862.45 Q1462.15 1862.45 1463.95 1858.91 Q1465.78 1855.34 1465.78 1848.24 Q1465.78 1841.11 1463.95 1837.57 Q1462.15 1834 1458.51 1834 M1458.51 1830.3 Q1464.33 1830.3 1467.38 1834.9 Q1470.46 1839.49 1470.46 1848.24 Q1470.46 1856.96 1467.38 1861.57 Q1464.33 1866.15 1458.51 1866.15 Q1452.7 1866.15 1449.63 1861.57 Q1446.57 1856.96 1446.57 1848.24 Q1446.57 1839.49 1449.63 1834.9 Q1452.7 1830.3 1458.51 1830.3 Z" fill="#000000" fill-rule="evenodd" fill-opacity="1" /><path clip-path="url(#clip640)" d="M1965.47 1834 Q1961.86 1834 1960.03 1837.57 Q1958.23 1841.11 1958.23 1848.24 Q1958.23 1855.34 1960.03 1858.91 Q1961.86 1862.45 1965.47 1862.45 Q1969.11 1862.45 1970.91 1858.91 Q1972.74 1855.34 1972.74 1848.24 Q1972.74 1841.11 1970.91 1837.57 Q1969.11 1834 1965.47 1834 M1965.47 1830.3 Q1971.28 1830.3 1974.34 1834.9 Q1977.42 1839.49 1977.42 1848.24 Q1977.42 1856.96 1974.34 1861.57 Q1971.28 1866.15 1965.47 1866.15 Q1959.66 1866.15 1956.58 1861.57 Q1953.53 1856.96 1953.53 1848.24 Q1953.53 1839.49 1956.58 1834.9 Q1959.66 1830.3 1965.47 1830.3 Z" fill="#000000" fill-rule="evenodd" fill-opacity="1" /><path clip-path="url(#clip640)" d="M1985.63 1859.6 L1990.52 1859.6 L1990.52 1865.48 L1985.63 1865.48 L1985.63 1859.6 Z" fill="#000000" fill-rule="evenodd" fill-opacity="1" /><path clip-path="url(#clip640)" d="M1999.52 1830.92 L2021.74 1830.92 L2021.74 1832.91 L2009.2 1865.48 L2004.31 1865.48 L2016.12 1834.86 L1999.52 1834.86 L1999.52 1830.92 Z" fill="#000000" fill-rule="evenodd" fill-opacity="1" /><path clip-path="url(#clip640)" d="M2030.91 1830.92 L2049.27 1830.92 L2049.27 1834.86 L2035.19 1834.86 L2035.19 1843.33 Q2036.21 1842.98 2037.23 1842.82 Q2038.25 1842.64 2039.27 1842.64 Q2045.05 1842.64 2048.43 1845.81 Q2051.81 1848.98 2051.81 1854.4 Q2051.81 1859.97 2048.34 1863.08 Q2044.87 1866.15 2038.55 1866.15 Q2036.37 1866.15 2034.11 1865.78 Q2031.86 1865.41 2029.45 1864.67 L2029.45 1859.97 Q2031.54 1861.11 2033.76 1861.66 Q2035.98 1862.22 2038.46 1862.22 Q2042.46 1862.22 2044.8 1860.11 Q2047.14 1858.01 2047.14 1854.4 Q2047.14 1850.78 2044.8 1848.68 Q2042.46 1846.57 2038.46 1846.57 Q2036.58 1846.57 2034.71 1846.99 Q2032.86 1847.4 2030.91 1848.28 L2030.91 1830.92 Z" fill="#000000" fill-rule="evenodd" fill-opacity="1" /><path clip-path="url(#clip640)" d="M2536.6 1861.55 L2544.23 1861.55 L2544.23 1835.18 L2535.92 1836.85 L2535.92 1832.59 L2544.19 1830.92 L2548.86 1830.92 L2548.86 1861.55 L2556.5 1861.55 L2556.5 1865.48 L2536.6 1865.48 L2536.6 1861.55 Z" fill="#000000" fill-rule="evenodd" fill-opacity="1" /><path clip-path="url(#clip640)" d="M2565.95 1859.6 L2570.83 1859.6 L2570.83 1865.48 L2565.95 1865.48 L2565.95 1859.6 Z" fill="#000000" fill-rule="evenodd" fill-opacity="1" /><path clip-path="url(#clip640)" d="M2591.02 1834 Q2587.4 1834 2585.58 1837.57 Q2583.77 1841.11 2583.77 1848.24 Q2583.77 1855.34 2585.58 1858.91 Q2587.4 1862.45 2591.02 1862.45 Q2594.65 1862.45 2596.46 1858.91 Q2598.28 1855.34 2598.28 1848.24 Q2598.28 1841.11 2596.46 1837.57 Q2594.65 1834 2591.02 1834 M2591.02 1830.3 Q2596.83 1830.3 2599.88 1834.9 Q2602.96 1839.49 2602.96 1848.24 Q2602.96 1856.96 2599.88 1861.57 Q2596.83 1866.15 2591.02 1866.15 Q2585.21 1866.15 2582.13 1861.57 Q2579.07 1856.96 2579.07 1848.24 Q2579.07 1839.49 2582.13 1834.9 Q2585.21 1830.3 2591.02 1830.3 Z" fill="#000000" fill-rule="evenodd" fill-opacity="1" /><path clip-path="url(#clip640)" d="M2621.18 1834 Q2617.57 1834 2615.74 1837.57 Q2613.93 1841.11 2613.93 1848.24 Q2613.93 1855.34 2615.74 1858.91 Q2617.57 1862.45 2621.18 1862.45 Q2624.81 1862.45 2626.62 1858.91 Q2628.45 1855.34 2628.45 1848.24 Q2628.45 1841.11 2626.62 1837.57 Q2624.81 1834 2621.18 1834 M2621.18 1830.3 Q2626.99 1830.3 2630.04 1834.9 Q2633.12 1839.49 2633.12 1848.24 Q2633.12 1856.96 2630.04 1861.57 Q2626.99 1866.15 2621.18 1866.15 Q2615.37 1866.15 2612.29 1861.57 Q2609.23 1856.96 2609.23 1848.24 Q2609.23 1839.49 2612.29 1834.9 Q2615.37 1830.3 2621.18 1830.3 Z" fill="#000000" fill-rule="evenodd" fill-opacity="1" /><polyline clip-path="url(#clip642)" style="stroke:#000000; stroke-linecap:butt; stroke-linejoin:round; stroke-width:2; stroke-opacity:0.1; fill:none" points="
  189.154,1763.58 2640.76,1763.58 
  "/>
<polyline clip-path="url(#clip642)" style="stroke:#000000; stroke-linecap:butt; stroke-linejoin:round; stroke-width:2; stroke-opacity:0.1; fill:none" points="
  189.154,1344.96 2640.76,1344.96 
  "/>
<polyline clip-path="url(#clip642)" style="stroke:#000000; stroke-linecap:butt; stroke-linejoin:round; stroke-width:2; stroke-opacity:0.1; fill:none" points="
  189.154,926.352 2640.76,926.352 
  "/>
<polyline clip-path="url(#clip642)" style="stroke:#000000; stroke-linecap:butt; stroke-linejoin:round; stroke-width:2; stroke-opacity:0.1; fill:none" points="
  189.154,507.74 2640.76,507.74 
  "/>
<polyline clip-path="url(#clip642)" style="stroke:#000000; stroke-linecap:butt; stroke-linejoin:round; stroke-width:2; stroke-opacity:0.1; fill:none" points="
  189.154,89.1274 2640.76,89.1274 
  "/>
<polyline clip-path="url(#clip640)" style="stroke:#000000; stroke-linecap:butt; stroke-linejoin:round; stroke-width:4; stroke-opacity:1; fill:none" points="
  189.154,1800.78 189.154,47.2441 
  "/>
<polyline clip-path="url(#clip640)" style="stroke:#000000; stroke-linecap:butt; stroke-linejoin:round; stroke-width:4; stroke-opacity:1; fill:none" points="
  189.154,1763.58 208.052,1763.58 
  "/>
<polyline clip-path="url(#clip640)" style="stroke:#000000; stroke-linecap:butt; stroke-linejoin:round; stroke-width:4; stroke-opacity:1; fill:none" points="
  189.154,1344.96 208.052,1344.96 
  "/>
<polyline clip-path="url(#clip640)" style="stroke:#000000; stroke-linecap:butt; stroke-linejoin:round; stroke-width:4; stroke-opacity:1; fill:none" points="
  189.154,926.352 208.052,926.352 
  "/>
<polyline clip-path="url(#clip640)" style="stroke:#000000; stroke-linecap:butt; stroke-linejoin:round; stroke-width:4; stroke-opacity:1; fill:none" points="
  189.154,507.74 208.052,507.74 
  "/>
<polyline clip-path="url(#clip640)" style="stroke:#000000; stroke-linecap:butt; stroke-linejoin:round; stroke-width:4; stroke-opacity:1; fill:none" points="
  189.154,89.1274 208.052,89.1274 
  "/>
<path clip-path="url(#clip640)" d="M61.4965 1749.38 Q57.8854 1749.38 56.0567 1752.94 Q54.2512 1756.48 54.2512 1763.61 Q54.2512 1770.72 56.0567 1774.28 Q57.8854 1777.82 61.4965 1777.82 Q65.1307 1777.82 66.9363 1774.28 Q68.765 1770.72 68.765 1763.61 Q68.765 1756.48 66.9363 1752.94 Q65.1307 1749.38 61.4965 1749.38 M61.4965 1745.67 Q67.3067 1745.67 70.3622 1750.28 Q73.4409 1754.86 73.4409 1763.61 Q73.4409 1772.34 70.3622 1776.94 Q67.3067 1781.53 61.4965 1781.53 Q55.6864 1781.53 52.6077 1776.94 Q49.5521 1772.34 49.5521 1763.61 Q49.5521 1754.86 52.6077 1750.28 Q55.6864 1745.67 61.4965 1745.67 Z" fill="#000000" fill-rule="evenodd" fill-opacity="1" /><path clip-path="url(#clip640)" d="M81.6584 1774.98 L86.5427 1774.98 L86.5427 1780.86 L81.6584 1780.86 L81.6584 1774.98 Z" fill="#000000" fill-rule="evenodd" fill-opacity="1" /><path clip-path="url(#clip640)" d="M106.728 1749.38 Q103.117 1749.38 101.288 1752.94 Q99.4824 1756.48 99.4824 1763.61 Q99.4824 1770.72 101.288 1774.28 Q103.117 1777.82 106.728 1777.82 Q110.362 1777.82 112.168 1774.28 Q113.996 1770.72 113.996 1763.61 Q113.996 1756.48 112.168 1752.94 Q110.362 1749.38 106.728 1749.38 M106.728 1745.67 Q112.538 1745.67 115.593 1750.28 Q118.672 1754.86 118.672 1763.61 Q118.672 1772.34 115.593 1776.94 Q112.538 1781.53 106.728 1781.53 Q100.918 1781.53 97.8389 1776.94 Q94.7834 1772.34 94.7834 1763.61 Q94.7834 1754.86 97.8389 1750.28 Q100.918 1745.67 106.728 1745.67 Z" fill="#000000" fill-rule="evenodd" fill-opacity="1" /><path clip-path="url(#clip640)" d="M136.89 1749.38 Q133.279 1749.38 131.45 1752.94 Q129.644 1756.48 129.644 1763.61 Q129.644 1770.72 131.45 1774.28 Q133.279 1777.82 136.89 1777.82 Q140.524 1777.82 142.329 1774.28 Q144.158 1770.72 144.158 1763.61 Q144.158 1756.48 142.329 1752.94 Q140.524 1749.38 136.89 1749.38 M136.89 1745.67 Q142.7 1745.67 145.755 1750.28 Q148.834 1754.86 148.834 1763.61 Q148.834 1772.34 145.755 1776.94 Q142.7 1781.53 136.89 1781.53 Q131.079 1781.53 128.001 1776.94 Q124.945 1772.34 124.945 1763.61 Q124.945 1754.86 128.001 1750.28 Q131.079 1745.67 136.89 1745.67 Z" fill="#000000" fill-rule="evenodd" fill-opacity="1" /><path clip-path="url(#clip640)" d="M62.4919 1330.76 Q58.8808 1330.76 57.0521 1334.33 Q55.2465 1337.87 55.2465 1345 Q55.2465 1352.11 57.0521 1355.67 Q58.8808 1359.21 62.4919 1359.21 Q66.1261 1359.21 67.9317 1355.67 Q69.7604 1352.11 69.7604 1345 Q69.7604 1337.87 67.9317 1334.33 Q66.1261 1330.76 62.4919 1330.76 M62.4919 1327.06 Q68.302 1327.06 71.3576 1331.67 Q74.4363 1336.25 74.4363 1345 Q74.4363 1353.73 71.3576 1358.33 Q68.302 1362.92 62.4919 1362.92 Q56.6817 1362.92 53.603 1358.33 Q50.5475 1353.73 50.5475 1345 Q50.5475 1336.25 53.603 1331.67 Q56.6817 1327.06 62.4919 1327.06 Z" fill="#000000" fill-rule="evenodd" fill-opacity="1" /><path clip-path="url(#clip640)" d="M82.6538 1356.36 L87.538 1356.36 L87.538 1362.24 L82.6538 1362.24 L82.6538 1356.36 Z" fill="#000000" fill-rule="evenodd" fill-opacity="1" /><path clip-path="url(#clip640)" d="M101.751 1358.31 L118.07 1358.31 L118.07 1362.24 L96.126 1362.24 L96.126 1358.31 Q98.788 1355.55 103.371 1350.92 Q107.978 1346.27 109.158 1344.93 Q111.404 1342.41 112.283 1340.67 Q113.186 1338.91 113.186 1337.22 Q113.186 1334.47 111.242 1332.73 Q109.32 1330.99 106.218 1330.99 Q104.019 1330.99 101.566 1331.76 Q99.1352 1332.52 96.3574 1334.07 L96.3574 1329.35 Q99.1815 1328.22 101.635 1327.64 Q104.089 1327.06 106.126 1327.06 Q111.496 1327.06 114.691 1329.74 Q117.885 1332.43 117.885 1336.92 Q117.885 1339.05 117.075 1340.97 Q116.288 1342.87 114.181 1345.46 Q113.603 1346.13 110.501 1349.35 Q107.399 1352.55 101.751 1358.31 Z" fill="#000000" fill-rule="evenodd" fill-opacity="1" /><path clip-path="url(#clip640)" d="M127.931 1327.68 L146.288 1327.68 L146.288 1331.62 L132.214 1331.62 L132.214 1340.09 Q133.232 1339.74 134.251 1339.58 Q135.269 1339.4 136.288 1339.4 Q142.075 1339.4 145.454 1342.57 Q148.834 1345.74 148.834 1351.16 Q148.834 1356.74 145.362 1359.84 Q141.89 1362.92 135.57 1362.92 Q133.394 1362.92 131.126 1362.55 Q128.88 1362.17 126.473 1361.43 L126.473 1356.74 Q128.556 1357.87 130.779 1358.42 Q133.001 1358.98 135.478 1358.98 Q139.482 1358.98 141.82 1356.87 Q144.158 1354.77 144.158 1351.16 Q144.158 1347.55 141.82 1345.44 Q139.482 1343.33 135.478 1343.33 Q133.603 1343.33 131.728 1343.75 Q129.876 1344.17 127.931 1345.05 L127.931 1327.68 Z" fill="#000000" fill-rule="evenodd" fill-opacity="1" /><path clip-path="url(#clip640)" d="M61.4965 912.151 Q57.8854 912.151 56.0567 915.716 Q54.2512 919.257 54.2512 926.387 Q54.2512 933.493 56.0567 937.058 Q57.8854 940.6 61.4965 940.6 Q65.1307 940.6 66.9363 937.058 Q68.765 933.493 68.765 926.387 Q68.765 919.257 66.9363 915.716 Q65.1307 912.151 61.4965 912.151 M61.4965 908.447 Q67.3067 908.447 70.3622 913.053 Q73.4409 917.637 73.4409 926.387 Q73.4409 935.114 70.3622 939.72 Q67.3067 944.303 61.4965 944.303 Q55.6864 944.303 52.6077 939.72 Q49.5521 935.114 49.5521 926.387 Q49.5521 917.637 52.6077 913.053 Q55.6864 908.447 61.4965 908.447 Z" fill="#000000" fill-rule="evenodd" fill-opacity="1" /><path clip-path="url(#clip640)" d="M81.6584 937.752 L86.5427 937.752 L86.5427 943.632 L81.6584 943.632 L81.6584 937.752 Z" fill="#000000" fill-rule="evenodd" fill-opacity="1" /><path clip-path="url(#clip640)" d="M96.7741 909.072 L115.13 909.072 L115.13 913.007 L101.056 913.007 L101.056 921.479 Q102.075 921.132 103.094 920.97 Q104.112 920.785 105.131 920.785 Q110.918 920.785 114.297 923.956 Q117.677 927.127 117.677 932.544 Q117.677 938.123 114.205 941.225 Q110.732 944.303 104.413 944.303 Q102.237 944.303 99.9685 943.933 Q97.7232 943.563 95.3158 942.822 L95.3158 938.123 Q97.3991 939.257 99.6213 939.813 Q101.844 940.368 104.32 940.368 Q108.325 940.368 110.663 938.262 Q113.001 936.155 113.001 932.544 Q113.001 928.933 110.663 926.827 Q108.325 924.72 104.32 924.72 Q102.445 924.72 100.57 925.137 Q98.7185 925.553 96.7741 926.433 L96.7741 909.072 Z" fill="#000000" fill-rule="evenodd" fill-opacity="1" /><path clip-path="url(#clip640)" d="M136.89 912.151 Q133.279 912.151 131.45 915.716 Q129.644 919.257 129.644 926.387 Q129.644 933.493 131.45 937.058 Q133.279 940.6 136.89 940.6 Q140.524 940.6 142.329 937.058 Q144.158 933.493 144.158 926.387 Q144.158 919.257 142.329 915.716 Q140.524 912.151 136.89 912.151 M136.89 908.447 Q142.7 908.447 145.755 913.053 Q148.834 917.637 148.834 926.387 Q148.834 935.114 145.755 939.72 Q142.7 944.303 136.89 944.303 Q131.079 944.303 128.001 939.72 Q124.945 935.114 124.945 926.387 Q124.945 917.637 128.001 913.053 Q131.079 908.447 136.89 908.447 Z" fill="#000000" fill-rule="evenodd" fill-opacity="1" /><path clip-path="url(#clip640)" d="M62.4919 493.538 Q58.8808 493.538 57.0521 497.103 Q55.2465 500.645 55.2465 507.774 Q55.2465 514.881 57.0521 518.446 Q58.8808 521.987 62.4919 521.987 Q66.1261 521.987 67.9317 518.446 Q69.7604 514.881 69.7604 507.774 Q69.7604 500.645 67.9317 497.103 Q66.1261 493.538 62.4919 493.538 M62.4919 489.835 Q68.302 489.835 71.3576 494.441 Q74.4363 499.024 74.4363 507.774 Q74.4363 516.501 71.3576 521.108 Q68.302 525.691 62.4919 525.691 Q56.6817 525.691 53.603 521.108 Q50.5475 516.501 50.5475 507.774 Q50.5475 499.024 53.603 494.441 Q56.6817 489.835 62.4919 489.835 Z" fill="#000000" fill-rule="evenodd" fill-opacity="1" /><path clip-path="url(#clip640)" d="M82.6538 519.14 L87.538 519.14 L87.538 525.02 L82.6538 525.02 L82.6538 519.14 Z" fill="#000000" fill-rule="evenodd" fill-opacity="1" /><path clip-path="url(#clip640)" d="M96.5426 490.46 L118.765 490.46 L118.765 492.45 L106.218 525.02 L101.334 525.02 L113.14 494.395 L96.5426 494.395 L96.5426 490.46 Z" fill="#000000" fill-rule="evenodd" fill-opacity="1" /><path clip-path="url(#clip640)" d="M127.931 490.46 L146.288 490.46 L146.288 494.395 L132.214 494.395 L132.214 502.867 Q133.232 502.52 134.251 502.358 Q135.269 502.173 136.288 502.173 Q142.075 502.173 145.454 505.344 Q148.834 508.515 148.834 513.932 Q148.834 519.51 145.362 522.612 Q141.89 525.691 135.57 525.691 Q133.394 525.691 131.126 525.321 Q128.88 524.95 126.473 524.21 L126.473 519.51 Q128.556 520.645 130.779 521.2 Q133.001 521.756 135.478 521.756 Q139.482 521.756 141.82 519.649 Q144.158 517.543 144.158 513.932 Q144.158 510.321 141.82 508.214 Q139.482 506.108 135.478 506.108 Q133.603 506.108 131.728 506.524 Q129.876 506.941 127.931 507.821 L127.931 490.46 Z" fill="#000000" fill-rule="evenodd" fill-opacity="1" /><path clip-path="url(#clip640)" d="M52.3067 102.472 L59.9456 102.472 L59.9456 76.1066 L51.6354 77.7732 L51.6354 73.514 L59.8993 71.8474 L64.5752 71.8474 L64.5752 102.472 L72.214 102.472 L72.214 106.407 L52.3067 106.407 L52.3067 102.472 Z" fill="#000000" fill-rule="evenodd" fill-opacity="1" /><path clip-path="url(#clip640)" d="M81.6584 100.528 L86.5427 100.528 L86.5427 106.407 L81.6584 106.407 L81.6584 100.528 Z" fill="#000000" fill-rule="evenodd" fill-opacity="1" /><path clip-path="url(#clip640)" d="M106.728 74.926 Q103.117 74.926 101.288 78.4908 Q99.4824 82.0325 99.4824 89.1621 Q99.4824 96.2685 101.288 99.8333 Q103.117 103.375 106.728 103.375 Q110.362 103.375 112.168 99.8333 Q113.996 96.2685 113.996 89.1621 Q113.996 82.0325 112.168 78.4908 Q110.362 74.926 106.728 74.926 M106.728 71.2224 Q112.538 71.2224 115.593 75.8288 Q118.672 80.4121 118.672 89.1621 Q118.672 97.8889 115.593 102.495 Q112.538 107.079 106.728 107.079 Q100.918 107.079 97.8389 102.495 Q94.7834 97.8889 94.7834 89.1621 Q94.7834 80.4121 97.8389 75.8288 Q100.918 71.2224 106.728 71.2224 Z" fill="#000000" fill-rule="evenodd" fill-opacity="1" /><path clip-path="url(#clip640)" d="M136.89 74.926 Q133.279 74.926 131.45 78.4908 Q129.644 82.0325 129.644 89.1621 Q129.644 96.2685 131.45 99.8333 Q133.279 103.375 136.89 103.375 Q140.524 103.375 142.329 99.8333 Q144.158 96.2685 144.158 89.1621 Q144.158 82.0325 142.329 78.4908 Q140.524 74.926 136.89 74.926 M136.89 71.2224 Q142.7 71.2224 145.755 75.8288 Q148.834 80.4121 148.834 89.1621 Q148.834 97.8889 145.755 102.495 Q142.7 107.079 136.89 107.079 Q131.079 107.079 128.001 102.495 Q124.945 97.8889 124.945 89.1621 Q124.945 80.4121 128.001 75.8288 Q131.079 71.2224 136.89 71.2224 Z" fill="#000000" fill-rule="evenodd" fill-opacity="1" /><polyline clip-path="url(#clip642)" style="stroke:#009af9; stroke-linecap:butt; stroke-linejoin:round; stroke-width:4; stroke-opacity:1; fill:none" points="
  2158.99,490.687 1423.82,1044.27 539.06,1388.47 549.805,1006.55 1674.54,1012.65 1333.61,1235.44 1830.95,895.036 1340.09,1556.82 1775.67,503.887 1711.6,252.849 
  497.99,1079.69 1741.24,599.789 483.783,1587.28 1521.71,1675.46 1996.12,1751.15 928.51,377.452 979.419,530.063 1833.65,230.362 2386.3,949.426 1490.41,721.248 
  2505.35,896.262 2051.74,255.126 2282,720.33 1054.43,1202.28 1115.21,1175.15 2084.51,741.94 2553.76,475.503 2084.22,1277.78 1419.07,210.405 2128.18,726.069 
  1274.45,1684.04 1452.61,1300.63 1003.73,875.192 1913.38,498.937 1443.9,497.716 2437.85,995.501 2479.04,864.281 843.666,918.273 1406.82,1273.08 2498.91,1661.54 
  258.539,1430.91 932.629,629.678 593.912,1084.73 756.721,216.177 933.446,1395.66 1035.78,833.281 580.872,1687.13 292.591,421.005 2471.87,96.8724 1120.86,1009.23 
  1265.04,1674.08 2560.67,828.959 2571.37,1628.08 2405.31,625.202 836.83,490.953 701.83,495.899 834.851,935.545 1785,1049.71 1642.18,216.744 2235.63,1636.47 
  1561.75,1426.82 1460.7,1355.57 734.405,1361.67 1123.46,630.627 2125.93,1664.23 2565.01,588.968 1777.22,879.306 2335.72,363.822 1044.76,473.99 1153.67,502.753 
  890.364,1125.26 1036,514.8 891.011,1020.52 639.805,1511.68 441.043,1660.88 738.026,1007.15 2127.16,1352.99 1881.98,370.92 379.897,465.005 1271.18,1446.68 
  2038.37,971.172 842.756,951.156 2119.68,1377.51 2362.24,1607.93 1266.27,862.487 2238.1,1256.58 690.847,967.389 1756.29,217.774 2438.1,1681.08 1295.43,1064.24 
  1966.85,1711.38 1212.05,430.452 2025.24,804 1419.93,1505.92 2279.89,1056.65 2418.63,925.255 775.564,822.999 661.967,599.816 770.725,668.414 1457.88,818.174 
  
  "/>
<path clip-path="url(#clip640)" d="
M270.874 209.375 L568.465 209.375 L568.465 105.695 L270.874 105.695  Z
  " fill="#ffffff" fill-rule="evenodd" fill-opacity="1"/>
<polyline clip-path="url(#clip640)" style="stroke:#000000; stroke-linecap:butt; stroke-linejoin:round; stroke-width:4; stroke-opacity:1; fill:none" points="
  270.874,209.375 568.465,209.375 568.465,105.695 270.874,105.695 270.874,209.375 
  "/>
<polyline clip-path="url(#clip640)" style="stroke:#009af9; stroke-linecap:butt; stroke-linejoin:round; stroke-width:4; stroke-opacity:1; fill:none" points="
  298.114,157.535 461.554,157.535 
  "/>
<path clip-path="url(#clip640)" d="M502.637 177.223 Q500.831 181.852 499.118 183.264 Q497.405 184.676 494.535 184.676 L491.132 184.676 L491.132 181.112 L493.632 181.112 Q495.391 181.112 496.364 180.278 Q497.336 179.445 498.516 176.343 L499.28 174.399 L488.794 148.889 L493.308 148.889 L501.41 169.167 L509.512 148.889 L514.026 148.889 L502.637 177.223 Z" fill="#000000" fill-rule="evenodd" fill-opacity="1" /><path clip-path="url(#clip640)" d="M521.317 170.88 L528.956 170.88 L528.956 144.515 L520.646 146.181 L520.646 141.922 L528.91 140.255 L533.586 140.255 L533.586 170.88 L541.225 170.88 L541.225 174.815 L521.317 174.815 L521.317 170.88 Z" fill="#000000" fill-rule="evenodd" fill-opacity="1" /></svg>
