<?xml version="1.0" encoding="utf-8"?>
<svg xmlns="http://www.w3.org/2000/svg" xmlns:xlink="http://www.w3.org/1999/xlink" width="672" height="480" viewBox="0 0 2688 1920">
<defs>
  <clipPath id="clip100">
    <rect x="0" y="0" width="2688" height="1920"/>
  </clipPath>
</defs>
<path clip-path="url(#clip100)" d="
M0 1920 L2688 1920 L2688 0 L0 0  Z
  " fill="#ffffff" fill-rule="evenodd" fill-opacity="1"/>
<defs>
  <clipPath id="clip101">
    <rect x="537" y="0" width="1883" height="1883"/>
  </clipPath>
</defs>
<path clip-path="url(#clip100)" d="
M189.154 1800.78 L2640.76 1800.78 L2640.76 47.2441 L189.154 47.2441  Z
  " fill="#ffffff" fill-rule="evenodd" fill-opacity="1"/>
<defs>
  <clipPath id="clip102">
    <rect x="189" y="47" width="2453" height="1755"/>
  </clipPath>
</defs>
<polyline clip-path="url(#clip102)" style="stroke:#000000; stroke-linecap:butt; stroke-linejoin:round; stroke-width:2; stroke-opacity:0.1; fill:none" points="
  238.242,1800.78 238.242,47.2441 
  "/>
<polyline clip-path="url(#clip102)" style="stroke:#000000; stroke-linecap:butt; stroke-linejoin:round; stroke-width:2; stroke-opacity:0.1; fill:none" points="
  833.558,1800.78 833.558,47.2441 
  "/>
<polyline clip-path="url(#clip102)" style="stroke:#000000; stroke-linecap:butt; stroke-linejoin:round; stroke-width:2; stroke-opacity:0.1; fill:none" points="
  1428.87,1800.78 1428.87,47.2441 
  "/>
<polyline clip-path="url(#clip102)" style="stroke:#000000; stroke-linecap:butt; stroke-linejoin:round; stroke-width:2; stroke-opacity:0.1; fill:none" points="
  2024.19,1800.78 2024.19,47.2441 
  "/>
<polyline clip-path="url(#clip102)" style="stroke:#000000; stroke-linecap:butt; stroke-linejoin:round; stroke-width:2; stroke-opacity:0.1; fill:none" points="
  2619.5,1800.78 2619.5,47.2441 
  "/>
<polyline clip-path="url(#clip100)" style="stroke:#000000; stroke-linecap:butt; stroke-linejoin:round; stroke-width:4; stroke-opacity:1; fill:none" points="
  189.154,1800.78 2640.76,1800.78 
  "/>
<polyline clip-path="url(#clip100)" style="stroke:#000000; stroke-linecap:butt; stroke-linejoin:round; stroke-width:4; stroke-opacity:1; fill:none" points="
  238.242,1800.78 238.242,1781.88 
  "/>
<polyline clip-path="url(#clip100)" style="stroke:#000000; stroke-linecap:butt; stroke-linejoin:round; stroke-width:4; stroke-opacity:1; fill:none" points="
  833.558,1800.78 833.558,1781.88 
  "/>
<polyline clip-path="url(#clip100)" style="stroke:#000000; stroke-linecap:butt; stroke-linejoin:round; stroke-width:4; stroke-opacity:1; fill:none" points="
  1428.87,1800.78 1428.87,1781.88 
  "/>
<polyline clip-path="url(#clip100)" style="stroke:#000000; stroke-linecap:butt; stroke-linejoin:round; stroke-width:4; stroke-opacity:1; fill:none" points="
  2024.19,1800.78 2024.19,1781.88 
  "/>
<polyline clip-path="url(#clip100)" style="stroke:#000000; stroke-linecap:butt; stroke-linejoin:round; stroke-width:4; stroke-opacity:1; fill:none" points="
  2619.5,1800.78 2619.5,1781.88 
  "/>
<path clip-path="url(#clip100)" d="M200.546 1834 Q196.935 1834 195.106 1837.57 Q193.3 1841.11 193.3 1848.24 Q193.3 1855.34 195.106 1858.91 Q196.935 1862.45 200.546 1862.45 Q204.18 1862.45 205.986 1858.91 Q207.814 1855.34 207.814 1848.24 Q207.814 1841.11 205.986 1837.57 Q204.18 1834 200.546 1834 M200.546 1830.3 Q206.356 1830.3 209.412 1834.9 Q212.49 1839.49 212.49 1848.24 Q212.49 1856.96 209.412 1861.57 Q206.356 1866.15 200.546 1866.15 Q194.736 1866.15 191.657 1861.57 Q188.601 1856.96 188.601 1848.24 Q188.601 1839.49 191.657 1834.9 Q194.736 1830.3 200.546 1830.3 Z" fill="#000000" fill-rule="evenodd" fill-opacity="1" /><path clip-path="url(#clip100)" d="M220.708 1859.6 L225.592 1859.6 L225.592 1865.48 L220.708 1865.48 L220.708 1859.6 Z" fill="#000000" fill-rule="evenodd" fill-opacity="1" /><path clip-path="url(#clip100)" d="M245.777 1834 Q242.166 1834 240.337 1837.57 Q238.532 1841.11 238.532 1848.24 Q238.532 1855.34 240.337 1858.91 Q242.166 1862.45 245.777 1862.45 Q249.411 1862.45 251.217 1858.91 Q253.046 1855.34 253.046 1848.24 Q253.046 1841.11 251.217 1837.57 Q249.411 1834 245.777 1834 M245.777 1830.3 Q251.587 1830.3 254.643 1834.9 Q257.721 1839.49 257.721 1848.24 Q257.721 1856.96 254.643 1861.57 Q251.587 1866.15 245.777 1866.15 Q239.967 1866.15 236.888 1861.57 Q233.833 1856.96 233.833 1848.24 Q233.833 1839.49 236.888 1834.9 Q239.967 1830.3 245.777 1830.3 Z" fill="#000000" fill-rule="evenodd" fill-opacity="1" /><path clip-path="url(#clip100)" d="M275.939 1834 Q272.328 1834 270.499 1837.57 Q268.694 1841.11 268.694 1848.24 Q268.694 1855.34 270.499 1858.91 Q272.328 1862.45 275.939 1862.45 Q279.573 1862.45 281.379 1858.91 Q283.207 1855.34 283.207 1848.24 Q283.207 1841.11 281.379 1837.57 Q279.573 1834 275.939 1834 M275.939 1830.3 Q281.749 1830.3 284.805 1834.9 Q287.883 1839.49 287.883 1848.24 Q287.883 1856.96 284.805 1861.57 Q281.749 1866.15 275.939 1866.15 Q270.129 1866.15 267.05 1861.57 Q263.995 1856.96 263.995 1848.24 Q263.995 1839.49 267.05 1834.9 Q270.129 1830.3 275.939 1830.3 Z" fill="#000000" fill-rule="evenodd" fill-opacity="1" /><path clip-path="url(#clip100)" d="M796.359 1834 Q792.748 1834 790.919 1837.57 Q789.113 1841.11 789.113 1848.24 Q789.113 1855.34 790.919 1858.91 Q792.748 1862.45 796.359 1862.45 Q799.993 1862.45 801.799 1858.91 Q803.627 1855.34 803.627 1848.24 Q803.627 1841.11 801.799 1837.57 Q799.993 1834 796.359 1834 M796.359 1830.3 Q802.169 1830.3 805.224 1834.9 Q808.303 1839.49 808.303 1848.24 Q808.303 1856.96 805.224 1861.57 Q802.169 1866.15 796.359 1866.15 Q790.549 1866.15 787.47 1861.57 Q784.414 1856.96 784.414 1848.24 Q784.414 1839.49 787.47 1834.9 Q790.549 1830.3 796.359 1830.3 Z" fill="#000000" fill-rule="evenodd" fill-opacity="1" /><path clip-path="url(#clip100)" d="M816.521 1859.6 L821.405 1859.6 L821.405 1865.48 L816.521 1865.48 L816.521 1859.6 Z" fill="#000000" fill-rule="evenodd" fill-opacity="1" /><path clip-path="url(#clip100)" d="M835.618 1861.55 L851.937 1861.55 L851.937 1865.48 L829.993 1865.48 L829.993 1861.55 Q832.655 1858.79 837.238 1854.16 Q841.845 1849.51 843.025 1848.17 Q845.271 1845.65 846.15 1843.91 Q847.053 1842.15 847.053 1840.46 Q847.053 1837.71 845.109 1835.97 Q843.187 1834.23 840.085 1834.23 Q837.886 1834.23 835.433 1835 Q833.002 1835.76 830.224 1837.31 L830.224 1832.59 Q833.048 1831.46 835.502 1830.88 Q837.956 1830.3 839.993 1830.3 Q845.363 1830.3 848.558 1832.98 Q851.752 1835.67 851.752 1840.16 Q851.752 1842.29 850.942 1844.21 Q850.155 1846.11 848.048 1848.7 Q847.47 1849.37 844.368 1852.59 Q841.266 1855.78 835.618 1861.55 Z" fill="#000000" fill-rule="evenodd" fill-opacity="1" /><path clip-path="url(#clip100)" d="M861.798 1830.92 L880.155 1830.92 L880.155 1834.86 L866.081 1834.86 L866.081 1843.33 Q867.099 1842.98 868.118 1842.82 Q869.136 1842.64 870.155 1842.64 Q875.942 1842.64 879.321 1845.81 Q882.701 1848.98 882.701 1854.4 Q882.701 1859.97 879.229 1863.08 Q875.757 1866.15 869.437 1866.15 Q867.261 1866.15 864.993 1865.78 Q862.747 1865.41 860.34 1864.67 L860.34 1859.97 Q862.423 1861.11 864.645 1861.66 Q866.868 1862.22 869.345 1862.22 Q873.349 1862.22 875.687 1860.11 Q878.025 1858.01 878.025 1854.4 Q878.025 1850.78 875.687 1848.68 Q873.349 1846.57 869.345 1846.57 Q867.47 1846.57 865.595 1846.99 Q863.743 1847.4 861.798 1848.28 L861.798 1830.92 Z" fill="#000000" fill-rule="evenodd" fill-opacity="1" /><path clip-path="url(#clip100)" d="M1391.18 1834 Q1387.57 1834 1385.74 1837.57 Q1383.93 1841.11 1383.93 1848.24 Q1383.93 1855.34 1385.74 1858.91 Q1387.57 1862.45 1391.18 1862.45 Q1394.81 1862.45 1396.62 1858.91 Q1398.44 1855.34 1398.44 1848.24 Q1398.44 1841.11 1396.62 1837.57 Q1394.81 1834 1391.18 1834 M1391.18 1830.3 Q1396.99 1830.3 1400.04 1834.9 Q1403.12 1839.49 1403.12 1848.24 Q1403.12 1856.96 1400.04 1861.57 Q1396.99 1866.15 1391.18 1866.15 Q1385.37 1866.15 1382.29 1861.57 Q1379.23 1856.96 1379.23 1848.24 Q1379.23 1839.49 1382.29 1834.9 Q1385.37 1830.3 1391.18 1830.3 Z" fill="#000000" fill-rule="evenodd" fill-opacity="1" /><path clip-path="url(#clip100)" d="M1411.34 1859.6 L1416.22 1859.6 L1416.22 1865.48 L1411.34 1865.48 L1411.34 1859.6 Z" fill="#000000" fill-rule="evenodd" fill-opacity="1" /><path clip-path="url(#clip100)" d="M1426.45 1830.92 L1444.81 1830.92 L1444.81 1834.86 L1430.74 1834.86 L1430.74 1843.33 Q1431.75 1842.98 1432.77 1842.82 Q1433.79 1842.64 1434.81 1842.64 Q1440.6 1842.64 1443.98 1845.81 Q1447.36 1848.98 1447.36 1854.4 Q1447.36 1859.97 1443.88 1863.08 Q1440.41 1866.15 1434.09 1866.15 Q1431.92 1866.15 1429.65 1865.78 Q1427.4 1865.41 1425 1864.67 L1425 1859.97 Q1427.08 1861.11 1429.3 1861.66 Q1431.52 1862.22 1434 1862.22 Q1438 1862.22 1440.34 1860.11 Q1442.68 1858.01 1442.68 1854.4 Q1442.68 1850.78 1440.34 1848.68 Q1438 1846.57 1434 1846.57 Q1432.13 1846.57 1430.25 1846.99 Q1428.4 1847.4 1426.45 1848.28 L1426.45 1830.92 Z" fill="#000000" fill-rule="evenodd" fill-opacity="1" /><path clip-path="url(#clip100)" d="M1466.57 1834 Q1462.96 1834 1461.13 1837.57 Q1459.32 1841.11 1459.32 1848.24 Q1459.32 1855.34 1461.13 1858.91 Q1462.96 1862.45 1466.57 1862.45 Q1470.2 1862.45 1472.01 1858.91 Q1473.84 1855.34 1473.84 1848.24 Q1473.84 1841.11 1472.01 1837.57 Q1470.2 1834 1466.57 1834 M1466.57 1830.3 Q1472.38 1830.3 1475.44 1834.9 Q1478.51 1839.49 1478.51 1848.24 Q1478.51 1856.96 1475.44 1861.57 Q1472.38 1866.15 1466.57 1866.15 Q1460.76 1866.15 1457.68 1861.57 Q1454.63 1856.96 1454.63 1848.24 Q1454.63 1839.49 1457.68 1834.9 Q1460.76 1830.3 1466.57 1830.3 Z" fill="#000000" fill-rule="evenodd" fill-opacity="1" /><path clip-path="url(#clip100)" d="M1986.99 1834 Q1983.38 1834 1981.55 1837.57 Q1979.74 1841.11 1979.74 1848.24 Q1979.74 1855.34 1981.55 1858.91 Q1983.38 1862.45 1986.99 1862.45 Q1990.62 1862.45 1992.43 1858.91 Q1994.26 1855.34 1994.26 1848.24 Q1994.26 1841.11 1992.43 1837.57 Q1990.62 1834 1986.99 1834 M1986.99 1830.3 Q1992.8 1830.3 1995.86 1834.9 Q1998.93 1839.49 1998.93 1848.24 Q1998.93 1856.96 1995.86 1861.57 Q1992.8 1866.15 1986.99 1866.15 Q1981.18 1866.15 1978.1 1861.57 Q1975.05 1856.96 1975.05 1848.24 Q1975.05 1839.49 1978.1 1834.9 Q1981.18 1830.3 1986.99 1830.3 Z" fill="#000000" fill-rule="evenodd" fill-opacity="1" /><path clip-path="url(#clip100)" d="M2007.15 1859.6 L2012.04 1859.6 L2012.04 1865.48 L2007.15 1865.48 L2007.15 1859.6 Z" fill="#000000" fill-rule="evenodd" fill-opacity="1" /><path clip-path="url(#clip100)" d="M2021.04 1830.92 L2043.26 1830.92 L2043.26 1832.91 L2030.72 1865.48 L2025.83 1865.48 L2037.64 1834.86 L2021.04 1834.86 L2021.04 1830.92 Z" fill="#000000" fill-rule="evenodd" fill-opacity="1" /><path clip-path="url(#clip100)" d="M2052.43 1830.92 L2070.79 1830.92 L2070.79 1834.86 L2056.71 1834.86 L2056.71 1843.33 Q2057.73 1842.98 2058.75 1842.82 Q2059.77 1842.64 2060.79 1842.64 Q2066.57 1842.64 2069.95 1845.81 Q2073.33 1848.98 2073.33 1854.4 Q2073.33 1859.97 2069.86 1863.08 Q2066.39 1866.15 2060.07 1866.15 Q2057.89 1866.15 2055.62 1865.78 Q2053.38 1865.41 2050.97 1864.67 L2050.97 1859.97 Q2053.05 1861.11 2055.28 1861.66 Q2057.5 1862.22 2059.98 1862.22 Q2063.98 1862.22 2066.32 1860.11 Q2068.66 1858.01 2068.66 1854.4 Q2068.66 1850.78 2066.32 1848.68 Q2063.98 1846.57 2059.98 1846.57 Q2058.1 1846.57 2056.23 1846.99 Q2054.37 1847.4 2052.43 1848.28 L2052.43 1830.92 Z" fill="#000000" fill-rule="evenodd" fill-opacity="1" /><path clip-path="url(#clip100)" d="M2571.58 1861.55 L2579.21 1861.55 L2579.21 1835.18 L2570.9 1836.85 L2570.9 1832.59 L2579.17 1830.92 L2583.84 1830.92 L2583.84 1861.55 L2591.48 1861.55 L2591.48 1865.48 L2571.58 1865.48 L2571.58 1861.55 Z" fill="#000000" fill-rule="evenodd" fill-opacity="1" /><path clip-path="url(#clip100)" d="M2600.93 1859.6 L2605.81 1859.6 L2605.81 1865.48 L2600.93 1865.48 L2600.93 1859.6 Z" fill="#000000" fill-rule="evenodd" fill-opacity="1" /><path clip-path="url(#clip100)" d="M2626 1834 Q2622.39 1834 2620.56 1837.57 Q2618.75 1841.11 2618.75 1848.24 Q2618.75 1855.34 2620.56 1858.91 Q2622.39 1862.45 2626 1862.45 Q2629.63 1862.45 2631.44 1858.91 Q2633.27 1855.34 2633.27 1848.24 Q2633.27 1841.11 2631.44 1837.57 Q2629.63 1834 2626 1834 M2626 1830.3 Q2631.81 1830.3 2634.86 1834.9 Q2637.94 1839.49 2637.94 1848.24 Q2637.94 1856.96 2634.86 1861.57 Q2631.81 1866.15 2626 1866.15 Q2620.19 1866.15 2617.11 1861.57 Q2614.05 1856.96 2614.05 1848.24 Q2614.05 1839.49 2617.11 1834.9 Q2620.19 1830.3 2626 1830.3 Z" fill="#000000" fill-rule="evenodd" fill-opacity="1" /><path clip-path="url(#clip100)" d="M2656.16 1834 Q2652.55 1834 2650.72 1837.57 Q2648.91 1841.11 2648.91 1848.24 Q2648.91 1855.34 2650.72 1858.91 Q2652.55 1862.45 2656.16 1862.45 Q2659.79 1862.45 2661.6 1858.91 Q2663.43 1855.34 2663.43 1848.24 Q2663.43 1841.11 2661.6 1837.57 Q2659.79 1834 2656.16 1834 M2656.16 1830.3 Q2661.97 1830.3 2665.02 1834.9 Q2668.1 1839.49 2668.1 1848.24 Q2668.1 1856.96 2665.02 1861.57 Q2661.97 1866.15 2656.16 1866.15 Q2650.35 1866.15 2647.27 1861.57 Q2644.21 1856.96 2644.21 1848.24 Q2644.21 1839.49 2647.27 1834.9 Q2650.35 1830.3 2656.16 1830.3 Z" fill="#000000" fill-rule="evenodd" fill-opacity="1" /><polyline clip-path="url(#clip102)" style="stroke:#000000; stroke-linecap:butt; stroke-linejoin:round; stroke-width:2; stroke-opacity:0.1; fill:none" points="
  189.154,1767.3 2640.76,1767.3 
  "/>
<polyline clip-path="url(#clip102)" style="stroke:#000000; stroke-linecap:butt; stroke-linejoin:round; stroke-width:2; stroke-opacity:0.1; fill:none" points="
  189.154,1345.05 2640.76,1345.05 
  "/>
<polyline clip-path="url(#clip102)" style="stroke:#000000; stroke-linecap:butt; stroke-linejoin:round; stroke-width:2; stroke-opacity:0.1; fill:none" points="
  189.154,922.809 2640.76,922.809 
  "/>
<polyline clip-path="url(#clip102)" style="stroke:#000000; stroke-linecap:butt; stroke-linejoin:round; stroke-width:2; stroke-opacity:0.1; fill:none" points="
  189.154,500.564 2640.76,500.564 
  "/>
<polyline clip-path="url(#clip102)" style="stroke:#000000; stroke-linecap:butt; stroke-linejoin:round; stroke-width:2; stroke-opacity:0.1; fill:none" points="
  189.154,78.3182 2640.76,78.3182 
  "/>
<polyline clip-path="url(#clip100)" style="stroke:#000000; stroke-linecap:butt; stroke-linejoin:round; stroke-width:4; stroke-opacity:1; fill:none" points="
  189.154,1800.78 189.154,47.2441 
  "/>
<polyline clip-path="url(#clip100)" style="stroke:#000000; stroke-linecap:butt; stroke-linejoin:round; stroke-width:4; stroke-opacity:1; fill:none" points="
  189.154,1767.3 208.052,1767.3 
  "/>
<polyline clip-path="url(#clip100)" style="stroke:#000000; stroke-linecap:butt; stroke-linejoin:round; stroke-width:4; stroke-opacity:1; fill:none" points="
  189.154,1345.05 208.052,1345.05 
  "/>
<polyline clip-path="url(#clip100)" style="stroke:#000000; stroke-linecap:butt; stroke-linejoin:round; stroke-width:4; stroke-opacity:1; fill:none" points="
  189.154,922.809 208.052,922.809 
  "/>
<polyline clip-path="url(#clip100)" style="stroke:#000000; stroke-linecap:butt; stroke-linejoin:round; stroke-width:4; stroke-opacity:1; fill:none" points="
  189.154,500.564 208.052,500.564 
  "/>
<polyline clip-path="url(#clip100)" style="stroke:#000000; stroke-linecap:butt; stroke-linejoin:round; stroke-width:4; stroke-opacity:1; fill:none" points="
  189.154,78.3182 208.052,78.3182 
  "/>
<path clip-path="url(#clip100)" d="M61.4965 1753.1 Q57.8854 1753.1 56.0567 1756.66 Q54.2512 1760.21 54.2512 1767.33 Q54.2512 1774.44 56.0567 1778.01 Q57.8854 1781.55 61.4965 1781.55 Q65.1307 1781.55 66.9363 1778.01 Q68.765 1774.44 68.765 1767.33 Q68.765 1760.21 66.9363 1756.66 Q65.1307 1753.1 61.4965 1753.1 M61.4965 1749.4 Q67.3067 1749.4 70.3622 1754 Q73.4409 1758.59 73.4409 1767.33 Q73.4409 1776.06 70.3622 1780.67 Q67.3067 1785.25 61.4965 1785.25 Q55.6864 1785.25 52.6077 1780.67 Q49.5521 1776.06 49.5521 1767.33 Q49.5521 1758.59 52.6077 1754 Q55.6864 1749.4 61.4965 1749.4 Z" fill="#000000" fill-rule="evenodd" fill-opacity="1" /><path clip-path="url(#clip100)" d="M81.6584 1778.7 L86.5427 1778.7 L86.5427 1784.58 L81.6584 1784.58 L81.6584 1778.7 Z" fill="#000000" fill-rule="evenodd" fill-opacity="1" /><path clip-path="url(#clip100)" d="M106.728 1753.1 Q103.117 1753.1 101.288 1756.66 Q99.4824 1760.21 99.4824 1767.33 Q99.4824 1774.44 101.288 1778.01 Q103.117 1781.55 106.728 1781.55 Q110.362 1781.55 112.168 1778.01 Q113.996 1774.44 113.996 1767.33 Q113.996 1760.21 112.168 1756.66 Q110.362 1753.1 106.728 1753.1 M106.728 1749.4 Q112.538 1749.4 115.593 1754 Q118.672 1758.59 118.672 1767.33 Q118.672 1776.06 115.593 1780.67 Q112.538 1785.25 106.728 1785.25 Q100.918 1785.25 97.8389 1780.67 Q94.7834 1776.06 94.7834 1767.33 Q94.7834 1758.59 97.8389 1754 Q100.918 1749.4 106.728 1749.4 Z" fill="#000000" fill-rule="evenodd" fill-opacity="1" /><path clip-path="url(#clip100)" d="M136.89 1753.1 Q133.279 1753.1 131.45 1756.66 Q129.644 1760.21 129.644 1767.33 Q129.644 1774.44 131.45 1778.01 Q133.279 1781.55 136.89 1781.55 Q140.524 1781.55 142.329 1778.01 Q144.158 1774.44 144.158 1767.33 Q144.158 1760.21 142.329 1756.66 Q140.524 1753.1 136.89 1753.1 M136.89 1749.4 Q142.7 1749.4 145.755 1754 Q148.834 1758.59 148.834 1767.33 Q148.834 1776.06 145.755 1780.67 Q142.7 1785.25 136.89 1785.25 Q131.079 1785.25 128.001 1780.67 Q124.945 1776.06 124.945 1767.33 Q124.945 1758.59 128.001 1754 Q131.079 1749.4 136.89 1749.4 Z" fill="#000000" fill-rule="evenodd" fill-opacity="1" /><path clip-path="url(#clip100)" d="M62.4919 1330.85 Q58.8808 1330.85 57.0521 1334.42 Q55.2465 1337.96 55.2465 1345.09 Q55.2465 1352.2 57.0521 1355.76 Q58.8808 1359.3 62.4919 1359.3 Q66.1261 1359.3 67.9317 1355.76 Q69.7604 1352.2 69.7604 1345.09 Q69.7604 1337.96 67.9317 1334.42 Q66.1261 1330.85 62.4919 1330.85 M62.4919 1327.15 Q68.302 1327.15 71.3576 1331.76 Q74.4363 1336.34 74.4363 1345.09 Q74.4363 1353.82 71.3576 1358.42 Q68.302 1363.01 62.4919 1363.01 Q56.6817 1363.01 53.603 1358.42 Q50.5475 1353.82 50.5475 1345.09 Q50.5475 1336.34 53.603 1331.76 Q56.6817 1327.15 62.4919 1327.15 Z" fill="#000000" fill-rule="evenodd" fill-opacity="1" /><path clip-path="url(#clip100)" d="M82.6538 1356.46 L87.538 1356.46 L87.538 1362.33 L82.6538 1362.33 L82.6538 1356.46 Z" fill="#000000" fill-rule="evenodd" fill-opacity="1" /><path clip-path="url(#clip100)" d="M101.751 1358.4 L118.07 1358.4 L118.07 1362.33 L96.126 1362.33 L96.126 1358.4 Q98.788 1355.64 103.371 1351.02 Q107.978 1346.36 109.158 1345.02 Q111.404 1342.5 112.283 1340.76 Q113.186 1339 113.186 1337.31 Q113.186 1334.56 111.242 1332.82 Q109.32 1331.08 106.218 1331.08 Q104.019 1331.08 101.566 1331.85 Q99.1352 1332.61 96.3574 1334.16 L96.3574 1329.44 Q99.1815 1328.31 101.635 1327.73 Q104.089 1327.15 106.126 1327.15 Q111.496 1327.15 114.691 1329.83 Q117.885 1332.52 117.885 1337.01 Q117.885 1339.14 117.075 1341.06 Q116.288 1342.96 114.181 1345.55 Q113.603 1346.22 110.501 1349.44 Q107.399 1352.64 101.751 1358.4 Z" fill="#000000" fill-rule="evenodd" fill-opacity="1" /><path clip-path="url(#clip100)" d="M127.931 1327.77 L146.288 1327.77 L146.288 1331.71 L132.214 1331.71 L132.214 1340.18 Q133.232 1339.83 134.251 1339.67 Q135.269 1339.49 136.288 1339.49 Q142.075 1339.49 145.454 1342.66 Q148.834 1345.83 148.834 1351.25 Q148.834 1356.83 145.362 1359.93 Q141.89 1363.01 135.57 1363.01 Q133.394 1363.01 131.126 1362.64 Q128.88 1362.27 126.473 1361.52 L126.473 1356.83 Q128.556 1357.96 130.779 1358.52 Q133.001 1359.07 135.478 1359.07 Q139.482 1359.07 141.82 1356.96 Q144.158 1354.86 144.158 1351.25 Q144.158 1347.64 141.82 1345.53 Q139.482 1343.42 135.478 1343.42 Q133.603 1343.42 131.728 1343.84 Q129.876 1344.26 127.931 1345.14 L127.931 1327.77 Z" fill="#000000" fill-rule="evenodd" fill-opacity="1" /><path clip-path="url(#clip100)" d="M61.4965 908.608 Q57.8854 908.608 56.0567 912.173 Q54.2512 915.714 54.2512 922.844 Q54.2512 929.95 56.0567 933.515 Q57.8854 937.057 61.4965 937.057 Q65.1307 937.057 66.9363 933.515 Q68.765 929.95 68.765 922.844 Q68.765 915.714 66.9363 912.173 Q65.1307 908.608 61.4965 908.608 M61.4965 904.904 Q67.3067 904.904 70.3622 909.511 Q73.4409 914.094 73.4409 922.844 Q73.4409 931.571 70.3622 936.177 Q67.3067 940.761 61.4965 940.761 Q55.6864 940.761 52.6077 936.177 Q49.5521 931.571 49.5521 922.844 Q49.5521 914.094 52.6077 909.511 Q55.6864 904.904 61.4965 904.904 Z" fill="#000000" fill-rule="evenodd" fill-opacity="1" /><path clip-path="url(#clip100)" d="M81.6584 934.21 L86.5427 934.21 L86.5427 940.089 L81.6584 940.089 L81.6584 934.21 Z" fill="#000000" fill-rule="evenodd" fill-opacity="1" /><path clip-path="url(#clip100)" d="M96.7741 905.529 L115.13 905.529 L115.13 909.464 L101.056 909.464 L101.056 917.937 Q102.075 917.589 103.094 917.427 Q104.112 917.242 105.131 917.242 Q110.918 917.242 114.297 920.413 Q117.677 923.585 117.677 929.001 Q117.677 934.58 114.205 937.682 Q110.732 940.761 104.413 940.761 Q102.237 940.761 99.9685 940.39 Q97.7232 940.02 95.3158 939.279 L95.3158 934.58 Q97.3991 935.714 99.6213 936.27 Q101.844 936.825 104.32 936.825 Q108.325 936.825 110.663 934.719 Q113.001 932.612 113.001 929.001 Q113.001 925.39 110.663 923.284 Q108.325 921.177 104.32 921.177 Q102.445 921.177 100.57 921.594 Q98.7185 922.011 96.7741 922.89 L96.7741 905.529 Z" fill="#000000" fill-rule="evenodd" fill-opacity="1" /><path clip-path="url(#clip100)" d="M136.89 908.608 Q133.279 908.608 131.45 912.173 Q129.644 915.714 129.644 922.844 Q129.644 929.95 131.45 933.515 Q133.279 937.057 136.89 937.057 Q140.524 937.057 142.329 933.515 Q144.158 929.95 144.158 922.844 Q144.158 915.714 142.329 912.173 Q140.524 908.608 136.89 908.608 M136.89 904.904 Q142.7 904.904 145.755 909.511 Q148.834 914.094 148.834 922.844 Q148.834 931.571 145.755 936.177 Q142.7 940.761 136.89 940.761 Q131.079 940.761 128.001 936.177 Q124.945 931.571 124.945 922.844 Q124.945 914.094 128.001 909.511 Q131.079 904.904 136.89 904.904 Z" fill="#000000" fill-rule="evenodd" fill-opacity="1" /><path clip-path="url(#clip100)" d="M62.4919 486.362 Q58.8808 486.362 57.0521 489.927 Q55.2465 493.469 55.2465 500.598 Q55.2465 507.705 57.0521 511.27 Q58.8808 514.811 62.4919 514.811 Q66.1261 514.811 67.9317 511.27 Q69.7604 507.705 69.7604 500.598 Q69.7604 493.469 67.9317 489.927 Q66.1261 486.362 62.4919 486.362 M62.4919 482.659 Q68.302 482.659 71.3576 487.265 Q74.4363 491.848 74.4363 500.598 Q74.4363 509.325 71.3576 513.932 Q68.302 518.515 62.4919 518.515 Q56.6817 518.515 53.603 513.932 Q50.5475 509.325 50.5475 500.598 Q50.5475 491.848 53.603 487.265 Q56.6817 482.659 62.4919 482.659 Z" fill="#000000" fill-rule="evenodd" fill-opacity="1" /><path clip-path="url(#clip100)" d="M82.6538 511.964 L87.538 511.964 L87.538 517.844 L82.6538 517.844 L82.6538 511.964 Z" fill="#000000" fill-rule="evenodd" fill-opacity="1" /><path clip-path="url(#clip100)" d="M96.5426 483.284 L118.765 483.284 L118.765 485.274 L106.218 517.844 L101.334 517.844 L113.14 487.219 L96.5426 487.219 L96.5426 483.284 Z" fill="#000000" fill-rule="evenodd" fill-opacity="1" /><path clip-path="url(#clip100)" d="M127.931 483.284 L146.288 483.284 L146.288 487.219 L132.214 487.219 L132.214 495.691 Q133.232 495.344 134.251 495.182 Q135.269 494.997 136.288 494.997 Q142.075 494.997 145.454 498.168 Q148.834 501.339 148.834 506.756 Q148.834 512.334 145.362 515.436 Q141.89 518.515 135.57 518.515 Q133.394 518.515 131.126 518.145 Q128.88 517.774 126.473 517.034 L126.473 512.334 Q128.556 513.469 130.779 514.024 Q133.001 514.58 135.478 514.58 Q139.482 514.58 141.82 512.473 Q144.158 510.367 144.158 506.756 Q144.158 503.145 141.82 501.038 Q139.482 498.932 135.478 498.932 Q133.603 498.932 131.728 499.348 Q129.876 499.765 127.931 500.645 L127.931 483.284 Z" fill="#000000" fill-rule="evenodd" fill-opacity="1" /><path clip-path="url(#clip100)" d="M52.3067 91.663 L59.9456 91.663 L59.9456 65.2974 L51.6354 66.9641 L51.6354 62.7049 L59.8993 61.0382 L64.5752 61.0382 L64.5752 91.663 L72.214 91.663 L72.214 95.5982 L52.3067 95.5982 L52.3067 91.663 Z" fill="#000000" fill-rule="evenodd" fill-opacity="1" /><path clip-path="url(#clip100)" d="M81.6584 89.7186 L86.5427 89.7186 L86.5427 95.5982 L81.6584 95.5982 L81.6584 89.7186 Z" fill="#000000" fill-rule="evenodd" fill-opacity="1" /><path clip-path="url(#clip100)" d="M106.728 64.1169 Q103.117 64.1169 101.288 67.6817 Q99.4824 71.2233 99.4824 78.3529 Q99.4824 85.4594 101.288 89.0242 Q103.117 92.5658 106.728 92.5658 Q110.362 92.5658 112.168 89.0242 Q113.996 85.4594 113.996 78.3529 Q113.996 71.2233 112.168 67.6817 Q110.362 64.1169 106.728 64.1169 M106.728 60.4132 Q112.538 60.4132 115.593 65.0197 Q118.672 69.603 118.672 78.3529 Q118.672 87.0797 115.593 91.6862 Q112.538 96.2695 106.728 96.2695 Q100.918 96.2695 97.8389 91.6862 Q94.7834 87.0797 94.7834 78.3529 Q94.7834 69.603 97.8389 65.0197 Q100.918 60.4132 106.728 60.4132 Z" fill="#000000" fill-rule="evenodd" fill-opacity="1" /><path clip-path="url(#clip100)" d="M136.89 64.1169 Q133.279 64.1169 131.45 67.6817 Q129.644 71.2233 129.644 78.3529 Q129.644 85.4594 131.45 89.0242 Q133.279 92.5658 136.89 92.5658 Q140.524 92.5658 142.329 89.0242 Q144.158 85.4594 144.158 78.3529 Q144.158 71.2233 142.329 67.6817 Q140.524 64.1169 136.89 64.1169 M136.89 60.4132 Q142.7 60.4132 145.755 65.0197 Q148.834 69.603 148.834 78.3529 Q148.834 87.0797 145.755 91.6862 Q142.7 96.2695 136.89 96.2695 Q131.079 96.2695 128.001 91.6862 Q124.945 87.0797 124.945 78.3529 Q124.945 69.603 128.001 65.0197 Q131.079 60.4132 136.89 60.4132 Z" fill="#000000" fill-rule="evenodd" fill-opacity="1" /><polyline clip-path="url(#clip102)" style="stroke:#009af9; stroke-linecap:butt; stroke-linejoin:round; stroke-width:4; stroke-opacity:1; fill:none" points="
  2276.87,1223.43 1468.37,204.067 1957.86,458.497 2055.69,1467.63 553.822,400.377 702.202,1587.41 1503.49,1154.09 737.771,816.519 1403.64,273.323 374.161,1215.83 
  1446.99,495.923 1810.41,485.749 1219.47,1596.68 336.867,1497.03 1791.5,355.594 2263.77,1575.19 757.365,415.303 1014.04,1675.45 1369.14,1618.17 2473.1,1415.48 
  1032.55,719.113 1614.73,1146.4 1232.16,1161 354.497,1391.94 1634.38,854.645 408.61,1301.15 1607.43,1684.73 1689.44,153.823 412.024,501.189 588.572,1415.26 
  1250.82,1138 2008.07,1214.8 550.191,1364.24 258.539,116.459 412.154,182.947 606.754,353.808 2571.37,347.852 267.451,788.345 1467.45,1090.94 602.03,1319.95 
  506.153,1363.81 775.215,461.202 1478.04,957.818 1870.2,1751.15 872.644,505.851 2093.63,536.013 724.159,558.751 1551.23,884.298 452.758,409.23 2087.94,1485.02 
  1698.21,1154.99 308.674,1083.97 503.926,450.532 1108.45,1254.81 2164,1183.43 2317.42,1729.04 735.547,103.821 1732.74,912.149 2081.15,647.671 822.585,1090.98 
  1635.63,115.481 2425.46,1407.77 1356.87,386.81 1377.94,1651.07 899.202,706.59 2472.81,918.961 1655.9,199.161 932.277,644.358 1457.08,602.666 2491.83,1516.12 
  451.798,307.099 1062.04,946.469 1353.02,1250.98 490.229,828.941 755.456,1642.35 2324.43,1660.65 2224.39,1179.87 1286.91,689.492 1853.8,876.961 1407.79,1082.62 
  1684.47,1422.46 1677.96,730.901 506.038,1165.54 761.052,942.168 867.624,96.8724 1453.52,312.381 1313.93,1627.82 854.766,797.959 1135.98,877.148 1601.59,359.665 
  682.781,972.144 1034.38,1409.03 1919.36,637.591 423.898,238.256 1523.86,1023.12 1182.68,345.035 1028.11,1183.4 2164.12,1335.37 470.453,258.072 2439.58,227.783 
  
  "/>
<path clip-path="url(#clip100)" d="
M2261.45 209.375 L2559.04 209.375 L2559.04 105.695 L2261.45 105.695  Z
  " fill="#ffffff" fill-rule="evenodd" fill-opacity="1"/>
<polyline clip-path="url(#clip100)" style="stroke:#000000; stroke-linecap:butt; stroke-linejoin:round; stroke-width:4; stroke-opacity:1; fill:none" points="
  2261.45,209.375 2559.04,209.375 2559.04,105.695 2261.45,105.695 2261.45,209.375 
  "/>
<polyline clip-path="url(#clip100)" style="stroke:#009af9; stroke-linecap:butt; stroke-linejoin:round; stroke-width:4; stroke-opacity:1; fill:none" points="
  2288.69,157.535 2452.13,157.535 
  "/>
<path clip-path="url(#clip100)" d="M2493.21 177.223 Q2491.4 181.852 2489.69 183.264 Q2487.98 184.676 2485.11 184.676 L2481.7 184.676 L2481.7 181.112 L2484.2 181.112 Q2485.96 181.112 2486.93 180.278 Q2487.91 179.445 2489.09 176.343 L2489.85 174.399 L2479.37 148.889 L2483.88 148.889 L2491.98 169.167 L2500.08 148.889 L2504.6 148.889 L2493.21 177.223 Z" fill="#000000" fill-rule="evenodd" fill-opacity="1" /><path clip-path="url(#clip100)" d="M2511.89 170.88 L2519.53 170.88 L2519.53 144.515 L2511.22 146.181 L2511.22 141.922 L2519.48 140.255 L2524.16 140.255 L2524.16 170.88 L2531.8 170.88 L2531.8 174.815 L2511.89 174.815 L2511.89 170.88 Z" fill="#000000" fill-rule="evenodd" fill-opacity="1" /></svg>
