<?xml version="1.0" encoding="utf-8"?>
<svg xmlns="http://www.w3.org/2000/svg" xmlns:xlink="http://www.w3.org/1999/xlink" width="672" height="480" viewBox="0 0 2688 1920">
<defs>
  <clipPath id="clip530">
    <rect x="0" y="0" width="2688" height="1920"/>
  </clipPath>
</defs>
<path clip-path="url(#clip530)" d="
M0 1920 L2688 1920 L2688 0 L0 0  Z
  " fill="#ffffff" fill-rule="evenodd" fill-opacity="1"/>
<defs>
  <clipPath id="clip531">
    <rect x="537" y="0" width="1883" height="1883"/>
  </clipPath>
</defs>
<path clip-path="url(#clip530)" d="
M189.154 1800.78 L2640.76 1800.78 L2640.76 47.2441 L189.154 47.2441  Z
  " fill="#ffffff" fill-rule="evenodd" fill-opacity="1"/>
<defs>
  <clipPath id="clip532">
    <rect x="189" y="47" width="2453" height="1755"/>
  </clipPath>
</defs>
<polyline clip-path="url(#clip532)" style="stroke:#000000; stroke-linecap:butt; stroke-linejoin:round; stroke-width:2; stroke-opacity:0.1; fill:none" points="
  252.138,1800.78 252.138,47.2441 
  "/>
<polyline clip-path="url(#clip532)" style="stroke:#000000; stroke-linecap:butt; stroke-linejoin:round; stroke-width:2; stroke-opacity:0.1; fill:none" points="
  836.897,1800.78 836.897,47.2441 
  "/>
<polyline clip-path="url(#clip532)" style="stroke:#000000; stroke-linecap:butt; stroke-linejoin:round; stroke-width:2; stroke-opacity:0.1; fill:none" points="
  1421.66,1800.78 1421.66,47.2441 
  "/>
<polyline clip-path="url(#clip532)" style="stroke:#000000; stroke-linecap:butt; stroke-linejoin:round; stroke-width:2; stroke-opacity:0.1; fill:none" points="
  2006.41,1800.78 2006.41,47.2441 
  "/>
<polyline clip-path="url(#clip532)" style="stroke:#000000; stroke-linecap:butt; stroke-linejoin:round; stroke-width:2; stroke-opacity:0.1; fill:none" points="
  2591.17,1800.78 2591.17,47.2441 
  "/>
<polyline clip-path="url(#clip530)" style="stroke:#000000; stroke-linecap:butt; stroke-linejoin:round; stroke-width:4; stroke-opacity:1; fill:none" points="
  189.154,1800.78 2640.76,1800.78 
  "/>
<polyline clip-path="url(#clip530)" style="stroke:#000000; stroke-linecap:butt; stroke-linejoin:round; stroke-width:4; stroke-opacity:1; fill:none" points="
  252.138,1800.78 252.138,1781.88 
  "/>
<polyline clip-path="url(#clip530)" style="stroke:#000000; stroke-linecap:butt; stroke-linejoin:round; stroke-width:4; stroke-opacity:1; fill:none" points="
  836.897,1800.78 836.897,1781.88 
  "/>
<polyline clip-path="url(#clip530)" style="stroke:#000000; stroke-linecap:butt; stroke-linejoin:round; stroke-width:4; stroke-opacity:1; fill:none" points="
  1421.66,1800.78 1421.66,1781.88 
  "/>
<polyline clip-path="url(#clip530)" style="stroke:#000000; stroke-linecap:butt; stroke-linejoin:round; stroke-width:4; stroke-opacity:1; fill:none" points="
  2006.41,1800.78 2006.41,1781.88 
  "/>
<polyline clip-path="url(#clip530)" style="stroke:#000000; stroke-linecap:butt; stroke-linejoin:round; stroke-width:4; stroke-opacity:1; fill:none" points="
  2591.17,1800.78 2591.17,1781.88 
  "/>
<path clip-path="url(#clip530)" d="M214.441 1834 Q210.83 1834 209.002 1837.57 Q207.196 1841.11 207.196 1848.24 Q207.196 1855.34 209.002 1858.91 Q210.83 1862.45 214.441 1862.45 Q218.076 1862.45 219.881 1858.91 Q221.71 1855.34 221.71 1848.24 Q221.71 1841.11 219.881 1837.57 Q218.076 1834 214.441 1834 M214.441 1830.3 Q220.252 1830.3 223.307 1834.9 Q226.386 1839.49 226.386 1848.24 Q226.386 1856.96 223.307 1861.57 Q220.252 1866.15 214.441 1866.15 Q208.631 1866.15 205.553 1861.57 Q202.497 1856.96 202.497 1848.24 Q202.497 1839.49 205.553 1834.9 Q208.631 1830.3 214.441 1830.3 Z" fill="#000000" fill-rule="evenodd" fill-opacity="1" /><path clip-path="url(#clip530)" d="M234.603 1859.6 L239.488 1859.6 L239.488 1865.48 L234.603 1865.48 L234.603 1859.6 Z" fill="#000000" fill-rule="evenodd" fill-opacity="1" /><path clip-path="url(#clip530)" d="M259.673 1834 Q256.062 1834 254.233 1837.57 Q252.427 1841.11 252.427 1848.24 Q252.427 1855.34 254.233 1858.91 Q256.062 1862.45 259.673 1862.45 Q263.307 1862.45 265.113 1858.91 Q266.941 1855.34 266.941 1848.24 Q266.941 1841.11 265.113 1837.57 Q263.307 1834 259.673 1834 M259.673 1830.3 Q265.483 1830.3 268.538 1834.9 Q271.617 1839.49 271.617 1848.24 Q271.617 1856.96 268.538 1861.57 Q265.483 1866.15 259.673 1866.15 Q253.863 1866.15 250.784 1861.57 Q247.728 1856.96 247.728 1848.24 Q247.728 1839.49 250.784 1834.9 Q253.863 1830.3 259.673 1830.3 Z" fill="#000000" fill-rule="evenodd" fill-opacity="1" /><path clip-path="url(#clip530)" d="M289.835 1834 Q286.224 1834 284.395 1837.57 Q282.589 1841.11 282.589 1848.24 Q282.589 1855.34 284.395 1858.91 Q286.224 1862.45 289.835 1862.45 Q293.469 1862.45 295.274 1858.91 Q297.103 1855.34 297.103 1848.24 Q297.103 1841.11 295.274 1837.57 Q293.469 1834 289.835 1834 M289.835 1830.3 Q295.645 1830.3 298.7 1834.9 Q301.779 1839.49 301.779 1848.24 Q301.779 1856.96 298.7 1861.57 Q295.645 1866.15 289.835 1866.15 Q284.024 1866.15 280.946 1861.57 Q277.89 1856.96 277.89 1848.24 Q277.89 1839.49 280.946 1834.9 Q284.024 1830.3 289.835 1830.3 Z" fill="#000000" fill-rule="evenodd" fill-opacity="1" /><path clip-path="url(#clip530)" d="M799.698 1834 Q796.087 1834 794.258 1837.57 Q792.453 1841.11 792.453 1848.24 Q792.453 1855.34 794.258 1858.91 Q796.087 1862.45 799.698 1862.45 Q803.332 1862.45 805.138 1858.91 Q806.967 1855.34 806.967 1848.24 Q806.967 1841.11 805.138 1837.57 Q803.332 1834 799.698 1834 M799.698 1830.3 Q805.508 1830.3 808.564 1834.9 Q811.642 1839.49 811.642 1848.24 Q811.642 1856.96 808.564 1861.57 Q805.508 1866.15 799.698 1866.15 Q793.888 1866.15 790.809 1861.57 Q787.754 1856.96 787.754 1848.24 Q787.754 1839.49 790.809 1834.9 Q793.888 1830.3 799.698 1830.3 Z" fill="#000000" fill-rule="evenodd" fill-opacity="1" /><path clip-path="url(#clip530)" d="M819.86 1859.6 L824.744 1859.6 L824.744 1865.48 L819.86 1865.48 L819.86 1859.6 Z" fill="#000000" fill-rule="evenodd" fill-opacity="1" /><path clip-path="url(#clip530)" d="M838.957 1861.55 L855.276 1861.55 L855.276 1865.48 L833.332 1865.48 L833.332 1861.55 Q835.994 1858.79 840.577 1854.16 Q845.184 1849.51 846.364 1848.17 Q848.61 1845.65 849.489 1843.91 Q850.392 1842.15 850.392 1840.46 Q850.392 1837.71 848.448 1835.97 Q846.526 1834.23 843.425 1834.23 Q841.226 1834.23 838.772 1835 Q836.341 1835.76 833.564 1837.31 L833.564 1832.59 Q836.388 1831.46 838.841 1830.88 Q841.295 1830.3 843.332 1830.3 Q848.702 1830.3 851.897 1832.98 Q855.091 1835.67 855.091 1840.16 Q855.091 1842.29 854.281 1844.21 Q853.494 1846.11 851.388 1848.7 Q850.809 1849.37 847.707 1852.59 Q844.605 1855.78 838.957 1861.55 Z" fill="#000000" fill-rule="evenodd" fill-opacity="1" /><path clip-path="url(#clip530)" d="M865.138 1830.92 L883.494 1830.92 L883.494 1834.86 L869.42 1834.86 L869.42 1843.33 Q870.438 1842.98 871.457 1842.82 Q872.475 1842.64 873.494 1842.64 Q879.281 1842.64 882.661 1845.81 Q886.04 1848.98 886.04 1854.4 Q886.04 1859.97 882.568 1863.08 Q879.096 1866.15 872.776 1866.15 Q870.6 1866.15 868.332 1865.78 Q866.087 1865.41 863.679 1864.67 L863.679 1859.97 Q865.763 1861.11 867.985 1861.66 Q870.207 1862.22 872.684 1862.22 Q876.688 1862.22 879.026 1860.11 Q881.364 1858.01 881.364 1854.4 Q881.364 1850.78 879.026 1848.68 Q876.688 1846.57 872.684 1846.57 Q870.809 1846.57 868.934 1846.99 Q867.082 1847.4 865.138 1848.28 L865.138 1830.92 Z" fill="#000000" fill-rule="evenodd" fill-opacity="1" /><path clip-path="url(#clip530)" d="M1383.96 1834 Q1380.35 1834 1378.52 1837.57 Q1376.71 1841.11 1376.71 1848.24 Q1376.71 1855.34 1378.52 1858.91 Q1380.35 1862.45 1383.96 1862.45 Q1387.59 1862.45 1389.4 1858.91 Q1391.23 1855.34 1391.23 1848.24 Q1391.23 1841.11 1389.4 1837.57 Q1387.59 1834 1383.96 1834 M1383.96 1830.3 Q1389.77 1830.3 1392.82 1834.9 Q1395.9 1839.49 1395.9 1848.24 Q1395.9 1856.96 1392.82 1861.57 Q1389.77 1866.15 1383.96 1866.15 Q1378.15 1866.15 1375.07 1861.57 Q1372.01 1856.96 1372.01 1848.24 Q1372.01 1839.49 1375.07 1834.9 Q1378.15 1830.3 1383.96 1830.3 Z" fill="#000000" fill-rule="evenodd" fill-opacity="1" /><path clip-path="url(#clip530)" d="M1404.12 1859.6 L1409.01 1859.6 L1409.01 1865.48 L1404.12 1865.48 L1404.12 1859.6 Z" fill="#000000" fill-rule="evenodd" fill-opacity="1" /><path clip-path="url(#clip530)" d="M1419.24 1830.92 L1437.59 1830.92 L1437.59 1834.86 L1423.52 1834.86 L1423.52 1843.33 Q1424.54 1842.98 1425.56 1842.82 Q1426.57 1842.64 1427.59 1842.64 Q1433.38 1842.64 1436.76 1845.81 Q1440.14 1848.98 1440.14 1854.4 Q1440.14 1859.97 1436.67 1863.08 Q1433.2 1866.15 1426.88 1866.15 Q1424.7 1866.15 1422.43 1865.78 Q1420.19 1865.41 1417.78 1864.67 L1417.78 1859.97 Q1419.86 1861.11 1422.08 1861.66 Q1424.31 1862.22 1426.78 1862.22 Q1430.79 1862.22 1433.13 1860.11 Q1435.46 1858.01 1435.46 1854.4 Q1435.46 1850.78 1433.13 1848.68 Q1430.79 1846.57 1426.78 1846.57 Q1424.91 1846.57 1423.03 1846.99 Q1421.18 1847.4 1419.24 1848.28 L1419.24 1830.92 Z" fill="#000000" fill-rule="evenodd" fill-opacity="1" /><path clip-path="url(#clip530)" d="M1459.35 1834 Q1455.74 1834 1453.91 1837.57 Q1452.11 1841.11 1452.11 1848.24 Q1452.11 1855.34 1453.91 1858.91 Q1455.74 1862.45 1459.35 1862.45 Q1462.99 1862.45 1464.79 1858.91 Q1466.62 1855.34 1466.62 1848.24 Q1466.62 1841.11 1464.79 1837.57 Q1462.99 1834 1459.35 1834 M1459.35 1830.3 Q1465.16 1830.3 1468.22 1834.9 Q1471.3 1839.49 1471.3 1848.24 Q1471.3 1856.96 1468.22 1861.57 Q1465.16 1866.15 1459.35 1866.15 Q1453.54 1866.15 1450.46 1861.57 Q1447.41 1856.96 1447.41 1848.24 Q1447.41 1839.49 1450.46 1834.9 Q1453.54 1830.3 1459.35 1830.3 Z" fill="#000000" fill-rule="evenodd" fill-opacity="1" /><path clip-path="url(#clip530)" d="M1969.22 1834 Q1965.6 1834 1963.78 1837.57 Q1961.97 1841.11 1961.97 1848.24 Q1961.97 1855.34 1963.78 1858.91 Q1965.6 1862.45 1969.22 1862.45 Q1972.85 1862.45 1974.66 1858.91 Q1976.48 1855.34 1976.48 1848.24 Q1976.48 1841.11 1974.66 1837.57 Q1972.85 1834 1969.22 1834 M1969.22 1830.3 Q1975.03 1830.3 1978.08 1834.9 Q1981.16 1839.49 1981.16 1848.24 Q1981.16 1856.96 1978.08 1861.57 Q1975.03 1866.15 1969.22 1866.15 Q1963.41 1866.15 1960.33 1861.57 Q1957.27 1856.96 1957.27 1848.24 Q1957.27 1839.49 1960.33 1834.9 Q1963.41 1830.3 1969.22 1830.3 Z" fill="#000000" fill-rule="evenodd" fill-opacity="1" /><path clip-path="url(#clip530)" d="M1989.38 1859.6 L1994.26 1859.6 L1994.26 1865.48 L1989.38 1865.48 L1989.38 1859.6 Z" fill="#000000" fill-rule="evenodd" fill-opacity="1" /><path clip-path="url(#clip530)" d="M2003.27 1830.92 L2025.49 1830.92 L2025.49 1832.91 L2012.94 1865.48 L2008.06 1865.48 L2019.86 1834.86 L2003.27 1834.86 L2003.27 1830.92 Z" fill="#000000" fill-rule="evenodd" fill-opacity="1" /><path clip-path="url(#clip530)" d="M2034.66 1830.92 L2053.01 1830.92 L2053.01 1834.86 L2038.94 1834.86 L2038.94 1843.33 Q2039.96 1842.98 2040.97 1842.82 Q2041.99 1842.64 2043.01 1842.64 Q2048.8 1842.64 2052.18 1845.81 Q2055.56 1848.98 2055.56 1854.4 Q2055.56 1859.97 2052.09 1863.08 Q2048.61 1866.15 2042.29 1866.15 Q2040.12 1866.15 2037.85 1865.78 Q2035.6 1865.41 2033.2 1864.67 L2033.2 1859.97 Q2035.28 1861.11 2037.5 1861.66 Q2039.72 1862.22 2042.2 1862.22 Q2046.21 1862.22 2048.54 1860.11 Q2050.88 1858.01 2050.88 1854.4 Q2050.88 1850.78 2048.54 1848.68 Q2046.21 1846.57 2042.2 1846.57 Q2040.33 1846.57 2038.45 1846.99 Q2036.6 1847.4 2034.66 1848.28 L2034.66 1830.92 Z" fill="#000000" fill-rule="evenodd" fill-opacity="1" /><path clip-path="url(#clip530)" d="M2543.25 1861.55 L2550.88 1861.55 L2550.88 1835.18 L2542.57 1836.85 L2542.57 1832.59 L2550.84 1830.92 L2555.51 1830.92 L2555.51 1861.55 L2563.15 1861.55 L2563.15 1865.48 L2543.25 1865.48 L2543.25 1861.55 Z" fill="#000000" fill-rule="evenodd" fill-opacity="1" /><path clip-path="url(#clip530)" d="M2572.6 1859.6 L2577.48 1859.6 L2577.48 1865.48 L2572.6 1865.48 L2572.6 1859.6 Z" fill="#000000" fill-rule="evenodd" fill-opacity="1" /><path clip-path="url(#clip530)" d="M2597.67 1834 Q2594.06 1834 2592.23 1837.57 Q2590.42 1841.11 2590.42 1848.24 Q2590.42 1855.34 2592.23 1858.91 Q2594.06 1862.45 2597.67 1862.45 Q2601.3 1862.45 2603.11 1858.91 Q2604.94 1855.34 2604.94 1848.24 Q2604.94 1841.11 2603.11 1837.57 Q2601.3 1834 2597.67 1834 M2597.67 1830.3 Q2603.48 1830.3 2606.53 1834.9 Q2609.61 1839.49 2609.61 1848.24 Q2609.61 1856.96 2606.53 1861.57 Q2603.48 1866.15 2597.67 1866.15 Q2591.86 1866.15 2588.78 1861.57 Q2585.72 1856.96 2585.72 1848.24 Q2585.72 1839.49 2588.78 1834.9 Q2591.86 1830.3 2597.67 1830.3 Z" fill="#000000" fill-rule="evenodd" fill-opacity="1" /><path clip-path="url(#clip530)" d="M2627.83 1834 Q2624.22 1834 2622.39 1837.57 Q2620.58 1841.11 2620.58 1848.24 Q2620.58 1855.34 2622.39 1858.91 Q2624.22 1862.45 2627.83 1862.45 Q2631.46 1862.45 2633.27 1858.91 Q2635.1 1855.34 2635.1 1848.24 Q2635.1 1841.11 2633.27 1837.57 Q2631.46 1834 2627.83 1834 M2627.83 1830.3 Q2633.64 1830.3 2636.69 1834.9 Q2639.77 1839.49 2639.77 1848.24 Q2639.77 1856.96 2636.69 1861.57 Q2633.64 1866.15 2627.83 1866.15 Q2622.02 1866.15 2618.94 1861.57 Q2615.88 1856.96 2615.88 1848.24 Q2615.88 1839.49 2618.94 1834.9 Q2622.02 1830.3 2627.83 1830.3 Z" fill="#000000" fill-rule="evenodd" fill-opacity="1" /><polyline clip-path="url(#clip532)" style="stroke:#000000; stroke-linecap:butt; stroke-linejoin:round; stroke-width:2; stroke-opacity:0.1; fill:none" points="
  189.154,1787.37 2640.76,1787.37 
  "/>
<polyline clip-path="url(#clip532)" style="stroke:#000000; stroke-linecap:butt; stroke-linejoin:round; stroke-width:2; stroke-opacity:0.1; fill:none" points="
  189.154,1360.28 2640.76,1360.28 
  "/>
<polyline clip-path="url(#clip532)" style="stroke:#000000; stroke-linecap:butt; stroke-linejoin:round; stroke-width:2; stroke-opacity:0.1; fill:none" points="
  189.154,933.194 2640.76,933.194 
  "/>
<polyline clip-path="url(#clip532)" style="stroke:#000000; stroke-linecap:butt; stroke-linejoin:round; stroke-width:2; stroke-opacity:0.1; fill:none" points="
  189.154,506.106 2640.76,506.106 
  "/>
<polyline clip-path="url(#clip532)" style="stroke:#000000; stroke-linecap:butt; stroke-linejoin:round; stroke-width:2; stroke-opacity:0.1; fill:none" points="
  189.154,79.018 2640.76,79.018 
  "/>
<polyline clip-path="url(#clip530)" style="stroke:#000000; stroke-linecap:butt; stroke-linejoin:round; stroke-width:4; stroke-opacity:1; fill:none" points="
  189.154,1800.78 189.154,47.2441 
  "/>
<polyline clip-path="url(#clip530)" style="stroke:#000000; stroke-linecap:butt; stroke-linejoin:round; stroke-width:4; stroke-opacity:1; fill:none" points="
  189.154,1787.37 208.052,1787.37 
  "/>
<polyline clip-path="url(#clip530)" style="stroke:#000000; stroke-linecap:butt; stroke-linejoin:round; stroke-width:4; stroke-opacity:1; fill:none" points="
  189.154,1360.28 208.052,1360.28 
  "/>
<polyline clip-path="url(#clip530)" style="stroke:#000000; stroke-linecap:butt; stroke-linejoin:round; stroke-width:4; stroke-opacity:1; fill:none" points="
  189.154,933.194 208.052,933.194 
  "/>
<polyline clip-path="url(#clip530)" style="stroke:#000000; stroke-linecap:butt; stroke-linejoin:round; stroke-width:4; stroke-opacity:1; fill:none" points="
  189.154,506.106 208.052,506.106 
  "/>
<polyline clip-path="url(#clip530)" style="stroke:#000000; stroke-linecap:butt; stroke-linejoin:round; stroke-width:4; stroke-opacity:1; fill:none" points="
  189.154,79.018 208.052,79.018 
  "/>
<path clip-path="url(#clip530)" d="M61.4965 1773.17 Q57.8854 1773.17 56.0567 1776.73 Q54.2512 1780.28 54.2512 1787.41 Q54.2512 1794.51 56.0567 1798.08 Q57.8854 1801.62 61.4965 1801.62 Q65.1307 1801.62 66.9363 1798.08 Q68.765 1794.51 68.765 1787.41 Q68.765 1780.28 66.9363 1776.73 Q65.1307 1773.17 61.4965 1773.17 M61.4965 1769.47 Q67.3067 1769.47 70.3622 1774.07 Q73.4409 1778.66 73.4409 1787.41 Q73.4409 1796.13 70.3622 1800.74 Q67.3067 1805.32 61.4965 1805.32 Q55.6864 1805.32 52.6077 1800.74 Q49.5521 1796.13 49.5521 1787.41 Q49.5521 1778.66 52.6077 1774.07 Q55.6864 1769.47 61.4965 1769.47 Z" fill="#000000" fill-rule="evenodd" fill-opacity="1" /><path clip-path="url(#clip530)" d="M81.6584 1798.77 L86.5427 1798.77 L86.5427 1804.65 L81.6584 1804.65 L81.6584 1798.77 Z" fill="#000000" fill-rule="evenodd" fill-opacity="1" /><path clip-path="url(#clip530)" d="M106.728 1773.17 Q103.117 1773.17 101.288 1776.73 Q99.4824 1780.28 99.4824 1787.41 Q99.4824 1794.51 101.288 1798.08 Q103.117 1801.62 106.728 1801.62 Q110.362 1801.62 112.168 1798.08 Q113.996 1794.51 113.996 1787.41 Q113.996 1780.28 112.168 1776.73 Q110.362 1773.17 106.728 1773.17 M106.728 1769.47 Q112.538 1769.47 115.593 1774.07 Q118.672 1778.66 118.672 1787.41 Q118.672 1796.13 115.593 1800.74 Q112.538 1805.32 106.728 1805.32 Q100.918 1805.32 97.8389 1800.74 Q94.7834 1796.13 94.7834 1787.41 Q94.7834 1778.66 97.8389 1774.07 Q100.918 1769.47 106.728 1769.47 Z" fill="#000000" fill-rule="evenodd" fill-opacity="1" /><path clip-path="url(#clip530)" d="M136.89 1773.17 Q133.279 1773.17 131.45 1776.73 Q129.644 1780.28 129.644 1787.41 Q129.644 1794.51 131.45 1798.08 Q133.279 1801.62 136.89 1801.62 Q140.524 1801.62 142.329 1798.08 Q144.158 1794.51 144.158 1787.41 Q144.158 1780.28 142.329 1776.73 Q140.524 1773.17 136.89 1773.17 M136.89 1769.47 Q142.7 1769.47 145.755 1774.07 Q148.834 1778.66 148.834 1787.41 Q148.834 1796.13 145.755 1800.74 Q142.7 1805.32 136.89 1805.32 Q131.079 1805.32 128.001 1800.74 Q124.945 1796.13 124.945 1787.41 Q124.945 1778.66 128.001 1774.07 Q131.079 1769.47 136.89 1769.47 Z" fill="#000000" fill-rule="evenodd" fill-opacity="1" /><path clip-path="url(#clip530)" d="M62.4919 1346.08 Q58.8808 1346.08 57.0521 1349.65 Q55.2465 1353.19 55.2465 1360.32 Q55.2465 1367.42 57.0521 1370.99 Q58.8808 1374.53 62.4919 1374.53 Q66.1261 1374.53 67.9317 1370.99 Q69.7604 1367.42 69.7604 1360.32 Q69.7604 1353.19 67.9317 1349.65 Q66.1261 1346.08 62.4919 1346.08 M62.4919 1342.38 Q68.302 1342.38 71.3576 1346.98 Q74.4363 1351.57 74.4363 1360.32 Q74.4363 1369.04 71.3576 1373.65 Q68.302 1378.23 62.4919 1378.23 Q56.6817 1378.23 53.603 1373.65 Q50.5475 1369.04 50.5475 1360.32 Q50.5475 1351.57 53.603 1346.98 Q56.6817 1342.38 62.4919 1342.38 Z" fill="#000000" fill-rule="evenodd" fill-opacity="1" /><path clip-path="url(#clip530)" d="M82.6538 1371.68 L87.538 1371.68 L87.538 1377.56 L82.6538 1377.56 L82.6538 1371.68 Z" fill="#000000" fill-rule="evenodd" fill-opacity="1" /><path clip-path="url(#clip530)" d="M101.751 1373.63 L118.07 1373.63 L118.07 1377.56 L96.126 1377.56 L96.126 1373.63 Q98.788 1370.87 103.371 1366.24 Q107.978 1361.59 109.158 1360.25 Q111.404 1357.72 112.283 1355.99 Q113.186 1354.23 113.186 1352.54 Q113.186 1349.79 111.242 1348.05 Q109.32 1346.31 106.218 1346.31 Q104.019 1346.31 101.566 1347.08 Q99.1352 1347.84 96.3574 1349.39 L96.3574 1344.67 Q99.1815 1343.54 101.635 1342.96 Q104.089 1342.38 106.126 1342.38 Q111.496 1342.38 114.691 1345.06 Q117.885 1347.75 117.885 1352.24 Q117.885 1354.37 117.075 1356.29 Q116.288 1358.19 114.181 1360.78 Q113.603 1361.45 110.501 1364.67 Q107.399 1367.86 101.751 1373.63 Z" fill="#000000" fill-rule="evenodd" fill-opacity="1" /><path clip-path="url(#clip530)" d="M127.931 1343 L146.288 1343 L146.288 1346.94 L132.214 1346.94 L132.214 1355.41 Q133.232 1355.06 134.251 1354.9 Q135.269 1354.72 136.288 1354.72 Q142.075 1354.72 145.454 1357.89 Q148.834 1361.06 148.834 1366.47 Q148.834 1372.05 145.362 1375.16 Q141.89 1378.23 135.57 1378.23 Q133.394 1378.23 131.126 1377.86 Q128.88 1377.49 126.473 1376.75 L126.473 1372.05 Q128.556 1373.19 130.779 1373.74 Q133.001 1374.3 135.478 1374.3 Q139.482 1374.3 141.82 1372.19 Q144.158 1370.09 144.158 1366.47 Q144.158 1362.86 141.82 1360.76 Q139.482 1358.65 135.478 1358.65 Q133.603 1358.65 131.728 1359.07 Q129.876 1359.48 127.931 1360.36 L127.931 1343 Z" fill="#000000" fill-rule="evenodd" fill-opacity="1" /><path clip-path="url(#clip530)" d="M61.4965 918.993 Q57.8854 918.993 56.0567 922.558 Q54.2512 926.1 54.2512 933.229 Q54.2512 940.336 56.0567 943.9 Q57.8854 947.442 61.4965 947.442 Q65.1307 947.442 66.9363 943.9 Q68.765 940.336 68.765 933.229 Q68.765 926.1 66.9363 922.558 Q65.1307 918.993 61.4965 918.993 M61.4965 915.289 Q67.3067 915.289 70.3622 919.896 Q73.4409 924.479 73.4409 933.229 Q73.4409 941.956 70.3622 946.562 Q67.3067 951.146 61.4965 951.146 Q55.6864 951.146 52.6077 946.562 Q49.5521 941.956 49.5521 933.229 Q49.5521 924.479 52.6077 919.896 Q55.6864 915.289 61.4965 915.289 Z" fill="#000000" fill-rule="evenodd" fill-opacity="1" /><path clip-path="url(#clip530)" d="M81.6584 944.595 L86.5427 944.595 L86.5427 950.474 L81.6584 950.474 L81.6584 944.595 Z" fill="#000000" fill-rule="evenodd" fill-opacity="1" /><path clip-path="url(#clip530)" d="M96.7741 915.914 L115.13 915.914 L115.13 919.85 L101.056 919.85 L101.056 928.322 Q102.075 927.975 103.094 927.813 Q104.112 927.627 105.131 927.627 Q110.918 927.627 114.297 930.799 Q117.677 933.97 117.677 939.387 Q117.677 944.965 114.205 948.067 Q110.732 951.146 104.413 951.146 Q102.237 951.146 99.9685 950.775 Q97.7232 950.405 95.3158 949.664 L95.3158 944.965 Q97.3991 946.099 99.6213 946.655 Q101.844 947.211 104.32 947.211 Q108.325 947.211 110.663 945.104 Q113.001 942.998 113.001 939.387 Q113.001 935.775 110.663 933.669 Q108.325 931.563 104.32 931.563 Q102.445 931.563 100.57 931.979 Q98.7185 932.396 96.7741 933.275 L96.7741 915.914 Z" fill="#000000" fill-rule="evenodd" fill-opacity="1" /><path clip-path="url(#clip530)" d="M136.89 918.993 Q133.279 918.993 131.45 922.558 Q129.644 926.1 129.644 933.229 Q129.644 940.336 131.45 943.9 Q133.279 947.442 136.89 947.442 Q140.524 947.442 142.329 943.9 Q144.158 940.336 144.158 933.229 Q144.158 926.1 142.329 922.558 Q140.524 918.993 136.89 918.993 M136.89 915.289 Q142.7 915.289 145.755 919.896 Q148.834 924.479 148.834 933.229 Q148.834 941.956 145.755 946.562 Q142.7 951.146 136.89 951.146 Q131.079 951.146 128.001 946.562 Q124.945 941.956 124.945 933.229 Q124.945 924.479 128.001 919.896 Q131.079 915.289 136.89 915.289 Z" fill="#000000" fill-rule="evenodd" fill-opacity="1" /><path clip-path="url(#clip530)" d="M62.4919 491.905 Q58.8808 491.905 57.0521 495.47 Q55.2465 499.011 55.2465 506.141 Q55.2465 513.247 57.0521 516.812 Q58.8808 520.354 62.4919 520.354 Q66.1261 520.354 67.9317 516.812 Q69.7604 513.247 69.7604 506.141 Q69.7604 499.011 67.9317 495.47 Q66.1261 491.905 62.4919 491.905 M62.4919 488.201 Q68.302 488.201 71.3576 492.808 Q74.4363 497.391 74.4363 506.141 Q74.4363 514.868 71.3576 519.474 Q68.302 524.057 62.4919 524.057 Q56.6817 524.057 53.603 519.474 Q50.5475 514.868 50.5475 506.141 Q50.5475 497.391 53.603 492.808 Q56.6817 488.201 62.4919 488.201 Z" fill="#000000" fill-rule="evenodd" fill-opacity="1" /><path clip-path="url(#clip530)" d="M82.6538 517.507 L87.538 517.507 L87.538 523.386 L82.6538 523.386 L82.6538 517.507 Z" fill="#000000" fill-rule="evenodd" fill-opacity="1" /><path clip-path="url(#clip530)" d="M96.5426 488.826 L118.765 488.826 L118.765 490.817 L106.218 523.386 L101.334 523.386 L113.14 492.761 L96.5426 492.761 L96.5426 488.826 Z" fill="#000000" fill-rule="evenodd" fill-opacity="1" /><path clip-path="url(#clip530)" d="M127.931 488.826 L146.288 488.826 L146.288 492.761 L132.214 492.761 L132.214 501.234 Q133.232 500.886 134.251 500.724 Q135.269 500.539 136.288 500.539 Q142.075 500.539 145.454 503.71 Q148.834 506.882 148.834 512.298 Q148.834 517.877 145.362 520.979 Q141.89 524.057 135.57 524.057 Q133.394 524.057 131.126 523.687 Q128.88 523.317 126.473 522.576 L126.473 517.877 Q128.556 519.011 130.779 519.567 Q133.001 520.122 135.478 520.122 Q139.482 520.122 141.82 518.016 Q144.158 515.909 144.158 512.298 Q144.158 508.687 141.82 506.581 Q139.482 504.474 135.478 504.474 Q133.603 504.474 131.728 504.891 Q129.876 505.308 127.931 506.187 L127.931 488.826 Z" fill="#000000" fill-rule="evenodd" fill-opacity="1" /><path clip-path="url(#clip530)" d="M52.3067 92.3628 L59.9456 92.3628 L59.9456 65.9972 L51.6354 67.6639 L51.6354 63.4046 L59.8993 61.738 L64.5752 61.738 L64.5752 92.3628 L72.214 92.3628 L72.214 96.298 L52.3067 96.298 L52.3067 92.3628 Z" fill="#000000" fill-rule="evenodd" fill-opacity="1" /><path clip-path="url(#clip530)" d="M81.6584 90.4184 L86.5427 90.4184 L86.5427 96.298 L81.6584 96.298 L81.6584 90.4184 Z" fill="#000000" fill-rule="evenodd" fill-opacity="1" /><path clip-path="url(#clip530)" d="M106.728 64.8167 Q103.117 64.8167 101.288 68.3815 Q99.4824 71.9231 99.4824 79.0527 Q99.4824 86.1591 101.288 89.7239 Q103.117 93.2656 106.728 93.2656 Q110.362 93.2656 112.168 89.7239 Q113.996 86.1591 113.996 79.0527 Q113.996 71.9231 112.168 68.3815 Q110.362 64.8167 106.728 64.8167 M106.728 61.113 Q112.538 61.113 115.593 65.7194 Q118.672 70.3027 118.672 79.0527 Q118.672 87.7795 115.593 92.386 Q112.538 96.9693 106.728 96.9693 Q100.918 96.9693 97.8389 92.386 Q94.7834 87.7795 94.7834 79.0527 Q94.7834 70.3027 97.8389 65.7194 Q100.918 61.113 106.728 61.113 Z" fill="#000000" fill-rule="evenodd" fill-opacity="1" /><path clip-path="url(#clip530)" d="M136.89 64.8167 Q133.279 64.8167 131.45 68.3815 Q129.644 71.9231 129.644 79.0527 Q129.644 86.1591 131.45 89.7239 Q133.279 93.2656 136.89 93.2656 Q140.524 93.2656 142.329 89.7239 Q144.158 86.1591 144.158 79.0527 Q144.158 71.9231 142.329 68.3815 Q140.524 64.8167 136.89 64.8167 M136.89 61.113 Q142.7 61.113 145.755 65.7194 Q148.834 70.3027 148.834 79.0527 Q148.834 87.7795 145.755 92.386 Q142.7 96.9693 136.89 96.9693 Q131.079 96.9693 128.001 92.386 Q124.945 87.7795 124.945 79.0527 Q124.945 70.3027 128.001 65.7194 Q131.079 61.113 136.89 61.113 Z" fill="#000000" fill-rule="evenodd" fill-opacity="1" /><polyline clip-path="url(#clip532)" style="stroke:#009af9; stroke-linecap:butt; stroke-linejoin:round; stroke-width:4; stroke-opacity:1; fill:none" points="
  1329.67,831.528 1823.76,1476.23 1726.01,502.979 961.382,404.776 2486.34,782.668 468.376,745.3 958.678,298.605 698.376,1065.03 1731.17,1655.29 1099.75,960.028 
  1398.4,1360.7 1341.03,331.252 1299.97,164.12 2414.6,223.821 1483.81,275.553 894.882,1532.65 1762.77,1586.4 1578.87,120.643 863.654,136.653 372.66,1375.62 
  370.097,564.377 1402.97,768.595 280.173,836.913 2571.37,1138.96 2500.56,886.58 1905.64,1097.52 2107.96,159.859 2438.43,1418.78 917.83,616.532 1501.64,277.748 
  846.833,96.8724 954.307,341.849 2409.83,354.82 1834.87,1439.33 2407.51,1600.56 1766.87,1242.42 924.179,1355.54 1157.75,1527.03 1111.08,1012.22 2123.98,757.275 
  2193.78,1413.99 1373.91,1032.36 871.615,672.718 1433.92,253.294 2151.57,1386.64 1311.17,1169.46 1466.64,155.569 1316.18,1457.61 269.247,1008.28 956.338,946.966 
  1654.94,886.72 511.003,1136.97 844.863,864.735 2344.63,403.956 1958.69,932.405 667.243,792.785 2230.98,648.426 2300.77,1391.09 1055.88,1340.38 910.724,658.176 
  2161.1,1684.66 1498.57,498.903 1547.67,110.009 1502.77,1373.48 2373.2,134.78 2570.01,1705.79 1409.57,1042.98 1377.72,136.426 2058.17,1751.15 2060.45,850.673 
  1907.3,786.095 2394.29,389.106 846.817,1603.22 2290.06,923.743 285.602,1341.63 907.451,1550.03 2007.14,996.808 1595.89,1048.25 794.389,1437.12 463.878,1410.28 
  2191.77,1646.52 829.33,389.721 993.994,314.908 258.539,753.547 1554.18,974.891 425.361,868.183 1570.8,1066.07 1347.2,1565.04 429.698,165.582 1898.07,1456.37 
  1121.53,172.718 1026.44,991.844 1143.42,1623 2064.64,168.579 1023.03,516.485 2206.64,1326.57 394.08,503.352 1253.32,1467.62 1679.48,1383.38 1812.14,1668.41 
  
  "/>
<path clip-path="url(#clip530)" d="
M270.874 1742.33 L568.465 1742.33 L568.465 1638.65 L270.874 1638.65  Z
  " fill="#ffffff" fill-rule="evenodd" fill-opacity="1"/>
<polyline clip-path="url(#clip530)" style="stroke:#000000; stroke-linecap:butt; stroke-linejoin:round; stroke-width:4; stroke-opacity:1; fill:none" points="
  270.874,1742.33 568.465,1742.33 568.465,1638.65 270.874,1638.65 270.874,1742.33 
  "/>
<polyline clip-path="url(#clip530)" style="stroke:#009af9; stroke-linecap:butt; stroke-linejoin:round; stroke-width:4; stroke-opacity:1; fill:none" points="
  298.114,1690.49 461.554,1690.49 
  "/>
<path clip-path="url(#clip530)" d="M502.637 1710.18 Q500.831 1714.81 499.118 1716.22 Q497.405 1717.63 494.535 1717.63 L491.132 1717.63 L491.132 1714.06 L493.632 1714.06 Q495.391 1714.06 496.364 1713.23 Q497.336 1712.4 498.516 1709.3 L499.28 1707.35 L488.794 1681.84 L493.308 1681.84 L501.41 1702.12 L509.512 1681.84 L514.026 1681.84 L502.637 1710.18 Z" fill="#000000" fill-rule="evenodd" fill-opacity="1" /><path clip-path="url(#clip530)" d="M521.317 1703.83 L528.956 1703.83 L528.956 1677.47 L520.646 1679.13 L520.646 1674.87 L528.91 1673.21 L533.586 1673.21 L533.586 1703.83 L541.225 1703.83 L541.225 1707.77 L521.317 1707.77 L521.317 1703.83 Z" fill="#000000" fill-rule="evenodd" fill-opacity="1" /></svg>
