<?xml version="1.0" encoding="utf-8"?>
<svg xmlns="http://www.w3.org/2000/svg" xmlns:xlink="http://www.w3.org/1999/xlink" width="672" height="480" viewBox="0 0 2688 1920">
<defs>
  <clipPath id="clip010">
    <rect x="0" y="0" width="2688" height="1920"/>
  </clipPath>
</defs>
<path clip-path="url(#clip010)" d="
M0 1920 L2688 1920 L2688 0 L0 0  Z
  " fill="#ffffff" fill-rule="evenodd" fill-opacity="1"/>
<defs>
  <clipPath id="clip011">
    <rect x="537" y="0" width="1883" height="1883"/>
  </clipPath>
</defs>
<path clip-path="url(#clip010)" d="
M189.154 1800.78 L2640.76 1800.78 L2640.76 47.2441 L189.154 47.2441  Z
  " fill="#ffffff" fill-rule="evenodd" fill-opacity="1"/>
<defs>
  <clipPath id="clip012">
    <rect x="189" y="47" width="2453" height="1755"/>
  </clipPath>
</defs>
<polyline clip-path="url(#clip012)" style="stroke:#000000; stroke-linecap:butt; stroke-linejoin:round; stroke-width:2; stroke-opacity:0.1; fill:none" points="
  242.902,1800.78 242.902,47.2441 
  "/>
<polyline clip-path="url(#clip012)" style="stroke:#000000; stroke-linecap:butt; stroke-linejoin:round; stroke-width:2; stroke-opacity:0.1; fill:none" points="
  831.616,1800.78 831.616,47.2441 
  "/>
<polyline clip-path="url(#clip012)" style="stroke:#000000; stroke-linecap:butt; stroke-linejoin:round; stroke-width:2; stroke-opacity:0.1; fill:none" points="
  1420.33,1800.78 1420.33,47.2441 
  "/>
<polyline clip-path="url(#clip012)" style="stroke:#000000; stroke-linecap:butt; stroke-linejoin:round; stroke-width:2; stroke-opacity:0.1; fill:none" points="
  2009.04,1800.78 2009.04,47.2441 
  "/>
<polyline clip-path="url(#clip012)" style="stroke:#000000; stroke-linecap:butt; stroke-linejoin:round; stroke-width:2; stroke-opacity:0.1; fill:none" points="
  2597.76,1800.78 2597.76,47.2441 
  "/>
<polyline clip-path="url(#clip010)" style="stroke:#000000; stroke-linecap:butt; stroke-linejoin:round; stroke-width:4; stroke-opacity:1; fill:none" points="
  189.154,1800.78 2640.76,1800.78 
  "/>
<polyline clip-path="url(#clip010)" style="stroke:#000000; stroke-linecap:butt; stroke-linejoin:round; stroke-width:4; stroke-opacity:1; fill:none" points="
  242.902,1800.78 242.902,1781.88 
  "/>
<polyline clip-path="url(#clip010)" style="stroke:#000000; stroke-linecap:butt; stroke-linejoin:round; stroke-width:4; stroke-opacity:1; fill:none" points="
  831.616,1800.78 831.616,1781.88 
  "/>
<polyline clip-path="url(#clip010)" style="stroke:#000000; stroke-linecap:butt; stroke-linejoin:round; stroke-width:4; stroke-opacity:1; fill:none" points="
  1420.33,1800.78 1420.33,1781.88 
  "/>
<polyline clip-path="url(#clip010)" style="stroke:#000000; stroke-linecap:butt; stroke-linejoin:round; stroke-width:4; stroke-opacity:1; fill:none" points="
  2009.04,1800.78 2009.04,1781.88 
  "/>
<polyline clip-path="url(#clip010)" style="stroke:#000000; stroke-linecap:butt; stroke-linejoin:round; stroke-width:4; stroke-opacity:1; fill:none" points="
  2597.76,1800.78 2597.76,1781.88 
  "/>
<path clip-path="url(#clip010)" d="M205.205 1834 Q201.594 1834 199.765 1837.57 Q197.96 1841.11 197.96 1848.24 Q197.96 1855.34 199.765 1858.91 Q201.594 1862.45 205.205 1862.45 Q208.839 1862.45 210.645 1858.91 Q212.473 1855.34 212.473 1848.24 Q212.473 1841.11 210.645 1837.57 Q208.839 1834 205.205 1834 M205.205 1830.3 Q211.015 1830.3 214.071 1834.9 Q217.149 1839.49 217.149 1848.24 Q217.149 1856.96 214.071 1861.57 Q211.015 1866.15 205.205 1866.15 Q199.395 1866.15 196.316 1861.57 Q193.261 1856.96 193.261 1848.24 Q193.261 1839.49 196.316 1834.9 Q199.395 1830.3 205.205 1830.3 Z" fill="#000000" fill-rule="evenodd" fill-opacity="1" /><path clip-path="url(#clip010)" d="M225.367 1859.6 L230.251 1859.6 L230.251 1865.48 L225.367 1865.48 L225.367 1859.6 Z" fill="#000000" fill-rule="evenodd" fill-opacity="1" /><path clip-path="url(#clip010)" d="M250.436 1834 Q246.825 1834 244.996 1837.57 Q243.191 1841.11 243.191 1848.24 Q243.191 1855.34 244.996 1858.91 Q246.825 1862.45 250.436 1862.45 Q254.07 1862.45 255.876 1858.91 Q257.705 1855.34 257.705 1848.24 Q257.705 1841.11 255.876 1837.57 Q254.07 1834 250.436 1834 M250.436 1830.3 Q256.246 1830.3 259.302 1834.9 Q262.381 1839.49 262.381 1848.24 Q262.381 1856.96 259.302 1861.57 Q256.246 1866.15 250.436 1866.15 Q244.626 1866.15 241.547 1861.57 Q238.492 1856.96 238.492 1848.24 Q238.492 1839.49 241.547 1834.9 Q244.626 1830.3 250.436 1830.3 Z" fill="#000000" fill-rule="evenodd" fill-opacity="1" /><path clip-path="url(#clip010)" d="M280.598 1834 Q276.987 1834 275.158 1837.57 Q273.353 1841.11 273.353 1848.24 Q273.353 1855.34 275.158 1858.91 Q276.987 1862.45 280.598 1862.45 Q284.232 1862.45 286.038 1858.91 Q287.867 1855.34 287.867 1848.24 Q287.867 1841.11 286.038 1837.57 Q284.232 1834 280.598 1834 M280.598 1830.3 Q286.408 1830.3 289.464 1834.9 Q292.542 1839.49 292.542 1848.24 Q292.542 1856.96 289.464 1861.57 Q286.408 1866.15 280.598 1866.15 Q274.788 1866.15 271.709 1861.57 Q268.654 1856.96 268.654 1848.24 Q268.654 1839.49 271.709 1834.9 Q274.788 1830.3 280.598 1830.3 Z" fill="#000000" fill-rule="evenodd" fill-opacity="1" /><path clip-path="url(#clip010)" d="M794.417 1834 Q790.806 1834 788.977 1837.57 Q787.172 1841.11 787.172 1848.24 Q787.172 1855.34 788.977 1858.91 Q790.806 1862.45 794.417 1862.45 Q798.051 1862.45 799.857 1858.91 Q801.686 1855.34 801.686 1848.24 Q801.686 1841.11 799.857 1837.57 Q798.051 1834 794.417 1834 M794.417 1830.3 Q800.227 1830.3 803.283 1834.9 Q806.361 1839.49 806.361 1848.24 Q806.361 1856.96 803.283 1861.57 Q800.227 1866.15 794.417 1866.15 Q788.607 1866.15 785.528 1861.57 Q782.473 1856.96 782.473 1848.24 Q782.473 1839.49 785.528 1834.9 Q788.607 1830.3 794.417 1830.3 Z" fill="#000000" fill-rule="evenodd" fill-opacity="1" /><path clip-path="url(#clip010)" d="M814.579 1859.6 L819.463 1859.6 L819.463 1865.48 L814.579 1865.48 L814.579 1859.6 Z" fill="#000000" fill-rule="evenodd" fill-opacity="1" /><path clip-path="url(#clip010)" d="M833.676 1861.55 L849.995 1861.55 L849.995 1865.48 L828.051 1865.48 L828.051 1861.55 Q830.713 1858.79 835.296 1854.16 Q839.903 1849.51 841.083 1848.17 Q843.329 1845.65 844.208 1843.91 Q845.111 1842.15 845.111 1840.46 Q845.111 1837.71 843.167 1835.97 Q841.246 1834.23 838.144 1834.23 Q835.945 1834.23 833.491 1835 Q831.06 1835.76 828.283 1837.31 L828.283 1832.59 Q831.107 1831.46 833.56 1830.88 Q836.014 1830.3 838.051 1830.3 Q843.421 1830.3 846.616 1832.98 Q849.81 1835.67 849.81 1840.16 Q849.81 1842.29 849 1844.21 Q848.213 1846.11 846.107 1848.7 Q845.528 1849.37 842.426 1852.59 Q839.324 1855.78 833.676 1861.55 Z" fill="#000000" fill-rule="evenodd" fill-opacity="1" /><path clip-path="url(#clip010)" d="M859.857 1830.92 L878.213 1830.92 L878.213 1834.86 L864.139 1834.86 L864.139 1843.33 Q865.157 1842.98 866.176 1842.82 Q867.194 1842.64 868.213 1842.64 Q874 1842.64 877.38 1845.81 Q880.759 1848.98 880.759 1854.4 Q880.759 1859.97 877.287 1863.08 Q873.815 1866.15 867.495 1866.15 Q865.319 1866.15 863.051 1865.78 Q860.806 1865.41 858.398 1864.67 L858.398 1859.97 Q860.482 1861.11 862.704 1861.66 Q864.926 1862.22 867.403 1862.22 Q871.407 1862.22 873.745 1860.11 Q876.083 1858.01 876.083 1854.4 Q876.083 1850.78 873.745 1848.68 Q871.407 1846.57 867.403 1846.57 Q865.528 1846.57 863.653 1846.99 Q861.801 1847.4 859.857 1848.28 L859.857 1830.92 Z" fill="#000000" fill-rule="evenodd" fill-opacity="1" /><path clip-path="url(#clip010)" d="M1382.63 1834 Q1379.02 1834 1377.19 1837.57 Q1375.39 1841.11 1375.39 1848.24 Q1375.39 1855.34 1377.19 1858.91 Q1379.02 1862.45 1382.63 1862.45 Q1386.27 1862.45 1388.07 1858.91 Q1389.9 1855.34 1389.9 1848.24 Q1389.9 1841.11 1388.07 1837.57 Q1386.27 1834 1382.63 1834 M1382.63 1830.3 Q1388.44 1830.3 1391.5 1834.9 Q1394.58 1839.49 1394.58 1848.24 Q1394.58 1856.96 1391.5 1861.57 Q1388.44 1866.15 1382.63 1866.15 Q1376.82 1866.15 1373.74 1861.57 Q1370.69 1856.96 1370.69 1848.24 Q1370.69 1839.49 1373.74 1834.9 Q1376.82 1830.3 1382.63 1830.3 Z" fill="#000000" fill-rule="evenodd" fill-opacity="1" /><path clip-path="url(#clip010)" d="M1402.8 1859.6 L1407.68 1859.6 L1407.68 1865.48 L1402.8 1865.48 L1402.8 1859.6 Z" fill="#000000" fill-rule="evenodd" fill-opacity="1" /><path clip-path="url(#clip010)" d="M1417.91 1830.92 L1436.27 1830.92 L1436.27 1834.86 L1422.19 1834.86 L1422.19 1843.33 Q1423.21 1842.98 1424.23 1842.82 Q1425.25 1842.64 1426.27 1842.64 Q1432.05 1842.64 1435.43 1845.81 Q1438.81 1848.98 1438.81 1854.4 Q1438.81 1859.97 1435.34 1863.08 Q1431.87 1866.15 1425.55 1866.15 Q1423.37 1866.15 1421.11 1865.78 Q1418.86 1865.41 1416.45 1864.67 L1416.45 1859.97 Q1418.54 1861.11 1420.76 1861.66 Q1422.98 1862.22 1425.46 1862.22 Q1429.46 1862.22 1431.8 1860.11 Q1434.14 1858.01 1434.14 1854.4 Q1434.14 1850.78 1431.8 1848.68 Q1429.46 1846.57 1425.46 1846.57 Q1423.58 1846.57 1421.71 1846.99 Q1419.86 1847.4 1417.91 1848.28 L1417.91 1830.92 Z" fill="#000000" fill-rule="evenodd" fill-opacity="1" /><path clip-path="url(#clip010)" d="M1458.03 1834 Q1454.42 1834 1452.59 1837.57 Q1450.78 1841.11 1450.78 1848.24 Q1450.78 1855.34 1452.59 1858.91 Q1454.42 1862.45 1458.03 1862.45 Q1461.66 1862.45 1463.47 1858.91 Q1465.3 1855.34 1465.3 1848.24 Q1465.3 1841.11 1463.47 1837.57 Q1461.66 1834 1458.03 1834 M1458.03 1830.3 Q1463.84 1830.3 1466.89 1834.9 Q1469.97 1839.49 1469.97 1848.24 Q1469.97 1856.96 1466.89 1861.57 Q1463.84 1866.15 1458.03 1866.15 Q1452.22 1866.15 1449.14 1861.57 Q1446.08 1856.96 1446.08 1848.24 Q1446.08 1839.49 1449.14 1834.9 Q1452.22 1830.3 1458.03 1830.3 Z" fill="#000000" fill-rule="evenodd" fill-opacity="1" /><path clip-path="url(#clip010)" d="M1971.85 1834 Q1968.23 1834 1966.41 1837.57 Q1964.6 1841.11 1964.6 1848.24 Q1964.6 1855.34 1966.41 1858.91 Q1968.23 1862.45 1971.85 1862.45 Q1975.48 1862.45 1977.29 1858.91 Q1979.11 1855.34 1979.11 1848.24 Q1979.11 1841.11 1977.29 1837.57 Q1975.48 1834 1971.85 1834 M1971.85 1830.3 Q1977.66 1830.3 1980.71 1834.9 Q1983.79 1839.49 1983.79 1848.24 Q1983.79 1856.96 1980.71 1861.57 Q1977.66 1866.15 1971.85 1866.15 Q1966.04 1866.15 1962.96 1861.57 Q1959.9 1856.96 1959.9 1848.24 Q1959.9 1839.49 1962.96 1834.9 Q1966.04 1830.3 1971.85 1830.3 Z" fill="#000000" fill-rule="evenodd" fill-opacity="1" /><path clip-path="url(#clip010)" d="M1992.01 1859.6 L1996.89 1859.6 L1996.89 1865.48 L1992.01 1865.48 L1992.01 1859.6 Z" fill="#000000" fill-rule="evenodd" fill-opacity="1" /><path clip-path="url(#clip010)" d="M2005.9 1830.92 L2028.12 1830.92 L2028.12 1832.91 L2015.57 1865.48 L2010.69 1865.48 L2022.49 1834.86 L2005.9 1834.86 L2005.9 1830.92 Z" fill="#000000" fill-rule="evenodd" fill-opacity="1" /><path clip-path="url(#clip010)" d="M2037.29 1830.92 L2055.64 1830.92 L2055.64 1834.86 L2041.57 1834.86 L2041.57 1843.33 Q2042.59 1842.98 2043.6 1842.82 Q2044.62 1842.64 2045.64 1842.64 Q2051.43 1842.64 2054.81 1845.81 Q2058.19 1848.98 2058.19 1854.4 Q2058.19 1859.97 2054.72 1863.08 Q2051.24 1866.15 2044.92 1866.15 Q2042.75 1866.15 2040.48 1865.78 Q2038.23 1865.41 2035.83 1864.67 L2035.83 1859.97 Q2037.91 1861.11 2040.13 1861.66 Q2042.35 1862.22 2044.83 1862.22 Q2048.84 1862.22 2051.17 1860.11 Q2053.51 1858.01 2053.51 1854.4 Q2053.51 1850.78 2051.17 1848.68 Q2048.84 1846.57 2044.83 1846.57 Q2042.96 1846.57 2041.08 1846.99 Q2039.23 1847.4 2037.29 1848.28 L2037.29 1830.92 Z" fill="#000000" fill-rule="evenodd" fill-opacity="1" /><path clip-path="url(#clip010)" d="M2549.83 1861.55 L2557.47 1861.55 L2557.47 1835.18 L2549.16 1836.85 L2549.16 1832.59 L2557.42 1830.92 L2562.1 1830.92 L2562.1 1861.55 L2569.74 1861.55 L2569.74 1865.48 L2549.83 1865.48 L2549.83 1861.55 Z" fill="#000000" fill-rule="evenodd" fill-opacity="1" /><path clip-path="url(#clip010)" d="M2579.18 1859.6 L2584.07 1859.6 L2584.07 1865.48 L2579.18 1865.48 L2579.18 1859.6 Z" fill="#000000" fill-rule="evenodd" fill-opacity="1" /><path clip-path="url(#clip010)" d="M2604.25 1834 Q2600.64 1834 2598.81 1837.57 Q2597.01 1841.11 2597.01 1848.24 Q2597.01 1855.34 2598.81 1858.91 Q2600.64 1862.45 2604.25 1862.45 Q2607.89 1862.45 2609.69 1858.91 Q2611.52 1855.34 2611.52 1848.24 Q2611.52 1841.11 2609.69 1837.57 Q2607.89 1834 2604.25 1834 M2604.25 1830.3 Q2610.06 1830.3 2613.12 1834.9 Q2616.2 1839.49 2616.2 1848.24 Q2616.2 1856.96 2613.12 1861.57 Q2610.06 1866.15 2604.25 1866.15 Q2598.44 1866.15 2595.36 1861.57 Q2592.31 1856.96 2592.31 1848.24 Q2592.31 1839.49 2595.36 1834.9 Q2598.44 1830.3 2604.25 1830.3 Z" fill="#000000" fill-rule="evenodd" fill-opacity="1" /><path clip-path="url(#clip010)" d="M2634.41 1834 Q2630.8 1834 2628.97 1837.57 Q2627.17 1841.11 2627.17 1848.24 Q2627.17 1855.34 2628.97 1858.91 Q2630.8 1862.45 2634.41 1862.45 Q2638.05 1862.45 2639.85 1858.91 Q2641.68 1855.34 2641.68 1848.24 Q2641.68 1841.11 2639.85 1837.57 Q2638.05 1834 2634.41 1834 M2634.41 1830.3 Q2640.22 1830.3 2643.28 1834.9 Q2646.36 1839.49 2646.36 1848.24 Q2646.36 1856.96 2643.28 1861.57 Q2640.22 1866.15 2634.41 1866.15 Q2628.6 1866.15 2625.53 1861.57 Q2622.47 1856.96 2622.47 1848.24 Q2622.47 1839.49 2625.53 1834.9 Q2628.6 1830.3 2634.41 1830.3 Z" fill="#000000" fill-rule="evenodd" fill-opacity="1" /><polyline clip-path="url(#clip012)" style="stroke:#000000; stroke-linecap:butt; stroke-linejoin:round; stroke-width:2; stroke-opacity:0.1; fill:none" points="
  189.154,1757.55 2640.76,1757.55 
  "/>
<polyline clip-path="url(#clip012)" style="stroke:#000000; stroke-linecap:butt; stroke-linejoin:round; stroke-width:2; stroke-opacity:0.1; fill:none" points="
  189.154,1340.21 2640.76,1340.21 
  "/>
<polyline clip-path="url(#clip012)" style="stroke:#000000; stroke-linecap:butt; stroke-linejoin:round; stroke-width:2; stroke-opacity:0.1; fill:none" points="
  189.154,922.875 2640.76,922.875 
  "/>
<polyline clip-path="url(#clip012)" style="stroke:#000000; stroke-linecap:butt; stroke-linejoin:round; stroke-width:2; stroke-opacity:0.1; fill:none" points="
  189.154,505.54 2640.76,505.54 
  "/>
<polyline clip-path="url(#clip012)" style="stroke:#000000; stroke-linecap:butt; stroke-linejoin:round; stroke-width:2; stroke-opacity:0.1; fill:none" points="
  189.154,88.2047 2640.76,88.2047 
  "/>
<polyline clip-path="url(#clip010)" style="stroke:#000000; stroke-linecap:butt; stroke-linejoin:round; stroke-width:4; stroke-opacity:1; fill:none" points="
  189.154,1800.78 189.154,47.2441 
  "/>
<polyline clip-path="url(#clip010)" style="stroke:#000000; stroke-linecap:butt; stroke-linejoin:round; stroke-width:4; stroke-opacity:1; fill:none" points="
  189.154,1757.55 208.052,1757.55 
  "/>
<polyline clip-path="url(#clip010)" style="stroke:#000000; stroke-linecap:butt; stroke-linejoin:round; stroke-width:4; stroke-opacity:1; fill:none" points="
  189.154,1340.21 208.052,1340.21 
  "/>
<polyline clip-path="url(#clip010)" style="stroke:#000000; stroke-linecap:butt; stroke-linejoin:round; stroke-width:4; stroke-opacity:1; fill:none" points="
  189.154,922.875 208.052,922.875 
  "/>
<polyline clip-path="url(#clip010)" style="stroke:#000000; stroke-linecap:butt; stroke-linejoin:round; stroke-width:4; stroke-opacity:1; fill:none" points="
  189.154,505.54 208.052,505.54 
  "/>
<polyline clip-path="url(#clip010)" style="stroke:#000000; stroke-linecap:butt; stroke-linejoin:round; stroke-width:4; stroke-opacity:1; fill:none" points="
  189.154,88.2047 208.052,88.2047 
  "/>
<path clip-path="url(#clip010)" d="M61.4965 1743.34 Q57.8854 1743.34 56.0567 1746.91 Q54.2512 1750.45 54.2512 1757.58 Q54.2512 1764.69 56.0567 1768.25 Q57.8854 1771.79 61.4965 1771.79 Q65.1307 1771.79 66.9363 1768.25 Q68.765 1764.69 68.765 1757.58 Q68.765 1750.45 66.9363 1746.91 Q65.1307 1743.34 61.4965 1743.34 M61.4965 1739.64 Q67.3067 1739.64 70.3622 1744.25 Q73.4409 1748.83 73.4409 1757.58 Q73.4409 1766.31 70.3622 1770.91 Q67.3067 1775.5 61.4965 1775.5 Q55.6864 1775.5 52.6077 1770.91 Q49.5521 1766.31 49.5521 1757.58 Q49.5521 1748.83 52.6077 1744.25 Q55.6864 1739.64 61.4965 1739.64 Z" fill="#000000" fill-rule="evenodd" fill-opacity="1" /><path clip-path="url(#clip010)" d="M81.6584 1768.95 L86.5427 1768.95 L86.5427 1774.83 L81.6584 1774.83 L81.6584 1768.95 Z" fill="#000000" fill-rule="evenodd" fill-opacity="1" /><path clip-path="url(#clip010)" d="M106.728 1743.34 Q103.117 1743.34 101.288 1746.91 Q99.4824 1750.45 99.4824 1757.58 Q99.4824 1764.69 101.288 1768.25 Q103.117 1771.79 106.728 1771.79 Q110.362 1771.79 112.168 1768.25 Q113.996 1764.69 113.996 1757.58 Q113.996 1750.45 112.168 1746.91 Q110.362 1743.34 106.728 1743.34 M106.728 1739.64 Q112.538 1739.64 115.593 1744.25 Q118.672 1748.83 118.672 1757.58 Q118.672 1766.31 115.593 1770.91 Q112.538 1775.5 106.728 1775.5 Q100.918 1775.5 97.8389 1770.91 Q94.7834 1766.31 94.7834 1757.58 Q94.7834 1748.83 97.8389 1744.25 Q100.918 1739.64 106.728 1739.64 Z" fill="#000000" fill-rule="evenodd" fill-opacity="1" /><path clip-path="url(#clip010)" d="M136.89 1743.34 Q133.279 1743.34 131.45 1746.91 Q129.644 1750.45 129.644 1757.58 Q129.644 1764.69 131.45 1768.25 Q133.279 1771.79 136.89 1771.79 Q140.524 1771.79 142.329 1768.25 Q144.158 1764.69 144.158 1757.58 Q144.158 1750.45 142.329 1746.91 Q140.524 1743.34 136.89 1743.34 M136.89 1739.64 Q142.7 1739.64 145.755 1744.25 Q148.834 1748.83 148.834 1757.58 Q148.834 1766.31 145.755 1770.91 Q142.7 1775.5 136.89 1775.5 Q131.079 1775.5 128.001 1770.91 Q124.945 1766.31 124.945 1757.58 Q124.945 1748.83 128.001 1744.25 Q131.079 1739.64 136.89 1739.64 Z" fill="#000000" fill-rule="evenodd" fill-opacity="1" /><path clip-path="url(#clip010)" d="M62.4919 1326.01 Q58.8808 1326.01 57.0521 1329.57 Q55.2465 1333.12 55.2465 1340.25 Q55.2465 1347.35 57.0521 1350.92 Q58.8808 1354.46 62.4919 1354.46 Q66.1261 1354.46 67.9317 1350.92 Q69.7604 1347.35 69.7604 1340.25 Q69.7604 1333.12 67.9317 1329.57 Q66.1261 1326.01 62.4919 1326.01 M62.4919 1322.31 Q68.302 1322.31 71.3576 1326.91 Q74.4363 1331.5 74.4363 1340.25 Q74.4363 1348.97 71.3576 1353.58 Q68.302 1358.16 62.4919 1358.16 Q56.6817 1358.16 53.603 1353.58 Q50.5475 1348.97 50.5475 1340.25 Q50.5475 1331.5 53.603 1326.91 Q56.6817 1322.31 62.4919 1322.31 Z" fill="#000000" fill-rule="evenodd" fill-opacity="1" /><path clip-path="url(#clip010)" d="M82.6538 1351.61 L87.538 1351.61 L87.538 1357.49 L82.6538 1357.49 L82.6538 1351.61 Z" fill="#000000" fill-rule="evenodd" fill-opacity="1" /><path clip-path="url(#clip010)" d="M101.751 1353.56 L118.07 1353.56 L118.07 1357.49 L96.126 1357.49 L96.126 1353.56 Q98.788 1350.8 103.371 1346.17 Q107.978 1341.52 109.158 1340.18 Q111.404 1337.65 112.283 1335.92 Q113.186 1334.16 113.186 1332.47 Q113.186 1329.71 111.242 1327.98 Q109.32 1326.24 106.218 1326.24 Q104.019 1326.24 101.566 1327 Q99.1352 1327.77 96.3574 1329.32 L96.3574 1324.6 Q99.1815 1323.46 101.635 1322.88 Q104.089 1322.31 106.126 1322.31 Q111.496 1322.31 114.691 1324.99 Q117.885 1327.68 117.885 1332.17 Q117.885 1334.3 117.075 1336.22 Q116.288 1338.12 114.181 1340.71 Q113.603 1341.38 110.501 1344.6 Q107.399 1347.79 101.751 1353.56 Z" fill="#000000" fill-rule="evenodd" fill-opacity="1" /><path clip-path="url(#clip010)" d="M127.931 1322.93 L146.288 1322.93 L146.288 1326.87 L132.214 1326.87 L132.214 1335.34 Q133.232 1334.99 134.251 1334.83 Q135.269 1334.64 136.288 1334.64 Q142.075 1334.64 145.454 1337.81 Q148.834 1340.99 148.834 1346.4 Q148.834 1351.98 145.362 1355.08 Q141.89 1358.16 135.57 1358.16 Q133.394 1358.16 131.126 1357.79 Q128.88 1357.42 126.473 1356.68 L126.473 1351.98 Q128.556 1353.12 130.779 1353.67 Q133.001 1354.23 135.478 1354.23 Q139.482 1354.23 141.82 1352.12 Q144.158 1350.01 144.158 1346.4 Q144.158 1342.79 141.82 1340.69 Q139.482 1338.58 135.478 1338.58 Q133.603 1338.58 131.728 1339 Q129.876 1339.41 127.931 1340.29 L127.931 1322.93 Z" fill="#000000" fill-rule="evenodd" fill-opacity="1" /><path clip-path="url(#clip010)" d="M61.4965 908.674 Q57.8854 908.674 56.0567 912.239 Q54.2512 915.781 54.2512 922.91 Q54.2512 930.017 56.0567 933.581 Q57.8854 937.123 61.4965 937.123 Q65.1307 937.123 66.9363 933.581 Q68.765 930.017 68.765 922.91 Q68.765 915.781 66.9363 912.239 Q65.1307 908.674 61.4965 908.674 M61.4965 904.97 Q67.3067 904.97 70.3622 909.577 Q73.4409 914.16 73.4409 922.91 Q73.4409 931.637 70.3622 936.243 Q67.3067 940.827 61.4965 940.827 Q55.6864 940.827 52.6077 936.243 Q49.5521 931.637 49.5521 922.91 Q49.5521 914.16 52.6077 909.577 Q55.6864 904.97 61.4965 904.97 Z" fill="#000000" fill-rule="evenodd" fill-opacity="1" /><path clip-path="url(#clip010)" d="M81.6584 934.276 L86.5427 934.276 L86.5427 940.155 L81.6584 940.155 L81.6584 934.276 Z" fill="#000000" fill-rule="evenodd" fill-opacity="1" /><path clip-path="url(#clip010)" d="M96.7741 905.595 L115.13 905.595 L115.13 909.531 L101.056 909.531 L101.056 918.003 Q102.075 917.656 103.094 917.494 Q104.112 917.308 105.131 917.308 Q110.918 917.308 114.297 920.48 Q117.677 923.651 117.677 929.068 Q117.677 934.646 114.205 937.748 Q110.732 940.827 104.413 940.827 Q102.237 940.827 99.9685 940.456 Q97.7232 940.086 95.3158 939.345 L95.3158 934.646 Q97.3991 935.78 99.6213 936.336 Q101.844 936.892 104.32 936.892 Q108.325 936.892 110.663 934.785 Q113.001 932.679 113.001 929.068 Q113.001 925.456 110.663 923.35 Q108.325 921.243 104.32 921.243 Q102.445 921.243 100.57 921.66 Q98.7185 922.077 96.7741 922.956 L96.7741 905.595 Z" fill="#000000" fill-rule="evenodd" fill-opacity="1" /><path clip-path="url(#clip010)" d="M136.89 908.674 Q133.279 908.674 131.45 912.239 Q129.644 915.781 129.644 922.91 Q129.644 930.017 131.45 933.581 Q133.279 937.123 136.89 937.123 Q140.524 937.123 142.329 933.581 Q144.158 930.017 144.158 922.91 Q144.158 915.781 142.329 912.239 Q140.524 908.674 136.89 908.674 M136.89 904.97 Q142.7 904.97 145.755 909.577 Q148.834 914.16 148.834 922.91 Q148.834 931.637 145.755 936.243 Q142.7 940.827 136.89 940.827 Q131.079 940.827 128.001 936.243 Q124.945 931.637 124.945 922.91 Q124.945 914.16 128.001 909.577 Q131.079 904.97 136.89 904.97 Z" fill="#000000" fill-rule="evenodd" fill-opacity="1" /><path clip-path="url(#clip010)" d="M62.4919 491.339 Q58.8808 491.339 57.0521 494.904 Q55.2465 498.445 55.2465 505.575 Q55.2465 512.681 57.0521 516.246 Q58.8808 519.788 62.4919 519.788 Q66.1261 519.788 67.9317 516.246 Q69.7604 512.681 69.7604 505.575 Q69.7604 498.445 67.9317 494.904 Q66.1261 491.339 62.4919 491.339 M62.4919 487.635 Q68.302 487.635 71.3576 492.242 Q74.4363 496.825 74.4363 505.575 Q74.4363 514.302 71.3576 518.908 Q68.302 523.491 62.4919 523.491 Q56.6817 523.491 53.603 518.908 Q50.5475 514.302 50.5475 505.575 Q50.5475 496.825 53.603 492.242 Q56.6817 487.635 62.4919 487.635 Z" fill="#000000" fill-rule="evenodd" fill-opacity="1" /><path clip-path="url(#clip010)" d="M82.6538 516.94 L87.538 516.94 L87.538 522.82 L82.6538 522.82 L82.6538 516.94 Z" fill="#000000" fill-rule="evenodd" fill-opacity="1" /><path clip-path="url(#clip010)" d="M96.5426 488.26 L118.765 488.26 L118.765 490.251 L106.218 522.82 L101.334 522.82 L113.14 492.195 L96.5426 492.195 L96.5426 488.26 Z" fill="#000000" fill-rule="evenodd" fill-opacity="1" /><path clip-path="url(#clip010)" d="M127.931 488.26 L146.288 488.26 L146.288 492.195 L132.214 492.195 L132.214 500.667 Q133.232 500.32 134.251 500.158 Q135.269 499.973 136.288 499.973 Q142.075 499.973 145.454 503.144 Q148.834 506.316 148.834 511.732 Q148.834 517.311 145.362 520.413 Q141.89 523.491 135.57 523.491 Q133.394 523.491 131.126 523.121 Q128.88 522.751 126.473 522.01 L126.473 517.311 Q128.556 518.445 130.779 519.001 Q133.001 519.556 135.478 519.556 Q139.482 519.556 141.82 517.45 Q144.158 515.343 144.158 511.732 Q144.158 508.121 141.82 506.015 Q139.482 503.908 135.478 503.908 Q133.603 503.908 131.728 504.325 Q129.876 504.741 127.931 505.621 L127.931 488.26 Z" fill="#000000" fill-rule="evenodd" fill-opacity="1" /><path clip-path="url(#clip010)" d="M52.3067 101.55 L59.9456 101.55 L59.9456 75.1839 L51.6354 76.8506 L51.6354 72.5913 L59.8993 70.9247 L64.5752 70.9247 L64.5752 101.55 L72.214 101.55 L72.214 105.485 L52.3067 105.485 L52.3067 101.55 Z" fill="#000000" fill-rule="evenodd" fill-opacity="1" /><path clip-path="url(#clip010)" d="M81.6584 99.6051 L86.5427 99.6051 L86.5427 105.485 L81.6584 105.485 L81.6584 99.6051 Z" fill="#000000" fill-rule="evenodd" fill-opacity="1" /><path clip-path="url(#clip010)" d="M106.728 74.0034 Q103.117 74.0034 101.288 77.5682 Q99.4824 81.1098 99.4824 88.2394 Q99.4824 95.3458 101.288 98.9106 Q103.117 102.452 106.728 102.452 Q110.362 102.452 112.168 98.9106 Q113.996 95.3458 113.996 88.2394 Q113.996 81.1098 112.168 77.5682 Q110.362 74.0034 106.728 74.0034 M106.728 70.2997 Q112.538 70.2997 115.593 74.9061 Q118.672 79.4894 118.672 88.2394 Q118.672 96.9662 115.593 101.573 Q112.538 106.156 106.728 106.156 Q100.918 106.156 97.8389 101.573 Q94.7834 96.9662 94.7834 88.2394 Q94.7834 79.4894 97.8389 74.9061 Q100.918 70.2997 106.728 70.2997 Z" fill="#000000" fill-rule="evenodd" fill-opacity="1" /><path clip-path="url(#clip010)" d="M136.89 74.0034 Q133.279 74.0034 131.45 77.5682 Q129.644 81.1098 129.644 88.2394 Q129.644 95.3458 131.45 98.9106 Q133.279 102.452 136.89 102.452 Q140.524 102.452 142.329 98.9106 Q144.158 95.3458 144.158 88.2394 Q144.158 81.1098 142.329 77.5682 Q140.524 74.0034 136.89 74.0034 M136.89 70.2997 Q142.7 70.2997 145.755 74.9061 Q148.834 79.4894 148.834 88.2394 Q148.834 96.9662 145.755 101.573 Q142.7 106.156 136.89 106.156 Q131.079 106.156 128.001 101.573 Q124.945 96.9662 124.945 88.2394 Q124.945 79.4894 128.001 74.9061 Q131.079 70.2997 136.89 70.2997 Z" fill="#000000" fill-rule="evenodd" fill-opacity="1" /><polyline clip-path="url(#clip012)" style="stroke:#009af9; stroke-linecap:butt; stroke-linejoin:round; stroke-width:4; stroke-opacity:1; fill:none" points="
  1129.34,1393.15 314.25,842.454 2439.04,1281.16 1423.68,96.8724 2062.11,619.541 546.514,827.153 2005.79,1607.18 1421.61,422.941 889.417,1147.93 2019.21,1118.06 
  1114.83,892.545 549.716,836.049 469.606,927.586 825.405,1751.15 1743.92,1221.15 2325.35,859.901 1305.45,485.571 2522.04,552.799 2056.38,814.546 2558.05,242.928 
  910.334,1158.42 874.875,934.735 1533.23,1045 258.539,935.683 1363.87,843.425 1430.62,362.871 2072.53,1585.94 1868.05,1596.52 2204.21,536.567 652.13,1414.98 
  1813.98,807.662 1956.36,1687.41 2018.83,1211.65 340.374,623.009 368.77,1021.48 2166.32,1493.77 1118.87,1504.21 861.268,537.04 1963.99,602.39 1089.4,372.178 
  2207.85,549.196 1357.64,1142.93 2155.54,547.116 2290.67,765.273 884.856,1607.01 1062.42,167.523 2262.1,1281.8 1145.84,864.599 2444.86,464.99 847.087,411.836 
  1512.87,1052.35 2534.17,1347.09 2240.12,1425.01 926.016,1509.76 2553.97,568.83 579.819,572.037 1231.34,1557.92 1241.14,593.819 538.204,1424.16 508.634,922.289 
  973.805,145.111 1513.97,132.23 418.027,850.357 707.767,146.821 1237.51,1065.14 278.03,225.39 892.126,794.342 809.671,1302.82 818.049,896.647 655.396,1078.06 
  2461.79,155.943 1071.74,527.317 680.363,1049.87 1848.11,501.974 564.263,1380.78 967.29,1702.44 1118.92,1070.29 1623.42,507.755 1313.51,894.96 2219.89,1706.34 
  2226.9,1267.41 2251.32,873.478 2379.99,924.617 1093.85,1521.1 1141.46,210.241 657.067,778.901 417.123,544.586 1058.2,1693.98 1978.19,972.318 1718.87,209.056 
  2357.39,1433.66 605.227,1236.57 2571.37,611.346 2378,606.407 2544.64,815.645 1524.55,208.353 2235.4,541.816 2449.47,1702.29 731.661,887.881 2318.6,381.301 
  
  "/>
<path clip-path="url(#clip010)" d="
M270.874 1742.33 L568.465 1742.33 L568.465 1638.65 L270.874 1638.65  Z
  " fill="#ffffff" fill-rule="evenodd" fill-opacity="1"/>
<polyline clip-path="url(#clip010)" style="stroke:#000000; stroke-linecap:butt; stroke-linejoin:round; stroke-width:4; stroke-opacity:1; fill:none" points="
  270.874,1742.33 568.465,1742.33 568.465,1638.65 270.874,1638.65 270.874,1742.33 
  "/>
<polyline clip-path="url(#clip010)" style="stroke:#009af9; stroke-linecap:butt; stroke-linejoin:round; stroke-width:4; stroke-opacity:1; fill:none" points="
  298.114,1690.49 461.554,1690.49 
  "/>
<path clip-path="url(#clip010)" d="M502.637 1710.18 Q500.831 1714.81 499.118 1716.22 Q497.405 1717.63 494.535 1717.63 L491.132 1717.63 L491.132 1714.06 L493.632 1714.06 Q495.391 1714.06 496.364 1713.23 Q497.336 1712.4 498.516 1709.3 L499.28 1707.35 L488.794 1681.84 L493.308 1681.84 L501.41 1702.12 L509.512 1681.84 L514.026 1681.84 L502.637 1710.18 Z" fill="#000000" fill-rule="evenodd" fill-opacity="1" /><path clip-path="url(#clip010)" d="M521.317 1703.83 L528.956 1703.83 L528.956 1677.47 L520.646 1679.13 L520.646 1674.87 L528.91 1673.21 L533.586 1673.21 L533.586 1703.83 L541.225 1703.83 L541.225 1707.77 L521.317 1707.77 L521.317 1703.83 Z" fill="#000000" fill-rule="evenodd" fill-opacity="1" /></svg>
