<?xml version="1.0" encoding="utf-8"?>
<svg xmlns="http://www.w3.org/2000/svg" xmlns:xlink="http://www.w3.org/1999/xlink" width="672" height="480" viewBox="0 0 2688 1920">
<defs>
  <clipPath id="clip240">
    <rect x="0" y="0" width="2688" height="1920"/>
  </clipPath>
</defs>
<path clip-path="url(#clip240)" d="
M0 1920 L2688 1920 L2688 0 L0 0  Z
  " fill="#ffffff" fill-rule="evenodd" fill-opacity="1"/>
<defs>
  <clipPath id="clip241">
    <rect x="537" y="0" width="1883" height="1883"/>
  </clipPath>
</defs>
<path clip-path="url(#clip240)" d="
M189.154 1800.78 L2640.76 1800.78 L2640.76 47.2441 L189.154 47.2441  Z
  " fill="#ffffff" fill-rule="evenodd" fill-opacity="1"/>
<defs>
  <clipPath id="clip242">
    <rect x="189" y="47" width="2453" height="1755"/>
  </clipPath>
</defs>
<polyline clip-path="url(#clip242)" style="stroke:#000000; stroke-linecap:butt; stroke-linejoin:round; stroke-width:2; stroke-opacity:0.1; fill:none" points="
  255.078,1800.78 255.078,47.2441 
  "/>
<polyline clip-path="url(#clip242)" style="stroke:#000000; stroke-linecap:butt; stroke-linejoin:round; stroke-width:2; stroke-opacity:0.1; fill:none" points="
  835.671,1800.78 835.671,47.2441 
  "/>
<polyline clip-path="url(#clip242)" style="stroke:#000000; stroke-linecap:butt; stroke-linejoin:round; stroke-width:2; stroke-opacity:0.1; fill:none" points="
  1416.26,1800.78 1416.26,47.2441 
  "/>
<polyline clip-path="url(#clip242)" style="stroke:#000000; stroke-linecap:butt; stroke-linejoin:round; stroke-width:2; stroke-opacity:0.1; fill:none" points="
  1996.86,1800.78 1996.86,47.2441 
  "/>
<polyline clip-path="url(#clip242)" style="stroke:#000000; stroke-linecap:butt; stroke-linejoin:round; stroke-width:2; stroke-opacity:0.1; fill:none" points="
  2577.45,1800.78 2577.45,47.2441 
  "/>
<polyline clip-path="url(#clip240)" style="stroke:#000000; stroke-linecap:butt; stroke-linejoin:round; stroke-width:4; stroke-opacity:1; fill:none" points="
  189.154,1800.78 2640.76,1800.78 
  "/>
<polyline clip-path="url(#clip240)" style="stroke:#000000; stroke-linecap:butt; stroke-linejoin:round; stroke-width:4; stroke-opacity:1; fill:none" points="
  255.078,1800.78 255.078,1781.88 
  "/>
<polyline clip-path="url(#clip240)" style="stroke:#000000; stroke-linecap:butt; stroke-linejoin:round; stroke-width:4; stroke-opacity:1; fill:none" points="
  835.671,1800.78 835.671,1781.88 
  "/>
<polyline clip-path="url(#clip240)" style="stroke:#000000; stroke-linecap:butt; stroke-linejoin:round; stroke-width:4; stroke-opacity:1; fill:none" points="
  1416.26,1800.78 1416.26,1781.88 
  "/>
<polyline clip-path="url(#clip240)" style="stroke:#000000; stroke-linecap:butt; stroke-linejoin:round; stroke-width:4; stroke-opacity:1; fill:none" points="
  1996.86,1800.78 1996.86,1781.88 
  "/>
<polyline clip-path="url(#clip240)" style="stroke:#000000; stroke-linecap:butt; stroke-linejoin:round; stroke-width:4; stroke-opacity:1; fill:none" points="
  2577.45,1800.78 2577.45,1781.88 
  "/>
<path clip-path="url(#clip240)" d="M217.382 1834 Q213.771 1834 211.942 1837.57 Q210.136 1841.11 210.136 1848.24 Q210.136 1855.34 211.942 1858.91 Q213.771 1862.45 217.382 1862.45 Q221.016 1862.45 222.822 1858.91 Q224.65 1855.34 224.65 1848.24 Q224.65 1841.11 222.822 1837.57 Q221.016 1834 217.382 1834 M217.382 1830.3 Q223.192 1830.3 226.247 1834.9 Q229.326 1839.49 229.326 1848.24 Q229.326 1856.96 226.247 1861.57 Q223.192 1866.15 217.382 1866.15 Q211.572 1866.15 208.493 1861.57 Q205.437 1856.96 205.437 1848.24 Q205.437 1839.49 208.493 1834.9 Q211.572 1830.3 217.382 1830.3 Z" fill="#000000" fill-rule="evenodd" fill-opacity="1" /><path clip-path="url(#clip240)" d="M237.544 1859.6 L242.428 1859.6 L242.428 1865.48 L237.544 1865.48 L237.544 1859.6 Z" fill="#000000" fill-rule="evenodd" fill-opacity="1" /><path clip-path="url(#clip240)" d="M262.613 1834 Q259.002 1834 257.173 1837.57 Q255.368 1841.11 255.368 1848.24 Q255.368 1855.34 257.173 1858.91 Q259.002 1862.45 262.613 1862.45 Q266.247 1862.45 268.053 1858.91 Q269.881 1855.34 269.881 1848.24 Q269.881 1841.11 268.053 1837.57 Q266.247 1834 262.613 1834 M262.613 1830.3 Q268.423 1830.3 271.479 1834.9 Q274.557 1839.49 274.557 1848.24 Q274.557 1856.96 271.479 1861.57 Q268.423 1866.15 262.613 1866.15 Q256.803 1866.15 253.724 1861.57 Q250.669 1856.96 250.669 1848.24 Q250.669 1839.49 253.724 1834.9 Q256.803 1830.3 262.613 1830.3 Z" fill="#000000" fill-rule="evenodd" fill-opacity="1" /><path clip-path="url(#clip240)" d="M292.775 1834 Q289.164 1834 287.335 1837.57 Q285.53 1841.11 285.53 1848.24 Q285.53 1855.34 287.335 1858.91 Q289.164 1862.45 292.775 1862.45 Q296.409 1862.45 298.215 1858.91 Q300.043 1855.34 300.043 1848.24 Q300.043 1841.11 298.215 1837.57 Q296.409 1834 292.775 1834 M292.775 1830.3 Q298.585 1830.3 301.641 1834.9 Q304.719 1839.49 304.719 1848.24 Q304.719 1856.96 301.641 1861.57 Q298.585 1866.15 292.775 1866.15 Q286.965 1866.15 283.886 1861.57 Q280.831 1856.96 280.831 1848.24 Q280.831 1839.49 283.886 1834.9 Q286.965 1830.3 292.775 1830.3 Z" fill="#000000" fill-rule="evenodd" fill-opacity="1" /><path clip-path="url(#clip240)" d="M798.472 1834 Q794.861 1834 793.032 1837.57 Q791.227 1841.11 791.227 1848.24 Q791.227 1855.34 793.032 1858.91 Q794.861 1862.45 798.472 1862.45 Q802.106 1862.45 803.912 1858.91 Q805.741 1855.34 805.741 1848.24 Q805.741 1841.11 803.912 1837.57 Q802.106 1834 798.472 1834 M798.472 1830.3 Q804.282 1830.3 807.338 1834.9 Q810.417 1839.49 810.417 1848.24 Q810.417 1856.96 807.338 1861.57 Q804.282 1866.15 798.472 1866.15 Q792.662 1866.15 789.583 1861.57 Q786.528 1856.96 786.528 1848.24 Q786.528 1839.49 789.583 1834.9 Q792.662 1830.3 798.472 1830.3 Z" fill="#000000" fill-rule="evenodd" fill-opacity="1" /><path clip-path="url(#clip240)" d="M818.634 1859.6 L823.518 1859.6 L823.518 1865.48 L818.634 1865.48 L818.634 1859.6 Z" fill="#000000" fill-rule="evenodd" fill-opacity="1" /><path clip-path="url(#clip240)" d="M837.731 1861.55 L854.051 1861.55 L854.051 1865.48 L832.106 1865.48 L832.106 1861.55 Q834.768 1858.79 839.352 1854.16 Q843.958 1849.51 845.139 1848.17 Q847.384 1845.65 848.264 1843.91 Q849.166 1842.15 849.166 1840.46 Q849.166 1837.71 847.222 1835.97 Q845.301 1834.23 842.199 1834.23 Q840 1834.23 837.546 1835 Q835.115 1835.76 832.338 1837.31 L832.338 1832.59 Q835.162 1831.46 837.615 1830.88 Q840.069 1830.3 842.106 1830.3 Q847.476 1830.3 850.671 1832.98 Q853.865 1835.67 853.865 1840.16 Q853.865 1842.29 853.055 1844.21 Q852.268 1846.11 850.162 1848.7 Q849.583 1849.37 846.481 1852.59 Q843.379 1855.78 837.731 1861.55 Z" fill="#000000" fill-rule="evenodd" fill-opacity="1" /><path clip-path="url(#clip240)" d="M863.912 1830.92 L882.268 1830.92 L882.268 1834.86 L868.194 1834.86 L868.194 1843.33 Q869.212 1842.98 870.231 1842.82 Q871.25 1842.64 872.268 1842.64 Q878.055 1842.64 881.435 1845.81 Q884.814 1848.98 884.814 1854.4 Q884.814 1859.97 881.342 1863.08 Q877.87 1866.15 871.55 1866.15 Q869.375 1866.15 867.106 1865.78 Q864.861 1865.41 862.453 1864.67 L862.453 1859.97 Q864.537 1861.11 866.759 1861.66 Q868.981 1862.22 871.458 1862.22 Q875.462 1862.22 877.8 1860.11 Q880.138 1858.01 880.138 1854.4 Q880.138 1850.78 877.8 1848.68 Q875.462 1846.57 871.458 1846.57 Q869.583 1846.57 867.708 1846.99 Q865.856 1847.4 863.912 1848.28 L863.912 1830.92 Z" fill="#000000" fill-rule="evenodd" fill-opacity="1" /><path clip-path="url(#clip240)" d="M1378.57 1834 Q1374.96 1834 1373.13 1837.57 Q1371.32 1841.11 1371.32 1848.24 Q1371.32 1855.34 1373.13 1858.91 Q1374.96 1862.45 1378.57 1862.45 Q1382.2 1862.45 1384.01 1858.91 Q1385.84 1855.34 1385.84 1848.24 Q1385.84 1841.11 1384.01 1837.57 Q1382.2 1834 1378.57 1834 M1378.57 1830.3 Q1384.38 1830.3 1387.43 1834.9 Q1390.51 1839.49 1390.51 1848.24 Q1390.51 1856.96 1387.43 1861.57 Q1384.38 1866.15 1378.57 1866.15 Q1372.76 1866.15 1369.68 1861.57 Q1366.62 1856.96 1366.62 1848.24 Q1366.62 1839.49 1369.68 1834.9 Q1372.76 1830.3 1378.57 1830.3 Z" fill="#000000" fill-rule="evenodd" fill-opacity="1" /><path clip-path="url(#clip240)" d="M1398.73 1859.6 L1403.61 1859.6 L1403.61 1865.48 L1398.73 1865.48 L1398.73 1859.6 Z" fill="#000000" fill-rule="evenodd" fill-opacity="1" /><path clip-path="url(#clip240)" d="M1413.84 1830.92 L1432.2 1830.92 L1432.2 1834.86 L1418.13 1834.86 L1418.13 1843.33 Q1419.15 1842.98 1420.16 1842.82 Q1421.18 1842.64 1422.2 1842.64 Q1427.99 1842.64 1431.37 1845.81 Q1434.75 1848.98 1434.75 1854.4 Q1434.75 1859.97 1431.28 1863.08 Q1427.8 1866.15 1421.48 1866.15 Q1419.31 1866.15 1417.04 1865.78 Q1414.79 1865.41 1412.39 1864.67 L1412.39 1859.97 Q1414.47 1861.11 1416.69 1861.66 Q1418.91 1862.22 1421.39 1862.22 Q1425.4 1862.22 1427.73 1860.11 Q1430.07 1858.01 1430.07 1854.4 Q1430.07 1850.78 1427.73 1848.68 Q1425.4 1846.57 1421.39 1846.57 Q1419.52 1846.57 1417.64 1846.99 Q1415.79 1847.4 1413.84 1848.28 L1413.84 1830.92 Z" fill="#000000" fill-rule="evenodd" fill-opacity="1" /><path clip-path="url(#clip240)" d="M1453.96 1834 Q1450.35 1834 1448.52 1837.57 Q1446.71 1841.11 1446.71 1848.24 Q1446.71 1855.34 1448.52 1858.91 Q1450.35 1862.45 1453.96 1862.45 Q1457.59 1862.45 1459.4 1858.91 Q1461.23 1855.34 1461.23 1848.24 Q1461.23 1841.11 1459.4 1837.57 Q1457.59 1834 1453.96 1834 M1453.96 1830.3 Q1459.77 1830.3 1462.83 1834.9 Q1465.9 1839.49 1465.9 1848.24 Q1465.9 1856.96 1462.83 1861.57 Q1459.77 1866.15 1453.96 1866.15 Q1448.15 1866.15 1445.07 1861.57 Q1442.02 1856.96 1442.02 1848.24 Q1442.02 1839.49 1445.07 1834.9 Q1448.15 1830.3 1453.96 1830.3 Z" fill="#000000" fill-rule="evenodd" fill-opacity="1" /><path clip-path="url(#clip240)" d="M1959.66 1834 Q1956.05 1834 1954.22 1837.57 Q1952.41 1841.11 1952.41 1848.24 Q1952.41 1855.34 1954.22 1858.91 Q1956.05 1862.45 1959.66 1862.45 Q1963.29 1862.45 1965.1 1858.91 Q1966.93 1855.34 1966.93 1848.24 Q1966.93 1841.11 1965.1 1837.57 Q1963.29 1834 1959.66 1834 M1959.66 1830.3 Q1965.47 1830.3 1968.52 1834.9 Q1971.6 1839.49 1971.6 1848.24 Q1971.6 1856.96 1968.52 1861.57 Q1965.47 1866.15 1959.66 1866.15 Q1953.85 1866.15 1950.77 1861.57 Q1947.71 1856.96 1947.71 1848.24 Q1947.71 1839.49 1950.77 1834.9 Q1953.85 1830.3 1959.66 1830.3 Z" fill="#000000" fill-rule="evenodd" fill-opacity="1" /><path clip-path="url(#clip240)" d="M1979.82 1859.6 L1984.7 1859.6 L1984.7 1865.48 L1979.82 1865.48 L1979.82 1859.6 Z" fill="#000000" fill-rule="evenodd" fill-opacity="1" /><path clip-path="url(#clip240)" d="M1993.71 1830.92 L2015.93 1830.92 L2015.93 1832.91 L2003.38 1865.48 L1998.5 1865.48 L2010.31 1834.86 L1993.71 1834.86 L1993.71 1830.92 Z" fill="#000000" fill-rule="evenodd" fill-opacity="1" /><path clip-path="url(#clip240)" d="M2025.1 1830.92 L2043.45 1830.92 L2043.45 1834.86 L2029.38 1834.86 L2029.38 1843.33 Q2030.4 1842.98 2031.42 1842.82 Q2032.43 1842.64 2033.45 1842.64 Q2039.24 1842.64 2042.62 1845.81 Q2046 1848.98 2046 1854.4 Q2046 1859.97 2042.53 1863.08 Q2039.06 1866.15 2032.74 1866.15 Q2030.56 1866.15 2028.29 1865.78 Q2026.05 1865.41 2023.64 1864.67 L2023.64 1859.97 Q2025.72 1861.11 2027.94 1861.66 Q2030.17 1862.22 2032.64 1862.22 Q2036.65 1862.22 2038.99 1860.11 Q2041.32 1858.01 2041.32 1854.4 Q2041.32 1850.78 2038.99 1848.68 Q2036.65 1846.57 2032.64 1846.57 Q2030.77 1846.57 2028.89 1846.99 Q2027.04 1847.4 2025.1 1848.28 L2025.1 1830.92 Z" fill="#000000" fill-rule="evenodd" fill-opacity="1" /><path clip-path="url(#clip240)" d="M2529.52 1861.55 L2537.16 1861.55 L2537.16 1835.18 L2528.85 1836.85 L2528.85 1832.59 L2537.11 1830.92 L2541.79 1830.92 L2541.79 1861.55 L2549.43 1861.55 L2549.43 1865.48 L2529.52 1865.48 L2529.52 1861.55 Z" fill="#000000" fill-rule="evenodd" fill-opacity="1" /><path clip-path="url(#clip240)" d="M2558.87 1859.6 L2563.76 1859.6 L2563.76 1865.48 L2558.87 1865.48 L2558.87 1859.6 Z" fill="#000000" fill-rule="evenodd" fill-opacity="1" /><path clip-path="url(#clip240)" d="M2583.94 1834 Q2580.33 1834 2578.5 1837.57 Q2576.7 1841.11 2576.7 1848.24 Q2576.7 1855.34 2578.5 1858.91 Q2580.33 1862.45 2583.94 1862.45 Q2587.58 1862.45 2589.38 1858.91 Q2591.21 1855.34 2591.21 1848.24 Q2591.21 1841.11 2589.38 1837.57 Q2587.58 1834 2583.94 1834 M2583.94 1830.3 Q2589.75 1830.3 2592.81 1834.9 Q2595.89 1839.49 2595.89 1848.24 Q2595.89 1856.96 2592.81 1861.57 Q2589.75 1866.15 2583.94 1866.15 Q2578.13 1866.15 2575.05 1861.57 Q2572 1856.96 2572 1848.24 Q2572 1839.49 2575.05 1834.9 Q2578.13 1830.3 2583.94 1830.3 Z" fill="#000000" fill-rule="evenodd" fill-opacity="1" /><path clip-path="url(#clip240)" d="M2614.1 1834 Q2610.49 1834 2608.66 1837.57 Q2606.86 1841.11 2606.86 1848.24 Q2606.86 1855.34 2608.66 1858.91 Q2610.49 1862.45 2614.1 1862.45 Q2617.74 1862.45 2619.54 1858.91 Q2621.37 1855.34 2621.37 1848.24 Q2621.37 1841.11 2619.54 1837.57 Q2617.74 1834 2614.1 1834 M2614.1 1830.3 Q2619.91 1830.3 2622.97 1834.9 Q2626.05 1839.49 2626.05 1848.24 Q2626.05 1856.96 2622.97 1861.57 Q2619.91 1866.15 2614.1 1866.15 Q2608.29 1866.15 2605.22 1861.57 Q2602.16 1856.96 2602.16 1848.24 Q2602.16 1839.49 2605.22 1834.9 Q2608.29 1830.3 2614.1 1830.3 Z" fill="#000000" fill-rule="evenodd" fill-opacity="1" /><polyline clip-path="url(#clip242)" style="stroke:#000000; stroke-linecap:butt; stroke-linejoin:round; stroke-width:2; stroke-opacity:0.1; fill:none" points="
  189.154,1780.35 2640.76,1780.35 
  "/>
<polyline clip-path="url(#clip242)" style="stroke:#000000; stroke-linecap:butt; stroke-linejoin:round; stroke-width:2; stroke-opacity:0.1; fill:none" points="
  189.154,1358.76 2640.76,1358.76 
  "/>
<polyline clip-path="url(#clip242)" style="stroke:#000000; stroke-linecap:butt; stroke-linejoin:round; stroke-width:2; stroke-opacity:0.1; fill:none" points="
  189.154,937.166 2640.76,937.166 
  "/>
<polyline clip-path="url(#clip242)" style="stroke:#000000; stroke-linecap:butt; stroke-linejoin:round; stroke-width:2; stroke-opacity:0.1; fill:none" points="
  189.154,515.571 2640.76,515.571 
  "/>
<polyline clip-path="url(#clip242)" style="stroke:#000000; stroke-linecap:butt; stroke-linejoin:round; stroke-width:2; stroke-opacity:0.1; fill:none" points="
  189.154,93.9767 2640.76,93.9767 
  "/>
<polyline clip-path="url(#clip240)" style="stroke:#000000; stroke-linecap:butt; stroke-linejoin:round; stroke-width:4; stroke-opacity:1; fill:none" points="
  189.154,1800.78 189.154,47.2441 
  "/>
<polyline clip-path="url(#clip240)" style="stroke:#000000; stroke-linecap:butt; stroke-linejoin:round; stroke-width:4; stroke-opacity:1; fill:none" points="
  189.154,1780.35 208.052,1780.35 
  "/>
<polyline clip-path="url(#clip240)" style="stroke:#000000; stroke-linecap:butt; stroke-linejoin:round; stroke-width:4; stroke-opacity:1; fill:none" points="
  189.154,1358.76 208.052,1358.76 
  "/>
<polyline clip-path="url(#clip240)" style="stroke:#000000; stroke-linecap:butt; stroke-linejoin:round; stroke-width:4; stroke-opacity:1; fill:none" points="
  189.154,937.166 208.052,937.166 
  "/>
<polyline clip-path="url(#clip240)" style="stroke:#000000; stroke-linecap:butt; stroke-linejoin:round; stroke-width:4; stroke-opacity:1; fill:none" points="
  189.154,515.571 208.052,515.571 
  "/>
<polyline clip-path="url(#clip240)" style="stroke:#000000; stroke-linecap:butt; stroke-linejoin:round; stroke-width:4; stroke-opacity:1; fill:none" points="
  189.154,93.9767 208.052,93.9767 
  "/>
<path clip-path="url(#clip240)" d="M61.4965 1766.15 Q57.8854 1766.15 56.0567 1769.72 Q54.2512 1773.26 54.2512 1780.39 Q54.2512 1787.5 56.0567 1791.06 Q57.8854 1794.6 61.4965 1794.6 Q65.1307 1794.6 66.9363 1791.06 Q68.765 1787.5 68.765 1780.39 Q68.765 1773.26 66.9363 1769.72 Q65.1307 1766.15 61.4965 1766.15 M61.4965 1762.45 Q67.3067 1762.45 70.3622 1767.06 Q73.4409 1771.64 73.4409 1780.39 Q73.4409 1789.12 70.3622 1793.72 Q67.3067 1798.31 61.4965 1798.31 Q55.6864 1798.31 52.6077 1793.72 Q49.5521 1789.12 49.5521 1780.39 Q49.5521 1771.64 52.6077 1767.06 Q55.6864 1762.45 61.4965 1762.45 Z" fill="#000000" fill-rule="evenodd" fill-opacity="1" /><path clip-path="url(#clip240)" d="M81.6584 1791.76 L86.5427 1791.76 L86.5427 1797.63 L81.6584 1797.63 L81.6584 1791.76 Z" fill="#000000" fill-rule="evenodd" fill-opacity="1" /><path clip-path="url(#clip240)" d="M106.728 1766.15 Q103.117 1766.15 101.288 1769.72 Q99.4824 1773.26 99.4824 1780.39 Q99.4824 1787.5 101.288 1791.06 Q103.117 1794.6 106.728 1794.6 Q110.362 1794.6 112.168 1791.06 Q113.996 1787.5 113.996 1780.39 Q113.996 1773.26 112.168 1769.72 Q110.362 1766.15 106.728 1766.15 M106.728 1762.45 Q112.538 1762.45 115.593 1767.06 Q118.672 1771.64 118.672 1780.39 Q118.672 1789.12 115.593 1793.72 Q112.538 1798.31 106.728 1798.31 Q100.918 1798.31 97.8389 1793.72 Q94.7834 1789.12 94.7834 1780.39 Q94.7834 1771.64 97.8389 1767.06 Q100.918 1762.45 106.728 1762.45 Z" fill="#000000" fill-rule="evenodd" fill-opacity="1" /><path clip-path="url(#clip240)" d="M136.89 1766.15 Q133.279 1766.15 131.45 1769.72 Q129.644 1773.26 129.644 1780.39 Q129.644 1787.5 131.45 1791.06 Q133.279 1794.6 136.89 1794.6 Q140.524 1794.6 142.329 1791.06 Q144.158 1787.5 144.158 1780.39 Q144.158 1773.26 142.329 1769.72 Q140.524 1766.15 136.89 1766.15 M136.89 1762.45 Q142.7 1762.45 145.755 1767.06 Q148.834 1771.64 148.834 1780.39 Q148.834 1789.12 145.755 1793.72 Q142.7 1798.31 136.89 1798.31 Q131.079 1798.31 128.001 1793.72 Q124.945 1789.12 124.945 1780.39 Q124.945 1771.64 128.001 1767.06 Q131.079 1762.45 136.89 1762.45 Z" fill="#000000" fill-rule="evenodd" fill-opacity="1" /><path clip-path="url(#clip240)" d="M62.4919 1344.56 Q58.8808 1344.56 57.0521 1348.12 Q55.2465 1351.67 55.2465 1358.8 Q55.2465 1365.9 57.0521 1369.47 Q58.8808 1373.01 62.4919 1373.01 Q66.1261 1373.01 67.9317 1369.47 Q69.7604 1365.9 69.7604 1358.8 Q69.7604 1351.67 67.9317 1348.12 Q66.1261 1344.56 62.4919 1344.56 M62.4919 1340.86 Q68.302 1340.86 71.3576 1345.46 Q74.4363 1350.05 74.4363 1358.8 Q74.4363 1367.52 71.3576 1372.13 Q68.302 1376.71 62.4919 1376.71 Q56.6817 1376.71 53.603 1372.13 Q50.5475 1367.52 50.5475 1358.8 Q50.5475 1350.05 53.603 1345.46 Q56.6817 1340.86 62.4919 1340.86 Z" fill="#000000" fill-rule="evenodd" fill-opacity="1" /><path clip-path="url(#clip240)" d="M82.6538 1370.16 L87.538 1370.16 L87.538 1376.04 L82.6538 1376.04 L82.6538 1370.16 Z" fill="#000000" fill-rule="evenodd" fill-opacity="1" /><path clip-path="url(#clip240)" d="M101.751 1372.11 L118.07 1372.11 L118.07 1376.04 L96.126 1376.04 L96.126 1372.11 Q98.788 1369.35 103.371 1364.72 Q107.978 1360.07 109.158 1358.73 Q111.404 1356.2 112.283 1354.47 Q113.186 1352.71 113.186 1351.02 Q113.186 1348.26 111.242 1346.53 Q109.32 1344.79 106.218 1344.79 Q104.019 1344.79 101.566 1345.55 Q99.1352 1346.32 96.3574 1347.87 L96.3574 1343.15 Q99.1815 1342.01 101.635 1341.43 Q104.089 1340.86 106.126 1340.86 Q111.496 1340.86 114.691 1343.54 Q117.885 1346.23 117.885 1350.72 Q117.885 1352.85 117.075 1354.77 Q116.288 1356.67 114.181 1359.26 Q113.603 1359.93 110.501 1363.15 Q107.399 1366.34 101.751 1372.11 Z" fill="#000000" fill-rule="evenodd" fill-opacity="1" /><path clip-path="url(#clip240)" d="M127.931 1341.48 L146.288 1341.48 L146.288 1345.42 L132.214 1345.42 L132.214 1353.89 Q133.232 1353.54 134.251 1353.38 Q135.269 1353.19 136.288 1353.19 Q142.075 1353.19 145.454 1356.36 Q148.834 1359.54 148.834 1364.95 Q148.834 1370.53 145.362 1373.63 Q141.89 1376.71 135.57 1376.71 Q133.394 1376.71 131.126 1376.34 Q128.88 1375.97 126.473 1375.23 L126.473 1370.53 Q128.556 1371.67 130.779 1372.22 Q133.001 1372.78 135.478 1372.78 Q139.482 1372.78 141.82 1370.67 Q144.158 1368.56 144.158 1364.95 Q144.158 1361.34 141.82 1359.23 Q139.482 1357.13 135.478 1357.13 Q133.603 1357.13 131.728 1357.55 Q129.876 1357.96 127.931 1358.84 L127.931 1341.48 Z" fill="#000000" fill-rule="evenodd" fill-opacity="1" /><path clip-path="url(#clip240)" d="M61.4965 922.965 Q57.8854 922.965 56.0567 926.529 Q54.2512 930.071 54.2512 937.201 Q54.2512 944.307 56.0567 947.872 Q57.8854 951.413 61.4965 951.413 Q65.1307 951.413 66.9363 947.872 Q68.765 944.307 68.765 937.201 Q68.765 930.071 66.9363 926.529 Q65.1307 922.965 61.4965 922.965 M61.4965 919.261 Q67.3067 919.261 70.3622 923.867 Q73.4409 928.451 73.4409 937.201 Q73.4409 945.927 70.3622 950.534 Q67.3067 955.117 61.4965 955.117 Q55.6864 955.117 52.6077 950.534 Q49.5521 945.927 49.5521 937.201 Q49.5521 928.451 52.6077 923.867 Q55.6864 919.261 61.4965 919.261 Z" fill="#000000" fill-rule="evenodd" fill-opacity="1" /><path clip-path="url(#clip240)" d="M81.6584 948.566 L86.5427 948.566 L86.5427 954.446 L81.6584 954.446 L81.6584 948.566 Z" fill="#000000" fill-rule="evenodd" fill-opacity="1" /><path clip-path="url(#clip240)" d="M96.7741 919.886 L115.13 919.886 L115.13 923.821 L101.056 923.821 L101.056 932.293 Q102.075 931.946 103.094 931.784 Q104.112 931.599 105.131 931.599 Q110.918 931.599 114.297 934.77 Q117.677 937.941 117.677 943.358 Q117.677 948.937 114.205 952.038 Q110.732 955.117 104.413 955.117 Q102.237 955.117 99.9685 954.747 Q97.7232 954.376 95.3158 953.636 L95.3158 948.937 Q97.3991 950.071 99.6213 950.626 Q101.844 951.182 104.32 951.182 Q108.325 951.182 110.663 949.075 Q113.001 946.969 113.001 943.358 Q113.001 939.747 110.663 937.64 Q108.325 935.534 104.32 935.534 Q102.445 935.534 100.57 935.951 Q98.7185 936.367 96.7741 937.247 L96.7741 919.886 Z" fill="#000000" fill-rule="evenodd" fill-opacity="1" /><path clip-path="url(#clip240)" d="M136.89 922.965 Q133.279 922.965 131.45 926.529 Q129.644 930.071 129.644 937.201 Q129.644 944.307 131.45 947.872 Q133.279 951.413 136.89 951.413 Q140.524 951.413 142.329 947.872 Q144.158 944.307 144.158 937.201 Q144.158 930.071 142.329 926.529 Q140.524 922.965 136.89 922.965 M136.89 919.261 Q142.7 919.261 145.755 923.867 Q148.834 928.451 148.834 937.201 Q148.834 945.927 145.755 950.534 Q142.7 955.117 136.89 955.117 Q131.079 955.117 128.001 950.534 Q124.945 945.927 124.945 937.201 Q124.945 928.451 128.001 923.867 Q131.079 919.261 136.89 919.261 Z" fill="#000000" fill-rule="evenodd" fill-opacity="1" /><path clip-path="url(#clip240)" d="M62.4919 501.37 Q58.8808 501.37 57.0521 504.935 Q55.2465 508.476 55.2465 515.606 Q55.2465 522.712 57.0521 526.277 Q58.8808 529.819 62.4919 529.819 Q66.1261 529.819 67.9317 526.277 Q69.7604 522.712 69.7604 515.606 Q69.7604 508.476 67.9317 504.935 Q66.1261 501.37 62.4919 501.37 M62.4919 497.666 Q68.302 497.666 71.3576 502.273 Q74.4363 506.856 74.4363 515.606 Q74.4363 524.333 71.3576 528.939 Q68.302 533.523 62.4919 533.523 Q56.6817 533.523 53.603 528.939 Q50.5475 524.333 50.5475 515.606 Q50.5475 506.856 53.603 502.273 Q56.6817 497.666 62.4919 497.666 Z" fill="#000000" fill-rule="evenodd" fill-opacity="1" /><path clip-path="url(#clip240)" d="M82.6538 526.972 L87.538 526.972 L87.538 532.851 L82.6538 532.851 L82.6538 526.972 Z" fill="#000000" fill-rule="evenodd" fill-opacity="1" /><path clip-path="url(#clip240)" d="M96.5426 498.291 L118.765 498.291 L118.765 500.282 L106.218 532.851 L101.334 532.851 L113.14 502.226 L96.5426 502.226 L96.5426 498.291 Z" fill="#000000" fill-rule="evenodd" fill-opacity="1" /><path clip-path="url(#clip240)" d="M127.931 498.291 L146.288 498.291 L146.288 502.226 L132.214 502.226 L132.214 510.699 Q133.232 510.351 134.251 510.189 Q135.269 510.004 136.288 510.004 Q142.075 510.004 145.454 513.175 Q148.834 516.347 148.834 521.763 Q148.834 527.342 145.362 530.444 Q141.89 533.523 135.57 533.523 Q133.394 533.523 131.126 533.152 Q128.88 532.782 126.473 532.041 L126.473 527.342 Q128.556 528.476 130.779 529.032 Q133.001 529.587 135.478 529.587 Q139.482 529.587 141.82 527.481 Q144.158 525.374 144.158 521.763 Q144.158 518.152 141.82 516.046 Q139.482 513.939 135.478 513.939 Q133.603 513.939 131.728 514.356 Q129.876 514.773 127.931 515.652 L127.931 498.291 Z" fill="#000000" fill-rule="evenodd" fill-opacity="1" /><path clip-path="url(#clip240)" d="M52.3067 107.322 L59.9456 107.322 L59.9456 80.956 L51.6354 82.6226 L51.6354 78.3634 L59.8993 76.6967 L64.5752 76.6967 L64.5752 107.322 L72.214 107.322 L72.214 111.257 L52.3067 111.257 L52.3067 107.322 Z" fill="#000000" fill-rule="evenodd" fill-opacity="1" /><path clip-path="url(#clip240)" d="M81.6584 105.377 L86.5427 105.377 L86.5427 111.257 L81.6584 111.257 L81.6584 105.377 Z" fill="#000000" fill-rule="evenodd" fill-opacity="1" /><path clip-path="url(#clip240)" d="M106.728 79.7754 Q103.117 79.7754 101.288 83.3402 Q99.4824 86.8819 99.4824 94.0115 Q99.4824 101.118 101.288 104.683 Q103.117 108.224 106.728 108.224 Q110.362 108.224 112.168 104.683 Q113.996 101.118 113.996 94.0115 Q113.996 86.8819 112.168 83.3402 Q110.362 79.7754 106.728 79.7754 M106.728 76.0718 Q112.538 76.0718 115.593 80.6782 Q118.672 85.2615 118.672 94.0115 Q118.672 102.738 115.593 107.345 Q112.538 111.928 106.728 111.928 Q100.918 111.928 97.8389 107.345 Q94.7834 102.738 94.7834 94.0115 Q94.7834 85.2615 97.8389 80.6782 Q100.918 76.0718 106.728 76.0718 Z" fill="#000000" fill-rule="evenodd" fill-opacity="1" /><path clip-path="url(#clip240)" d="M136.89 79.7754 Q133.279 79.7754 131.45 83.3402 Q129.644 86.8819 129.644 94.0115 Q129.644 101.118 131.45 104.683 Q133.279 108.224 136.89 108.224 Q140.524 108.224 142.329 104.683 Q144.158 101.118 144.158 94.0115 Q144.158 86.8819 142.329 83.3402 Q140.524 79.7754 136.89 79.7754 M136.89 76.0718 Q142.7 76.0718 145.755 80.6782 Q148.834 85.2615 148.834 94.0115 Q148.834 102.738 145.755 107.345 Q142.7 111.928 136.89 111.928 Q131.079 111.928 128.001 107.345 Q124.945 102.738 124.945 94.0115 Q124.945 85.2615 128.001 80.6782 Q131.079 76.0718 136.89 76.0718 Z" fill="#000000" fill-rule="evenodd" fill-opacity="1" /><polyline clip-path="url(#clip242)" style="stroke:#009af9; stroke-linecap:butt; stroke-linejoin:round; stroke-width:4; stroke-opacity:1; fill:none" points="
  1914.66,120.929 1088.85,1751.15 2448.47,915.796 1228.76,170.024 644.178,1355.1 672.557,967.197 1486.69,1056.02 2161.67,1250.9 1214.22,223.004 2237.69,926.615 
  2211.07,713.34 1293.23,1041.32 1141.83,356.986 551.243,1543.42 1721.26,1192.85 999.493,1471.7 771.862,104.998 2483.66,593.778 1851.8,1060.9 1689.49,707.949 
  1059.58,703.67 1363.3,737.066 260.55,839.561 2124.12,1011.01 507.779,1561.07 664.028,760.899 677.598,287.27 895.897,1704.43 597.042,855.849 1498.72,1443.43 
  1329.35,678.545 1275.76,977.006 304.185,382.317 865.446,1338.6 792.39,1472.54 2177.97,501.008 1743.46,1685.72 2571.37,661.804 2400.01,1183.79 2058.4,288.338 
  1987,1510.07 2379.06,485.99 1449.74,219.283 1230.54,1635.22 507.494,493.037 1109.78,402.911 2548.93,1495.79 1806.85,129.577 2526.24,616.02 756.088,1339.08 
  963.275,1097.72 2521.06,1117.83 355.738,1476.44 2405.02,526.782 760.764,1461.9 1100.56,1344.05 640.027,507.868 1036.91,362.479 1310.95,705.949 2345.45,1062.5 
  1349.43,305.105 1462.63,301.812 2446.47,826.469 1853.06,1206.21 905.17,576.963 701.648,344.392 2154.11,1425.68 412.257,825.603 1216.25,155.137 1100.55,1593.85 
  1393.93,773.3 1205.01,993.64 289.289,1043.43 732.5,513.875 733.744,475.831 1883.6,268.815 510.337,703.713 852.944,1593.09 1893.24,630.736 274.154,1528.61 
  1911.95,258.119 1306.39,1278.25 1002.88,225.396 837.953,1139.27 839.449,1330.09 366.889,895.417 470.651,400.943 822.403,888.069 700,1430.2 2424.45,1436.75 
  2007.99,302.012 258.539,96.8724 1389.01,1166.59 586.827,560.039 2291.99,501.875 577.589,458.87 1692.86,138.829 771.235,1676.64 1973.55,235.065 531.854,204.012 
  
  "/>
<path clip-path="url(#clip240)" d="
M2261.45 209.375 L2559.04 209.375 L2559.04 105.695 L2261.45 105.695  Z
  " fill="#ffffff" fill-rule="evenodd" fill-opacity="1"/>
<polyline clip-path="url(#clip240)" style="stroke:#000000; stroke-linecap:butt; stroke-linejoin:round; stroke-width:4; stroke-opacity:1; fill:none" points="
  2261.45,209.375 2559.04,209.375 2559.04,105.695 2261.45,105.695 2261.45,209.375 
  "/>
<polyline clip-path="url(#clip240)" style="stroke:#009af9; stroke-linecap:butt; stroke-linejoin:round; stroke-width:4; stroke-opacity:1; fill:none" points="
  2288.69,157.535 2452.13,157.535 
  "/>
<path clip-path="url(#clip240)" d="M2493.21 177.223 Q2491.4 181.852 2489.69 183.264 Q2487.98 184.676 2485.11 184.676 L2481.7 184.676 L2481.7 181.112 L2484.2 181.112 Q2485.96 181.112 2486.93 180.278 Q2487.91 179.445 2489.09 176.343 L2489.85 174.399 L2479.37 148.889 L2483.88 148.889 L2491.98 169.167 L2500.08 148.889 L2504.6 148.889 L2493.21 177.223 Z" fill="#000000" fill-rule="evenodd" fill-opacity="1" /><path clip-path="url(#clip240)" d="M2511.89 170.88 L2519.53 170.88 L2519.53 144.515 L2511.22 146.181 L2511.22 141.922 L2519.48 140.255 L2524.16 140.255 L2524.16 170.88 L2531.8 170.88 L2531.8 174.815 L2511.89 174.815 L2511.89 170.88 Z" fill="#000000" fill-rule="evenodd" fill-opacity="1" /></svg>
