<?xml version="1.0" encoding="utf-8"?>
<svg xmlns="http://www.w3.org/2000/svg" xmlns:xlink="http://www.w3.org/1999/xlink" width="672" height="480" viewBox="0 0 2688 1920">
<defs>
  <clipPath id="clip150">
    <rect x="0" y="0" width="2688" height="1920"/>
  </clipPath>
</defs>
<path clip-path="url(#clip150)" d="
M0 1920 L2688 1920 L2688 0 L0 0  Z
  " fill="#ffffff" fill-rule="evenodd" fill-opacity="1"/>
<defs>
  <clipPath id="clip151">
    <rect x="537" y="0" width="1883" height="1883"/>
  </clipPath>
</defs>
<path clip-path="url(#clip150)" d="
M189.154 1800.78 L2640.76 1800.78 L2640.76 47.2441 L189.154 47.2441  Z
  " fill="#ffffff" fill-rule="evenodd" fill-opacity="1"/>
<defs>
  <clipPath id="clip152">
    <rect x="189" y="47" width="2453" height="1755"/>
  </clipPath>
</defs>
<polyline clip-path="url(#clip152)" style="stroke:#000000; stroke-linecap:butt; stroke-linejoin:round; stroke-width:2; stroke-opacity:0.1; fill:none" points="
  256.603,1800.78 256.603,47.2441 
  "/>
<polyline clip-path="url(#clip152)" style="stroke:#000000; stroke-linecap:butt; stroke-linejoin:round; stroke-width:2; stroke-opacity:0.1; fill:none" points="
  837.213,1800.78 837.213,47.2441 
  "/>
<polyline clip-path="url(#clip152)" style="stroke:#000000; stroke-linecap:butt; stroke-linejoin:round; stroke-width:2; stroke-opacity:0.1; fill:none" points="
  1417.82,1800.78 1417.82,47.2441 
  "/>
<polyline clip-path="url(#clip152)" style="stroke:#000000; stroke-linecap:butt; stroke-linejoin:round; stroke-width:2; stroke-opacity:0.1; fill:none" points="
  1998.43,1800.78 1998.43,47.2441 
  "/>
<polyline clip-path="url(#clip152)" style="stroke:#000000; stroke-linecap:butt; stroke-linejoin:round; stroke-width:2; stroke-opacity:0.1; fill:none" points="
  2579.04,1800.78 2579.04,47.2441 
  "/>
<polyline clip-path="url(#clip150)" style="stroke:#000000; stroke-linecap:butt; stroke-linejoin:round; stroke-width:4; stroke-opacity:1; fill:none" points="
  189.154,1800.78 2640.76,1800.78 
  "/>
<polyline clip-path="url(#clip150)" style="stroke:#000000; stroke-linecap:butt; stroke-linejoin:round; stroke-width:4; stroke-opacity:1; fill:none" points="
  256.603,1800.78 256.603,1781.88 
  "/>
<polyline clip-path="url(#clip150)" style="stroke:#000000; stroke-linecap:butt; stroke-linejoin:round; stroke-width:4; stroke-opacity:1; fill:none" points="
  837.213,1800.78 837.213,1781.88 
  "/>
<polyline clip-path="url(#clip150)" style="stroke:#000000; stroke-linecap:butt; stroke-linejoin:round; stroke-width:4; stroke-opacity:1; fill:none" points="
  1417.82,1800.78 1417.82,1781.88 
  "/>
<polyline clip-path="url(#clip150)" style="stroke:#000000; stroke-linecap:butt; stroke-linejoin:round; stroke-width:4; stroke-opacity:1; fill:none" points="
  1998.43,1800.78 1998.43,1781.88 
  "/>
<polyline clip-path="url(#clip150)" style="stroke:#000000; stroke-linecap:butt; stroke-linejoin:round; stroke-width:4; stroke-opacity:1; fill:none" points="
  2579.04,1800.78 2579.04,1781.88 
  "/>
<path clip-path="url(#clip150)" d="M218.906 1834 Q215.295 1834 213.466 1837.57 Q211.661 1841.11 211.661 1848.24 Q211.661 1855.34 213.466 1858.91 Q215.295 1862.45 218.906 1862.45 Q222.541 1862.45 224.346 1858.91 Q226.175 1855.34 226.175 1848.24 Q226.175 1841.11 224.346 1837.57 Q222.541 1834 218.906 1834 M218.906 1830.3 Q224.716 1830.3 227.772 1834.9 Q230.851 1839.49 230.851 1848.24 Q230.851 1856.96 227.772 1861.57 Q224.716 1866.15 218.906 1866.15 Q213.096 1866.15 210.017 1861.57 Q206.962 1856.96 206.962 1848.24 Q206.962 1839.49 210.017 1834.9 Q213.096 1830.3 218.906 1830.3 Z" fill="#000000" fill-rule="evenodd" fill-opacity="1" /><path clip-path="url(#clip150)" d="M239.068 1859.6 L243.952 1859.6 L243.952 1865.48 L239.068 1865.48 L239.068 1859.6 Z" fill="#000000" fill-rule="evenodd" fill-opacity="1" /><path clip-path="url(#clip150)" d="M264.138 1834 Q260.526 1834 258.698 1837.57 Q256.892 1841.11 256.892 1848.24 Q256.892 1855.34 258.698 1858.91 Q260.526 1862.45 264.138 1862.45 Q267.772 1862.45 269.577 1858.91 Q271.406 1855.34 271.406 1848.24 Q271.406 1841.11 269.577 1837.57 Q267.772 1834 264.138 1834 M264.138 1830.3 Q269.948 1830.3 273.003 1834.9 Q276.082 1839.49 276.082 1848.24 Q276.082 1856.96 273.003 1861.57 Q269.948 1866.15 264.138 1866.15 Q258.327 1866.15 255.249 1861.57 Q252.193 1856.96 252.193 1848.24 Q252.193 1839.49 255.249 1834.9 Q258.327 1830.3 264.138 1830.3 Z" fill="#000000" fill-rule="evenodd" fill-opacity="1" /><path clip-path="url(#clip150)" d="M294.299 1834 Q290.688 1834 288.86 1837.57 Q287.054 1841.11 287.054 1848.24 Q287.054 1855.34 288.86 1858.91 Q290.688 1862.45 294.299 1862.45 Q297.934 1862.45 299.739 1858.91 Q301.568 1855.34 301.568 1848.24 Q301.568 1841.11 299.739 1837.57 Q297.934 1834 294.299 1834 M294.299 1830.3 Q300.11 1830.3 303.165 1834.9 Q306.244 1839.49 306.244 1848.24 Q306.244 1856.96 303.165 1861.57 Q300.11 1866.15 294.299 1866.15 Q288.489 1866.15 285.411 1861.57 Q282.355 1856.96 282.355 1848.24 Q282.355 1839.49 285.411 1834.9 Q288.489 1830.3 294.299 1830.3 Z" fill="#000000" fill-rule="evenodd" fill-opacity="1" /><path clip-path="url(#clip150)" d="M800.014 1834 Q796.403 1834 794.574 1837.57 Q792.769 1841.11 792.769 1848.24 Q792.769 1855.34 794.574 1858.91 Q796.403 1862.45 800.014 1862.45 Q803.648 1862.45 805.454 1858.91 Q807.282 1855.34 807.282 1848.24 Q807.282 1841.11 805.454 1837.57 Q803.648 1834 800.014 1834 M800.014 1830.3 Q805.824 1830.3 808.88 1834.9 Q811.958 1839.49 811.958 1848.24 Q811.958 1856.96 808.88 1861.57 Q805.824 1866.15 800.014 1866.15 Q794.204 1866.15 791.125 1861.57 Q788.07 1856.96 788.07 1848.24 Q788.07 1839.49 791.125 1834.9 Q794.204 1830.3 800.014 1830.3 Z" fill="#000000" fill-rule="evenodd" fill-opacity="1" /><path clip-path="url(#clip150)" d="M820.176 1859.6 L825.06 1859.6 L825.06 1865.48 L820.176 1865.48 L820.176 1859.6 Z" fill="#000000" fill-rule="evenodd" fill-opacity="1" /><path clip-path="url(#clip150)" d="M839.273 1861.55 L855.592 1861.55 L855.592 1865.48 L833.648 1865.48 L833.648 1861.55 Q836.31 1858.79 840.893 1854.16 Q845.5 1849.51 846.68 1848.17 Q848.926 1845.65 849.805 1843.91 Q850.708 1842.15 850.708 1840.46 Q850.708 1837.71 848.764 1835.97 Q846.842 1834.23 843.741 1834.23 Q841.541 1834.23 839.088 1835 Q836.657 1835.76 833.879 1837.31 L833.879 1832.59 Q836.704 1831.46 839.157 1830.88 Q841.611 1830.3 843.648 1830.3 Q849.018 1830.3 852.213 1832.98 Q855.407 1835.67 855.407 1840.16 Q855.407 1842.29 854.597 1844.21 Q853.81 1846.11 851.703 1848.7 Q851.125 1849.37 848.023 1852.59 Q844.921 1855.78 839.273 1861.55 Z" fill="#000000" fill-rule="evenodd" fill-opacity="1" /><path clip-path="url(#clip150)" d="M865.453 1830.92 L883.81 1830.92 L883.81 1834.86 L869.736 1834.86 L869.736 1843.33 Q870.754 1842.98 871.773 1842.82 Q872.791 1842.64 873.81 1842.64 Q879.597 1842.64 882.976 1845.81 Q886.356 1848.98 886.356 1854.4 Q886.356 1859.97 882.884 1863.08 Q879.412 1866.15 873.092 1866.15 Q870.916 1866.15 868.648 1865.78 Q866.402 1865.41 863.995 1864.67 L863.995 1859.97 Q866.078 1861.11 868.301 1861.66 Q870.523 1862.22 873 1862.22 Q877.004 1862.22 879.342 1860.11 Q881.68 1858.01 881.68 1854.4 Q881.68 1850.78 879.342 1848.68 Q877.004 1846.57 873 1846.57 Q871.125 1846.57 869.25 1846.99 Q867.398 1847.4 865.453 1848.28 L865.453 1830.92 Z" fill="#000000" fill-rule="evenodd" fill-opacity="1" /><path clip-path="url(#clip150)" d="M1380.13 1834 Q1376.52 1834 1374.69 1837.57 Q1372.88 1841.11 1372.88 1848.24 Q1372.88 1855.34 1374.69 1858.91 Q1376.52 1862.45 1380.13 1862.45 Q1383.76 1862.45 1385.57 1858.91 Q1387.39 1855.34 1387.39 1848.24 Q1387.39 1841.11 1385.57 1837.57 Q1383.76 1834 1380.13 1834 M1380.13 1830.3 Q1385.94 1830.3 1388.99 1834.9 Q1392.07 1839.49 1392.07 1848.24 Q1392.07 1856.96 1388.99 1861.57 Q1385.94 1866.15 1380.13 1866.15 Q1374.32 1866.15 1371.24 1861.57 Q1368.18 1856.96 1368.18 1848.24 Q1368.18 1839.49 1371.24 1834.9 Q1374.32 1830.3 1380.13 1830.3 Z" fill="#000000" fill-rule="evenodd" fill-opacity="1" /><path clip-path="url(#clip150)" d="M1400.29 1859.6 L1405.17 1859.6 L1405.17 1865.48 L1400.29 1865.48 L1400.29 1859.6 Z" fill="#000000" fill-rule="evenodd" fill-opacity="1" /><path clip-path="url(#clip150)" d="M1415.4 1830.92 L1433.76 1830.92 L1433.76 1834.86 L1419.69 1834.86 L1419.69 1843.33 Q1420.7 1842.98 1421.72 1842.82 Q1422.74 1842.64 1423.76 1842.64 Q1429.55 1842.64 1432.93 1845.81 Q1436.31 1848.98 1436.31 1854.4 Q1436.31 1859.97 1432.83 1863.08 Q1429.36 1866.15 1423.04 1866.15 Q1420.87 1866.15 1418.6 1865.78 Q1416.35 1865.41 1413.95 1864.67 L1413.95 1859.97 Q1416.03 1861.11 1418.25 1861.66 Q1420.47 1862.22 1422.95 1862.22 Q1426.95 1862.22 1429.29 1860.11 Q1431.63 1858.01 1431.63 1854.4 Q1431.63 1850.78 1429.29 1848.68 Q1426.95 1846.57 1422.95 1846.57 Q1421.07 1846.57 1419.2 1846.99 Q1417.35 1847.4 1415.4 1848.28 L1415.4 1830.92 Z" fill="#000000" fill-rule="evenodd" fill-opacity="1" /><path clip-path="url(#clip150)" d="M1455.52 1834 Q1451.91 1834 1450.08 1837.57 Q1448.27 1841.11 1448.27 1848.24 Q1448.27 1855.34 1450.08 1858.91 Q1451.91 1862.45 1455.52 1862.45 Q1459.15 1862.45 1460.96 1858.91 Q1462.79 1855.34 1462.79 1848.24 Q1462.79 1841.11 1460.96 1837.57 Q1459.15 1834 1455.52 1834 M1455.52 1830.3 Q1461.33 1830.3 1464.38 1834.9 Q1467.46 1839.49 1467.46 1848.24 Q1467.46 1856.96 1464.38 1861.57 Q1461.33 1866.15 1455.52 1866.15 Q1449.71 1866.15 1446.63 1861.57 Q1443.57 1856.96 1443.57 1848.24 Q1443.57 1839.49 1446.63 1834.9 Q1449.71 1830.3 1455.52 1830.3 Z" fill="#000000" fill-rule="evenodd" fill-opacity="1" /><path clip-path="url(#clip150)" d="M1961.23 1834 Q1957.62 1834 1955.79 1837.57 Q1953.99 1841.11 1953.99 1848.24 Q1953.99 1855.34 1955.79 1858.91 Q1957.62 1862.45 1961.23 1862.45 Q1964.87 1862.45 1966.67 1858.91 Q1968.5 1855.34 1968.5 1848.24 Q1968.5 1841.11 1966.67 1837.57 Q1964.87 1834 1961.23 1834 M1961.23 1830.3 Q1967.04 1830.3 1970.1 1834.9 Q1973.18 1839.49 1973.18 1848.24 Q1973.18 1856.96 1970.1 1861.57 Q1967.04 1866.15 1961.23 1866.15 Q1955.42 1866.15 1952.34 1861.57 Q1949.29 1856.96 1949.29 1848.24 Q1949.29 1839.49 1952.34 1834.9 Q1955.42 1830.3 1961.23 1830.3 Z" fill="#000000" fill-rule="evenodd" fill-opacity="1" /><path clip-path="url(#clip150)" d="M1981.4 1859.6 L1986.28 1859.6 L1986.28 1865.48 L1981.4 1865.48 L1981.4 1859.6 Z" fill="#000000" fill-rule="evenodd" fill-opacity="1" /><path clip-path="url(#clip150)" d="M1995.28 1830.92 L2017.51 1830.92 L2017.51 1832.91 L2004.96 1865.48 L2000.08 1865.48 L2011.88 1834.86 L1995.28 1834.86 L1995.28 1830.92 Z" fill="#000000" fill-rule="evenodd" fill-opacity="1" /><path clip-path="url(#clip150)" d="M2026.67 1830.92 L2045.03 1830.92 L2045.03 1834.86 L2030.96 1834.86 L2030.96 1843.33 Q2031.97 1842.98 2032.99 1842.82 Q2034.01 1842.64 2035.03 1842.64 Q2040.82 1842.64 2044.2 1845.81 Q2047.58 1848.98 2047.58 1854.4 Q2047.58 1859.97 2044.1 1863.08 Q2040.63 1866.15 2034.31 1866.15 Q2032.14 1866.15 2029.87 1865.78 Q2027.62 1865.41 2025.21 1864.67 L2025.21 1859.97 Q2027.3 1861.11 2029.52 1861.66 Q2031.74 1862.22 2034.22 1862.22 Q2038.22 1862.22 2040.56 1860.11 Q2042.9 1858.01 2042.9 1854.4 Q2042.9 1850.78 2040.56 1848.68 Q2038.22 1846.57 2034.22 1846.57 Q2032.34 1846.57 2030.47 1846.99 Q2028.62 1847.4 2026.67 1848.28 L2026.67 1830.92 Z" fill="#000000" fill-rule="evenodd" fill-opacity="1" /><path clip-path="url(#clip150)" d="M2531.11 1861.55 L2538.75 1861.55 L2538.75 1835.18 L2530.44 1836.85 L2530.44 1832.59 L2538.71 1830.92 L2543.38 1830.92 L2543.38 1861.55 L2551.02 1861.55 L2551.02 1865.48 L2531.11 1865.48 L2531.11 1861.55 Z" fill="#000000" fill-rule="evenodd" fill-opacity="1" /><path clip-path="url(#clip150)" d="M2560.47 1859.6 L2565.35 1859.6 L2565.35 1865.48 L2560.47 1865.48 L2560.47 1859.6 Z" fill="#000000" fill-rule="evenodd" fill-opacity="1" /><path clip-path="url(#clip150)" d="M2585.54 1834 Q2581.92 1834 2580.1 1837.57 Q2578.29 1841.11 2578.29 1848.24 Q2578.29 1855.34 2580.1 1858.91 Q2581.92 1862.45 2585.54 1862.45 Q2589.17 1862.45 2590.98 1858.91 Q2592.8 1855.34 2592.8 1848.24 Q2592.8 1841.11 2590.98 1837.57 Q2589.17 1834 2585.54 1834 M2585.54 1830.3 Q2591.35 1830.3 2594.4 1834.9 Q2597.48 1839.49 2597.48 1848.24 Q2597.48 1856.96 2594.4 1861.57 Q2591.35 1866.15 2585.54 1866.15 Q2579.73 1866.15 2576.65 1861.57 Q2573.59 1856.96 2573.59 1848.24 Q2573.59 1839.49 2576.65 1834.9 Q2579.73 1830.3 2585.54 1830.3 Z" fill="#000000" fill-rule="evenodd" fill-opacity="1" /><path clip-path="url(#clip150)" d="M2615.7 1834 Q2612.09 1834 2610.26 1837.57 Q2608.45 1841.11 2608.45 1848.24 Q2608.45 1855.34 2610.26 1858.91 Q2612.09 1862.45 2615.7 1862.45 Q2619.33 1862.45 2621.14 1858.91 Q2622.97 1855.34 2622.97 1848.24 Q2622.97 1841.11 2621.14 1837.57 Q2619.33 1834 2615.7 1834 M2615.7 1830.3 Q2621.51 1830.3 2624.56 1834.9 Q2627.64 1839.49 2627.64 1848.24 Q2627.64 1856.96 2624.56 1861.57 Q2621.51 1866.15 2615.7 1866.15 Q2609.89 1866.15 2606.81 1861.57 Q2603.75 1856.96 2603.75 1848.24 Q2603.75 1839.49 2606.81 1834.9 Q2609.89 1830.3 2615.7 1830.3 Z" fill="#000000" fill-rule="evenodd" fill-opacity="1" /><polyline clip-path="url(#clip152)" style="stroke:#000000; stroke-linecap:butt; stroke-linejoin:round; stroke-width:2; stroke-opacity:0.1; fill:none" points="
  189.154,1781.02 2640.76,1781.02 
  "/>
<polyline clip-path="url(#clip152)" style="stroke:#000000; stroke-linecap:butt; stroke-linejoin:round; stroke-width:2; stroke-opacity:0.1; fill:none" points="
  189.154,1356.16 2640.76,1356.16 
  "/>
<polyline clip-path="url(#clip152)" style="stroke:#000000; stroke-linecap:butt; stroke-linejoin:round; stroke-width:2; stroke-opacity:0.1; fill:none" points="
  189.154,931.301 2640.76,931.301 
  "/>
<polyline clip-path="url(#clip152)" style="stroke:#000000; stroke-linecap:butt; stroke-linejoin:round; stroke-width:2; stroke-opacity:0.1; fill:none" points="
  189.154,506.44 2640.76,506.44 
  "/>
<polyline clip-path="url(#clip152)" style="stroke:#000000; stroke-linecap:butt; stroke-linejoin:round; stroke-width:2; stroke-opacity:0.1; fill:none" points="
  189.154,81.5792 2640.76,81.5792 
  "/>
<polyline clip-path="url(#clip150)" style="stroke:#000000; stroke-linecap:butt; stroke-linejoin:round; stroke-width:4; stroke-opacity:1; fill:none" points="
  189.154,1800.78 189.154,47.2441 
  "/>
<polyline clip-path="url(#clip150)" style="stroke:#000000; stroke-linecap:butt; stroke-linejoin:round; stroke-width:4; stroke-opacity:1; fill:none" points="
  189.154,1781.02 208.052,1781.02 
  "/>
<polyline clip-path="url(#clip150)" style="stroke:#000000; stroke-linecap:butt; stroke-linejoin:round; stroke-width:4; stroke-opacity:1; fill:none" points="
  189.154,1356.16 208.052,1356.16 
  "/>
<polyline clip-path="url(#clip150)" style="stroke:#000000; stroke-linecap:butt; stroke-linejoin:round; stroke-width:4; stroke-opacity:1; fill:none" points="
  189.154,931.301 208.052,931.301 
  "/>
<polyline clip-path="url(#clip150)" style="stroke:#000000; stroke-linecap:butt; stroke-linejoin:round; stroke-width:4; stroke-opacity:1; fill:none" points="
  189.154,506.44 208.052,506.44 
  "/>
<polyline clip-path="url(#clip150)" style="stroke:#000000; stroke-linecap:butt; stroke-linejoin:round; stroke-width:4; stroke-opacity:1; fill:none" points="
  189.154,81.5792 208.052,81.5792 
  "/>
<path clip-path="url(#clip150)" d="M61.4965 1766.82 Q57.8854 1766.82 56.0567 1770.39 Q54.2512 1773.93 54.2512 1781.06 Q54.2512 1788.16 56.0567 1791.73 Q57.8854 1795.27 61.4965 1795.27 Q65.1307 1795.27 66.9363 1791.73 Q68.765 1788.16 68.765 1781.06 Q68.765 1773.93 66.9363 1770.39 Q65.1307 1766.82 61.4965 1766.82 M61.4965 1763.12 Q67.3067 1763.12 70.3622 1767.72 Q73.4409 1772.31 73.4409 1781.06 Q73.4409 1789.78 70.3622 1794.39 Q67.3067 1798.97 61.4965 1798.97 Q55.6864 1798.97 52.6077 1794.39 Q49.5521 1789.78 49.5521 1781.06 Q49.5521 1772.31 52.6077 1767.72 Q55.6864 1763.12 61.4965 1763.12 Z" fill="#000000" fill-rule="evenodd" fill-opacity="1" /><path clip-path="url(#clip150)" d="M81.6584 1792.42 L86.5427 1792.42 L86.5427 1798.3 L81.6584 1798.3 L81.6584 1792.42 Z" fill="#000000" fill-rule="evenodd" fill-opacity="1" /><path clip-path="url(#clip150)" d="M106.728 1766.82 Q103.117 1766.82 101.288 1770.39 Q99.4824 1773.93 99.4824 1781.06 Q99.4824 1788.16 101.288 1791.73 Q103.117 1795.27 106.728 1795.27 Q110.362 1795.27 112.168 1791.73 Q113.996 1788.16 113.996 1781.06 Q113.996 1773.93 112.168 1770.39 Q110.362 1766.82 106.728 1766.82 M106.728 1763.12 Q112.538 1763.12 115.593 1767.72 Q118.672 1772.31 118.672 1781.06 Q118.672 1789.78 115.593 1794.39 Q112.538 1798.97 106.728 1798.97 Q100.918 1798.97 97.8389 1794.39 Q94.7834 1789.78 94.7834 1781.06 Q94.7834 1772.31 97.8389 1767.72 Q100.918 1763.12 106.728 1763.12 Z" fill="#000000" fill-rule="evenodd" fill-opacity="1" /><path clip-path="url(#clip150)" d="M136.89 1766.82 Q133.279 1766.82 131.45 1770.39 Q129.644 1773.93 129.644 1781.06 Q129.644 1788.16 131.45 1791.73 Q133.279 1795.27 136.89 1795.27 Q140.524 1795.27 142.329 1791.73 Q144.158 1788.16 144.158 1781.06 Q144.158 1773.93 142.329 1770.39 Q140.524 1766.82 136.89 1766.82 M136.89 1763.12 Q142.7 1763.12 145.755 1767.72 Q148.834 1772.31 148.834 1781.06 Q148.834 1789.78 145.755 1794.39 Q142.7 1798.97 136.89 1798.97 Q131.079 1798.97 128.001 1794.39 Q124.945 1789.78 124.945 1781.06 Q124.945 1772.31 128.001 1767.72 Q131.079 1763.12 136.89 1763.12 Z" fill="#000000" fill-rule="evenodd" fill-opacity="1" /><path clip-path="url(#clip150)" d="M62.4919 1341.96 Q58.8808 1341.96 57.0521 1345.52 Q55.2465 1349.07 55.2465 1356.2 Q55.2465 1363.3 57.0521 1366.87 Q58.8808 1370.41 62.4919 1370.41 Q66.1261 1370.41 67.9317 1366.87 Q69.7604 1363.3 69.7604 1356.2 Q69.7604 1349.07 67.9317 1345.52 Q66.1261 1341.96 62.4919 1341.96 M62.4919 1338.26 Q68.302 1338.26 71.3576 1342.86 Q74.4363 1347.45 74.4363 1356.2 Q74.4363 1364.92 71.3576 1369.53 Q68.302 1374.11 62.4919 1374.11 Q56.6817 1374.11 53.603 1369.53 Q50.5475 1364.92 50.5475 1356.2 Q50.5475 1347.45 53.603 1342.86 Q56.6817 1338.26 62.4919 1338.26 Z" fill="#000000" fill-rule="evenodd" fill-opacity="1" /><path clip-path="url(#clip150)" d="M82.6538 1367.56 L87.538 1367.56 L87.538 1373.44 L82.6538 1373.44 L82.6538 1367.56 Z" fill="#000000" fill-rule="evenodd" fill-opacity="1" /><path clip-path="url(#clip150)" d="M101.751 1369.51 L118.07 1369.51 L118.07 1373.44 L96.126 1373.44 L96.126 1369.51 Q98.788 1366.75 103.371 1362.12 Q107.978 1357.47 109.158 1356.13 Q111.404 1353.6 112.283 1351.87 Q113.186 1350.11 113.186 1348.42 Q113.186 1345.66 111.242 1343.93 Q109.32 1342.19 106.218 1342.19 Q104.019 1342.19 101.566 1342.96 Q99.1352 1343.72 96.3574 1345.27 L96.3574 1340.55 Q99.1815 1339.41 101.635 1338.83 Q104.089 1338.26 106.126 1338.26 Q111.496 1338.26 114.691 1340.94 Q117.885 1343.63 117.885 1348.12 Q117.885 1350.25 117.075 1352.17 Q116.288 1354.07 114.181 1356.66 Q113.603 1357.33 110.501 1360.55 Q107.399 1363.74 101.751 1369.51 Z" fill="#000000" fill-rule="evenodd" fill-opacity="1" /><path clip-path="url(#clip150)" d="M127.931 1338.88 L146.288 1338.88 L146.288 1342.82 L132.214 1342.82 L132.214 1351.29 Q133.232 1350.94 134.251 1350.78 Q135.269 1350.59 136.288 1350.59 Q142.075 1350.59 145.454 1353.77 Q148.834 1356.94 148.834 1362.35 Q148.834 1367.93 145.362 1371.03 Q141.89 1374.11 135.57 1374.11 Q133.394 1374.11 131.126 1373.74 Q128.88 1373.37 126.473 1372.63 L126.473 1367.93 Q128.556 1369.07 130.779 1369.62 Q133.001 1370.18 135.478 1370.18 Q139.482 1370.18 141.82 1368.07 Q144.158 1365.96 144.158 1362.35 Q144.158 1358.74 141.82 1356.64 Q139.482 1354.53 135.478 1354.53 Q133.603 1354.53 131.728 1354.95 Q129.876 1355.36 127.931 1356.24 L127.931 1338.88 Z" fill="#000000" fill-rule="evenodd" fill-opacity="1" /><path clip-path="url(#clip150)" d="M61.4965 917.099 Q57.8854 917.099 56.0567 920.664 Q54.2512 924.206 54.2512 931.335 Q54.2512 938.442 56.0567 942.007 Q57.8854 945.548 61.4965 945.548 Q65.1307 945.548 66.9363 942.007 Q68.765 938.442 68.765 931.335 Q68.765 924.206 66.9363 920.664 Q65.1307 917.099 61.4965 917.099 M61.4965 913.396 Q67.3067 913.396 70.3622 918.002 Q73.4409 922.585 73.4409 931.335 Q73.4409 940.062 70.3622 944.669 Q67.3067 949.252 61.4965 949.252 Q55.6864 949.252 52.6077 944.669 Q49.5521 940.062 49.5521 931.335 Q49.5521 922.585 52.6077 918.002 Q55.6864 913.396 61.4965 913.396 Z" fill="#000000" fill-rule="evenodd" fill-opacity="1" /><path clip-path="url(#clip150)" d="M81.6584 942.701 L86.5427 942.701 L86.5427 948.581 L81.6584 948.581 L81.6584 942.701 Z" fill="#000000" fill-rule="evenodd" fill-opacity="1" /><path clip-path="url(#clip150)" d="M96.7741 914.021 L115.13 914.021 L115.13 917.956 L101.056 917.956 L101.056 926.428 Q102.075 926.081 103.094 925.919 Q104.112 925.733 105.131 925.733 Q110.918 925.733 114.297 928.905 Q117.677 932.076 117.677 937.493 Q117.677 943.071 114.205 946.173 Q110.732 949.252 104.413 949.252 Q102.237 949.252 99.9685 948.881 Q97.7232 948.511 95.3158 947.77 L95.3158 943.071 Q97.3991 944.206 99.6213 944.761 Q101.844 945.317 104.32 945.317 Q108.325 945.317 110.663 943.21 Q113.001 941.104 113.001 937.493 Q113.001 933.882 110.663 931.775 Q108.325 929.669 104.32 929.669 Q102.445 929.669 100.57 930.085 Q98.7185 930.502 96.7741 931.382 L96.7741 914.021 Z" fill="#000000" fill-rule="evenodd" fill-opacity="1" /><path clip-path="url(#clip150)" d="M136.89 917.099 Q133.279 917.099 131.45 920.664 Q129.644 924.206 129.644 931.335 Q129.644 938.442 131.45 942.007 Q133.279 945.548 136.89 945.548 Q140.524 945.548 142.329 942.007 Q144.158 938.442 144.158 931.335 Q144.158 924.206 142.329 920.664 Q140.524 917.099 136.89 917.099 M136.89 913.396 Q142.7 913.396 145.755 918.002 Q148.834 922.585 148.834 931.335 Q148.834 940.062 145.755 944.669 Q142.7 949.252 136.89 949.252 Q131.079 949.252 128.001 944.669 Q124.945 940.062 124.945 931.335 Q124.945 922.585 128.001 918.002 Q131.079 913.396 136.89 913.396 Z" fill="#000000" fill-rule="evenodd" fill-opacity="1" /><path clip-path="url(#clip150)" d="M62.4919 492.239 Q58.8808 492.239 57.0521 495.803 Q55.2465 499.345 55.2465 506.475 Q55.2465 513.581 57.0521 517.146 Q58.8808 520.687 62.4919 520.687 Q66.1261 520.687 67.9317 517.146 Q69.7604 513.581 69.7604 506.475 Q69.7604 499.345 67.9317 495.803 Q66.1261 492.239 62.4919 492.239 M62.4919 488.535 Q68.302 488.535 71.3576 493.141 Q74.4363 497.725 74.4363 506.475 Q74.4363 515.201 71.3576 519.808 Q68.302 524.391 62.4919 524.391 Q56.6817 524.391 53.603 519.808 Q50.5475 515.201 50.5475 506.475 Q50.5475 497.725 53.603 493.141 Q56.6817 488.535 62.4919 488.535 Z" fill="#000000" fill-rule="evenodd" fill-opacity="1" /><path clip-path="url(#clip150)" d="M82.6538 517.84 L87.538 517.84 L87.538 523.72 L82.6538 523.72 L82.6538 517.84 Z" fill="#000000" fill-rule="evenodd" fill-opacity="1" /><path clip-path="url(#clip150)" d="M96.5426 489.16 L118.765 489.16 L118.765 491.151 L106.218 523.72 L101.334 523.72 L113.14 493.095 L96.5426 493.095 L96.5426 489.16 Z" fill="#000000" fill-rule="evenodd" fill-opacity="1" /><path clip-path="url(#clip150)" d="M127.931 489.16 L146.288 489.16 L146.288 493.095 L132.214 493.095 L132.214 501.567 Q133.232 501.22 134.251 501.058 Q135.269 500.873 136.288 500.873 Q142.075 500.873 145.454 504.044 Q148.834 507.215 148.834 512.632 Q148.834 518.211 145.362 521.312 Q141.89 524.391 135.57 524.391 Q133.394 524.391 131.126 524.021 Q128.88 523.65 126.473 522.91 L126.473 518.211 Q128.556 519.345 130.779 519.9 Q133.001 520.456 135.478 520.456 Q139.482 520.456 141.82 518.35 Q144.158 516.243 144.158 512.632 Q144.158 509.021 141.82 506.914 Q139.482 504.808 135.478 504.808 Q133.603 504.808 131.728 505.225 Q129.876 505.641 127.931 506.521 L127.931 489.16 Z" fill="#000000" fill-rule="evenodd" fill-opacity="1" /><path clip-path="url(#clip150)" d="M52.3067 94.924 L59.9456 94.924 L59.9456 68.5584 L51.6354 70.2251 L51.6354 65.9659 L59.8993 64.2992 L64.5752 64.2992 L64.5752 94.924 L72.214 94.924 L72.214 98.8592 L52.3067 98.8592 L52.3067 94.924 Z" fill="#000000" fill-rule="evenodd" fill-opacity="1" /><path clip-path="url(#clip150)" d="M81.6584 92.9796 L86.5427 92.9796 L86.5427 98.8592 L81.6584 98.8592 L81.6584 92.9796 Z" fill="#000000" fill-rule="evenodd" fill-opacity="1" /><path clip-path="url(#clip150)" d="M106.728 67.3779 Q103.117 67.3779 101.288 70.9427 Q99.4824 74.4843 99.4824 81.6139 Q99.4824 88.7204 101.288 92.2852 Q103.117 95.8268 106.728 95.8268 Q110.362 95.8268 112.168 92.2852 Q113.996 88.7204 113.996 81.6139 Q113.996 74.4843 112.168 70.9427 Q110.362 67.3779 106.728 67.3779 M106.728 63.6742 Q112.538 63.6742 115.593 68.2807 Q118.672 72.864 118.672 81.6139 Q118.672 90.3407 115.593 94.9472 Q112.538 99.5305 106.728 99.5305 Q100.918 99.5305 97.8389 94.9472 Q94.7834 90.3407 94.7834 81.6139 Q94.7834 72.864 97.8389 68.2807 Q100.918 63.6742 106.728 63.6742 Z" fill="#000000" fill-rule="evenodd" fill-opacity="1" /><path clip-path="url(#clip150)" d="M136.89 67.3779 Q133.279 67.3779 131.45 70.9427 Q129.644 74.4843 129.644 81.6139 Q129.644 88.7204 131.45 92.2852 Q133.279 95.8268 136.89 95.8268 Q140.524 95.8268 142.329 92.2852 Q144.158 88.7204 144.158 81.6139 Q144.158 74.4843 142.329 70.9427 Q140.524 67.3779 136.89 67.3779 M136.89 63.6742 Q142.7 63.6742 145.755 68.2807 Q148.834 72.864 148.834 81.6139 Q148.834 90.3407 145.755 94.9472 Q142.7 99.5305 136.89 99.5305 Q131.079 99.5305 128.001 94.9472 Q124.945 90.3407 124.945 81.6139 Q124.945 72.864 128.001 68.2807 Q131.079 63.6742 136.89 63.6742 Z" fill="#000000" fill-rule="evenodd" fill-opacity="1" /><polyline clip-path="url(#clip152)" style="stroke:#009af9; stroke-linecap:butt; stroke-linejoin:round; stroke-width:4; stroke-opacity:1; fill:none" points="
  1418.74,1016.2 335.836,685.591 1305.74,1016.84 1604.82,1268.77 2524.46,96.8724 335.337,333.214 376.515,327.67 795.144,821.023 2489,1261.63 1938.07,1206.06 
  672.396,878.888 1521.69,406.18 2510.57,1741.51 1115.8,1297.82 1643.77,261.509 339.658,1592.96 1500.37,968.366 1854.77,924.774 1135.98,1493.31 473.987,1455.52 
  258.539,1685.96 1750.07,686.661 2042.16,1050.92 1485.45,1524.23 2161.9,1475.6 1820.23,1497.29 540.672,820.724 2557.53,596.535 1004.09,799.48 1601.96,1598.42 
  307.147,1628.54 555.406,679.213 657.039,420.521 1844.69,1194.59 2559.63,1310.07 1693.78,1725.13 1125.92,1487.22 2191.99,1176.75 1307.44,1372.09 766.696,1438.54 
  2525.62,340.933 1601.06,272.817 2522.47,1671.99 469.381,770.111 692.401,759.859 2006.42,1343.67 2288.04,454.888 1161.07,1569.49 774.634,462.114 1198.36,1632.01 
  358.015,815.557 1462.34,175.386 1757.74,902.113 1283.18,320.958 451.149,651.455 2096.78,412.796 1829.67,1420.68 2161.65,1722.95 867.529,1436.53 2099.68,449.502 
  574.171,1236.43 1065.2,935.664 1713.95,1751.15 2448.71,636.706 1337.5,423.909 2470.96,677.834 1847.56,850.903 549.511,446.93 373.33,1437.09 750.625,1098.38 
  1336.38,1352.73 1864.23,1064.8 306.828,603.31 1132.9,939.086 1600.17,186.669 442.057,1237.95 1900.05,1131.89 921.055,1332.59 450.432,357.836 686.618,942.843 
  2322.05,690.538 1730.09,1586.96 2405.66,157.412 541.393,215.923 1145.05,1184.09 2132.86,200.232 2416.24,546.44 1366.77,155.636 2211.72,1457.92 2013.08,247.131 
  876.193,217.134 2571.37,1436.41 2060.59,287.401 404,1021.43 1099.72,251.471 2187.62,1362.12 2444.46,246.418 909.367,477.903 305.419,723.787 1291.76,637.071 
  
  "/>
<path clip-path="url(#clip150)" d="
M270.874 209.375 L568.465 209.375 L568.465 105.695 L270.874 105.695  Z
  " fill="#ffffff" fill-rule="evenodd" fill-opacity="1"/>
<polyline clip-path="url(#clip150)" style="stroke:#000000; stroke-linecap:butt; stroke-linejoin:round; stroke-width:4; stroke-opacity:1; fill:none" points="
  270.874,209.375 568.465,209.375 568.465,105.695 270.874,105.695 270.874,209.375 
  "/>
<polyline clip-path="url(#clip150)" style="stroke:#009af9; stroke-linecap:butt; stroke-linejoin:round; stroke-width:4; stroke-opacity:1; fill:none" points="
  298.114,157.535 461.554,157.535 
  "/>
<path clip-path="url(#clip150)" d="M502.637 177.223 Q500.831 181.852 499.118 183.264 Q497.405 184.676 494.535 184.676 L491.132 184.676 L491.132 181.112 L493.632 181.112 Q495.391 181.112 496.364 180.278 Q497.336 179.445 498.516 176.343 L499.28 174.399 L488.794 148.889 L493.308 148.889 L501.41 169.167 L509.512 148.889 L514.026 148.889 L502.637 177.223 Z" fill="#000000" fill-rule="evenodd" fill-opacity="1" /><path clip-path="url(#clip150)" d="M521.317 170.88 L528.956 170.88 L528.956 144.515 L520.646 146.181 L520.646 141.922 L528.91 140.255 L533.586 140.255 L533.586 170.88 L541.225 170.88 L541.225 174.815 L521.317 174.815 L521.317 170.88 Z" fill="#000000" fill-rule="evenodd" fill-opacity="1" /></svg>
