<?xml version="1.0" encoding="utf-8"?>
<svg xmlns="http://www.w3.org/2000/svg" xmlns:xlink="http://www.w3.org/1999/xlink" width="672" height="480" viewBox="0 0 2688 1920">
<defs>
  <clipPath id="clip480">
    <rect x="0" y="0" width="2688" height="1920"/>
  </clipPath>
</defs>
<path clip-path="url(#clip480)" d="
M0 1920 L2688 1920 L2688 0 L0 0  Z
  " fill="#ffffff" fill-rule="evenodd" fill-opacity="1"/>
<defs>
  <clipPath id="clip481">
    <rect x="537" y="0" width="1883" height="1883"/>
  </clipPath>
</defs>
<path clip-path="url(#clip480)" d="
M159.478 1800.78 L2640.76 1800.78 L2640.76 47.2441 L159.478 47.2441  Z
  " fill="#ffffff" fill-rule="evenodd" fill-opacity="1"/>
<defs>
  <clipPath id="clip482">
    <rect x="159" y="47" width="2482" height="1755"/>
  </clipPath>
</defs>
<polyline clip-path="url(#clip482)" style="stroke:#000000; stroke-linecap:butt; stroke-linejoin:round; stroke-width:2; stroke-opacity:0.1; fill:none" points="
  218.668,1800.78 218.668,47.2441 
  "/>
<polyline clip-path="url(#clip482)" style="stroke:#000000; stroke-linecap:butt; stroke-linejoin:round; stroke-width:2; stroke-opacity:0.1; fill:none" points="
  709.053,1800.78 709.053,47.2441 
  "/>
<polyline clip-path="url(#clip482)" style="stroke:#000000; stroke-linecap:butt; stroke-linejoin:round; stroke-width:2; stroke-opacity:0.1; fill:none" points="
  1199.44,1800.78 1199.44,47.2441 
  "/>
<polyline clip-path="url(#clip482)" style="stroke:#000000; stroke-linecap:butt; stroke-linejoin:round; stroke-width:2; stroke-opacity:0.1; fill:none" points="
  1689.82,1800.78 1689.82,47.2441 
  "/>
<polyline clip-path="url(#clip482)" style="stroke:#000000; stroke-linecap:butt; stroke-linejoin:round; stroke-width:2; stroke-opacity:0.1; fill:none" points="
  2180.21,1800.78 2180.21,47.2441 
  "/>
<polyline clip-path="url(#clip480)" style="stroke:#000000; stroke-linecap:butt; stroke-linejoin:round; stroke-width:4; stroke-opacity:1; fill:none" points="
  159.478,1800.78 2640.76,1800.78 
  "/>
<polyline clip-path="url(#clip480)" style="stroke:#000000; stroke-linecap:butt; stroke-linejoin:round; stroke-width:4; stroke-opacity:1; fill:none" points="
  218.668,1800.78 218.668,1781.88 
  "/>
<polyline clip-path="url(#clip480)" style="stroke:#000000; stroke-linecap:butt; stroke-linejoin:round; stroke-width:4; stroke-opacity:1; fill:none" points="
  709.053,1800.78 709.053,1781.88 
  "/>
<polyline clip-path="url(#clip480)" style="stroke:#000000; stroke-linecap:butt; stroke-linejoin:round; stroke-width:4; stroke-opacity:1; fill:none" points="
  1199.44,1800.78 1199.44,1781.88 
  "/>
<polyline clip-path="url(#clip480)" style="stroke:#000000; stroke-linecap:butt; stroke-linejoin:round; stroke-width:4; stroke-opacity:1; fill:none" points="
  1689.82,1800.78 1689.82,1781.88 
  "/>
<polyline clip-path="url(#clip480)" style="stroke:#000000; stroke-linecap:butt; stroke-linejoin:round; stroke-width:4; stroke-opacity:1; fill:none" points="
  2180.21,1800.78 2180.21,1781.88 
  "/>
<path clip-path="url(#clip480)" d="M196.052 1834 Q192.441 1834 190.613 1837.57 Q188.807 1841.11 188.807 1848.24 Q188.807 1855.34 190.613 1858.91 Q192.441 1862.45 196.052 1862.45 Q199.687 1862.45 201.492 1858.91 Q203.321 1855.34 203.321 1848.24 Q203.321 1841.11 201.492 1837.57 Q199.687 1834 196.052 1834 M196.052 1830.3 Q201.863 1830.3 204.918 1834.9 Q207.997 1839.49 207.997 1848.24 Q207.997 1856.96 204.918 1861.57 Q201.863 1866.15 196.052 1866.15 Q190.242 1866.15 187.164 1861.57 Q184.108 1856.96 184.108 1848.24 Q184.108 1839.49 187.164 1834.9 Q190.242 1830.3 196.052 1830.3 Z" fill="#000000" fill-rule="evenodd" fill-opacity="1" /><path clip-path="url(#clip480)" d="M216.214 1859.6 L221.099 1859.6 L221.099 1865.48 L216.214 1865.48 L216.214 1859.6 Z" fill="#000000" fill-rule="evenodd" fill-opacity="1" /><path clip-path="url(#clip480)" d="M241.284 1834 Q237.673 1834 235.844 1837.57 Q234.038 1841.11 234.038 1848.24 Q234.038 1855.34 235.844 1858.91 Q237.673 1862.45 241.284 1862.45 Q244.918 1862.45 246.723 1858.91 Q248.552 1855.34 248.552 1848.24 Q248.552 1841.11 246.723 1837.57 Q244.918 1834 241.284 1834 M241.284 1830.3 Q247.094 1830.3 250.149 1834.9 Q253.228 1839.49 253.228 1848.24 Q253.228 1856.96 250.149 1861.57 Q247.094 1866.15 241.284 1866.15 Q235.473 1866.15 232.395 1861.57 Q229.339 1856.96 229.339 1848.24 Q229.339 1839.49 232.395 1834.9 Q235.473 1830.3 241.284 1830.3 Z" fill="#000000" fill-rule="evenodd" fill-opacity="1" /><path clip-path="url(#clip480)" d="M687.236 1834 Q683.625 1834 681.797 1837.57 Q679.991 1841.11 679.991 1848.24 Q679.991 1855.34 681.797 1858.91 Q683.625 1862.45 687.236 1862.45 Q690.871 1862.45 692.676 1858.91 Q694.505 1855.34 694.505 1848.24 Q694.505 1841.11 692.676 1837.57 Q690.871 1834 687.236 1834 M687.236 1830.3 Q693.047 1830.3 696.102 1834.9 Q699.181 1839.49 699.181 1848.24 Q699.181 1856.96 696.102 1861.57 Q693.047 1866.15 687.236 1866.15 Q681.426 1866.15 678.348 1861.57 Q675.292 1856.96 675.292 1848.24 Q675.292 1839.49 678.348 1834.9 Q681.426 1830.3 687.236 1830.3 Z" fill="#000000" fill-rule="evenodd" fill-opacity="1" /><path clip-path="url(#clip480)" d="M707.398 1859.6 L712.283 1859.6 L712.283 1865.48 L707.398 1865.48 L707.398 1859.6 Z" fill="#000000" fill-rule="evenodd" fill-opacity="1" /><path clip-path="url(#clip480)" d="M726.496 1861.55 L742.815 1861.55 L742.815 1865.48 L720.871 1865.48 L720.871 1861.55 Q723.533 1858.79 728.116 1854.16 Q732.722 1849.51 733.903 1848.17 Q736.148 1845.65 737.028 1843.91 Q737.931 1842.15 737.931 1840.46 Q737.931 1837.71 735.986 1835.97 Q734.065 1834.23 730.963 1834.23 Q728.764 1834.23 726.31 1835 Q723.88 1835.76 721.102 1837.31 L721.102 1832.59 Q723.926 1831.46 726.38 1830.88 Q728.833 1830.3 730.87 1830.3 Q736.241 1830.3 739.435 1832.98 Q742.63 1835.67 742.63 1840.16 Q742.63 1842.29 741.82 1844.21 Q741.032 1846.11 738.926 1848.7 Q738.347 1849.37 735.245 1852.59 Q732.144 1855.78 726.496 1861.55 Z" fill="#000000" fill-rule="evenodd" fill-opacity="1" /><path clip-path="url(#clip480)" d="M1176.58 1834 Q1172.97 1834 1171.14 1837.57 Q1169.33 1841.11 1169.33 1848.24 Q1169.33 1855.34 1171.14 1858.91 Q1172.97 1862.45 1176.58 1862.45 Q1180.21 1862.45 1182.02 1858.91 Q1183.85 1855.34 1183.85 1848.24 Q1183.85 1841.11 1182.02 1837.57 Q1180.21 1834 1176.58 1834 M1176.58 1830.3 Q1182.39 1830.3 1185.45 1834.9 Q1188.52 1839.49 1188.52 1848.24 Q1188.52 1856.96 1185.45 1861.57 Q1182.39 1866.15 1176.58 1866.15 Q1170.77 1866.15 1167.69 1861.57 Q1164.64 1856.96 1164.64 1848.24 Q1164.64 1839.49 1167.69 1834.9 Q1170.77 1830.3 1176.58 1830.3 Z" fill="#000000" fill-rule="evenodd" fill-opacity="1" /><path clip-path="url(#clip480)" d="M1196.74 1859.6 L1201.63 1859.6 L1201.63 1865.48 L1196.74 1865.48 L1196.74 1859.6 Z" fill="#000000" fill-rule="evenodd" fill-opacity="1" /><path clip-path="url(#clip480)" d="M1224.66 1835 L1212.85 1853.45 L1224.66 1853.45 L1224.66 1835 M1223.43 1830.92 L1229.31 1830.92 L1229.31 1853.45 L1234.24 1853.45 L1234.24 1857.34 L1229.31 1857.34 L1229.31 1865.48 L1224.66 1865.48 L1224.66 1857.34 L1209.06 1857.34 L1209.06 1852.82 L1223.43 1830.92 Z" fill="#000000" fill-rule="evenodd" fill-opacity="1" /><path clip-path="url(#clip480)" d="M1667.13 1834 Q1663.52 1834 1661.69 1837.57 Q1659.88 1841.11 1659.88 1848.24 Q1659.88 1855.34 1661.69 1858.91 Q1663.52 1862.45 1667.13 1862.45 Q1670.76 1862.45 1672.57 1858.91 Q1674.4 1855.34 1674.4 1848.24 Q1674.4 1841.11 1672.57 1837.57 Q1670.76 1834 1667.13 1834 M1667.13 1830.3 Q1672.94 1830.3 1675.99 1834.9 Q1679.07 1839.49 1679.07 1848.24 Q1679.07 1856.96 1675.99 1861.57 Q1672.94 1866.15 1667.13 1866.15 Q1661.32 1866.15 1658.24 1861.57 Q1655.18 1856.96 1655.18 1848.24 Q1655.18 1839.49 1658.24 1834.9 Q1661.32 1830.3 1667.13 1830.3 Z" fill="#000000" fill-rule="evenodd" fill-opacity="1" /><path clip-path="url(#clip480)" d="M1687.29 1859.6 L1692.17 1859.6 L1692.17 1865.48 L1687.29 1865.48 L1687.29 1859.6 Z" fill="#000000" fill-rule="evenodd" fill-opacity="1" /><path clip-path="url(#clip480)" d="M1712.94 1846.34 Q1709.79 1846.34 1707.94 1848.49 Q1706.11 1850.65 1706.11 1854.4 Q1706.11 1858.12 1707.94 1860.3 Q1709.79 1862.45 1712.94 1862.45 Q1716.09 1862.45 1717.91 1860.3 Q1719.77 1858.12 1719.77 1854.4 Q1719.77 1850.65 1717.91 1848.49 Q1716.09 1846.34 1712.94 1846.34 M1722.22 1831.69 L1722.22 1835.95 Q1720.46 1835.11 1718.66 1834.67 Q1716.87 1834.23 1715.11 1834.23 Q1710.48 1834.23 1708.03 1837.36 Q1705.6 1840.48 1705.25 1846.8 Q1706.62 1844.79 1708.68 1843.72 Q1710.74 1842.64 1713.22 1842.64 Q1718.42 1842.64 1721.43 1845.81 Q1724.47 1848.96 1724.47 1854.4 Q1724.47 1859.72 1721.32 1862.94 Q1718.17 1866.15 1712.94 1866.15 Q1706.94 1866.15 1703.77 1861.57 Q1700.6 1856.96 1700.6 1848.24 Q1700.6 1840.04 1704.49 1835.18 Q1708.38 1830.3 1714.93 1830.3 Q1716.69 1830.3 1718.47 1830.65 Q1720.28 1830.99 1722.22 1831.69 Z" fill="#000000" fill-rule="evenodd" fill-opacity="1" /><path clip-path="url(#clip480)" d="M2157.64 1834 Q2154.03 1834 2152.2 1837.57 Q2150.4 1841.11 2150.4 1848.24 Q2150.4 1855.34 2152.2 1858.91 Q2154.03 1862.45 2157.64 1862.45 Q2161.27 1862.45 2163.08 1858.91 Q2164.91 1855.34 2164.91 1848.24 Q2164.91 1841.11 2163.08 1837.57 Q2161.27 1834 2157.64 1834 M2157.64 1830.3 Q2163.45 1830.3 2166.51 1834.9 Q2169.59 1839.49 2169.59 1848.24 Q2169.59 1856.96 2166.51 1861.57 Q2163.45 1866.15 2157.64 1866.15 Q2151.83 1866.15 2148.75 1861.57 Q2145.7 1856.96 2145.7 1848.24 Q2145.7 1839.49 2148.75 1834.9 Q2151.83 1830.3 2157.64 1830.3 Z" fill="#000000" fill-rule="evenodd" fill-opacity="1" /><path clip-path="url(#clip480)" d="M2177.8 1859.6 L2182.69 1859.6 L2182.69 1865.48 L2177.8 1865.48 L2177.8 1859.6 Z" fill="#000000" fill-rule="evenodd" fill-opacity="1" /><path clip-path="url(#clip480)" d="M2202.87 1849.07 Q2199.54 1849.07 2197.62 1850.85 Q2195.72 1852.64 2195.72 1855.76 Q2195.72 1858.89 2197.62 1860.67 Q2199.54 1862.45 2202.87 1862.45 Q2206.21 1862.45 2208.13 1860.67 Q2210.05 1858.86 2210.05 1855.76 Q2210.05 1852.64 2208.13 1850.85 Q2206.23 1849.07 2202.87 1849.07 M2198.2 1847.08 Q2195.19 1846.34 2193.5 1844.28 Q2191.83 1842.22 2191.83 1839.26 Q2191.83 1835.11 2194.77 1832.71 Q2197.73 1830.3 2202.87 1830.3 Q2208.03 1830.3 2210.97 1832.71 Q2213.91 1835.11 2213.91 1839.26 Q2213.91 1842.22 2212.22 1844.28 Q2210.56 1846.34 2207.57 1847.08 Q2210.95 1847.87 2212.83 1850.16 Q2214.72 1852.45 2214.72 1855.76 Q2214.72 1860.78 2211.64 1863.47 Q2208.59 1866.15 2202.87 1866.15 Q2197.15 1866.15 2194.08 1863.47 Q2191.02 1860.78 2191.02 1855.76 Q2191.02 1852.45 2192.92 1850.16 Q2194.82 1847.87 2198.2 1847.08 M2196.48 1839.7 Q2196.48 1842.38 2198.15 1843.89 Q2199.84 1845.39 2202.87 1845.39 Q2205.88 1845.39 2207.57 1843.89 Q2209.28 1842.38 2209.28 1839.7 Q2209.28 1837.01 2207.57 1835.51 Q2205.88 1834 2202.87 1834 Q2199.84 1834 2198.15 1835.51 Q2196.48 1837.01 2196.48 1839.7 Z" fill="#000000" fill-rule="evenodd" fill-opacity="1" /><polyline clip-path="url(#clip482)" style="stroke:#000000; stroke-linecap:butt; stroke-linejoin:round; stroke-width:2; stroke-opacity:0.1; fill:none" points="
  159.478,1757.56 2640.76,1757.56 
  "/>
<polyline clip-path="url(#clip482)" style="stroke:#000000; stroke-linecap:butt; stroke-linejoin:round; stroke-width:2; stroke-opacity:0.1; fill:none" points="
  159.478,1414.83 2640.76,1414.83 
  "/>
<polyline clip-path="url(#clip482)" style="stroke:#000000; stroke-linecap:butt; stroke-linejoin:round; stroke-width:2; stroke-opacity:0.1; fill:none" points="
  159.478,1072.09 2640.76,1072.09 
  "/>
<polyline clip-path="url(#clip482)" style="stroke:#000000; stroke-linecap:butt; stroke-linejoin:round; stroke-width:2; stroke-opacity:0.1; fill:none" points="
  159.478,729.359 2640.76,729.359 
  "/>
<polyline clip-path="url(#clip482)" style="stroke:#000000; stroke-linecap:butt; stroke-linejoin:round; stroke-width:2; stroke-opacity:0.1; fill:none" points="
  159.478,386.625 2640.76,386.625 
  "/>
<polyline clip-path="url(#clip480)" style="stroke:#000000; stroke-linecap:butt; stroke-linejoin:round; stroke-width:4; stroke-opacity:1; fill:none" points="
  159.478,1800.78 159.478,47.2441 
  "/>
<polyline clip-path="url(#clip480)" style="stroke:#000000; stroke-linecap:butt; stroke-linejoin:round; stroke-width:4; stroke-opacity:1; fill:none" points="
  159.478,1757.56 178.376,1757.56 
  "/>
<polyline clip-path="url(#clip480)" style="stroke:#000000; stroke-linecap:butt; stroke-linejoin:round; stroke-width:4; stroke-opacity:1; fill:none" points="
  159.478,1414.83 178.376,1414.83 
  "/>
<polyline clip-path="url(#clip480)" style="stroke:#000000; stroke-linecap:butt; stroke-linejoin:round; stroke-width:4; stroke-opacity:1; fill:none" points="
  159.478,1072.09 178.376,1072.09 
  "/>
<polyline clip-path="url(#clip480)" style="stroke:#000000; stroke-linecap:butt; stroke-linejoin:round; stroke-width:4; stroke-opacity:1; fill:none" points="
  159.478,729.359 178.376,729.359 
  "/>
<polyline clip-path="url(#clip480)" style="stroke:#000000; stroke-linecap:butt; stroke-linejoin:round; stroke-width:4; stroke-opacity:1; fill:none" points="
  159.478,386.625 178.376,386.625 
  "/>
<path clip-path="url(#clip480)" d="M61.9826 1743.36 Q58.3715 1743.36 56.5428 1746.92 Q54.7373 1750.47 54.7373 1757.6 Q54.7373 1764.7 56.5428 1768.27 Q58.3715 1771.81 61.9826 1771.81 Q65.6169 1771.81 67.4224 1768.27 Q69.2511 1764.7 69.2511 1757.6 Q69.2511 1750.47 67.4224 1746.92 Q65.6169 1743.36 61.9826 1743.36 M61.9826 1739.66 Q67.7928 1739.66 70.8483 1744.26 Q73.927 1748.85 73.927 1757.6 Q73.927 1766.32 70.8483 1770.93 Q67.7928 1775.51 61.9826 1775.51 Q56.1725 1775.51 53.0938 1770.93 Q50.0382 1766.32 50.0382 1757.6 Q50.0382 1748.85 53.0938 1744.26 Q56.1725 1739.66 61.9826 1739.66 Z" fill="#000000" fill-rule="evenodd" fill-opacity="1" /><path clip-path="url(#clip480)" d="M82.1445 1768.96 L87.0288 1768.96 L87.0288 1774.84 L82.1445 1774.84 L82.1445 1768.96 Z" fill="#000000" fill-rule="evenodd" fill-opacity="1" /><path clip-path="url(#clip480)" d="M107.214 1743.36 Q103.603 1743.36 101.774 1746.92 Q99.9685 1750.47 99.9685 1757.6 Q99.9685 1764.7 101.774 1768.27 Q103.603 1771.81 107.214 1771.81 Q110.848 1771.81 112.654 1768.27 Q114.482 1764.7 114.482 1757.6 Q114.482 1750.47 112.654 1746.92 Q110.848 1743.36 107.214 1743.36 M107.214 1739.66 Q113.024 1739.66 116.08 1744.26 Q119.158 1748.85 119.158 1757.6 Q119.158 1766.32 116.08 1770.93 Q113.024 1775.51 107.214 1775.51 Q101.404 1775.51 98.325 1770.93 Q95.2695 1766.32 95.2695 1757.6 Q95.2695 1748.85 98.325 1744.26 Q101.404 1739.66 107.214 1739.66 Z" fill="#000000" fill-rule="evenodd" fill-opacity="1" /><path clip-path="url(#clip480)" d="M63.5798 1400.63 Q59.9687 1400.63 58.14 1404.19 Q56.3345 1407.73 56.3345 1414.86 Q56.3345 1421.97 58.14 1425.53 Q59.9687 1429.07 63.5798 1429.07 Q67.2141 1429.07 69.0196 1425.53 Q70.8483 1421.97 70.8483 1414.86 Q70.8483 1407.73 69.0196 1404.19 Q67.2141 1400.63 63.5798 1400.63 M63.5798 1396.92 Q69.39 1396.92 72.4455 1401.53 Q75.5242 1406.11 75.5242 1414.86 Q75.5242 1423.59 72.4455 1428.2 Q69.39 1432.78 63.5798 1432.78 Q57.7697 1432.78 54.691 1428.2 Q51.6354 1423.59 51.6354 1414.86 Q51.6354 1406.11 54.691 1401.53 Q57.7697 1396.92 63.5798 1396.92 Z" fill="#000000" fill-rule="evenodd" fill-opacity="1" /><path clip-path="url(#clip480)" d="M83.7418 1426.23 L88.626 1426.23 L88.626 1432.11 L83.7418 1432.11 L83.7418 1426.23 Z" fill="#000000" fill-rule="evenodd" fill-opacity="1" /><path clip-path="url(#clip480)" d="M102.839 1428.17 L119.158 1428.17 L119.158 1432.11 L97.2139 1432.11 L97.2139 1428.17 Q99.8759 1425.42 104.459 1420.79 Q109.066 1416.14 110.246 1414.79 Q112.492 1412.27 113.371 1410.53 Q114.274 1408.77 114.274 1407.08 Q114.274 1404.33 112.33 1402.59 Q110.408 1400.86 107.306 1400.86 Q105.107 1400.86 102.654 1401.62 Q100.223 1402.39 97.4454 1403.94 L97.4454 1399.21 Q100.269 1398.08 102.723 1397.5 Q105.177 1396.92 107.214 1396.92 Q112.584 1396.92 115.779 1399.61 Q118.973 1402.29 118.973 1406.78 Q118.973 1408.91 118.163 1410.83 Q117.376 1412.73 115.269 1415.32 Q114.691 1416 111.589 1419.21 Q108.487 1422.41 102.839 1428.17 Z" fill="#000000" fill-rule="evenodd" fill-opacity="1" /><path clip-path="url(#clip480)" d="M61.4965 1057.89 Q57.8854 1057.89 56.0567 1061.46 Q54.2512 1065 54.2512 1072.13 Q54.2512 1079.23 56.0567 1082.8 Q57.8854 1086.34 61.4965 1086.34 Q65.1307 1086.34 66.9363 1082.8 Q68.765 1079.23 68.765 1072.13 Q68.765 1065 66.9363 1061.46 Q65.1307 1057.89 61.4965 1057.89 M61.4965 1054.19 Q67.3067 1054.19 70.3622 1058.79 Q73.4409 1063.38 73.4409 1072.13 Q73.4409 1080.85 70.3622 1085.46 Q67.3067 1090.04 61.4965 1090.04 Q55.6864 1090.04 52.6077 1085.46 Q49.5521 1080.85 49.5521 1072.13 Q49.5521 1063.38 52.6077 1058.79 Q55.6864 1054.19 61.4965 1054.19 Z" fill="#000000" fill-rule="evenodd" fill-opacity="1" /><path clip-path="url(#clip480)" d="M81.6584 1083.49 L86.5427 1083.49 L86.5427 1089.37 L81.6584 1089.37 L81.6584 1083.49 Z" fill="#000000" fill-rule="evenodd" fill-opacity="1" /><path clip-path="url(#clip480)" d="M109.575 1058.89 L97.7695 1077.34 L109.575 1077.34 L109.575 1058.89 M108.348 1054.81 L114.228 1054.81 L114.228 1077.34 L119.158 1077.34 L119.158 1081.22 L114.228 1081.22 L114.228 1089.37 L109.575 1089.37 L109.575 1081.22 L93.9732 1081.22 L93.9732 1076.71 L108.348 1054.81 Z" fill="#000000" fill-rule="evenodd" fill-opacity="1" /><path clip-path="url(#clip480)" d="M61.8206 715.158 Q58.2095 715.158 56.3808 718.722 Q54.5752 722.264 54.5752 729.394 Q54.5752 736.5 56.3808 740.065 Q58.2095 743.606 61.8206 743.606 Q65.4548 743.606 67.2604 740.065 Q69.0891 736.5 69.0891 729.394 Q69.0891 722.264 67.2604 718.722 Q65.4548 715.158 61.8206 715.158 M61.8206 711.454 Q67.6307 711.454 70.6863 716.06 Q73.765 720.644 73.765 729.394 Q73.765 738.12 70.6863 742.727 Q67.6307 747.31 61.8206 747.31 Q56.0104 747.31 52.9317 742.727 Q49.8762 738.12 49.8762 729.394 Q49.8762 720.644 52.9317 716.06 Q56.0104 711.454 61.8206 711.454 Z" fill="#000000" fill-rule="evenodd" fill-opacity="1" /><path clip-path="url(#clip480)" d="M81.9825 740.759 L86.8667 740.759 L86.8667 746.639 L81.9825 746.639 L81.9825 740.759 Z" fill="#000000" fill-rule="evenodd" fill-opacity="1" /><path clip-path="url(#clip480)" d="M107.631 727.495 Q104.482 727.495 102.631 729.648 Q100.802 731.801 100.802 735.551 Q100.802 739.278 102.631 741.454 Q104.482 743.606 107.631 743.606 Q110.779 743.606 112.607 741.454 Q114.459 739.278 114.459 735.551 Q114.459 731.801 112.607 729.648 Q110.779 727.495 107.631 727.495 M116.913 712.843 L116.913 717.102 Q115.154 716.269 113.348 715.829 Q111.566 715.389 109.806 715.389 Q105.177 715.389 102.723 718.514 Q100.293 721.639 99.9454 727.958 Q101.311 725.945 103.371 724.88 Q105.431 723.792 107.908 723.792 Q113.117 723.792 116.126 726.963 Q119.158 730.111 119.158 735.551 Q119.158 740.875 116.01 744.093 Q112.862 747.31 107.631 747.31 Q101.635 747.31 98.4639 742.727 Q95.2926 738.12 95.2926 729.394 Q95.2926 721.199 99.1815 716.338 Q103.07 711.454 109.621 711.454 Q111.38 711.454 113.163 711.801 Q114.968 712.148 116.913 712.843 Z" fill="#000000" fill-rule="evenodd" fill-opacity="1" /><path clip-path="url(#clip480)" d="M62.0752 372.423 Q58.4641 372.423 56.6354 375.988 Q54.8299 379.53 54.8299 386.659 Q54.8299 393.766 56.6354 397.331 Q58.4641 400.872 62.0752 400.872 Q65.7094 400.872 67.515 397.331 Q69.3437 393.766 69.3437 386.659 Q69.3437 379.53 67.515 375.988 Q65.7094 372.423 62.0752 372.423 M62.0752 368.72 Q67.8854 368.72 70.9409 373.326 Q74.0196 377.909 74.0196 386.659 Q74.0196 395.386 70.9409 399.993 Q67.8854 404.576 62.0752 404.576 Q56.2651 404.576 53.1864 399.993 Q50.1308 395.386 50.1308 386.659 Q50.1308 377.909 53.1864 373.326 Q56.2651 368.72 62.0752 368.72 Z" fill="#000000" fill-rule="evenodd" fill-opacity="1" /><path clip-path="url(#clip480)" d="M82.2371 398.025 L87.1214 398.025 L87.1214 403.905 L82.2371 403.905 L82.2371 398.025 Z" fill="#000000" fill-rule="evenodd" fill-opacity="1" /><path clip-path="url(#clip480)" d="M107.306 387.493 Q103.973 387.493 102.052 389.275 Q100.154 391.058 100.154 394.183 Q100.154 397.307 102.052 399.09 Q103.973 400.872 107.306 400.872 Q110.64 400.872 112.561 399.09 Q114.482 397.284 114.482 394.183 Q114.482 391.058 112.561 389.275 Q110.663 387.493 107.306 387.493 M102.631 385.502 Q99.6213 384.761 97.9315 382.701 Q96.2648 380.641 96.2648 377.678 Q96.2648 373.534 99.2046 371.127 Q102.168 368.72 107.306 368.72 Q112.468 368.72 115.408 371.127 Q118.348 373.534 118.348 377.678 Q118.348 380.641 116.658 382.701 Q114.992 384.761 112.005 385.502 Q115.385 386.289 117.26 388.581 Q119.158 390.872 119.158 394.183 Q119.158 399.206 116.08 401.891 Q113.024 404.576 107.306 404.576 Q101.589 404.576 98.5102 401.891 Q95.4547 399.206 95.4547 394.183 Q95.4547 390.872 97.3528 388.581 Q99.2509 386.289 102.631 385.502 M100.918 378.118 Q100.918 380.803 102.584 382.308 Q104.274 383.812 107.306 383.812 Q110.316 383.812 112.005 382.308 Q113.718 380.803 113.718 378.118 Q113.718 375.433 112.005 373.928 Q110.316 372.423 107.306 372.423 Q104.274 372.423 102.584 373.928 Q100.918 375.433 100.918 378.118 Z" fill="#000000" fill-rule="evenodd" fill-opacity="1" /><polyline clip-path="url(#clip482)" style="stroke:#009af9; stroke-linecap:butt; stroke-linejoin:round; stroke-width:4; stroke-opacity:1; fill:none" points="
  1809.09,1488.88 1649.27,1726.48 563.459,162.553 2181.82,653.262 1898.8,1697.94 1880.16,1154.71 878.699,825.218 766.789,679.821 1773.34,809.723 1829.85,1721.99 
  283.077,835.625 566.685,226.329 819.036,1034.25 1499.59,439.883 737.595,1428.02 1890.83,1385.49 1706.73,1525.28 595.047,151.148 2259.12,1303.17 508.908,404.846 
  700.583,761.759 431.391,672.633 229.703,678.348 683.915,281.355 2320.08,1187.37 2185.89,1012.62 2570.53,1465.77 2388.96,850.019 383.755,839.127 1660.05,442.614 
  683.671,1319.49 1059.09,623.591 1966.97,1096.14 336.478,150.534 2095.94,1272.94 880.064,130.479 1821.4,1333.15 1856.24,1080.38 2503.38,1396.25 1467.75,1236.81 
  1150.8,1173.82 2114.36,734.269 790.513,474.544 1890.51,142.97 1672.38,812.808 672.311,984.87 793.217,1441.79 1513.58,342.202 1465.15,247.747 626.015,1138.95 
  1165.63,276.665 1021.76,1654.37 657.017,546.617 2166.25,1392.43 2528.72,1415.99 244.813,1351.56 1796.16,1602.92 1232.62,1262.51 1699.96,700.921 1010.52,792.974 
  1871.85,1751.15 1906.23,565.179 895.129,332.451 1986.61,527.456 1896.95,1016.25 420.287,371.236 1414.85,1531.6 1054.72,1581.35 2525.57,96.8724 840.125,752.609 
  1245.19,1485.1 1214.74,259.044 2298.23,164.145 2175.91,813.251 1880.54,1294.1 1081.46,202.23 2314.21,1172.21 1108.38,552.067 1186.79,953.487 555.892,559.735 
  1964.86,829.884 2413.35,1686.93 2042.31,1567.82 700.345,731.162 2392.97,146.108 273,1451.76 1214.35,678.12 280.982,442.993 639.612,1541.03 1454.89,1418.17 
  1416.3,1047.98 2120.19,471.778 1885.12,1103.51 1913.5,708.257 2313.69,308.247 479.365,896.664 2084.25,1385.58 1413.85,367.835 963.918,624.494 2089.68,1077.55 
  
  "/>
<path clip-path="url(#clip480)" d="
M242.187 1742.33 L542.746 1742.33 L542.746 1638.65 L242.187 1638.65  Z
  " fill="#ffffff" fill-rule="evenodd" fill-opacity="1"/>
<polyline clip-path="url(#clip480)" style="stroke:#000000; stroke-linecap:butt; stroke-linejoin:round; stroke-width:4; stroke-opacity:1; fill:none" points="
  242.187,1742.33 542.746,1742.33 542.746,1638.65 242.187,1638.65 242.187,1742.33 
  "/>
<polyline clip-path="url(#clip480)" style="stroke:#009af9; stroke-linecap:butt; stroke-linejoin:round; stroke-width:4; stroke-opacity:1; fill:none" points="
  269.757,1690.49 435.176,1690.49 
  "/>
<path clip-path="url(#clip480)" d="M476.588 1710.18 Q474.782 1714.81 473.07 1716.22 Q471.357 1717.63 468.486 1717.63 L465.083 1717.63 L465.083 1714.06 L467.583 1714.06 Q469.343 1714.06 470.315 1713.23 Q471.287 1712.4 472.468 1709.3 L473.232 1707.35 L462.746 1681.84 L467.259 1681.84 L475.361 1702.12 L483.463 1681.84 L487.977 1681.84 L476.588 1710.18 Z" fill="#000000" fill-rule="evenodd" fill-opacity="1" /><path clip-path="url(#clip480)" d="M495.268 1703.83 L502.907 1703.83 L502.907 1677.47 L494.597 1679.13 L494.597 1674.87 L502.861 1673.21 L507.537 1673.21 L507.537 1703.83 L515.176 1703.83 L515.176 1707.77 L495.268 1707.77 L495.268 1703.83 Z" fill="#000000" fill-rule="evenodd" fill-opacity="1" /></svg>
