<?xml version="1.0" encoding="utf-8"?>
<svg xmlns="http://www.w3.org/2000/svg" xmlns:xlink="http://www.w3.org/1999/xlink" width="672" height="480" viewBox="0 0 2688 1920">
<defs>
  <clipPath id="clip870">
    <rect x="0" y="0" width="2688" height="1920"/>
  </clipPath>
</defs>
<path clip-path="url(#clip870)" d="
M0 1920 L2688 1920 L2688 0 L0 0  Z
  " fill="#ffffff" fill-rule="evenodd" fill-opacity="1"/>
<defs>
  <clipPath id="clip871">
    <rect x="537" y="0" width="1883" height="1883"/>
  </clipPath>
</defs>
<path clip-path="url(#clip870)" d="
M189.154 1800.78 L2640.76 1800.78 L2640.76 47.2441 L189.154 47.2441  Z
  " fill="#ffffff" fill-rule="evenodd" fill-opacity="1"/>
<defs>
  <clipPath id="clip872">
    <rect x="189" y="47" width="2453" height="1755"/>
  </clipPath>
</defs>
<polyline clip-path="url(#clip872)" style="stroke:#000000; stroke-linecap:butt; stroke-linejoin:round; stroke-width:2; stroke-opacity:0.1; fill:none" points="
  675.592,1800.78 675.592,47.2441 
  "/>
<polyline clip-path="url(#clip872)" style="stroke:#000000; stroke-linecap:butt; stroke-linejoin:round; stroke-width:2; stroke-opacity:0.1; fill:none" points="
  1167.35,1800.78 1167.35,47.2441 
  "/>
<polyline clip-path="url(#clip872)" style="stroke:#000000; stroke-linecap:butt; stroke-linejoin:round; stroke-width:2; stroke-opacity:0.1; fill:none" points="
  1659.11,1800.78 1659.11,47.2441 
  "/>
<polyline clip-path="url(#clip872)" style="stroke:#000000; stroke-linecap:butt; stroke-linejoin:round; stroke-width:2; stroke-opacity:0.1; fill:none" points="
  2150.87,1800.78 2150.87,47.2441 
  "/>
<polyline clip-path="url(#clip870)" style="stroke:#000000; stroke-linecap:butt; stroke-linejoin:round; stroke-width:4; stroke-opacity:1; fill:none" points="
  189.154,1800.78 2640.76,1800.78 
  "/>
<polyline clip-path="url(#clip870)" style="stroke:#000000; stroke-linecap:butt; stroke-linejoin:round; stroke-width:4; stroke-opacity:1; fill:none" points="
  675.592,1800.78 675.592,1781.88 
  "/>
<polyline clip-path="url(#clip870)" style="stroke:#000000; stroke-linecap:butt; stroke-linejoin:round; stroke-width:4; stroke-opacity:1; fill:none" points="
  1167.35,1800.78 1167.35,1781.88 
  "/>
<polyline clip-path="url(#clip870)" style="stroke:#000000; stroke-linecap:butt; stroke-linejoin:round; stroke-width:4; stroke-opacity:1; fill:none" points="
  1659.11,1800.78 1659.11,1781.88 
  "/>
<polyline clip-path="url(#clip870)" style="stroke:#000000; stroke-linecap:butt; stroke-linejoin:round; stroke-width:4; stroke-opacity:1; fill:none" points="
  2150.87,1800.78 2150.87,1781.88 
  "/>
<path clip-path="url(#clip870)" d="M653.775 1834 Q650.164 1834 648.335 1837.57 Q646.529 1841.11 646.529 1848.24 Q646.529 1855.34 648.335 1858.91 Q650.164 1862.45 653.775 1862.45 Q657.409 1862.45 659.215 1858.91 Q661.043 1855.34 661.043 1848.24 Q661.043 1841.11 659.215 1837.57 Q657.409 1834 653.775 1834 M653.775 1830.3 Q659.585 1830.3 662.641 1834.9 Q665.719 1839.49 665.719 1848.24 Q665.719 1856.96 662.641 1861.57 Q659.585 1866.15 653.775 1866.15 Q647.965 1866.15 644.886 1861.57 Q641.83 1856.96 641.83 1848.24 Q641.83 1839.49 644.886 1834.9 Q647.965 1830.3 653.775 1830.3 Z" fill="#000000" fill-rule="evenodd" fill-opacity="1" /><path clip-path="url(#clip870)" d="M673.937 1859.6 L678.821 1859.6 L678.821 1865.48 L673.937 1865.48 L673.937 1859.6 Z" fill="#000000" fill-rule="evenodd" fill-opacity="1" /><path clip-path="url(#clip870)" d="M693.034 1861.55 L709.353 1861.55 L709.353 1865.48 L687.409 1865.48 L687.409 1861.55 Q690.071 1858.79 694.654 1854.16 Q699.261 1849.51 700.441 1848.17 Q702.687 1845.65 703.566 1843.91 Q704.469 1842.15 704.469 1840.46 Q704.469 1837.71 702.525 1835.97 Q700.603 1834.23 697.501 1834.23 Q695.302 1834.23 692.849 1835 Q690.418 1835.76 687.64 1837.31 L687.64 1832.59 Q690.464 1831.46 692.918 1830.88 Q695.372 1830.3 697.409 1830.3 Q702.779 1830.3 705.974 1832.98 Q709.168 1835.67 709.168 1840.16 Q709.168 1842.29 708.358 1844.21 Q707.571 1846.11 705.464 1848.7 Q704.886 1849.37 701.784 1852.59 Q698.682 1855.78 693.034 1861.55 Z" fill="#000000" fill-rule="evenodd" fill-opacity="1" /><path clip-path="url(#clip870)" d="M1144.49 1834 Q1140.88 1834 1139.05 1837.57 Q1137.25 1841.11 1137.25 1848.24 Q1137.25 1855.34 1139.05 1858.91 Q1140.88 1862.45 1144.49 1862.45 Q1148.13 1862.45 1149.93 1858.91 Q1151.76 1855.34 1151.76 1848.24 Q1151.76 1841.11 1149.93 1837.57 Q1148.13 1834 1144.49 1834 M1144.49 1830.3 Q1150.3 1830.3 1153.36 1834.9 Q1156.44 1839.49 1156.44 1848.24 Q1156.44 1856.96 1153.36 1861.57 Q1150.3 1866.15 1144.49 1866.15 Q1138.68 1866.15 1135.6 1861.57 Q1132.55 1856.96 1132.55 1848.24 Q1132.55 1839.49 1135.6 1834.9 Q1138.68 1830.3 1144.49 1830.3 Z" fill="#000000" fill-rule="evenodd" fill-opacity="1" /><path clip-path="url(#clip870)" d="M1164.65 1859.6 L1169.54 1859.6 L1169.54 1865.48 L1164.65 1865.48 L1164.65 1859.6 Z" fill="#000000" fill-rule="evenodd" fill-opacity="1" /><path clip-path="url(#clip870)" d="M1192.57 1835 L1180.76 1853.45 L1192.57 1853.45 L1192.57 1835 M1191.34 1830.92 L1197.22 1830.92 L1197.22 1853.45 L1202.15 1853.45 L1202.15 1857.34 L1197.22 1857.34 L1197.22 1865.48 L1192.57 1865.48 L1192.57 1857.34 L1176.97 1857.34 L1176.97 1852.82 L1191.34 1830.92 Z" fill="#000000" fill-rule="evenodd" fill-opacity="1" /><path clip-path="url(#clip870)" d="M1636.41 1834 Q1632.8 1834 1630.97 1837.57 Q1629.17 1841.11 1629.17 1848.24 Q1629.17 1855.34 1630.97 1858.91 Q1632.8 1862.45 1636.41 1862.45 Q1640.05 1862.45 1641.85 1858.91 Q1643.68 1855.34 1643.68 1848.24 Q1643.68 1841.11 1641.85 1837.57 Q1640.05 1834 1636.41 1834 M1636.41 1830.3 Q1642.22 1830.3 1645.28 1834.9 Q1648.36 1839.49 1648.36 1848.24 Q1648.36 1856.96 1645.28 1861.57 Q1642.22 1866.15 1636.41 1866.15 Q1630.6 1866.15 1627.52 1861.57 Q1624.47 1856.96 1624.47 1848.24 Q1624.47 1839.49 1627.52 1834.9 Q1630.6 1830.3 1636.41 1830.3 Z" fill="#000000" fill-rule="evenodd" fill-opacity="1" /><path clip-path="url(#clip870)" d="M1656.57 1859.6 L1661.46 1859.6 L1661.46 1865.48 L1656.57 1865.48 L1656.57 1859.6 Z" fill="#000000" fill-rule="evenodd" fill-opacity="1" /><path clip-path="url(#clip870)" d="M1682.22 1846.34 Q1679.07 1846.34 1677.22 1848.49 Q1675.39 1850.65 1675.39 1854.4 Q1675.39 1858.12 1677.22 1860.3 Q1679.07 1862.45 1682.22 1862.45 Q1685.37 1862.45 1687.2 1860.3 Q1689.05 1858.12 1689.05 1854.4 Q1689.05 1850.65 1687.2 1848.49 Q1685.37 1846.34 1682.22 1846.34 M1691.5 1831.69 L1691.5 1835.95 Q1689.74 1835.11 1687.94 1834.67 Q1686.16 1834.23 1684.4 1834.23 Q1679.77 1834.23 1677.31 1837.36 Q1674.88 1840.48 1674.54 1846.8 Q1675.9 1844.79 1677.96 1843.72 Q1680.02 1842.64 1682.5 1842.64 Q1687.71 1842.64 1690.72 1845.81 Q1693.75 1848.96 1693.75 1854.4 Q1693.75 1859.72 1690.6 1862.94 Q1687.45 1866.15 1682.22 1866.15 Q1676.23 1866.15 1673.05 1861.57 Q1669.88 1856.96 1669.88 1848.24 Q1669.88 1840.04 1673.77 1835.18 Q1677.66 1830.3 1684.21 1830.3 Q1685.97 1830.3 1687.75 1830.65 Q1689.56 1830.99 1691.5 1831.69 Z" fill="#000000" fill-rule="evenodd" fill-opacity="1" /><path clip-path="url(#clip870)" d="M2128.3 1834 Q2124.69 1834 2122.86 1837.57 Q2121.05 1841.11 2121.05 1848.24 Q2121.05 1855.34 2122.86 1858.91 Q2124.69 1862.45 2128.3 1862.45 Q2131.93 1862.45 2133.74 1858.91 Q2135.56 1855.34 2135.56 1848.24 Q2135.56 1841.11 2133.74 1837.57 Q2131.93 1834 2128.3 1834 M2128.3 1830.3 Q2134.11 1830.3 2137.16 1834.9 Q2140.24 1839.49 2140.24 1848.24 Q2140.24 1856.96 2137.16 1861.57 Q2134.11 1866.15 2128.3 1866.15 Q2122.49 1866.15 2119.41 1861.57 Q2116.35 1856.96 2116.35 1848.24 Q2116.35 1839.49 2119.41 1834.9 Q2122.49 1830.3 2128.3 1830.3 Z" fill="#000000" fill-rule="evenodd" fill-opacity="1" /><path clip-path="url(#clip870)" d="M2148.46 1859.6 L2153.34 1859.6 L2153.34 1865.48 L2148.46 1865.48 L2148.46 1859.6 Z" fill="#000000" fill-rule="evenodd" fill-opacity="1" /><path clip-path="url(#clip870)" d="M2173.53 1849.07 Q2170.19 1849.07 2168.27 1850.85 Q2166.37 1852.64 2166.37 1855.76 Q2166.37 1858.89 2168.27 1860.67 Q2170.19 1862.45 2173.53 1862.45 Q2176.86 1862.45 2178.78 1860.67 Q2180.7 1858.86 2180.7 1855.76 Q2180.7 1852.64 2178.78 1850.85 Q2176.88 1849.07 2173.53 1849.07 M2168.85 1847.08 Q2165.84 1846.34 2164.15 1844.28 Q2162.49 1842.22 2162.49 1839.26 Q2162.49 1835.11 2165.43 1832.71 Q2168.39 1830.3 2173.53 1830.3 Q2178.69 1830.3 2181.63 1832.71 Q2184.57 1835.11 2184.57 1839.26 Q2184.57 1842.22 2182.88 1844.28 Q2181.21 1846.34 2178.23 1847.08 Q2181.61 1847.87 2183.48 1850.16 Q2185.38 1852.45 2185.38 1855.76 Q2185.38 1860.78 2182.3 1863.47 Q2179.25 1866.15 2173.53 1866.15 Q2167.81 1866.15 2164.73 1863.47 Q2161.68 1860.78 2161.68 1855.76 Q2161.68 1852.45 2163.57 1850.16 Q2165.47 1847.87 2168.85 1847.08 M2167.14 1839.7 Q2167.14 1842.38 2168.81 1843.89 Q2170.5 1845.39 2173.53 1845.39 Q2176.54 1845.39 2178.23 1843.89 Q2179.94 1842.38 2179.94 1839.7 Q2179.94 1837.01 2178.23 1835.51 Q2176.54 1834 2173.53 1834 Q2170.5 1834 2168.81 1835.51 Q2167.14 1837.01 2167.14 1839.7 Z" fill="#000000" fill-rule="evenodd" fill-opacity="1" /><polyline clip-path="url(#clip872)" style="stroke:#000000; stroke-linecap:butt; stroke-linejoin:round; stroke-width:2; stroke-opacity:0.1; fill:none" points="
  189.154,1752.75 2640.76,1752.75 
  "/>
<polyline clip-path="url(#clip872)" style="stroke:#000000; stroke-linecap:butt; stroke-linejoin:round; stroke-width:2; stroke-opacity:0.1; fill:none" points="
  189.154,1337.36 2640.76,1337.36 
  "/>
<polyline clip-path="url(#clip872)" style="stroke:#000000; stroke-linecap:butt; stroke-linejoin:round; stroke-width:2; stroke-opacity:0.1; fill:none" points="
  189.154,921.974 2640.76,921.974 
  "/>
<polyline clip-path="url(#clip872)" style="stroke:#000000; stroke-linecap:butt; stroke-linejoin:round; stroke-width:2; stroke-opacity:0.1; fill:none" points="
  189.154,506.588 2640.76,506.588 
  "/>
<polyline clip-path="url(#clip872)" style="stroke:#000000; stroke-linecap:butt; stroke-linejoin:round; stroke-width:2; stroke-opacity:0.1; fill:none" points="
  189.154,91.2015 2640.76,91.2015 
  "/>
<polyline clip-path="url(#clip870)" style="stroke:#000000; stroke-linecap:butt; stroke-linejoin:round; stroke-width:4; stroke-opacity:1; fill:none" points="
  189.154,1800.78 189.154,47.2441 
  "/>
<polyline clip-path="url(#clip870)" style="stroke:#000000; stroke-linecap:butt; stroke-linejoin:round; stroke-width:4; stroke-opacity:1; fill:none" points="
  189.154,1752.75 208.052,1752.75 
  "/>
<polyline clip-path="url(#clip870)" style="stroke:#000000; stroke-linecap:butt; stroke-linejoin:round; stroke-width:4; stroke-opacity:1; fill:none" points="
  189.154,1337.36 208.052,1337.36 
  "/>
<polyline clip-path="url(#clip870)" style="stroke:#000000; stroke-linecap:butt; stroke-linejoin:round; stroke-width:4; stroke-opacity:1; fill:none" points="
  189.154,921.974 208.052,921.974 
  "/>
<polyline clip-path="url(#clip870)" style="stroke:#000000; stroke-linecap:butt; stroke-linejoin:round; stroke-width:4; stroke-opacity:1; fill:none" points="
  189.154,506.588 208.052,506.588 
  "/>
<polyline clip-path="url(#clip870)" style="stroke:#000000; stroke-linecap:butt; stroke-linejoin:round; stroke-width:4; stroke-opacity:1; fill:none" points="
  189.154,91.2015 208.052,91.2015 
  "/>
<path clip-path="url(#clip870)" d="M61.4965 1738.55 Q57.8854 1738.55 56.0567 1742.11 Q54.2512 1745.65 54.2512 1752.78 Q54.2512 1759.89 56.0567 1763.45 Q57.8854 1766.99 61.4965 1766.99 Q65.1307 1766.99 66.9363 1763.45 Q68.765 1759.89 68.765 1752.78 Q68.765 1745.65 66.9363 1742.11 Q65.1307 1738.55 61.4965 1738.55 M61.4965 1734.84 Q67.3067 1734.84 70.3622 1739.45 Q73.4409 1744.03 73.4409 1752.78 Q73.4409 1761.51 70.3622 1766.11 Q67.3067 1770.7 61.4965 1770.7 Q55.6864 1770.7 52.6077 1766.11 Q49.5521 1761.51 49.5521 1752.78 Q49.5521 1744.03 52.6077 1739.45 Q55.6864 1734.84 61.4965 1734.84 Z" fill="#000000" fill-rule="evenodd" fill-opacity="1" /><path clip-path="url(#clip870)" d="M81.6584 1764.15 L86.5427 1764.15 L86.5427 1770.03 L81.6584 1770.03 L81.6584 1764.15 Z" fill="#000000" fill-rule="evenodd" fill-opacity="1" /><path clip-path="url(#clip870)" d="M106.728 1738.55 Q103.117 1738.55 101.288 1742.11 Q99.4824 1745.65 99.4824 1752.78 Q99.4824 1759.89 101.288 1763.45 Q103.117 1766.99 106.728 1766.99 Q110.362 1766.99 112.168 1763.45 Q113.996 1759.89 113.996 1752.78 Q113.996 1745.65 112.168 1742.11 Q110.362 1738.55 106.728 1738.55 M106.728 1734.84 Q112.538 1734.84 115.593 1739.45 Q118.672 1744.03 118.672 1752.78 Q118.672 1761.51 115.593 1766.11 Q112.538 1770.7 106.728 1770.7 Q100.918 1770.7 97.8389 1766.11 Q94.7834 1761.51 94.7834 1752.78 Q94.7834 1744.03 97.8389 1739.45 Q100.918 1734.84 106.728 1734.84 Z" fill="#000000" fill-rule="evenodd" fill-opacity="1" /><path clip-path="url(#clip870)" d="M136.89 1738.55 Q133.279 1738.55 131.45 1742.11 Q129.644 1745.65 129.644 1752.78 Q129.644 1759.89 131.45 1763.45 Q133.279 1766.99 136.89 1766.99 Q140.524 1766.99 142.329 1763.45 Q144.158 1759.89 144.158 1752.78 Q144.158 1745.65 142.329 1742.11 Q140.524 1738.55 136.89 1738.55 M136.89 1734.84 Q142.7 1734.84 145.755 1739.45 Q148.834 1744.03 148.834 1752.78 Q148.834 1761.51 145.755 1766.11 Q142.7 1770.7 136.89 1770.7 Q131.079 1770.7 128.001 1766.11 Q124.945 1761.51 124.945 1752.78 Q124.945 1744.03 128.001 1739.45 Q131.079 1734.84 136.89 1734.84 Z" fill="#000000" fill-rule="evenodd" fill-opacity="1" /><path clip-path="url(#clip870)" d="M62.4919 1323.16 Q58.8808 1323.16 57.0521 1326.72 Q55.2465 1330.27 55.2465 1337.4 Q55.2465 1344.5 57.0521 1348.07 Q58.8808 1351.61 62.4919 1351.61 Q66.1261 1351.61 67.9317 1348.07 Q69.7604 1344.5 69.7604 1337.4 Q69.7604 1330.27 67.9317 1326.72 Q66.1261 1323.16 62.4919 1323.16 M62.4919 1319.46 Q68.302 1319.46 71.3576 1324.06 Q74.4363 1328.65 74.4363 1337.4 Q74.4363 1346.12 71.3576 1350.73 Q68.302 1355.31 62.4919 1355.31 Q56.6817 1355.31 53.603 1350.73 Q50.5475 1346.12 50.5475 1337.4 Q50.5475 1328.65 53.603 1324.06 Q56.6817 1319.46 62.4919 1319.46 Z" fill="#000000" fill-rule="evenodd" fill-opacity="1" /><path clip-path="url(#clip870)" d="M82.6538 1348.76 L87.538 1348.76 L87.538 1354.64 L82.6538 1354.64 L82.6538 1348.76 Z" fill="#000000" fill-rule="evenodd" fill-opacity="1" /><path clip-path="url(#clip870)" d="M101.751 1350.71 L118.07 1350.71 L118.07 1354.64 L96.126 1354.64 L96.126 1350.71 Q98.788 1347.95 103.371 1343.32 Q107.978 1338.67 109.158 1337.33 Q111.404 1334.8 112.283 1333.07 Q113.186 1331.31 113.186 1329.62 Q113.186 1326.86 111.242 1325.13 Q109.32 1323.39 106.218 1323.39 Q104.019 1323.39 101.566 1324.15 Q99.1352 1324.92 96.3574 1326.47 L96.3574 1321.75 Q99.1815 1320.61 101.635 1320.03 Q104.089 1319.46 106.126 1319.46 Q111.496 1319.46 114.691 1322.14 Q117.885 1324.83 117.885 1329.32 Q117.885 1331.45 117.075 1333.37 Q116.288 1335.27 114.181 1337.86 Q113.603 1338.53 110.501 1341.75 Q107.399 1344.94 101.751 1350.71 Z" fill="#000000" fill-rule="evenodd" fill-opacity="1" /><path clip-path="url(#clip870)" d="M127.931 1320.08 L146.288 1320.08 L146.288 1324.02 L132.214 1324.02 L132.214 1332.49 Q133.232 1332.14 134.251 1331.98 Q135.269 1331.79 136.288 1331.79 Q142.075 1331.79 145.454 1334.96 Q148.834 1338.14 148.834 1343.55 Q148.834 1349.13 145.362 1352.23 Q141.89 1355.31 135.57 1355.31 Q133.394 1355.31 131.126 1354.94 Q128.88 1354.57 126.473 1353.83 L126.473 1349.13 Q128.556 1350.27 130.779 1350.82 Q133.001 1351.38 135.478 1351.38 Q139.482 1351.38 141.82 1349.27 Q144.158 1347.16 144.158 1343.55 Q144.158 1339.94 141.82 1337.83 Q139.482 1335.73 135.478 1335.73 Q133.603 1335.73 131.728 1336.15 Q129.876 1336.56 127.931 1337.44 L127.931 1320.08 Z" fill="#000000" fill-rule="evenodd" fill-opacity="1" /><path clip-path="url(#clip870)" d="M61.4965 907.773 Q57.8854 907.773 56.0567 911.338 Q54.2512 914.879 54.2512 922.009 Q54.2512 929.115 56.0567 932.68 Q57.8854 936.222 61.4965 936.222 Q65.1307 936.222 66.9363 932.68 Q68.765 929.115 68.765 922.009 Q68.765 914.879 66.9363 911.338 Q65.1307 907.773 61.4965 907.773 M61.4965 904.069 Q67.3067 904.069 70.3622 908.675 Q73.4409 913.259 73.4409 922.009 Q73.4409 930.736 70.3622 935.342 Q67.3067 939.925 61.4965 939.925 Q55.6864 939.925 52.6077 935.342 Q49.5521 930.736 49.5521 922.009 Q49.5521 913.259 52.6077 908.675 Q55.6864 904.069 61.4965 904.069 Z" fill="#000000" fill-rule="evenodd" fill-opacity="1" /><path clip-path="url(#clip870)" d="M81.6584 933.374 L86.5427 933.374 L86.5427 939.254 L81.6584 939.254 L81.6584 933.374 Z" fill="#000000" fill-rule="evenodd" fill-opacity="1" /><path clip-path="url(#clip870)" d="M96.7741 904.694 L115.13 904.694 L115.13 908.629 L101.056 908.629 L101.056 917.101 Q102.075 916.754 103.094 916.592 Q104.112 916.407 105.131 916.407 Q110.918 916.407 114.297 919.578 Q117.677 922.749 117.677 928.166 Q117.677 933.745 114.205 936.847 Q110.732 939.925 104.413 939.925 Q102.237 939.925 99.9685 939.555 Q97.7232 939.185 95.3158 938.444 L95.3158 933.745 Q97.3991 934.879 99.6213 935.435 Q101.844 935.99 104.32 935.99 Q108.325 935.99 110.663 933.884 Q113.001 931.777 113.001 928.166 Q113.001 924.555 110.663 922.449 Q108.325 920.342 104.32 920.342 Q102.445 920.342 100.57 920.759 Q98.7185 921.175 96.7741 922.055 L96.7741 904.694 Z" fill="#000000" fill-rule="evenodd" fill-opacity="1" /><path clip-path="url(#clip870)" d="M136.89 907.773 Q133.279 907.773 131.45 911.338 Q129.644 914.879 129.644 922.009 Q129.644 929.115 131.45 932.68 Q133.279 936.222 136.89 936.222 Q140.524 936.222 142.329 932.68 Q144.158 929.115 144.158 922.009 Q144.158 914.879 142.329 911.338 Q140.524 907.773 136.89 907.773 M136.89 904.069 Q142.7 904.069 145.755 908.675 Q148.834 913.259 148.834 922.009 Q148.834 930.736 145.755 935.342 Q142.7 939.925 136.89 939.925 Q131.079 939.925 128.001 935.342 Q124.945 930.736 124.945 922.009 Q124.945 913.259 128.001 908.675 Q131.079 904.069 136.89 904.069 Z" fill="#000000" fill-rule="evenodd" fill-opacity="1" /><path clip-path="url(#clip870)" d="M62.4919 492.386 Q58.8808 492.386 57.0521 495.951 Q55.2465 499.493 55.2465 506.622 Q55.2465 513.729 57.0521 517.294 Q58.8808 520.835 62.4919 520.835 Q66.1261 520.835 67.9317 517.294 Q69.7604 513.729 69.7604 506.622 Q69.7604 499.493 67.9317 495.951 Q66.1261 492.386 62.4919 492.386 M62.4919 488.683 Q68.302 488.683 71.3576 493.289 Q74.4363 497.873 74.4363 506.622 Q74.4363 515.349 71.3576 519.956 Q68.302 524.539 62.4919 524.539 Q56.6817 524.539 53.603 519.956 Q50.5475 515.349 50.5475 506.622 Q50.5475 497.873 53.603 493.289 Q56.6817 488.683 62.4919 488.683 Z" fill="#000000" fill-rule="evenodd" fill-opacity="1" /><path clip-path="url(#clip870)" d="M82.6538 517.988 L87.538 517.988 L87.538 523.868 L82.6538 523.868 L82.6538 517.988 Z" fill="#000000" fill-rule="evenodd" fill-opacity="1" /><path clip-path="url(#clip870)" d="M96.5426 489.308 L118.765 489.308 L118.765 491.299 L106.218 523.868 L101.334 523.868 L113.14 493.243 L96.5426 493.243 L96.5426 489.308 Z" fill="#000000" fill-rule="evenodd" fill-opacity="1" /><path clip-path="url(#clip870)" d="M127.931 489.308 L146.288 489.308 L146.288 493.243 L132.214 493.243 L132.214 501.715 Q133.232 501.368 134.251 501.206 Q135.269 501.021 136.288 501.021 Q142.075 501.021 145.454 504.192 Q148.834 507.363 148.834 512.78 Q148.834 518.359 145.362 521.46 Q141.89 524.539 135.57 524.539 Q133.394 524.539 131.126 524.169 Q128.88 523.798 126.473 523.058 L126.473 518.359 Q128.556 519.493 130.779 520.048 Q133.001 520.604 135.478 520.604 Q139.482 520.604 141.82 518.497 Q144.158 516.391 144.158 512.78 Q144.158 509.169 141.82 507.062 Q139.482 504.956 135.478 504.956 Q133.603 504.956 131.728 505.373 Q129.876 505.789 127.931 506.669 L127.931 489.308 Z" fill="#000000" fill-rule="evenodd" fill-opacity="1" /><path clip-path="url(#clip870)" d="M52.3067 104.546 L59.9456 104.546 L59.9456 78.1807 L51.6354 79.8474 L51.6354 75.5882 L59.8993 73.9215 L64.5752 73.9215 L64.5752 104.546 L72.214 104.546 L72.214 108.482 L52.3067 108.482 L52.3067 104.546 Z" fill="#000000" fill-rule="evenodd" fill-opacity="1" /><path clip-path="url(#clip870)" d="M81.6584 102.602 L86.5427 102.602 L86.5427 108.482 L81.6584 108.482 L81.6584 102.602 Z" fill="#000000" fill-rule="evenodd" fill-opacity="1" /><path clip-path="url(#clip870)" d="M106.728 77.0002 Q103.117 77.0002 101.288 80.565 Q99.4824 84.1066 99.4824 91.2362 Q99.4824 98.3427 101.288 101.907 Q103.117 105.449 106.728 105.449 Q110.362 105.449 112.168 101.907 Q113.996 98.3427 113.996 91.2362 Q113.996 84.1066 112.168 80.565 Q110.362 77.0002 106.728 77.0002 M106.728 73.2965 Q112.538 73.2965 115.593 77.903 Q118.672 82.4863 118.672 91.2362 Q118.672 99.963 115.593 104.569 Q112.538 109.153 106.728 109.153 Q100.918 109.153 97.8389 104.569 Q94.7834 99.963 94.7834 91.2362 Q94.7834 82.4863 97.8389 77.903 Q100.918 73.2965 106.728 73.2965 Z" fill="#000000" fill-rule="evenodd" fill-opacity="1" /><path clip-path="url(#clip870)" d="M136.89 77.0002 Q133.279 77.0002 131.45 80.565 Q129.644 84.1066 129.644 91.2362 Q129.644 98.3427 131.45 101.907 Q133.279 105.449 136.89 105.449 Q140.524 105.449 142.329 101.907 Q144.158 98.3427 144.158 91.2362 Q144.158 84.1066 142.329 80.565 Q140.524 77.0002 136.89 77.0002 M136.89 73.2965 Q142.7 73.2965 145.755 77.903 Q148.834 82.4863 148.834 91.2362 Q148.834 99.963 145.755 104.569 Q142.7 109.153 136.89 109.153 Q131.079 109.153 128.001 104.569 Q124.945 99.963 124.945 91.2362 Q124.945 82.4863 128.001 77.903 Q131.079 73.2965 136.89 73.2965 Z" fill="#000000" fill-rule="evenodd" fill-opacity="1" /><polyline clip-path="url(#clip872)" style="stroke:#009af9; stroke-linecap:butt; stroke-linejoin:round; stroke-width:4; stroke-opacity:1; fill:none" points="
  791.132,113.685 2010.01,1486.15 2083.43,1216.85 2139.66,430.14 1544.67,857.962 1984.03,499.056 1491.54,1209.5 1305.04,1470.42 1300.05,1658.72 1067.51,1288.96 
  2046.18,276.929 1978.56,1529.15 2446.07,884.826 812.571,314.957 2401.86,910.044 2248.9,685.922 1275.49,1363.14 1730.55,475.407 2165.04,343.123 1911.47,336.447 
  960.58,108.417 2571.37,1103.3 1234.54,933.8 2009.47,633.532 2368.63,343.682 952.527,1559.78 1018.02,543.577 2042.14,184.881 2339.12,341.449 1079.13,979.811 
  1030.36,210.83 1059.09,289.258 2240.46,235.735 454.068,1143.49 1907.68,1595.56 1054.45,504.044 864.011,763.709 1388.59,1461.87 1451.62,1320.7 1263.76,1010.5 
  527.659,709.88 2478.17,1542.23 324.59,645.517 1897.23,1225 2535.77,138.993 2383.74,215.172 281.024,722.872 2093.55,578.563 341.595,1308.14 1688.39,1165.1 
  1829.48,1703.33 800.336,1013.19 2325.28,809.146 1726.58,1202.45 2428.61,1583.62 1171.84,777.722 400.451,541.141 1459.45,812.073 2199.28,1728.2 1672.13,258.277 
  1009.21,442.521 995.282,722.253 325.83,1442.82 603.888,254.929 1570.17,1175.42 1773.77,472.893 2416.15,494.446 1194.49,781.116 1900.06,96.8724 362.437,234.353 
  1063.38,982.98 1432.68,211.243 261.691,1202.34 2266.49,1157.75 2367.7,1128.31 1155.55,827.068 525.95,405.445 538.035,1304.87 942.237,749.076 258.539,299.36 
  2217.15,969.165 663.882,664.237 2207.96,1251.7 1504.57,1249.65 2244.52,1601.67 1254.11,1603.11 2055.77,1739.14 1887.44,1067.44 913.704,1002.44 710.482,241.622 
  810.094,295.444 2278.68,574.619 2082.83,901.645 2194.95,882.096 2306.3,531.632 2419.41,1739.14 1579.81,124.455 1556.42,1751.15 1222.07,411.119 2223.21,396.821 
  
  "/>
<path clip-path="url(#clip870)" d="
M270.874 1742.33 L568.465 1742.33 L568.465 1638.65 L270.874 1638.65  Z
  " fill="#ffffff" fill-rule="evenodd" fill-opacity="1"/>
<polyline clip-path="url(#clip870)" style="stroke:#000000; stroke-linecap:butt; stroke-linejoin:round; stroke-width:4; stroke-opacity:1; fill:none" points="
  270.874,1742.33 568.465,1742.33 568.465,1638.65 270.874,1638.65 270.874,1742.33 
  "/>
<polyline clip-path="url(#clip870)" style="stroke:#009af9; stroke-linecap:butt; stroke-linejoin:round; stroke-width:4; stroke-opacity:1; fill:none" points="
  298.114,1690.49 461.554,1690.49 
  "/>
<path clip-path="url(#clip870)" d="M502.637 1710.18 Q500.831 1714.81 499.118 1716.22 Q497.405 1717.63 494.535 1717.63 L491.132 1717.63 L491.132 1714.06 L493.632 1714.06 Q495.391 1714.06 496.364 1713.23 Q497.336 1712.4 498.516 1709.3 L499.28 1707.35 L488.794 1681.84 L493.308 1681.84 L501.41 1702.12 L509.512 1681.84 L514.026 1681.84 L502.637 1710.18 Z" fill="#000000" fill-rule="evenodd" fill-opacity="1" /><path clip-path="url(#clip870)" d="M521.317 1703.83 L528.956 1703.83 L528.956 1677.47 L520.646 1679.13 L520.646 1674.87 L528.91 1673.21 L533.586 1673.21 L533.586 1703.83 L541.225 1703.83 L541.225 1707.77 L521.317 1707.77 L521.317 1703.83 Z" fill="#000000" fill-rule="evenodd" fill-opacity="1" /></svg>
